<?xml version="1.0" encoding="utf-8"?>
<!-- Generator: Adobe Illustrator 24.0.1, SVG Export Plug-In . SVG Version: 6.00 Build 0)  -->
<svg version="1.1" id="Layer_1" xmlns="http://www.w3.org/2000/svg" xmlns:xlink="http://www.w3.org/1999/xlink" x="0px" y="0px"
	 width="2087.3px" height="372.8px" viewBox="0 0 2087.3 372.8" style="enable-background:new 0 0 2087.3 372.8;"
	 xml:space="preserve">
<style type="text/css">
	.st0{fill-rule:evenodd;clip-rule:evenodd;fill:#FFFFFF;}
</style>
<g>
	<path class="st0" d="M637.6,35.3c-86.3,0-149.3,70.1-149.3,151v1.1c0,80.9,62.5,150,148.2,150c86.3,0,149.3-70.2,149.3-151.1v-1.1
		C785.8,104.3,723.4,35.3,637.6,35.3z M755.7,187.5L755.7,187.5c0,67.9-49.4,123.9-118.1,123.9c-67,0-119.2-55.4-119.2-125v-1.1
		c0-67.9,49.4-123.9,118.1-123.9c67,0,119.2,55.4,119.2,125V187.5z"/>
	<path class="st0" d="M850.9,187.5v-1.1c0-80.9,64.5-151,147.2-151c54.3,0,88.3,24.9,115.5,53.2l-19.8,20.3
		c-24.9-25.4-53.2-47.5-96.3-47.5c-65.6,0-116.6,54.9-116.6,123.9v1.1c0,69.6,52.6,125,118.9,125c40.7,0,72.4-20.9,96.8-48.1
		l19.3,17c-29.4,33.4-64.6,57.2-117.7,57.2C914.9,337.4,850.9,268.4,850.9,187.5L850.9,187.5z"/>
	<path class="st0" d="M1436.5,186.3c0-85.4-51.5-151-132.5-151c-78.1,0-137.1,66.7-137.1,150.4v1.2h0c0,89.9,65.7,150.5,141.6,150.5
		c55.5,0,90-22.6,119.5-54.3l-19.3-17c-23.7,25.5-54.4,45.2-99,45.2c-56.7,0-108.2-41.9-113.3-113.7H1436
		C1436.5,193.2,1436.5,191.4,1436.5,186.3z M1196.4,172.8c5.1-63.9,49.2-112,106.5-112c66.3,0,99.7,53.8,103.6,112H1196.4z"/>
	<path class="st0" d="M1713.6,67.2c-21.1-21.1-52.5-31.9-91.8-31.9c-39.9,0-71.3,10.3-103.3,25l10.3,24.6
		c26.8-13.7,55.9-23.4,91.3-23.4c59.9,0,95.8,30.2,95.8,88.9V163c-28-7.4-55.9-12.6-96.4-12.6c-75.3,0-127.2,34.2-127.2,94.6v1.1h0
		c0,60.5,58.2,91.3,112.4,91.3c55.3,0,91.3-27.4,111.2-55.3v48.5h27.4V149.3C1743.3,113.4,1733,86.6,1713.6,67.2z M1716.5,221.7
		c0,53-50.7,89.5-110,89.5c-44.5,0-84.5-24.5-84.5-66.7v-1.1c0-40.5,34.2-67.8,95.9-67.8c41.6,0,74.1,6.8,98.6,13.1V221.7z"/>
	<path class="st0" d="M1840.9,42.1h27.7v54.1c19.1-34.2,51.2-60.9,103.7-60.9c72.7,0,115,50.1,115,119.7v177.8h-27.6V160.1
		c0-59.8-33.3-99.2-91.3-99.2c-56.4,0-99.7,43.3-99.7,103.7v168.1h-27.7V42.1L1840.9,42.1z"/>
</g>
<g>
	<path class="st0" d="M47.1,179.4c0,10.9-8.9,19.8-19.8,19.8c-10.9,0-19.8-8.9-19.8-19.8c0-10.9,8.9-19.8,19.8-19.8
		C38.3,159.6,47.1,168.5,47.1,179.4L47.1,179.4z"/>
	<path class="st0" d="M362,179.4c0,10.9-8.9,19.8-19.8,19.8c-10.9,0-19.8-8.9-19.8-19.8c0-10.9,8.9-19.8,19.8-19.8
		C353.2,159.6,362,168.5,362,179.4z"/>
	<path class="st0" d="M204.6,257.6c0,10.9-8.9,19.8-19.8,19.8c-10.9,0-19.8-8.9-19.8-19.8c0-10.9,8.9-19.8,19.8-19.8
		C195.7,237.8,204.6,246.7,204.6,257.6z"/>
	<path class="st0" d="M125.3,219c0,10.9-8.9,19.8-19.8,19.8c-10.9,0-19.8-8.9-19.8-19.8c0-10.9,8.9-19.8,19.8-19.8
		C116.5,199.2,125.3,208.1,125.3,219z"/>
	<path class="st0" d="M282.8,219c0,10.9-8.9,19.8-19.8,19.8c-10.9,0-19.8-8.9-19.8-19.8c0-10.9,8.9-19.8,19.8-19.8
		C273.9,199.2,282.8,208.1,282.8,219z"/>
	<path class="st0" d="M40.7,239.4c0,7.4-6,13.4-13.4,13.4c-7.4,0-13.4-6-13.4-13.4c0-7.4,6-13.4,13.4-13.4
		C34.7,226,40.7,232,40.7,239.4z"/>
	<path class="st0" d="M355.6,239.4c0,7.4-6,13.4-13.4,13.4c-7.4,0-13.4-6-13.4-13.4c0-7.4,6-13.4,13.4-13.4
		C349.6,226,355.6,232,355.6,239.4L355.6,239.4z"/>
	<path class="st0" d="M198.2,318.7c0,7.4-6,13.4-13.4,13.4c-7.4,0-13.4-6-13.4-13.4c0-7.4,6-13.4,13.4-13.4
		C192.2,305.3,198.2,311.3,198.2,318.7z"/>
	<path class="st0" d="M118.9,279c0,7.4-6,13.4-13.4,13.4c-7.4,0-13.4-6-13.4-13.4c0-7.4,6-13.4,13.4-13.4
		C112.9,265.6,118.9,271.6,118.9,279z"/>
	<path class="st0" d="M276.4,279c0,7.4-6,13.4-13.4,13.4c-7.4,0-13.4-6-13.4-13.4c0-7.4,6-13.4,13.4-13.4
		C270.4,265.6,276.4,271.6,276.4,279z"/>
	<path class="st0" d="M34.3,286.5c0,1.8-0.7,3.6-2,4.9c-1.3,1.3-3.1,2-4.9,2c-1.8,0-3.6-0.7-4.9-2c-1.3-1.3-2-3.1-2-4.9
		c0-0.9,0.2-1.8,0.5-2.7c0.4-0.8,0.9-1.6,1.5-2.3c0.6-0.6,1.4-1.2,2.3-1.5c0.8-0.3,1.8-0.5,2.7-0.5c0.9,0,1.8,0.2,2.7,0.5
		c0.8,0.4,1.6,0.9,2.3,1.5c0.6,0.6,1.2,1.4,1.5,2.3C34.1,284.7,34.3,285.6,34.3,286.5L34.3,286.5z"/>
	<path class="st0" d="M349.2,286.5c0,1.8-0.7,3.6-2,4.9c-1.3,1.3-3.1,2-4.9,2c-1.8,0-3.6-0.7-4.9-2c-1.3-1.3-2-3.1-2-4.9
		c0-0.9,0.2-1.8,0.5-2.7c0.4-0.8,0.9-1.6,1.5-2.3c0.6-0.6,1.4-1.2,2.3-1.5c0.8-0.3,1.8-0.5,2.7-0.5
		C346.1,279.6,349.2,282.7,349.2,286.5L349.2,286.5z"/>
	<path class="st0" d="M191.7,365.8c0,3.8-3.1,7-7,7c-1.8,0-3.6-0.7-4.9-2c-1.3-1.3-2-3.1-2-4.9c0-0.9,0.2-1.8,0.5-2.7
		c0.4-0.8,0.9-1.6,1.5-2.3c0.6-0.6,1.4-1.2,2.3-1.5c0.8-0.3,1.8-0.5,2.7-0.5c1.8,0,3.6,0.7,4.9,2S191.7,363.9,191.7,365.8
		L191.7,365.8z"/>
	<path class="st0" d="M112.5,326.2c0,1.8-0.7,3.6-2,4.9c-1.3,1.3-3.1,2-4.9,2c-1.8,0-3.6-0.7-4.9-2c-1.3-1.3-2-3.1-2-4.9
		c0-0.9,0.2-1.8,0.5-2.7c0.4-0.8,0.9-1.6,1.5-2.3c0.6-0.6,1.4-1.2,2.3-1.5c0.8-0.4,1.8-0.5,2.7-0.5c0.9,0,1.8,0.2,2.7,0.5
		c0.8,0.3,1.6,0.9,2.3,1.5c0.6,0.6,1.2,1.4,1.5,2.3C112.3,324.3,112.5,325.2,112.5,326.2L112.5,326.2z"/>
	<path class="st0" d="M269.9,326.2c0,3.8-3.1,7-7,7c-0.9,0-1.8-0.2-2.7-0.5c-0.8-0.3-1.6-0.9-2.3-1.5c-0.6-0.6-1.2-1.4-1.5-2.3
		s-0.5-1.8-0.5-2.7c0-0.9,0.2-1.8,0.5-2.7c0.3-0.8,0.9-1.6,1.5-2.3c0.6-0.6,1.4-1.2,2.3-1.5c0.8-0.4,1.8-0.5,2.7-0.5
		c0.9,0,1.8,0.2,2.7,0.5c0.8,0.4,1.6,0.9,2.3,1.5c0.6,0.6,1.2,1.4,1.5,2.3C269.7,324.3,269.9,325.2,269.9,326.2L269.9,326.2z"/>
	<path class="st0" d="M211,26.8c0,14.8-12,26.8-26.8,26.8c-14.8,0-26.8-12-26.8-26.8c0-14.8,12-26.8,26.8-26.8
		C199,0,211,12,211,26.8L211,26.8z"/>
	<path class="st0" d="M211,106c0,14.8-12,26.8-26.8,26.8c-14.8,0-26.8-12-26.8-26.8c0-14.8,12-26.8,26.8-26.8
		C199,79.3,211,91.3,211,106z"/>
	<path class="st0" d="M211,184.2c0,14.8-12,26.8-26.8,26.8c-14.8,0-26.8-12-26.8-26.8c0-14.8,12-26.8,26.8-26.8
		C199,157.5,211,169.4,211,184.2L211,184.2z"/>
	<path class="st0" d="M368.5,106c0,14.8-12,26.8-26.8,26.8c-14.8,0-26.8-12-26.8-26.8c0-14.8,12-26.8,26.8-26.8
		C356.5,79.3,368.5,91.3,368.5,106z"/>
	<path class="st0" d="M53.6,106c0,14.8-12,26.8-26.8,26.8C12,132.8,0,120.8,0,106c0-14.8,12-26.8,26.8-26.8
		C41.6,79.3,53.6,91.3,53.6,106L53.6,106z"/>
	<circle class="st0" cx="106" cy="66.4" r="26.8"/>
	<path class="st0" d="M132.8,144.6c0,14.8-12,26.8-26.8,26.8c-14.8,0-26.8-12-26.8-26.8c0-14.8,12-26.8,26.8-26.8
		C120.8,117.8,132.8,129.8,132.8,144.6z"/>
	<path class="st0" d="M290.3,66.4c0,14.8-12,26.8-26.8,26.8s-26.8-12-26.8-26.8c0-14.8,12-26.8,26.8-26.8S290.3,51.6,290.3,66.4z"/>
	<path class="st0" d="M290.3,144.6c0,14.8-12,26.8-26.8,26.8s-26.8-12-26.8-26.8c0-14.8,12-26.8,26.8-26.8S290.3,129.8,290.3,144.6z
		"/>
</g>
</svg>
