<?xml version="1.0" encoding="utf-8"?>
<!-- Generator: Adobe Illustrator 22.1.0, SVG Export Plug-In . SVG Version: 6.00 Build 0)  -->
<svg version="1.1" id="Layer_1" xmlns="http://www.w3.org/2000/svg" xmlns:xlink="http://www.w3.org/1999/xlink" x="0px" y="0px"
	 viewBox="0 0 490.9 475.5" style="enable-background:new 0 0 490.9 475.5;" xml:space="preserve">
<style type="text/css">
	.st0{fill:#19191D;}
	.st1{fill:#CCCCCC;}
	.st2{fill:none;stroke:#333333;stroke-width:3.441;stroke-linecap:round;stroke-linejoin:round;stroke-miterlimit:10;}
	.st3{fill:#15CCBA;}
	.st4{fill:#333333;}
	.st5{fill:none;stroke:#333333;stroke-width:2;stroke-linecap:round;stroke-linejoin:round;stroke-miterlimit:10;}
	.st6{fill:none;stroke:#333333;stroke-width:2.3569;stroke-linecap:round;stroke-linejoin:round;stroke-miterlimit:10;}
	.st7{fill:#FFFFFF;stroke:#C1272D;stroke-width:1.4663;stroke-linecap:round;stroke-linejoin:round;stroke-miterlimit:10;}
	.st8{fill:none;stroke:#ED1C24;stroke-width:1.4663;stroke-linecap:round;stroke-linejoin:round;stroke-miterlimit:10;}
	.st9{fill:none;stroke:#ED1C24;stroke-width:1.466;stroke-linecap:round;stroke-linejoin:round;}
	.st10{fill:#ED1C24;}
	.st11{fill:none;stroke:#15CCBA;stroke-width:2;stroke-miterlimit:10;}
	.st12{fill:none;stroke:#333333;stroke-width:2;stroke-linecap:round;stroke-linejoin:round;}
	.st13{fill:none;stroke:#15CCBA;stroke-width:2.3569;stroke-linecap:round;stroke-linejoin:round;stroke-miterlimit:10;}
	.st14{fill:none;stroke:#333333;stroke-width:2.357;stroke-linecap:round;stroke-linejoin:round;}
	.st15{fill:none;stroke:#333333;stroke-width:1.161;stroke-linecap:round;stroke-linejoin:round;stroke-miterlimit:10;}
	.st16{fill:none;stroke:#333333;stroke-width:2.357;stroke-linecap:round;stroke-linejoin:round;stroke-miterlimit:10;}
</style>
<path class="st11" d="M102.4,377c0,0,77.1-192.2,277.2-289.9"/>
<g>
	<g>
		<path d="M353.2,404.3h4.8c2.2,0,3.9,0.6,5.1,1.8c1.2,1.2,1.8,2.9,1.8,5c0,2.2-0.6,3.8-1.8,5c-1.2,1.2-2.9,1.8-5.1,1.8h-4.8V404.3z
			 M357.8,416.2c3.4,0,5-1.7,5-5.2c0-3.4-1.7-5.1-5-5.1h-2.7v10.3H357.8z"/>
		<path d="M374.6,409.2c0.6,0.6,0.9,1.6,0.9,2.9v5.8h-1.9v-1.6c-0.2,0.6-0.6,1-1.1,1.3s-1,0.4-1.7,0.4c-0.6,0-1.2-0.1-1.7-0.4
			c-0.5-0.3-0.9-0.6-1.2-1.1c-0.3-0.5-0.4-1-0.4-1.5c0-0.7,0.2-1.2,0.5-1.6c0.4-0.4,0.9-0.7,1.8-0.8c0.8-0.2,1.9-0.3,3.4-0.3h0.4
			v-0.6c0-0.7-0.2-1.2-0.5-1.6s-0.8-0.5-1.5-0.5c-1.1,0-2.1,0.3-3.2,1l-0.6-1.4c0.5-0.3,1.1-0.6,1.8-0.8s1.4-0.3,2.1-0.3
			C373.1,408.2,374,408.6,374.6,409.2z M373,415.9c0.5-0.5,0.7-1.1,0.7-1.9v-0.5h-0.3c-1,0-1.8,0-2.3,0.1c-0.5,0.1-0.9,0.2-1.2,0.5
			c-0.2,0.2-0.3,0.5-0.3,0.9c0,0.5,0.2,0.8,0.5,1.1c0.3,0.3,0.8,0.5,1.3,0.5C371.9,416.6,372.5,416.3,373,415.9z"/>
		<path d="M384,416.5l-0.1,1.5c-0.3,0.1-0.7,0.1-1,0.1c-1.2,0-2.1-0.3-2.7-0.9c-0.6-0.6-0.9-1.5-0.9-2.6V410h-1.8v-1.5h1.8v-2.8h2
			v2.8h2.6v1.5h-2.6v4.5c0,1.4,0.6,2.1,1.9,2.1C383.4,416.5,383.7,416.5,384,416.5z"/>
		<path d="M392.8,409.2c0.6,0.6,0.9,1.6,0.9,2.9v5.8h-1.9v-1.6c-0.2,0.6-0.6,1-1.1,1.3s-1,0.4-1.7,0.4c-0.6,0-1.2-0.1-1.7-0.4
			c-0.5-0.3-0.9-0.6-1.2-1.1c-0.3-0.5-0.4-1-0.4-1.5c0-0.7,0.2-1.2,0.5-1.6c0.4-0.4,0.9-0.7,1.8-0.8c0.8-0.2,1.9-0.3,3.4-0.3h0.4
			v-0.6c0-0.7-0.2-1.2-0.5-1.6s-0.8-0.5-1.5-0.5c-1.1,0-2.1,0.3-3.2,1l-0.6-1.4c0.5-0.3,1.1-0.6,1.8-0.8s1.4-0.3,2.1-0.3
			C391.2,408.2,392.1,408.6,392.8,409.2z M391.1,415.9c0.5-0.5,0.7-1.1,0.7-1.9v-0.5h-0.3c-1,0-1.8,0-2.3,0.1
			c-0.5,0.1-0.9,0.2-1.2,0.5c-0.2,0.2-0.3,0.5-0.3,0.9c0,0.5,0.2,0.8,0.5,1.1c0.3,0.3,0.8,0.5,1.3,0.5
			C390.1,416.6,390.6,416.3,391.1,415.9z"/>
		<path d="M401.8,416.8l0.6-1.4c1,0.7,2.1,1.1,3.4,1.1c0.6,0,1.1-0.1,1.5-0.3c0.3-0.2,0.5-0.5,0.5-0.9c0-0.3-0.1-0.6-0.3-0.8
			s-0.6-0.4-1.2-0.5l-1.6-0.3c-0.8-0.2-1.5-0.5-1.9-0.9c-0.4-0.4-0.6-1-0.6-1.7c0-0.9,0.3-1.5,1-2.1c0.7-0.5,1.6-0.8,2.7-0.8
			c0.7,0,1.3,0.1,1.9,0.3s1.1,0.5,1.6,0.9l-0.6,1.4c-0.9-0.7-1.9-1.1-2.9-1.1c-0.6,0-1.1,0.1-1.4,0.3c-0.3,0.2-0.5,0.5-0.5,0.9
			c0,0.3,0.1,0.6,0.3,0.8c0.2,0.2,0.6,0.4,1,0.5l1.6,0.4c0.9,0.2,1.6,0.5,2,1s0.6,1,0.6,1.7c0,0.9-0.3,1.5-1,2
			c-0.7,0.5-1.6,0.7-2.8,0.7C404.1,418,402.8,417.6,401.8,416.8z"/>
		<path d="M417.5,416.5l-0.1,1.5c-0.3,0.1-0.7,0.1-1,0.1c-1.2,0-2.1-0.3-2.7-0.9c-0.6-0.6-0.9-1.5-0.9-2.6V410h-1.8v-1.5h1.8v-2.8h2
			v2.8h2.6v1.5h-2.6v4.5c0,1.4,0.6,2.1,1.9,2.1C416.9,416.5,417.2,416.5,417.5,416.5z"/>
		<path d="M421.1,417.4c-0.7-0.4-1.2-1-1.6-1.7s-0.6-1.6-0.6-2.6c0-1,0.2-1.9,0.6-2.6c0.4-0.7,0.9-1.3,1.6-1.7
			c0.7-0.4,1.5-0.6,2.4-0.6s1.7,0.2,2.4,0.6s1.2,1,1.6,1.7c0.4,0.7,0.6,1.6,0.6,2.6c0,1-0.2,1.8-0.6,2.6s-0.9,1.3-1.6,1.7
			s-1.5,0.6-2.4,0.6S421.8,417.8,421.1,417.4z M425.5,415.6c0.5-0.6,0.7-1.4,0.7-2.5c0-1.1-0.2-1.9-0.7-2.5c-0.5-0.6-1.1-0.9-2-0.9
			c-0.9,0-1.5,0.3-2,0.9c-0.5,0.6-0.7,1.4-0.7,2.5c0,1.1,0.2,1.9,0.7,2.5c0.5,0.6,1.1,0.9,2,0.9C424.4,416.5,425,416.2,425.5,415.6z
			"/>
		<path d="M436.6,409.9l-1.2,0.1c-0.9,0.1-1.6,0.4-2,0.9c-0.4,0.5-0.6,1.1-0.6,1.8v5.2h-2v-9.4h1.9v1.6c0.5-1.1,1.5-1.7,3.1-1.8
			l0.6,0L436.6,409.9z"/>
		<path d="M446.3,413.5h-6.7c0.1,2,1.1,3,3,3c1.1,0,2.1-0.4,2.9-1.1l0.6,1.4c-0.4,0.4-1,0.7-1.6,0.9s-1.3,0.3-2,0.3
			c-1.5,0-2.7-0.4-3.6-1.3c-0.9-0.9-1.3-2.1-1.3-3.6c0-1,0.2-1.8,0.6-2.6s0.9-1.3,1.6-1.7c0.7-0.4,1.5-0.6,2.3-0.6
			c1.3,0,2.3,0.4,3,1.2c0.7,0.8,1.1,2,1.1,3.4V413.5z M440.4,410.4c-0.4,0.5-0.7,1.1-0.8,2h5c0-0.9-0.3-1.5-0.7-2s-1-0.7-1.7-0.7
			C441.5,409.7,440.9,409.9,440.4,410.4z"/>
		<path d="M457.6,404.3v13.6h-1.9v-1.6c-0.3,0.6-0.7,1-1.2,1.3c-0.5,0.3-1.2,0.5-1.9,0.5c-0.8,0-1.5-0.2-2.2-0.6
			c-0.6-0.4-1.1-1-1.5-1.7c-0.4-0.7-0.5-1.6-0.5-2.6c0-1,0.2-1.8,0.5-2.6c0.4-0.7,0.8-1.3,1.5-1.7c0.6-0.4,1.4-0.6,2.2-0.6
			c0.7,0,1.3,0.2,1.9,0.5s0.9,0.7,1.2,1.3v-5.7H457.6z M455,415.6c0.5-0.6,0.7-1.4,0.7-2.5c0-1.1-0.2-1.9-0.7-2.5
			c-0.5-0.6-1.1-0.9-2-0.9c-0.9,0-1.5,0.3-2,0.9c-0.5,0.6-0.7,1.4-0.7,2.4s0.2,1.9,0.7,2.5s1.1,0.9,2,0.9
			C453.9,416.5,454.5,416.2,455,415.6z"/>
	</g>
</g>
<g>
	<g>
		<path d="M42.7,73.3h7.7v1.6h-9.9v-1.5l7.4-10.5h-7.4v-1.6h9.7v1.5L42.7,73.3z"/>
		<path d="M55.4,74.2c-1-0.6-1.7-1.4-2.2-2.4c-0.5-1-0.8-2.3-0.8-3.7s0.3-2.7,0.8-3.7c0.5-1,1.3-1.9,2.2-2.4c1-0.6,2.1-0.8,3.4-0.8
			c0.9,0,1.8,0.1,2.6,0.4c0.8,0.3,1.5,0.7,2,1.2l-0.7,1.5c-0.6-0.5-1.3-0.9-1.9-1.1c-0.6-0.2-1.3-0.3-2-0.3c-1.4,0-2.5,0.5-3.3,1.4
			c-0.8,0.9-1.2,2.2-1.2,3.9c0,1.7,0.4,3,1.2,3.9s1.9,1.4,3.3,1.4c0.7,0,1.4-0.1,2-0.3c0.6-0.2,1.3-0.6,1.9-1.1l0.7,1.5
			c-0.6,0.5-1.2,1-2,1.2c-0.8,0.3-1.7,0.4-2.6,0.4C57.5,75.1,56.3,74.8,55.4,74.2z"/>
		<path d="M75.7,61.3h1.9v13.6H76l-7.8-10.3v10.3h-1.9V61.3h1.5l7.8,10.3V61.3z"/>
		<path d="M43.3,90.5h2l-4.1,9.4h-1.8l-4.1-9.4h2l2.9,7.2L43.3,90.5z"/>
		<path d="M53.8,91.2c0.6,0.6,0.9,1.6,0.9,2.9v5.8h-1.9v-1.6c-0.2,0.6-0.6,1-1.1,1.3s-1,0.4-1.7,0.4c-0.6,0-1.2-0.1-1.7-0.4
			c-0.5-0.3-0.9-0.6-1.2-1.1c-0.3-0.5-0.4-1-0.4-1.5c0-0.7,0.2-1.2,0.5-1.6c0.4-0.4,0.9-0.7,1.8-0.8c0.8-0.2,1.9-0.3,3.4-0.3h0.4
			v-0.6c0-0.7-0.2-1.2-0.5-1.6s-0.8-0.5-1.5-0.5c-1.1,0-2.1,0.3-3.2,1l-0.6-1.4c0.5-0.3,1.1-0.6,1.8-0.8s1.4-0.3,2.1-0.3
			C52.2,90.2,53.2,90.6,53.8,91.2z M52.1,97.9c0.5-0.5,0.7-1.1,0.7-1.9v-0.5h-0.3c-1,0-1.8,0-2.3,0.1c-0.5,0.1-0.9,0.2-1.2,0.5
			c-0.2,0.2-0.3,0.5-0.3,0.9c0,0.5,0.2,0.8,0.5,1.1c0.3,0.3,0.8,0.5,1.3,0.5C51.1,98.6,51.7,98.3,52.1,97.9z"/>
		<path d="M57.8,99.9V86.3h2v13.6H57.8z"/>
		<path d="M71.3,90.5v9.4h-1.9v-1.5c-0.3,0.5-0.7,1-1.2,1.2c-0.5,0.3-1.1,0.4-1.8,0.4c-2.3,0-3.4-1.3-3.4-3.8v-5.8h2v5.8
			c0,0.8,0.2,1.3,0.5,1.7c0.3,0.4,0.8,0.5,1.4,0.5c0.8,0,1.4-0.2,1.8-0.7c0.5-0.5,0.7-1.1,0.7-2v-5.3H71.3z"/>
		<path d="M82.6,95.5h-6.7c0.1,2,1.1,3,3,3c1.1,0,2.1-0.4,2.9-1.1l0.6,1.4c-0.4,0.4-1,0.7-1.6,0.9s-1.3,0.3-2,0.3
			c-1.5,0-2.7-0.4-3.6-1.3c-0.9-0.9-1.3-2.1-1.3-3.6c0-1,0.2-1.8,0.6-2.6s0.9-1.3,1.6-1.7c0.7-0.4,1.5-0.6,2.3-0.6
			c1.3,0,2.3,0.4,3,1.2c0.7,0.8,1.1,2,1.1,3.4V95.5z M76.7,92.4c-0.4,0.5-0.7,1.1-0.8,2h5c0-0.9-0.3-1.5-0.7-2s-1-0.7-1.7-0.7
			C77.8,91.7,77.2,91.9,76.7,92.4z"/>
	</g>
</g>
<g>
	<g>
		<polyline class="st14" points="407.4,377.3 101,377.3 101,70.9 		"/>
		<g>
			<polygon class="st4" points="399.6,367.6 398,369.4 406.5,377.3 398,385.2 399.6,386.9 409.9,377.3 			"/>
		</g>
		<g>
			<polygon class="st4" points="110.6,78.7 108.9,80.3 101,71.8 93,80.3 91.3,78.7 101,68.3 			"/>
		</g>
	</g>
</g>
</svg>
