<?xml version="1.0" encoding="utf-8"?>
<!-- Generator: Adobe Illustrator 22.1.0, SVG Export Plug-In . SVG Version: 6.00 Build 0)  -->
<svg version="1.1" id="Layer_1" xmlns="http://www.w3.org/2000/svg" xmlns:xlink="http://www.w3.org/1999/xlink" x="0px" y="0px"
	 viewBox="0 0 464.5 301.2" style="enable-background:new 0 0 464.5 301.2;" xml:space="preserve">
<style type="text/css">
	.st0{fill:#19191D;}
	.st1{fill:#CCCCCC;}
	.st2{fill:none;stroke:#333333;stroke-width:3.441;stroke-linecap:round;stroke-linejoin:round;stroke-miterlimit:10;}
	.st3{fill:#15CCBA;}
	.st4{fill:#333333;}
	.st5{fill:none;stroke:#333333;stroke-width:2;stroke-linecap:round;stroke-linejoin:round;stroke-miterlimit:10;}
	.st6{fill:none;stroke:#333333;stroke-width:2.3569;stroke-linecap:round;stroke-linejoin:round;stroke-miterlimit:10;}
	.st7{fill:#FFFFFF;stroke:#C1272D;stroke-width:1.4663;stroke-linecap:round;stroke-linejoin:round;stroke-miterlimit:10;}
	.st8{fill:none;stroke:#ED1C24;stroke-width:1.4663;stroke-linecap:round;stroke-linejoin:round;stroke-miterlimit:10;}
	.st9{fill:none;stroke:#ED1C24;stroke-width:1.466;stroke-linecap:round;stroke-linejoin:round;}
	.st10{fill:#ED1C24;}
	.st11{fill:none;stroke:#15CCBA;stroke-width:2;stroke-miterlimit:10;}
	.st12{fill:none;stroke:#333333;stroke-width:2;stroke-linecap:round;stroke-linejoin:round;}
	.st13{fill:none;stroke:#15CCBA;stroke-width:2.3569;stroke-linecap:round;stroke-linejoin:round;stroke-miterlimit:10;}
	.st14{fill:none;stroke:#333333;stroke-width:2.357;stroke-linecap:round;stroke-linejoin:round;}
	.st15{fill:none;stroke:#333333;stroke-width:1.161;stroke-linecap:round;stroke-linejoin:round;stroke-miterlimit:10;}
	.st16{fill:none;stroke:#333333;stroke-width:2.357;stroke-linecap:round;stroke-linejoin:round;stroke-miterlimit:10;}
</style>
<g>
	<g>
		<rect x="352.5" y="47.9" class="st1" width="35.6" height="5.4"/>
		<rect x="352.5" y="64.5" class="st1" width="35.6" height="5.4"/>
		<rect x="345.5" y="36.6" class="st6" width="49.7" height="11.3"/>
		<rect x="345.5" y="53.3" class="st6" width="49.7" height="11.3"/>
		<rect x="345.5" y="69.9" class="st6" width="49.7" height="11.3"/>
		<circle class="st3" cx="352.1" cy="42.3" r="1.8"/>
		<circle class="st3" cx="352.1" cy="58.9" r="1.8"/>
		<circle class="st3" cx="352.1" cy="75.6" r="1.8"/>
	</g>
	<g>
		<rect x="283.5" y="47.9" class="st1" width="35.6" height="5.4"/>
		<rect x="283.5" y="64.5" class="st1" width="35.6" height="5.4"/>
		<rect x="276.4" y="36.6" class="st6" width="49.7" height="11.3"/>
		<rect x="276.4" y="53.3" class="st6" width="49.7" height="11.3"/>
		<rect x="276.4" y="69.9" class="st6" width="49.7" height="11.3"/>
		<circle class="st3" cx="283.1" cy="42.3" r="1.8"/>
		<circle class="st3" cx="283.1" cy="58.9" r="1.8"/>
		<circle class="st3" cx="283.1" cy="75.6" r="1.8"/>
	</g>
	<g>
		<rect x="214.4" y="47.9" class="st1" width="35.6" height="5.4"/>
		<rect x="214.4" y="64.5" class="st1" width="35.6" height="5.4"/>
		<rect x="207.4" y="36.6" class="st6" width="49.7" height="11.3"/>
		<rect x="207.4" y="53.3" class="st6" width="49.7" height="11.3"/>
		<rect x="207.4" y="69.9" class="st6" width="49.7" height="11.3"/>
		<circle class="st3" cx="214" cy="42.3" r="1.8"/>
		<circle class="st3" cx="214" cy="58.9" r="1.8"/>
		<circle class="st3" cx="214" cy="75.6" r="1.8"/>
	</g>
	<g>
		<rect x="145.4" y="47.9" class="st1" width="35.6" height="5.4"/>
		<rect x="145.4" y="64.5" class="st1" width="35.6" height="5.4"/>
		<rect x="138.3" y="36.6" class="st6" width="49.7" height="11.3"/>
		<rect x="138.3" y="53.3" class="st6" width="49.7" height="11.3"/>
		<rect x="138.3" y="69.9" class="st6" width="49.7" height="11.3"/>
		<circle class="st3" cx="144.9" cy="42.3" r="1.8"/>
		<circle class="st3" cx="144.9" cy="58.9" r="1.8"/>
		<circle class="st3" cx="144.9" cy="75.6" r="1.8"/>
	</g>
	<g>
		<rect x="76.3" y="47.9" class="st1" width="35.6" height="5.4"/>
		<rect x="76.3" y="64.5" class="st1" width="35.6" height="5.4"/>
		<rect x="69.2" y="36.6" class="st6" width="49.7" height="11.3"/>
		<rect x="69.2" y="53.3" class="st6" width="49.7" height="11.3"/>
		<rect x="69.2" y="69.9" class="st6" width="49.7" height="11.3"/>
		<circle class="st3" cx="75.9" cy="42.3" r="1.8"/>
		<circle class="st3" cx="75.9" cy="58.9" r="1.8"/>
		<circle class="st3" cx="75.9" cy="75.6" r="1.8"/>
	</g>
	<g>
		<rect x="352.5" y="118.8" class="st1" width="35.6" height="5.4"/>
		<rect x="352.5" y="135.4" class="st1" width="35.6" height="5.4"/>
		<rect x="345.5" y="107.5" class="st6" width="49.7" height="11.3"/>
		<rect x="345.5" y="124.1" class="st6" width="49.7" height="11.3"/>
		<rect x="345.5" y="140.8" class="st6" width="49.7" height="11.3"/>
		<circle class="st3" cx="352.1" cy="113.1" r="1.8"/>
		<circle class="st3" cx="352.1" cy="129.8" r="1.8"/>
		<circle class="st3" cx="352.1" cy="146.4" r="1.8"/>
	</g>
	<g>
		<rect x="283.5" y="118.8" class="st1" width="35.6" height="5.4"/>
		<rect x="283.5" y="135.4" class="st1" width="35.6" height="5.4"/>
		<rect x="276.4" y="107.5" class="st6" width="49.7" height="11.3"/>
		<rect x="276.4" y="124.1" class="st6" width="49.7" height="11.3"/>
		<rect x="276.4" y="140.8" class="st6" width="49.7" height="11.3"/>
		<circle class="st3" cx="283.1" cy="113.1" r="1.8"/>
		<circle class="st3" cx="283.1" cy="129.8" r="1.8"/>
		<circle class="st3" cx="283.1" cy="146.4" r="1.8"/>
	</g>
	<g>
		<rect x="214.4" y="118.8" class="st1" width="35.6" height="5.4"/>
		<rect x="214.4" y="135.4" class="st1" width="35.6" height="5.4"/>
		<rect x="207.4" y="107.5" class="st6" width="49.7" height="11.3"/>
		<rect x="207.4" y="124.1" class="st6" width="49.7" height="11.3"/>
		<rect x="207.4" y="140.8" class="st6" width="49.7" height="11.3"/>
		<circle class="st3" cx="214" cy="113.1" r="1.8"/>
		<circle class="st3" cx="214" cy="129.8" r="1.8"/>
		<circle class="st3" cx="214" cy="146.4" r="1.8"/>
	</g>
	<g>
		<rect x="145.4" y="118.8" class="st1" width="35.6" height="5.4"/>
		<rect x="145.4" y="135.4" class="st1" width="35.6" height="5.4"/>
		<rect x="138.3" y="107.5" class="st6" width="49.7" height="11.3"/>
		<rect x="138.3" y="124.1" class="st6" width="49.7" height="11.3"/>
		<rect x="138.3" y="140.8" class="st6" width="49.7" height="11.3"/>
		<circle class="st3" cx="144.9" cy="113.1" r="1.8"/>
		<circle class="st3" cx="144.9" cy="129.8" r="1.8"/>
		<circle class="st3" cx="144.9" cy="146.4" r="1.8"/>
	</g>
	<g>
		<rect x="76.3" y="118.8" class="st1" width="35.6" height="5.4"/>
		<rect x="76.3" y="135.4" class="st1" width="35.6" height="5.4"/>
		<rect x="69.2" y="107.5" class="st6" width="49.7" height="11.3"/>
		<rect x="69.2" y="124.1" class="st6" width="49.7" height="11.3"/>
		<rect x="69.2" y="140.8" class="st6" width="49.7" height="11.3"/>
		<circle class="st3" cx="75.9" cy="113.1" r="1.8"/>
		<circle class="st3" cx="75.9" cy="129.8" r="1.8"/>
		<circle class="st3" cx="75.9" cy="146.4" r="1.8"/>
	</g>
	<g>
		<rect x="352.5" y="189.6" class="st1" width="35.6" height="5.4"/>
		<rect x="352.5" y="206.3" class="st1" width="35.6" height="5.4"/>
		<rect x="345.5" y="178.4" class="st6" width="49.7" height="11.3"/>
		<rect x="345.5" y="195" class="st6" width="49.7" height="11.3"/>
		<rect x="345.5" y="211.7" class="st6" width="49.7" height="11.3"/>
		<circle class="st3" cx="352.1" cy="184" r="1.8"/>
		<circle class="st3" cx="352.1" cy="200.7" r="1.8"/>
		<circle class="st3" cx="352.1" cy="217.3" r="1.8"/>
	</g>
	<g>
		<rect x="283.5" y="189.6" class="st1" width="35.6" height="5.4"/>
		<rect x="283.5" y="206.3" class="st1" width="35.6" height="5.4"/>
		<rect x="276.4" y="178.4" class="st6" width="49.7" height="11.3"/>
		<rect x="276.4" y="195" class="st6" width="49.7" height="11.3"/>
		<rect x="276.4" y="211.7" class="st6" width="49.7" height="11.3"/>
		<circle class="st3" cx="283.1" cy="184" r="1.8"/>
		<circle class="st3" cx="283.1" cy="200.7" r="1.8"/>
		<circle class="st3" cx="283.1" cy="217.3" r="1.8"/>
	</g>
	<g>
		<rect x="214.4" y="189.6" class="st1" width="35.6" height="5.4"/>
		<rect x="214.4" y="206.3" class="st1" width="35.6" height="5.4"/>
		<rect x="207.4" y="178.4" class="st6" width="49.7" height="11.3"/>
		<rect x="207.4" y="195" class="st6" width="49.7" height="11.3"/>
		<rect x="207.4" y="211.7" class="st6" width="49.7" height="11.3"/>
		<circle class="st3" cx="214" cy="184" r="1.8"/>
		<circle class="st3" cx="214" cy="200.7" r="1.8"/>
		<circle class="st3" cx="214" cy="217.3" r="1.8"/>
	</g>
	<g>
		<rect x="145.4" y="189.6" class="st1" width="35.6" height="5.4"/>
		<rect x="145.4" y="206.3" class="st1" width="35.6" height="5.4"/>
		<rect x="138.3" y="178.4" class="st6" width="49.7" height="11.3"/>
		<rect x="138.3" y="195" class="st6" width="49.7" height="11.3"/>
		<rect x="138.3" y="211.7" class="st6" width="49.7" height="11.3"/>
		<circle class="st3" cx="144.9" cy="184" r="1.8"/>
		<circle class="st3" cx="144.9" cy="200.7" r="1.8"/>
		<circle class="st3" cx="144.9" cy="217.3" r="1.8"/>
	</g>
	<g>
		<rect x="76.3" y="189.6" class="st1" width="35.6" height="5.4"/>
		<rect x="76.3" y="206.3" class="st1" width="35.6" height="5.4"/>
		<rect x="69.2" y="178.4" class="st6" width="49.7" height="11.3"/>
		<rect x="69.2" y="195" class="st6" width="49.7" height="11.3"/>
		<rect x="69.2" y="211.7" class="st6" width="49.7" height="11.3"/>
		<circle class="st3" cx="75.9" cy="184" r="1.8"/>
		<circle class="st3" cx="75.9" cy="200.7" r="1.8"/>
		<circle class="st3" cx="75.9" cy="217.3" r="1.8"/>
	</g>
</g>
<line class="st6" x1="132.4" y1="26.2" x2="188" y2="90.2"/>
<line class="st6" x1="66.3" y1="168.7" x2="122" y2="232.7"/>
<line class="st6" x1="204.4" y1="168.7" x2="260.1" y2="232.7"/>
<line class="st6" x1="270.5" y1="95.9" x2="326.2" y2="159.9"/>
<line class="st6" x1="342.5" y1="95.9" x2="398.2" y2="159.9"/>
</svg>
