<?xml version="1.0" encoding="utf-8"?>
<!-- Generator: Adobe Illustrator 24.0.1, SVG Export Plug-In . SVG Version: 6.00 Build 0)  -->
<svg version="1.1" id="Layer_1" xmlns="http://www.w3.org/2000/svg" xmlns:xlink="http://www.w3.org/1999/xlink" x="0px" y="0px"
	 width="4417.8px" height="372.8px" viewBox="0 0 4417.8 372.8" style="enable-background:new 0 0 4417.8 372.8;"
	 xml:space="preserve">
<style type="text/css">
	.st0{fill-rule:evenodd;clip-rule:evenodd;}
	.st1{fill:#1A1A1A;}
</style>
<g>
	<path class="st0" d="M637.6,35.3c-86.3,0-149.3,70.1-149.3,151v1.1c0,80.9,62.5,150,148.2,150c86.3,0,149.3-70.2,149.3-151.1v-1.1
		C785.8,104.3,723.4,35.3,637.6,35.3z M755.7,187.5L755.7,187.5c0,67.9-49.4,123.9-118.1,123.9c-67,0-119.2-55.4-119.2-125v-1.1
		c0-67.9,49.4-123.9,118.1-123.9c67,0,119.2,55.4,119.2,125V187.5z"/>
	<path class="st0" d="M850.9,187.5v-1.1c0-80.9,64.5-151,147.2-151c54.3,0,88.3,24.9,115.5,53.2l-19.8,20.3
		c-24.9-25.4-53.2-47.5-96.3-47.5c-65.6,0-116.6,54.9-116.6,123.9v1.1c0,69.6,52.6,125,118.9,125c40.7,0,72.4-20.9,96.8-48.1
		l19.3,17c-29.4,33.4-64.6,57.2-117.7,57.2C914.9,337.4,850.9,268.4,850.9,187.5L850.9,187.5z"/>
	<path class="st0" d="M1436.5,186.3c0-85.4-51.5-151-132.5-151c-78.1,0-137.1,66.7-137.1,150.4v1.2h0c0,89.9,65.7,150.5,141.6,150.5
		c55.5,0,90-22.6,119.5-54.3l-19.3-17c-23.7,25.5-54.4,45.2-99,45.2c-56.7,0-108.2-41.9-113.3-113.7H1436
		C1436.5,193.2,1436.5,191.4,1436.5,186.3z M1196.4,172.8c5.1-63.9,49.2-112,106.5-112c66.3,0,99.7,53.8,103.6,112H1196.4z"/>
	<path class="st0" d="M1713.6,67.2c-21.1-21.1-52.5-31.9-91.8-31.9c-39.9,0-71.3,10.3-103.3,25l10.3,24.6
		c26.8-13.7,55.9-23.4,91.3-23.4c59.9,0,95.8,30.2,95.8,88.9V163c-28-7.4-55.9-12.6-96.4-12.6c-75.3,0-127.2,34.2-127.2,94.6v1.1h0
		c0,60.5,58.2,91.3,112.4,91.3c55.3,0,91.3-27.4,111.2-55.3v48.5h27.4V149.3C1743.3,113.4,1733,86.6,1713.6,67.2z M1716.5,221.7
		c0,53-50.7,89.5-110,89.5c-44.5,0-84.5-24.5-84.5-66.7v-1.1c0-40.5,34.2-67.8,95.9-67.8c41.6,0,74.1,6.8,98.6,13.1V221.7z"/>
	<path class="st0" d="M1840.9,42.1h27.7v54.1c19.1-34.2,51.2-60.9,103.7-60.9c72.7,0,115,50.1,115,119.7v177.8h-27.6V160.1
		c0-59.8-33.3-99.2-91.3-99.2c-56.4,0-99.7,43.3-99.7,103.7v168.1h-27.7V42.1L1840.9,42.1z"/>
</g>
<g>
	<path class="st0" d="M47.1,179.4c0,10.9-8.9,19.8-19.8,19.8c-10.9,0-19.8-8.9-19.8-19.8c0-10.9,8.9-19.8,19.8-19.8
		C38.3,159.6,47.1,168.5,47.1,179.4L47.1,179.4z"/>
	<path class="st0" d="M362,179.4c0,10.9-8.9,19.8-19.8,19.8c-10.9,0-19.8-8.9-19.8-19.8c0-10.9,8.9-19.8,19.8-19.8
		C353.2,159.6,362,168.5,362,179.4z"/>
	<path class="st0" d="M204.6,257.6c0,10.9-8.9,19.8-19.8,19.8c-10.9,0-19.8-8.9-19.8-19.8c0-10.9,8.9-19.8,19.8-19.8
		C195.7,237.8,204.6,246.7,204.6,257.6z"/>
	<path class="st0" d="M125.3,219c0,10.9-8.9,19.8-19.8,19.8c-10.9,0-19.8-8.9-19.8-19.8c0-10.9,8.9-19.8,19.8-19.8
		C116.5,199.2,125.3,208.1,125.3,219z"/>
	<path class="st0" d="M282.8,219c0,10.9-8.9,19.8-19.8,19.8c-10.9,0-19.8-8.9-19.8-19.8c0-10.9,8.9-19.8,19.8-19.8
		C273.9,199.2,282.8,208.1,282.8,219z"/>
	<path class="st0" d="M40.7,239.4c0,7.4-6,13.4-13.4,13.4c-7.4,0-13.4-6-13.4-13.4c0-7.4,6-13.4,13.4-13.4
		C34.7,226,40.7,232,40.7,239.4z"/>
	<path class="st0" d="M355.6,239.4c0,7.4-6,13.4-13.4,13.4c-7.4,0-13.4-6-13.4-13.4c0-7.4,6-13.4,13.4-13.4
		C349.6,226,355.6,232,355.6,239.4L355.6,239.4z"/>
	<path class="st0" d="M198.2,318.7c0,7.4-6,13.4-13.4,13.4c-7.4,0-13.4-6-13.4-13.4c0-7.4,6-13.4,13.4-13.4
		C192.2,305.3,198.2,311.3,198.2,318.7z"/>
	<path class="st0" d="M118.9,279c0,7.4-6,13.4-13.4,13.4c-7.4,0-13.4-6-13.4-13.4c0-7.4,6-13.4,13.4-13.4
		C112.9,265.6,118.9,271.6,118.9,279z"/>
	<path class="st0" d="M276.4,279c0,7.4-6,13.4-13.4,13.4c-7.4,0-13.4-6-13.4-13.4c0-7.4,6-13.4,13.4-13.4
		C270.4,265.6,276.4,271.6,276.4,279z"/>
	<path class="st0" d="M34.3,286.5c0,1.8-0.7,3.6-2,4.9c-1.3,1.3-3.1,2-4.9,2c-1.8,0-3.6-0.7-4.9-2c-1.3-1.3-2-3.1-2-4.9
		c0-0.9,0.2-1.8,0.5-2.7c0.4-0.8,0.9-1.6,1.5-2.3c0.6-0.6,1.4-1.2,2.3-1.5c0.8-0.3,1.8-0.5,2.7-0.5c0.9,0,1.8,0.2,2.7,0.5
		c0.8,0.4,1.6,0.9,2.3,1.5c0.6,0.6,1.2,1.4,1.5,2.3C34.1,284.7,34.3,285.6,34.3,286.5L34.3,286.5z"/>
	<path class="st0" d="M349.2,286.5c0,1.8-0.7,3.6-2,4.9c-1.3,1.3-3.1,2-4.9,2c-1.8,0-3.6-0.7-4.9-2c-1.3-1.3-2-3.1-2-4.9
		c0-0.9,0.2-1.8,0.5-2.7c0.4-0.8,0.9-1.6,1.5-2.3c0.6-0.6,1.4-1.2,2.3-1.5c0.8-0.3,1.8-0.5,2.7-0.5
		C346.1,279.6,349.2,282.7,349.2,286.5L349.2,286.5z"/>
	<path class="st0" d="M191.7,365.8c0,3.8-3.1,7-7,7c-1.8,0-3.6-0.7-4.9-2c-1.3-1.3-2-3.1-2-4.9c0-0.9,0.2-1.8,0.5-2.7
		c0.4-0.8,0.9-1.6,1.5-2.3c0.6-0.6,1.4-1.2,2.3-1.5c0.8-0.3,1.8-0.5,2.7-0.5c1.8,0,3.6,0.7,4.9,2S191.7,363.9,191.7,365.8
		L191.7,365.8z"/>
	<path class="st0" d="M112.5,326.2c0,1.8-0.7,3.6-2,4.9c-1.3,1.3-3.1,2-4.9,2c-1.8,0-3.6-0.7-4.9-2c-1.3-1.3-2-3.1-2-4.9
		c0-0.9,0.2-1.8,0.5-2.7c0.4-0.8,0.9-1.6,1.5-2.3c0.6-0.6,1.4-1.2,2.3-1.5c0.8-0.4,1.8-0.5,2.7-0.5c0.9,0,1.8,0.2,2.7,0.5
		c0.8,0.3,1.6,0.9,2.3,1.5c0.6,0.6,1.2,1.4,1.5,2.3C112.3,324.3,112.5,325.2,112.5,326.2L112.5,326.2z"/>
	<path class="st0" d="M269.9,326.2c0,3.8-3.1,7-7,7c-0.9,0-1.8-0.2-2.7-0.5c-0.8-0.3-1.6-0.9-2.3-1.5c-0.6-0.6-1.2-1.4-1.5-2.3
		s-0.5-1.8-0.5-2.7c0-0.9,0.2-1.8,0.5-2.7c0.3-0.8,0.9-1.6,1.5-2.3c0.6-0.6,1.4-1.2,2.3-1.5c0.8-0.4,1.8-0.5,2.7-0.5
		c0.9,0,1.8,0.2,2.7,0.5c0.8,0.4,1.6,0.9,2.3,1.5c0.6,0.6,1.2,1.4,1.5,2.3C269.7,324.3,269.9,325.2,269.9,326.2L269.9,326.2z"/>
	<path class="st0" d="M211,26.8c0,14.8-12,26.8-26.8,26.8c-14.8,0-26.8-12-26.8-26.8c0-14.8,12-26.8,26.8-26.8
		C199,0,211,12,211,26.8L211,26.8z"/>
	<path class="st0" d="M211,106c0,14.8-12,26.8-26.8,26.8c-14.8,0-26.8-12-26.8-26.8c0-14.8,12-26.8,26.8-26.8
		C199,79.3,211,91.3,211,106z"/>
	<path class="st0" d="M211,184.2c0,14.8-12,26.8-26.8,26.8c-14.8,0-26.8-12-26.8-26.8c0-14.8,12-26.8,26.8-26.8
		C199,157.5,211,169.4,211,184.2L211,184.2z"/>
	<path class="st0" d="M368.5,106c0,14.8-12,26.8-26.8,26.8c-14.8,0-26.8-12-26.8-26.8c0-14.8,12-26.8,26.8-26.8
		C356.5,79.3,368.5,91.3,368.5,106z"/>
	<path class="st0" d="M53.6,106c0,14.8-12,26.8-26.8,26.8C12,132.8,0,120.8,0,106c0-14.8,12-26.8,26.8-26.8
		C41.6,79.3,53.6,91.3,53.6,106L53.6,106z"/>
	<circle class="st0" cx="106" cy="66.4" r="26.8"/>
	<path class="st0" d="M132.8,144.6c0,14.8-12,26.8-26.8,26.8c-14.8,0-26.8-12-26.8-26.8c0-14.8,12-26.8,26.8-26.8
		C120.8,117.8,132.8,129.8,132.8,144.6z"/>
	<path class="st0" d="M290.3,66.4c0,14.8-12,26.8-26.8,26.8s-26.8-12-26.8-26.8c0-14.8,12-26.8,26.8-26.8S290.3,51.6,290.3,66.4z"/>
	<path class="st0" d="M290.3,144.6c0,14.8-12,26.8-26.8,26.8s-26.8-12-26.8-26.8c0-14.8,12-26.8,26.8-26.8S290.3,129.8,290.3,144.6z
		"/>
</g>
<g>
	<path class="st1" d="M3079.1,290.3c-1.5-1.5-3.5-2.3-5.7-2.3c-2.2,0.1-4.3,1-5.8,2.7c-6.1,5.6-12.5,10.8-19.3,15.6
		c-6.4,4.5-13.3,8.3-20.5,11.2c-7.9,3.2-16.1,5.6-24.6,7c-10.2,1.7-20.6,2.5-30.9,2.4c-17.1,0.1-34.1-3.1-50-9.5
		c-15.1-6.2-28.6-15.6-39.7-27.5c-11.6-12.8-20.6-27.8-26.3-44.1c-6.7-19.1-9.9-39.2-9.6-59.4c-0.2-20,3.1-39.9,9.9-58.8
		c5.9-16.4,15-31.4,26.9-44.2c11.4-12.1,25.2-21.6,40.6-27.8c16.7-6.7,34.6-10,52.6-9.9c9.3-0.1,18.6,0.7,27.8,2.3
		c7.3,1.3,14.5,3.2,21.5,5.8c5.4,1.9,10.7,4.4,15.6,7.3c4.4,2.7,8.2,5.2,11.1,7.5c2.9,2.2,5.6,4.3,7.3,5.8c2.3,2.3,5.2,3.7,8.4,4
		c2.6,0,5-1.2,6.6-3.3l1.1-1.7l-1.1-7.9c-6.7-5.6-13.6-10.8-20.9-15.6c-7-4.6-14.5-8.4-22.3-11.4c-8.2-3.1-16.6-5.4-25.2-6.8
		c-9.9-1.5-19.9-2.2-29.8-2.2c-20.5-0.2-40.8,3.6-59.8,11.3c-17.7,7.3-33.7,18.3-46.8,32.2c-13.3,14.4-23.5,31.4-30.1,49.8
		c-7.3,20.4-10.9,42-10.6,63.7c-0.3,22.1,3.3,44.1,10.6,65c6.5,18.4,16.7,35.3,29.8,49.6c12.7,13.6,28.3,24.4,45.5,31.5
		c18.1,7.4,37.6,11.1,57.2,10.9c11.7,0,23.3-1.1,34.7-3.3c9.9-1.9,19.7-4.9,29-8.8c8.6-3.6,16.8-8.2,24.4-13.5
		c7.3-5.1,14.3-10.9,20.7-17.2l-0.2-9L3079.1,290.3z"/>
	<polygon class="st1" points="3453.3,32.8 3447.1,38.9 3447.1,175.6 3252,175.6 3252,38.9 3245.9,32.8 3240.8,32.8 3234.7,38.9 
		3234.7,333.9 3240.8,340.1 3245.9,340.1 3252,333.9 3252,192.6 3447.1,192.6 3447.1,333.9 3453.3,340.1 3458.3,340.1 3464.5,333.9 
		3464.5,38.9 3458.3,32.8 	"/>
	<path class="st1" d="M3724.7,33.9h-4.2l-5.7,3.8l-123.1,295l5.7,8.5h3.3c3.9,0.1,7.5-2.4,8.7-6.1l113.1-271.6L3835.7,335
		c1.1,3.7,4.5,6.1,8.3,6.1h3.8l5.7-8.5l-123.1-295L3724.7,33.9z"/>
	<polygon class="st1" points="3995.3,32.8 3989.1,38.9 3989.1,333.9 3995.3,340.1 4000.4,340.1 4006.5,333.9 4006.5,38.9 
		4000.4,32.8 	"/>
	<path class="st1" d="M4411.7,32.8h-4.2l-6.1,6.1v267L4203.9,37.1c-1.8-2.7-4.8-4.4-8.1-4.3h-1.7l-6.1,6.1v295l6.1,6.1h4.2l6.1-6.1
		v-268L4403.1,336c1.6,2.5,4.4,4,7.3,4h1.2l6.1-6.1v-295L4411.7,32.8z"/>
	<path class="st1" d="M2675.5,68.5c-9.3-12.6-21.5-22.7-35.6-29.6c-27.3-12.9-58.9-12.9-86.2,0c-14.1,6.8-26.3,17-35.7,29.6
		c-10.8,14.8-18.8,31.4-23.6,49c-6.1,22.5-9,45.7-8.6,69c-0.4,23.2,2.5,46.4,8.6,68.8c4.8,17.6,12.8,34.2,23.6,49
		c9.3,12.5,21.6,22.6,35.7,29.4c27.3,12.7,58.9,12.7,86.2,0c14.1-6.8,26.3-16.9,35.7-29.4c10.8-14.7,18.8-31.4,23.6-49
		c6.1-22.4,9-45.6,8.6-68.8c0.4-23.3-2.5-46.5-8.6-69C2694.3,99.9,2686.3,83.2,2675.5,68.5z M2596.7,325.8c-12.3,0-24.4-2.7-35.5-8
		c-10.5-5.2-19.7-12.6-27-21.7l133-207.5c6.1,10.7,10.8,22.2,14.1,34.1c5.4,20.8,8,42.2,7.6,63.6c0.4,21.5-2.2,42.9-7.6,63.6
		c-4,15.5-10.9,30.2-20.2,43.3c-7.6,10.4-17.5,18.8-29.1,24.5c-11,5.3-23.1,8-35.3,8H2596.7z M2511.7,250c-5.5-20.8-8-42.2-7.7-63.6
		c-0.4-21.5,2.2-42.9,7.7-63.6c4.1-15.6,11-30.3,20.4-43.4c23-31.3,65.1-41.7,100-24.8c9.6,4.8,18.1,11.5,25,19.7l-132.7,207.1
		C2519,271.5,2514.7,260.9,2511.7,250z"/>
</g>
<g>
	<path d="M2358,271.8h-6.6c-0.8,0-1.4-0.3-1.8-0.8c-0.4-0.5-0.8-1-1.2-1.4l-58.2-82.3c-0.2,1-0.6,1.8-1.2,2.4l-57.4,79.8
		c-0.5,0.5-1,1-1.4,1.5c-0.4,0.5-1,0.7-1.6,0.7h-6.2l63.2-87.5l-60.4-83.4h6.6c0.8,0,1.4,0.2,1.8,0.7c0.4,0.4,0.7,0.9,1.2,1.3
		l55.8,78.1c0.2-0.4,0.3-0.8,0.5-1.3c0.2-0.4,0.5-0.9,0.8-1.4l54.3-75.3c0.3-0.5,0.7-1,1.2-1.4c0.4-0.4,1-0.7,1.6-0.7h6.3
		l-60.2,82.9L2358,271.8z"/>
</g>
</svg>
