<?xml version="1.0" encoding="utf-8"?>
<!-- Generator: Adobe Illustrator 24.1.3, SVG Export Plug-In . SVG Version: 6.00 Build 0)  -->
<svg version="1.1" id="Layer_1" xmlns="http://www.w3.org/2000/svg" xmlns:xlink="http://www.w3.org/1999/xlink" x="0px" y="0px"
	 viewBox="0 0 350 350" style="enable-background:new 0 0 350 350;" xml:space="preserve">
<style type="text/css">
	.st0{fill:#231F20;}
	.st1{fill:none;stroke:#333333;stroke-width:1.9157;stroke-linecap:round;stroke-linejoin:round;stroke-miterlimit:10;}
	.st2{fill:none;stroke:#333333;stroke-width:2.1505;stroke-linecap:round;stroke-linejoin:round;stroke-miterlimit:10;}
	.st3{fill:none;stroke:#333333;stroke-width:5;stroke-linecap:round;stroke-linejoin:round;stroke-miterlimit:10;}
	.st4{fill:none;stroke:#333333;stroke-width:2;stroke-linecap:round;stroke-linejoin:round;stroke-miterlimit:10;}
	.st5{fill:none;stroke:#333333;stroke-width:4;stroke-linecap:round;stroke-linejoin:round;stroke-miterlimit:10;}
	.st6{fill:none;stroke:#333333;stroke-width:3.268;stroke-linecap:round;stroke-linejoin:round;stroke-miterlimit:10;}
	.st7{fill:#333333;}
	.st8{fill:none;stroke:#333333;stroke-width:1.0893;stroke-linecap:round;stroke-linejoin:round;stroke-miterlimit:10;}
	.st9{fill:#3EBDB2;}
	.st10{fill:none;stroke:#333333;stroke-width:3.7744;stroke-linecap:round;stroke-linejoin:round;stroke-miterlimit:10;}
	.st11{fill:none;stroke:#90278E;stroke-width:3;stroke-linecap:round;stroke-miterlimit:10;}
	.st12{fill:none;stroke:#26A9E0;stroke-width:3;stroke-linecap:round;stroke-miterlimit:10;}
	.st13{fill:none;stroke:#F6921E;stroke-width:3;stroke-linecap:round;stroke-miterlimit:10;}
	.st14{fill:none;stroke:#333333;stroke-width:3;stroke-linecap:round;stroke-linejoin:round;}
	.st15{fill:#FFFFFF;stroke:#3EBDB2;stroke-width:2.0575;stroke-linecap:round;stroke-linejoin:round;stroke-miterlimit:10;}
	.st16{fill:none;stroke:#EB2027;stroke-width:1.1956;stroke-linecap:round;stroke-linejoin:round;stroke-miterlimit:10;}
	.st17{fill:none;stroke:#EB2027;stroke-width:1.4834;stroke-linecap:round;stroke-linejoin:round;}
	.st18{fill:#EB2027;}
	.st19{fill:#CBCBCA;}
	.st20{fill:none;stroke:#333333;stroke-width:2.3569;stroke-linecap:round;stroke-linejoin:round;stroke-miterlimit:10;}
	.st21{fill:none;stroke:#333333;stroke-width:2.6075;stroke-linecap:round;stroke-linejoin:round;stroke-miterlimit:10;}
	.st22{fill:none;stroke:#3EBDB2;stroke-width:2.6075;stroke-linecap:round;stroke-linejoin:round;stroke-miterlimit:10;}
	.st23{fill:#FFFFFF;stroke:#EC1C24;stroke-width:3.268;stroke-linecap:round;stroke-linejoin:round;stroke-miterlimit:10;}
	.st24{fill:#EC1C24;}
	.st25{fill:none;stroke:#29B473;stroke-width:2.623;stroke-linecap:round;stroke-linejoin:round;stroke-miterlimit:10;}
	.st26{fill:none;stroke:#EC1C24;stroke-width:2.8163;stroke-linecap:round;stroke-linejoin:round;stroke-miterlimit:10;}
	.st27{fill:none;stroke:#333333;stroke-width:3.5103;stroke-linecap:round;stroke-linejoin:round;stroke-miterlimit:10;}
	.st28{fill:none;stroke:#333333;stroke-width:1.6455;stroke-linecap:round;stroke-linejoin:round;stroke-miterlimit:10;}
	.st29{fill:none;stroke:#3EBDB2;stroke-width:4;stroke-linecap:round;stroke-linejoin:round;stroke-miterlimit:10;}
	.st30{fill:none;stroke:#A6A8AB;stroke-width:5;stroke-linecap:round;stroke-linejoin:round;stroke-miterlimit:10;}
	.st31{fill:none;stroke:#333333;stroke-width:1.1395;stroke-linecap:round;stroke-linejoin:round;stroke-miterlimit:10;}
	.st32{fill:none;stroke:#333333;stroke-width:1.8763;stroke-linecap:round;stroke-linejoin:round;stroke-miterlimit:10;}
	.st33{fill:#FFFFFF;stroke:#3EBDB2;stroke-width:4;stroke-linecap:round;stroke-linejoin:round;stroke-miterlimit:10;}
	.st34{fill:#FFFFFF;stroke:#90278E;stroke-width:4;stroke-linecap:round;stroke-linejoin:round;stroke-miterlimit:10;}
	.st35{fill:#FFFFFF;stroke:#F6921E;stroke-width:4;stroke-linecap:round;stroke-linejoin:round;stroke-miterlimit:10;}
	.st36{fill:#FFFFFF;stroke:#90278E;stroke-width:2.0575;stroke-linecap:round;stroke-linejoin:round;stroke-miterlimit:10;}
	.st37{fill:#FFFFFF;stroke:#F6921E;stroke-width:2.0575;stroke-linecap:round;stroke-linejoin:round;stroke-miterlimit:10;}
	.st38{fill:none;stroke:#333333;stroke-width:2.0158;stroke-linecap:round;stroke-linejoin:round;stroke-miterlimit:10;}
	.st39{fill:none;stroke:#333333;stroke-width:3;stroke-linecap:round;stroke-linejoin:round;stroke-miterlimit:10;}
	.st40{fill:none;stroke:#333333;stroke-linecap:round;stroke-linejoin:round;stroke-miterlimit:10;}
	.st41{opacity:0.5;}
	.st42{fill:#312A91;}
	.st43{opacity:0.9;}
	.st44{fill:url(#SVGID_5_);}
	.st45{fill:url(#SVGID_6_);}
	.st46{fill:url(#SVGID_7_);}
	.st47{opacity:0.7;fill:url(#SVGID_8_);}
	.st48{fill:url(#SVGID_9_);}
	.st49{opacity:0.7;fill:url(#SVGID_10_);}
	.st50{opacity:0.7;fill:url(#SVGID_11_);}
	.st51{opacity:0.3;fill:#42E8E0;}
	.st52{fill:#42E8E0;}
	.st53{fill:url(#SVGID_12_);}
	.st54{opacity:0.7;fill:url(#SVGID_13_);}
	.st55{opacity:0.5;fill:#5CFFF3;}
	.st56{fill:url(#SVGID_14_);}
	.st57{opacity:0.5;fill:#42E8E0;}
	.st58{opacity:0.7;fill:url(#SVGID_15_);}
	.st59{opacity:0.9;fill:#42E8E0;}
	.st60{opacity:0.2;fill:#42E8E0;}
	.st61{opacity:0.7;fill:url(#SVGID_16_);}
	.st62{fill:url(#SVGID_17_);}
	.st63{fill:url(#SVGID_18_);}
	.st64{fill:url(#SVGID_19_);}
	.st65{opacity:0.7;fill:url(#SVGID_20_);}
	.st66{fill:url(#SVGID_21_);}
	.st67{opacity:0.7;fill:url(#SVGID_22_);}
	.st68{opacity:0.7;fill:url(#SVGID_23_);}
	.st69{fill:url(#SVGID_24_);}
	.st70{opacity:0.7;fill:url(#SVGID_25_);}
	.st71{fill:url(#SVGID_26_);}
	.st72{opacity:0.7;fill:url(#SVGID_27_);}
	.st73{opacity:0.7;fill:url(#SVGID_28_);}
	.st74{fill:url(#SVGID_29_);}
	.st75{fill:url(#SVGID_30_);}
	.st76{fill:url(#SVGID_31_);}
	.st77{opacity:0.7;fill:url(#SVGID_32_);}
	.st78{fill:url(#SVGID_33_);}
	.st79{fill:url(#SVGID_34_);}
	.st80{opacity:0.7;fill:url(#SVGID_35_);}
	.st81{opacity:0.7;fill:url(#SVGID_36_);}
	.st82{fill:url(#SVGID_37_);}
	.st83{fill:url(#SVGID_38_);}
	.st84{fill:url(#SVGID_39_);}
	.st85{opacity:0.7;fill:url(#SVGID_40_);}
	.st86{fill:url(#SVGID_41_);}
	.st87{fill:url(#SVGID_42_);}
	.st88{opacity:0.7;fill:url(#SVGID_43_);}
	.st89{opacity:0.2;}
	.st90{fill:url(#SVGID_44_);}
	.st91{opacity:0.6;fill:#0F054C;}
	.st92{fill:url(#SVGID_45_);}
	.st93{fill:url(#SVGID_46_);}
	.st94{fill:#251C72;}
	.st95{opacity:0.4;fill:#42E8E0;}
	.st96{fill:url(#SVGID_47_);}
	.st97{fill:url(#SVGID_48_);}
	.st98{fill:url(#SVGID_49_);}
	.st99{fill:#2FD3C7;}
	.st100{fill:#FFFFFF;}
	.st101{opacity:0.7;fill:#18B2A3;}
	.st102{fill:url(#SVGID_50_);}
	.st103{fill:url(#SVGID_51_);}
	.st104{fill:url(#SVGID_52_);}
	.st105{opacity:0.7;fill:#42E8E0;}
	.st106{fill:url(#SVGID_53_);}
	.st107{fill:url(#SVGID_54_);}
	.st108{opacity:0.75;fill:#0F054C;}
	.st109{fill:url(#SVGID_55_);}
	.st110{fill:url(#SVGID_56_);}
	.st111{fill:url(#SVGID_57_);}
	.st112{fill:url(#SVGID_58_);}
	.st113{fill:url(#SVGID_59_);}
	.st114{fill:url(#SVGID_60_);}
	.st115{fill:url(#SVGID_61_);}
	.st116{fill:url(#SVGID_62_);}
	.st117{fill:url(#SVGID_63_);}
	.st118{fill:url(#SVGID_64_);}
	.st119{fill:url(#SVGID_65_);}
	.st120{fill:url(#SVGID_66_);}
	.st121{fill:url(#SVGID_67_);}
	.st122{fill:url(#SVGID_68_);}
	.st123{fill:url(#SVGID_69_);}
	.st124{fill:url(#SVGID_70_);}
	.st125{fill:url(#SVGID_71_);}
	.st126{fill:none;stroke:#3EBDB2;stroke-width:2.0575;stroke-linecap:round;stroke-linejoin:round;stroke-miterlimit:10;}
	.st127{fill:none;stroke:#333333;stroke-width:1.8806;stroke-linecap:round;stroke-linejoin:round;stroke-miterlimit:10;}
	.st128{fill:#FFFFFF;stroke:#333333;stroke-width:1.8806;stroke-linecap:round;stroke-linejoin:round;stroke-miterlimit:10;}
	.st129{fill:#15CCBA;}
	.st130{fill:none;stroke:#15CCBA;stroke-width:1.8806;stroke-linecap:round;stroke-linejoin:round;stroke-miterlimit:10;}
	.st131{fill:#FFFFFF;stroke:#15CCBA;stroke-width:1.8806;stroke-linecap:round;stroke-linejoin:round;stroke-miterlimit:10;}
	.st132{fill:none;stroke:#15CCBA;stroke-width:2;stroke-linecap:round;stroke-linejoin:round;}
</style>
<g>
	<g>
		<path class="st7" d="M277.7,97.7c1.2,0,2.1,0.9,2.1,2.1v138.2H70.2V99.8c0-1.2,0.9-2.1,2.1-2.1H277.7 M277.7,95.7H72.3
			c-2.3,0-4.1,1.8-4.1,4.1v140.2h213.5V99.8C281.8,97.5,279.9,95.7,277.7,95.7L277.7,95.7z"/>
	</g>
	<g>
		<path class="st7" d="M297.8,241.9v5.1c0,2.9-2.4,5.3-5.3,5.3h-235c-2.9,0-5.3-2.4-5.3-5.3v-5.1H297.8 M299.8,239.9H50.2v7.1
			c0,4,3.3,7.3,7.3,7.3h235c4,0,7.3-3.3,7.3-7.3V239.9L299.8,239.9z"/>
	</g>
	<g>
		<path class="st7" d="M192.7,241.9v0.4c0,0.2-0.2,0.4-0.4,0.4h-34.6c-0.2,0-0.4-0.2-0.4-0.4v-0.4H192.7 M194.7,239.9h-39.4v2.4
			c0,1.3,1.1,2.4,2.4,2.4h34.6c1.3,0,2.4-1.1,2.4-2.4V239.9L194.7,239.9z"/>
	</g>
	<g>
		<path class="st7" d="M275.2,102.3c0.4,0,0.6,0.3,0.6,0.6v130.3H74.2V103c0-0.4,0.3-0.6,0.6-0.6H275.2 M275.2,100.3H74.8
			c-1.5,0-2.6,1.2-2.6,2.6v132.3h205.6V103C277.8,101.5,276.6,100.3,275.2,100.3L275.2,100.3z"/>
	</g>
</g>
<g>
	<path class="st0" d="M149.2,184.2c0,0.3-0.1,0.6-0.4,0.8c-0.3,0.2-0.6,0.3-0.9,0.3c-0.4,0-0.7-0.1-1-0.2l-26-12.3
		c-0.7-0.3-1-0.9-1-1.7c0-0.7,0.3-1.2,1-1.6l26-12.3c0.3-0.2,0.6-0.2,1-0.2c0.4,0,0.7,0.1,0.9,0.3c0.3,0.2,0.4,0.5,0.4,0.8
		c0,0.4-0.2,0.8-0.7,1l-25.6,12.1l25.6,12.1C149,183.4,149.2,183.8,149.2,184.2z"/>
	<path class="st0" d="M168.5,191.1c-0.2,0.2-0.5,0.3-0.7,0.3c-0.4,0-0.7-0.1-0.9-0.4c-0.3-0.3-0.4-0.6-0.4-1c0-0.1,0-0.3,0.1-0.5
		l14.4-44.9c0.2-0.8,0.7-1.1,1.3-1.1c0.4,0,0.7,0.1,0.9,0.4c0.3,0.3,0.4,0.6,0.4,1c0,0.1,0,0.3-0.1,0.5L169,190.3
		C168.9,190.6,168.7,190.9,168.5,191.1z"/>
	<path class="st0" d="M230.1,171c0,0.8-0.3,1.4-1,1.7l-26,12.3c-0.3,0.2-0.6,0.2-1,0.2c-0.4,0-0.7-0.1-0.9-0.3
		c-0.3-0.2-0.4-0.5-0.4-0.8c0-0.4,0.2-0.8,0.7-1l25.6-12.1L201.5,159c-0.4-0.2-0.7-0.6-0.7-1c0-0.3,0.1-0.6,0.4-0.8
		c0.3-0.2,0.6-0.3,0.9-0.3c0.4,0,0.7,0.1,1,0.2l26,12.3C229.8,169.8,230.1,170.3,230.1,171z"/>
</g>
</svg>
