<?xml version="1.0" encoding="utf-8"?>
<!-- Generator: Adobe Illustrator 24.1.3, SVG Export Plug-In . SVG Version: 6.00 Build 0)  -->
<svg version="1.1" id="Layer_1" xmlns="http://www.w3.org/2000/svg" xmlns:xlink="http://www.w3.org/1999/xlink" x="0px" y="0px"
	 viewBox="0 0 350 350" style="enable-background:new 0 0 350 350;" xml:space="preserve">
<style type="text/css">
	.st0{fill:#231F20;}
	.st1{fill:none;stroke:#333333;stroke-width:1.9157;stroke-linecap:round;stroke-linejoin:round;stroke-miterlimit:10;}
	.st2{fill:none;stroke:#333333;stroke-width:2.1505;stroke-linecap:round;stroke-linejoin:round;stroke-miterlimit:10;}
	.st3{fill:none;stroke:#333333;stroke-width:5;stroke-linecap:round;stroke-linejoin:round;stroke-miterlimit:10;}
	.st4{fill:none;stroke:#333333;stroke-width:2;stroke-linecap:round;stroke-linejoin:round;stroke-miterlimit:10;}
	.st5{fill:none;stroke:#333333;stroke-width:4;stroke-linecap:round;stroke-linejoin:round;stroke-miterlimit:10;}
	.st6{fill:none;stroke:#333333;stroke-width:3.268;stroke-linecap:round;stroke-linejoin:round;stroke-miterlimit:10;}
	.st7{fill:#333333;}
	.st8{fill:none;stroke:#333333;stroke-width:1.0893;stroke-linecap:round;stroke-linejoin:round;stroke-miterlimit:10;}
	.st9{fill:#3EBDB2;}
	.st10{fill:none;stroke:#333333;stroke-width:3.7744;stroke-linecap:round;stroke-linejoin:round;stroke-miterlimit:10;}
	.st11{fill:none;stroke:#90278E;stroke-width:3;stroke-linecap:round;stroke-miterlimit:10;}
	.st12{fill:none;stroke:#26A9E0;stroke-width:3;stroke-linecap:round;stroke-miterlimit:10;}
	.st13{fill:none;stroke:#F6921E;stroke-width:3;stroke-linecap:round;stroke-miterlimit:10;}
	.st14{fill:none;stroke:#333333;stroke-width:3;stroke-linecap:round;stroke-linejoin:round;}
	.st15{fill:#FFFFFF;stroke:#3EBDB2;stroke-width:2.0575;stroke-linecap:round;stroke-linejoin:round;stroke-miterlimit:10;}
	.st16{fill:none;stroke:#EB2027;stroke-width:1.1956;stroke-linecap:round;stroke-linejoin:round;stroke-miterlimit:10;}
	.st17{fill:none;stroke:#EB2027;stroke-width:1.4834;stroke-linecap:round;stroke-linejoin:round;}
	.st18{fill:#EB2027;}
	.st19{fill:#CBCBCA;}
	.st20{fill:none;stroke:#333333;stroke-width:2.3569;stroke-linecap:round;stroke-linejoin:round;stroke-miterlimit:10;}
	.st21{fill:none;stroke:#333333;stroke-width:2.6075;stroke-linecap:round;stroke-linejoin:round;stroke-miterlimit:10;}
	.st22{fill:none;stroke:#3EBDB2;stroke-width:2.6075;stroke-linecap:round;stroke-linejoin:round;stroke-miterlimit:10;}
	.st23{fill:#FFFFFF;stroke:#EC1C24;stroke-width:3.268;stroke-linecap:round;stroke-linejoin:round;stroke-miterlimit:10;}
	.st24{fill:#EC1C24;}
	.st25{fill:none;stroke:#29B473;stroke-width:2.623;stroke-linecap:round;stroke-linejoin:round;stroke-miterlimit:10;}
	.st26{fill:none;stroke:#EC1C24;stroke-width:2.8163;stroke-linecap:round;stroke-linejoin:round;stroke-miterlimit:10;}
	.st27{fill:none;stroke:#333333;stroke-width:3.5103;stroke-linecap:round;stroke-linejoin:round;stroke-miterlimit:10;}
	.st28{fill:none;stroke:#333333;stroke-width:1.6455;stroke-linecap:round;stroke-linejoin:round;stroke-miterlimit:10;}
	.st29{fill:none;stroke:#3EBDB2;stroke-width:4;stroke-linecap:round;stroke-linejoin:round;stroke-miterlimit:10;}
	.st30{fill:none;stroke:#A6A8AB;stroke-width:5;stroke-linecap:round;stroke-linejoin:round;stroke-miterlimit:10;}
	.st31{fill:none;stroke:#333333;stroke-width:1.1395;stroke-linecap:round;stroke-linejoin:round;stroke-miterlimit:10;}
	.st32{fill:none;stroke:#333333;stroke-width:1.8763;stroke-linecap:round;stroke-linejoin:round;stroke-miterlimit:10;}
	.st33{fill:#FFFFFF;stroke:#3EBDB2;stroke-width:4;stroke-linecap:round;stroke-linejoin:round;stroke-miterlimit:10;}
	.st34{fill:#FFFFFF;stroke:#90278E;stroke-width:4;stroke-linecap:round;stroke-linejoin:round;stroke-miterlimit:10;}
	.st35{fill:#FFFFFF;stroke:#F6921E;stroke-width:4;stroke-linecap:round;stroke-linejoin:round;stroke-miterlimit:10;}
	.st36{fill:#FFFFFF;stroke:#90278E;stroke-width:2.0575;stroke-linecap:round;stroke-linejoin:round;stroke-miterlimit:10;}
	.st37{fill:#FFFFFF;stroke:#F6921E;stroke-width:2.0575;stroke-linecap:round;stroke-linejoin:round;stroke-miterlimit:10;}
	.st38{fill:none;stroke:#333333;stroke-width:2.0158;stroke-linecap:round;stroke-linejoin:round;stroke-miterlimit:10;}
	.st39{fill:none;stroke:#333333;stroke-width:3;stroke-linecap:round;stroke-linejoin:round;stroke-miterlimit:10;}
	.st40{fill:none;stroke:#333333;stroke-linecap:round;stroke-linejoin:round;stroke-miterlimit:10;}
	.st41{opacity:0.5;}
	.st42{fill:#312A91;}
	.st43{opacity:0.9;}
	.st44{fill:url(#SVGID_5_);}
	.st45{fill:url(#SVGID_6_);}
	.st46{fill:url(#SVGID_7_);}
	.st47{opacity:0.7;fill:url(#SVGID_8_);}
	.st48{fill:url(#SVGID_9_);}
	.st49{opacity:0.7;fill:url(#SVGID_10_);}
	.st50{opacity:0.7;fill:url(#SVGID_11_);}
	.st51{opacity:0.3;fill:#42E8E0;}
	.st52{fill:#42E8E0;}
	.st53{fill:url(#SVGID_12_);}
	.st54{opacity:0.7;fill:url(#SVGID_13_);}
	.st55{opacity:0.5;fill:#5CFFF3;}
	.st56{fill:url(#SVGID_14_);}
	.st57{opacity:0.5;fill:#42E8E0;}
	.st58{opacity:0.7;fill:url(#SVGID_15_);}
	.st59{opacity:0.9;fill:#42E8E0;}
	.st60{opacity:0.2;fill:#42E8E0;}
	.st61{opacity:0.7;fill:url(#SVGID_16_);}
	.st62{fill:url(#SVGID_17_);}
	.st63{fill:url(#SVGID_18_);}
	.st64{fill:url(#SVGID_19_);}
	.st65{opacity:0.7;fill:url(#SVGID_20_);}
	.st66{fill:url(#SVGID_21_);}
	.st67{opacity:0.7;fill:url(#SVGID_22_);}
	.st68{opacity:0.7;fill:url(#SVGID_23_);}
	.st69{fill:url(#SVGID_24_);}
	.st70{opacity:0.7;fill:url(#SVGID_25_);}
	.st71{fill:url(#SVGID_26_);}
	.st72{opacity:0.7;fill:url(#SVGID_27_);}
	.st73{opacity:0.7;fill:url(#SVGID_28_);}
	.st74{fill:url(#SVGID_29_);}
	.st75{fill:url(#SVGID_30_);}
	.st76{fill:url(#SVGID_31_);}
	.st77{opacity:0.7;fill:url(#SVGID_32_);}
	.st78{fill:url(#SVGID_33_);}
	.st79{fill:url(#SVGID_34_);}
	.st80{opacity:0.7;fill:url(#SVGID_35_);}
	.st81{opacity:0.7;fill:url(#SVGID_36_);}
	.st82{fill:url(#SVGID_37_);}
	.st83{fill:url(#SVGID_38_);}
	.st84{fill:url(#SVGID_39_);}
	.st85{opacity:0.7;fill:url(#SVGID_40_);}
	.st86{fill:url(#SVGID_41_);}
	.st87{fill:url(#SVGID_42_);}
	.st88{opacity:0.7;fill:url(#SVGID_43_);}
	.st89{opacity:0.2;}
	.st90{fill:url(#SVGID_44_);}
	.st91{opacity:0.6;fill:#0F054C;}
	.st92{fill:url(#SVGID_45_);}
	.st93{fill:url(#SVGID_46_);}
	.st94{fill:#251C72;}
	.st95{opacity:0.4;fill:#42E8E0;}
	.st96{fill:url(#SVGID_47_);}
	.st97{fill:url(#SVGID_48_);}
	.st98{fill:url(#SVGID_49_);}
	.st99{fill:#2FD3C7;}
	.st100{fill:#FFFFFF;}
	.st101{opacity:0.7;fill:#18B2A3;}
	.st102{fill:url(#SVGID_50_);}
	.st103{fill:url(#SVGID_51_);}
	.st104{fill:url(#SVGID_52_);}
	.st105{opacity:0.7;fill:#42E8E0;}
	.st106{fill:url(#SVGID_53_);}
	.st107{fill:url(#SVGID_54_);}
	.st108{opacity:0.75;fill:#0F054C;}
	.st109{fill:url(#SVGID_55_);}
	.st110{fill:url(#SVGID_56_);}
	.st111{fill:url(#SVGID_57_);}
	.st112{fill:url(#SVGID_58_);}
	.st113{fill:url(#SVGID_59_);}
	.st114{fill:url(#SVGID_60_);}
	.st115{fill:url(#SVGID_61_);}
	.st116{fill:url(#SVGID_62_);}
	.st117{fill:url(#SVGID_63_);}
	.st118{fill:url(#SVGID_64_);}
	.st119{fill:url(#SVGID_65_);}
	.st120{fill:url(#SVGID_66_);}
	.st121{fill:url(#SVGID_67_);}
	.st122{fill:url(#SVGID_68_);}
	.st123{fill:url(#SVGID_69_);}
	.st124{fill:url(#SVGID_70_);}
	.st125{fill:url(#SVGID_71_);}
	.st126{fill:none;stroke:#3EBDB2;stroke-width:2.0575;stroke-linecap:round;stroke-linejoin:round;stroke-miterlimit:10;}
	.st127{fill:none;stroke:#333333;stroke-width:1.8806;stroke-linecap:round;stroke-linejoin:round;stroke-miterlimit:10;}
	.st128{fill:#FFFFFF;stroke:#333333;stroke-width:1.8806;stroke-linecap:round;stroke-linejoin:round;stroke-miterlimit:10;}
	.st129{fill:#15CCBA;}
	.st130{fill:none;stroke:#15CCBA;stroke-width:1.8806;stroke-linecap:round;stroke-linejoin:round;stroke-miterlimit:10;}
	.st131{fill:#FFFFFF;stroke:#15CCBA;stroke-width:1.8806;stroke-linecap:round;stroke-linejoin:round;stroke-miterlimit:10;}
	.st132{fill:none;stroke:#15CCBA;stroke-width:2;stroke-linecap:round;stroke-linejoin:round;}
</style>
<g>
	<path class="st6" d="M69.3,192.2c-4.2-4.5-6.8-10.6-6.8-17.3c0-13.9,11.3-25.2,25.2-25.2s25.2,11.3,25.2,25.2"/>
	<g>
		<path class="st7" d="M86.2,174.1L97,157.3l-7.9,18.3c-0.4,0.8-1.3,1.2-2.2,0.9c-0.8-0.4-1.2-1.3-0.9-2.2
			C86.1,174.3,86.2,174.2,86.2,174.1z"/>
	</g>
	<g>
		<g>
			<path class="st8" d="M93.5,261.7l-11.7,0c-0.4,0-0.8-0.3-0.8-0.8l0-10.4c0-0.4,0.3-0.8,0.8-0.8l11.7,0c0.4,0,0.8,0.3,0.8,0.8
				l0,10.4C94.3,261.4,93.9,261.7,93.5,261.7z"/>
			<path class="st8" d="M92,249.8v-5.4c0-2.4-2-4.4-4.4-4.4s-4.4,2-4.4,4.4v5.4"/>
			<path class="st7" d="M88.1,255.6v1.5c0,0.2-0.2,0.4-0.4,0.4l0,0c-0.2,0-0.4-0.2-0.4-0.4v-1.5l0,0c-0.2-0.1-0.3-0.4-0.2-0.6
				c0-0.3,0.3-0.5,0.6-0.6c0.4-0.1,0.8,0.3,0.8,0.7C88.3,255.3,88.2,255.5,88.1,255.6L88.1,255.6z"/>
		</g>
		<path class="st6" d="M88.4,286c25.1-24,22.6-46.4,21.8-50.8c-0.1-0.5-0.4-0.8-0.9-0.9c-10.9-2.9-18.9-7.8-21.1-9.2
			c-0.4-0.2-0.8-0.2-1.2,0c-2.2,1.4-10.2,6.3-21.1,9.2c-0.4,0.1-0.8,0.5-0.9,0.9c-0.8,4.3-3.3,26.7,21.8,50.8
			C87.3,286.4,88,286.4,88.4,286z"/>
	</g>
	<g>
		<path class="st7" d="M98.6,107.9c-2.2,2-5,3.2-8.6,3.5v4.8c0,0.5-0.1,0.9-0.4,1.2c-0.3,0.3-0.7,0.5-1.2,0.5
			c-0.5,0-0.8-0.2-1.1-0.5c-0.3-0.3-0.5-0.7-0.5-1.2v-4.8c-2.3-0.1-4.7-0.6-7-1.4c-2.3-0.8-4.2-2-5.7-3.4c-0.5-0.4-0.7-1-0.7-1.7
			c0-0.4,0.1-0.8,0.3-1.1c0.2-0.3,0.5-0.5,0.8-0.5c0.4,0,0.8,0.2,1.3,0.6c3.9,2.9,8,4.4,12.1,4.4c3.2,0,5.7-0.7,7.6-2.1
			c1.8-1.4,2.7-3.4,2.7-5.9c0-1.5-0.5-2.7-1.4-3.6s-2.1-1.7-3.4-2.2s-3.3-1.1-5.6-1.7c-2.9-0.7-5.3-1.4-7-2.2
			c-1.8-0.7-3.3-1.8-4.5-3.3c-1.2-1.5-1.9-3.5-1.9-5.9c0-2.1,0.5-3.9,1.6-5.6c1-1.7,2.5-3,4.4-4c1.9-1,4.1-1.6,6.5-1.8v-4.8
			c0-0.5,0.1-0.9,0.4-1.2c0.3-0.3,0.7-0.5,1.2-0.5c0.5,0,0.8,0.2,1.1,0.5c0.3,0.3,0.4,0.7,0.4,1.2v4.8c2.1,0.2,4.1,0.7,6.1,1.5
			c2,0.8,3.6,1.9,4.9,3.3c0.5,0.5,0.7,1.1,0.7,1.7c0,0.4-0.1,0.8-0.4,1.1c-0.2,0.3-0.5,0.5-0.8,0.5c-0.5,0-0.9-0.2-1.3-0.6
			c-1.8-1.5-3.5-2.6-5.2-3.3c-1.6-0.7-3.6-1-5.8-1c-3.1,0-5.6,0.7-7.5,2.2c-1.8,1.5-2.8,3.5-2.8,6c0,1.7,0.5,3.1,1.5,4.2
			c1,1.1,2.2,1.9,3.7,2.4c1.5,0.5,3.4,1.1,5.9,1.7c2.8,0.7,5,1.4,6.8,2c1.7,0.7,3.1,1.7,4.3,3c1.2,1.4,1.8,3.2,1.8,5.5
			C101.8,103.4,100.8,105.9,98.6,107.9z"/>
	</g>
	<line class="st3" x1="186.6" y1="90.8" x2="287.6" y2="90.8"/>
	<circle class="st3" cx="177.2" cy="90.8" r="9.6"/>
	<line class="st3" x1="141.2" y1="90.8" x2="167.6" y2="90.8"/>
	<line class="st3" x1="241.8" y1="170.9" x2="287.6" y2="170.9"/>
	<circle class="st3" cx="232.4" cy="170.9" r="9.6"/>
	<line class="st3" x1="141.2" y1="170.9" x2="222.8" y2="170.9"/>
	<line class="st3" x1="211.2" y1="251" x2="287.6" y2="251"/>
	<circle class="st3" cx="201.8" cy="251" r="9.6"/>
	<line class="st3" x1="141.2" y1="251" x2="192.2" y2="251"/>
</g>
</svg>
