<svg id="Layer_1" data-name="Layer 1" xmlns="http://www.w3.org/2000/svg" viewBox="0 0 530.67 94.67"><defs><style>.cls-1{fill:#1a1a1a;}</style></defs><title>0wallet Text Logo Black</title><path class="cls-1" d="M49.86,21.39A21.56,21.56,0,0,0,42,14.86a22.25,22.25,0,0,0-19,0,21.56,21.56,0,0,0-7.86,6.53A33,33,0,0,0,9.94,32.2,54.22,54.22,0,0,0,8.05,47.38,54.22,54.22,0,0,0,9.94,62.56a32.67,32.67,0,0,0,5.2,10.79A21.49,21.49,0,0,0,23,79.83a22.42,22.42,0,0,0,19,0,21.44,21.44,0,0,0,7.87-6.48,33.06,33.06,0,0,0,5.2-10.79A54.59,54.59,0,0,0,57,47.38,54.59,54.59,0,0,0,55.06,32.2,33.38,33.38,0,0,0,49.86,21.39ZM32.5,78.11a18,18,0,0,1-7.82-1.76,17.28,17.28,0,0,1-5.94-4.78L48.05,25.85a32.24,32.24,0,0,1,3.11,7.51,51.38,51.38,0,0,1,1.68,14,51.43,51.43,0,0,1-1.68,14A29.22,29.22,0,0,1,46.69,71a17.63,17.63,0,0,1-6.4,5.4A17.84,17.84,0,0,1,32.5,78.11ZM13.74,61.4a51.87,51.87,0,0,1-1.68-14,51.82,51.82,0,0,1,1.68-14,29.25,29.25,0,0,1,4.5-9.57A17.37,17.37,0,0,1,32.5,16.55a17.67,17.67,0,0,1,7.78,1.78,17.24,17.24,0,0,1,5.51,4.34L16.53,68.3A33,33,0,0,1,13.74,61.4Z"/><path class="cls-1" d="M166.7,13.47H166a2,2,0,0,0-2,1.48L145.61,73.48,125.24,15a2,2,0,0,0-1.95-1.5H123a2,2,0,0,0-1.93,1.44L100.7,73.48,82.39,15a2,2,0,0,0-1.94-1.49h-.84a1.45,1.45,0,0,0-1.38,1.89L98.82,80.28a1.45,1.45,0,0,0,1.38,1h.93a1.45,1.45,0,0,0,1.37-1l20.66-59.59,20.65,59.59a1.47,1.47,0,0,0,1.37,1h.93a1.45,1.45,0,0,0,1.38-1l20.59-64.92a1.47,1.47,0,0,0-.21-1.3A1.45,1.45,0,0,0,166.7,13.47Z"/><path class="cls-1" d="M215.34,14.36a1.45,1.45,0,0,0-1.34-.89h-.93a1.44,1.44,0,0,0-1.33.89L184.65,79.28a1.46,1.46,0,0,0,.14,1.36,1.42,1.42,0,0,0,1.2.65h.74a2.05,2.05,0,0,0,2-1.41l8.65-20.76h32.29l8.65,20.76a2,2,0,0,0,1.92,1.41h.83a1.45,1.45,0,0,0,1.34-2ZM199,55.3l14.57-35,14.56,35Z"/><path class="cls-1" d="M306.65,77.37H275V14.92a1.45,1.45,0,0,0-1.45-1.45h-1.11A1.45,1.45,0,0,0,271,14.92V79.84a1.45,1.45,0,0,0,1.45,1.45h34.22a1.45,1.45,0,0,0,1.45-1.45v-1A1.45,1.45,0,0,0,306.65,77.37Z"/><path class="cls-1" d="M373.15,77.37H341.49V14.92A1.45,1.45,0,0,0,340,13.47h-1.11a1.45,1.45,0,0,0-1.45,1.45V79.84a1.45,1.45,0,0,0,1.45,1.45h34.22a1.45,1.45,0,0,0,1.45-1.45v-1A1.45,1.45,0,0,0,373.15,77.37Z"/><path class="cls-1" d="M443.45,77.37H408V48.83h29.8a1.45,1.45,0,0,0,1.45-1.45v-1a1.45,1.45,0,0,0-1.45-1.45H408V17.39h35.37a1.45,1.45,0,0,0,1.45-1.45v-1a1.45,1.45,0,0,0-1.45-1.45H405.42A1.44,1.44,0,0,0,404,14.92V79.84a1.44,1.44,0,0,0,1.44,1.45h37.94A1.45,1.45,0,0,0,444.8,80l.09-1a1.44,1.44,0,0,0-1.44-1.58Z"/><path class="cls-1" d="M521.17,13.47H471.09a1.45,1.45,0,0,0-1.45,1.45v1a1.45,1.45,0,0,0,1.45,1.45h23.13V79.84a1.44,1.44,0,0,0,1.44,1.45h1.12a1.45,1.45,0,0,0,1.45-1.45V17.39h22.94a1.45,1.45,0,0,0,1.45-1.45v-1A1.45,1.45,0,0,0,521.17,13.47Z"/></svg>