<?xml version="1.0" encoding="utf-8"?>
<!-- Generator: Adobe Illustrator 24.0.1, SVG Export Plug-In . SVG Version: 6.00 Build 0)  -->
<svg version="1.1" id="Layer_1" xmlns="http://www.w3.org/2000/svg" xmlns:xlink="http://www.w3.org/1999/xlink" x="0px" y="0px"
	 width="415.3px" height="98px" viewBox="0 0 415.3 98" style="enable-background:new 0 0 415.3 98;" xml:space="preserve">
<style type="text/css">
	.st0{fill:#FFFFFF;}
</style>
<title>0Box Text Logo White</title>
<path class="st0" d="M59.2,12.3C56.3,8.3,52.5,5.2,48.1,3c-8.5-4-18.4-4-26.9,0C16.8,5.2,13,8.3,10,12.3c-3.4,4.6-5.9,9.8-7.4,15.3
	c-1.9,7-2.8,14.3-2.7,21.5c-0.1,7.3,0.8,14.5,2.7,21.5c1.5,5.5,4,10.7,7.4,15.3c2.9,3.9,6.7,7.1,11.1,9.2c8.5,4,18.4,4,26.9,0
	c4.4-2.1,8.2-5.3,11.1-9.2c3.4-4.6,5.9-9.8,7.4-15.3c1.9-7,2.8-14.2,2.7-21.5c0.1-7.3-0.8-14.5-2.7-21.5
	C65.1,22.1,62.6,16.9,59.2,12.3z M34.6,92.6c-3.8,0-7.6-0.8-11.1-2.5c-3.3-1.6-6.1-3.9-8.4-6.8l41.5-64.7c1.9,3.3,3.4,6.9,4.4,10.6
	c1.7,6.5,2.5,13.2,2.4,19.9c0.1,6.7-0.7,13.4-2.4,19.8c-1.3,4.8-3.4,9.4-6.3,13.5c-2.4,3.2-5.5,5.9-9.1,7.7
	C42.2,91.7,38.4,92.6,34.6,92.6L34.6,92.6z M8.1,68.9c-1.7-6.5-2.5-13.2-2.4-19.8c-0.1-6.7,0.7-13.4,2.4-19.9
	c1.3-4.9,3.4-9.5,6.4-13.5c7.2-9.8,20.3-13,31.2-7.7c3,1.5,5.6,3.6,7.8,6.2L12,78.7C10.3,75.6,9,72.3,8.1,68.9z"/>
<path class="st0" d="M167.5,53.5c-2.6-2.2-5.5-3.9-8.7-5c-0.7-0.3-1.5-0.5-2.2-0.7l0.3-0.2c2.7-1.4,5.1-3.2,7.2-5.5
	c2-2.2,3.6-4.7,4.8-7.4c1.2-2.7,1.8-5.7,1.8-8.7c0-8-2.7-14.2-7.9-18.6s-12.9-6.3-23-6.3h-23.9c-1.1,0-2.1,0.9-2.1,2.1V95
	c0,1.1,0.9,2.1,2.1,2.1h27.4c4.4,0.1,8.9-0.5,13.1-1.7c3.7-1,7.1-2.7,10.1-5c2.8-2.2,5-5.1,6.4-8.4c1.5-3.6,2.2-7.4,2.2-11.2
	c0-3.4-0.6-6.7-1.9-9.8C171.8,58.1,169.9,55.6,167.5,53.5z M143.2,91.6h-23.8V51.1h23.9c3.7,0,7.4,0.4,11,1.4c3,0.8,5.8,2.2,8.2,4
	c4.4,3.4,7,8.7,6.8,14.3c0.1,3.1-0.5,6.2-1.7,9.1c-1.1,2.5-2.8,4.7-4.9,6.4c-2.4,1.8-5.2,3.2-8.2,3.9
	C150.8,91.2,147,91.7,143.2,91.6z M152,43.8c-3.7,1.4-7.7,2-11.7,1.9h-20.9V6.5h20.3c8.8,0,15.3,1.7,19.5,5.1
	c4.2,3.4,6.1,8.1,6.1,14.4c0,2.3-0.5,4.6-1.3,6.8c-0.9,2.4-2.4,4.5-4.2,6.3C157.5,41.1,154.9,42.7,152,43.8z"/>
<path class="st0" d="M295.3,13.3c-3.9-4.3-8.8-7.6-14.1-9.9C275.4,1.1,269.3,0,263.1,0c-6.2-0.1-12.3,1.1-18,3.4
	c-5.4,2.2-10.2,5.6-14.1,9.9c-4.1,4.5-7.2,9.8-9.1,15.5c-2.2,6.5-3.3,13.3-3.2,20.2c-0.1,6.9,1,13.7,3.2,20.3
	c2,5.7,5.1,10.9,9.2,15.4c3.9,4.3,8.7,7.6,14.1,9.8c11.6,4.5,24.4,4.5,36,0c5.4-2.2,10.2-5.6,14.1-9.8c4.1-4.5,7.2-9.7,9.1-15.4
	c2.2-6.5,3.3-13.4,3.2-20.3c0.1-6.9-1-13.8-3.2-20.3C302.4,23,299.3,17.8,295.3,13.3z M263.1,92.6c-5.4,0.1-10.7-0.9-15.6-3
	c-4.6-1.9-8.8-4.8-12.2-8.5c-3.6-4-6.3-8.6-8-13.6c-2-5.9-3-12.2-2.9-18.5c-0.1-6.3,0.9-12.5,2.9-18.5c1.7-5.1,4.5-9.7,8.1-13.7
	c3.4-3.7,7.5-6.6,12.2-8.5c5-2,10.3-3,15.6-3c5.4-0.1,10.8,0.9,15.8,3c4.6,1.9,8.8,4.8,12.2,8.5c3.5,4,6.2,8.6,7.9,13.7
	c2,5.9,3,12.2,2.9,18.5c0.1,6.3-0.9,12.5-2.9,18.5c-1.7,5-4.4,9.7-7.9,13.6c-3.4,3.7-7.5,6.6-12.2,8.5
	C273.9,91.6,268.5,92.6,263.1,92.6L263.1,92.6z"/>
<path class="st0" d="M414.9,93.8l-33.6-46l32-43.5c0.7-0.9,0.4-2.2-0.5-2.9c-0.3-0.2-0.8-0.4-1.2-0.4h-1.4c-0.8,0-1.6,0.3-2.1,0.9
	c-0.3,0.3-0.5,0.6-0.7,0.9l-29.7,40.7L347.9,2.8c-0.1-0.2-0.2-0.3-0.4-0.5c-0.6-0.8-1.5-1.2-2.4-1.2h-1.4c-1.1,0-2,0.9-2,2.1
	c0,0.4,0.1,0.9,0.4,1.2L374.1,48l-33.6,45.8c-0.7,0.9-0.5,2.2,0.4,2.9c0.4,0.3,0.8,0.4,1.2,0.4h1.4c0.8,0,1.7-0.4,2.2-1
	c0.2-0.2,0.4-0.5,0.6-0.8l31.4-43.1l31.2,43c0.1,0.2,0.2,0.4,0.5,0.6c0.6,0.8,1.5,1.2,2.4,1.2h1.4c1.1,0,2.1-0.9,2.1-2
	C415.3,94.5,415.2,94.1,414.9,93.8L414.9,93.8z"/>
</svg>
