<svg id="Layer_1" data-name="Layer 1" xmlns="http://www.w3.org/2000/svg" viewBox="0 0 1283 251.43"><defs><style>.cls-1{fill:#1a1a1a;}</style></defs><title>0chainNet Logo Black</title><path class="cls-1" d="M502.6,157.38a2.42,2.42,0,0,0-1.72-.7,2.57,2.57,0,0,0-1.77.81,59.53,59.53,0,0,1-5.87,4.76,31.81,31.81,0,0,1-6.24,3.42,36.62,36.62,0,0,1-7.47,2.13,54,54,0,0,1-9.41.74,39.65,39.65,0,0,1-15.22-2.9,34.37,34.37,0,0,1-12.08-8.37,39.21,39.21,0,0,1-8-13.41,52.39,52.39,0,0,1-2.93-18.07,51.36,51.36,0,0,1,3-17.88,39.24,39.24,0,0,1,8.17-13.44A35.36,35.36,0,0,1,455.4,86a41.72,41.72,0,0,1,16-3,45.29,45.29,0,0,1,8.46.7,41.13,41.13,0,0,1,6.53,1.75,27,27,0,0,1,4.75,2.21c1.35.83,2.5,1.59,3.39,2.27s1.69,1.3,2.23,1.76a4.18,4.18,0,0,0,2.55,1.22,2.58,2.58,0,0,0,2-1l.33-.52L501.31,89a65.42,65.42,0,0,0-6.37-4.75,36.26,36.26,0,0,0-6.79-3.48,38.55,38.55,0,0,0-7.68-2.06,57.54,57.54,0,0,0-9.08-.66,47,47,0,0,0-18.19,3.44A41.11,41.11,0,0,0,439,91.3a44.58,44.58,0,0,0-9.17,15.15,56,56,0,0,0-3.23,19.37,57.39,57.39,0,0,0,3.23,19.78,44.1,44.1,0,0,0,9.08,15.09,39.71,39.71,0,0,0,13.85,9.58,44.87,44.87,0,0,0,17.39,3.32,54.28,54.28,0,0,0,10.56-1,46.32,46.32,0,0,0,8.83-2.67,41.33,41.33,0,0,0,7.42-4.11,50.65,50.65,0,0,0,6.29-5.22l-.06-2.73Z"/><polygon class="cls-1" points="616.41 79.05 614.54 80.91 614.54 122.51 555.2 122.51 555.2 80.91 553.33 79.05 551.79 79.05 549.92 80.91 549.92 170.66 551.79 172.53 553.33 172.53 555.2 170.66 555.2 127.66 614.54 127.66 614.54 170.66 616.41 172.53 617.95 172.53 619.82 170.66 619.82 80.91 617.95 79.05 616.41 79.05"/><path class="cls-1" d="M699,79.38H697.7L696,80.53l-37.44,89.75,1.72,2.59h1a2.69,2.69,0,0,0,2.65-1.86l34.4-82.63L732.75,171a2.61,2.61,0,0,0,2.52,1.86h1.15l1.73-2.59L700.71,80.53Z"/><polygon class="cls-1" points="781.3 79.05 779.43 80.91 779.43 170.66 781.3 172.53 782.84 172.53 784.71 170.66 784.71 80.91 782.84 79.05 781.3 79.05"/><path class="cls-1" d="M908,79.05H906.7l-1.87,1.86v81.22L844.77,80.36a2.87,2.87,0,0,0-2.46-1.31h-.51l-1.87,1.86v89.75l1.87,1.87h1.29l1.86-1.87V89.13l60.4,82.17a2.69,2.69,0,0,0,2.23,1.23H908l1.87-1.87V80.91Z"/><path class="cls-1" d="M379.83,89.91a29.62,29.62,0,0,0-10.84-9,30.65,30.65,0,0,0-26.23,0,29.57,29.57,0,0,0-10.85,9,45.56,45.56,0,0,0-7.17,14.92,74.8,74.8,0,0,0-2.61,21,75.12,75.12,0,0,0,2.61,20.94,45.19,45.19,0,0,0,7.18,14.9,29.42,29.42,0,0,0,10.85,8.94,31,31,0,0,0,26.21,0,29.67,29.67,0,0,0,10.85-8.94,45.78,45.78,0,0,0,7.18-14.9,75.12,75.12,0,0,0,2.61-20.94,75.54,75.54,0,0,0-2.61-21A45.79,45.79,0,0,0,379.83,89.91Zm-24,78.28A24.85,24.85,0,0,1,345,165.76a24.1,24.1,0,0,1-8.2-6.59l40.47-63.11a44.69,44.69,0,0,1,4.29,10.36,71.83,71.83,0,0,1,2.32,19.36,71.71,71.71,0,0,1-2.32,19.35,40.16,40.16,0,0,1-6.14,13.17,23.82,23.82,0,0,1-19.59,9.89ZM330,145.13a70.93,70.93,0,0,1-2.33-19.35A71.05,71.05,0,0,1,330,106.42a40,40,0,0,1,6.2-13.2,24.47,24.47,0,0,1,30.42-7.53,23.85,23.85,0,0,1,7.6,6l-40.37,63A44.7,44.7,0,0,1,330,145.13Z"/><path class="cls-1" d="M1136.79,167.1h-48.86V127.78H1129a2,2,0,0,0,2-2v-1.41a2,2,0,0,0-2-2h-41.06V84.46h48.73a2,2,0,0,0,2-2v-1.4a2,2,0,0,0-2-2H1084.4a2,2,0,0,0-2,2V170.5a2,2,0,0,0,2,2h52.26a2,2,0,0,0,2-1.82l.12-1.4a2,2,0,0,0-2-2.18Z"/><path class="cls-1" d="M1243.87,79.06h-69a2,2,0,0,0-2,2v1.4a2,2,0,0,0,2,2h31.87v86a2,2,0,0,0,2,2h1.53a2,2,0,0,0,2-2v-86h31.61a2,2,0,0,0,2-2v-1.4A2,2,0,0,0,1243.87,79.06Z"/><path class="cls-1" d="M1032.31,79.05H1031l-1.87,1.86v81.22L969.1,80.36a2.87,2.87,0,0,0-2.46-1.31h-.51l-1.87,1.86v89.75l1.87,1.87h1.29l1.86-1.87V89.13l60.4,82.17a2.68,2.68,0,0,0,2.23,1.23h.38l1.87-1.87V80.91Z"/><path class="cls-1" d="M136.48,26.38a99.34,99.34,0,1,0,99.34,99.34A99.45,99.45,0,0,0,136.48,26.38Zm67,30.19-8.15,8.16a84.59,84.59,0,0,0-117.75,0l-8.15-8.16a96.18,96.18,0,0,1,134.05,0ZM138,207.51V197a71.36,71.36,0,0,0,69.76-69.76h10.54A81.89,81.89,0,0,1,138,207.51Zm-83.29-80.3H65.23A71.35,71.35,0,0,0,135,197v10.54A81.89,81.89,0,0,1,54.68,127.21ZM135,43.92V54.46a71.35,71.35,0,0,0-69.75,69.76H54.68A81.89,81.89,0,0,1,135,43.92ZM136.48,194a68.3,68.3,0,1,1,68.29-68.29A68.38,68.38,0,0,1,136.48,194Zm71.25-69.79A71.36,71.36,0,0,0,138,54.46V43.92a81.89,81.89,0,0,1,80.3,80.3Zm-167.6,1.5a96,96,0,0,1,27.21-67l8.15,8.15a84.62,84.62,0,0,0,0,117.75l-8.15,8.15A96,96,0,0,1,40.13,125.72Zm29.32,69.14,8.15-8.16a84.59,84.59,0,0,0,117.75,0l8.15,8.16a96.18,96.18,0,0,1-134,0Zm136.17-2.12-8.15-8.15a84.62,84.62,0,0,0,0-117.75l8.15-8.15a96.18,96.18,0,0,1,0,134.05Z"/></svg>