<?xml version="1.0" encoding="utf-8"?>
<!-- Generator: Adobe Illustrator 24.0.1, SVG Export Plug-In . SVG Version: 6.00 Build 0)  -->
<svg version="1.1" id="Layer_1" xmlns="http://www.w3.org/2000/svg" xmlns:xlink="http://www.w3.org/1999/xlink" x="0px" y="0px"
	 width="729.3px" height="98.1px" viewBox="0 0 729.3 98.1" style="enable-background:new 0 0 729.3 98.1;" xml:space="preserve">
<style type="text/css">
	.st0{fill:#FFF4FF;}
</style>
<title>0wallet Text Logo White</title>
<path class="st0" d="M59.3,12.3C56.4,8.3,52.5,5.2,48.1,3c-8.5-4-18.4-4-26.9,0c-4.4,2.1-8.2,5.3-11.1,9.3
	c-3.4,4.6-5.9,9.8-7.4,15.3c-1.9,7-2.8,14.3-2.7,21.5c-0.1,7.3,0.8,14.5,2.7,21.5c1.5,5.5,4,10.7,7.4,15.3c2.9,3.9,6.7,7.1,11.1,9.2
	c8.5,4,18.4,4,26.9,0c4.4-2.1,8.2-5.3,11.2-9.2c3.4-4.6,5.9-9.8,7.4-15.3c1.9-7,2.8-14.3,2.7-21.5c0.1-7.3-0.8-14.5-2.7-21.5
	C65.1,22.1,62.6,16.9,59.3,12.3z M34.7,92.7c-3.8,0-7.6-0.8-11.1-2.5c-3.3-1.6-6.2-3.9-8.4-6.8l41.5-64.8c1.9,3.3,3.4,6.9,4.4,10.6
	c1.7,6.5,2.5,13.2,2.4,19.8c0.1,6.7-0.7,13.4-2.4,19.8c-1.3,4.9-3.4,9.5-6.3,13.7c-2.4,3.2-5.5,5.9-9.1,7.7
	C42.3,91.9,38.5,92.7,34.7,92.7z M8.1,69c-1.7-6.5-2.5-13.2-2.4-19.8c-0.1-6.7,0.7-13.4,2.4-19.8c1.3-4.9,3.4-9.5,6.4-13.6
	C19.1,9.2,26.7,5.4,34.7,5.4c3.8,0,7.6,0.9,11,2.5c3,1.5,5.7,3.6,7.8,6.2L12,78.8C10.3,75.7,9,72.4,8.1,69z"/>
<path class="st0" d="M224.9,1h-1c-1.3,0-2.5,0.8-2.8,2.1l-26.1,83L166.1,3.2c-0.3-1.3-1.5-2.1-2.8-2.1h-0.4c-1.3,0-2.4,0.8-2.7,2
	l-28.9,83l-26-82.9c-0.3-1.2-1.5-2.1-2.7-2.1h-1.2c-1.1,0-2.1,0.9-2.1,2.1c0,0.2,0,0.4,0.1,0.6l29.2,92c0.3,0.8,1.1,1.4,2,1.4h1.3
	c0.9,0,1.7-0.6,1.9-1.4l29.3-84.5l29.3,84.5c0.3,0.8,1.1,1.4,1.9,1.4h1.3c0.9,0,1.7-0.6,2-1.4l29.2-92c0.2-0.6,0.1-1.3-0.3-1.8
	C226.1,1.4,225.5,1,224.9,1z"/>
<path class="st0" d="M293.8,2.3c-0.3-0.8-1.1-1.3-1.9-1.3h-1.3c-0.8,0-1.6,0.5-1.9,1.3l-38.4,92c-0.3,0.6-0.2,1.4,0.2,1.9
	c0.4,0.6,1,0.9,1.7,0.9h1c1.3,0,2.4-0.8,2.8-2l12.3-29.4h45.8l12.3,29.4c0.4,1.2,1.5,2,2.7,2h1.2c1.1,0,2.1-0.9,2.1-2.1
	c0-0.3-0.1-0.5-0.2-0.8L293.8,2.3z M270.7,60.3l20.7-49.6l20.6,49.6H270.7z"/>
<path class="st0" d="M423.2,91.6h-44.9V3.1c0-1.1-0.9-2.1-2.1-2.1l0,0h-1.6c-1.1,0-2,0.9-2,2.1v92c0,1.1,0.9,2.1,2.1,2.1l0,0h48.5
	c1.1,0,2.1-0.9,2.1-2.1v0v-1.4C425.3,92.6,424.4,91.6,423.2,91.6C423.3,91.6,423.3,91.6,423.2,91.6z"/>
<path class="st0" d="M517.5,91.6h-44.9V3.1c0-1.1-0.9-2.1-2.1-2.1c0,0,0,0-0.1,0h-1.6c-1.1,0-2.1,0.9-2.1,2.1c0,0,0,0,0,0v92
	c0,1.1,0.9,2.1,2.1,2.1l0,0h48.5c1.1,0,2.1-0.9,2.1-2.1v0v-1.4C519.5,92.6,518.6,91.6,517.5,91.6z"/>
<path class="st0" d="M617.1,91.6h-50.2V51.2h42.2c1.1,0,2.1-0.9,2.1-2.1c0,0,0,0,0,0v-1.4c0-1.1-0.9-2.1-2.1-2.1l0,0h-42.2v-39H617
	c1.1,0,2.1-0.9,2.1-2.1c0,0,0,0,0,0V3.1c0-1.1-0.9-2.1-2.1-2.1l0,0h-53.8c-1.1,0-2,0.9-2,2v92c0,1.1,0.9,2,2,2.1c0,0,0,0,0,0H617
	c1,0,1.9-0.8,2-1.8l0.1-1.4c0.1-1.1-0.7-2.1-1.8-2.2C617.3,91.7,617.2,91.7,617.1,91.6L617.1,91.6z"/>
<path class="st0" d="M727.3,1h-71c-1.1,0-2.1,0.9-2.1,2.1c0,0,0,0,0,0v1.4c0,1.1,0.9,2.1,2.1,2.1l0,0h32.8v88.5c0,1.1,0.9,2,2,2.1
	c0,0,0,0,0,0h1.6c1.1,0,2.1-0.9,2.1-2.1v0V6.6h32.5c1.1,0,2.1-0.9,2.1-2.1c0,0,0,0,0,0V3.1C729.4,2,728.4,1.1,727.3,1
	C727.3,1,727.3,1,727.3,1z"/>
</svg>
