<?xml version="1.0" encoding="utf-8"?>
<!-- Generator: Adobe Illustrator 24.1.3, SVG Export Plug-In . SVG Version: 6.00 Build 0)  -->
<svg version="1.1" id="Layer_1" xmlns="http://www.w3.org/2000/svg" xmlns:xlink="http://www.w3.org/1999/xlink" x="0px" y="0px"
	 viewBox="0 0 450 450" style="enable-background:new 0 0 450 450;" xml:space="preserve">
<style type="text/css">
	.st0{fill:none;stroke:#333333;stroke-width:4;stroke-linecap:round;stroke-linejoin:round;stroke-miterlimit:10;}
</style>
<g>
	<g>
		<path class="st0" d="M209.3,107.5h-63.7c-7.8,0-15.7,7.9-15.7,17.7v155.6c0,9.8,7.9,17.7,17.7,17.7h210.6
			c9.8,0,17.7-7.9,17.7-17.7V125.2c0-9.8-7.9-17.7-17.7-17.7h-75.7"/>
	</g>
	<g>
		<path class="st0" d="M119.1,136.1c-9.8,0-17.7,7.9-17.7,17.7v155.6c0,9.8,7.9,17.7,17.7,17.7h210.6c9.8,0,17.7-7.9,17.7-17.7"/>
	</g>
	<g>
		<path class="st0" d="M91.8,163.4c-9.8,0-17.7,7.9-17.7,17.7v155.6c0,9.8,7.9,17.7,17.7,17.7h210.6c9.8,0,17.7-7.9,17.7-17.7"/>
	</g>
	<g>
		<g>
			<line class="st0" x1="159.3" y1="149.5" x2="178.8" y2="149.5"/>
			<line class="st0" x1="196.5" y1="149.5" x2="346.6" y2="149.5"/>
		</g>
		<g>
			<line class="st0" x1="159.3" y1="176.3" x2="178.8" y2="176.3"/>
			<line class="st0" x1="196.5" y1="176.3" x2="346.6" y2="176.3"/>
		</g>
		<g>
			<line class="st0" x1="159.3" y1="203" x2="178.8" y2="203"/>
			<line class="st0" x1="196.5" y1="203" x2="346.6" y2="203"/>
		</g>
		<g>
			<line class="st0" x1="159.3" y1="229.8" x2="178.8" y2="229.8"/>
			<line class="st0" x1="196.5" y1="229.8" x2="346.6" y2="229.8"/>
		</g>
		<g>
			<line class="st0" x1="159.3" y1="256.6" x2="178.8" y2="256.6"/>
			<line class="st0" x1="196.5" y1="256.6" x2="346.6" y2="256.6"/>
		</g>
	</g>
	<path class="st0" d="M249.9,116.5c2.1,1.8,4.8,2.9,7.8,2.9c6.6,0,11.9-5.3,11.9-11.9s-5.3-11.9-11.9-11.9s-11.9,5.3-11.9,11.9
		s-5.3,11.9-11.9,11.9s-11.9-5.3-11.9-11.9s5.3-11.9,11.9-11.9c3,0,5.7,1.1,7.8,2.9"/>
</g>
</svg>
