<?xml version="1.0" encoding="utf-8"?>
<!-- Generator: Adobe Illustrator 24.1.3, SVG Export Plug-In . SVG Version: 6.00 Build 0)  -->
<svg version="1.1" id="Layer_1" xmlns="http://www.w3.org/2000/svg" xmlns:xlink="http://www.w3.org/1999/xlink" x="0px" y="0px"
	 viewBox="0 0 450 450" style="enable-background:new 0 0 450 450;" xml:space="preserve">
<style type="text/css">
	.st0{fill:none;stroke:#333333;stroke-width:4;stroke-linecap:round;stroke-linejoin:round;stroke-miterlimit:10;}
	.st1{fill:none;stroke:#15CCBA;stroke-width:2;stroke-linecap:round;stroke-linejoin:round;}
	.st2{fill:#15CCBA;}
</style>
<g>
	<g>
		<g>
			<path class="st0" d="M284.6,161.9h-24.9c-5.6,0-10.1-4.5-10.1-10.1v-24.9c0-5.6,4.5-10.1,10.1-10.1h24.9
				c5.6,0,10.1,4.5,10.1,10.1v24.9C294.7,157.4,290.2,161.9,284.6,161.9z"/>
			<path class="st0" d="M204.9,161.9H180c-5.6,0-10.1-4.5-10.1-10.1v-24.9c0-5.6,4.5-10.1,10.1-10.1h24.9c5.6,0,10.1,4.5,10.1,10.1
				v24.9C215,157.4,210.4,161.9,204.9,161.9z"/>
			<line class="st0" x1="249.6" y1="139.3" x2="215" y2="139.3"/>
			<path class="st0" d="M364.3,161.9h-24.9c-5.6,0-10.1-4.5-10.1-10.1v-24.9c0-5.6,4.5-10.1,10.1-10.1h24.9
				c5.6,0,10.1,4.5,10.1,10.1v24.9C374.4,157.4,369.9,161.9,364.3,161.9z"/>
			<line class="st0" x1="329.3" y1="139.3" x2="294.7" y2="139.3"/>
			<line class="st0" x1="169" y1="139.3" x2="145.8" y2="139.3"/>
			<line class="st0" x1="397.6" y1="139.3" x2="374.4" y2="139.3"/>
		</g>
		<g>
			<path class="st0" d="M284.6,247.6h-24.9c-5.6,0-10.1-4.5-10.1-10.1v-24.9c0-5.6,4.5-10.1,10.1-10.1h24.9
				c5.6,0,10.1,4.5,10.1,10.1v24.9C294.7,243.1,290.2,247.6,284.6,247.6z"/>
			<path class="st0" d="M204.9,247.6H180c-5.6,0-10.1-4.5-10.1-10.1v-24.9c0-5.6,4.5-10.1,10.1-10.1h24.9c5.6,0,10.1,4.5,10.1,10.1
				v24.9C215,243.1,210.4,247.6,204.9,247.6z"/>
			<line class="st0" x1="249.6" y1="225" x2="215" y2="225"/>
			<path class="st0" d="M364.3,247.6h-24.9c-5.6,0-10.1-4.5-10.1-10.1v-24.9c0-5.6,4.5-10.1,10.1-10.1h24.9
				c5.6,0,10.1,4.5,10.1,10.1v24.9C374.4,243.1,369.9,247.6,364.3,247.6z"/>
			<line class="st0" x1="329.3" y1="225" x2="294.7" y2="225"/>
			<line class="st0" x1="397.6" y1="225" x2="374.4" y2="225"/>
			<line class="st0" x1="169" y1="226.8" x2="160.6" y2="226.8"/>
		</g>
		<g>
			<path class="st0" d="M284.6,333.2h-24.9c-5.6,0-10.1-4.5-10.1-10.1v-24.9c0-5.6,4.5-10.1,10.1-10.1h24.9
				c5.6,0,10.1,4.5,10.1,10.1v24.9C294.7,328.7,290.2,333.2,284.6,333.2z"/>
			<path class="st0" d="M204.9,333.2H180c-5.6,0-10.1-4.5-10.1-10.1v-24.9c0-5.6,4.5-10.1,10.1-10.1h24.9c5.6,0,10.1,4.5,10.1,10.1
				v24.9C215,328.7,210.4,333.2,204.9,333.2z"/>
			<line class="st0" x1="249.6" y1="310.6" x2="215" y2="310.6"/>
			<path class="st0" d="M364.3,333.2h-24.9c-5.6,0-10.1-4.5-10.1-10.1v-24.9c0-5.6,4.5-10.1,10.1-10.1h24.9
				c5.6,0,10.1,4.5,10.1,10.1v24.9C374.4,328.7,369.9,333.2,364.3,333.2z"/>
			<line class="st0" x1="329.3" y1="310.6" x2="294.7" y2="310.6"/>
			<line class="st0" x1="169" y1="310.6" x2="145.8" y2="310.6"/>
			<line class="st0" x1="397.6" y1="310.6" x2="374.4" y2="310.6"/>
		</g>
	</g>
	<g>
		<g>
			<line class="st1" x1="114" y1="205.3" x2="154.3" y2="175"/>
			<g>
				<polygon class="st2" points="154.1,182.3 152.7,182.1 153.9,175.3 147,174.6 147.1,173.1 155.5,174 				"/>
			</g>
		</g>
	</g>
	<g>
		<g>
			<line class="st1" x1="114" y1="226.9" x2="149.3" y2="226.8"/>
			<g>
				<polygon class="st2" points="144.9,232.5 144,231.5 149.2,226.9 144.2,222.1 145.2,221 151.2,227 				"/>
			</g>
		</g>
	</g>
	<g>
		<g>
			<line class="st1" x1="154.3" y1="276.9" x2="114" y2="246.5"/>
			<g>
				<polygon class="st2" points="155.5,277.8 147.1,278.7 147,277.2 153.9,276.6 152.7,269.7 154.1,269.6 				"/>
			</g>
		</g>
	</g>
	<g>
		<g>
			<path class="st0" d="M60.1,244.7h32.8c4.3,0,7.7-3.5,7.7-7.7v-24c0-4.3-3.5-7.7-7.7-7.7h-4h-3.6L81,218.6H52.4V237
				C52.4,241.3,55.8,244.7,60.1,244.7z"/>
			<path class="st0" d="M83.5,208.8H61.1c-3.1,0-5.6,2.2-5.6,5v3.9"/>
		</g>
	</g>
</g>
</svg>
