<?xml version="1.0" encoding="utf-8"?>
<!-- Generator: Adobe Illustrator 23.0.2, SVG Export Plug-In . SVG Version: 6.00 Build 0)  -->
<svg version="1.1" id="_x2014_ÎÓÈ_x5F_1" xmlns="http://www.w3.org/2000/svg" xmlns:xlink="http://www.w3.org/1999/xlink"
	 x="0px" y="0px" viewBox="0 0 600 450" style="enable-background:new 0 0 600 450;" xml:space="preserve">
<style type="text/css">
	.st0{fill:url(#SVGID_1_);}
	.st1{opacity:0.67;}
	.st2{fill:#24126A;}
	.st3{fill:url(#SVGID_2_);}
	.st4{fill:url(#SVGID_3_);}
	.st5{fill:url(#SVGID_4_);}
	.st6{opacity:0.51;}
	.st7{fill:#453C9E;}
	.st8{fill:#5761D7;}
	.st9{fill:#BCBEFF;}
	.st10{fill:#E9E9FD;}
	.st11{fill:url(#SVGID_5_);}
	.st12{fill:url(#SVGID_6_);}
	.st13{fill:url(#SVGID_7_);}
	.st14{fill:url(#SVGID_8_);}
	.st15{fill:url(#SVGID_9_);}
	.st16{fill:url(#SVGID_10_);}
	.st17{fill:url(#SVGID_11_);}
	.st18{fill:#42E8E0;}
	.st19{opacity:0.6;fill:#24126A;}
	.st20{fill:url(#SVGID_12_);}
	.st21{fill:url(#SVGID_13_);}
	.st22{fill:url(#SVGID_14_);}
	.st23{fill:#FFFFFF;}
</style>
<g>
	<g>
		<g>
			<g>
				<g>
					
						<linearGradient id="SVGID_1_" gradientUnits="userSpaceOnUse" x1="-4846.3706" y1="326.1052" x2="-4697.7998" y2="326.1052" gradientTransform="matrix(-1 0 0 1 -4459.5391 0)">
						<stop  offset="0" style="stop-color:#42E8E0"/>
						<stop  offset="0.1507" style="stop-color:#43E3E0"/>
						<stop  offset="0.3285" style="stop-color:#45D5DF"/>
						<stop  offset="0.5199" style="stop-color:#49BDDD"/>
						<stop  offset="0.7209" style="stop-color:#4E9CDB"/>
						<stop  offset="0.9274" style="stop-color:#5472D8"/>
						<stop  offset="1" style="stop-color:#5761D7"/>
					</linearGradient>
					<path class="st0" d="M369.51,369.73c-1.33,0-2.53-0.29-3.48-0.83h0l-125.87-72.67c-1.21-0.7-1.9-1.79-1.9-3
						c0-1.34,0.85-2.6,2.33-3.45l10.74-6.2c2.33-1.34,5.65-1.45,7.73-0.25l125.87,72.67c1.21,0.7,1.9,1.79,1.9,3
						c0,1.34-0.85,2.6-2.33,3.45l-10.74,6.2C372.55,369.34,371.04,369.73,369.51,369.73z M367.22,366.83
						c1.29,0.74,3.83,0.63,5.35-0.25l10.74-6.2c0.7-0.41,1.14-0.94,1.14-1.39c0-0.44-0.39-0.75-0.71-0.94l-125.87-72.67
						c-1.33-0.77-3.78-0.66-5.35,0.25l-10.74,6.2c-0.7,0.41-1.14,0.94-1.14,1.39c0,0.44,0.39,0.75,0.71,0.94L367.22,366.83
						L367.22,366.83z"/>
					<g class="st1">
						<path class="st2" d="M259.02,289.39l115.12,66.46c0.69,0.4,0.69,1.39,0.01,1.79l-6.67,3.91c-0.92,0.54-2.06,0.54-2.98,0.01
							L249.38,295.1c-0.69-0.4-0.69-1.39-0.01-1.79l6.67-3.91C256.96,288.86,258.1,288.85,259.02,289.39z"/>
					</g>
					<g>
						
							<linearGradient id="SVGID_2_" gradientUnits="userSpaceOnUse" x1="-4774.0093" y1="351.3335" x2="-4774.0093" y2="4.5177" gradientTransform="matrix(-1 0 0 1 -4459.5391 0)">
							<stop  offset="0" style="stop-color:#5761D7"/>
							<stop  offset="0.1779" style="stop-color:#5C66D9"/>
							<stop  offset="0.3876" style="stop-color:#6A73DF"/>
							<stop  offset="0.6134" style="stop-color:#8289E8"/>
							<stop  offset="0.849" style="stop-color:#A3A7F5"/>
							<stop  offset="1" style="stop-color:#BCBEFF"/>
						</linearGradient>
						<path class="st3" d="M247.3,12.42l13.44-7.74l0,0.02c0.54-0.28,1.23-0.26,1.99,0.18l115.76,66.83c1.74,1,3.15,3.7,3.15,6.02
							v263.31c0,1.28-0.44,2.16-1.11,2.54l0.02,0.01l-13.43,7.74l-0.3-14.64L262.73,276.6c-1.74-1.01-3.15-3.7-3.15-6.02V19.33
							c-0.27,0.85-0.48,1.48-0.51,1.5C258.98,20.89,247.3,12.42,247.3,12.42z"/>
						
							<linearGradient id="SVGID_3_" gradientUnits="userSpaceOnUse" x1="-4820.9707" y1="96.9629" x2="-4820.9707" y2="72.1172" gradientTransform="matrix(-1 0 0 1 -4459.5391 0)">
							<stop  offset="0" style="stop-color:#C0BFF6"/>
							<stop  offset="0.2938" style="stop-color:#C5C4F7"/>
							<stop  offset="0.6399" style="stop-color:#D3D2F9"/>
							<stop  offset="1" style="stop-color:#E9E9FD"/>
						</linearGradient>
						<path class="st4" d="M381.56,76.77l-34.98,20.19l-5.28-3.05l37.75-21.8C380.3,73.14,381.29,74.97,381.56,76.77z"/>
						
							<linearGradient id="SVGID_4_" gradientUnits="userSpaceOnUse" x1="-5488.5923" y1="-1895.4315" x2="-5488.5923" y2="-2130.7451" gradientTransform="matrix(-0.866 -0.5 0 1.1547 -4445.8628 -237.9348)">
							<stop  offset="0" style="stop-color:#C0BFF6"/>
							<stop  offset="0.2938" style="stop-color:#C5C4F7"/>
							<stop  offset="0.6399" style="stop-color:#D3D2F9"/>
							<stop  offset="1" style="stop-color:#E9E9FD"/>
						</linearGradient>
						<path class="st5" d="M249.38,284.29l115.76,66.83c1.74,1,3.15-0.06,3.15-2.38V85.43c0-2.32-1.41-5.02-3.15-6.02L249.38,12.57
							c-1.74-1-3.15,0.06-3.15,2.38v263.31C246.23,280.59,247.64,283.28,249.38,284.29z"/>
						<polygon class="st2" points="246.23,263.85 368.29,334.33 368.29,99.84 246.23,29.37 						"/>
						<polygon class="st2" points="246.23,263.85 368.29,334.33 368.29,99.84 246.23,29.37 						"/>
						<g class="st6">
							<polygon class="st7" points="246.23,262.84 368.29,333.31 368.29,100.89 246.23,30.42 							"/>
						</g>
						<path class="st8" d="M297.75,52.36l22.08,12.79c0.64,0.37,1.19,0.48,1.43-0.12c0.08-0.2,0.12-0.45,0.12-0.74l0,0
							c0-1.15-0.7-2.48-1.56-2.98l-22.31-12.88c-0.07-0.04-0.13-0.12-0.2-0.1c-0.7,0.2-0.82,0.33-0.82,1.39l0.1,0.3
							C296.59,51.16,296.89,51.86,297.75,52.36z"/>
						<path class="st9" d="M297.31,48.33c-0.08,0.2-0.12,0.45-0.12,0.74c0,1.15,0.7,2.48,1.56,2.98l22.31,12.88
							c0.07,0.04,0.14,0.06,0.2,0.09c-0.24,0.61-0.79,0.81-1.44,0.44l-22.31-12.88c-0.86-0.5-1.56-1.83-1.56-2.98
							C295.95,48.55,296.54,48.03,297.31,48.33z"/>
						<g>
							<path class="st10" d="M375.41,107.28l0.25-0.15c0.41-0.24,0.78-0.25,1.07-0.09l0-0.01l0.95,0.55l-0.46,0.04
								c0.09,0.22,0.13,0.49,0.13,0.8v15.25c0,1.25-0.76,2.69-1.69,3.23l-0.25,0.15c-0.12,0.07-0.23,0.12-0.34,0.15l0.24,0.51
								l-1.01-0.58l0.02,0c-0.36-0.2-0.6-0.68-0.6-1.36v-15.25C373.72,109.27,374.48,107.82,375.41,107.28z"/>
							<path class="st9" d="M376.37,127.59l0.25-0.15c0.93-0.54,1.69-1.99,1.69-3.23v-15.25c0-1.25-0.76-1.82-1.69-1.28l-0.25,0.15
								c-0.93,0.54-1.69,1.99-1.69,3.23v15.25C374.68,127.56,375.44,128.13,376.37,127.59z"/>
						</g>
						<g>
							<path class="st10" d="M375.41,130.56l0.25-0.15c0.41-0.24,0.78-0.25,1.07-0.09l0-0.01l0.95,0.55l-0.46,0.04
								c0.09,0.22,0.13,0.49,0.13,0.8v15.25c0,1.25-0.76,2.69-1.69,3.23l-0.25,0.15c-0.12,0.07-0.23,0.12-0.34,0.15l0.24,0.51
								l-1.01-0.58l0.02,0c-0.36-0.2-0.6-0.68-0.6-1.36v-15.25C373.72,132.54,374.48,131.09,375.41,130.56z"/>
							<path class="st9" d="M376.37,150.86l0.25-0.15c0.93-0.54,1.69-1.99,1.69-3.23v-15.25c0-1.25-0.76-1.82-1.69-1.28l-0.25,0.15
								c-0.93,0.54-1.69,1.99-1.69,3.23v15.25C374.68,150.83,375.44,151.4,376.37,150.86z"/>
						</g>
					</g>
				</g>
			</g>
			<g>
				<g>
					
						<linearGradient id="SVGID_5_" gradientUnits="userSpaceOnUse" x1="-4749.353" y1="323.5762" x2="-4629.9844" y2="323.5762" gradientTransform="matrix(-1 0 0 1 -4459.5391 0)">
						<stop  offset="0" style="stop-color:#42E8E0"/>
						<stop  offset="0.1507" style="stop-color:#43E3E0"/>
						<stop  offset="0.3285" style="stop-color:#45D5DF"/>
						<stop  offset="0.5199" style="stop-color:#49BDDD"/>
						<stop  offset="0.7209" style="stop-color:#4E9CDB"/>
						<stop  offset="0.9274" style="stop-color:#5472D8"/>
						<stop  offset="1" style="stop-color:#5761D7"/>
					</linearGradient>
					<path class="st11" d="M266.24,358.54c-0.86,0-1.69-0.18-2.34-0.56h0l-92.17-53.22c-0.82-0.47-1.29-1.21-1.29-2.03
						c0-0.91,0.57-1.76,1.57-2.33l19.16-11.06c1.56-0.9,3.79-0.97,5.18-0.17l92.17,53.22c0.82,0.47,1.29,1.21,1.29,2.03
						c0,0.9-0.57,1.76-1.57,2.33l-19.16,11.06C268.25,358.3,267.23,358.54,266.24,358.54z M265.09,355.92
						c0.59,0.34,1.92,0.35,2.8-0.16l19.15-11.06c0.16-0.09,0.25-0.17,0.31-0.23c-0.01,0-0.02-0.01-0.02-0.01l-92.17-53.22
						c-0.59-0.34-1.92-0.35-2.8,0.17l-19.16,11.06c-0.16,0.09-0.25,0.17-0.31,0.23c0.01,0,0.02,0.01,0.02,0.01L265.09,355.92z
						 M172.79,302.61L172.79,302.61L172.79,302.61z"/>
					<g>
						
							<linearGradient id="SVGID_6_" gradientUnits="userSpaceOnUse" x1="-5645.4585" y1="-2514.3379" x2="-5534.9341" y2="-2514.3379" gradientTransform="matrix(-0.866 -0.5 0 1.1547 -4599.3291 395.1707)">
							<stop  offset="0" style="stop-color:#5761D7"/>
							<stop  offset="0.1779" style="stop-color:#5C66D9"/>
							<stop  offset="0.3876" style="stop-color:#6A73DF"/>
							<stop  offset="0.6134" style="stop-color:#8289E8"/>
							<stop  offset="0.849" style="stop-color:#A3A7F5"/>
							<stop  offset="1" style="stop-color:#BCBEFF"/>
						</linearGradient>
						<path class="st12" d="M209.34,258.8c2.42,1.4,4.71,3.37,6.76,5.7c2.83-9.09,11.47-11.92,21.68-6.02
							c8.45,4.88,15.82,14.48,19.72,24.65c1.29,0.04,2.73,0.47,4.25,1.35c5.52,3.18,9.99,10.93,9.99,17.3c0,0.14-0.01,0.26-0.02,0.4
							c1.57,0.11,3.31,0.66,5.14,1.72c7.05,4.07,12.77,13.98,12.77,22.12c0,8.15-5.72,11.45-12.77,7.37l-67.52-38.98
							c-8.52-4.92-15.42-16.87-15.42-26.71C193.92,257.87,200.83,253.88,209.34,258.8z"/>
						
							<radialGradient id="SVGID_7_" cx="-4726.6831" cy="285.8637" r="45.6574" fx="-4769.7397" fy="270.6746" gradientTransform="matrix(-1 0 0 1 -4459.5391 0)" gradientUnits="userSpaceOnUse">
							<stop  offset="0" style="stop-color:#2B237C"/>
							<stop  offset="1" style="stop-color:#180D5B"/>
						</radialGradient>
						<path class="st13" d="M209.34,258.8c1.4,0.81,2.76,1.82,4.06,2.97l7.55-4.36l0,0c4.15-2.92,10.15-2.79,16.83,1.07
							c8.45,4.88,15.82,14.48,19.72,24.65c1.29,0.04,2.73,0.47,4.25,1.35c5.52,3.18,9.99,10.93,9.99,17.3c0,0.14-0.01,0.26-0.02,0.4
							c1.57,0.11,3.31,0.66,5.14,1.72c7.05,4.07,12.77,13.98,12.77,22.12c0,4.04-1.41,6.88-3.68,8.23l0.01,0l-0.06,0.03
							c0,0-0.01,0-0.01,0.01l-18.49,10.74l-4.04-19.43l-54.01-31.19c-8.52-4.92-15.42-16.87-15.42-26.71
							C193.92,257.87,200.83,253.88,209.34,258.8z"/>
						
							<linearGradient id="SVGID_8_" gradientUnits="userSpaceOnUse" x1="-4749.1772" y1="300.205" x2="-4639.1587" y2="300.205" gradientTransform="matrix(-1 0 0 1 -4459.5391 0)">
							<stop  offset="0" style="stop-color:#5761D7"/>
							<stop  offset="0.1779" style="stop-color:#5C66D9"/>
							<stop  offset="0.3876" style="stop-color:#6A73DF"/>
							<stop  offset="0.6134" style="stop-color:#8289E8"/>
							<stop  offset="0.849" style="stop-color:#A3A7F5"/>
							<stop  offset="1" style="stop-color:#BCBEFF"/>
						</linearGradient>
						<path class="st14" d="M179.62,268.66l18.74-10.89l0,0c2.8-1.67,6.69-1.46,10.99,1.03c1.4,0.81,2.76,1.82,4.06,2.97l7.55-4.36
							l0,0c4.15-2.92,10.15-2.79,16.83,1.07c8.45,4.88,15.82,14.48,19.72,24.65c1.29,0.04,2.73,0.47,4.25,1.35
							c5.52,3.18,9.99,10.93,9.99,17.3c0,0.14-0.01,0.26-0.02,0.4c1.57,0.11,3.31,0.66,5.14,1.72c7.05,4.07,12.77,13.98,12.77,22.12
							c0,4.04-1.41,6.88-3.68,8.23l0.01,0l-0.06,0.03c0,0-0.01,0-0.01,0.01l-18.49,10.74l-4.04-19.43l-54.01-31.19
							c-6.9-3.99-12.75-12.6-14.71-20.95L179.62,268.66z"/>
						
							<linearGradient id="SVGID_9_" gradientUnits="userSpaceOnUse" x1="-5624.0347" y1="-2495.7349" x2="-5513.5103" y2="-2495.7349" gradientTransform="matrix(-0.866 -0.5 0 1.1547 -4599.3291 395.1707)">
							<stop  offset="0" style="stop-color:#C0BFF6"/>
							<stop  offset="0.2938" style="stop-color:#C5C4F7"/>
							<stop  offset="0.6399" style="stop-color:#D3D2F9"/>
							<stop  offset="1" style="stop-color:#E9E9FD"/>
						</linearGradient>
						<path class="st15" d="M190.79,269.57c2.42,1.4,4.71,3.37,6.76,5.7c2.83-9.09,11.47-11.92,21.68-6.02
							c8.45,4.88,15.82,14.48,19.72,24.65c1.29,0.04,2.73,0.47,4.25,1.35c5.52,3.18,9.99,10.93,9.99,17.3c0,0.14-0.01,0.26-0.02,0.4
							c1.57,0.11,3.31,0.66,5.14,1.72c7.05,4.07,12.77,13.98,12.77,22.13c0,8.15-5.72,11.45-12.77,7.37l-67.52-38.98
							c-8.52-4.92-15.42-16.87-15.42-26.71S182.27,264.65,190.79,269.57z"/>
					</g>
				</g>
				
					<linearGradient id="SVGID_10_" gradientUnits="userSpaceOnUse" x1="-4798.7183" y1="369.7988" x2="-4736.3096" y2="369.7988" gradientTransform="matrix(-1 0 0 1 -4459.5391 0)">
					<stop  offset="0" style="stop-color:#5761D7"/>
					<stop  offset="0.0726" style="stop-color:#5472D8"/>
					<stop  offset="0.2791" style="stop-color:#4E9CDB"/>
					<stop  offset="0.4801" style="stop-color:#49BDDD"/>
					<stop  offset="0.6715" style="stop-color:#45D5DF"/>
					<stop  offset="0.8493" style="stop-color:#43E3E0"/>
					<stop  offset="1" style="stop-color:#42E8E0"/>
				</linearGradient>
				<polygon class="st16" points="337.97,388.97 276.77,352.68 277.98,350.63 339.18,386.92 				"/>
			</g>
			
				<linearGradient id="SVGID_11_" gradientUnits="userSpaceOnUse" x1="-4911.894" y1="386.4295" x2="-4838.1577" y2="386.4295" gradientTransform="matrix(-1 0 0 1 -4459.5391 0)">
				<stop  offset="0" style="stop-color:#5761D7"/>
				<stop  offset="0.0726" style="stop-color:#5472D8"/>
				<stop  offset="0.2791" style="stop-color:#4E9CDB"/>
				<stop  offset="0.4801" style="stop-color:#49BDDD"/>
				<stop  offset="0.6715" style="stop-color:#45D5DF"/>
				<stop  offset="0.8493" style="stop-color:#43E3E0"/>
				<stop  offset="1" style="stop-color:#42E8E0"/>
			</linearGradient>
			<polygon class="st17" points="451.13,409.24 378.62,365.66 379.84,363.62 452.35,407.2 			"/>
		</g>
		<g>
			<g>
				<polygon class="st18" points="354.69,115.86 356.78,117.07 356.78,115.67 354.69,114.46 				"/>
				<polygon class="st18" points="354.69,125.36 356.78,126.57 356.78,118.35 354.69,117.14 				"/>
				<polygon class="st18" points="354.69,129.9 356.78,131.11 356.78,127.85 354.69,126.64 				"/>
				<polygon class="st18" points="354.69,134.6 356.78,135.81 356.78,132.55 354.69,131.34 				"/>
				<polygon class="st18" points="351.56,118.6 353.66,119.81 353.66,116.55 351.56,115.34 				"/>
				<polygon class="st18" points="351.56,124.83 353.66,126.04 353.66,121.25 351.56,120.05 				"/>
				<polygon class="st18" points="351.56,130.57 353.66,131.78 353.66,127.67 351.56,126.46 				"/>
				<polygon class="st18" points="354.69,139.31 356.78,140.52 356.78,137.25 354.69,136.05 				"/>
				<polygon class="st18" points="351.56,114.06 353.66,115.27 353.66,113.87 351.56,112.66 				"/>
			</g>
			<polygon class="st18" points="353.13,142.97 356.78,145.08 356.78,143.72 353.13,141.61 			"/>
		</g>
	</g>
	<path class="st19" d="M368.29,187.17l-115.81-66.86c-3.3-1.9-5.97,0.12-5.97,4.51v67.61c0,4.4,2.67,9.5,5.97,11.41l115.81,66.86
		V187.17z"/>
	<g>
		
			<linearGradient id="SVGID_12_" gradientUnits="userSpaceOnUse" x1="406.9336" y1="224.0919" x2="526.4504" y2="123.8054" gradientTransform="matrix(-1 0 0 1 762.393 0)">
			<stop  offset="0" style="stop-color:#5761D7"/>
			<stop  offset="0.1779" style="stop-color:#5C66D9"/>
			<stop  offset="0.3876" style="stop-color:#6A73DF"/>
			<stop  offset="0.6134" style="stop-color:#8289E8"/>
			<stop  offset="0.849" style="stop-color:#A3A7F5"/>
			<stop  offset="1" style="stop-color:#BCBEFF"/>
		</linearGradient>
		<path class="st20" d="M237.33,107.8l3.45-2.47v0c1.08-0.82,2.58-0.86,4.23,0.1l120.63,69.65c3.3,1.9,5.97,7.01,5.97,11.41v67.61
			c0,2.3-0.74,3.94-1.91,4.72l0.01,0l-3.59,2.56l-0.2-2.62c-0.1-0.05-0.19-0.09-0.29-0.15l-120.63-69.65
			c-3.3-1.9-5.97-7.01-5.97-11.41v-67.61c0-0.65,0.06-1.24,0.17-1.78L237.33,107.8z"/>
		
			<linearGradient id="SVGID_13_" gradientUnits="userSpaceOnUse" x1="404.5184" y1="194.1102" x2="417.5729" y2="183.1561" gradientTransform="matrix(-1 0 0 1 762.393 0)">
			<stop  offset="0" style="stop-color:#C0BFF6"/>
			<stop  offset="0.2938" style="stop-color:#C5C4F7"/>
			<stop  offset="0.6399" style="stop-color:#D3D2F9"/>
			<stop  offset="1" style="stop-color:#E9E9FD"/>
		</linearGradient>
		<path class="st21" d="M371.3,183.78l-31.84,18.38l-8.02-4.63l36.16-20.88C369.34,178.47,370.71,181.11,371.3,183.78z"/>
		
			<linearGradient id="SVGID_14_" gradientUnits="userSpaceOnUse" x1="538.8347" y1="536.2482" x2="538.8347" y2="463.9059" gradientTransform="matrix(-0.866 -0.5 0 1.1547 768.3544 -123.4262)">
			<stop  offset="0" style="stop-color:#C0BFF6"/>
			<stop  offset="0.2938" style="stop-color:#C5C4F7"/>
			<stop  offset="0.6399" style="stop-color:#D3D2F9"/>
			<stop  offset="1" style="stop-color:#E9E9FD"/>
		</linearGradient>
		<path class="st22" d="M241.41,191.54l120.63,69.65c3.3,1.9,5.97-0.12,5.97-4.51v-67.61c0-4.4-2.67-9.5-5.97-11.41l-120.63-69.65
			c-3.3-1.9-5.97,0.12-5.97,4.51v67.61C235.44,184.53,238.11,189.63,241.41,191.54z"/>
		<path class="st8" d="M252.57,148.96l98.45,56.79c0.76,0.44,1.41,0.68,1.85-0.01c0.07-0.11,0.03-0.26,0.03-0.41V190.4
			c0-1.16-0.71-2.51-1.58-3.01l-99.22-57.28c-0.08-0.04-0.15-0.12-0.23-0.11c-0.74,0.12-0.77,0.81-0.77,1.86l-0.24,14.32
			C250.87,147.35,251.7,148.46,252.57,148.96z"/>
		<path class="st8" d="M252.37,181.43l98.62,56.84c0.76,0.44,1.74,0.9,1.89,0.03c0.02-0.13,0.03-0.26,0.03-0.41v-14.93
			c0-1.16-0.71-2.51-1.58-3.01l-99.22-57.28c-0.08-0.04-0.15-0.08-0.23-0.11c-0.76-0.29-0.96,0.69-0.96,1.75l-0.05,14.15
			C250.87,179.61,251.5,180.93,252.37,181.43z"/>
		<path class="st23" d="M251.88,130.01c-0.02,0.13-0.03,0.26-0.03,0.41v14.93c0,1.16,0.71,2.51,1.58,3.01l99.22,57.28
			c0.08,0.05,0.16,0.07,0.23,0.1c-0.15,0.87-0.78,1.22-1.54,0.78l-99.22-57.28c-0.87-0.5-1.58-1.85-1.58-3.01V131.3
			C250.54,130.24,251.12,129.72,251.88,130.01z"/>
		<path class="st23" d="M251.88,162.56c-0.02,0.12-0.03,0.26-0.03,0.41v14.93c0,1.16,0.71,2.51,1.58,3.01l99.22,57.28
			c0.08,0.05,0.16,0.07,0.23,0.1c-0.15,0.87-0.78,1.22-1.54,0.79l-99.22-57.28c-0.87-0.5-1.58-1.85-1.58-3.01v-14.93
			C250.54,162.8,251.12,162.28,251.88,162.56z"/>
		<g>
			<g>
				<path class="st23" d="M324.55,183.49l-1.21,2.3l-2.31-2.9l1.75-1.81l-2.63-2.67l0.86-2.21l2.37,2.91l-0.32-3.47l2.9,1.68
					l-0.3,3.09l2.37-0.14l0.88,3.19l-2.59-0.34l1.74,3.85l-2.27,0.24L324.55,183.49z"/>
			</g>
			<g>
				<path class="st23" d="M313.14,176.91l-1.21,2.3l-2.31-2.9l1.75-1.81l-2.62-2.67l0.86-2.21l2.37,2.91l-0.32-3.47l2.9,1.68
					l-0.3,3.09l2.37-0.14l0.88,3.19l-2.59-0.34l1.74,3.85l-2.27,0.24L313.14,176.91z"/>
			</g>
			<g>
				<path class="st23" d="M301.74,170.33l-1.21,2.3l-2.31-2.9l1.75-1.81l-2.62-2.67l0.86-2.21l2.37,2.91l-0.32-3.47l2.9,1.68
					l-0.3,3.09l2.37-0.14l0.88,3.19l-2.59-0.34l1.74,3.85l-2.27,0.24L301.74,170.33z"/>
			</g>
			<g>
				<path class="st23" d="M290.34,163.74l-1.21,2.3l-2.31-2.9l1.75-1.81l-2.62-2.67l0.86-2.21l2.37,2.91l-0.32-3.47l2.9,1.68
					l-0.3,3.09l2.37-0.14l0.88,3.19l-2.59-0.34l1.74,3.85l-2.27,0.24L290.34,163.74z"/>
			</g>
			<g>
				<path class="st23" d="M278.93,157.16l-1.21,2.3l-2.31-2.9l1.75-1.81l-2.63-2.67l0.86-2.21l2.37,2.91l-0.32-3.47l2.9,1.68
					l-0.3,3.09l2.37-0.14l0.88,3.19l-2.59-0.34l1.74,3.85l-2.27,0.24L278.93,157.16z"/>
			</g>
		</g>
		<g>
			<g>
				<path class="st23" d="M324.55,216.05l-1.21,2.3l-2.31-2.9l1.75-1.81l-2.63-2.67l0.86-2.21l2.37,2.91l-0.32-3.47l2.9,1.68
					l-0.3,3.09l2.37-0.14l0.88,3.19l-2.59-0.34l1.74,3.85l-2.27,0.24L324.55,216.05z"/>
			</g>
			<g>
				<path class="st23" d="M313.14,209.47l-1.21,2.3l-2.31-2.9l1.75-1.81l-2.62-2.67l0.86-2.21l2.37,2.91l-0.32-3.47l2.9,1.68
					l-0.3,3.09l2.37-0.14l0.88,3.19l-2.59-0.34l1.74,3.85l-2.27,0.24L313.14,209.47z"/>
			</g>
			<g>
				<path class="st23" d="M301.74,202.89l-1.21,2.3l-2.31-2.9l1.75-1.81l-2.62-2.67l0.86-2.21l2.37,2.91l-0.32-3.47l2.9,1.68
					l-0.3,3.09l2.37-0.14l0.88,3.19l-2.59-0.34l1.74,3.85l-2.27,0.24L301.74,202.89z"/>
			</g>
			<g>
				<path class="st23" d="M290.34,196.3l-1.21,2.3l-2.31-2.9l1.75-1.81l-2.62-2.67l0.86-2.21l2.37,2.91l-0.32-3.47l2.9,1.68
					l-0.3,3.09l2.37-0.14l0.88,3.19l-2.59-0.34l1.74,3.85l-2.27,0.24L290.34,196.3z"/>
			</g>
			<g>
				<path class="st23" d="M278.93,189.72l-1.21,2.3l-2.31-2.9l1.75-1.81l-2.63-2.67l0.86-2.21l2.37,2.91l-0.32-3.47l2.9,1.68
					l-0.3,3.09l2.37-0.14l0.88,3.19l-2.59-0.34l1.74,3.85l-2.27,0.24L278.93,189.72z"/>
			</g>
		</g>
	</g>
</g>
</svg>
