<svg id="Layer_1" data-name="Layer 1" xmlns="http://www.w3.org/2000/svg" viewBox="0 0 400 188.67"><defs><style>.cls-1{fill:#15ccba;}.cls-2{fill:#727272;}.cls-3{fill:#efa52e;}.cls-4{fill:#afafaf;}</style></defs><title>free</title><path class="cls-1" d="M279.68,177.84v-1.07l8.66-11.37h-7.93v-1.09h9.51v1.07l-8.67,11.37H290v1.09Z"/><path class="cls-1" d="M302.17,168.24c-.53-2.31-2-3.2-4.27-3.2-3.27,0-4.68,2.81-4.68,6,0,3,1.11,6.07,4.79,6.07,2.33,0,3.78-1.58,4.29-3.72h1.33c-.6,2.61-2.23,4.81-5.86,4.81-4.17,0-5.83-3.29-5.83-7.12,0-5.17,2.71-7.13,6.3-7.13,2.78,0,4.81,1.49,5.24,4.29Z"/><path class="cls-1" d="M307.88,166h0v11.8h-1.28V164.31H308l7.82,11.82h0V164.31h1.28v13.53h-1.48Z"/><path class="cls-2" d="M204.52,177.84V164.31h9v1.09H205.8v4.89h7v1.09h-7v5.37h7.91v1.09Z"/><path class="cls-2" d="M215.25,164.31h9.85v1.09h-4.29v12.44h-1.28V165.4h-4.28Z"/><path class="cls-2" d="M227.37,177.84V164.31h1.28v5.81h8v-5.81h1.28v13.53h-1.28v-6.63h-8v6.63Z"/><path class="cls-2" d="M54.85,135.25c-2.31.52-3.2,1.95-3.2,4.26,0,3.27,2.8,4.68,6,4.68,3,0,6.07-1.11,6.07-4.79A4.33,4.33,0,0,0,60,135.12v-1.34c2.61.6,4.81,2.24,4.81,5.87,0,4.17-3.29,5.82-7.12,5.82-5.17,0-7.13-2.71-7.13-6.3,0-2.78,1.49-4.81,4.29-5.24Z"/><path class="cls-2" d="M59.58,131.62c-2.83,0-5.13-1.5-5.13-4.51s2.28-4.51,5.13-4.51c3.09,0,5.13,1.79,5.13,4.51C64.68,129.59,63,131.62,59.58,131.62Zm-4.11-4.51c0,2.37,2,3.31,4.11,3.31,2.43,0,4.12-1.15,4.12-3.31,0-2.36-2-3.3-4.12-3.3C57.29,123.83,55.47,124.73,55.47,127.11Z"/><path class="cls-2" d="M61.41,119.41a2.54,2.54,0,0,0,2.29-2.91c0-1.64-.87-2.41-1.81-2.41-2.81,0-.82,6.24-4.66,6.24-1.61,0-2.78-1.26-2.78-3.42s.87-3.48,3.07-3.76v1.15c-1.51.21-2.05,1.22-2.05,2.63s.67,2.2,1.67,2.2c2.65,0,1-6.24,4.74-6.24,1.86,0,2.83,1.67,2.83,4a3.42,3.42,0,0,1-3.3,3.71Z"/><path class="cls-2" d="M64.49,106.78a6,6,0,0,1,.22,1.3c0,1.11-.49,1.73-1.93,1.73H55.66v1.37h-.94v-1.37H52v-1.13h2.71v-1.82h.94v1.82h6.67c1,0,1.37,0,1.37-1a4.25,4.25,0,0,0-.13-.93Z"/><path class="cls-3" d="M124.67,177.84V164.31h4.88c3.18,0,4.44,1.37,4.44,3.4a2.65,2.65,0,0,1-2.16,2.92v0a3.11,3.11,0,0,1,2.78,3.37c0,2.82-1.84,3.81-4.42,3.81Zm1.28-7.55h3.23c2.67,0,3.53-.94,3.53-2.58s-1-2.31-3.81-2.31h-3Zm0,6.46h3.25c2.82,0,4.13-.37,4.13-2.72s-1.58-2.65-4-2.65H126Z"/><path class="cls-3" d="M136.45,164.31h9.85v1.09H142v12.44h-1.28V165.4h-4.28Z"/><path class="cls-3" d="M158.19,168.24c-.53-2.31-2-3.2-4.27-3.2-3.27,0-4.68,2.81-4.68,6,0,3,1.11,6.07,4.8,6.07,2.33,0,3.77-1.58,4.28-3.72h1.34c-.61,2.61-2.24,4.81-5.87,4.81-4.17,0-5.82-3.29-5.82-7.12,0-5.17,2.7-7.13,6.29-7.13a4.88,4.88,0,0,1,5.25,4.29Z"/><rect class="cls-3" x="126.9" y="10.47" width="26.91" height="135.9"/><rect class="cls-2" x="205.82" y="55.56" width="26.91" height="90.81"/><rect class="cls-1" x="284.73" y="142.61" width="26.91" height="3.76"/><path class="cls-4" d="M349,146.84H89.58a.47.47,0,0,1,0-.94H349a.47.47,0,0,1,0,.94Z"/></svg>