<svg id="Layer_1" data-name="Layer 1" xmlns="http://www.w3.org/2000/svg" viewBox="0 0 680 345"><defs><style>.cls-1{fill:#727272;}.cls-2{fill:#fff;}.cls-3{fill:#15cbb9;}.cls-4{fill:#afafaf;}</style></defs><title>miner sharder</title><path class="cls-1" d="M349,100.47l-.48,1.33,6.74,2.45H296.6a.7.7,0,0,0-.7.7.71.71,0,0,0,.7.71h58.64l-6.74,2.45.48,1.32L361.3,105Z"/><path class="cls-1" d="M541.28,100.47l-.48,1.33,6.73,2.45H488.9a.7.7,0,0,0-.71.7.71.71,0,0,0,.71.71h58.64l-6.74,2.45.48,1.32L553.59,105Z"/><path class="cls-1" d="M550.77,281.1H492.14l6.73-2.45-.48-1.32-12.31,4.48,12.31,4.48.48-1.32-6.73-2.46h58.63a.7.7,0,0,0,.71-.7A.71.71,0,0,0,550.77,281.1Z"/><path class="cls-1" d="M361.3,278.29H60.81V166.13l2.45,6.74,1.33-.49L60.1,160.07l-4.48,12.31,1.33.49,2.45-6.74V279a.71.71,0,0,0,.7.71H361.3a.7.7,0,0,0,.7-.71A.7.7,0,0,0,361.3,278.29Z"/><path class="cls-1" d="M544.1,267.06l-.49,1.32,6.74,2.46H491.72a.7.7,0,0,0-.71.7.71.71,0,0,0,.71.71h58.63l-6.74,2.45.49,1.32,12.31-4.48Z"/><path class="cls-1" d="M624.68,236.26,622.23,243V184.37a.71.71,0,0,0-.71-.71.7.7,0,0,0-.7.71V243l-2.45-6.74-1.33.49,4.48,12.31L626,236.75Z"/><path class="cls-2" d="M71.87,139.3H48.34a4.55,4.55,0,0,1-4.55-4.55V85.82a4.55,4.55,0,0,1,4.55-4.54H71.87a4.55,4.55,0,0,1,4.55,4.54v48.93A4.55,4.55,0,0,1,71.87,139.3ZM48.34,82.08a3.74,3.74,0,0,0-3.74,3.74v48.93a3.74,3.74,0,0,0,3.74,3.74H71.87a3.75,3.75,0,0,0,3.74-3.74V85.82a3.75,3.75,0,0,0-3.74-3.74Z"/><path class="cls-2" d="M64.47,85H58.72a.22.22,0,1,1,0-.44h5.75a.22.22,0,0,1,0,.44Z"/><path class="cls-2" d="M56.49,85h-.75a.22.22,0,1,1,0-.44h.75a.22.22,0,0,1,0,.44Z"/><path class="cls-2" d="M60.1,134.79a2.66,2.66,0,1,1,2.66-2.65A2.65,2.65,0,0,1,60.1,134.79Zm0-4.87a2.22,2.22,0,1,0,2.22,2.22A2.22,2.22,0,0,0,60.1,129.92Z"/><path class="cls-2" d="M250,132.79h-7.44V74A3.94,3.94,0,0,0,238.64,70H152.81A3.93,3.93,0,0,0,148.88,74v58.83h-7.45a.41.41,0,0,0-.4.41,6.69,6.69,0,0,0,6.68,6.68h96a6.69,6.69,0,0,0,6.68-6.68A.41.41,0,0,0,250,132.79ZM149.68,74a3.14,3.14,0,0,1,3.13-3.13h85.83A3.13,3.13,0,0,1,241.77,74v58.83H149.68Zm54.37,59.64a1.88,1.88,0,0,1-1.84,1.49h-13a1.89,1.89,0,0,1-1.84-1.49Zm39.69,5.47h-96a5.89,5.89,0,0,1-5.86-5.47H187a2.29,2.29,0,0,0,2.25,1.89h13a2.29,2.29,0,0,0,2.25-1.89H249.6A5.87,5.87,0,0,1,243.74,139.07Z"/><path class="cls-2" d="M238.17,72.27H153.28a2.48,2.48,0,0,0-2.47,2.48v56.41a.2.2,0,0,0,.2.2h89.44a.2.2,0,0,0,.2-.2V74.75A2.48,2.48,0,0,0,238.17,72.27ZM240.25,131h-89V74.75a2.08,2.08,0,0,1,2.07-2.08h84.89a2.08,2.08,0,0,1,2.08,2.08Z"/><path class="cls-2" d="M415.74,114.2v.14a.88.88,0,0,1-1.26.8l-14.67-6.89a.89.89,0,0,1-.51-.8v-.61a.88.88,0,0,1,.52-.81l14.67-6.54a.89.89,0,0,1,1.25.81v.16a.89.89,0,0,1-.53.81l-11.53,5.1a.88.88,0,0,0,0,1.61l11.57,5.41A.9.9,0,0,1,415.74,114.2Z"/><path class="cls-2" d="M420.26,118.5h0a.89.89,0,0,1-.85-1.13l7.23-25.49a.88.88,0,0,1,.85-.64h0a.88.88,0,0,1,.85,1.12l-7.22,25.5A.89.89,0,0,1,420.26,118.5Z"/><path class="cls-2" d="M447.72,108.25l-14.67,6.89a.88.88,0,0,1-1.26-.8v-.14a.9.9,0,0,1,.51-.81L443.87,108a.88.88,0,0,0,0-1.61l-11.54-5.1a.88.88,0,0,1-.52-.81v-.16a.88.88,0,0,1,1.24-.81L447.7,106a.89.89,0,0,1,.53.81v.61A.89.89,0,0,1,447.72,108.25Z"/><circle class="cls-3" cx="609.14" cy="100.93" r="1.25"/><circle class="cls-3" cx="609.14" cy="112.23" r="1.25"/><circle class="cls-3" cx="609.14" cy="123.54" r="1.25"/><path class="cls-2" d="M654.06,82.85a71.44,71.44,0,0,0-29.33-7.2.76.76,0,0,0,0-.16V71.91a.45.45,0,0,0-.45-.44h-5.58a.44.44,0,0,0-.44.44v3.58a.41.41,0,0,0,.07.22A79.32,79.32,0,0,0,589,82.86a.44.44,0,0,0-.21.53.43.43,0,0,0,.49.3c6.38-1,23.54-3.26,26.26-1a.72.72,0,0,1,.24.32v7.42a.44.44,0,0,0,.44.44h2.1v5.2H604.64a.44.44,0,0,0-.45.44v8.73a.44.44,0,0,0,.45.44h13.65v1.69H604.64a.45.45,0,0,0-.45.45v8.73a.45.45,0,0,0,.45.44h13.65v1.69H604.64a.45.45,0,0,0-.45.44v8.73a.45.45,0,0,0,.45.45h13.65v6.85a3.24,3.24,0,1,0,6.47,0v-6.85h13.65a.44.44,0,0,0,.44-.45v-8.73a.44.44,0,0,0-.44-.44H624.76V117h13.65a.44.44,0,0,0,.44-.44v-8.73a.44.44,0,0,0-.44-.45H624.76v-1.69h13.65a.43.43,0,0,0,.44-.44V96.56a.43.43,0,0,0-.44-.44H624.76v-5.2h2.09a.45.45,0,0,0,.45-.44V83.42a.47.47,0,0,0,0-.17.6.6,0,0,1,.26-.47c2.64-2.26,19.81-.11,26.21.91h.07a.44.44,0,0,0,.19-.84Zm-34.88-7.36V72.36h4.69v3.13a.35.35,0,0,0,0,.14c-1.63,0-3.22,0-4.77,0A.35.35,0,0,0,619.18,75.49Zm-14.1,29.36V97h13.21v7.85Zm0,11.3v-7.84h13.21v7.84Zm0,11.31v-7.84h13.21v7.84ZM638,119.62v7.84H624.76v-7.84Zm0-11.31v7.84H624.76v-7.84ZM638,97v7.85H624.76V97Zm-14.1-.44V135.2a2.35,2.35,0,1,1-4.69,0V90.92h4.69ZM627.3,81.9V79.82a.45.45,0,1,0-.89,0V90h-9.77V83.42a.47.47,0,0,0,0-.17,1.63,1.63,0,0,0,0-.31V79.82a.45.45,0,1,0-.89,0v2c-3.48-2.06-16.94-.44-23.39.49,8.27-3.38,32.59-11.25,58.51,0C644.47,81.46,630.68,79.82,627.3,81.9Z"/><path class="cls-2" d="M422.61,282c0-2.4.1-4.3,1.81-6.11,1.9-2,4.5-3.75,4.5-6.19s-1.87-4.24-5.13-4.24-5.13,2.44-5,5.56h-2c-.33-4.37,2.83-7.33,7.11-7.33,4.47,0,7.17,2.46,7.17,6.18S427.11,275,425.2,278a7.27,7.27,0,0,0-.69,3.91Zm-.2,6v-2.89h2.4v2.89Z"/><path class="cls-2" d="M621.52,268.61c-.78,0-19.17,0-19.17,2.93v10c0,2.89,18.39,2.93,19.17,2.93s19.18,0,19.18-2.93v-10C640.7,268.64,622.31,268.61,621.52,268.61Zm0,.92c10.93,0,17.64,1.17,18.24,2-.6.84-7.31,2-18.24,2s-17.8-1.2-18.26-2v0C603.72,270.73,610.46,269.53,621.52,269.53Zm0,14.05c-11.09,0-17.84-1.22-18.26-2v-9c3.72,1.88,17.59,1.91,18.26,1.91s14.55,0,18.26-1.91v9C639.37,282.36,632.62,283.58,621.52,283.58Z"/><circle class="cls-3" cx="606.73" cy="277.79" r="1.2"/><path class="cls-1" d="M115.28,104.25h-4.94v-5a.71.71,0,0,0-.71-.71.7.7,0,0,0-.7.71v5h-5a.7.7,0,0,0-.71.7.71.71,0,0,0,.71.71h5v5a.7.7,0,0,0,.7.7.71.71,0,0,0,.71-.7v-5h4.94A.71.71,0,0,0,116,105,.7.7,0,0,0,115.28,104.25Z"/><path class="cls-4" d="M347.3,164.12c.21,2.42,1.82,3.3,3.89,3.3,2.42,0,3.44-1.31,3.44-2.8,0-4.19-8.25-1.4-8.25-6.72,0-1.88,1.56-3.63,4.58-3.63s4.57,1.84,4.55,4h-1.22c0-2.06-1.6-2.95-3.33-2.95-2.59,0-3.53,1.6-3.3,3,.58,3.49,8.24,1,8.24,6.22,0,2.48-1.82,3.94-4.94,3.94-2.81,0-4.9-1.46-4.9-4.39Z"/><path class="cls-4" d="M359.25,163.55c0,2.11,1.11,3.85,3.27,3.85a2.84,2.84,0,0,0,3-2.23h1.26a4.07,4.07,0,0,1-4.21,3.25c-3.12,0-4.47-2.22-4.47-5.09s1.69-5.17,4.47-5.17,4.3,1.9,4.28,5.39Zm6.35-.94c0-1.89-1.05-3.43-3.08-3.43s-3,1.59-3.27,3.43Z"/><path class="cls-4" d="M370.6,168.16h-1.13v-9.73h1.13v1.35a4.13,4.13,0,0,1,3.14-1.62,3.42,3.42,0,0,1,3,1.39,3.72,3.72,0,0,1,.48,2.24v6.37h-1.12v-6.35c0-1.75-.72-2.63-2.52-2.63a2.83,2.83,0,0,0-2.7,1.89,4.94,4.94,0,0,0-.25,1.84Z"/><path class="cls-4" d="M387.91,154.63H389v13.53h-1.12v-1.71h0a3.93,3.93,0,0,1-3.38,2c-3.14,0-4.4-2.24-4.4-5.11,0-2.72,1.37-5.15,4.34-5.15a4.07,4.07,0,0,1,3.48,1.82Zm-3.29,4.55c-2.33,0-3.42,2-3.33,4.41s1.43,3.81,3.33,3.81c2.12,0,3.29-1.8,3.29-4.15C387.91,161.05,386.67,159.18,384.62,159.18Z"/><path class="cls-4" d="M397,154.63h9.84v1.09h-4.28v12.44h-1.28V155.72H397Z"/><path class="cls-4" d="M410.14,168.16H409v-9.73h1.13v1.82h0a3,3,0,0,1,3.18-2.09v1.22c-2.54,0-3.21,1.83-3.21,4Z"/><path class="cls-4" d="M420.15,162.48a5.66,5.66,0,0,0,1.48-.32c.38-.17.42-.67.42-1,0-1.15-.68-2-2.42-2-1.56,0-2.63.5-2.84,2.19h-1.15c.17-2.29,1.88-3.21,4-3.21s3.53.77,3.53,3v5.29c0,.89.23,1.09,1.19.75v.89a3.33,3.33,0,0,1-.88.19,2.1,2.1,0,0,1-.51-.06c-.75-.11-.88-.77-.9-1.45a4.79,4.79,0,0,1-3.63,1.62c-1.71,0-3.25-.92-3.25-2.8,0-1.63,1.13-2.63,3.4-2.93Zm1.9.57a9.28,9.28,0,0,1-2.91.54c-1.71.13-2.75.75-2.75,2.07s1,1.74,2.11,1.74c1.78,0,3.55-.86,3.55-2.83Z"/><path class="cls-4" d="M427.73,168.16H426.6v-9.73h1.13v1.35a4.11,4.11,0,0,1,3.13-1.62,3.4,3.4,0,0,1,3,1.39,3.72,3.72,0,0,1,.49,2.24v6.37h-1.13v-6.35c0-1.75-.71-2.63-2.52-2.63a2.84,2.84,0,0,0-2.7,1.89,4.94,4.94,0,0,0-.24,1.84Z"/><path class="cls-4" d="M438.17,165.11a2.54,2.54,0,0,0,2.91,2.29c1.64,0,2.41-.86,2.41-1.8,0-2.82-6.24-.83-6.24-4.66,0-1.61,1.26-2.78,3.42-2.78s3.48.87,3.76,3.06h-1.15c-.2-1.5-1.22-2-2.63-2s-2.19.67-2.19,1.67c0,2.65,6.23,1,6.23,4.73,0,1.86-1.67,2.84-4,2.84a3.42,3.42,0,0,1-3.7-3.31Z"/><path class="cls-4" d="M451.85,162.48a5.83,5.83,0,0,0,1.49-.32c.37-.17.41-.67.41-1,0-1.15-.68-2-2.42-2-1.56,0-2.63.5-2.84,2.19h-1.15c.17-2.29,1.88-3.21,4-3.21s3.54.77,3.54,3v5.29c0,.89.22,1.09,1.18.75v.89a3.33,3.33,0,0,1-.88.19,2.1,2.1,0,0,1-.51-.06c-.75-.11-.88-.77-.9-1.45a4.79,4.79,0,0,1-3.63,1.62c-1.71,0-3.25-.92-3.25-2.8,0-1.63,1.13-2.63,3.4-2.93Zm1.9.57a9.28,9.28,0,0,1-2.91.54c-1.71.13-2.75.75-2.75,2.07s1,1.74,2.11,1.74c1.78,0,3.55-.86,3.55-2.83Z"/><path class="cls-4" d="M465.19,161.49a2.84,2.84,0,0,0-2.89-2.31c-2.31,0-3.27,2.1-3.27,4.13s.94,4.09,3.27,4.09a2.85,2.85,0,0,0,3-2.61h1.2a4,4,0,0,1-4.19,3.63c-3.1,0-4.47-2.24-4.47-5.11,0-2.71,1.56-5.15,4.47-5.15,2.24,0,3.7,1.07,4,3.33Z"/><path class="cls-4" d="M472.63,168.19a5.19,5.19,0,0,1-1.29.23c-1.11,0-1.73-.49-1.73-1.94v-7.12h-1.37v-.93h1.37v-2.71h1.13v2.71h1.82v.93h-1.82V166c0,1,0,1.37,1,1.37a3.65,3.65,0,0,0,.92-.13Z"/><path class="cls-4" d="M475,156.3v-1.67h1.24v1.67Zm.06,11.86v-9.73h1.13v9.73Z"/><path class="cls-4" d="M478.91,163.29c0-2.84,1.51-5.13,4.51-5.13s4.51,2.27,4.51,5.13c0,3.08-1.79,5.13-4.51,5.13C480.94,168.38,478.91,166.69,478.91,163.29Zm4.51-4.11c-2.37,0-3.31,2-3.31,4.11,0,2.42,1.15,4.11,3.31,4.11,2.37,0,3.31-2,3.31-4.11C486.71,161,485.81,159.18,483.42,159.18Z"/><path class="cls-4" d="M491.6,168.16h-1.13v-9.73h1.13v1.35a4.11,4.11,0,0,1,3.13-1.62,3.39,3.39,0,0,1,3,1.39,3.72,3.72,0,0,1,.49,2.24v6.37h-1.13v-6.35c0-1.75-.71-2.63-2.51-2.63a2.84,2.84,0,0,0-2.71,1.89,4.94,4.94,0,0,0-.24,1.84Z"/><path class="cls-4" d="M85.52,25c.21,2.43,1.82,3.31,3.89,3.31,2.42,0,3.44-1.32,3.44-2.8,0-4.19-8.25-1.41-8.25-6.73,0-1.87,1.56-3.62,4.58-3.62s4.57,1.84,4.55,4H92.51c0-2.07-1.6-2.95-3.33-2.95-2.59,0-3.53,1.6-3.3,3,.58,3.49,8.24,1,8.24,6.21,0,2.48-1.82,3.95-4.94,3.95-2.81,0-4.9-1.47-4.9-4.4Z"/><path class="cls-4" d="M97.47,24.45c0,2.1,1.11,3.85,3.27,3.85a2.85,2.85,0,0,0,3-2.24H105a4.08,4.08,0,0,1-4.21,3.25c-3.12,0-4.47-2.21-4.47-5.09s1.69-5.16,4.47-5.16S105,21,105,24.45Zm6.35-.94c0-1.9-1-3.44-3.08-3.44s-3,1.6-3.27,3.44Z"/><path class="cls-4" d="M114.59,22.38a2.86,2.86,0,0,0-2.89-2.31c-2.31,0-3.27,2.11-3.27,4.13s.94,4.1,3.27,4.1a2.85,2.85,0,0,0,3-2.61h1.2a4,4,0,0,1-4.18,3.62c-3.1,0-4.47-2.23-4.47-5.11,0-2.7,1.55-5.14,4.47-5.14,2.23,0,3.7,1.07,4,3.32Z"/><path class="cls-4" d="M125.21,19.32h1.12v9.73h-1.12V27.7a3.92,3.92,0,0,1-3.14,1.61c-2.59,0-3.46-1.56-3.46-3.58V19.32h1.13v6.39c0,1.67.73,2.59,2.5,2.59s3-1.54,3-3.68Z"/><path class="cls-4" d="M130.71,29.05h-1.12V19.32h1.12v1.82h0a2.93,2.93,0,0,1,3.17-2.08v1.22c-2.53-.06-3.21,1.82-3.21,4Z"/><path class="cls-4" d="M137,24.45c0,2.1,1.11,3.85,3.27,3.85a2.85,2.85,0,0,0,2.95-2.24h1.26a4.08,4.08,0,0,1-4.21,3.25c-3.12,0-4.47-2.21-4.47-5.09s1.69-5.16,4.47-5.16,4.3,1.89,4.28,5.39Zm6.35-.94c0-1.9-1.05-3.44-3.08-3.44s-3,1.6-3.27,3.44Z"/><path class="cls-4" d="M163.65,27.25h0l2.95-11.72H168L164.4,29.05H163L159.86,17.1h0l-3.14,12h-1.41l-3.49-13.52h1.28L156,27.25h0l3.13-11.72h1.43Z"/><path class="cls-4" d="M174.51,23.38a5.74,5.74,0,0,0,1.49-.32c.37-.17.41-.68.41-1,0-1.14-.68-2-2.42-2-1.56,0-2.63.51-2.84,2.2H170c.16-2.29,1.87-3.21,4-3.21,2,0,3.53.77,3.53,3v5.3c0,.88.22,1.09,1.18.75V29a3,3,0,0,1-.88.19,2.1,2.1,0,0,1-.51-.06c-.75-.11-.88-.77-.9-1.44a4.78,4.78,0,0,1-3.63,1.61c-1.71,0-3.25-.92-3.25-2.8,0-1.63,1.13-2.62,3.4-2.93Zm1.9.56a9.25,9.25,0,0,1-2.91.55c-1.71.13-2.74.75-2.74,2.06s1,1.75,2.1,1.75c1.78,0,3.55-.86,3.55-2.84Z"/><path class="cls-4" d="M181.13,29.05V15.53h1.13V29.05Z"/><path class="cls-4" d="M185.77,29.05V15.53h1.13V29.05Z"/><path class="cls-4" d="M190.94,24.45c0,2.1,1.11,3.85,3.27,3.85a2.84,2.84,0,0,0,2.94-2.24h1.26a4.06,4.06,0,0,1-4.2,3.25c-3.12,0-4.47-2.21-4.47-5.09s1.69-5.16,4.47-5.16,4.3,1.89,4.28,5.39Zm6.35-.94c0-1.9-1.06-3.44-3.08-3.44s-3.05,1.6-3.27,3.44Z"/><path class="cls-4" d="M204.58,29.09a5.8,5.8,0,0,1-1.3.22c-1.11,0-1.73-.49-1.73-1.93V20.26h-1.37v-.94h1.37v-2.7h1.13v2.7h1.82v.94h-1.82v6.67c0,1,0,1.37,1,1.37a4.16,4.16,0,0,0,.92-.13Z"/><path class="cls-4" d="M598.33,168.16V154.63h1.95l4.43,11.93h0l4.36-11.93H611v13.53h-1.28V156.1h0l-4.44,12.06h-1.2l-4.45-12.06h0v12.06Z"/><path class="cls-4" d="M614.45,156.3v-1.67h1.24v1.67Zm0,11.86v-9.73h1.13v9.73Z"/><path class="cls-4" d="M620.1,168.16H619v-9.73h1.12v1.35a4.14,4.14,0,0,1,3.14-1.62,3.42,3.42,0,0,1,3,1.39,3.72,3.72,0,0,1,.49,2.24v6.37h-1.13v-6.35c0-1.75-.71-2.63-2.52-2.63a2.83,2.83,0,0,0-2.7,1.89,4.94,4.94,0,0,0-.25,1.84Z"/><path class="cls-4" d="M630.59,163.55c0,2.11,1.11,3.85,3.27,3.85a2.85,2.85,0,0,0,2.95-2.23h1.25a4.06,4.06,0,0,1-4.2,3.25c-3.12,0-4.47-2.22-4.47-5.09s1.69-5.17,4.47-5.17,4.3,1.9,4.28,5.39Zm6.35-.94c0-1.89-1.05-3.43-3.08-3.43s-3.05,1.59-3.27,3.43Z"/><path class="cls-4" d="M642,168.16h-1.13v-9.73H642v1.82h0a2.94,2.94,0,0,1,3.18-2.09v1.22c-2.54,0-3.21,1.83-3.21,4Z"/><path class="cls-4" d="M378.8,326.11l-.71.86-2-1.54a6.13,6.13,0,0,1-3.38.92c-4.17,0-6.29-3.21-6.29-7.09s2-7.14,6.24-7.14c3.79,0,6.37,2.53,6.37,7.14a7.51,7.51,0,0,1-2,5.46ZM376.06,324a6.53,6.53,0,0,0,1.69-4.73c0-4-2.16-6.05-5.05-6.05-3.48,0-5,2.93-5,6.05s1.5,6,5,6a4.58,4.58,0,0,0,2.37-.61l-1.54-1.18.68-.88Z"/><path class="cls-4" d="M388.55,316.27h1.13V326h-1.13v-1.35a3.88,3.88,0,0,1-3.13,1.61c-2.59,0-3.46-1.56-3.46-3.59v-6.4h1.13v6.38c0,1.68.73,2.6,2.5,2.6s3-1.54,3-3.68Z"/><path class="cls-4" d="M393.57,321.4c0,2.1,1.11,3.85,3.27,3.85a2.85,2.85,0,0,0,3-2.24h1.26a4.07,4.07,0,0,1-4.21,3.25c-3.12,0-4.47-2.21-4.47-5.09s1.69-5.16,4.47-5.16,4.3,1.89,4.29,5.39Zm6.35-.94c0-1.9-1.05-3.44-3.08-3.44s-3,1.6-3.27,3.44Z"/><path class="cls-4" d="M405,326h-1.13v-9.73H405v1.82h0a2.93,2.93,0,0,1,3.17-2.08v1.22c-2.53-.06-3.21,1.82-3.21,4Z"/><path class="cls-4" d="M410.45,328.65a5.75,5.75,0,0,0,.94.11c1.28,0,1.46-1.84,1.89-2.69l-3.77-9.8h1.26l3.12,8.36,3.11-8.36h1.22l-3.62,9.6c-.92,2.44-1.52,4-3.08,4a4.75,4.75,0,0,1-1.07-.13Z"/><path class="cls-4" d="M426.78,322c.2,2.42,1.82,3.31,3.89,3.31,2.42,0,3.43-1.32,3.43-2.8,0-4.19-8.24-1.41-8.24-6.73,0-1.88,1.56-3.62,4.58-3.62s4.56,1.84,4.55,4h-1.23c0-2.07-1.59-3-3.32-3-2.59,0-3.53,1.59-3.31,3,.59,3.5,8.25,1,8.25,6.22,0,2.48-1.82,3.94-4.94,3.94-2.82,0-4.9-1.46-4.9-4.39Z"/><path class="cls-4" d="M441.45,326a5.8,5.8,0,0,1-1.3.22c-1.1,0-1.72-.49-1.72-1.93v-7.12h-1.37v-.94h1.37v-2.71h1.12v2.71h1.83v.94h-1.83v6.67c0,.95,0,1.37,1,1.37a4.16,4.16,0,0,0,.92-.13Z"/><path class="cls-4" d="M448.2,320.33a5.75,5.75,0,0,0,1.48-.32c.38-.17.41-.68.41-1,0-1.14-.67-2-2.42-2-1.56,0-2.63.51-2.83,2.2h-1.15c.17-2.29,1.88-3.21,4-3.21s3.53.77,3.53,3v5.3c0,.88.23,1.09,1.18.75V326a2.9,2.9,0,0,1-.88.19,2.1,2.1,0,0,1-.51-.06c-.75-.11-.88-.77-.9-1.44a4.76,4.76,0,0,1-3.62,1.61c-1.71,0-3.25-.92-3.25-2.8,0-1.63,1.13-2.63,3.4-2.93Zm1.89.56a9.18,9.18,0,0,1-2.91.54c-1.71.14-2.74.75-2.74,2.07a1.86,1.86,0,0,0,2.1,1.75c1.79,0,3.55-.87,3.55-2.84Z"/><path class="cls-4" d="M458.06,326a5.8,5.8,0,0,1-1.29.22c-1.11,0-1.73-.49-1.73-1.93v-7.12h-1.37v-.94H455v-2.71h1.13v2.71H458v.94h-1.82v6.67c0,.95,0,1.37,1,1.37a4.16,4.16,0,0,0,.92-.13Z"/><path class="cls-4" d="M466.93,316.27h1.13V326h-1.13v-1.35a3.9,3.9,0,0,1-3.14,1.61c-2.59,0-3.45-1.56-3.45-3.59v-6.4h1.12v6.38c0,1.68.74,2.6,2.5,2.6s3-1.54,3-3.68Z"/><path class="cls-4" d="M471.91,323a2.54,2.54,0,0,0,2.91,2.29c1.64,0,2.41-.87,2.41-1.81,0-2.81-6.24-.82-6.24-4.65,0-1.62,1.26-2.78,3.42-2.78s3.48.86,3.76,3.06H477c-.21-1.51-1.22-2.05-2.63-2.05s-2.2.68-2.2,1.67c0,2.65,6.24,1,6.24,4.74,0,1.85-1.67,2.83-4,2.83a3.41,3.41,0,0,1-3.7-3.3Z"/><path class="cls-4" d="M588.52,322c.2,2.42,1.82,3.31,3.88,3.31,2.43,0,3.44-1.32,3.44-2.8,0-4.19-8.24-1.41-8.24-6.73,0-1.88,1.56-3.62,4.58-3.62s4.56,1.84,4.54,4H595.5c0-2.07-1.59-3-3.32-3-2.59,0-3.53,1.59-3.31,3,.59,3.5,8.25,1,8.25,6.22,0,2.48-1.82,3.94-4.94,3.94-2.82,0-4.9-1.46-4.9-4.39Z"/><path class="cls-4" d="M599.77,326V312.47h1.13v5.15A4.1,4.1,0,0,1,604,316a3.36,3.36,0,0,1,3,1.39,3.68,3.68,0,0,1,.49,2.23V326h-1.12v-6.35c0-1.75-.72-2.63-2.52-2.63a2.85,2.85,0,0,0-2.71,1.9,5.12,5.12,0,0,0-.24,1.84V326Z"/><path class="cls-4" d="M615.16,320.33a5.66,5.66,0,0,0,1.48-.32c.38-.17.42-.68.42-1,0-1.14-.68-2-2.43-2-1.55,0-2.63.51-2.83,2.2h-1.15c.17-2.29,1.88-3.21,4-3.21s3.53.77,3.53,3v5.3c0,.88.23,1.09,1.19.75V326a3,3,0,0,1-.89.19,2.07,2.07,0,0,1-.5-.06c-.75-.11-.89-.77-.9-1.44a4.78,4.78,0,0,1-3.63,1.61c-1.71,0-3.25-.92-3.25-2.8,0-1.63,1.13-2.63,3.4-2.93Zm1.9.56a9.28,9.28,0,0,1-2.91.54c-1.71.14-2.75.75-2.75,2.07s1,1.75,2.11,1.75c1.78,0,3.55-.87,3.55-2.84Z"/><path class="cls-4" d="M622.79,326h-1.13v-9.73h1.13v1.82h0A2.93,2.93,0,0,1,626,316v1.22c-2.53-.06-3.21,1.82-3.21,4Z"/><path class="cls-4" d="M635.85,312.47H637V326h-1.12v-1.71h0a3.91,3.91,0,0,1-3.38,2c-3.14,0-4.4-2.23-4.4-5.11,0-2.72,1.37-5.14,4.34-5.14a4,4,0,0,1,3.48,1.82ZM632.56,317c-2.33,0-3.42,2-3.32,4.41s1.42,3.82,3.32,3.82c2.12,0,3.29-1.81,3.29-4.15S634.61,317,632.56,317Z"/><path class="cls-4" d="M641,321.4c0,2.1,1.11,3.85,3.27,3.85a2.86,2.86,0,0,0,3-2.24h1.26a4.08,4.08,0,0,1-4.21,3.25c-3.12,0-4.47-2.21-4.47-5.09s1.69-5.16,4.47-5.16,4.3,1.89,4.28,5.39Zm6.35-.94c0-1.9-1.05-3.44-3.08-3.44s-3,1.6-3.27,3.44Z"/><path class="cls-4" d="M652.39,326h-1.13v-9.73h1.13v1.82h0A2.93,2.93,0,0,1,655.6,316v1.22c-2.54-.06-3.21,1.82-3.21,4Z"/><path class="cls-1" d="M263.75,44.83H148.81l-4.15-4.15-4.15,4.15H25.11a.71.71,0,0,0-.71.71V71.91a.71.71,0,0,0,.71.71.7.7,0,0,0,.7-.71V46.24H263.05V71.91a.7.7,0,0,0,.7.71.71.71,0,0,0,.71-.71V45.54A.71.71,0,0,0,263.75,44.83Z"/></svg>