<?xml version="1.0" encoding="utf-8"?>
<!-- Generator: Adobe Illustrator 23.0.2, SVG Export Plug-In . SVG Version: 6.00 Build 0)  -->
<svg version="1.1" id="_x2014_ÎÓÈ_x5F_1" xmlns="http://www.w3.org/2000/svg" xmlns:xlink="http://www.w3.org/1999/xlink"
	 x="0px" y="0px" viewBox="0 0 600 450" style="enable-background:new 0 0 600 450;" xml:space="preserve">
<style type="text/css">
	.st0{opacity:0.2;}
	.st1{fill:#312A91;}
	.st2{opacity:0.5;fill:url(#SVGID_1_);enable-background:new    ;}
	.st3{fill:url(#SVGID_2_);}
	.st4{opacity:0.5;fill:url(#SVGID_3_);enable-background:new    ;}
	.st5{fill:#5CFFF3;}
	.st6{fill:#42E8E0;}
	.st7{opacity:0.5;fill:url(#SVGID_4_);enable-background:new    ;}
	.st8{opacity:0.8;fill:url(#SVGID_5_);enable-background:new    ;}
	.st9{fill:#FCCC6B;}
	.st10{opacity:0.5;fill:url(#SVGID_6_);enable-background:new    ;}
	.st11{fill:url(#SVGID_7_);}
	.st12{opacity:0.5;fill:url(#SVGID_8_);enable-background:new    ;}
	.st13{opacity:0.5;fill:url(#SVGID_9_);enable-background:new    ;}
	.st14{opacity:0.8;fill:url(#SVGID_10_);enable-background:new    ;}
	.st15{opacity:0.1;fill:#0B0244;enable-background:new    ;}
	.st16{opacity:0.8;fill:#5CFFF3;enable-background:new    ;}
	.st17{opacity:0.5;fill:#5CFFF3;enable-background:new    ;}
	.st18{opacity:0.5;fill:url(#SVGID_11_);enable-background:new    ;}
	.st19{fill:url(#SVGID_12_);}
	.st20{opacity:0.5;fill:url(#SVGID_13_);enable-background:new    ;}
	.st21{opacity:0.5;fill:url(#SVGID_14_);enable-background:new    ;}
	.st22{opacity:0.8;fill:url(#SVGID_15_);enable-background:new    ;}
	.st23{opacity:0.7;fill:#42E8E0;enable-background:new    ;}
</style>
<g>
	<g>
		<g class="st0">
			<g>
				<g>
					<path class="st1" d="M411.3,355.61v-19.3h-49.77l-58.84-33.97c-7.86-4.53-21.57-3.96-30.64,1.27l-56.65,32.7h-49.8v20.39h0.03
						c-0.22,3.06,1.49,6.04,5.27,8.21l103.36,59.67c7.86,4.53,21.57,3.96,30.64-1.27l98.94-57.13
						C409.08,363.15,411.6,359.26,411.3,355.61z"/>
					
						<linearGradient id="SVGID_1_" gradientUnits="userSpaceOnUse" x1="111.2779" y1="-251.46" x2="357.0019" y2="-251.46" gradientTransform="matrix(1 0 0 -1 0 112)">
						<stop  offset="0" style="stop-color:#42E8E0"/>
						<stop  offset="0.1022" style="stop-color:#3CCACE"/>
						<stop  offset="0.3445" style="stop-color:#2F87A5"/>
						<stop  offset="0.564" style="stop-color:#255385"/>
						<stop  offset="0.7534" style="stop-color:#1E2D6E"/>
						<stop  offset="0.905" style="stop-color:#1A1660"/>
						<stop  offset="1" style="stop-color:#180D5B"/>
					</linearGradient>
					<path class="st2" d="M411.3,355.61v-19.3h-49.77l-58.84-33.97c-7.86-4.53-21.57-3.96-30.64,1.27l-56.65,32.7h-49.8v20.39h0.03
						c-0.22,3.06,1.49,6.04,5.27,8.21l103.36,59.67c7.86,4.53,21.57,3.96,30.64-1.27l98.94-57.13
						C409.08,363.15,411.6,359.26,411.3,355.61z"/>
					
						<linearGradient id="SVGID_2_" gradientUnits="userSpaceOnUse" x1="288.46" y1="-251.4501" x2="411.3039" y2="-251.4501" gradientTransform="matrix(1 0 0 -1 0 112)">
						<stop  offset="0" style="stop-color:#2B237C"/>
						<stop  offset="1" style="stop-color:#180D5B"/>
					</linearGradient>
					<path class="st3" d="M302.69,302.34c-3.78-2.17-8.91-3.16-14.23-3.04v128.31c5.75-0.13,11.72-1.59,16.42-4.31l98.94-57.13
						c5.23-3.03,7.76-6.92,7.46-10.57v-19.3h-49.77L302.69,302.34z"/>
					<path class="st1" d="M274.26,404.2L170.9,344.52c-7.86-4.53-6.87-12.46,2.21-17.69l98.94-57.13c9.06-5.23,22.78-5.8,30.64-1.27
						l103.36,59.67c7.86,4.53,6.87,12.46-2.21,17.69l-98.94,57.13C295.82,408.16,282.1,408.73,274.26,404.2z"/>
					
						<linearGradient id="SVGID_3_" gradientUnits="userSpaceOnUse" x1="165.5959" y1="-224.3145" x2="411.3541" y2="-224.3145" gradientTransform="matrix(1 0 0 -1 0 112)">
						<stop  offset="0" style="stop-color:#42E8E0"/>
						<stop  offset="0.1022" style="stop-color:#3CCACE"/>
						<stop  offset="0.3445" style="stop-color:#2F87A5"/>
						<stop  offset="0.564" style="stop-color:#255385"/>
						<stop  offset="0.7534" style="stop-color:#1E2D6E"/>
						<stop  offset="0.905" style="stop-color:#1A1660"/>
						<stop  offset="1" style="stop-color:#180D5B"/>
					</linearGradient>
					<path class="st4" d="M274.26,404.2L170.9,344.52c-7.86-4.53-6.87-12.46,2.21-17.69l98.94-57.13c9.06-5.23,22.78-5.8,30.64-1.27
						l103.36,59.67c7.86,4.53,6.87,12.46-2.21,17.69l-98.94,57.13C295.82,408.16,282.1,408.73,274.26,404.2z"/>
					<path class="st5" d="M277.02,391l-83.27-48.08c-6.32-3.65-5.54-10.03,1.77-14.25l79.73-46.03c7.31-4.21,18.36-4.68,24.69-1.02
						l83.27,48.08c6.32,3.65,5.54,10.03-1.77,14.25l-79.73,46.03C294.39,394.2,283.34,394.66,277.02,391z"/>
					<path class="st6" d="M195.52,334.91l79.73-46.03c7.31-4.21,18.36-4.68,24.69-1.02l83.27,48.08c1.56,0.9,2.69,1.97,3.4,3.13
						c1.84-3.38,0.77-6.96-3.4-9.37l-83.27-48.08c-6.32-3.65-17.38-3.19-24.69,1.02l-79.73,46.03c-5.5,3.18-7.31,7.58-5.17,11.12
						C191.3,338.05,193.03,336.36,195.52,334.91z"/>
					
						<linearGradient id="SVGID_4_" gradientUnits="userSpaceOnUse" x1="165.6008" y1="-224.3227" x2="291.01" y2="-224.3227" gradientTransform="matrix(1 0 0 -1 0 112)">
						<stop  offset="0" style="stop-color:#42E8E0"/>
						<stop  offset="0.1022" style="stop-color:#3CCACE"/>
						<stop  offset="0.3445" style="stop-color:#2F87A5"/>
						<stop  offset="0.564" style="stop-color:#255385"/>
						<stop  offset="0.7534" style="stop-color:#1E2D6E"/>
						<stop  offset="0.905" style="stop-color:#1A1660"/>
						<stop  offset="1" style="stop-color:#180D5B"/>
					</linearGradient>
					<path class="st7" d="M277.72,404.2l-103.36-59.67c-7.86-4.53-9.73-11.19,2.21-17.69l98.94-57.13
						c4.47-2.58,10.05-4.01,15.5-4.28c-6.49-0.3-13.56,1.15-18.97,4.28l-98.94,57.13c-9.06,5.23-10.05,13.16-2.21,17.69
						l103.36,59.67c4,2.31,9.5,3.28,15.14,3.01C285.01,407.01,280.88,406.02,277.72,404.2z"/>
					
						<linearGradient id="SVGID_5_" gradientUnits="userSpaceOnUse" x1="199.019" y1="-295.8231" x2="404.7077" y2="-161.3799" gradientTransform="matrix(1 0 0 -1 0 112)">
						<stop  offset="0" style="stop-color:#42E8E0"/>
						<stop  offset="0.1022" style="stop-color:#3CCACE"/>
						<stop  offset="0.3445" style="stop-color:#2F87A5"/>
						<stop  offset="0.564" style="stop-color:#255385"/>
						<stop  offset="0.7534" style="stop-color:#1E2D6E"/>
						<stop  offset="0.905" style="stop-color:#1A1660"/>
						<stop  offset="1" style="stop-color:#180D5B"/>
					</linearGradient>
					<path class="st8" d="M403.84,354.41l-98.94,57.13c-9.06,5.23-22.78,5.8-30.64,1.27L170.9,353.14
						c-3.78-2.17-5.49-5.13-5.27-8.21h-0.03v4.23h0.03c-0.22,3.06,1.49,6.04,5.27,8.21l103.36,59.67
						c7.86,4.53,21.57,3.96,30.64-1.27l98.94-57.13c5.23-3.03,7.76-6.92,7.46-10.57v-4.23C411.6,347.48,409.08,351.4,403.84,354.41z
						"/>
				</g>
				<g>
					<path class="st9" d="M385.9,348.79c1.12,0.65,1.12,1.71,0,2.36s-2.96,0.65-4.08,0s-1.12-1.71,0-2.36
						C382.93,348.14,384.77,348.14,385.9,348.79z"/>
					<path class="st9" d="M392.25,345.11c1.12,0.65,1.12,1.71,0,2.36s-2.96,0.65-4.08,0s-1.12-1.71,0-2.36
						C389.31,344.46,391.13,344.46,392.25,345.11z"/>
					<path class="st9" d="M398.62,341.45c1.12,0.65,1.12,1.71,0,2.36s-2.96,0.65-4.08,0s-1.12-1.71,0-2.36
						C395.66,340.79,397.49,340.79,398.62,341.45z"/>
				</g>
			</g>
		</g>
		<g>
			<g>
				<g>
					<path class="st1" d="M411.3,283.58v-19.3h-49.77l-58.84-33.97c-7.86-4.53-21.57-3.96-30.64,1.27l-56.65,32.7h-49.8v20.39h0.03
						c-0.22,3.06,1.49,6.04,5.27,8.21l103.36,59.67c7.86,4.53,21.57,3.96,30.64-1.27l98.94-57.13
						C409.08,291.12,411.6,287.21,411.3,283.58z"/>
					
						<linearGradient id="SVGID_6_" gradientUnits="userSpaceOnUse" x1="111.2779" y1="-179.43" x2="357.0019" y2="-179.43" gradientTransform="matrix(1 0 0 -1 0 112)">
						<stop  offset="0" style="stop-color:#42E8E0"/>
						<stop  offset="0.1022" style="stop-color:#3CCACE"/>
						<stop  offset="0.3445" style="stop-color:#2F87A5"/>
						<stop  offset="0.564" style="stop-color:#255385"/>
						<stop  offset="0.7534" style="stop-color:#1E2D6E"/>
						<stop  offset="0.905" style="stop-color:#1A1660"/>
						<stop  offset="1" style="stop-color:#180D5B"/>
					</linearGradient>
					<path class="st10" d="M411.3,283.58v-19.3h-49.77l-58.84-33.97c-7.86-4.53-21.57-3.96-30.64,1.27l-56.65,32.7h-49.8v20.39h0.03
						c-0.22,3.06,1.49,6.04,5.27,8.21l103.36,59.67c7.86,4.53,21.57,3.96,30.64-1.27l98.94-57.13
						C409.08,291.12,411.6,287.21,411.3,283.58z"/>
					
						<linearGradient id="SVGID_7_" gradientUnits="userSpaceOnUse" x1="288.46" y1="-179.4202" x2="411.3039" y2="-179.4202" gradientTransform="matrix(1 0 0 -1 0 112)">
						<stop  offset="0" style="stop-color:#2B237C"/>
						<stop  offset="1" style="stop-color:#180D5B"/>
					</linearGradient>
					<path class="st11" d="M302.69,230.31c-3.78-2.17-8.91-3.16-14.23-3.04v128.31c5.75-0.13,11.72-1.59,16.42-4.31l98.94-57.13
						c5.23-3.03,7.76-6.92,7.46-10.57v-19.3h-49.77L302.69,230.31z"/>
					<path class="st1" d="M274.26,332.16L170.9,272.49c-7.86-4.53-6.87-12.46,2.21-17.69l98.94-57.13
						c9.06-5.23,22.78-5.8,30.64-1.27l103.36,59.67c7.86,4.53,6.87,12.46-2.21,17.69l-98.94,57.13
						C295.82,336.13,282.1,336.7,274.26,332.16z"/>
					
						<linearGradient id="SVGID_8_" gradientUnits="userSpaceOnUse" x1="165.5959" y1="-152.2837" x2="411.3541" y2="-152.2837" gradientTransform="matrix(1 0 0 -1 0 112)">
						<stop  offset="0" style="stop-color:#42E8E0"/>
						<stop  offset="0.1022" style="stop-color:#3CCACE"/>
						<stop  offset="0.3445" style="stop-color:#2F87A5"/>
						<stop  offset="0.564" style="stop-color:#255385"/>
						<stop  offset="0.7534" style="stop-color:#1E2D6E"/>
						<stop  offset="0.905" style="stop-color:#1A1660"/>
						<stop  offset="1" style="stop-color:#180D5B"/>
					</linearGradient>
					<path class="st12" d="M274.26,332.16L170.9,272.49c-7.86-4.53-6.87-12.46,2.21-17.69l98.94-57.13
						c9.06-5.23,22.78-5.8,30.64-1.27l103.36,59.67c7.86,4.53,6.87,12.46-2.21,17.69l-98.94,57.13
						C295.82,336.13,282.1,336.7,274.26,332.16z"/>
					<path class="st5" d="M277.02,318.97l-83.27-48.08c-6.32-3.65-5.54-10.03,1.77-14.25l79.73-46.03
						c7.31-4.21,18.36-4.68,24.69-1.02l83.27,48.08c6.32,3.65,5.54,10.03-1.77,14.25l-79.73,46.03
						C294.39,322.16,283.34,322.63,277.02,318.97z"/>
					<path class="st6" d="M195.52,262.87l79.73-46.03c7.31-4.21,18.36-4.68,24.69-1.02l83.27,48.08c1.56,0.9,2.69,1.97,3.4,3.13
						c1.84-3.38,0.77-6.96-3.4-9.37l-83.27-48.08c-6.32-3.65-17.38-3.19-24.69,1.02l-79.73,46.03c-5.5,3.18-7.31,7.58-5.17,11.12
						C191.3,266.02,193.03,264.31,195.52,262.87z"/>
					
						<linearGradient id="SVGID_9_" gradientUnits="userSpaceOnUse" x1="165.6008" y1="-152.2827" x2="291.01" y2="-152.2827" gradientTransform="matrix(1 0 0 -1 0 112)">
						<stop  offset="0" style="stop-color:#42E8E0"/>
						<stop  offset="0.1022" style="stop-color:#3CCACE"/>
						<stop  offset="0.3445" style="stop-color:#2F87A5"/>
						<stop  offset="0.564" style="stop-color:#255385"/>
						<stop  offset="0.7534" style="stop-color:#1E2D6E"/>
						<stop  offset="0.905" style="stop-color:#1A1660"/>
						<stop  offset="1" style="stop-color:#180D5B"/>
					</linearGradient>
					<path class="st13" d="M277.72,332.16l-103.36-59.67c-7.86-4.53-9.73-11.19,2.21-17.69l98.94-57.13
						c4.47-2.58,10.05-4.01,15.5-4.28c-6.49-0.3-13.56,1.15-18.97,4.28L173.1,254.8c-9.06,5.23-10.05,13.16-2.21,17.69l103.36,59.67
						c4,2.31,9.5,3.28,15.14,3.01C285.01,334.97,280.88,333.99,277.72,332.16z"/>
					
						<linearGradient id="SVGID_10_" gradientUnits="userSpaceOnUse" x1="199.018" y1="-223.7837" x2="404.7068" y2="-89.3406" gradientTransform="matrix(1 0 0 -1 0 112)">
						<stop  offset="0" style="stop-color:#42E8E0"/>
						<stop  offset="0.1022" style="stop-color:#3CCACE"/>
						<stop  offset="0.3445" style="stop-color:#2F87A5"/>
						<stop  offset="0.564" style="stop-color:#255385"/>
						<stop  offset="0.7534" style="stop-color:#1E2D6E"/>
						<stop  offset="0.905" style="stop-color:#1A1660"/>
						<stop  offset="1" style="stop-color:#180D5B"/>
					</linearGradient>
					<path class="st14" d="M403.84,282.37L304.9,339.5c-9.06,5.23-22.78,5.8-30.64,1.27L170.9,281.1c-3.78-2.17-5.49-5.13-5.27-8.21
						h-0.03v4.23h0.03c-0.22,3.06,1.49,6.04,5.27,8.21L274.26,345c7.86,4.53,21.57,3.96,30.64-1.27l98.94-57.13
						c5.23-3.03,7.76-6.92,7.46-10.57v-4.23C411.6,275.45,409.08,279.36,403.84,282.37z"/>
				</g>
				<g>
					<path class="st9" d="M385.9,276.75c1.12,0.65,1.12,1.71,0,2.36s-2.96,0.65-4.08,0s-1.12-1.71,0-2.36
						C382.93,276.1,384.77,276.1,385.9,276.75z"/>
					<path class="st9" d="M392.25,273.07c1.12,0.65,1.12,1.71,0,2.36s-2.96,0.65-4.08,0s-1.12-1.71,0-2.36
						C389.31,272.42,391.13,272.42,392.25,273.07z"/>
					<path class="st9" d="M398.62,269.41c1.12,0.65,1.12,1.71,0,2.36s-2.96,0.65-4.08,0s-1.12-1.71,0-2.36
						S397.49,268.76,398.62,269.41z"/>
				</g>
			</g>
			<g>
				<g>
					<path class="st15" d="M283.12,289.85l-38.92-22.48c-2.96-1.71-2.59-4.68,0.84-6.66l37.26-21.51c3.41-1.97,8.58-2.19,11.54-0.49
						l38.92,22.48c2.96,1.71,2.59,4.68-0.84,6.66l-37.26,21.51C291.23,291.34,286.07,291.56,283.12,289.85z"/>
					<path class="st16" d="M305.37,140.11h-33.82v124.16h0.02c-0.03,0.42,0.2,0.84,0.72,1.14l14.22,8.21
						c1.09,0.62,2.96,0.55,4.21-0.17l13.61-7.86c0.65-0.37,0.99-0.85,1.02-1.3h0.02L305.37,140.11L305.37,140.11z"/>
					<path class="st17" d="M334.73,120.63H242.2V264.3h0.03c-0.08,1.15,0.55,2.27,1.97,3.09l38.92,22.48
						c2.96,1.71,8.13,1.49,11.54-0.49l37.26-21.51c1.77-1.02,2.71-2.32,2.79-3.58h0.03V120.63H334.73z"/>
					<path class="st1" d="M411.3,92.25v-19.3h-49.77l-58.84-33.97c-7.86-4.53-21.57-3.96-30.64,1.27l-56.65,32.7h-49.8v20.39h0.03
						c-0.22,3.06,1.49,6.04,5.27,8.21l103.36,59.67c7.86,4.53,21.57,3.96,30.64-1.27l98.94-57.13
						C409.08,99.79,411.6,95.88,411.3,92.25z"/>
					
						<linearGradient id="SVGID_11_" gradientUnits="userSpaceOnUse" x1="111.2779" y1="11.9" x2="357.0019" y2="11.9" gradientTransform="matrix(1 0 0 -1 0 112)">
						<stop  offset="0" style="stop-color:#42E8E0"/>
						<stop  offset="0.1022" style="stop-color:#3CCACE"/>
						<stop  offset="0.3445" style="stop-color:#2F87A5"/>
						<stop  offset="0.564" style="stop-color:#255385"/>
						<stop  offset="0.7534" style="stop-color:#1E2D6E"/>
						<stop  offset="0.905" style="stop-color:#1A1660"/>
						<stop  offset="1" style="stop-color:#180D5B"/>
					</linearGradient>
					<path class="st18" d="M411.3,92.25v-19.3h-49.77l-58.84-33.97c-7.86-4.53-21.57-3.96-30.64,1.27l-56.65,32.7h-49.8v20.39h0.03
						c-0.22,3.06,1.49,6.04,5.27,8.21l103.36,59.67c7.86,4.53,21.57,3.96,30.64-1.27l98.94-57.13
						C409.08,99.79,411.6,95.88,411.3,92.25z"/>
					
						<linearGradient id="SVGID_12_" gradientUnits="userSpaceOnUse" x1="288.46" y1="11.9099" x2="411.3039" y2="11.9099" gradientTransform="matrix(1 0 0 -1 0 112)">
						<stop  offset="0" style="stop-color:#2B237C"/>
						<stop  offset="1" style="stop-color:#180D5B"/>
					</linearGradient>
					<path class="st19" d="M302.69,38.98c-3.78-2.17-8.91-3.16-14.23-3.04v128.31c5.75-0.13,11.72-1.59,16.42-4.31l98.94-57.13
						c5.23-3.03,7.76-6.92,7.46-10.57v-19.3h-49.77L302.69,38.98z"/>
					<path class="st1" d="M274.26,140.83L170.9,81.16c-7.86-4.53-6.87-12.46,2.21-17.69l98.94-57.13c9.06-5.23,22.78-5.8,30.64-1.27
						l103.36,59.67c7.86,4.53,6.87,12.46-2.21,17.69l-98.94,57.13C295.82,144.8,282.1,145.36,274.26,140.83z"/>
					
						<linearGradient id="SVGID_13_" gradientUnits="userSpaceOnUse" x1="165.5959" y1="39.0483" x2="411.3541" y2="39.0483" gradientTransform="matrix(1 0 0 -1 0 112)">
						<stop  offset="0" style="stop-color:#42E8E0"/>
						<stop  offset="0.1022" style="stop-color:#3CCACE"/>
						<stop  offset="0.3445" style="stop-color:#2F87A5"/>
						<stop  offset="0.564" style="stop-color:#255385"/>
						<stop  offset="0.7534" style="stop-color:#1E2D6E"/>
						<stop  offset="0.905" style="stop-color:#1A1660"/>
						<stop  offset="1" style="stop-color:#180D5B"/>
					</linearGradient>
					<path class="st20" d="M274.26,140.83L170.9,81.16c-7.86-4.53-6.87-12.46,2.21-17.69l98.94-57.13
						c9.06-5.23,22.78-5.8,30.64-1.27l103.36,59.67c7.86,4.53,6.87,12.46-2.21,17.69l-98.94,57.13
						C295.82,144.8,282.1,145.36,274.26,140.83z"/>
					<path class="st5" d="M277.02,127.64l-83.27-48.08c-6.32-3.65-5.54-10.03,1.77-14.25l79.73-46.03
						c7.31-4.21,18.36-4.68,24.69-1.02l83.27,48.08c6.32,3.65,5.54,10.03-1.77,14.25l-79.73,46.03
						C294.39,130.83,283.34,131.3,277.02,127.64z"/>
					<path class="st6" d="M195.52,71.54l79.73-46.03c7.31-4.21,18.36-4.68,24.69-1.02l83.27,48.08c1.56,0.9,2.69,1.97,3.4,3.13
						c1.84-3.38,0.77-6.96-3.4-9.37l-83.27-48.08c-6.32-3.65-17.38-3.19-24.69,1.02L195.52,65.3c-5.5,3.18-7.31,7.58-5.17,11.12
						C191.3,74.68,193.03,72.98,195.52,71.54z"/>
					
						<linearGradient id="SVGID_14_" gradientUnits="userSpaceOnUse" x1="165.6008" y1="39.0473" x2="291.01" y2="39.0473" gradientTransform="matrix(1 0 0 -1 0 112)">
						<stop  offset="0" style="stop-color:#42E8E0"/>
						<stop  offset="0.1022" style="stop-color:#3CCACE"/>
						<stop  offset="0.3445" style="stop-color:#2F87A5"/>
						<stop  offset="0.564" style="stop-color:#255385"/>
						<stop  offset="0.7534" style="stop-color:#1E2D6E"/>
						<stop  offset="0.905" style="stop-color:#1A1660"/>
						<stop  offset="1" style="stop-color:#180D5B"/>
					</linearGradient>
					<path class="st21" d="M277.72,140.83L174.36,81.16c-7.86-4.53-9.73-11.19,2.21-17.69l98.94-57.13
						c4.47-2.58,10.05-4.01,15.5-4.28c-6.49-0.3-13.56,1.15-18.97,4.28L173.1,63.47c-9.06,5.23-10.05,13.16-2.21,17.69l103.36,59.67
						c4,2.31,9.5,3.28,15.14,3.01C285.01,143.64,280.88,142.65,277.72,140.83z"/>
					
						<linearGradient id="SVGID_15_" gradientUnits="userSpaceOnUse" x1="199.0175" y1="-32.454" x2="404.7062" y2="101.9891" gradientTransform="matrix(1 0 0 -1 0 112)">
						<stop  offset="0" style="stop-color:#42E8E0"/>
						<stop  offset="0.1022" style="stop-color:#3CCACE"/>
						<stop  offset="0.3445" style="stop-color:#2F87A5"/>
						<stop  offset="0.564" style="stop-color:#255385"/>
						<stop  offset="0.7534" style="stop-color:#1E2D6E"/>
						<stop  offset="0.905" style="stop-color:#1A1660"/>
						<stop  offset="1" style="stop-color:#180D5B"/>
					</linearGradient>
					<path class="st22" d="M403.84,91.04l-98.94,57.13c-9.06,5.23-22.78,5.8-30.64,1.27L170.9,89.77c-3.78-2.17-5.49-5.13-5.27-8.21
						h-0.03v4.23h0.03c-0.22,3.06,1.49,6.04,5.27,8.21l103.36,59.67c7.86,4.53,21.57,3.96,30.64-1.27l98.94-57.13
						c5.23-3.03,7.76-6.92,7.46-10.57v-4.23C411.6,84.12,409.08,88.03,403.84,91.04z"/>
				</g>
				<g>
					<path class="st9" d="M385.9,85.42c1.12,0.65,1.12,1.71,0,2.36s-2.96,0.65-4.08,0s-1.12-1.71,0-2.36
						C382.93,84.77,384.77,84.77,385.9,85.42z"/>
					<path class="st9" d="M392.25,81.74c1.12,0.65,1.12,1.71,0,2.36s-2.96,0.65-4.08,0s-1.12-1.71,0-2.36
						C389.31,81.09,391.13,81.09,392.25,81.74z"/>
					<path class="st9" d="M398.62,78.08c1.12,0.65,1.12,1.71,0,2.36s-2.96,0.65-4.08,0s-1.12-1.71,0-2.36S397.49,77.43,398.62,78.08
						z"/>
				</g>
			</g>
			<g>
				<path class="st17" d="M411.33,92.33c0.18,3.58-2.32,7.39-7.46,10.37l-98.98,57.15c-9.06,5.23-22.8,5.8-30.64,1.27l-103.38-59.69
					c-3.78-2.17-5.49-5.13-5.27-8.21h-0.03v171.53h0.08c-0.05,2.93,1.61,5.74,5.22,7.83l103.38,59.69
					c7.86,4.53,21.57,3.96,30.64-1.27l98.98-57.15c5.02-2.89,7.48-6.61,7.41-10.14h0.1V92.33H411.33z"/>
				<path class="st23" d="M403.87,102.68l-98.98,57.15c-4.72,2.73-10.69,4.15-16.44,4.3v171.14c5.75-0.13,11.72-1.57,16.44-4.3
					l98.98-57.15c5.02-2.89,7.46-6.61,7.41-10.14h0.1V92.33h-0.05C411.5,95.91,408.99,99.72,403.87,102.68z"/>
			</g>
		</g>
	</g>
</g>
</svg>
