<svg id="Layer_1" data-name="Layer 1" xmlns="http://www.w3.org/2000/svg" viewBox="0 0 400 141.33"><defs><style>.cls-1{fill:#afafaf;}.cls-2{fill:#fff;}</style></defs><title>secure</title><path class="cls-1" d="M91.11,117.11V103.59h2l4.43,11.92h0l4.36-11.92h1.93v13.52h-1.27V105.05h0l-4.43,12.06H96.87l-4.45-12.06h0v12.06Z"/><path class="cls-1" d="M106.48,112.24c0-2.83,1.5-5.12,4.51-5.12s4.5,2.27,4.5,5.12c0,3.09-1.78,5.13-4.5,5.13C108.51,117.34,106.48,115.65,106.48,112.24Zm4.51-4.11c-2.37,0-3.31,2-3.31,4.11,0,2.43,1.14,4.12,3.31,4.12,2.36,0,3.3-2,3.3-4.12C114.27,110,113.37,108.13,111,108.13Z"/><path class="cls-1" d="M119.29,117.11h-1.13V103.59h1.13v5.35a4,4,0,0,1,3.48-1.82c3,0,4.33,2.42,4.33,5.14,0,2.88-1.25,5.11-4.39,5.11a3.91,3.91,0,0,1-3.38-2h0Zm3.29-.75c1.89,0,3.3-1.37,3.32-3.81s-1-4.42-3.32-4.42c-2,0-3.29,1.88-3.29,4.08C119.29,114.56,120.45,116.36,122.58,116.36Z"/><path class="cls-1" d="M130.09,105.26v-1.67h1.24v1.67Zm.06,11.85v-9.73h1.13v9.73Z"/><path class="cls-1" d="M134.79,117.11V103.59h1.13v13.52Z"/><path class="cls-1" d="M140,112.51c0,2.1,1.11,3.85,3.27,3.85a2.84,2.84,0,0,0,2.94-2.24h1.26a4.06,4.06,0,0,1-4.2,3.25c-3.12,0-4.47-2.21-4.47-5.09s1.69-5.16,4.47-5.16,4.3,1.89,4.28,5.39Zm6.35-.94c0-1.9-1.06-3.44-3.08-3.44s-3,1.6-3.27,3.44Z"/><path class="cls-1" d="M225.19,117.11V103.59h1.28V116h7.25v1.09Z"/><path class="cls-1" d="M240.41,111.44a5.66,5.66,0,0,0,1.48-.32c.38-.17.42-.68.42-1,0-1.14-.68-2-2.43-2-1.56,0-2.63.51-2.83,2.2H235.9c.17-2.29,1.88-3.21,4-3.21,2,0,3.53.77,3.53,3v5.3c0,.88.23,1.09,1.19.75v.88a3,3,0,0,1-.89.19,2.07,2.07,0,0,1-.5-.06c-.76-.11-.89-.77-.91-1.44a4.75,4.75,0,0,1-3.62,1.61c-1.71,0-3.25-.92-3.25-2.8,0-1.63,1.13-2.62,3.4-2.93Zm1.9.56a9.31,9.31,0,0,1-2.92.55c-1.7.13-2.74.75-2.74,2.06s1,1.75,2.11,1.75c1.78,0,3.55-.87,3.55-2.84Z"/><path class="cls-1" d="M248.11,120.94H247V107.38h1.12v1.71h0a3.91,3.91,0,0,1,3.38-2c3.14,0,4.4,2.23,4.4,5.11,0,2.72-1.37,5.14-4.34,5.14a4.07,4.07,0,0,1-3.48-1.82Zm3.29-4.58c2.33,0,3.42-2,3.32-4.41s-1.42-3.82-3.32-3.82c-2.12,0-3.29,1.8-3.29,4.15S249.35,116.36,251.4,116.36Z"/><path class="cls-1" d="M262.22,117.15a5.8,5.8,0,0,1-1.29.22c-1.11,0-1.73-.49-1.73-1.93v-7.12h-1.37v-.94h1.37v-2.7h1.13v2.7h1.82v.94h-1.82V115c0,1,0,1.37,1,1.37a4.16,4.16,0,0,0,.92-.13Z"/><path class="cls-1" d="M263.86,112.24c0-2.83,1.5-5.12,4.51-5.12s4.5,2.27,4.5,5.12c0,3.09-1.78,5.13-4.5,5.13C265.89,117.34,263.86,115.65,263.86,112.24Zm4.51-4.11c-2.37,0-3.31,2-3.31,4.11,0,2.43,1.15,4.12,3.31,4.12,2.36,0,3.3-2,3.3-4.12C271.65,110,270.75,108.13,268.37,108.13Z"/><path class="cls-1" d="M276.67,120.94h-1.13V107.38h1.13v1.71h0a3.91,3.91,0,0,1,3.38-2c3.14,0,4.4,2.23,4.4,5.11,0,2.72-1.38,5.14-4.34,5.14a4.06,4.06,0,0,1-3.48-1.82Zm3.29-4.58c2.33,0,3.42-2,3.32-4.41s-1.42-3.82-3.32-3.82c-2.12,0-3.29,1.8-3.29,4.15S277.91,116.36,280,116.36Z"/><path class="cls-2" d="M130.77,89.25H107.23a4.55,4.55,0,0,1-4.54-4.54V35.78a4.55,4.55,0,0,1,4.54-4.54h23.54a4.55,4.55,0,0,1,4.54,4.54V84.71A4.55,4.55,0,0,1,130.77,89.25ZM107.23,32a3.75,3.75,0,0,0-3.74,3.74V84.71a3.74,3.74,0,0,0,3.74,3.73h23.54a3.73,3.73,0,0,0,3.73-3.73V35.78A3.74,3.74,0,0,0,130.77,32Z"/><path class="cls-2" d="M123.37,34.92h-5.76a.22.22,0,1,1,0-.44h5.76a.22.22,0,0,1,0,.44Z"/><path class="cls-2" d="M115.39,34.92h-.76a.22.22,0,0,1,0-.44h.76a.22.22,0,0,1,0,.44Z"/><path class="cls-2" d="M119,84.75a2.66,2.66,0,1,1,2.66-2.66A2.67,2.67,0,0,1,119,84.75Zm0-4.88a2.22,2.22,0,1,0,2.22,2.22A2.23,2.23,0,0,0,119,79.87Z"/><path class="cls-2" d="M301.05,83.55H208.17a.4.4,0,0,1-.41-.4V23.92A3.94,3.94,0,0,1,211.7,20h85.82a3.94,3.94,0,0,1,3.93,3.93V83.15A.4.4,0,0,1,301.05,83.55Zm-92.48-.8h92.08V23.92a3.14,3.14,0,0,0-3.13-3.13H211.7a3.13,3.13,0,0,0-3.13,3.13Z"/><path class="cls-2" d="M302.62,89.83h-96a6.69,6.69,0,0,1-6.68-6.68.4.4,0,0,1,.4-.4H308.89a.4.4,0,0,1,.4.4A6.68,6.68,0,0,1,302.62,89.83ZM200.74,83.55A5.87,5.87,0,0,0,206.6,89h96a5.89,5.89,0,0,0,5.86-5.47Z"/><path class="cls-2" d="M261.09,85.44h-13a2.3,2.3,0,0,1-2.29-2.29.2.2,0,0,1,.2-.2h17.15a.2.2,0,0,1,.2.2A2.3,2.3,0,0,1,261.09,85.44Zm-14.85-2.09A1.9,1.9,0,0,0,248.12,85h13A1.89,1.89,0,0,0,263,83.35Z"/><path class="cls-2" d="M299.32,81.31H209.89a.2.2,0,0,1-.2-.2V24.71a2.48,2.48,0,0,1,2.48-2.48h84.88a2.48,2.48,0,0,1,2.47,2.48v56.4A.2.2,0,0,1,299.32,81.31Zm-89.23-.4h89V24.71a2.08,2.08,0,0,0-2.07-2.08H212.17a2.08,2.08,0,0,0-2.08,2.08Z"/></svg>