<svg id="Layer_1" data-name="Layer 1" xmlns="http://www.w3.org/2000/svg" viewBox="0 0 800 550"><defs><style>.cls-1{fill:#afafaf;}.cls-2{fill:#fff;}.cls-3{fill:#727272;}.cls-4{fill:#b6cc17;}</style></defs><title>secure wallet</title><path class="cls-1" d="M18.22,303.12h1.19v7.55c0,3.13,1.13,4.43,3.72,4.43s3.71-1.44,3.71-4.43v-7.55H28V311c0,3.29-1.63,5.1-4.9,5.1s-4.91-1.86-4.91-5.1Z"/><path class="cls-1" d="M31.8,312.94a2.38,2.38,0,0,0,2.73,2.14c1.53,0,2.25-.81,2.25-1.68,0-2.64-5.84-.78-5.84-4.37,0-1.51,1.18-2.6,3.2-2.6s3.25.81,3.52,2.87H36.59a2.15,2.15,0,0,0-2.47-1.92c-1.34,0-2.06.63-2.06,1.56,0,2.48,5.84.94,5.84,4.44,0,1.74-1.56,2.65-3.71,2.65a3.19,3.19,0,0,1-3.46-3.09Z"/><path class="cls-1" d="M41.07,311.48c0,2,1,3.6,3.06,3.6A2.67,2.67,0,0,0,46.9,313h1.17a3.8,3.8,0,0,1-3.94,3C41.21,316,40,314,40,311.27s1.58-4.84,4.18-4.84,4,1.77,4,5.05Zm6-.88c0-1.78-1-3.22-2.89-3.22s-2.85,1.49-3.06,3.22Z"/><path class="cls-1" d="M51.75,315.79h-1v-9.12h1v1.71h0a2.74,2.74,0,0,1,3-1.95v1.14c-2.37-.05-3,1.71-3,3.75Z"/><path class="cls-1" d="M61.27,315.79l5-12.67H67.6l4.86,12.67H71.23l-1.46-4H64l-1.5,4Zm3.13-5h5l-2.48-6.65Z"/><path class="cls-1" d="M86.24,309.54a2.68,2.68,0,0,0-2.71-2.16c-2.17,0-3.06,2-3.06,3.87s.88,3.83,3.06,3.83a2.66,2.66,0,0,0,2.79-2.44h1.13A3.74,3.74,0,0,1,83.53,316c-2.91,0-4.19-2.09-4.19-4.78,0-2.53,1.46-4.82,4.19-4.82a3.42,3.42,0,0,1,3.78,3.11Z"/><path class="cls-1" d="M94.19,310.47a5.37,5.37,0,0,0,1.39-.29c.35-.16.39-.64.39-.95,0-1.08-.64-1.85-2.27-1.85-1.46,0-2.47.47-2.66,2.06H90c.16-2.15,1.76-3,3.74-3s3.31.72,3.31,2.83v5c0,.83.21,1,1.11.71v.82a2.71,2.71,0,0,1-.83.18,2.42,2.42,0,0,1-.47-.05c-.71-.11-.83-.73-.85-1.36A4.44,4.44,0,0,1,92.59,316c-1.6,0-3-.86-3-2.62,0-1.53,1.06-2.46,3.19-2.74ZM96,311a8.72,8.72,0,0,1-2.73.51c-1.6.13-2.57.71-2.57,1.94s1,1.63,2,1.63c1.67,0,3.33-.81,3.33-2.65Z"/><path class="cls-1" d="M101.28,315.79h-1.06v-9.12h1.06v1.27a3.85,3.85,0,0,1,2.94-1.51,3.17,3.17,0,0,1,2.78,1.3,3.47,3.47,0,0,1,.46,2.09v6H106.4v-6c0-1.64-.67-2.46-2.36-2.46a2.65,2.65,0,0,0-2.53,1.77,4.8,4.8,0,0,0-.23,1.73Z"/><path class="cls-1" d="M116.89,315.79h-1.06v-9.12h1.06v1.71h0a2.75,2.75,0,0,1,3-1.95v1.14c-2.38-.05-3,1.71-3,3.75Z"/><path class="cls-1" d="M122.73,311.48c0,2,1,3.6,3.06,3.6a2.66,2.66,0,0,0,2.76-2.09h1.18a3.81,3.81,0,0,1-3.94,3c-2.92,0-4.19-2.07-4.19-4.76s1.59-4.84,4.19-4.84,4,1.77,4,5.05Zm6-.88c0-1.78-1-3.22-2.89-3.22s-2.85,1.49-3.06,3.22Z"/><path class="cls-1" d="M138.76,309.54a2.68,2.68,0,0,0-2.71-2.16c-2.17,0-3.06,2-3.06,3.87s.88,3.83,3.06,3.83a2.66,2.66,0,0,0,2.79-2.44H140a3.74,3.74,0,0,1-3.92,3.39c-2.91,0-4.19-2.09-4.19-4.78,0-2.53,1.46-4.82,4.19-4.82a3.42,3.42,0,0,1,3.78,3.11Z"/><path class="cls-1" d="M143.17,311.48c0,2,1,3.6,3.06,3.6A2.67,2.67,0,0,0,149,313h1.18a3.82,3.82,0,0,1-4,3c-2.92,0-4.18-2.07-4.18-4.76s1.58-4.84,4.18-4.84,4,1.77,4,5.05Zm6-.88c0-1.78-1-3.22-2.89-3.22s-2.85,1.49-3.06,3.22Z"/><path class="cls-1" d="M152.85,304.69v-1.57H154v1.57Zm.05,11.1v-9.12H154v9.12Z"/><path class="cls-1" d="M156.12,306.67h1.15l2.95,7.82,3-7.82h1.14l-3.53,9.12h-1.18Z"/><path class="cls-1" d="M167,311.48c0,2,1,3.6,3.06,3.6A2.66,2.66,0,0,0,172.8,313H174a3.81,3.81,0,0,1-3.94,3c-2.92,0-4.19-2.07-4.19-4.76s1.59-4.84,4.19-4.84,4,1.77,4,5.05Zm6-.88c0-1.78-1-3.22-2.89-3.22s-2.85,1.49-3.06,3.22Z"/><path class="cls-1" d="M185.08,315.82a4.68,4.68,0,0,1-1.21.21c-1,0-1.62-.45-1.62-1.81v-6.67H181v-.88h1.28v-2.53h1.06v2.53H185v.88h-1.7v6.25c0,.9,0,1.28.91,1.28a3.64,3.64,0,0,0,.86-.12Z"/><path class="cls-1" d="M188.32,315.79h-1v-9.12h1v1.71h0a2.74,2.74,0,0,1,3-1.95v1.14c-2.38-.05-3,1.71-3,3.75Z"/><path class="cls-1" d="M197.7,310.47a5.37,5.37,0,0,0,1.39-.29c.35-.16.39-.64.39-.95,0-1.08-.64-1.85-2.27-1.85-1.46,0-2.47.47-2.66,2.06h-1.07c.15-2.15,1.76-3,3.74-3s3.31.72,3.31,2.83v5c0,.83.21,1,1.11.71v.82a2.71,2.71,0,0,1-.83.18,2.42,2.42,0,0,1-.47-.05c-.71-.11-.83-.73-.85-1.36A4.44,4.44,0,0,1,196.1,316c-1.6,0-3-.86-3-2.62,0-1.53,1.06-2.46,3.19-2.74Zm1.78.53a8.72,8.72,0,0,1-2.73.51c-1.6.13-2.57.71-2.57,1.94s1,1.63,2,1.63c1.67,0,3.33-.81,3.33-2.65Z"/><path class="cls-1" d="M204.79,315.79h-1.06v-9.12h1.06v1.27a3.84,3.84,0,0,1,2.94-1.51,3.17,3.17,0,0,1,2.78,1.3,3.46,3.46,0,0,1,.45,2.09v6h-1.05v-6c0-1.64-.67-2.46-2.36-2.46a2.65,2.65,0,0,0-2.53,1.77,4.8,4.8,0,0,0-.23,1.73Z"/><path class="cls-1" d="M214.57,312.94a2.39,2.39,0,0,0,2.73,2.14c1.53,0,2.25-.81,2.25-1.68,0-2.64-5.84-.78-5.84-4.37,0-1.51,1.18-2.6,3.2-2.6s3.26.81,3.52,2.87h-1.07a2.15,2.15,0,0,0-2.47-1.92c-1.33,0-2,.63-2,1.56,0,2.48,5.84.94,5.84,4.44,0,1.74-1.57,2.65-3.71,2.65a3.2,3.2,0,0,1-3.47-3.09Z"/><path class="cls-1" d="M227.38,310.47a5.37,5.37,0,0,0,1.39-.29c.35-.16.39-.64.39-.95,0-1.08-.64-1.85-2.27-1.85-1.46,0-2.47.47-2.66,2.06h-1.07c.16-2.15,1.76-3,3.75-3,1.84,0,3.3.72,3.3,2.83v5c0,.83.21,1,1.11.71v.82a2.71,2.71,0,0,1-.83.18,2.42,2.42,0,0,1-.47-.05c-.7-.11-.83-.73-.84-1.36a4.46,4.46,0,0,1-3.4,1.51c-1.6,0-3-.86-3-2.62,0-1.53,1-2.46,3.18-2.74Zm1.78.53a8.67,8.67,0,0,1-2.73.51c-1.6.13-2.57.71-2.57,1.94s1,1.63,2,1.63c1.67,0,3.33-.81,3.33-2.65Z"/><path class="cls-1" d="M239.87,309.54a2.67,2.67,0,0,0-2.71-2.16c-2.16,0-3.06,2-3.06,3.87s.88,3.83,3.06,3.83a2.67,2.67,0,0,0,2.8-2.44h1.13a3.75,3.75,0,0,1-3.93,3.39c-2.9,0-4.18-2.09-4.18-4.78,0-2.53,1.46-4.82,4.18-4.82a3.42,3.42,0,0,1,3.79,3.11Z"/><path class="cls-1" d="M246.84,315.82a4.76,4.76,0,0,1-1.21.21c-1,0-1.62-.45-1.62-1.81v-6.67h-1.29v-.88H244v-2.53h1.05v2.53h1.71v.88h-1.71v6.25c0,.9,0,1.28.92,1.28a3.64,3.64,0,0,0,.86-.12Z"/><path class="cls-1" d="M249.07,304.69v-1.57h1.17v1.57Zm.06,11.1v-9.12h1.05v9.12Z"/><path class="cls-1" d="M252.72,311.23c0-2.66,1.4-4.8,4.22-4.8s4.22,2.13,4.22,4.8c0,2.89-1.67,4.8-4.22,4.8C254.62,316,252.72,314.42,252.72,311.23Zm4.22-3.85c-2.22,0-3.1,1.88-3.1,3.85,0,2.27,1.08,3.85,3.1,3.85,2.22,0,3.1-1.9,3.1-3.85C260,309.08,259.17,307.38,256.94,307.38Z"/><path class="cls-1" d="M264.59,315.79h-1v-9.12h1v1.27a3.85,3.85,0,0,1,2.94-1.51,3.17,3.17,0,0,1,2.78,1.3,3.47,3.47,0,0,1,.46,2.09v6h-1.06v-6c0-1.64-.67-2.46-2.35-2.46a2.66,2.66,0,0,0-2.54,1.77,4.8,4.8,0,0,0-.23,1.73Z"/><path class="cls-1" d="M274.38,312.94a2.37,2.37,0,0,0,2.72,2.14c1.53,0,2.25-.81,2.25-1.68,0-2.64-5.84-.78-5.84-4.37,0-1.51,1.18-2.6,3.21-2.6s3.25.81,3.51,2.87h-1.07c-.19-1.41-1.14-1.92-2.46-1.92s-2.06.63-2.06,1.56c0,2.48,5.84.94,5.84,4.44,0,1.74-1.57,2.65-3.71,2.65a3.2,3.2,0,0,1-3.47-3.09Z"/><path class="cls-1" d="M283.53,315.79v-1.55h1.28v1.55Z"/><path class="cls-1" d="M17.06,324.23h9.21v1h-4V336.9H21.07V325.25h-4Z"/><path class="cls-1" d="M27.67,332.34c0-2.65,1.4-4.8,4.22-4.8s4.22,2.13,4.22,4.8c0,2.89-1.67,4.81-4.22,4.81C29.57,337.11,27.67,335.53,27.67,332.34Zm4.22-3.85c-2.22,0-3.1,1.88-3.1,3.85,0,2.27,1.07,3.86,3.1,3.86,2.21,0,3.09-1.9,3.09-3.86C35,330.2,34.12,328.49,31.89,328.49Z"/><path class="cls-1" d="M44.43,334.05a2.39,2.39,0,0,0,2.73,2.15c1.53,0,2.25-.81,2.25-1.69,0-2.64-5.84-.78-5.84-4.36,0-1.52,1.18-2.61,3.2-2.61s3.26.81,3.52,2.87H49.22a2.14,2.14,0,0,0-2.46-1.92c-1.34,0-2.06.63-2.06,1.57,0,2.48,5.84.93,5.84,4.43,0,1.74-1.57,2.66-3.71,2.66a3.21,3.21,0,0,1-3.47-3.1Z"/><path class="cls-1" d="M53.7,332.59c0,2,1,3.61,3.07,3.61a2.67,2.67,0,0,0,2.76-2.1h1.18a3.81,3.81,0,0,1-3.94,3c-2.92,0-4.19-2.08-4.19-4.77s1.58-4.84,4.19-4.84,4,1.78,4,5Zm5.95-.88c0-1.78-1-3.22-2.88-3.22s-2.85,1.5-3.07,3.22Z"/><path class="cls-1" d="M64.33,336.9h-1v-9.11h1v1.26a3.89,3.89,0,0,1,2.94-1.51,3.17,3.17,0,0,1,2.78,1.3,3.48,3.48,0,0,1,.46,2.1v6H69.45V331c0-1.63-.67-2.46-2.36-2.46a2.67,2.67,0,0,0-2.53,1.78,4.71,4.71,0,0,0-.23,1.72Z"/><path class="cls-1" d="M80.54,324.23h1V336.9h-1v-1.6h0a3.65,3.65,0,0,1-3.17,1.85c-2.93,0-4.11-2.1-4.11-4.79s1.28-4.82,4.06-4.82a3.79,3.79,0,0,1,3.26,1.71Zm-3.08,4.26c-2.18,0-3.2,1.85-3.12,4.14s1.34,3.57,3.12,3.57c2,0,3.08-1.69,3.08-3.89S79.38,328.49,77.46,328.49Z"/><path class="cls-1" d="M93.22,336.94a5.16,5.16,0,0,1-1.21.21c-1,0-1.62-.46-1.62-1.81v-6.67H89.11v-.88h1.28v-2.54h1.06v2.54h1.7v.88h-1.7v6.24c0,.9,0,1.29.91,1.29a3.66,3.66,0,0,0,.86-.13Z"/><path class="cls-1" d="M96.46,336.9H95.4v-9.11h1.06v1.7h0a2.76,2.76,0,0,1,3-1.95v1.15c-2.38-.06-3,1.7-3,3.74Z"/><path class="cls-1" d="M105.84,331.59a5.48,5.48,0,0,0,1.39-.3c.35-.16.38-.64.38-1,0-1.07-.63-1.85-2.27-1.85-1.46,0-2.46.48-2.65,2.06h-1.07c.15-2.15,1.75-3,3.74-3s3.31.72,3.31,2.83v5c0,.82.21,1,1.11.7v.83a3.08,3.08,0,0,1-.83.17,2.42,2.42,0,0,1-.47-.05c-.71-.11-.83-.72-.85-1.36a4.45,4.45,0,0,1-3.39,1.52c-1.6,0-3-.87-3-2.62,0-1.53,1.06-2.47,3.19-2.75Zm1.77.53a8.9,8.9,0,0,1-2.72.51c-1.6.12-2.57.7-2.57,1.93s1,1.64,2,1.64c1.67,0,3.32-.81,3.32-2.66Z"/><path class="cls-1" d="M112.93,336.9h-1.06v-9.11h1.06v1.26a3.87,3.87,0,0,1,2.94-1.51,3.18,3.18,0,0,1,2.78,1.3,3.48,3.48,0,0,1,.45,2.1v6h-1V331c0-1.63-.67-2.46-2.36-2.46a2.66,2.66,0,0,0-2.53,1.78,4.71,4.71,0,0,0-.23,1.72Z"/><path class="cls-1" d="M122.71,334.05a2.38,2.38,0,0,0,2.73,2.15c1.53,0,2.25-.81,2.25-1.69,0-2.64-5.84-.78-5.84-4.36,0-1.52,1.18-2.61,3.2-2.61s3.26.81,3.52,2.87H127.5a2.15,2.15,0,0,0-2.47-1.92c-1.33,0-2,.63-2,1.57,0,2.48,5.84.93,5.84,4.43,0,1.74-1.57,2.66-3.72,2.66a3.21,3.21,0,0,1-3.46-3.1Z"/><path class="cls-1" d="M135.52,331.59a5.38,5.38,0,0,0,1.39-.3c.35-.16.39-.64.39-1,0-1.07-.64-1.85-2.27-1.85-1.46,0-2.47.48-2.66,2.06H131.3c.16-2.15,1.76-3,3.74-3s3.31.72,3.31,2.83v5c0,.82.21,1,1.11.7v.83a3.08,3.08,0,0,1-.83.17,2.42,2.42,0,0,1-.47-.05c-.71-.11-.83-.72-.85-1.36a4.45,4.45,0,0,1-3.39,1.52c-1.6,0-3-.87-3-2.62,0-1.53,1.06-2.47,3.19-2.75Zm1.78.53a9,9,0,0,1-2.73.51c-1.6.12-2.57.7-2.57,1.93s1,1.64,2,1.64c1.67,0,3.33-.81,3.33-2.66Z"/><path class="cls-1" d="M148,330.65a2.67,2.67,0,0,0-2.71-2.16c-2.16,0-3.06,2-3.06,3.87s.88,3.84,3.06,3.84a2.67,2.67,0,0,0,2.8-2.45h1.13a3.75,3.75,0,0,1-3.93,3.4c-2.9,0-4.18-2.1-4.18-4.79,0-2.53,1.46-4.82,4.18-4.82a3.42,3.42,0,0,1,3.79,3.11Z"/><path class="cls-1" d="M155,336.94a5.26,5.26,0,0,1-1.21.21c-1,0-1.62-.46-1.62-1.81v-6.67h-1.29v-.88h1.29v-2.54h1v2.54h1.71v.88H153.2v6.24c0,.9,0,1.29.92,1.29a3.66,3.66,0,0,0,.86-.13Z"/><path class="cls-1" d="M157.21,325.8v-1.57h1.17v1.57Zm.06,11.1v-9.11h1v9.11Z"/><path class="cls-1" d="M160.86,332.34c0-2.65,1.4-4.8,4.22-4.8s4.22,2.13,4.22,4.8c0,2.89-1.67,4.81-4.22,4.81C162.76,337.11,160.86,335.53,160.86,332.34Zm4.22-3.85c-2.22,0-3.1,1.88-3.1,3.85,0,2.27,1.08,3.86,3.1,3.86,2.22,0,3.1-1.9,3.1-3.86C168.16,330.2,167.31,328.49,165.08,328.49Z"/><path class="cls-1" d="M172.73,336.9h-1v-9.11h1v1.26a3.89,3.89,0,0,1,2.94-1.51,3.17,3.17,0,0,1,2.78,1.3,3.48,3.48,0,0,1,.46,2.1v6h-1.06V331c0-1.63-.67-2.46-2.36-2.46a2.67,2.67,0,0,0-2.53,1.78,4.71,4.71,0,0,0-.23,1.72Z"/><path class="cls-1" d="M182.51,334.05a2.39,2.39,0,0,0,2.73,2.15c1.53,0,2.25-.81,2.25-1.69,0-2.64-5.84-.78-5.84-4.36,0-1.52,1.18-2.61,3.21-2.61s3.25.81,3.51,2.87H187.3c-.19-1.41-1.14-1.92-2.46-1.92s-2.06.63-2.06,1.57c0,2.48,5.84.93,5.84,4.43,0,1.74-1.57,2.66-3.71,2.66a3.21,3.21,0,0,1-3.47-3.1Z"/><path class="cls-1" d="M193,337.43a1.83,1.83,0,0,1-1.29,1.88v-.65a1.2,1.2,0,0,0,.6-1.16v-.6h-.6v-1.55H193Z"/><path class="cls-1" d="M202,324.23h1.2v7.55c0,3.13,1.13,4.43,3.71,4.43,2.73,0,3.72-1.44,3.72-4.43v-7.55h1.19v7.9c0,3.29-1.63,5.1-4.91,5.1s-4.91-1.86-4.91-5.1Z"/><path class="cls-1" d="M215.56,334.05a2.37,2.37,0,0,0,2.72,2.15c1.54,0,2.26-.81,2.26-1.69,0-2.64-5.84-.78-5.84-4.36,0-1.52,1.17-2.61,3.2-2.61s3.25.81,3.52,2.87h-1.08c-.19-1.41-1.14-1.92-2.46-1.92s-2.06.63-2.06,1.57c0,2.48,5.84.93,5.84,4.43,0,1.74-1.56,2.66-3.71,2.66a3.21,3.21,0,0,1-3.47-3.1Z"/><path class="cls-1" d="M224.83,332.59c0,2,1,3.61,3.06,3.61a2.67,2.67,0,0,0,2.76-2.1h1.18a3.81,3.81,0,0,1-3.94,3c-2.92,0-4.19-2.08-4.19-4.77s1.59-4.84,4.19-4.84,4,1.78,4,5Zm5.95-.88c0-1.78-1-3.22-2.89-3.22s-2.85,1.5-3.06,3.22Z"/><path class="cls-1" d="M235.51,336.9h-1.06v-9.11h1.06v1.7h0a2.74,2.74,0,0,1,3-1.95v1.15c-2.38-.06-3,1.7-3,3.74Z"/><path class="cls-1" d="M245,336.9l5-12.67h1.35l4.86,12.67H255l-1.46-4h-5.77l-1.5,4Zm3.13-5h5l-2.48-6.65Z"/><path class="cls-1" d="M264.59,336.9h-1v-9.11h1v1.26a3.89,3.89,0,0,1,2.94-1.51,3.17,3.17,0,0,1,2.78,1.3,3.48,3.48,0,0,1,.46,2.1v6h-1.06V331c0-1.63-.67-2.46-2.35-2.46a2.67,2.67,0,0,0-2.54,1.78,4.71,4.71,0,0,0-.23,1.72Z"/><path class="cls-1" d="M274.41,332.59c0,2,1,3.61,3.06,3.61a2.69,2.69,0,0,0,2.77-2.1h1.17a3.8,3.8,0,0,1-3.94,3c-2.92,0-4.18-2.08-4.18-4.77s1.58-4.84,4.18-4.84,4,1.78,4,5Zm5.95-.88c0-1.78-1-3.22-2.89-3.22s-2.85,1.5-3.06,3.22Z"/><path class="cls-1" d="M284.63,332.59c0,2,1,3.61,3.07,3.61a2.67,2.67,0,0,0,2.76-2.1h1.18a3.81,3.81,0,0,1-3.94,3c-2.93,0-4.19-2.08-4.19-4.77s1.58-4.84,4.19-4.84,4,1.78,4,5Zm5.95-.88c0-1.78-1-3.22-2.88-3.22s-2.86,1.5-3.07,3.22Z"/><path class="cls-1" d="M301.24,324.23h1.06V336.9h-1.06v-1.6h0a3.67,3.67,0,0,1-3.17,1.85c-2.94,0-4.12-2.1-4.12-4.79s1.29-4.82,4.07-4.82a3.79,3.79,0,0,1,3.25,1.71Zm-3.08,4.26c-2.18,0-3.2,1.85-3.11,4.14s1.34,3.57,3.11,3.57c2,0,3.08-1.69,3.08-3.89S300.08,328.49,298.16,328.49Z"/><path class="cls-1" d="M306,334.05a2.38,2.38,0,0,0,2.73,2.15c1.53,0,2.25-.81,2.25-1.69,0-2.64-5.84-.78-5.84-4.36,0-1.52,1.18-2.61,3.2-2.61s3.26.81,3.52,2.87H310.8a2.15,2.15,0,0,0-2.47-1.92c-1.33,0-2.05.63-2.05,1.57,0,2.48,5.84.93,5.84,4.43,0,1.74-1.57,2.66-3.72,2.66a3.21,3.21,0,0,1-3.46-3.1Z"/><path class="cls-1" d="M320.12,336.9V324.23h1.06V336.9Z"/><path class="cls-1" d="M328.5,331.59a5.57,5.57,0,0,0,1.39-.3c.35-.16.38-.64.38-1,0-1.07-.63-1.85-2.27-1.85-1.46,0-2.46.48-2.65,2.06h-1.08c.16-2.15,1.76-3,3.75-3s3.31.72,3.31,2.83v5c0,.82.21,1,1.11.7v.83a3.08,3.08,0,0,1-.83.17,2.26,2.26,0,0,1-.47-.05c-.71-.11-.83-.72-.85-1.36a4.45,4.45,0,0,1-3.39,1.52c-1.61,0-3-.87-3-2.62,0-1.53,1.06-2.47,3.19-2.75Zm1.77.53a8.9,8.9,0,0,1-2.72.51c-1.6.12-2.57.7-2.57,1.93s1,1.64,2,1.64c1.67,0,3.32-.81,3.32-2.66Z"/><path class="cls-1" d="M335.71,340.49h-1v-12.7h1v1.6h0a3.65,3.65,0,0,1,3.16-1.85c2.94,0,4.12,2.1,4.12,4.79s-1.28,4.82-4.06,4.82a3.79,3.79,0,0,1-3.26-1.71Zm3.08-4.29c2.18,0,3.2-1.85,3.11-4.14s-1.33-3.57-3.11-3.57c-2,0-3.08,1.69-3.08,3.89S336.87,336.2,338.79,336.2Z"/><path class="cls-1" d="M348.92,336.94a5.16,5.16,0,0,1-1.21.21c-1,0-1.62-.46-1.62-1.81v-6.67h-1.28v-.88h1.28v-2.54h1.06v2.54h1.7v.88h-1.7v6.24c0,.9,0,1.29.91,1.29a3.66,3.66,0,0,0,.86-.13Z"/><path class="cls-1" d="M350.45,332.34c0-2.65,1.41-4.8,4.23-4.8s4.22,2.13,4.22,4.8c0,2.89-1.67,4.81-4.22,4.81C352.36,337.11,350.45,335.53,350.45,332.34Zm4.23-3.85c-2.22,0-3.1,1.88-3.1,3.85,0,2.27,1.07,3.86,3.1,3.86,2.21,0,3.09-1.9,3.09-3.86C357.76,330.2,356.91,328.49,354.68,328.49Z"/><path class="cls-1" d="M362.45,340.49H361.4v-12.7h1.05v1.6h0a3.67,3.67,0,0,1,3.17-1.85c2.93,0,4.11,2.1,4.11,4.79s-1.28,4.82-4.06,4.82a3.8,3.8,0,0,1-3.26-1.71Zm3.08-4.29c2.19,0,3.21-1.85,3.12-4.14s-1.34-3.57-3.12-3.57c-2,0-3.08,1.69-3.08,3.89S363.62,336.2,365.53,336.2Z"/><path class="cls-1" d="M385.12,333.63a4.71,4.71,0,0,0,.52-2.46h1a6.48,6.48,0,0,1-.88,3.3l2.06,2.43h-1.42l-1.24-1.49a4.69,4.69,0,0,1-4,1.82,3.74,3.74,0,0,1-4-3.76c0-1.9,1.41-3.17,3-3.92a4.49,4.49,0,0,1-1.36-2.84,2.56,2.56,0,0,1,2.85-2.48,2.51,2.51,0,0,1,2.66,2.45c0,1.69-1.18,2.39-2.5,3.18Zm-4.21-3.33a3.88,3.88,0,0,0-2.46,3.26,2.66,2.66,0,0,0,2.85,2.72,4.14,4.14,0,0,0,3.22-1.68Zm.78-5.12A1.58,1.58,0,0,0,380,326.7a5,5,0,0,0,1.32,2.37,4.19,4.19,0,0,0,1.86-1.67A1.58,1.58,0,0,0,381.69,325.18Z"/><path class="cls-1" d="M396.22,336.9h-1.06v-9.11h1.06v1.37h0a3.13,3.13,0,0,1,2.82-1.62,2.48,2.48,0,0,1,2.67,1.76,3.16,3.16,0,0,1,3-1.76c2.48,0,2.83,1.78,2.83,3.61v5.75h-1.06v-6.3c0-1.3-.45-2.11-1.95-2.11a2.56,2.56,0,0,0-2.06,1,4.52,4.52,0,0,0-.6,2.46v4.91h-1.05v-6.3c0-1.3-.46-2.11-1.95-2.11a2.53,2.53,0,0,0-2.06,1,4.52,4.52,0,0,0-.6,2.46Z"/><path class="cls-1" d="M409.8,332.34c0-2.65,1.41-4.8,4.22-4.8s4.23,2.13,4.23,4.8c0,2.89-1.68,4.81-4.23,4.81C411.7,337.11,409.8,335.53,409.8,332.34Zm4.22-3.85c-2.21,0-3.09,1.88-3.09,3.85,0,2.27,1.07,3.86,3.09,3.86,2.22,0,3.1-1.9,3.1-3.86C417.1,330.2,416.26,328.49,414,328.49Z"/><path class="cls-1" d="M421.8,336.9h-1.06V324.23h1.06v5a3.79,3.79,0,0,1,3.26-1.71c2.78,0,4.06,2.27,4.06,4.82s-1.18,4.79-4.12,4.79a3.65,3.65,0,0,1-3.16-1.85h0Zm3.08-.7c1.78,0,3.1-1.29,3.11-3.57s-.93-4.14-3.11-4.14c-1.92,0-3.08,1.76-3.08,3.82S422.89,336.2,424.88,336.2Z"/><path class="cls-1" d="M431.92,325.8v-1.57h1.16v1.57Zm.05,11.1v-9.11H433v9.11Z"/><path class="cls-1" d="M436.32,336.9V324.23h1.05V336.9Z"/><path class="cls-1" d="M441.16,332.59c0,2,1,3.61,3.06,3.61a2.67,2.67,0,0,0,2.76-2.1h1.18a3.81,3.81,0,0,1-3.94,3c-2.92,0-4.19-2.08-4.19-4.77s1.58-4.84,4.19-4.84,4,1.78,4,5Zm5.94-.88c0-1.78-1-3.22-2.88-3.22s-2.85,1.5-3.06,3.22Z"/><path class="cls-2" d="M28.9,76.8c-3.88,0-6.8-5.57-6.8-9.17a6.8,6.8,0,0,1,13.6,0C35.7,71.23,32.78,76.8,28.9,76.8Zm0-14.72a5.55,5.55,0,0,0-5.54,5.55c0,3.05,2.53,7.91,5.54,7.91s5.55-4.86,5.55-7.91A5.56,5.56,0,0,0,28.9,62.08Z"/><path class="cls-2" d="M38.7,92.92h-20a2.54,2.54,0,0,1-2.53-2.54V88a10.4,10.4,0,0,1,9.48-10.41,3.77,3.77,0,0,1,1.74.25,4,4,0,0,0,1.43.33A3,3,0,0,0,30,77.9a3.67,3.67,0,0,1,1.86-.3A10.41,10.41,0,0,1,41.24,88v2.38A2.54,2.54,0,0,1,38.7,92.92ZM26,78.83h-.25A9.16,9.16,0,0,0,17.4,88v2.38a1.28,1.28,0,0,0,1.28,1.28h20A1.28,1.28,0,0,0,40,90.38V88a9.16,9.16,0,0,0-8.3-9.15,2.61,2.61,0,0,0-1.25.2,4.18,4.18,0,0,1-1.64.38A5.08,5.08,0,0,1,26.89,79,2.48,2.48,0,0,0,26,78.83Z"/><path class="cls-2" d="M523.94,105.36h-22a4.25,4.25,0,0,1-4.25-4.25V55.29A4.25,4.25,0,0,1,501.9,51h22a4.26,4.26,0,0,1,4.25,4.25v45.82A4.26,4.26,0,0,1,523.94,105.36Zm-22-53.57a3.5,3.5,0,0,0-3.5,3.5v45.82a3.5,3.5,0,0,0,3.5,3.5h22a3.5,3.5,0,0,0,3.5-3.5V55.29a3.5,3.5,0,0,0-3.5-3.5Z"/><path class="cls-2" d="M517,54.48h-5.39a.2.2,0,1,1,0-.4H517a.2.2,0,1,1,0,.4Z"/><path class="cls-2" d="M509.54,54.48h-.71a.2.2,0,1,1,0-.4h.71a.2.2,0,1,1,0,.4Z"/><path class="cls-2" d="M512.92,101.15a2.49,2.49,0,1,1,2.48-2.49A2.5,2.5,0,0,1,512.92,101.15Zm0-4.57A2.08,2.08,0,1,0,515,98.66,2.08,2.08,0,0,0,512.92,96.58Z"/><path class="cls-2" d="M411.62,104.27h-7V49.19A3.69,3.69,0,0,0,401,45.5H320.6a3.69,3.69,0,0,0-3.68,3.69v55.08h-7a.38.38,0,0,0-.38.38,6.25,6.25,0,0,0,6.25,6.25h89.92a6.25,6.25,0,0,0,6.25-6.25A.38.38,0,0,0,411.62,104.27ZM317.67,49.19a2.94,2.94,0,0,1,2.93-2.94H401a2.94,2.94,0,0,1,2.93,2.94v55.08H317.67ZM368.58,105a1.78,1.78,0,0,1-1.73,1.4H354.71A1.78,1.78,0,0,1,353,105Zm37.16,5.13H315.82a5.52,5.52,0,0,1-5.49-5.13H352.6a2.15,2.15,0,0,0,2.11,1.78h12.14A2.15,2.15,0,0,0,369,105h42.27A5.52,5.52,0,0,1,405.74,110.15Z"/><path class="cls-2" d="M400.52,47.6H321a2.32,2.32,0,0,0-2.32,2.32v52.82a.19.19,0,0,0,.19.19h83.74a.19.19,0,0,0,.19-.19V49.92A2.32,2.32,0,0,0,400.52,47.6Zm2,55H319.1V49.92A1.94,1.94,0,0,1,321,48h79.48a2,2,0,0,1,2,1.94Z"/><path class="cls-1" d="M15.35,124.19h.9v5.66c0,2.35.85,3.33,2.79,3.33s2.78-1.09,2.78-3.33v-5.66h.9v5.92c0,2.47-1.23,3.83-3.68,3.83s-3.69-1.4-3.69-3.83Z"/><path class="cls-1" d="M25.54,131.55a1.78,1.78,0,0,0,2.05,1.61c1.15,0,1.69-.6,1.69-1.26,0-2-4.39-.59-4.39-3.28,0-1.13.89-2,2.41-2a2.3,2.3,0,0,1,2.64,2.15h-.81c-.14-1.06-.86-1.44-1.85-1.44s-1.54.48-1.54,1.18c0,1.86,4.38.7,4.38,3.32,0,1.31-1.17,2-2.78,2a2.39,2.39,0,0,1-2.6-2.32Z"/><path class="cls-1" d="M32.49,130.46c0,1.47.78,2.7,2.3,2.7a2,2,0,0,0,2.07-1.57h.89a2.86,2.86,0,0,1-3,2.28c-2.19,0-3.14-1.55-3.14-3.57s1.19-3.63,3.14-3.63,3,1.33,3,3.79ZM37,129.8a2.16,2.16,0,0,0-2.17-2.42c-1.4,0-2.14,1.12-2.3,2.42Z"/><path class="cls-1" d="M40.51,133.69h-.8v-6.84h.8v1.28h0a2.06,2.06,0,0,1,2.23-1.46v.86c-1.78,0-2.25,1.28-2.25,2.81Z"/><path class="cls-1" d="M119.21,133.69v-9.5h3.47c2.47,0,3.1,1.22,3.1,2.65,0,2.12-1.88,2.65-3.64,2.65h-2v4.2Zm3-5c1.67,0,2.72-.35,2.72-2,0-1.18-.77-1.82-2.46-1.82h-2.32v3.78Z"/><path class="cls-1" d="M130.67,129.7a3.71,3.71,0,0,0,1-.22c.26-.12.29-.48.29-.71,0-.81-.48-1.39-1.7-1.39s-1.85.36-2,1.55h-.8c.12-1.62,1.32-2.26,2.81-2.26s2.48.54,2.48,2.12v3.73c0,.62.16.76.83.52v.62a2.11,2.11,0,0,1-.62.14,2.09,2.09,0,0,1-.36,0c-.52-.08-.62-.55-.63-1a3.35,3.35,0,0,1-2.55,1.13,2,2,0,0,1-2.28-2c0-1.15.79-1.85,2.39-2.06Zm1.33.4a6.4,6.4,0,0,1-2.05.38c-1.2.09-1.92.53-1.92,1.45s.72,1.23,1.47,1.23c1.26,0,2.5-.6,2.5-2Z"/><path class="cls-1" d="M135.65,131.55a1.78,1.78,0,0,0,2,1.61c1.15,0,1.69-.6,1.69-1.26,0-2-4.38-.59-4.38-3.28,0-1.13.88-2,2.4-2a2.3,2.3,0,0,1,2.64,2.15h-.81c-.14-1.06-.85-1.44-1.85-1.44s-1.54.48-1.54,1.18c0,1.86,4.38.7,4.38,3.32,0,1.31-1.17,2-2.78,2a2.39,2.39,0,0,1-2.6-2.32Z"/><path class="cls-1" d="M142.58,131.55a1.78,1.78,0,0,0,2,1.61c1.14,0,1.69-.6,1.69-1.26,0-2-4.39-.59-4.39-3.28,0-1.13.89-2,2.41-2a2.3,2.3,0,0,1,2.64,2.15h-.81c-.14-1.06-.86-1.44-1.85-1.44s-1.54.48-1.54,1.18c0,1.86,4.38.7,4.38,3.32,0,1.31-1.17,2-2.78,2a2.39,2.39,0,0,1-2.6-2.32Z"/><path class="cls-1" d="M149.93,136.38h-.79v-9.53h.79v1.2h0a2.75,2.75,0,0,1,2.37-1.38c2.21,0,3.09,1.57,3.09,3.59s-1,3.61-3,3.61a2.82,2.82,0,0,1-2.44-1.28Zm2.31-3.22c1.64,0,2.4-1.38,2.34-3.1s-1-2.68-2.34-2.68c-1.49,0-2.31,1.27-2.31,2.92S150.8,133.16,152.24,133.16Z"/><path class="cls-1" d="M157.44,133.69v-9.5h.79v3.61a2.89,2.89,0,0,1,2.2-1.13,2.37,2.37,0,0,1,2.09,1,2.58,2.58,0,0,1,.34,1.57v4.47h-.79v-4.46c0-1.23-.5-1.85-1.77-1.85a2,2,0,0,0-1.9,1.33,3.53,3.53,0,0,0-.17,1.3v3.68Z"/><path class="cls-1" d="M165.94,133.69h-.79v-6.84h.79v1.28h0a2.07,2.07,0,0,1,2.23-1.46v.86c-1.78,0-2.25,1.28-2.25,2.81Z"/><path class="cls-1" d="M173,129.7a3.64,3.64,0,0,0,1-.22c.27-.12.29-.48.29-.71,0-.81-.47-1.39-1.7-1.39s-1.85.36-2,1.55h-.81c.12-1.62,1.32-2.26,2.82-2.26s2.48.54,2.48,2.12v3.73c0,.62.15.76.83.52v.62a2.19,2.19,0,0,1-.62.14,2.09,2.09,0,0,1-.36,0c-.53-.08-.62-.55-.63-1a3.35,3.35,0,0,1-2.55,1.13,2,2,0,0,1-2.28-2c0-1.15.79-1.85,2.39-2.06Zm1.33.4a6.29,6.29,0,0,1-2,.38c-1.2.09-1.93.53-1.93,1.45s.73,1.23,1.48,1.23c1.25,0,2.49-.6,2.49-2Z"/><path class="cls-1" d="M178,131.55a1.78,1.78,0,0,0,2,1.61c1.15,0,1.69-.6,1.69-1.26,0-2-4.38-.59-4.38-3.28,0-1.13.89-2,2.4-2s2.45.6,2.64,2.15h-.8a1.61,1.61,0,0,0-1.85-1.44c-1,0-1.54.48-1.54,1.18,0,1.86,4.38.7,4.38,3.32,0,1.31-1.18,2-2.79,2a2.4,2.4,0,0,1-2.6-2.32Z"/><path class="cls-1" d="M184.91,130.46c0,1.47.78,2.7,2.3,2.7a2,2,0,0,0,2.07-1.57h.89a2.86,2.86,0,0,1-3,2.28c-2.19,0-3.14-1.55-3.14-3.57s1.19-3.63,3.14-3.63,3,1.33,3,3.79Zm4.46-.66a2.16,2.16,0,0,0-2.16-2.42c-1.4,0-2.14,1.12-2.3,2.42Z"/><path class="cls-1" d="M503,133.69v-9.5h3.47c2.47,0,3.1,1.22,3.1,2.65,0,2.12-1.89,2.65-3.64,2.65h-2v4.2Zm3-5c1.67,0,2.71-.35,2.71-2,0-1.18-.76-1.82-2.45-1.82h-2.32v3.78Z"/><path class="cls-1" d="M511.74,133.69v-9.5h.9v9.5Z"/><path class="cls-1" d="M516.32,125.4h0v8.29h-.9v-9.5h1l5.49,8.3h0v-8.3h.89v9.5h-1Z"/><path class="cls-1" d="M496.68,139.77a10.34,10.34,0,0,0,0,12.28H496a9.47,9.47,0,0,1,0-12.28Z"/><path class="cls-1" d="M501.74,142.61h-2.41v-.56c1.42-.09,2.3-.23,2.58-1.83h.67v9.3h-.84Z"/><path class="cls-1" d="M506.33,143.27a2.85,2.85,0,0,1,3-3.05,2.56,2.56,0,0,1,2.86,2.57c0,2.47-2.66,3.09-4.05,4.15a2.5,2.5,0,0,0-1.21,1.87h5.18v.71h-6.08a3.17,3.17,0,0,1,.73-2.27c1.94-2.24,4.51-2.21,4.51-4.4a1.88,1.88,0,0,0-2.05-1.92,2.12,2.12,0,0,0-2,2.34Z"/><path class="cls-1" d="M516,144.35c1.57,0,2.67-.36,2.67-1.78,0-1.15-.91-1.64-2-1.64a1.91,1.91,0,0,0-2,2h-.84a2.69,2.69,0,0,1,.9-2.09,3,3,0,0,1,2.11-.62c1.46,0,2.65.74,2.65,2.3a2.08,2.08,0,0,1-1.32,2.07,2.21,2.21,0,0,1,1.65,2.3,2.8,2.8,0,0,1-3,2.82c-2.16,0-3.12-.71-3.32-2.88h.85a2.07,2.07,0,0,0,2.31,2.17,2.19,2.19,0,0,0,2.31-2.1c-.06-1.51-1.36-2-3-1.86Z"/><path class="cls-1" d="M525.48,147.23h-4.25v-.73l4.33-6.19h.76v6.21h1.29v.71h-1.29v2.29h-.84Zm-3.42-.71h3.42v-4.94Z"/><path class="cls-1" d="M529.16,152.05a10.34,10.34,0,0,0,0-12.28h.67a9.47,9.47,0,0,1,0,12.28Z"/><path class="cls-1" d="M693.47,133.69v-9.5h3.47c2.47,0,3.1,1.22,3.1,2.65,0,2.12-1.88,2.65-3.64,2.65h-2v4.2Zm3-5c1.67,0,2.72-.35,2.72-2,0-1.18-.77-1.82-2.46-1.82h-2.32v3.78Z"/><path class="cls-1" d="M706.42,126.85h.79v6.84h-.79v-.95a2.75,2.75,0,0,1-2.21,1.13,2.2,2.2,0,0,1-2.43-2.52v-4.5h.8v4.49c0,1.18.51,1.82,1.75,1.82s2.09-1.08,2.09-2.59Z"/><path class="cls-1" d="M710.34,133.69h-.8v-9.5h.8V128a2.83,2.83,0,0,1,2.44-1.28c2.08,0,3.05,1.7,3.05,3.61s-.89,3.59-3.09,3.59a2.75,2.75,0,0,1-2.38-1.38h0Zm2.31-.53c1.33,0,2.32-1,2.33-2.68s-.7-3.1-2.33-3.1c-1.44,0-2.31,1.32-2.31,2.86S711.16,133.16,712.65,133.16Z"/><path class="cls-1" d="M718,133.69v-9.5h.8v9.5Z"/><path class="cls-1" d="M721.18,125.36v-1.17h.87v1.17Zm0,8.33v-6.84H722v6.84Z"/><path class="cls-1" d="M729.21,129a2,2,0,0,0-2-1.62c-1.62,0-2.29,1.48-2.29,2.9s.66,2.88,2.29,2.88a2,2,0,0,0,2.1-1.83h.85a2.81,2.81,0,0,1-3,2.54c-2.17,0-3.14-1.57-3.14-3.59s1.1-3.61,3.14-3.61A2.56,2.56,0,0,1,730,129Z"/><path class="cls-1" d="M736.2,133.69v-9.5h.9v4.92l4.87-4.92h1L739.24,128l4.4,5.71h-1.09l-4-5.16L737.1,130v3.67Z"/><path class="cls-1" d="M745.65,130.46c0,1.47.78,2.7,2.29,2.7a2,2,0,0,0,2.08-1.57h.88a2.85,2.85,0,0,1-3,2.28c-2.19,0-3.14-1.55-3.14-3.57s1.19-3.63,3.14-3.63,3,1.33,3,3.79Zm4.46-.66a2.16,2.16,0,0,0-2.17-2.42c-1.4,0-2.13,1.12-2.29,2.42Z"/><path class="cls-1" d="M752.77,135.55a3.61,3.61,0,0,0,.66.08c.9,0,1-1.29,1.34-1.89l-2.66-6.89H753l2.19,5.88,2.19-5.88h.86l-2.55,6.75c-.65,1.71-1.07,2.78-2.16,2.78a3.37,3.37,0,0,1-.76-.09Z"/><path class="cls-1" d="M21.61,184.89h.9v5.66c0,2.35.85,3.33,2.79,3.33s2.78-1.09,2.78-3.33v-5.66H29v5.92c0,2.47-1.23,3.83-3.68,3.83s-3.69-1.4-3.69-3.83Z"/><path class="cls-1" d="M31.8,192.25a1.78,1.78,0,0,0,2.05,1.61c1.14,0,1.69-.6,1.69-1.26,0-2-4.39-.58-4.39-3.28,0-1.13.89-1.95,2.41-1.95a2.31,2.31,0,0,1,2.64,2.15h-.81a1.61,1.61,0,0,0-1.85-1.44c-1,0-1.54.48-1.54,1.18,0,1.86,4.38.7,4.38,3.32,0,1.31-1.17,2-2.78,2A2.41,2.41,0,0,1,31,192.25Z"/><path class="cls-1" d="M38.75,191.16c0,1.48.78,2.7,2.3,2.7a2,2,0,0,0,2.07-1.57H44a2.87,2.87,0,0,1-3,2.29c-2.19,0-3.14-1.56-3.14-3.58s1.19-3.63,3.14-3.63,3,1.33,3,3.79Zm4.47-.66a2.16,2.16,0,0,0-2.17-2.42c-1.4,0-2.14,1.12-2.3,2.42Z"/><path class="cls-1" d="M46.76,194.39H46v-6.84h.79v1.28h0A2.06,2.06,0,0,1,49,187.37v.86c-1.78,0-2.26,1.28-2.26,2.81Z"/><path class="cls-1" d="M54.6,194.39v-9.5h.79v5.91l3.36-3.25h1.08L57.27,190l2.86,4.37h-.88l-2.56-3.81-1.3,1.22v2.59Z"/><path class="cls-1" d="M62.07,191.16c0,1.48.78,2.7,2.3,2.7a2,2,0,0,0,2.07-1.57h.88a2.85,2.85,0,0,1-2.95,2.29c-2.19,0-3.14-1.56-3.14-3.58s1.18-3.63,3.14-3.63,3,1.33,3,3.79Zm4.46-.66a2.16,2.16,0,0,0-2.16-2.42c-1.4,0-2.14,1.12-2.3,2.42Z"/><path class="cls-1" d="M69.74,191.16c0,1.48.78,2.7,2.29,2.7a2,2,0,0,0,2.08-1.57H75a2.85,2.85,0,0,1-3,2.29c-2.19,0-3.14-1.56-3.14-3.58s1.19-3.63,3.14-3.63,3,1.33,3,3.79Zm4.46-.66A2.16,2.16,0,0,0,72,188.08c-1.39,0-2.13,1.12-2.29,2.42Z"/><path class="cls-1" d="M77.8,197.08H77v-9.53h.79v1.21h0a2.74,2.74,0,0,1,2.37-1.39c2.21,0,3.09,1.57,3.09,3.59s-1,3.62-3.05,3.62a2.85,2.85,0,0,1-2.44-1.28Zm2.31-3.22c1.64,0,2.4-1.38,2.34-3.1s-1-2.68-2.34-2.68c-1.49,0-2.31,1.27-2.31,2.92S78.67,193.86,80.11,193.86Z"/><path class="cls-1" d="M85.77,192.25a1.78,1.78,0,0,0,2,1.61c1.15,0,1.69-.6,1.69-1.26,0-2-4.39-.58-4.39-3.28,0-1.13.89-1.95,2.41-1.95a2.31,2.31,0,0,1,2.64,2.15h-.81c-.14-1.06-.86-1.44-1.85-1.44s-1.54.48-1.54,1.18c0,1.86,4.38.7,4.38,3.32,0,1.31-1.17,2-2.78,2a2.4,2.4,0,0,1-2.6-2.33Z"/><path class="cls-1" d="M98.64,194.42a3.87,3.87,0,0,1-.91.16c-.78,0-1.22-.35-1.22-1.36v-5h-1v-.66h1v-1.9h.79v1.9h1.29v.66H97.3v4.69c0,.67,0,1,.69,1a2.91,2.91,0,0,0,.65-.09Z"/><path class="cls-1" d="M100.23,194.39v-9.5h.8v3.61a2.89,2.89,0,0,1,2.2-1.13,2.38,2.38,0,0,1,2.09,1,2.58,2.58,0,0,1,.34,1.57v4.47h-.79v-4.46c0-1.23-.5-1.85-1.77-1.85a2,2,0,0,0-1.9,1.34,3.45,3.45,0,0,0-.17,1.29v3.68Z"/><path class="cls-1" d="M108,186.06v-1.17h.87v1.17Zm0,8.33v-6.84h.79v6.84Z"/><path class="cls-1" d="M111.62,192.25a1.78,1.78,0,0,0,2,1.61c1.15,0,1.69-.6,1.69-1.26,0-2-4.38-.58-4.38-3.28,0-1.13.88-1.95,2.4-1.95a2.31,2.31,0,0,1,2.64,2.15h-.81c-.14-1.06-.86-1.44-1.85-1.44s-1.54.48-1.54,1.18c0,1.86,4.38.7,4.38,3.32,0,1.31-1.17,2-2.78,2a2.4,2.4,0,0,1-2.6-2.33Z"/><path class="cls-1" d="M123,197.08h-.79v-9.53H123v1.21h0a2.74,2.74,0,0,1,2.37-1.39c2.21,0,3.09,1.57,3.09,3.59s-1,3.62-3.05,3.62A2.85,2.85,0,0,1,123,193.3Zm2.31-3.22c1.64,0,2.4-1.38,2.34-3.1s-1-2.68-2.34-2.68c-1.49,0-2.31,1.27-2.31,2.92S123.84,193.86,125.28,193.86Z"/><path class="cls-1" d="M131.31,194.39h-.79v-6.84h.79v1.28h0a2.06,2.06,0,0,1,2.23-1.46v.86c-1.78,0-2.26,1.28-2.26,2.81Z"/><path class="cls-1" d="M135.28,186.06v-1.17h.87v1.17Zm0,8.33v-6.84h.79v6.84Z"/><path class="cls-1" d="M137.74,187.55h.85l2.22,5.86,2.22-5.86h.86l-2.66,6.84h-.88Z"/><path class="cls-1" d="M148.53,190.4a3.64,3.64,0,0,0,1-.22c.27-.12.29-.47.29-.71,0-.81-.47-1.39-1.7-1.39s-1.85.36-2,1.55h-.81c.12-1.61,1.32-2.26,2.82-2.26s2.48.54,2.48,2.12v3.73c0,.62.15.76.83.52v.62a2.19,2.19,0,0,1-.62.14,2.09,2.09,0,0,1-.36,0c-.53-.08-.62-.54-.63-1a3.36,3.36,0,0,1-2.55,1.14,2,2,0,0,1-2.28-2c0-1.15.79-1.85,2.39-2.06Zm1.33.4a6.29,6.29,0,0,1-2,.38c-1.2.1-1.93.53-1.93,1.46s.73,1.22,1.48,1.22c1.25,0,2.49-.6,2.49-2Z"/><path class="cls-1" d="M155.46,194.42a3.87,3.87,0,0,1-.91.16c-.78,0-1.22-.35-1.22-1.36v-5h-1v-.66h1v-1.9h.8v1.9h1.28v.66h-1.28v4.69c0,.67,0,1,.68,1a2.91,2.91,0,0,0,.65-.09Z"/><path class="cls-1" d="M157.54,191.16c0,1.48.78,2.7,2.3,2.7a2,2,0,0,0,2.07-1.57h.89a2.87,2.87,0,0,1-3,2.29c-2.19,0-3.14-1.56-3.14-3.58s1.19-3.63,3.14-3.63,3,1.33,3,3.79Zm4.46-.66a2.16,2.16,0,0,0-2.16-2.42c-1.4,0-2.14,1.12-2.3,2.42Z"/><path class="cls-1" d="M168.67,194.39v-9.5h.79v5.91l3.35-3.25h1.08L171.33,190l2.87,4.37h-.89l-2.56-3.81-1.29,1.22v2.59Z"/><path class="cls-1" d="M176.14,191.16c0,1.48.78,2.7,2.29,2.7a2,2,0,0,0,2.08-1.57h.88a2.86,2.86,0,0,1-3,2.29c-2.19,0-3.14-1.56-3.14-3.58s1.19-3.63,3.14-3.63,3,1.33,3,3.79Zm4.46-.66a2.16,2.16,0,0,0-2.17-2.42c-1.4,0-2.13,1.12-2.29,2.42Z"/><path class="cls-1" d="M183.26,196.25a3.61,3.61,0,0,0,.66.08c.9,0,1-1.29,1.34-1.89l-2.66-6.89h.89l2.19,5.88,2.19-5.88h.86l-2.55,6.75c-.65,1.71-1.07,2.78-2.17,2.78a3.35,3.35,0,0,1-.75-.09Z"/><path class="cls-1" d="M60.19,201.9v-1.18h.87v1.18Zm0,8.33v-6.84H61v6.84Z"/><path class="cls-1" d="M64.16,210.23h-.79v-6.84h.79v1a2.93,2.93,0,0,1,2.21-1.14,2.39,2.39,0,0,1,2.08,1,2.6,2.6,0,0,1,.35,1.57v4.48H68v-4.46c0-1.23-.5-1.85-1.76-1.85a2,2,0,0,0-1.91,1.33,3.73,3.73,0,0,0-.17,1.29Z"/><path class="cls-1" d="M78.18,206.24a4.47,4.47,0,0,0,1-.22c.26-.12.29-.48.29-.72,0-.8-.47-1.38-1.7-1.38s-1.85.35-2,1.54H75c.12-1.61,1.32-2.26,2.81-2.26s2.48.55,2.48,2.13v3.72c0,.62.16.77.83.53v.62a2.15,2.15,0,0,1-.62.13,1.34,1.34,0,0,1-.35,0c-.53-.08-.62-.54-.64-1A3.33,3.33,0,0,1,77,210.41a2,2,0,0,1-2.29-2c0-1.14.79-1.84,2.39-2.05Zm1.33.4a6.63,6.63,0,0,1-2.05.38c-1.2.09-1.92.53-1.92,1.45s.72,1.23,1.48,1.23c1.25,0,2.49-.61,2.49-2Z"/><path class="cls-1" d="M87.16,208.09a1.79,1.79,0,0,0,2,1.61c1.15,0,1.69-.61,1.69-1.27,0-2-4.38-.58-4.38-3.27,0-1.14.88-2,2.4-2a2.31,2.31,0,0,1,2.64,2.16h-.81c-.14-1.06-.85-1.44-1.84-1.44s-1.55.47-1.55,1.17c0,1.86,4.38.7,4.38,3.33,0,1.3-1.17,2-2.78,2a2.4,2.4,0,0,1-2.6-2.32Z"/><path class="cls-1" d="M96.77,206.24a4.47,4.47,0,0,0,1-.22c.27-.12.29-.48.29-.72,0-.8-.47-1.38-1.7-1.38s-1.85.35-2,1.54H93.6c.12-1.61,1.32-2.26,2.81-2.26s2.49.55,2.49,2.13v3.72c0,.62.15.77.83.53v.62a2.23,2.23,0,0,1-.62.13,1.37,1.37,0,0,1-.36,0c-.53-.08-.62-.54-.63-1a3.35,3.35,0,0,1-2.55,1.13,2,2,0,0,1-2.28-2c0-1.14.79-1.84,2.39-2.05Zm1.33.4a6.62,6.62,0,0,1-2,.38c-1.2.09-1.93.53-1.93,1.45a1.31,1.31,0,0,0,1.48,1.23c1.25,0,2.49-.61,2.49-2Z"/><path class="cls-1" d="M100.61,204.05v-.66h1v-1.08c0-1.09.39-1.77,1.45-1.77a3.47,3.47,0,0,1,.66.05v.73a2.06,2.06,0,0,0-.48-.07c-.82,0-.84.67-.84,1.29v.85h1.32v.66h-1.32v6.18h-.79v-6.18Z"/><path class="cls-1" d="M105.78,207c0,1.48.78,2.71,2.3,2.71a2,2,0,0,0,2.07-1.57H111a2.87,2.87,0,0,1-3,2.28c-2.19,0-3.14-1.56-3.14-3.58s1.19-3.63,3.14-3.63,3,1.34,3,3.79Zm4.46-.66a2.16,2.16,0,0,0-2.16-2.41,2.4,2.4,0,0,0-2.3,2.41Z"/><path class="cls-1" d="M117.84,212.92h-.79v-9.53h.79v1.2h0a2.76,2.76,0,0,1,2.38-1.39c2.2,0,3.08,1.57,3.08,3.59s-1,3.62-3,3.62a2.86,2.86,0,0,1-2.45-1.28Zm2.31-3.22c1.64,0,2.41-1.39,2.34-3.1s-1-2.68-2.34-2.68c-1.49,0-2.31,1.26-2.31,2.91S118.72,209.7,120.15,209.7Z"/><path class="cls-1" d="M125.47,210.23v-9.51h.79v9.51Z"/><path class="cls-1" d="M131.75,206.24a4.67,4.67,0,0,0,1.05-.22c.26-.12.29-.48.29-.72,0-.8-.48-1.38-1.71-1.38s-1.84.35-2,1.54h-.8c.11-1.61,1.32-2.26,2.81-2.26s2.48.55,2.48,2.13v3.72c0,.62.16.77.83.53v.62a2.23,2.23,0,0,1-.62.13,1.42,1.42,0,0,1-.36,0c-.53-.08-.62-.54-.63-1a3.35,3.35,0,0,1-2.55,1.13,2,2,0,0,1-2.28-2c0-1.14.79-1.84,2.39-2.05Zm1.34.4A6.68,6.68,0,0,1,131,207c-1.2.09-1.93.53-1.93,1.45a1.31,1.31,0,0,0,1.48,1.23c1.26,0,2.5-.61,2.5-2Z"/><path class="cls-1" d="M141.12,205.54a2,2,0,0,0-2-1.62c-1.62,0-2.3,1.48-2.3,2.9s.66,2.88,2.3,2.88a2,2,0,0,0,2.1-1.84H142a2.8,2.8,0,0,1-2.94,2.55c-2.18,0-3.14-1.57-3.14-3.59s1.09-3.62,3.14-3.62a2.57,2.57,0,0,1,2.84,2.34Z"/><path class="cls-1" d="M144.43,207c0,1.48.78,2.71,2.3,2.71a2,2,0,0,0,2.07-1.57h.89a2.87,2.87,0,0,1-3,2.28c-2.19,0-3.14-1.56-3.14-3.58s1.19-3.63,3.14-3.63,3,1.34,3,3.79Zm4.46-.66a2.15,2.15,0,0,0-2.16-2.41,2.4,2.4,0,0,0-2.3,2.41Z"/><path class="cls-1" d="M431.94,184.89h.89v5.66c0,2.35.85,3.33,2.79,3.33s2.78-1.09,2.78-3.33v-5.66h.9v5.92c0,2.47-1.23,3.83-3.68,3.83s-3.68-1.4-3.68-3.83Z"/><path class="cls-1" d="M442.12,192.25a1.78,1.78,0,0,0,2.05,1.61c1.15,0,1.69-.6,1.69-1.26,0-2-4.38-.58-4.38-3.28,0-1.13.88-1.95,2.4-1.95a2.31,2.31,0,0,1,2.64,2.15h-.81c-.14-1.06-.85-1.44-1.84-1.44s-1.55.48-1.55,1.18c0,1.86,4.38.7,4.38,3.32,0,1.31-1.17,2-2.78,2a2.4,2.4,0,0,1-2.6-2.33Z"/><path class="cls-1" d="M449.08,191.16c0,1.48.78,2.7,2.29,2.7a2,2,0,0,0,2.08-1.57h.88a2.86,2.86,0,0,1-3,2.29c-2.19,0-3.14-1.56-3.14-3.58s1.19-3.63,3.14-3.63,3,1.33,3,3.79Zm4.46-.66a2.16,2.16,0,0,0-2.17-2.42c-1.4,0-2.13,1.12-2.29,2.42Z"/><path class="cls-1" d="M457.09,194.39h-.79v-6.84h.79v1.28h0a2.07,2.07,0,0,1,2.23-1.46v.86c-1.78,0-2.25,1.28-2.25,2.81Z"/><path class="cls-1" d="M469.82,189.71a2,2,0,0,0-2-1.63c-1.62,0-2.3,1.48-2.3,2.91s.66,2.87,2.3,2.87a2,2,0,0,0,2.1-1.83h.84a2.8,2.8,0,0,1-2.94,2.55c-2.18,0-3.14-1.57-3.14-3.59s1.09-3.62,3.14-3.62a2.57,2.57,0,0,1,2.84,2.34Z"/><path class="cls-1" d="M475.79,190.4a3.71,3.71,0,0,0,1-.22c.26-.12.29-.47.29-.71,0-.81-.48-1.39-1.7-1.39s-1.85.36-2,1.55h-.8c.12-1.61,1.32-2.26,2.81-2.26s2.48.54,2.48,2.12v3.73c0,.62.16.76.83.52v.62a2.11,2.11,0,0,1-.62.14,1.87,1.87,0,0,1-.35,0c-.53-.08-.62-.54-.64-1a3.36,3.36,0,0,1-2.55,1.14,2,2,0,0,1-2.28-2c0-1.15.79-1.85,2.39-2.06Zm1.33.4a6.35,6.35,0,0,1-2.05.38c-1.2.1-1.92.53-1.92,1.46s.72,1.22,1.47,1.22c1.26,0,2.5-.6,2.5-2Z"/><path class="cls-1" d="M481.1,194.39h-.79v-6.84h.79v.95a2.92,2.92,0,0,1,2.21-1.13,2.35,2.35,0,0,1,2.08,1,2.59,2.59,0,0,1,.35,1.57v4.47h-.8v-4.46c0-1.23-.5-1.85-1.76-1.85a2,2,0,0,0-1.9,1.34,3.45,3.45,0,0,0-.18,1.29Z"/><path class="cls-1" d="M496.82,189.71a2,2,0,0,0-2-1.63c-1.63,0-2.3,1.48-2.3,2.91s.66,2.87,2.3,2.87a2,2,0,0,0,2.1-1.83h.84a2.81,2.81,0,0,1-2.94,2.55c-2.18,0-3.14-1.57-3.14-3.59s1.09-3.62,3.14-3.62a2.57,2.57,0,0,1,2.84,2.34Z"/><path class="cls-1" d="M499.64,194.39v-9.5h.8v3.61a2.89,2.89,0,0,1,2.2-1.13,2.38,2.38,0,0,1,2.09,1,2.58,2.58,0,0,1,.34,1.57v4.47h-.79v-4.46c0-1.23-.5-1.85-1.77-1.85a2,2,0,0,0-1.9,1.34,3.45,3.45,0,0,0-.17,1.29v3.68Z"/><path class="cls-1" d="M510.45,190.4a3.64,3.64,0,0,0,1-.22c.27-.12.29-.47.29-.71,0-.81-.47-1.39-1.7-1.39s-1.85.36-2,1.55h-.81c.12-1.61,1.32-2.26,2.82-2.26s2.48.54,2.48,2.12v3.73c0,.62.16.76.83.52v.62a2.19,2.19,0,0,1-.62.14,2.09,2.09,0,0,1-.36,0c-.53-.08-.62-.54-.63-1a3.36,3.36,0,0,1-2.55,1.14,2,2,0,0,1-2.28-2c0-1.15.79-1.85,2.39-2.06Zm1.33.4a6.29,6.29,0,0,1-2,.38c-1.2.1-1.93.53-1.93,1.46s.73,1.22,1.48,1.22c1.25,0,2.49-.6,2.49-2Z"/><path class="cls-1" d="M515.77,194.39H515v-6.84h.79v.95a2.89,2.89,0,0,1,2.2-1.13,2.37,2.37,0,0,1,2.09,1,2.58,2.58,0,0,1,.34,1.57v4.47h-.79v-4.46c0-1.23-.5-1.85-1.77-1.85a2,2,0,0,0-1.9,1.34,3.45,3.45,0,0,0-.17,1.29Z"/><path class="cls-1" d="M527.92,187.55h.8v6.18c0,1.84-.61,3.46-3.21,3.46-2,0-2.84-1.15-2.89-2h.84c.24,1,1.11,1.26,2,1.26,2.16,0,2.45-1.61,2.41-3.18a2.83,2.83,0,0,1-2.44,1.28c-2.08,0-3.05-1.71-3.05-3.62s.89-3.59,3.09-3.59a2.76,2.76,0,0,1,2.38,1.39h0Zm-2.31.53c-1.33,0-2.32,1-2.33,2.68s.7,3.1,2.33,3.1c1.44,0,2.31-1.32,2.31-2.86S527.11,188.08,525.61,188.08Z"/><path class="cls-1" d="M531.53,191.16c0,1.48.77,2.7,2.29,2.7a2,2,0,0,0,2.07-1.57h.89a2.87,2.87,0,0,1-3,2.29c-2.19,0-3.14-1.56-3.14-3.58s1.19-3.63,3.14-3.63,3,1.33,3,3.79Zm4.46-.66a2.16,2.16,0,0,0-2.17-2.42,2.39,2.39,0,0,0-2.29,2.42Z"/><path class="cls-1" d="M542.78,194.39v-9.5h3.47c2.47,0,3.1,1.23,3.1,2.65,0,2.13-1.88,2.65-3.64,2.65h-2v4.2Zm3-5c1.67,0,2.72-.34,2.72-2,0-1.19-.77-1.83-2.46-1.83h-2.32v3.78Z"/><path class="cls-1" d="M551.53,194.39v-9.5h.9v9.5Z"/><path class="cls-1" d="M556.11,186.1h0v8.29h-.89v-9.5h1l5.49,8.3h0v-8.3h.9v9.5h-1Z"/><path class="cls-1" d="M569.07,194.39v-9.5h.79v9.5Z"/><path class="cls-1" d="M575.35,190.4a3.64,3.64,0,0,0,1-.22c.27-.12.29-.47.29-.71,0-.81-.47-1.39-1.7-1.39s-1.85.36-2,1.55h-.81c.12-1.61,1.32-2.26,2.81-2.26s2.48.54,2.48,2.12v3.73c0,.62.16.76.84.52v.62a2.19,2.19,0,0,1-.62.14,2,2,0,0,1-.36,0c-.53-.08-.62-.54-.63-1a3.36,3.36,0,0,1-2.55,1.14,2,2,0,0,1-2.28-2c0-1.15.79-1.85,2.38-2.06Zm1.33.4a6.34,6.34,0,0,1-2,.38c-1.2.1-1.93.53-1.93,1.46s.73,1.22,1.48,1.22c1.25,0,2.49-.6,2.49-2Z"/><path class="cls-1" d="M582.28,194.42a3.87,3.87,0,0,1-.91.16c-.78,0-1.22-.35-1.22-1.36v-5h-1v-.66h1v-1.9h.79v1.9h1.28v.66h-1.28v4.69c0,.67,0,1,.69,1a2.91,2.91,0,0,0,.65-.09Z"/><path class="cls-1" d="M584.36,191.16c0,1.48.78,2.7,2.3,2.7a2,2,0,0,0,2.07-1.57h.88a2.85,2.85,0,0,1-3,2.29c-2.19,0-3.14-1.56-3.14-3.58s1.18-3.63,3.14-3.63,3,1.33,3,3.79Zm4.46-.66a2.16,2.16,0,0,0-2.16-2.42c-1.4,0-2.14,1.12-2.3,2.42Z"/><path class="cls-1" d="M592.37,194.39h-.79v-6.84h.79v1.28h0a2.06,2.06,0,0,1,2.23-1.46v.86c-1.78,0-2.26,1.28-2.26,2.81Z"/><path class="cls-1" d="M438.89,201.9v-1.18h.87v1.18Zm0,8.33v-6.84h.79v6.84Z"/><path class="cls-1" d="M441.38,204.05v-.66h1v-1.08c0-1.09.4-1.77,1.45-1.77a3.47,3.47,0,0,1,.66.05v.73a2.06,2.06,0,0,0-.47-.07c-.82,0-.85.67-.85,1.29v.85h1.32v.66h-1.32v6.18h-.79v-6.18Z"/><path class="cls-1" d="M455.35,200.72h.79v9.51h-.79V209h0a2.74,2.74,0,0,1-2.37,1.39c-2.21,0-3.09-1.57-3.09-3.59s1-3.62,3.05-3.62a2.85,2.85,0,0,1,2.44,1.28Zm-2.31,3.2c-1.64,0-2.41,1.38-2.34,3.1s1,2.68,2.34,2.68,2.31-1.27,2.31-2.92S454.48,203.92,453,203.92Z"/><path class="cls-1" d="M459,207c0,1.48.78,2.71,2.29,2.71a2,2,0,0,0,2.08-1.57h.88a2.85,2.85,0,0,1-3,2.28c-2.19,0-3.14-1.56-3.14-3.58s1.19-3.63,3.14-3.63,3,1.34,3,3.79Zm4.46-.66a2.16,2.16,0,0,0-2.17-2.41,2.4,2.4,0,0,0-2.29,2.41Z"/><path class="cls-1" d="M465.4,203.39h.86l2.22,5.86,2.21-5.86h.86l-2.65,6.84H468Z"/><path class="cls-1" d="M473.13,201.9v-1.18H474v1.18Zm0,8.33v-6.84h.8v6.84Z"/><path class="cls-1" d="M481.16,205.54a2,2,0,0,0-2-1.62c-1.63,0-2.3,1.48-2.3,2.9s.66,2.88,2.3,2.88a2,2,0,0,0,2.09-1.84h.85a2.81,2.81,0,0,1-2.94,2.55c-2.18,0-3.15-1.57-3.15-3.59s1.1-3.62,3.15-3.62a2.56,2.56,0,0,1,2.83,2.34Z"/><path class="cls-1" d="M484.47,207c0,1.48.78,2.71,2.3,2.71a2,2,0,0,0,2.07-1.57h.88a2.85,2.85,0,0,1-3,2.28c-2.2,0-3.15-1.56-3.15-3.58s1.19-3.63,3.15-3.63,3,1.34,3,3.79Zm4.46-.66a2.16,2.16,0,0,0-2.16-2.41,2.4,2.4,0,0,0-2.3,2.41Z"/><path class="cls-1" d="M495.73,201.9v-1.18h.87v1.18Zm0,8.33v-6.84h.79v6.84Z"/><path class="cls-1" d="M499.37,208.09a1.79,1.79,0,0,0,2,1.61c1.15,0,1.69-.61,1.69-1.27,0-2-4.38-.58-4.38-3.27,0-1.14.88-2,2.4-2a2.31,2.31,0,0,1,2.64,2.16H503a1.61,1.61,0,0,0-1.85-1.44c-1,0-1.54.47-1.54,1.17,0,1.86,4.38.7,4.38,3.33,0,1.3-1.18,2-2.79,2a2.4,2.4,0,0,1-2.6-2.32Z"/><path class="cls-1" d="M510,210.23v-9.51h.79v9.51Z"/><path class="cls-1" d="M512.64,206.81c0-2,1.06-3.61,3.17-3.61s3.17,1.6,3.17,3.61c0,2.16-1.26,3.6-3.17,3.6C514.07,210.38,512.64,209.2,512.64,206.81Zm3.17-2.89c-1.66,0-2.32,1.41-2.32,2.89,0,1.7.8,2.89,2.32,2.89s2.32-1.43,2.32-2.89C518.12,205.2,517.49,203.92,515.81,203.92Z"/><path class="cls-1" d="M521.22,208.09a1.79,1.79,0,0,0,2,1.61c1.14,0,1.68-.61,1.68-1.27,0-2-4.38-.58-4.38-3.27,0-1.14.89-2,2.41-2a2.31,2.31,0,0,1,2.64,2.16h-.81a1.61,1.61,0,0,0-1.85-1.44c-1,0-1.54.47-1.54,1.17,0,1.86,4.38.7,4.38,3.33,0,1.3-1.18,2-2.79,2a2.4,2.4,0,0,1-2.6-2.32Z"/><path class="cls-1" d="M530.09,210.25a3.87,3.87,0,0,1-.91.16c-.78,0-1.22-.34-1.22-1.36v-5h-1v-.66h1v-1.9h.79v1.9H530v.66h-1.28v4.68c0,.68,0,1,.69,1a2.91,2.91,0,0,0,.65-.09Z"/><path class="cls-1" d="M535.23,206.81c0-2,1.06-3.61,3.17-3.61s3.17,1.6,3.17,3.61c0,2.16-1.25,3.6-3.17,3.6C536.66,210.38,535.23,209.2,535.23,206.81Zm3.17-2.89c-1.66,0-2.32,1.41-2.32,2.89,0,1.7.8,2.89,2.32,2.89s2.32-1.43,2.32-2.89C540.71,205.2,540.08,203.92,538.4,203.92Z"/><path class="cls-1" d="M544.18,210.23h-.79v-6.84h.79v1.28h0a2.06,2.06,0,0,1,2.23-1.47v.86c-1.78,0-2.26,1.28-2.26,2.81Z"/><path class="cls-1" d="M552.53,208.09a1.79,1.79,0,0,0,2.05,1.61c1.15,0,1.69-.61,1.69-1.27,0-2-4.38-.58-4.38-3.27,0-1.14.88-2,2.4-2a2.31,2.31,0,0,1,2.64,2.16h-.81c-.14-1.06-.85-1.44-1.84-1.44s-1.55.47-1.55,1.17c0,1.86,4.38.7,4.38,3.33,0,1.3-1.17,2-2.78,2a2.4,2.4,0,0,1-2.6-2.32Z"/><path class="cls-1" d="M561.4,210.25a3.77,3.77,0,0,1-.91.16c-.78,0-1.21-.34-1.21-1.36v-5h-1v-.66h1v-1.9h.79v1.9h1.28v.66h-1.28v4.68c0,.68,0,1,.68,1a2.83,2.83,0,0,0,.65-.09Z"/><path class="cls-1" d="M562.55,206.81c0-2,1.06-3.61,3.17-3.61s3.16,1.6,3.16,3.61c0,2.16-1.25,3.6-3.16,3.6C564,210.38,562.55,209.2,562.55,206.81Zm3.17-2.89c-1.67,0-2.33,1.41-2.33,2.89,0,1.7.81,2.89,2.33,2.89s2.32-1.43,2.32-2.89C568,205.2,567.39,203.92,565.72,203.92Z"/><path class="cls-1" d="M570.78,210.23v-9.51h.8v9.51Z"/><path class="cls-1" d="M574.41,207c0,1.48.78,2.71,2.3,2.71a2,2,0,0,0,2.07-1.57h.88a2.85,2.85,0,0,1-2.95,2.28c-2.19,0-3.14-1.56-3.14-3.58s1.19-3.63,3.14-3.63,3,1.34,3,3.79Zm4.46-.66a2.16,2.16,0,0,0-2.16-2.41,2.4,2.4,0,0,0-2.3,2.41Z"/><path class="cls-1" d="M582.38,210.23h-.79v-6.84h.79v1a2.93,2.93,0,0,1,2.21-1.14,2.39,2.39,0,0,1,2.08,1,2.6,2.6,0,0,1,.35,1.57v4.48h-.8v-4.46c0-1.23-.5-1.85-1.77-1.85a2,2,0,0,0-1.9,1.33,3.73,3.73,0,0,0-.17,1.29Z"/><path class="cls-2" d="M99.72,69.11H98.36c.25-1.32.46-3,2.06-3.32l-.09.58a1.71,1.71,0,0,0-1,1.32h.71Zm2.61,0H101c.26-1.32.47-3,2.06-3.32l-.09.58c-.57.16-.84.79-1,1.32h.71Z"/><path class="cls-2" d="M105.63,65.79h1.27l-.83,3.9h4.59l.83-3.9h1.27l-2,9.47h-1.26l1-4.46h-4.6l-1,4.46h-1.26Z"/><path class="cls-2" d="M114.61,72.15a1.65,1.65,0,0,0-.06.46c0,1.14.5,1.84,1.65,1.84a2.09,2.09,0,0,0,2-1.4h1.15a3.19,3.19,0,0,1-3.22,2.43c-1.68,0-2.67-1.17-2.67-3,0-2.27,1.34-4.38,3.59-4.38A2.57,2.57,0,0,1,119.69,71a9.21,9.21,0,0,1-.06,1.15Zm4-.87V71c0-1.33-.77-1.78-1.59-1.78a2.38,2.38,0,0,0-2.2,2.1Z"/><path class="cls-2" d="M122.72,65.79h1.19l-2,9.47h-1.14Z"/><path class="cls-2" d="M126,65.79h1.19l-2,9.47H124Z"/><path class="cls-2" d="M131.38,68.15a2.59,2.59,0,0,1,2.64,2.9c0,1.24-.77,4.43-3.78,4.43a2.56,2.56,0,0,1-2.7-2.87C127.54,70.31,128.88,68.15,131.38,68.15Zm-1,6.37c1.84,0,2.5-2.32,2.5-3.52,0-1.37-.77-1.9-1.57-1.9-1.72,0-2.54,2.05-2.54,3.54C128.72,73.67,129.23,74.52,130.33,74.52Z"/><path class="cls-2" d="M141.34,65.79h1.27l-2,9.47h-1.27Z"/><path class="cls-2" d="M152.73,73.44a3.5,3.5,0,0,0-.11.62.43.43,0,0,0,.49.43l.28,0-.17.84a4.76,4.76,0,0,1-.65.06,1,1,0,0,1-1.06-.87h0a2.38,2.38,0,0,1-2.13,1,2,2,0,0,1-2.16-2,2.24,2.24,0,0,1,2.37-2.3l1.61-.1c.91-.07,1.11-.44,1.11-1s-.53-1-1.49-1-1.57.41-1.67,1.25H148c.22-1.57,1.5-2.2,3-2.2,1.11,0,2.5.28,2.5,1.65a5.7,5.7,0,0,1-.22,1.33ZM152,71.79a8.5,8.5,0,0,1-2,.28c-1,.09-1.57.59-1.57,1.35a1.07,1.07,0,0,0,1.21,1.1C151.07,74.52,151.7,73.42,152,71.79Z"/><path class="cls-2" d="M156.07,68.36h1.05l-.28,1.2a3,3,0,0,1,2.32-1.34,1.51,1.51,0,0,1,1.62,1.26,3.21,3.21,0,0,1,2.43-1.28,1.53,1.53,0,0,1,1.69,1.48,6.72,6.72,0,0,1-.19,1.28l-.92,4.3H162.6l.92-4.32a4.6,4.6,0,0,0,.14-1c0-.53-.33-.72-.82-.72a2.66,2.66,0,0,0-2.22,2l-.87,4H158.6l.91-4.27a4.83,4.83,0,0,0,.13-.9.75.75,0,0,0-.84-.84,2.67,2.67,0,0,0-2.18,2l-.88,4h-1.13Z"/><path class="cls-2" d="M173.68,65.79l-1.24,5.62a6.8,6.8,0,0,0-.25,1.54c0,1.21,1.32,1.47,2.15,1.47,1.71,0,2.21-1.18,2.52-2.63l1.32-6h1.28l-1.32,6.06c-.46,2.08-1.3,3.65-3.84,3.65-1.61,0-3.35-.7-3.35-2.65a12.15,12.15,0,0,1,.34-1.93l1.11-5.13Z"/><path class="cls-2" d="M184.68,70.57a1.33,1.33,0,0,0-1.48-1.47c-.57,0-1.38.24-1.38,1,0,.54.57.77,1,1l1.32.57a1.76,1.76,0,0,1,1.17,1.57c0,1.64-1.32,2.29-2.7,2.29-1.75,0-2.77-.77-2.77-2.63h1.11c0,1.17.38,1.67,1.78,1.67.75,0,1.47-.35,1.47-1,0-.51-.32-.74-.72-.92L182.23,72c-.84-.39-1.51-.79-1.51-1.88a2.2,2.2,0,0,1,2.42-2c1.67,0,2.64.77,2.64,2.42Z"/><path class="cls-2" d="M188.22,72.15a1.66,1.66,0,0,0-.05.46c0,1.14.5,1.84,1.65,1.84a2.1,2.1,0,0,0,2-1.4H193a3.19,3.19,0,0,1-3.22,2.43c-1.68,0-2.67-1.17-2.67-3,0-2.27,1.34-4.38,3.59-4.38A2.57,2.57,0,0,1,193.31,71a9.21,9.21,0,0,1-.06,1.15Zm4-.87V71c0-1.33-.77-1.78-1.59-1.78a2.38,2.38,0,0,0-2.2,2.1Z"/><path class="cls-2" d="M195.87,68.37H197l-.29,1.39s.46-.61.55-.71a2.16,2.16,0,0,1,1.59-.81l.33,0-.24,1.27c-.12,0-.25,0-.38,0-1.32,0-2.06,1.47-2.21,2.27l-.75,3.48H194.4Z"/><path class="cls-2" d="M209.44,65.79,211,75.26h-1.26l-.41-2.73h-3.84l-1.39,2.73h-1.43l5.16-9.47Zm-1,1.19h0l-2.39,4.52h3.1Z"/><path class="cls-2" d="M92.32,81.62h1.27l-2,9.48H90.32Z"/><path class="cls-2" d="M103.71,89.28a4.09,4.09,0,0,0-.1.62c0,.24.17.42.49.42a1.24,1.24,0,0,0,.27,0l-.17.85a4.62,4.62,0,0,1-.65,0,1,1,0,0,1-1-.87h0a2.36,2.36,0,0,1-2.12,1,2,2,0,0,1-2.17-2A2.23,2.23,0,0,1,100.56,87l1.61-.11c.91-.06,1.11-.43,1.11-1s-.53-1-1.49-1-1.58.4-1.68,1.25H99c.23-1.57,1.51-2.21,3-2.21,1.11,0,2.51.28,2.51,1.66a6,6,0,0,1-.23,1.33Zm-.78-1.65a8,8,0,0,1-2,.27c-1,.1-1.57.6-1.57,1.35a1.07,1.07,0,0,0,1.21,1.11C102.05,90.36,102.68,89.25,102.93,87.63Z"/><path class="cls-2" d="M107.05,84.2h1.06l-.28,1.2a3,3,0,0,1,2.31-1.35,1.51,1.51,0,0,1,1.62,1.27A3.25,3.25,0,0,1,114.19,84a1.53,1.53,0,0,1,1.69,1.48,6.68,6.68,0,0,1-.18,1.28l-.93,4.3h-1.19l.93-4.33a5,5,0,0,0,.13-1c0-.53-.33-.73-.82-.73a2.67,2.67,0,0,0-2.22,2l-.87,4h-1.15l.92-4.28a4.75,4.75,0,0,0,.13-.89.77.77,0,0,0-.85-.85,2.69,2.69,0,0,0-2.18,2l-.88,4H105.6Z"/><path class="cls-2" d="M126.7,89.28a3.35,3.35,0,0,0-.11.62.43.43,0,0,0,.49.42,1.27,1.27,0,0,0,.28,0l-.17.85a4.74,4.74,0,0,1-.65,0,.94.94,0,0,1-1.05-.87h0a2.38,2.38,0,0,1-2.13,1,2,2,0,0,1-2.16-2A2.23,2.23,0,0,1,123.55,87l1.61-.11c.91-.06,1.1-.43,1.1-1s-.52-1-1.49-1-1.57.4-1.67,1.25H122c.22-1.57,1.5-2.21,3-2.21,1.11,0,2.51.28,2.51,1.66A6,6,0,0,1,127.2,87Zm-.78-1.65a8,8,0,0,1-2,.27c-1,.1-1.57.6-1.57,1.35a1.07,1.07,0,0,0,1.21,1.11C125,90.36,125.67,89.25,125.92,87.63Z"/><path class="cls-2" d="M134.6,82.64a1.53,1.53,0,0,1,1.67-1.12,3.39,3.39,0,0,1,.7.08l-.21,1-.45,0c-.56,0-.65.32-.72.61l-.25,1h1.2l-.22,1h-1.16l-1.27,5.93h-1.11L134,85.17h-1l.18-1h1Z"/><path class="cls-2" d="M142.36,89.28a4.09,4.09,0,0,0-.1.62c0,.24.17.42.49.42a1.24,1.24,0,0,0,.27,0l-.17.85a4.62,4.62,0,0,1-.65,0,1,1,0,0,1-1-.87h0a2.36,2.36,0,0,1-2.12,1,2,2,0,0,1-2.17-2A2.24,2.24,0,0,1,139.21,87l1.61-.11c.91-.06,1.11-.43,1.11-1s-.53-1-1.49-1-1.57.4-1.68,1.25h-1.15c.23-1.57,1.51-2.21,3-2.21,1.11,0,2.51.28,2.51,1.66a6.49,6.49,0,0,1-.22,1.33Zm-.78-1.65a8,8,0,0,1-2,.27c-1,.1-1.57.6-1.57,1.35a1.08,1.08,0,0,0,1.22,1.11C140.7,90.36,141.33,89.25,141.58,87.63Z"/><path class="cls-2" d="M145.73,84.2h1.12l-.22,1.09a3.23,3.23,0,0,1,2.46-1.24,1.59,1.59,0,0,1,1.77,1.53,6.64,6.64,0,0,1-.17,1.27l-.9,4.25H148.6l.92-4.22a4.89,4.89,0,0,0,.14-.89c0-.57-.29-.9-1.06-.9a2.75,2.75,0,0,0-2.37,2.23l-.82,3.78h-1.15Z"/><path class="cls-2" d="M160,84a2.6,2.6,0,0,1,2.64,2.91c0,1.24-.77,4.42-3.78,4.42a2.55,2.55,0,0,1-2.7-2.86C156.17,86.15,157.51,84,160,84Zm-1,6.38c1.84,0,2.5-2.32,2.5-3.52,0-1.38-.77-1.9-1.57-1.9-1.72,0-2.54,2-2.54,3.53C157.35,89.5,157.85,90.36,159,90.36Z"/><path class="cls-2" d="M165.6,82.64a1.52,1.52,0,0,1,1.66-1.12,3.26,3.26,0,0,1,.7.08l-.21,1-.45,0c-.55,0-.64.32-.71.61l-.25,1h1.2l-.22,1h-1.16l-1.27,5.93h-1.11L165,85.17h-1l.18-1h1Z"/><path class="cls-2" d="M175.92,81.83c2,0,2.64,1.38,2.64,3.21,0,2.21-1.09,6.27-3.87,6.27-2.29,0-2.73-1.61-2.73-3.26C172,85.82,173,81.83,175.92,81.83Zm-1.23,8.53c1.69,0,2.68-3.33,2.68-5.33,0-1-.16-2.25-1.46-2.25-1.9,0-2.76,3.67-2.76,5.3C173.15,90,173.86,90.36,174.69,90.36Z"/><path class="cls-2" d="M185.54,88.55a3.45,3.45,0,0,1-3.34,2.76,2.56,2.56,0,0,1-2.7-2.86c0-2.3,1.34-4.47,3.84-4.47A2.44,2.44,0,0,1,186,86.52h-1.19a1.46,1.46,0,0,0-1.57-1.5c-1.72,0-2.54,2-2.54,3.45a1.62,1.62,0,0,0,1.61,1.81,2.22,2.22,0,0,0,2.06-1.73Z"/><path class="cls-2" d="M189,81.62h1.16l-.84,3.67a3.25,3.25,0,0,1,2.47-1.24,1.58,1.58,0,0,1,1.76,1.53,6.64,6.64,0,0,1-.17,1.27l-.89,4.25h-1.19l.91-4.22a4.89,4.89,0,0,0,.14-.89c0-.57-.29-.9-1-.9a2.76,2.76,0,0,0-2.38,2.23l-.82,3.78h-1.14Z"/><path class="cls-2" d="M200.36,89.28a3.35,3.35,0,0,0-.11.62.43.43,0,0,0,.49.42,1.27,1.27,0,0,0,.28,0l-.17.85a4.74,4.74,0,0,1-.65,0,.94.94,0,0,1-1-.87h0a2.38,2.38,0,0,1-2.13,1,2,2,0,0,1-2.16-2A2.23,2.23,0,0,1,197.21,87l1.61-.11c.91-.06,1.1-.43,1.1-1s-.52-1-1.49-1-1.57.4-1.67,1.25h-1.15c.22-1.57,1.5-2.21,3-2.21,1.11,0,2.51.28,2.51,1.66a6,6,0,0,1-.23,1.33Zm-.78-1.65a8,8,0,0,1-2,.27c-1,.1-1.57.6-1.57,1.35a1.07,1.07,0,0,0,1.21,1.11C198.7,90.36,199.33,89.25,199.58,87.63Z"/><path class="cls-2" d="M203.71,84.2h1.19l-1.47,6.9h-1.18Zm.55-2.58h1.19L205.16,83H204Z"/><path class="cls-2" d="M207,84.2h1.12l-.22,1.09a3.25,3.25,0,0,1,2.47-1.24,1.59,1.59,0,0,1,1.77,1.53,7.57,7.57,0,0,1-.17,1.27l-.9,4.25h-1.19l.91-4.22a5.17,5.17,0,0,0,.15-.89c0-.57-.29-.9-1.06-.9a2.77,2.77,0,0,0-2.38,2.23l-.81,3.78h-1.15Z"/><path class="cls-2" d="M215.18,81.62h1.36c-.25,1.32-.46,3-2.06,3.33l.09-.58a1.71,1.71,0,0,0,1-1.32h-.71Zm2.61,0h1.36c-.25,1.32-.46,3-2.06,3.33l.09-.58a1.71,1.71,0,0,0,1-1.32h-.71Z"/><path class="cls-1" d="M332.85,27.74a1.78,1.78,0,0,0,2,1.61c1.15,0,1.69-.6,1.69-1.26,0-2-4.38-.59-4.38-3.28,0-1.13.88-1.95,2.4-1.95A2.31,2.31,0,0,1,337.24,25h-.8a1.61,1.61,0,0,0-1.85-1.44c-1,0-1.55.48-1.55,1.18,0,1.86,4.39.7,4.39,3.32,0,1.31-1.18,2-2.79,2a2.4,2.4,0,0,1-2.6-2.32Z"/><path class="cls-1" d="M340.2,32.57h-.8V23h.8v1.2h0a2.78,2.78,0,0,1,2.38-1.38c2.2,0,3.09,1.57,3.09,3.59s-1,3.61-3.05,3.61a2.82,2.82,0,0,1-2.44-1.28Zm2.31-3.22c1.63,0,2.4-1.38,2.33-3.1s-1-2.68-2.33-2.68c-1.5,0-2.31,1.27-2.31,2.92S341.07,29.35,342.51,29.35Z"/><path class="cls-1" d="M347.82,29.88v-9.5h.8v9.5Z"/><path class="cls-1" d="M351,21.55V20.38h.87v1.17Zm0,8.33V23h.79v6.84Z"/><path class="cls-1" d="M356.63,29.91a4,4,0,0,1-.91.15c-.78,0-1.22-.34-1.22-1.35v-5h-1V23h1v-1.9h.79V23h1.28v.66h-1.28v4.69c0,.67,0,1,.69,1a3,3,0,0,0,.65-.09Z"/><path class="cls-1" d="M358.62,29.88V28.72h1v1.16Z"/><path class="cls-1" d="M362.17,29.88v-9.5H363v5.91L366.31,23h1.08l-2.56,2.47,2.87,4.37h-.89l-2.56-3.81L363,27.29v2.59Z"/><path class="cls-1" d="M369.64,26.65c0,1.48.78,2.7,2.29,2.7A2,2,0,0,0,374,27.78h.88a2.85,2.85,0,0,1-3,2.28c-2.19,0-3.14-1.55-3.14-3.57s1.19-3.63,3.14-3.63,3,1.33,3,3.79ZM374.1,26a2.16,2.16,0,0,0-2.17-2.42c-1.4,0-2.13,1.12-2.29,2.42Z"/><path class="cls-1" d="M376.76,31.74a3.61,3.61,0,0,0,.66.08c.9,0,1-1.29,1.34-1.89L376.1,23H377l2.19,5.88L381.37,23h.86l-2.55,6.75c-.65,1.71-1.07,2.78-2.17,2.78a3.35,3.35,0,0,1-.75-.09Z"/><path class="cls-1" d="M386.78,23h-2.4v-.55c1.41-.09,2.29-.24,2.57-1.83h.67v9.3h-.84Z"/><path class="cls-1" d="M485,27.74a1.78,1.78,0,0,0,2,1.61c1.15,0,1.69-.6,1.69-1.26,0-2-4.38-.59-4.38-3.28,0-1.13.88-1.95,2.4-1.95A2.31,2.31,0,0,1,489.38,25h-.81c-.14-1.06-.85-1.44-1.84-1.44s-1.55.48-1.55,1.18c0,1.86,4.38.7,4.38,3.32,0,1.31-1.17,2-2.78,2a2.39,2.39,0,0,1-2.6-2.32Z"/><path class="cls-1" d="M492.33,32.57h-.79V23h.79v1.2h0a2.76,2.76,0,0,1,2.38-1.38c2.2,0,3.08,1.57,3.08,3.59s-1,3.61-3,3.61a2.83,2.83,0,0,1-2.45-1.28Zm2.31-3.22c1.64,0,2.41-1.38,2.34-3.1s-1-2.68-2.34-2.68-2.31,1.27-2.31,2.92S493.2,29.35,494.64,29.35Z"/><path class="cls-1" d="M500,29.88v-9.5h.79v9.5Z"/><path class="cls-1" d="M503.18,21.55V20.38h.87v1.17Zm0,8.33V23H504v6.84Z"/><path class="cls-1" d="M508.76,29.91a3.86,3.86,0,0,1-.91.15c-.78,0-1.21-.34-1.21-1.35v-5h-1V23h1v-1.9h.79V23h1.28v.66h-1.28v4.69c0,.67,0,1,.69,1a2.82,2.82,0,0,0,.64-.09Z"/><path class="cls-1" d="M510.75,29.88V28.72h1v1.16Z"/><path class="cls-1" d="M514.3,29.88v-9.5h.8v5.91L518.45,23h1.08L517,25.51l2.86,4.37H519l-2.56-3.81-1.29,1.22v2.59Z"/><path class="cls-1" d="M521.77,26.65c0,1.48.78,2.7,2.3,2.7a2,2,0,0,0,2.07-1.57H527a2.86,2.86,0,0,1-3,2.28c-2.19,0-3.14-1.55-3.14-3.57s1.19-3.63,3.14-3.63,3,1.33,3,3.79Zm4.46-.66a2.16,2.16,0,0,0-2.16-2.42c-1.4,0-2.14,1.12-2.3,2.42Z"/><path class="cls-1" d="M528.9,31.74a3.51,3.51,0,0,0,.66.08c.9,0,1-1.29,1.33-1.89L528.24,23h.88l2.19,5.88,2.2-5.88h.85l-2.54,6.75c-.65,1.71-1.07,2.78-2.17,2.78a3.28,3.28,0,0,1-.75-.09Z"/><path class="cls-1" d="M535.84,23.62a2.85,2.85,0,0,1,3-3,2.56,2.56,0,0,1,2.87,2.57c0,2.47-2.67,3.09-4.06,4.14a2.52,2.52,0,0,0-1.21,1.88h5.19v.71h-6.09a3.27,3.27,0,0,1,.73-2.27c1.94-2.24,4.51-2.22,4.51-4.41a1.87,1.87,0,0,0-2-1.91,2.11,2.11,0,0,0-2,2.33Z"/><path class="cls-1" d="M145.19,148.78A.88.88,0,0,0,144,149c-.17.25-17.15,24.88-53.13,23.8-26.27-.78-40.52-15.92-46.1-23.61L53.09,155l1-1.45-13.48-9.27L45,160l1.69-.47-2.11-7.65c6.48,8.27,21,22,46.23,22.7.79,0,1.56,0,2.34,0,35.38,0,52.13-24.37,52.3-24.62A.88.88,0,0,0,145.19,148.78Z"/><path class="cls-3" d="M282.57,74l-.45,1.24,6.3,2.29H238.83a.66.66,0,1,0,0,1.32h49.59l-6.3,2.3.45,1.24,11.53-4.2Z"/><polygon class="cls-3" points="624.78 74.01 624.33 75.25 630.64 77.54 586.72 77.54 593.02 75.25 592.57 74.01 581.04 78.2 592.57 82.4 593.02 81.16 586.72 78.86 630.64 78.86 624.33 81.16 624.78 82.4 636.31 78.2 624.78 74.01"/><path class="cls-3" d="M460.11,77.54h-4.63V72.91a.66.66,0,0,0-1.32,0v4.63h-4.63a.66.66,0,1,0,0,1.32h4.63V83.5a.66.66,0,0,0,1.32,0V78.86h4.63a.66.66,0,0,0,0-1.32Z"/><path class="cls-2" d="M777,103.13h-.07L669.38,82.46a.37.37,0,0,1-.3-.44l7.26-37.79a.34.34,0,0,1,.16-.24.35.35,0,0,1,.28-.06L784.34,64.58a.37.37,0,0,1,.3.44l-7.26,37.8a.34.34,0,0,1-.16.24A.38.38,0,0,1,777,103.13ZM669.89,81.8l106.82,20.51,7.12-37.06L677,44.74Z"/><path class="cls-2" d="M695.36,71.54,677.94,68.2l3.35-17.42,17.42,3.34ZM679,67.5l15.7,3,3-15.69-15.69-3Z"/><path class="cls-2" d="M708.08,71.46l-1-.19,0-.23c.58.08,1,.09,1.19-.54l.27,0-.72,3.77-.35-.06Z"/><path class="cls-2" d="M712.15,73.26c-.19,1-.6,1.85-1.64,1.65s-1.1-1.14-.9-2.18.55-1.88,1.64-1.67S712.32,72.38,712.15,73.26Zm-1-1.91c-.75-.15-1.09.65-1.25,1.48s-.09,1.65.63,1.79,1.1-.71,1.24-1.47S712,71.5,711.19,71.35Z"/><path class="cls-2" d="M715.26,73.85c-.19,1-.6,1.85-1.63,1.65s-1.11-1.13-.91-2.17.56-1.88,1.65-1.67S715.43,73,715.26,73.85Zm-1-1.91c-.75-.14-1.09.66-1.25,1.49s-.09,1.65.63,1.79,1.1-.71,1.25-1.47S715.1,72.1,714.3,71.94Z"/><path class="cls-2" d="M718.37,74.45c-.19,1-.59,1.85-1.63,1.65s-1.11-1.13-.91-2.17.56-1.88,1.65-1.67S718.54,73.58,718.37,74.45Zm-1-1.91c-.75-.14-1.08.65-1.24,1.49s-.1,1.64.62,1.78,1.1-.7,1.25-1.46S718.21,72.7,717.41,72.54Z"/><path class="cls-2" d="M720.53,73.85l-1-.19,0-.22c.58.07.95.08,1.19-.55l.27,0-.72,3.78-.35-.07Z"/><path class="cls-2" d="M723.64,74.44l-1-.18,0-.23c.58.07.95.08,1.19-.54l.27.05-.72,3.77-.34-.06Z"/><path class="cls-2" d="M726.76,75l-1-.19,0-.22c.59.07.95.08,1.19-.54l.27,0-.72,3.77-.34-.06Z"/><path class="cls-2" d="M730.82,76.84c-.19,1-.59,1.85-1.63,1.65s-1.11-1.13-.91-2.17.56-1.88,1.65-1.67S731,76,730.82,76.84Zm-1-1.91c-.75-.14-1.08.66-1.24,1.49s-.1,1.65.62,1.78,1.1-.7,1.25-1.46S730.66,75.09,729.86,74.93Z"/><path class="cls-2" d="M733.94,77.44c-.2,1-.6,1.85-1.64,1.65s-1.11-1.13-.91-2.18S732,75,733,75.24,734.1,76.56,733.94,77.44Zm-1-1.91c-.75-.14-1.08.65-1.24,1.49s-.1,1.64.63,1.78,1.1-.7,1.24-1.46S733.77,75.68,733,75.53Z"/><path class="cls-2" d="M736.09,76.83l-1-.18,0-.23c.58.08,1,.09,1.19-.54l.27.05-.72,3.77-.34-.06Z"/><path class="cls-2" d="M740.16,78.64c-.19,1-.6,1.84-1.63,1.65s-1.11-1.14-.91-2.18.56-1.88,1.64-1.67S740.33,77.76,740.16,78.64Zm-1-1.91c-.75-.15-1.09.65-1.25,1.48s-.09,1.65.63,1.79,1.1-.71,1.25-1.47S740,76.88,739.2,76.73Z"/><path class="cls-2" d="M742.32,78l-1-.19,0-.22c.58.07,1,.08,1.18-.55l.28.06-.73,3.77-.34-.07Z"/><path class="cls-2" d="M746.39,79.83c-.2,1-.6,1.85-1.64,1.65s-1.11-1.13-.91-2.18.56-1.87,1.65-1.66S746.55,79,746.39,79.83Zm-1-1.91c-.75-.14-1.08.65-1.24,1.49s-.1,1.64.63,1.78,1.1-.7,1.24-1.46S746.22,78.07,745.42,77.92Z"/><path class="cls-2" d="M706.92,77.5l-1-.18,0-.23c.58.07,1,.08,1.19-.54l.27,0-.73,3.77-.34-.06Z"/><path class="cls-2" d="M711,79.31c-.19,1-.6,1.84-1.64,1.64s-1.11-1.13-.91-2.17.56-1.88,1.65-1.67S711.16,78.43,711,79.31Zm-1-1.91c-.74-.15-1.08.65-1.24,1.48s-.1,1.65.63,1.79,1.1-.71,1.24-1.47S710.82,77.55,710,77.4Z"/><path class="cls-2" d="M714.1,79.9c-.19,1-.6,1.85-1.64,1.65s-1.1-1.13-.9-2.17.56-1.88,1.64-1.67S714.27,79,714.1,79.9Zm-1-1.91c-.75-.14-1.09.65-1.25,1.49s-.09,1.64.63,1.78,1.1-.7,1.25-1.46S713.93,78.15,713.14,78Z"/><path class="cls-2" d="M717.21,80.5c-.19,1-.6,1.85-1.63,1.65S714.47,81,714.67,80s.56-1.87,1.65-1.67S717.38,79.62,717.21,80.5Zm-1-1.91c-.75-.14-1.09.65-1.25,1.49s-.09,1.64.63,1.78,1.1-.7,1.25-1.46S717.05,78.74,716.25,78.59Z"/><path class="cls-2" d="M719.37,79.89l-1-.18,0-.23c.58.07.95.08,1.19-.54l.27,0-.73,3.77-.34-.06Z"/><path class="cls-2" d="M722.48,80.49l-1-.18,0-.23c.58.07,1,.08,1.19-.54l.27,0-.72,3.77-.35-.06Z"/><path class="cls-2" d="M725.59,81.09l-1-.19,0-.22c.58.07,1,.08,1.19-.55l.27.06L725.4,84l-.34-.07Z"/><path class="cls-2" d="M729.66,82.89c-.19,1-.6,1.85-1.63,1.65s-1.11-1.13-.91-2.18.56-1.87,1.65-1.67S729.83,82,729.66,82.89Zm-1-1.91c-.75-.14-1.08.65-1.25,1.49s-.09,1.64.63,1.78,1.1-.7,1.25-1.46S729.5,81.13,728.7,81Z"/><path class="cls-2" d="M732.78,83.49c-.2,1-.6,1.85-1.64,1.65S730,84,730.23,83s.56-1.88,1.65-1.67S732.94,82.61,732.78,83.49Zm-1-1.91c-.75-.14-1.08.65-1.24,1.48s-.1,1.65.62,1.79,1.1-.7,1.25-1.46S732.61,81.73,731.81,81.58Z"/><path class="cls-2" d="M734.93,82.88l-1-.18,0-.23c.58.07,1,.08,1.19-.54l.27,0-.72,3.77-.34-.06Z"/><path class="cls-2" d="M739,84.68c-.19,1-.6,1.85-1.64,1.65s-1.1-1.13-.9-2.17.56-1.88,1.64-1.67S739.17,83.81,739,84.68Zm-1-1.91c-.75-.14-1.09.66-1.25,1.49s-.09,1.65.63,1.79,1.1-.71,1.24-1.47S738.83,82.93,738,82.77Z"/><path class="cls-2" d="M741.16,84.08l-1-.19.05-.22c.58.07.95.08,1.18-.55l.28.06L741,87l-.34-.07Z"/><path class="cls-2" d="M745.23,85.88c-.2,1-.6,1.85-1.64,1.65s-1.11-1.13-.91-2.18.56-1.88,1.65-1.67S745.39,85,745.23,85.88Zm-1-1.91c-.75-.14-1.08.65-1.24,1.49s-.1,1.64.62,1.78,1.1-.7,1.25-1.46S745.06,84.12,744.26,84Z"/><rect class="cls-2" x="683.33" y="55.25" width="6.16" height="6.16" transform="translate(23.32 -128.4) rotate(10.87)"/><rect class="cls-2" x="689.73" y="64.15" width="3.89" height="3.89" transform="translate(24.87 -129.25) rotate(10.87)"/><path class="cls-2" d="M774.42,86.72,757,83.38,760.34,66l17.42,3.34Zm-16.4-4,15.7,3,3-15.69L761,67Z"/><rect class="cls-2" x="767.78" y="71.47" width="6.16" height="6.16" transform="translate(989.44 -668.42) rotate(100.87)"/><rect class="cls-2" x="768.78" y="79.33" width="3.89" height="3.89" transform="translate(995.88 -660.29) rotate(100.87)"/><rect class="cls-2" x="762.15" y="70.14" width="3.89" height="3.89" transform="translate(978.98 -664.7) rotate(100.87)"/><path class="cls-2" d="M310.8,476.65h-22a4.26,4.26,0,0,1-4.25-4.25V426.58a4.26,4.26,0,0,1,4.25-4.25h22a4.26,4.26,0,0,1,4.25,4.25V472.4A4.26,4.26,0,0,1,310.8,476.65Zm-22-53.57a3.5,3.5,0,0,0-3.5,3.5V472.4a3.5,3.5,0,0,0,3.5,3.5h22a3.5,3.5,0,0,0,3.5-3.5V426.58a3.5,3.5,0,0,0-3.5-3.5Z"/><path class="cls-2" d="M303.87,425.77h-5.39a.2.2,0,0,1,0-.4h5.39a.2.2,0,1,1,0,.4Z"/><path class="cls-2" d="M296.4,425.77h-.71a.2.2,0,0,1,0-.4h.71a.2.2,0,0,1,0,.4Z"/><path class="cls-2" d="M299.78,472.44a2.49,2.49,0,1,1,2.49-2.49A2.5,2.5,0,0,1,299.78,472.44Zm0-4.57a2.08,2.08,0,1,0,2.08,2.08A2.08,2.08,0,0,0,299.78,467.87Z"/><path class="cls-2" d="M163.29,475.56h-7V420.48a3.69,3.69,0,0,0-3.68-3.69H72.27a3.69,3.69,0,0,0-3.68,3.69v55.08h-7a.38.38,0,0,0-.38.38,6.26,6.26,0,0,0,6.25,6.25h89.92a6.26,6.26,0,0,0,6.26-6.25A.38.38,0,0,0,163.29,475.56ZM69.34,420.48a2.94,2.94,0,0,1,2.93-2.94h80.37a2.94,2.94,0,0,1,2.93,2.94v55.08H69.34Zm50.91,55.83a1.77,1.77,0,0,1-1.72,1.4H106.38a1.76,1.76,0,0,1-1.72-1.4Zm37.16,5.13H67.49A5.51,5.51,0,0,1,62,476.31h42.26a2.16,2.16,0,0,0,2.11,1.78h12.15a2.16,2.16,0,0,0,2.11-1.78H162.9A5.51,5.51,0,0,1,157.41,481.44Z"/><path class="cls-2" d="M152.2,418.89H72.71a2.32,2.32,0,0,0-2.32,2.32V474a.2.2,0,0,0,.19.19h83.75a.2.2,0,0,0,.19-.19V421.21A2.32,2.32,0,0,0,152.2,418.89Zm1.94,54.95H70.77V421.21a1.94,1.94,0,0,1,1.94-1.94H152.2a1.94,1.94,0,0,1,1.94,1.94Z"/><path class="cls-1" d="M59.71,508.26a2.4,2.4,0,0,0,2.73,2.32c1.71,0,2.42-.92,2.42-2,0-2.94-5.8-1-5.8-4.72,0-1.32,1.1-2.55,3.22-2.55s3.21,1.29,3.2,2.84h-.86a2.07,2.07,0,0,0-2.34-2.07c-1.82,0-2.48,1.12-2.32,2.1.41,2.45,5.8.68,5.8,4.36,0,1.75-1.28,2.78-3.48,2.78-2,0-3.44-1-3.44-3.09Z"/><path class="cls-1" d="M68.1,507.86c0,1.48.78,2.71,2.3,2.71A2,2,0,0,0,72.47,509h.89a2.87,2.87,0,0,1-3,2.28c-2.19,0-3.14-1.56-3.14-3.58s1.19-3.63,3.14-3.63,3,1.34,3,3.79Zm4.46-.66a2.15,2.15,0,0,0-2.16-2.41,2.4,2.4,0,0,0-2.3,2.41Z"/><path class="cls-1" d="M76.07,511.1h-.79v-6.84h.79v.95a2.93,2.93,0,0,1,2.21-1.14,2.37,2.37,0,0,1,2.08,1,2.6,2.6,0,0,1,.35,1.57v4.48h-.8v-4.47c0-1.22-.5-1.84-1.76-1.84a2,2,0,0,0-1.9,1.33,3.51,3.51,0,0,0-.18,1.29Z"/><path class="cls-1" d="M88.23,501.59H89v9.51h-.79v-1.21h0a2.74,2.74,0,0,1-2.37,1.39c-2.21,0-3.09-1.57-3.09-3.59s1-3.62,3.05-3.62a2.85,2.85,0,0,1,2.44,1.28Zm-2.31,3.2c-1.64,0-2.4,1.38-2.34,3.1s1,2.68,2.34,2.68c1.49,0,2.31-1.27,2.31-2.92S87.36,504.79,85.92,504.79Z"/><path class="cls-1" d="M94.6,501.59h6.92v.77h-3v8.74h-.9v-8.74h-3Z"/><path class="cls-1" d="M103.84,511.1h-.79v-6.84h.79v1.28h0a2.07,2.07,0,0,1,2.24-1.47v.86c-1.79,0-2.26,1.28-2.26,2.81Z"/><path class="cls-1" d="M110.87,507.11a4.47,4.47,0,0,0,1-.22c.27-.12.3-.48.3-.72,0-.8-.48-1.38-1.71-1.38s-1.85.35-2,1.54h-.81c.12-1.61,1.32-2.26,2.82-2.26s2.48.54,2.48,2.13v3.72c0,.62.16.77.83.53v.62a2.23,2.23,0,0,1-.62.13,1.42,1.42,0,0,1-.36,0c-.53-.08-.62-.54-.63-1a3.39,3.39,0,0,1-2.55,1.13,2,2,0,0,1-2.28-2c0-1.14.79-1.84,2.39-2.06Zm1.34.4a6.68,6.68,0,0,1-2,.38c-1.2.09-1.93.53-1.93,1.45a1.31,1.31,0,0,0,1.48,1.23c1.25,0,2.5-.61,2.5-2Z"/><path class="cls-1" d="M116.19,511.1h-.79v-6.84h.79v.95a2.9,2.9,0,0,1,2.2-1.14,2.4,2.4,0,0,1,2.09,1,2.6,2.6,0,0,1,.34,1.57v4.48H120v-4.47c0-1.22-.5-1.84-1.77-1.84a2,2,0,0,0-1.9,1.33,3.5,3.5,0,0,0-.17,1.29Z"/><path class="cls-1" d="M123.53,509a1.78,1.78,0,0,0,2,1.61c1.15,0,1.69-.61,1.69-1.27,0-2-4.38-.58-4.38-3.27,0-1.14.88-2,2.4-2a2.31,2.31,0,0,1,2.64,2.16h-.8a1.61,1.61,0,0,0-1.85-1.44c-1,0-1.55.47-1.55,1.17,0,1.86,4.39.7,4.39,3.33,0,1.3-1.18,2-2.79,2a2.4,2.4,0,0,1-2.6-2.32Z"/><path class="cls-1" d="M133.13,507.11a4.67,4.67,0,0,0,1.05-.22c.26-.12.29-.48.29-.72,0-.8-.48-1.38-1.71-1.38s-1.84.35-2,1.54H130c.11-1.61,1.32-2.26,2.81-2.26s2.48.54,2.48,2.13v3.72c0,.62.16.77.83.53v.62a2.23,2.23,0,0,1-.62.13,1.42,1.42,0,0,1-.36,0c-.52-.08-.62-.54-.63-1a3.39,3.39,0,0,1-2.55,1.13,2,2,0,0,1-2.28-2c0-1.14.79-1.84,2.39-2.06Zm1.34.4a6.68,6.68,0,0,1-2.05.38c-1.2.09-1.93.53-1.93,1.45a1.31,1.31,0,0,0,1.48,1.23c1.26,0,2.5-.61,2.5-2Z"/><path class="cls-1" d="M142.5,506.41a2,2,0,0,0-2-1.62c-1.62,0-2.3,1.47-2.3,2.9s.66,2.88,2.3,2.88a2,2,0,0,0,2.1-1.84h.84a2.8,2.8,0,0,1-2.94,2.55c-2.18,0-3.14-1.57-3.14-3.59s1.09-3.62,3.14-3.62a2.57,2.57,0,0,1,2.84,2.34Z"/><path class="cls-1" d="M147.73,511.12a3.87,3.87,0,0,1-.91.16c-.78,0-1.22-.34-1.22-1.36v-5h-1v-.66h1v-1.9h.8v1.9h1.28v.66H146.4v4.68c0,.68,0,1,.68,1a2.91,2.91,0,0,0,.65-.09Z"/><path class="cls-1" d="M149.4,502.77v-1.18h.87v1.18Zm0,8.33v-6.84h.79v6.84Z"/><path class="cls-1" d="M152.13,507.68c0-2,1.06-3.61,3.17-3.61s3.17,1.6,3.17,3.61-1.25,3.6-3.17,3.6C153.56,511.25,152.13,510.07,152.13,507.68Zm3.17-2.89c-1.66,0-2.32,1.41-2.32,2.89,0,1.7.8,2.89,2.32,2.89s2.33-1.43,2.33-2.89C157.61,506.07,157,504.79,155.3,504.79Z"/><path class="cls-1" d="M161,511.1h-.79v-6.84H161v.95a2.93,2.93,0,0,1,2.21-1.14,2.39,2.39,0,0,1,2.08,1,2.6,2.6,0,0,1,.35,1.57v4.48h-.8v-4.47c0-1.22-.5-1.84-1.77-1.84a2,2,0,0,0-1.9,1.33,3.73,3.73,0,0,0-.17,1.29Z"/><path class="cls-1" d="M276.38,506.17l2.86-4.58h1.05L276.84,507v4.15h-.9V507l-3.39-5.43h1Z"/><path class="cls-1" d="M282.22,507.86c0,1.48.78,2.71,2.3,2.71a2,2,0,0,0,2.07-1.57h.89a2.87,2.87,0,0,1-3,2.28c-2.19,0-3.14-1.56-3.14-3.58s1.19-3.63,3.14-3.63,3,1.34,3,3.79Zm4.47-.66a2.16,2.16,0,0,0-2.17-2.41,2.4,2.4,0,0,0-2.3,2.41Z"/><path class="cls-1" d="M289.86,509a1.8,1.8,0,0,0,2.05,1.61c1.15,0,1.69-.61,1.69-1.27,0-2-4.38-.58-4.38-3.27,0-1.14.88-2,2.4-2a2.31,2.31,0,0,1,2.64,2.16h-.81c-.14-1.06-.85-1.44-1.84-1.44s-1.55.47-1.55,1.17c0,1.86,4.38.7,4.38,3.33,0,1.3-1.17,2-2.78,2a2.4,2.4,0,0,1-2.6-2.32Z"/><path class="cls-1" d="M300.08,512.28h-.74l3.1-10.94h.74Z"/><path class="cls-1" d="M309.34,502.81h0v8.29h-.9v-9.51h1l5.5,8.3h0v-8.3h.9v9.51h-1Z"/><path class="cls-1" d="M317.73,507.68c0-2,1.06-3.61,3.17-3.61s3.17,1.6,3.17,3.61-1.25,3.6-3.17,3.6C319.16,511.25,317.73,510.07,317.73,507.68Zm3.17-2.89c-1.66,0-2.32,1.41-2.32,2.89,0,1.7.8,2.89,2.32,2.89,1.67,0,2.32-1.43,2.32-2.89C323.21,506.07,322.58,504.79,320.9,504.79Z"/><path class="cls-1" d="M272.39,526.93l3.74-9.5h1l3.65,9.5h-.93l-1.09-3h-4.33l-1.12,3Zm2.35-3.75h3.72l-1.86-5Z"/><path class="cls-1" d="M283.16,529.62h-.79v-9.53h.79v1.2h0a2.75,2.75,0,0,1,2.37-1.38c2.21,0,3.09,1.57,3.09,3.59s-1,3.61-3,3.61a2.82,2.82,0,0,1-2.44-1.28Zm2.31-3.22c1.64,0,2.4-1.38,2.34-3.1s-1-2.68-2.34-2.68c-1.49,0-2.31,1.27-2.31,2.92S284,526.4,285.47,526.4Z"/><path class="cls-1" d="M291.55,529.62h-.79v-9.53h.79v1.2h0a2.76,2.76,0,0,1,2.38-1.38c2.2,0,3.08,1.57,3.08,3.59s-1,3.61-3,3.61a2.84,2.84,0,0,1-2.45-1.28Zm2.31-3.22c1.64,0,2.41-1.38,2.34-3.1s-1-2.68-2.34-2.68c-1.49,0-2.31,1.27-2.31,2.92S292.42,526.4,293.86,526.4Z"/><path class="cls-1" d="M299.89,526.93h-.79v-6.84h.79v1.28h0a2.06,2.06,0,0,1,2.23-1.46v.86c-1.78,0-2.26,1.28-2.26,2.81Z"/><path class="cls-1" d="M303.34,523.51c0-2,1.05-3.6,3.17-3.6s3.16,1.6,3.16,3.6c0,2.17-1.25,3.6-3.16,3.6C304.76,527.09,303.34,525.9,303.34,523.51Zm3.17-2.89c-1.67,0-2.33,1.41-2.33,2.89,0,1.7.81,2.89,2.33,2.89s2.32-1.42,2.32-2.89S308.18,520.62,306.51,520.62Z"/><path class="cls-1" d="M310.73,520.09h.86L313.8,526l2.22-5.86h.86l-2.66,6.84h-.88Z"/><path class="cls-1" d="M318.87,523.7c0,1.47.78,2.7,2.3,2.7a2,2,0,0,0,2.07-1.57h.88a2.84,2.84,0,0,1-2.95,2.28c-2.2,0-3.15-1.55-3.15-3.57s1.19-3.63,3.15-3.63,3,1.33,3,3.79Zm4.46-.66a2.16,2.16,0,0,0-2.16-2.42c-1.4,0-2.14,1.12-2.3,2.42Z"/><path class="cls-1" d="M519.44,511.1v-9.51h3.43c2.24,0,3.12,1,3.12,2.39a1.86,1.86,0,0,1-1.52,2v0a2.19,2.19,0,0,1,2,2.37c0,2-1.3,2.68-3.11,2.68Zm.9-5.31h2.27c1.88,0,2.48-.66,2.48-1.81s-.71-1.62-2.68-1.62h-2.07Zm0,4.54h2.28c2,0,2.91-.26,2.91-1.91s-1.11-1.86-2.8-1.86h-2.39Z"/><path class="cls-1" d="M528.57,511.1v-9.51h.8v9.51Z"/><path class="cls-1" d="M531.27,507.68c0-2,1.05-3.61,3.16-3.61s3.17,1.6,3.17,3.61-1.25,3.6-3.17,3.6C532.69,511.25,531.27,510.07,531.27,507.68Zm3.16-2.89c-1.66,0-2.32,1.41-2.32,2.89,0,1.7.81,2.89,2.32,2.89,1.67,0,2.33-1.43,2.33-2.89C536.74,506.07,536.11,504.79,534.43,504.79Z"/><path class="cls-1" d="M544.23,506.41a2,2,0,0,0-2-1.62c-1.62,0-2.29,1.47-2.29,2.9s.66,2.88,2.29,2.88a2,2,0,0,0,2.1-1.84h.85a2.81,2.81,0,0,1-2.95,2.55c-2.17,0-3.14-1.57-3.14-3.59s1.1-3.62,3.14-3.62a2.57,2.57,0,0,1,2.84,2.34Z"/><path class="cls-1" d="M547,511.1v-9.51h.79v5.92l3.35-3.25h1.08l-2.56,2.47,2.87,4.37h-.89l-2.56-3.82-1.29,1.23v2.59Z"/><path class="cls-1" d="M558.82,506.41a2,2,0,0,0-2-1.62c-1.63,0-2.3,1.47-2.3,2.9s.66,2.88,2.3,2.88a2,2,0,0,0,2.1-1.84h.84a2.81,2.81,0,0,1-2.94,2.55c-2.18,0-3.14-1.57-3.14-3.59s1.09-3.62,3.14-3.62a2.57,2.57,0,0,1,2.84,2.34Z"/><path class="cls-1" d="M561.64,511.1v-9.51h.8v3.62a2.9,2.9,0,0,1,2.2-1.14,2.4,2.4,0,0,1,2.09,1,2.6,2.6,0,0,1,.34,1.57v4.48h-.79v-4.47c0-1.22-.5-1.84-1.77-1.84a2,2,0,0,0-1.9,1.33,3.5,3.5,0,0,0-.17,1.29v3.69Z"/><path class="cls-1" d="M572.45,507.11a4.47,4.47,0,0,0,1-.22c.27-.12.29-.48.29-.72,0-.8-.47-1.38-1.7-1.38s-1.85.35-2,1.54h-.81c.12-1.61,1.32-2.26,2.82-2.26s2.48.54,2.48,2.13v3.72c0,.62.16.77.83.53v.62a2.23,2.23,0,0,1-.62.13,1.42,1.42,0,0,1-.36,0c-.53-.08-.62-.54-.63-1a3.39,3.39,0,0,1-2.55,1.13,2,2,0,0,1-2.28-2c0-1.14.79-1.84,2.39-2.06Zm1.33.4a6.57,6.57,0,0,1-2,.38c-1.2.09-1.93.53-1.93,1.45a1.31,1.31,0,0,0,1.48,1.23c1.25,0,2.49-.61,2.49-2Z"/><path class="cls-1" d="M577.06,502.77v-1.18h.87v1.18Zm0,8.33v-6.84h.79v6.84Z"/><path class="cls-1" d="M581,511.1h-.79v-6.84H581v.95a2.9,2.9,0,0,1,2.2-1.14,2.4,2.4,0,0,1,2.09,1,2.6,2.6,0,0,1,.34,1.57v4.48h-.79v-4.47c0-1.22-.5-1.84-1.77-1.84a2,2,0,0,0-1.9,1.33,3.5,3.5,0,0,0-.17,1.29Z"/><path class="cls-2" d="M700.58,448.92H674.45v-9.41a4.19,4.19,0,0,0-4.19-4.18h-20a4.18,4.18,0,0,0-4.18,4.18v9.41H620.55v-9.41a4.18,4.18,0,0,0-4.18-4.18h-20a4.19,4.19,0,0,0-4.19,4.18v9.41H566.66v-9.41a4.18,4.18,0,0,0-4.18-4.18h-20a4.19,4.19,0,0,0-4.19,4.18v9.41H512.77v-9.41a4.18,4.18,0,0,0-4.18-4.18h-20a4.18,4.18,0,0,0-4.18,4.18v9.41H458.88v-9.41a4.18,4.18,0,0,0-4.18-4.18h-20a4.18,4.18,0,0,0-4.18,4.18v20a4.19,4.19,0,0,0,4.18,4.19h20a4.19,4.19,0,0,0,4.18-4.19v-9.4h25.56v9.4a4.19,4.19,0,0,0,4.18,4.19h20a4.19,4.19,0,0,0,4.18-4.19v-9.4h25.56v9.4a4.2,4.2,0,0,0,4.19,4.19h20a4.19,4.19,0,0,0,4.18-4.19v-9.4h25.56v9.4a4.2,4.2,0,0,0,4.19,4.19h20a4.19,4.19,0,0,0,4.18-4.19v-9.4h25.57v9.4a4.19,4.19,0,0,0,4.18,4.19h20a4.2,4.2,0,0,0,4.19-4.19v-9.4h26.13a.58.58,0,0,0,0-1.15ZM457.73,459.47a3,3,0,0,1-3,3h-20a3,3,0,0,1-3-3v-20a3,3,0,0,1,3-3h20a3,3,0,0,1,3,3Zm53.89,0a3,3,0,0,1-3,3h-20a3,3,0,0,1-3-3v-20a3,3,0,0,1,3-3h20a3,3,0,0,1,3,3Zm53.9,0a3,3,0,0,1-3,3h-20a3,3,0,0,1-3-3v-20a3,3,0,0,1,3-3h20a3.05,3.05,0,0,1,3,3Zm53.89,0a3,3,0,0,1-3,3h-20a3,3,0,0,1-3-3v-20a3,3,0,0,1,3-3h20a3,3,0,0,1,3,3Zm53.89,0a3,3,0,0,1-3,3h-20a3,3,0,0,1-3-3v-20a3,3,0,0,1,3-3h20a3,3,0,0,1,3,3Z"/><path class="cls-3" d="M389,445.3l-.45,1.24,6.31,2.29H345.27a.66.66,0,1,0,0,1.32h49.59l-6.31,2.3.45,1.24,11.53-4.2Z"/><path class="cls-3" d="M240.19,445.3l-.45,1.24,6.31,2.29h-49.6a.66.66,0,0,0,0,1.32h49.6l-6.31,2.3.45,1.24,11.53-4.2Z"/><path class="cls-4" d="M297.5,456a.58.58,0,0,1-.36-.12l-6.55-5.06a.58.58,0,0,1,.72-.92l6.06,4.68,10.48-14.68a.59.59,0,0,1,.82-.13.58.58,0,0,1,.13.81L298,455.78a.6.6,0,0,1-.39.24Z"/></svg>