<?xml version="1.0" encoding="utf-8"?>
<!-- Generator: Adobe Illustrator 23.0.2, SVG Export Plug-In . SVG Version: 6.00 Build 0)  -->
<svg version="1.1" id="_x2014_ÎÓÈ_x5F_1" xmlns="http://www.w3.org/2000/svg" xmlns:xlink="http://www.w3.org/1999/xlink"
	 x="0px" y="0px" viewBox="0 0 650 400" style="enable-background:new 0 0 650 400;" xml:space="preserve">
<style type="text/css">
	.st0{fill:#42E8E0;}
	.st1{fill:url(#SVGID_1_);}
	.st2{fill:url(#SVGID_2_);}
	.st3{fill:#FFFFFF;}
	.st4{fill:#2842A2;}
	.st5{fill:#ADB1F2;}
	.st6{fill:#9198DB;}
	.st7{fill:#24126A;}
	.st8{fill:url(#SVGID_3_);}
	.st9{fill:url(#SVGID_4_);}
	.st10{fill:url(#SVGID_5_);}
	.st11{fill:#453C9E;}
	.st12{fill:url(#SVGID_6_);}
	.st13{fill:url(#SVGID_7_);}
	.st14{fill:url(#SVGID_8_);}
	.st15{fill:url(#SVGID_11_);}
	.st16{fill:url(#SVGID_12_);}
	.st17{fill:#BCBEFF;}
	.st18{fill:url(#SVGID_13_);}
	.st19{opacity:0.51;}
	.st20{opacity:0.51;fill:#453C9E;}
	.st21{opacity:0.1;fill:#42E8E0;}
	.st22{opacity:0.4;fill:#42E8E0;}
	.st23{fill:url(#SVGID_14_);}
	.st24{fill:url(#SVGID_15_);}
	.st25{fill:url(#SVGID_16_);}
	.st26{fill:url(#SVGID_17_);}
	.st27{fill:url(#SVGID_18_);}
	.st28{fill:url(#SVGID_19_);}
	.st29{opacity:0.11;}
	.st30{clip-path:url(#SVGID_20_);}
	.st31{fill:url(#SVGID_21_);}
	.st32{fill:url(#SVGID_22_);}
	.st33{fill:url(#SVGID_23_);}
	.st34{fill:url(#SVGID_24_);}
	.st35{fill:url(#SVGID_25_);}
	.st36{fill:url(#SVGID_26_);}
	.st37{fill:url(#SVGID_27_);}
	.st38{clip-path:url(#SVGID_28_);}
	.st39{fill:url(#SVGID_29_);}
	.st40{fill:url(#SVGID_30_);}
</style>
<g>
	<g>
		<g>
			<g>
				<path class="st0" d="M185.52,205.47c-1.58,0-3.13-0.41-4.49-1.2l-51.66-29.83c-0.81-0.47-1.3-1.31-1.3-2.25s0.48-1.78,1.3-2.25
					l93.48-53.97c0.16-0.09,0.36-0.09,0.52,0l55.89,32.27c0.81,0.47,1.3,1.31,1.3,2.25c0,0.94-0.48,1.78-1.3,2.25L190,204.27
					C188.64,205.06,187.09,205.47,185.52,205.47z M223.1,117.03l-93.22,53.82c-0.49,0.28-0.78,0.79-0.78,1.35
					c0,0.56,0.29,1.07,0.78,1.35l51.66,29.83c2.4,1.39,5.53,1.39,7.94,0l89.25-51.53c0.49-0.28,0.78-0.79,0.78-1.35
					c0-0.56-0.29-1.07-0.78-1.35L223.1,117.03z"/>
			</g>
			<g>
				<g>
					<g>
						<g>
							<g>
								
									<linearGradient id="SVGID_1_" gradientUnits="userSpaceOnUse" x1="2867.55" y1="150.5309" x2="3029.6821" y2="150.5309" gradientTransform="matrix(1 0 0 1 -2743.7285 0)">
									<stop  offset="0" style="stop-color:#5761D7"/>
									<stop  offset="0.1779" style="stop-color:#5C66D9"/>
									<stop  offset="0.3876" style="stop-color:#6A73DF"/>
									<stop  offset="0.6134" style="stop-color:#8289E8"/>
									<stop  offset="0.849" style="stop-color:#A3A7F5"/>
									<stop  offset="1" style="stop-color:#BCBEFF"/>
								</linearGradient>
								<path class="st1" d="M285.95,133.76l-5.42,2.83l-54.38-31.4c-0.91-0.53-2.5-0.46-3.55,0.15l-93.79,54.15
									c-0.9-0.5-4.99-2.47-4.99-2.47l1.99,5.17c0,0,0.01-0.01,0.01-0.01c0.08,0.23,0.26,0.44,0.55,0.62l57.27,33.07
									c0.91,0.53,2.5,0.46,3.55-0.15l95.98-55.41c0.43-0.25,0.7-0.55,0.81-0.86l0.01,0L285.95,133.76z"/>
								
									<linearGradient id="SVGID_2_" gradientUnits="userSpaceOnUse" x1="2922.0269" y1="145.1248" x2="3084.2456" y2="145.1248" gradientTransform="matrix(1 0 0 1 -2743.7285 0)">
									<stop  offset="0" style="stop-color:#C0BFF6"/>
									<stop  offset="0.2938" style="stop-color:#C5C4F7"/>
									<stop  offset="0.6399" style="stop-color:#D3D2F9"/>
									<stop  offset="1" style="stop-color:#E9E9FD"/>
								</linearGradient>
								<path class="st2" d="M285.12,134.65l-98.36,56.79c-1.08,0.62-2.71,0.69-3.64,0.15l-58.7-33.89
									c-0.93-0.54-0.82-1.48,0.26-2.1l98.36-56.79c1.08-0.62,2.71-0.69,3.64-0.15l58.7,33.89
									C286.31,133.09,286.19,134.03,285.12,134.65z"/>
								<path class="st3" d="M285.12,134.08l-98.36,56.79c-1.08,0.62-2.71,0.69-3.64,0.15l-58.7-33.89
									c-0.31-0.18-0.49-0.4-0.57-0.63c-0.15,0.44,0.03,0.89,0.57,1.2l58.7,33.89c0.93,0.54,2.56,0.47,3.64-0.15l98.36-56.79
									c0.72-0.42,1-0.98,0.83-1.47C285.84,133.5,285.57,133.82,285.12,134.08z"/>
								<path class="st4" d="M157.08,179.15v-1.08c0-0.1,0.06-0.15,0.14-0.11l3.8,2.2c0.08,0.04,0.14,0.16,0.14,0.27v1.08
									c0,0.1-0.06,0.15-0.14,0.1l-3.8-2.2C157.14,179.38,157.08,179.26,157.08,179.15z"/>
								<path class="st4" d="M162.77,182.44v-1.08c0-0.1,0.06-0.15,0.14-0.1l3.8,2.2c0.08,0.04,0.14,0.16,0.14,0.27v1.08
									c0,0.1-0.06,0.15-0.14,0.1l-3.8-2.2C162.83,182.66,162.77,182.54,162.77,182.44z"/>
								<g>
									<path class="st5" d="M157.51,165.4l81.74-47.19c0.54-0.31,1.22-0.31,1.76,0l29.11,16.84c0.42,0.24,0.42,0.85,0,1.09
										l-81.7,47.17c-0.54,0.31-1.21,0.31-1.76,0l-29.15-16.82C157.09,166.25,157.09,165.65,157.51,165.4z"/>
									<path class="st6" d="M157.51,166.49l0.29,0.17l81.45-47.02c0.54-0.31,1.22-0.31,1.76,0l28.81,16.67l0.29-0.17
										c0.42-0.24,0.42-0.84,0-1.09l-29.11-16.84c-0.54-0.32-1.22-0.32-1.76,0l-81.74,47.19
										C157.09,165.65,157.09,166.25,157.51,166.49z"/>
									<g>
										<polygon class="st7" points="243.21,122.48 167.91,165.95 164.18,164.46 240.05,120.66 										"/>
										<polygon class="st7" points="250.95,126.95 184.35,165.4 181.19,163.57 247.79,125.12 										"/>
										<polygon class="st7" points="255.99,129.86 177.58,175.13 174.42,173.31 252.83,128.03 										"/>
										<polygon class="st7" points="261.03,132.77 182.62,178.04 179.46,176.22 257.87,130.95 										"/>
										<polygon class="st7" points="266.07,135.68 187.66,180.95 184.5,179.13 262.91,133.86 										"/>
										<polygon class="st7" points="167.91,165.95 164.76,167.77 161.6,165.95 164.76,164.13 										"/>
										<polygon class="st7" points="188.18,163.19 172.5,172.24 169.34,170.42 185.14,161.3 										"/>
									</g>
								</g>
								<g>
									
										<linearGradient id="SVGID_3_" gradientUnits="userSpaceOnUse" x1="2911.502" y1="132.6423" x2="2953.0251" y2="132.6423" gradientTransform="matrix(1 0 0 1 -2743.7285 0)">
										<stop  offset="0" style="stop-color:#C0BFF6"/>
										<stop  offset="0.2938" style="stop-color:#C5C4F7"/>
										<stop  offset="0.6399" style="stop-color:#D3D2F9"/>
										<stop  offset="1" style="stop-color:#E9E9FD"/>
									</linearGradient>
									<path class="st8" d="M186.61,144.26l22.04-12.72c0.86-0.5,0.86-1.3,0-1.8l-15.07-8.7c-0.86-0.5-2.26-0.5-3.12,0
										l-22.04,12.72c-0.86,0.5-0.86,1.3,0,1.8l15.07,8.7C184.35,144.75,185.75,144.75,186.61,144.26z"/>
									<path class="st6" d="M168.42,134.49l22.04-12.72c0.86-0.5,2.26-0.5,3.12,0l15.07,8.7c0.27,0.15,0.44,0.34,0.54,0.53
										c0.23-0.43,0.05-0.93-0.54-1.27l-15.07-8.7c-0.86-0.5-2.26-0.5-3.12,0l-22.04,12.72c-0.6,0.34-0.77,0.83-0.54,1.27
										C167.98,134.83,168.15,134.64,168.42,134.49z"/>
								</g>
							</g>
						</g>
					</g>
				</g>
			</g>
			<g>
				
					<linearGradient id="SVGID_4_" gradientUnits="userSpaceOnUse" x1="2914.7485" y1="125.1594" x2="3029.5464" y2="125.1594" gradientTransform="matrix(1 0 0 1 -2743.7285 0)">
					<stop  offset="0" style="stop-color:#C0BFF6"/>
					<stop  offset="0.2938" style="stop-color:#C5C4F7"/>
					<stop  offset="0.6399" style="stop-color:#D3D2F9"/>
					<stop  offset="1" style="stop-color:#E9E9FD"/>
				</linearGradient>
				<path class="st9" d="M285.8,132.3l-12.43-73.77l1-0.42l-1.5-0.86l0,0.01c-0.29-0.19-0.7-0.18-1.16,0.08l-99.37,57.37
					c-0.82,0.47-1.43,1.68-1.29,2.52l12.53,74.36c0.07,0.39,0.26,0.64,0.52,0.76l0,0l1.47,0.85l0.25-1.37l-0.08,0.03l98.77-57.03
					C285.32,134.35,285.94,133.14,285.8,132.3z"/>
				
					<linearGradient id="SVGID_5_" gradientUnits="userSpaceOnUse" x1="2914.7493" y1="154.5999" x2="2934.4612" y2="154.5999" gradientTransform="matrix(1 0 0 1 -2743.7285 0)">
					<stop  offset="0" style="stop-color:#5761D7"/>
					<stop  offset="0.1779" style="stop-color:#5C66D9"/>
					<stop  offset="0.3876" style="stop-color:#6A73DF"/>
					<stop  offset="0.6134" style="stop-color:#8289E8"/>
					<stop  offset="0.849" style="stop-color:#A3A7F5"/>
					<stop  offset="1" style="stop-color:#BCBEFF"/>
				</linearGradient>
				<path class="st10" d="M172.88,116.73l-1.63-0.72c-0.18,0.42-0.27,0.86-0.21,1.23l12.53,74.36c0.07,0.39,0.26,0.64,0.52,0.76l0,0
					l1.47,0.85l0.25-1.37l-0.08,0.03l5-2.89L172.88,116.73z"/>
				<path class="st11" d="M286.07,135.72l-99.37,57.37c-0.77,0.44-1.42,0.19-1.56-0.61l-12.53-74.36c-0.14-0.84,0.47-2.05,1.29-2.52
					l99.37-57.37c0.77-0.44,1.42-0.19,1.56,0.61l12.53,74.36C287.5,134.04,286.88,135.25,286.07,135.72z"/>
			</g>
		</g>
		<g>
			<g>
				<path class="st0" d="M465.8,205.47c-1.58,0-3.13-0.41-4.49-1.2l0,0l-89.25-51.53c-0.81-0.47-1.3-1.31-1.3-2.25
					c0-0.94,0.48-1.78,1.3-2.25l55.89-32.27c0.16-0.09,0.36-0.09,0.52,0l93.48,53.97c0.81,0.47,1.3,1.31,1.3,2.25
					c0,0.94-0.48,1.78-1.3,2.25l-51.67,29.83C468.93,205.06,467.38,205.47,465.8,205.47z M461.83,203.38c2.4,1.39,5.53,1.39,7.94,0
					l51.66-29.83c0.49-0.28,0.78-0.79,0.78-1.35c0-0.56-0.29-1.07-0.78-1.35l-93.22-53.82l-55.63,32.12
					c-0.49,0.28-0.78,0.79-0.78,1.35c0,0.56,0.29,1.07,0.78,1.35L461.83,203.38z"/>
			</g>
			<g>
				<g>
					<g>
						<g>
							<g>
								
									<linearGradient id="SVGID_6_" gradientUnits="userSpaceOnUse" x1="273.9072" y1="150.5309" x2="436.0392" y2="150.5309" gradientTransform="matrix(-1 0 0 1 801.4042 0)">
									<stop  offset="0" style="stop-color:#5761D7"/>
									<stop  offset="0.1779" style="stop-color:#5C66D9"/>
									<stop  offset="0.3876" style="stop-color:#6A73DF"/>
									<stop  offset="0.6134" style="stop-color:#8289E8"/>
									<stop  offset="0.849" style="stop-color:#A3A7F5"/>
									<stop  offset="1" style="stop-color:#BCBEFF"/>
								</linearGradient>
								<path class="st12" d="M365.36,133.76l5.42,2.83l54.38-31.4c0.91-0.53,2.5-0.46,3.55,0.15l93.79,54.15
									c0.9-0.5,4.99-2.47,4.99-2.47l-1.99,5.17c0,0-0.01-0.01-0.01-0.01c-0.08,0.23-0.26,0.44-0.55,0.62l-57.27,33.07
									c-0.91,0.53-2.5,0.46-3.55-0.15l-95.98-55.41c-0.43-0.25-0.7-0.55-0.81-0.86l-0.01,0L365.36,133.76z"/>
								
									<linearGradient id="SVGID_7_" gradientUnits="userSpaceOnUse" x1="328.3841" y1="145.1248" x2="490.6026" y2="145.1248" gradientTransform="matrix(-1 0 0 1 801.4042 0)">
									<stop  offset="0" style="stop-color:#C0BFF6"/>
									<stop  offset="0.2938" style="stop-color:#C5C4F7"/>
									<stop  offset="0.6399" style="stop-color:#D3D2F9"/>
									<stop  offset="1" style="stop-color:#E9E9FD"/>
								</linearGradient>
								<path class="st13" d="M366.2,134.65l98.36,56.79c1.08,0.62,2.71,0.69,3.64,0.15l58.7-33.89c0.93-0.54,0.82-1.48-0.26-2.1
									l-98.36-56.79c-1.08-0.62-2.71-0.69-3.64-0.15l-58.7,33.89C365.01,133.09,365.13,134.03,366.2,134.65z"/>
								<path class="st3" d="M366.2,134.08l98.36,56.79c1.08,0.62,2.71,0.69,3.64,0.15l58.7-33.89c0.31-0.18,0.49-0.4,0.57-0.63
									c0.15,0.44-0.03,0.89-0.57,1.2l-58.7,33.89c-0.93,0.54-2.56,0.47-3.64-0.15l-98.36-56.79c-0.72-0.42-1-0.98-0.83-1.47
									C365.48,133.5,365.75,133.82,366.2,134.08z"/>
								<path class="st4" d="M494.24,179.15v-1.08c0-0.1-0.06-0.15-0.14-0.11l-3.8,2.2c-0.08,0.04-0.14,0.16-0.14,0.27v1.08
									c0,0.1,0.06,0.15,0.14,0.1l3.8-2.2C494.17,179.38,494.24,179.26,494.24,179.15z"/>
								<path class="st4" d="M488.55,182.44v-1.08c0-0.1-0.06-0.15-0.14-0.1l-3.8,2.2c-0.08,0.04-0.14,0.16-0.14,0.27v1.08
									c0,0.1,0.06,0.15,0.14,0.1l3.8-2.2C488.48,182.66,488.55,182.54,488.55,182.44z"/>
								<g>
									<path class="st5" d="M493.81,165.4l-81.74-47.19c-0.54-0.31-1.22-0.31-1.76,0l-29.11,16.84c-0.42,0.24-0.42,0.85,0,1.09
										l81.7,47.17c0.54,0.31,1.21,0.31,1.76,0l29.15-16.82C494.23,166.25,494.23,165.65,493.81,165.4z"/>
									<path class="st6" d="M493.81,166.49l-0.29,0.17l-81.45-47.02c-0.54-0.31-1.22-0.31-1.76,0l-28.81,16.67l-0.29-0.17
										c-0.42-0.24-0.42-0.84,0-1.09l29.11-16.84c0.54-0.32,1.22-0.32,1.76,0l81.74,47.19
										C494.23,165.65,494.23,166.25,493.81,166.49z"/>
									<g>
										<polygon class="st7" points="408.11,122.48 483.4,165.95 487.14,164.46 411.27,120.66 										"/>
										<polygon class="st7" points="400.37,126.95 466.97,165.4 470.13,163.57 403.53,125.12 										"/>
										<polygon class="st7" points="395.33,129.86 473.74,175.13 476.9,173.31 398.49,128.03 										"/>
										<polygon class="st7" points="390.29,132.77 468.7,178.04 471.86,176.22 393.45,130.95 										"/>
										<polygon class="st7" points="385.25,135.68 463.66,180.95 466.82,179.13 388.4,133.86 										"/>
										<polygon class="st7" points="483.4,165.95 486.56,167.77 489.72,165.95 486.56,164.13 										"/>
										<polygon class="st7" points="463.14,163.19 478.82,172.24 481.98,170.42 466.18,161.3 										"/>
									</g>
								</g>
								<g>
									
										<linearGradient id="SVGID_8_" gradientUnits="userSpaceOnUse" x1="317.859" y1="132.6423" x2="359.3823" y2="132.6423" gradientTransform="matrix(-1 0 0 1 801.4042 0)">
										<stop  offset="0" style="stop-color:#C0BFF6"/>
										<stop  offset="0.2938" style="stop-color:#C5C4F7"/>
										<stop  offset="0.6399" style="stop-color:#D3D2F9"/>
										<stop  offset="1" style="stop-color:#E9E9FD"/>
									</linearGradient>
									<path class="st14" d="M464.71,144.26l-22.04-12.72c-0.86-0.5-0.86-1.3,0-1.8l15.07-8.7c0.86-0.5,2.26-0.5,3.12,0
										l22.04,12.72c0.86,0.5,0.86,1.3,0,1.8l-15.07,8.7C466.97,144.75,465.57,144.75,464.71,144.26z"/>
									<path class="st6" d="M482.9,134.49l-22.04-12.72c-0.86-0.5-2.26-0.5-3.12,0l-15.07,8.7c-0.27,0.15-0.44,0.34-0.54,0.53
										c-0.23-0.43-0.05-0.93,0.54-1.27l15.07-8.7c0.86-0.5,2.26-0.5,3.12,0l22.04,12.72c0.6,0.34,0.77,0.83,0.54,1.27
										C483.34,134.83,483.17,134.64,482.9,134.49z"/>
								</g>
							</g>
						</g>
					</g>
				</g>
			</g>
			<g>
				
					<linearGradient id="SVGID_11_" gradientUnits="userSpaceOnUse" x1="321.1057" y1="125.1594" x2="435.9036" y2="125.1594" gradientTransform="matrix(-1 0 0 1 801.4042 0)">
					<stop  offset="0" style="stop-color:#C0BFF6"/>
					<stop  offset="0.2938" style="stop-color:#C5C4F7"/>
					<stop  offset="0.6399" style="stop-color:#D3D2F9"/>
					<stop  offset="1" style="stop-color:#E9E9FD"/>
				</linearGradient>
				<path class="st15" d="M365.52,132.3l12.43-73.77l-1-0.42l1.5-0.86l0,0.01c0.29-0.19,0.7-0.18,1.16,0.08l99.37,57.37
					c0.82,0.47,1.43,1.68,1.29,2.52l-12.53,74.36c-0.07,0.39-0.26,0.64-0.52,0.76l0,0l-1.47,0.85l-0.25-1.37l0.08,0.03l-98.77-57.03
					C366,134.35,365.38,133.14,365.52,132.3z"/>
				
					<linearGradient id="SVGID_12_" gradientUnits="userSpaceOnUse" x1="321.1065" y1="154.5999" x2="340.8184" y2="154.5999" gradientTransform="matrix(-1 0 0 1 801.4042 0)">
					<stop  offset="0" style="stop-color:#5761D7"/>
					<stop  offset="0.1779" style="stop-color:#5C66D9"/>
					<stop  offset="0.3876" style="stop-color:#6A73DF"/>
					<stop  offset="0.6134" style="stop-color:#8289E8"/>
					<stop  offset="0.849" style="stop-color:#A3A7F5"/>
					<stop  offset="1" style="stop-color:#BCBEFF"/>
				</linearGradient>
				<path class="st16" d="M478.43,116.73l1.63-0.72c0.18,0.42,0.27,0.86,0.21,1.23l-12.53,74.36c-0.07,0.39-0.26,0.64-0.52,0.76l0,0
					l-1.47,0.85l-0.25-1.37l0.08,0.03l-5-2.89L478.43,116.73z"/>
				<path class="st11" d="M365.25,135.72l99.37,57.37c0.77,0.44,1.42,0.19,1.56-0.61l12.53-74.36c0.14-0.84-0.47-2.05-1.29-2.52
					l-99.37-57.37c-0.77-0.44-1.42-0.19-1.56,0.61l-12.53,74.36C363.82,134.04,364.44,135.25,365.25,135.72z"/>
			</g>
		</g>
		<g>
			<polygon class="st17" points="325.66,223.26 233.13,169.84 325.66,116.42 418.19,169.84 			"/>
			<polygon class="st11" points="325.66,208.68 258.4,169.84 325.66,131.01 392.92,169.84 			"/>
			<polygon class="st3" points="325.66,133.64 390.64,171.16 392.92,169.84 325.66,131.01 258.4,169.84 260.67,171.16 			"/>
			<linearGradient id="SVGID_13_" gradientUnits="userSpaceOnUse" x1="371.9243" y1="234.8485" x2="371.9243" y2="171.6181">
				<stop  offset="0" style="stop-color:#C0BFF6"/>
				<stop  offset="0.2938" style="stop-color:#C5C4F7"/>
				<stop  offset="0.6399" style="stop-color:#D3D2F9"/>
				<stop  offset="1" style="stop-color:#E9E9FD"/>
			</linearGradient>
			<polygon class="st18" points="418.19,169.84 418.19,200.12 325.66,253.54 325.66,223.26 			"/>
			<polygon class="st7" points="233.13,169.84 233.13,200.12 325.66,253.54 325.66,223.26 			"/>
			<g class="st19">
				<polygon class="st11" points="239.4,183.45 239.4,192.98 319.39,239.17 319.39,229.63 				"/>
			</g>
			<polygon class="st3" points="325.66,221.53 234.63,168.97 233.13,169.84 325.66,223.26 418.19,169.84 416.68,168.98 			"/>
			<polygon class="st11" points="404.31,191.06 404.31,196.48 339.54,233.88 339.54,228.46 			"/>
			<polygon class="st20" points="233.13,169.84 233.13,200.12 325.66,253.54 325.66,223.26 			"/>
			<polygon class="st0" points="298.65,221.65 281.89,211.98 281.89,213.98 298.65,223.65 			"/>
			<polygon class="st0" points="279.48,210.61 274.94,207.98 274.94,209.98 279.48,212.6 			"/>
			<polygon class="st0" points="258.21,198.33 248.92,192.97 248.92,194.96 258.21,200.33 			"/>
			<polygon class="st0" points="266.69,203.22 259.97,199.35 259.97,201.34 266.69,205.22 			"/>
			<polygon class="st0" points="272.99,206.86 268.45,204.24 268.44,206.24 272.98,208.86 			"/>
			<g>
				<g>
					<polygon class="st0" points="325.75,144.34 322.82,142.65 325.75,140.95 328.69,142.65 					"/>
					<polygon class="st21" points="331.63,147.73 328.69,146.04 331.63,144.34 334.57,146.04 					"/>
					<polygon class="st22" points="337.51,151.13 334.57,149.43 337.51,147.73 340.45,149.43 					"/>
					<polygon class="st0" points="343.38,154.52 340.45,152.82 343.38,151.13 346.32,152.82 					"/>
					<polygon class="st22" points="349.26,157.91 346.32,156.22 349.26,154.52 352.2,156.22 					"/>
					<polygon class="st0" points="355.14,161.31 352.2,159.61 355.14,157.91 358.07,159.61 					"/>
					<polygon class="st0" points="361.01,164.7 358.07,163 361.01,161.31 363.95,163 					"/>
					<polygon class="st0" points="366.89,168.09 363.95,166.39 366.89,164.7 369.83,166.39 					"/>
					<polygon class="st21" points="372.77,171.48 369.83,169.79 372.77,168.09 375.7,169.79 					"/>
				</g>
				<g>
					<polygon class="st0" points="319.85,147.75 316.92,146.05 319.85,144.36 322.79,146.05 					"/>
					<polygon class="st0" points="325.73,151.14 322.79,149.44 325.73,147.75 328.67,149.44 					"/>
					<polygon class="st0" points="331.61,154.53 328.67,152.84 331.61,151.14 334.55,152.84 					"/>
					<polygon class="st0" points="337.48,157.93 334.55,156.23 337.48,154.53 340.42,156.23 					"/>
					<polygon class="st0" points="343.36,161.32 340.42,159.62 343.36,157.93 346.3,159.62 					"/>
					<polygon class="st0" points="349.24,164.71 346.3,163.02 349.24,161.32 352.17,163.02 					"/>
					<polygon class="st0" points="355.11,168.1 352.17,166.41 355.11,164.71 358.05,166.41 					"/>
					<polygon class="st0" points="360.99,171.5 358.05,169.8 360.99,168.1 363.93,169.8 					"/>
					<polygon class="st0" points="366.87,174.89 363.93,173.19 366.87,171.5 369.8,173.19 					"/>
				</g>
				<g>
					<polygon class="st0" points="313.95,151.15 311.02,149.46 313.95,147.76 316.89,149.46 					"/>
					<polygon class="st0" points="319.83,154.55 316.89,152.85 319.83,151.15 322.77,152.85 					"/>
					<polygon class="st0" points="325.71,157.94 322.77,156.24 325.71,154.55 328.65,156.24 					"/>
					<polygon class="st21" points="331.58,161.33 328.65,159.64 331.58,157.94 334.52,159.64 					"/>
					<polygon class="st22" points="337.46,164.73 334.52,163.03 337.46,161.33 340.4,163.03 					"/>
					<polygon class="st22" points="343.34,168.12 340.4,166.42 343.34,164.73 346.27,166.42 					"/>
					<polygon class="st0" points="349.21,171.51 346.27,169.81 349.21,168.12 352.15,169.81 					"/>
					<polygon class="st0" points="355.09,174.9 352.15,173.21 355.09,171.51 358.03,173.21 					"/>
					<polygon class="st0" points="360.97,178.3 358.03,176.6 360.97,174.9 363.9,176.6 					"/>
				</g>
				<g>
					<polygon class="st22" points="308.05,154.56 305.12,152.86 308.05,151.17 310.99,152.86 					"/>
					<polygon class="st22" points="313.93,157.95 310.99,156.26 313.93,154.56 316.87,156.26 					"/>
					<polygon class="st21" points="319.81,161.35 316.87,159.65 319.81,157.95 322.74,159.65 					"/>
					<polygon class="st0" points="325.68,164.74 322.74,163.04 325.68,161.35 328.62,163.04 					"/>
					<polygon class="st0" points="331.56,168.13 328.62,166.44 331.56,164.74 334.5,166.44 					"/>
					<polygon class="st0" points="337.44,171.52 334.5,169.83 337.44,168.13 340.37,169.83 					"/>
					<polygon class="st22" points="343.31,174.92 340.37,173.22 343.31,171.52 346.25,173.22 					"/>
					<polygon class="st0" points="349.19,178.31 346.25,176.61 349.19,174.92 352.13,176.61 					"/>
					<polygon class="st0" points="355.06,181.7 352.13,180.01 355.06,178.31 358,180.01 					"/>
				</g>
				<g>
					<polygon class="st0" points="302.15,157.97 299.22,156.27 302.15,154.57 305.09,156.27 					"/>
					<polygon class="st0" points="308.03,161.36 305.09,159.66 308.03,157.97 310.97,159.66 					"/>
					<polygon class="st0" points="313.91,164.75 310.97,163.06 313.91,161.36 316.84,163.06 					"/>
					<polygon class="st0" points="319.78,168.15 316.84,166.45 319.78,164.75 322.72,166.45 					"/>
					<polygon class="st0" points="325.66,171.54 322.72,169.84 325.66,168.15 328.6,169.84 					"/>
					<polygon class="st0" points="331.54,174.93 328.6,173.23 331.54,171.54 334.47,173.23 					"/>
					<polygon class="st0" points="337.41,178.32 334.47,176.63 337.41,174.93 340.35,176.63 					"/>
					<polygon class="st0" points="343.29,181.72 340.35,180.02 343.29,178.32 346.23,180.02 					"/>
					<polygon class="st0" points="349.16,185.11 346.23,183.41 349.16,181.72 352.1,183.41 					"/>
				</g>
				<g>
					<polygon class="st0" points="296.25,161.37 293.32,159.68 296.25,157.98 299.19,159.68 					"/>
					<polygon class="st0" points="302.13,164.77 299.19,163.07 302.13,161.37 305.07,163.07 					"/>
					<polygon class="st22" points="308.01,168.16 305.07,166.46 308.01,164.77 310.94,166.46 					"/>
					<polygon class="st0" points="313.88,171.55 310.94,169.86 313.88,168.16 316.82,169.86 					"/>
					<polygon class="st21" points="319.76,174.94 316.82,173.25 319.76,171.55 322.7,173.25 					"/>
					<polygon class="st0" points="325.64,178.34 322.7,176.64 325.64,174.94 328.57,176.64 					"/>
					<polygon class="st0" points="331.51,181.73 328.57,180.03 331.51,178.34 334.45,180.03 					"/>
					<polygon class="st0" points="337.39,185.12 334.45,183.43 337.39,181.73 340.33,183.43 					"/>
					<polygon class="st0" points="343.26,188.52 340.33,186.82 343.26,185.12 346.2,186.82 					"/>
				</g>
				<g>
					<polygon class="st0" points="290.35,164.78 287.42,163.08 290.35,161.39 293.29,163.08 					"/>
					<polygon class="st0" points="296.23,168.17 293.29,166.48 296.23,164.78 299.17,166.48 					"/>
					<polygon class="st22" points="302.11,171.57 299.17,169.87 302.11,168.17 305.04,169.87 					"/>
					<polygon class="st0" points="307.98,174.96 305.04,173.26 307.98,171.57 310.92,173.26 					"/>
					<polygon class="st0" points="313.86,178.35 310.92,176.65 313.86,174.96 316.8,176.65 					"/>
					<polygon class="st21" points="319.74,181.74 316.8,180.05 319.74,178.35 322.67,180.05 					"/>
					<polygon class="st22" points="325.61,185.14 322.67,183.44 325.61,181.74 328.55,183.44 					"/>
					<polygon class="st0" points="331.49,188.53 328.55,186.83 331.49,185.14 334.43,186.83 					"/>
					<polygon class="st21" points="337.36,191.92 334.43,190.23 337.36,188.53 340.3,190.23 					"/>
				</g>
				<g>
					<polygon class="st0" points="284.45,168.19 281.52,166.49 284.45,164.79 287.39,166.49 					"/>
					<polygon class="st22" points="290.33,171.58 287.39,169.88 290.33,168.19 293.27,169.88 					"/>
					<polygon class="st0" points="296.21,174.97 293.27,173.28 296.21,171.58 299.14,173.28 					"/>
					<polygon class="st0" points="302.08,178.37 299.14,176.67 302.08,174.97 305.02,176.67 					"/>
					<polygon class="st0" points="307.96,181.76 305.02,180.06 307.96,178.37 310.9,180.06 					"/>
					<polygon class="st0" points="313.84,185.15 310.9,183.45 313.84,181.76 316.77,183.45 					"/>
					<polygon class="st0" points="319.71,188.54 316.77,186.85 319.71,185.15 322.65,186.85 					"/>
					<polygon class="st22" points="325.59,191.94 322.65,190.24 325.59,188.54 328.53,190.24 					"/>
					<polygon class="st0" points="331.46,195.33 328.53,193.63 331.46,191.94 334.4,193.63 					"/>
				</g>
				<g>
					<polygon class="st0" points="278.55,171.59 275.62,169.9 278.55,168.2 281.49,169.9 					"/>
					<polygon class="st21" points="284.43,174.99 281.49,173.29 284.43,171.59 287.37,173.29 					"/>
					<polygon class="st0" points="290.31,178.38 287.37,176.68 290.31,174.99 293.24,176.68 					"/>
					<polygon class="st0" points="296.18,181.77 293.24,180.08 296.18,178.38 299.12,180.08 					"/>
					<polygon class="st0" points="302.06,185.16 299.12,183.47 302.06,181.77 305,183.47 					"/>
					<polygon class="st0" points="307.94,188.56 305,186.86 307.94,185.16 310.87,186.86 					"/>
					<polygon class="st22" points="313.81,191.95 310.87,190.25 313.81,188.56 316.75,190.25 					"/>
					<polygon class="st0" points="319.69,195.34 316.75,193.65 319.69,191.95 322.63,193.65 					"/>
					<polygon class="st0" points="325.56,198.74 322.63,197.04 325.56,195.34 328.5,197.04 					"/>
				</g>
			</g>
		</g>
		<g>
			<polygon class="st17" points="325.66,170.83 233.13,117.41 325.66,63.99 418.19,117.41 			"/>
			<polygon class="st11" points="325.66,156.25 258.4,117.41 325.66,78.58 392.92,117.41 			"/>
			<polygon class="st3" points="325.66,81.21 390.64,118.73 392.92,117.41 325.66,78.58 258.4,117.41 260.67,118.73 			"/>
			<linearGradient id="SVGID_14_" gradientUnits="userSpaceOnUse" x1="371.9243" y1="182.4185" x2="371.9243" y2="119.1882">
				<stop  offset="0" style="stop-color:#C0BFF6"/>
				<stop  offset="0.2938" style="stop-color:#C5C4F7"/>
				<stop  offset="0.6399" style="stop-color:#D3D2F9"/>
				<stop  offset="1" style="stop-color:#E9E9FD"/>
			</linearGradient>
			<polygon class="st23" points="418.19,117.41 418.19,147.69 325.66,201.11 325.66,170.83 			"/>
			<polygon class="st7" points="233.13,117.41 233.13,147.69 325.66,201.11 325.66,170.83 			"/>
			<g class="st19">
				<polygon class="st11" points="239.4,131.02 239.4,140.55 319.39,186.74 319.39,177.2 				"/>
			</g>
			<polygon class="st3" points="325.66,169.1 234.63,116.54 233.13,117.41 325.66,170.83 418.19,117.41 416.68,116.54 			"/>
			<polygon class="st11" points="404.31,138.63 404.31,144.05 339.54,181.45 339.54,176.03 			"/>
			<polygon class="st20" points="233.13,117.41 233.13,147.69 325.66,201.11 325.66,170.83 			"/>
			<polygon class="st0" points="298.65,169.22 281.89,159.55 281.89,161.55 298.65,171.22 			"/>
			<polygon class="st0" points="279.48,158.18 274.94,155.55 274.94,157.55 279.48,160.17 			"/>
			<polygon class="st0" points="258.21,145.9 248.92,140.54 248.92,142.53 258.21,147.9 			"/>
			<polygon class="st0" points="266.69,150.79 259.97,146.92 259.97,148.91 266.69,152.79 			"/>
			<polygon class="st0" points="272.99,154.43 268.45,151.81 268.44,153.81 272.98,156.43 			"/>
			<g>
				<g>
					<polygon class="st0" points="325.75,91.91 322.82,90.22 325.75,88.52 328.69,90.22 					"/>
					<polygon class="st21" points="331.63,95.3 328.69,93.61 331.63,91.91 334.57,93.61 					"/>
					<polygon class="st22" points="337.51,98.7 334.57,97 337.51,95.3 340.45,97 					"/>
					<polygon class="st0" points="343.38,102.09 340.45,100.39 343.38,98.7 346.32,100.39 					"/>
					<polygon class="st22" points="349.26,105.48 346.32,103.79 349.26,102.09 352.2,103.79 					"/>
					<polygon class="st0" points="355.14,108.88 352.2,107.18 355.14,105.48 358.07,107.18 					"/>
					<polygon class="st0" points="361.01,112.27 358.07,110.57 361.01,108.88 363.95,110.57 					"/>
					<polygon class="st0" points="366.89,115.66 363.95,113.96 366.89,112.27 369.83,113.96 					"/>
					<polygon class="st21" points="372.77,119.05 369.83,117.36 372.77,115.66 375.7,117.36 					"/>
				</g>
				<g>
					<polygon class="st0" points="319.85,95.32 316.92,93.62 319.85,91.93 322.79,93.62 					"/>
					<polygon class="st0" points="325.73,98.71 322.79,97.01 325.73,95.32 328.67,97.01 					"/>
					<polygon class="st0" points="331.61,102.1 328.67,100.41 331.61,98.71 334.55,100.41 					"/>
					<polygon class="st0" points="337.48,105.5 334.55,103.8 337.48,102.1 340.42,103.8 					"/>
					<polygon class="st0" points="343.36,108.89 340.42,107.19 343.36,105.5 346.3,107.19 					"/>
					<polygon class="st0" points="349.24,112.28 346.3,110.59 349.24,108.89 352.17,110.59 					"/>
					<polygon class="st0" points="355.11,115.67 352.17,113.98 355.11,112.28 358.05,113.98 					"/>
					<polygon class="st0" points="360.99,119.07 358.05,117.37 360.99,115.67 363.93,117.37 					"/>
					<polygon class="st0" points="366.87,122.46 363.93,120.76 366.87,119.07 369.8,120.76 					"/>
				</g>
				<g>
					<polygon class="st0" points="313.95,98.72 311.02,97.03 313.95,95.33 316.89,97.03 					"/>
					<polygon class="st0" points="319.83,102.12 316.89,100.42 319.83,98.72 322.77,100.42 					"/>
					<polygon class="st0" points="325.71,105.51 322.77,103.81 325.71,102.12 328.65,103.81 					"/>
					<polygon class="st21" points="331.58,108.9 328.65,107.21 331.58,105.51 334.52,107.21 					"/>
					<polygon class="st22" points="337.46,112.3 334.52,110.6 337.46,108.9 340.4,110.6 					"/>
					<polygon class="st22" points="343.34,115.69 340.4,113.99 343.34,112.3 346.27,113.99 					"/>
					<polygon class="st0" points="349.21,119.08 346.27,117.38 349.21,115.69 352.15,117.38 					"/>
					<polygon class="st0" points="355.09,122.47 352.15,120.78 355.09,119.08 358.03,120.78 					"/>
					<polygon class="st0" points="360.97,125.87 358.03,124.17 360.97,122.47 363.9,124.17 					"/>
				</g>
				<g>
					<polygon class="st22" points="308.05,102.13 305.12,100.43 308.05,98.74 310.99,100.43 					"/>
					<polygon class="st22" points="313.93,105.52 310.99,103.83 313.93,102.13 316.87,103.83 					"/>
					<polygon class="st21" points="319.81,108.92 316.87,107.22 319.81,105.52 322.74,107.22 					"/>
					<polygon class="st0" points="325.68,112.31 322.74,110.61 325.68,108.92 328.62,110.61 					"/>
					<polygon class="st0" points="331.56,115.7 328.62,114.01 331.56,112.31 334.5,114.01 					"/>
					<polygon class="st0" points="337.44,119.09 334.5,117.4 337.44,115.7 340.37,117.4 					"/>
					<polygon class="st22" points="343.31,122.49 340.37,120.79 343.31,119.09 346.25,120.79 					"/>
					<polygon class="st0" points="349.19,125.88 346.25,124.18 349.19,122.49 352.13,124.18 					"/>
					<polygon class="st0" points="355.06,129.27 352.13,127.58 355.06,125.88 358,127.58 					"/>
				</g>
				<g>
					<polygon class="st0" points="302.15,105.54 299.22,103.84 302.15,102.14 305.09,103.84 					"/>
					<polygon class="st0" points="308.03,108.93 305.09,107.23 308.03,105.54 310.97,107.23 					"/>
					<polygon class="st0" points="313.91,112.32 310.97,110.63 313.91,108.93 316.84,110.63 					"/>
					<polygon class="st0" points="319.78,115.72 316.84,114.02 319.78,112.32 322.72,114.02 					"/>
					<polygon class="st0" points="325.66,119.11 322.72,117.41 325.66,115.72 328.6,117.41 					"/>
					<polygon class="st0" points="331.54,122.5 328.6,120.8 331.54,119.11 334.47,120.8 					"/>
					<polygon class="st0" points="337.41,125.89 334.47,124.2 337.41,122.5 340.35,124.2 					"/>
					<polygon class="st0" points="343.29,129.29 340.35,127.59 343.29,125.89 346.23,127.59 					"/>
					<polygon class="st0" points="349.16,132.68 346.23,130.98 349.16,129.29 352.1,130.98 					"/>
				</g>
				<g>
					<polygon class="st0" points="296.25,108.94 293.32,107.25 296.25,105.55 299.19,107.25 					"/>
					<polygon class="st0" points="302.13,112.34 299.19,110.64 302.13,108.94 305.07,110.64 					"/>
					<polygon class="st22" points="308.01,115.73 305.07,114.03 308.01,112.34 310.94,114.03 					"/>
					<polygon class="st0" points="313.88,119.12 310.94,117.43 313.88,115.73 316.82,117.43 					"/>
					<polygon class="st21" points="319.76,122.51 316.82,120.82 319.76,119.12 322.7,120.82 					"/>
					<polygon class="st0" points="325.64,125.91 322.7,124.21 325.64,122.51 328.57,124.21 					"/>
					<polygon class="st0" points="331.51,129.3 328.57,127.6 331.51,125.91 334.45,127.6 					"/>
					<polygon class="st0" points="337.39,132.69 334.45,131 337.39,129.3 340.33,131 					"/>
					<polygon class="st0" points="343.26,136.09 340.33,134.39 343.26,132.69 346.2,134.39 					"/>
				</g>
				<g>
					<polygon class="st0" points="290.35,112.35 287.42,110.65 290.35,108.96 293.29,110.65 					"/>
					<polygon class="st0" points="296.23,115.74 293.29,114.05 296.23,112.35 299.17,114.05 					"/>
					<polygon class="st22" points="302.11,119.14 299.17,117.44 302.11,115.74 305.04,117.44 					"/>
					<polygon class="st0" points="307.98,122.53 305.04,120.83 307.98,119.14 310.92,120.83 					"/>
					<polygon class="st0" points="313.86,125.92 310.92,124.22 313.86,122.53 316.8,124.22 					"/>
					<polygon class="st21" points="319.74,129.31 316.8,127.62 319.74,125.92 322.67,127.62 					"/>
					<polygon class="st22" points="325.61,132.71 322.67,131.01 325.61,129.31 328.55,131.01 					"/>
					<polygon class="st0" points="331.49,136.1 328.55,134.4 331.49,132.71 334.43,134.4 					"/>
					<polygon class="st21" points="337.36,139.49 334.43,137.8 337.36,136.1 340.3,137.8 					"/>
				</g>
				<g>
					<polygon class="st0" points="284.45,115.76 281.52,114.06 284.45,112.36 287.39,114.06 					"/>
					<polygon class="st22" points="290.33,119.15 287.39,117.45 290.33,115.76 293.27,117.45 					"/>
					<polygon class="st0" points="296.21,122.54 293.27,120.85 296.21,119.15 299.14,120.85 					"/>
					<polygon class="st0" points="302.08,125.93 299.14,124.24 302.08,122.54 305.02,124.24 					"/>
					<polygon class="st0" points="307.96,129.33 305.02,127.63 307.96,125.94 310.9,127.63 					"/>
					<polygon class="st0" points="313.84,132.72 310.9,131.02 313.84,129.33 316.77,131.02 					"/>
					<polygon class="st0" points="319.71,136.11 316.77,134.42 319.71,132.72 322.65,134.42 					"/>
					<polygon class="st22" points="325.59,139.51 322.65,137.81 325.59,136.11 328.53,137.81 					"/>
					<polygon class="st0" points="331.46,142.9 328.53,141.2 331.46,139.51 334.4,141.2 					"/>
				</g>
				<g>
					<polygon class="st0" points="278.55,119.16 275.62,117.47 278.55,115.77 281.49,117.47 					"/>
					<polygon class="st21" points="284.43,122.56 281.49,120.86 284.43,119.16 287.37,120.86 					"/>
					<polygon class="st0" points="290.31,125.95 287.37,124.25 290.31,122.56 293.24,124.25 					"/>
					<polygon class="st0" points="296.18,129.34 293.24,127.65 296.18,125.95 299.12,127.65 					"/>
					<polygon class="st0" points="302.06,132.73 299.12,131.04 302.06,129.34 305,131.04 					"/>
					<polygon class="st0" points="307.94,136.13 305,134.43 307.94,132.73 310.87,134.43 					"/>
					<polygon class="st22" points="313.81,139.52 310.87,137.82 313.81,136.13 316.75,137.82 					"/>
					<polygon class="st0" points="319.69,142.91 316.75,141.22 319.69,139.52 322.63,141.22 					"/>
					<polygon class="st0" points="325.56,146.31 322.63,144.61 325.56,142.91 328.5,144.61 					"/>
				</g>
			</g>
		</g>
		<g>
			<g>
				<g>
					<path class="st0" d="M425.26,333.82c-1.6,0-3.18-0.42-4.56-1.22l-52.58-30.36c-0.83-0.47-1.32-1.33-1.32-2.28
						c0-0.95,0.49-1.8,1.32-2.28l95.13-54.92c0.16-0.09,0.36-0.09,0.52,0l0.44,0.25l56.44,32.59c0.82,0.48,1.32,1.33,1.32,2.28
						c0,0.95-0.49,1.8-1.32,2.28l-90.83,52.44C428.44,333.4,426.87,333.82,425.26,333.82z M463.52,243.81l-94.87,54.77
						c-0.5,0.29-0.8,0.81-0.8,1.38c0,0.58,0.3,1.09,0.8,1.38l52.58,30.36c2.45,1.41,5.64,1.41,8.09,0l90.83-52.44
						c0.5-0.29,0.8-0.8,0.8-1.38c0-0.58-0.3-1.09-0.8-1.38L463.52,243.81z"/>
				</g>
				<g>
					<g>
						<g>
							<g>
								<g>
									
										<linearGradient id="SVGID_15_" gradientUnits="userSpaceOnUse" x1="2625.5176" y1="214.2741" x2="2742.3452" y2="214.2741" gradientTransform="matrix(1 0 0 1 -2278.6904 0)">
										<stop  offset="0" style="stop-color:#C0BFF6"/>
										<stop  offset="0.2938" style="stop-color:#C5C4F7"/>
										<stop  offset="0.6399" style="stop-color:#D3D2F9"/>
										<stop  offset="1" style="stop-color:#E9E9FD"/>
									</linearGradient>
									<path class="st24" d="M463.63,221.54l-12.65-75.07l1.02-0.43l-1.53-0.88l0,0.01c-0.3-0.2-0.72-0.19-1.18,0.08
										l-101.13,58.39c-0.83,0.48-1.46,1.71-1.31,2.57l12.75,75.67c0.07,0.39,0.26,0.66,0.53,0.77l0,0l1.5,0.86l0.26-1.4
										l-0.09,0.03l100.52-58.03C463.15,223.63,463.78,222.4,463.63,221.54z"/>
									
										<linearGradient id="SVGID_16_" gradientUnits="userSpaceOnUse" x1="2625.5183" y1="244.235" x2="2645.5789" y2="244.235" gradientTransform="matrix(1 0 0 1 -2278.6904 0)">
										<stop  offset="0" style="stop-color:#5761D7"/>
										<stop  offset="0.1779" style="stop-color:#5C66D9"/>
										<stop  offset="0.3876" style="stop-color:#6A73DF"/>
										<stop  offset="0.6134" style="stop-color:#8289E8"/>
										<stop  offset="0.849" style="stop-color:#A3A7F5"/>
										<stop  offset="1" style="stop-color:#BCBEFF"/>
									</linearGradient>
									<path class="st25" d="M348.72,205.69l-1.66-0.74c-0.19,0.43-0.28,0.87-0.21,1.25l12.75,75.67
										c0.07,0.39,0.26,0.66,0.53,0.77l0,0l1.5,0.86l0.26-1.4l-0.09,0.03l5.09-2.94L348.72,205.69z"/>
									<path class="st7" d="M463.91,225.02l-101.13,58.39c-0.78,0.45-1.45,0.19-1.59-0.62l-12.75-75.67
										c-0.15-0.86,0.48-2.09,1.31-2.57l101.13-58.39c0.78-0.45,1.45-0.19,1.59,0.62l12.75,75.67
										C465.37,223.31,464.74,224.54,463.91,225.02z"/>
									<g class="st19">
										<polygon class="st11" points="449.56,150.99 352.07,207.27 364.16,278.54 461.58,222.3 										"/>
									</g>
								</g>
								<g>
									
										<linearGradient id="SVGID_17_" gradientUnits="userSpaceOnUse" x1="2641.1697" y1="277.9147" x2="2806.1685" y2="277.9147" gradientTransform="matrix(1 0 0 1 -2278.6904 0)">
										<stop  offset="0" style="stop-color:#5761D7"/>
										<stop  offset="0.1779" style="stop-color:#5C66D9"/>
										<stop  offset="0.3876" style="stop-color:#6A73DF"/>
										<stop  offset="0.6134" style="stop-color:#8289E8"/>
										<stop  offset="0.849" style="stop-color:#A3A7F5"/>
										<stop  offset="1" style="stop-color:#BCBEFF"/>
									</linearGradient>
									<path class="st26" d="M527.48,260.84l-5.52,2.88l-55.34-31.95c-0.93-0.53-2.54-0.47-3.61,0.15l-95.45,55.11
										c-0.91-0.51-5.08-2.51-5.08-2.51l2.02,5.26c0,0,0.01-0.01,0.01-0.01c0.08,0.23,0.26,0.45,0.56,0.63l58.29,33.65
										c0.93,0.53,2.54,0.47,3.61-0.15l97.67-56.39c0.44-0.25,0.71-0.56,0.82-0.87l0.01,0L527.48,260.84z"/>
									
										<linearGradient id="SVGID_18_" gradientUnits="userSpaceOnUse" x1="2696.6099" y1="272.413" x2="2861.6965" y2="272.413" gradientTransform="matrix(1 0 0 1 -2278.6904 0)">
										<stop  offset="0" style="stop-color:#C0BFF6"/>
										<stop  offset="0.2938" style="stop-color:#C5C4F7"/>
										<stop  offset="0.6399" style="stop-color:#D3D2F9"/>
										<stop  offset="1" style="stop-color:#E9E9FD"/>
									</linearGradient>
									<path class="st27" d="M526.62,261.75l-100.1,57.79c-1.1,0.63-2.75,0.7-3.7,0.15l-59.74-34.49
										c-0.95-0.55-0.83-1.5,0.27-2.14l100.1-57.79c1.1-0.63,2.75-0.7,3.7-0.15l59.74,34.49
										C527.84,260.16,527.72,261.12,526.62,261.75z"/>
									<path class="st3" d="M526.62,261.17l-100.1,57.79c-1.1,0.63-2.75,0.7-3.7,0.15l-59.74-34.49c-0.31-0.18-0.5-0.4-0.58-0.65
										c-0.15,0.45,0.03,0.9,0.58,1.22l59.74,34.49c0.95,0.55,2.61,0.48,3.7-0.15l100.1-57.79c0.74-0.43,1.02-1,0.85-1.49
										C527.36,260.59,527.09,260.91,526.62,261.17z"/>
									<path class="st4" d="M396.33,307.04v-1.1c0-0.1,0.06-0.15,0.14-0.11l3.87,2.24c0.08,0.05,0.14,0.17,0.14,0.27v1.1
										c0,0.1-0.06,0.15-0.14,0.11l-3.87-2.24C396.39,307.27,396.33,307.15,396.33,307.04z"/>
									<path class="st4" d="M402.12,310.39v-1.1c0-0.1,0.06-0.15,0.14-0.11l3.87,2.24c0.08,0.04,0.14,0.17,0.14,0.27v1.1
										c0,0.1-0.06,0.15-0.14,0.11l-3.87-2.24C402.18,310.61,402.12,310.49,402.12,310.39z"/>
									<path class="st5" d="M378.66,281.98l83.19-48.03c0.55-0.32,1.24-0.32,1.79,0l29.62,17.14c0.43,0.25,0.43,0.86,0,1.11
										l-83.15,48c-0.55,0.32-1.24,0.32-1.79,0l-29.66-17.12C378.23,282.84,378.23,282.23,378.66,281.98z"/>
									<path class="st6" d="M378.66,283.09l0.3,0.17l82.89-47.86c0.55-0.32,1.24-0.32,1.79,0l29.32,16.97l0.3-0.17
										c0.43-0.25,0.43-0.86,0-1.11l-29.62-17.14c-0.55-0.32-1.24-0.32-1.79,0l-83.19,48.03
										C378.23,282.23,378.23,282.84,378.66,283.09z"/>
									<g>
										<polygon class="st7" points="465.87,238.3 393.61,280.01 390.4,278.16 462.66,236.44 										"/>
										<polygon class="st7" points="473.75,242.84 405.97,281.97 402.76,280.12 470.54,240.99 										"/>
										<polygon class="st7" points="478.88,245.81 399.08,291.88 395.87,290.02 475.67,243.95 										"/>
										<polygon class="st7" points="484.01,248.77 404.21,294.84 401,292.98 480.8,246.91 										"/>
										<polygon class="st7" points="489.14,251.73 409.34,297.8 406.13,295.95 485.93,249.87 										"/>
										<polygon class="st7" points="389.25,282.53 386.03,284.39 382.82,282.53 386.03,280.68 										"/>
										<polygon class="st7" points="400.58,285.09 393.91,288.94 390.7,287.08 397.37,283.23 										"/>
									</g>
									
										<linearGradient id="SVGID_19_" gradientUnits="userSpaceOnUse" x1="2724.5671" y1="281.7847" x2="2766.8247" y2="281.7847" gradientTransform="matrix(1 0 0 1 -2278.6904 0)">
										<stop  offset="0" style="stop-color:#C0BFF6"/>
										<stop  offset="0.2938" style="stop-color:#C5C4F7"/>
										<stop  offset="0.6399" style="stop-color:#D3D2F9"/>
										<stop  offset="1" style="stop-color:#E9E9FD"/>
									</linearGradient>
									<path class="st28" d="M465.05,293.6l22.43-12.95c0.88-0.51,0.88-1.33,0-1.83l-15.34-8.86c-0.88-0.51-2.3-0.51-3.17,0
										l-22.43,12.95c-0.88,0.51-0.88,1.33,0,1.83l15.34,8.86C462.75,294.11,464.17,294.11,465.05,293.6z"/>
									<path class="st6" d="M446.53,283.67l22.43-12.95c0.88-0.51,2.3-0.51,3.17,0l15.34,8.86c0.27,0.16,0.45,0.34,0.55,0.54
										c0.23-0.44,0.06-0.94-0.55-1.29l-15.34-8.86c-0.88-0.51-2.3-0.51-3.17,0l-22.43,12.95c-0.61,0.35-0.78,0.85-0.55,1.29
										C446.09,284.01,446.26,283.82,446.53,283.67z"/>
								</g>
							</g>
							<g class="st29">
								<defs>
									<polygon id="SVGID_10_" class="st29" points="449.56,150.99 352.07,207.27 364.16,278.54 461.58,222.3 									"/>
								</defs>
								<clipPath id="SVGID_20_">
									<use xlink:href="#SVGID_10_"  style="overflow:visible;"/>
								</clipPath>
								<g class="st30">
									
										<linearGradient id="SVGID_21_" gradientUnits="userSpaceOnUse" x1="2633.5374" y1="235.8221" x2="2798.624" y2="235.8221" gradientTransform="matrix(1 0 0 1 -2278.6904 0)">
										<stop  offset="0" style="stop-color:#C0BFF6"/>
										<stop  offset="0.2938" style="stop-color:#C5C4F7"/>
										<stop  offset="0.6399" style="stop-color:#D3D2F9"/>
										<stop  offset="1" style="stop-color:#E9E9FD"/>
									</linearGradient>
									<path class="st31" d="M463.55,225.16l-100.1,57.79c-1.1,0.63-2.75,0.7-3.7,0.15l-59.74-34.49
										c-0.95-0.55-0.83-1.5,0.27-2.14l100.1-57.79c1.1-0.63,2.75-0.7,3.7-0.15l59.74,34.49
										C464.77,223.57,464.65,224.53,463.55,225.16z"/>
									
										<linearGradient id="SVGID_22_" gradientUnits="userSpaceOnUse" x1="2622.6719" y1="223.7035" x2="2664.9294" y2="223.7035" gradientTransform="matrix(1 0 0 1 -2278.6904 0)">
										<stop  offset="0" style="stop-color:#C0BFF6"/>
										<stop  offset="0.2938" style="stop-color:#C5C4F7"/>
										<stop  offset="0.6399" style="stop-color:#D3D2F9"/>
										<stop  offset="1" style="stop-color:#E9E9FD"/>
									</linearGradient>
									<path class="st32" d="M363.15,235.52l22.43-12.95c0.88-0.51,0.88-1.33,0-1.83l-15.34-8.86c-0.88-0.51-2.3-0.51-3.17,0
										l-22.43,12.95c-0.88,0.51-0.88,1.33,0,1.83l15.34,8.86C360.85,236.03,362.27,236.03,363.15,235.52z"/>
									<path class="st6" d="M344.64,225.58l22.43-12.95c0.88-0.51,2.3-0.51,3.17,0l15.34,8.86c0.27,0.16,0.45,0.34,0.55,0.54
										c0.23-0.44,0.06-0.94-0.55-1.29l-15.34-8.86c-0.88-0.51-2.3-0.51-3.17,0l-22.43,12.95c-0.61,0.35-0.78,0.85-0.55,1.29
										C344.19,225.93,344.37,225.74,344.64,225.58z"/>
									<g>
										<path class="st5" d="M334.78,255.76l83.19-48.03c0.55-0.32,1.24-0.32,1.79,0l29.62,17.14c0.43,0.25,0.43,0.86,0,1.11
											l-83.15,48c-0.55,0.32-1.24,0.32-1.79,0l-29.66-17.12C334.35,256.62,334.35,256.01,334.78,255.76z"/>
										<path class="st6" d="M334.78,256.87l0.3,0.17l82.89-47.85c0.55-0.32,1.24-0.32,1.79,0l29.32,16.97l0.3-0.17
											c0.43-0.25,0.43-0.86,0-1.11l-29.62-17.14c-0.55-0.32-1.24-0.32-1.79,0l-83.19,48.03
											C334.35,256.01,334.35,256.62,334.78,256.87z"/>
										<g>
											<polygon class="st7" points="441.63,223.7 369.16,265.54 372.03,267.2 444.5,225.36 											"/>
											<polygon class="st7" points="433.99,219.3 365.11,259.06 367.98,260.72 436.86,220.95 											"/>
											<polygon class="st7" points="359.97,262.03 353.53,265.75 356.4,267.4 362.84,263.69 											"/>
											<polygon class="st7" points="365.65,267.57 361.17,270.16 364.04,271.81 368.52,269.23 											"/>
											<polygon class="st7" points="429.21,216.53 348.75,262.98 351.62,264.64 432.08,218.19 											"/>
											<polygon class="st7" points="424.42,213.77 343.96,260.22 346.84,261.88 427.29,215.43 											"/>
											<polygon class="st7" points="419.64,211.01 339.18,257.46 342.05,259.12 422.51,212.67 											"/>
										</g>
									</g>
								</g>
							</g>
						</g>
					</g>
				</g>
				<g>
					<polygon class="st0" points="388.78,251.37 396.67,246.81 396.9,248.18 389.01,252.74 					"/>
					<polygon class="st0" points="397.94,246.08 402.23,243.6 402.47,244.97 398.17,247.45 					"/>
					<polygon class="st0" points="408.92,239.74 412.03,237.94 412.26,239.31 409.15,241.11 					"/>
					<polygon class="st0" points="406.65,241.05 407.72,240.43 407.95,241.8 406.88,242.42 					"/>
					<polygon class="st0" points="403.52,242.86 405.45,241.75 405.68,243.11 403.75,244.23 					"/>
					<polygon class="st0" points="395.02,240.89 398.13,239.1 398.36,240.47 395.25,242.26 					"/>
					<polygon class="st0" points="387.72,245.11 393.82,241.59 394.05,242.96 387.96,246.48 					"/>
					<g>
						<polygon class="st0" points="396.46,222.91 402.55,219.39 402.78,220.76 396.69,224.28 						"/>
						<polygon class="st0" points="393.32,224.73 395.25,223.61 395.49,224.98 393.56,226.1 						"/>
					</g>
					<polygon class="st0" points="397.48,229.18 403.57,225.66 403.8,227.03 397.71,230.55 					"/>
					<polygon class="st0" points="394.34,230.99 396.27,229.88 396.5,231.25 394.57,232.36 					"/>
					<polygon class="st0" points="391.96,195.88 380.49,202.51 380.25,201.14 391.73,194.51 					"/>
					<polygon class="st0" points="396.01,193.54 393.17,195.18 392.94,193.81 395.78,192.17 					"/>
					<polygon class="st0" points="416.17,192.21 404.7,198.84 404.47,197.47 415.94,190.84 					"/>
					<polygon class="st0" points="420.22,189.87 417.38,191.51 417.15,190.14 419.99,188.5 					"/>
					<polygon class="st0" points="384.12,203.84 381.01,205.64 380.78,204.27 383.89,202.47 					"/>
					<polygon class="st0" points="403.04,199.78 399.93,201.58 399.7,200.21 402.81,198.41 					"/>
					<polygon class="st0" points="391.42,199.62 385.33,203.14 385.1,201.78 391.19,198.25 					"/>
					<polygon class="st0" points="394.55,197.81 392.63,198.93 392.39,197.56 394.32,196.44 					"/>
					<polygon class="st0" points="401.91,193.57 395.82,197.09 395.58,195.72 401.68,192.2 					"/>
					<polygon class="st0" points="405.04,191.76 403.11,192.87 402.88,191.5 404.81,190.39 					"/>
					<polygon class="st0" points="402.51,196.65 399.4,198.45 399.17,197.08 402.28,195.28 					"/>
					<polygon class="st0" points="409.81,192.44 403.72,195.96 403.49,194.59 409.58,191.07 					"/>
					<polygon class="st0" points="412.94,190.62 411.01,191.74 410.78,190.37 412.71,189.26 					"/>
					<polygon class="st0" points="387.9,205.09 381.54,208.77 381.31,207.4 387.67,203.72 					"/>
					<polygon class="st0" points="393.71,201.73 389.11,204.39 388.88,203.02 393.48,200.36 					"/>
					<polygon class="st0" points="398.02,199.24 394.91,201.04 394.68,199.67 397.79,197.87 					"/>
					<polygon class="st0" points="428.18,185.28 421.82,188.96 421.58,187.59 427.95,183.91 					"/>
					<polygon class="st0" points="433.98,181.93 429.38,184.59 429.15,183.22 433.75,180.56 					"/>
					<polygon class="st0" points="438.3,179.44 435.19,181.23 434.96,179.86 438.07,178.07 					"/>
					<polygon class="st0" points="425.69,226.62 432.06,222.94 432.29,224.31 425.92,227.99 					"/>
					<polygon class="st0" points="419.89,229.98 424.49,227.32 424.72,228.69 420.12,231.35 					"/>
					<polygon class="st0" points="415.57,232.47 418.68,230.67 418.91,232.04 415.81,233.84 					"/>
					<polygon class="st0" points="423.58,231.29 429.94,227.61 430.17,228.98 423.81,232.66 					"/>
					<polygon class="st0" points="417.78,234.64 422.38,231.98 422.61,233.35 418.01,236.01 					"/>
					<polygon class="st0" points="413.46,237.14 416.57,235.34 416.8,236.71 413.69,238.51 					"/>
					<polygon class="st0" points="397.89,225.5 400.04,224.26 400.27,225.63 398.13,226.87 					"/>
					<polygon class="st0" points="393.85,227.84 396.69,226.2 396.92,227.57 394.08,229.21 					"/>
					<polygon class="st0" points="388.47,208.2 382.11,211.88 381.88,210.51 388.24,206.83 					"/>
					<polygon class="st0" points="394.28,204.84 389.68,207.5 389.45,206.13 394.05,203.47 					"/>
					<polygon class="st0" points="398.59,202.35 395.48,204.15 395.25,202.78 398.36,200.98 					"/>
					<polygon class="st0" points="384.79,213.76 382.64,215 382.41,213.63 384.56,212.39 					"/>
					<polygon class="st0" points="388.83,211.42 385.99,213.07 385.76,211.7 388.6,210.06 					"/>
					<polygon class="st0" points="394.61,208.08 390.04,210.73 389.81,209.36 394.38,206.71 					"/>
					<polygon class="st0" points="400.82,234.13 402.97,232.89 403.2,234.26 401.05,235.5 					"/>
					<polygon class="st0" points="396.77,236.47 399.61,234.82 399.84,236.19 397,237.83 					"/>
					<polygon class="st0" points="390.99,239.81 395.57,237.16 395.8,238.53 391.22,241.18 					"/>
					<polygon class="st0" points="404.09,229.05 408.67,226.4 408.9,227.77 404.32,230.42 					"/>
					<polygon class="st0" points="396.61,233.13 402.77,229.56 403.01,230.93 396.84,234.5 					"/>
					<polygon class="st0" points="393.47,234.94 395.4,233.82 395.63,235.19 393.7,236.31 					"/>
					<polygon class="st0" points="390.46,236.68 392.39,235.56 392.63,236.93 390.7,238.05 					"/>
					<g>
						<polygon class="st0" points="390.88,219 396.97,215.48 397.2,216.85 391.11,220.37 						"/>
						<polygon class="st0" points="387.74,220.81 389.67,219.7 389.9,221.07 387.97,222.18 						"/>
						<polygon class="st0" points="391.3,215.32 393.45,214.08 393.68,215.45 391.53,216.69 						"/>
						<polygon class="st0" points="398.88,217.83 401.03,216.59 401.26,217.96 399.11,219.2 						"/>
						<polygon class="st0" points="401.95,216.06 407.1,213.08 407.33,214.45 402.18,217.43 						"/>
						<polygon class="st0" points="408.02,212.56 411.08,210.78 411.31,212.15 408.25,213.93 						"/>
						<polygon class="st0" points="387.25,217.66 390.09,216.02 390.32,217.39 387.48,219.03 						"/>
						<g>
							<polygon class="st0" points="386.99,214.45 389.13,213.2 389.37,214.57 387.22,215.82 							"/>
							<polygon class="st0" points="382.94,216.78 385.78,215.14 386.01,216.51 383.17,218.15 							"/>
						</g>
						<polygon class="st0" points="395.77,219.63 397.69,218.51 397.93,219.88 396,221 						"/>
						<polygon class="st0" points="392.76,221.37 394.69,220.25 394.92,221.62 392.99,222.74 						"/>
					</g>
					<polygon class="st0" points="407.58,237.09 414.16,233.29 414.39,234.66 407.81,238.46 					"/>
					<polygon class="st0" points="400.21,241.35 406.37,237.79 406.6,239.16 400.44,242.72 					"/>
					<polygon class="st0" points="397.07,243.16 399,242.05 399.23,243.42 397.3,244.53 					"/>
					<polygon class="st0" points="394.06,244.9 395.99,243.79 396.22,245.15 394.3,246.27 					"/>
					<polygon class="st0" points="392.42,245.85 388.26,248.26 388.49,249.63 392.65,247.22 					"/>
				</g>
			</g>
			<g>
				<g>
					<path class="st0" d="M226.05,333.82c-1.6,0-3.18-0.42-4.56-1.22l0,0l-90.83-52.44c-0.82-0.47-1.32-1.33-1.32-2.28
						c0-0.95,0.49-1.81,1.32-2.28l56.88-32.84c0.16-0.09,0.36-0.09,0.52,0l95.13,54.92c0.82,0.48,1.32,1.33,1.32,2.28
						c0,0.95-0.49,1.8-1.32,2.28l-52.58,30.36C229.24,333.4,227.66,333.82,226.05,333.82z M222.01,331.7c2.45,1.41,5.64,1.41,8.09,0
						l52.58-30.36c0.5-0.29,0.8-0.8,0.8-1.38c0-0.58-0.3-1.09-0.8-1.38l-94.87-54.77l-56.62,32.69c-0.5,0.29-0.8,0.8-0.8,1.38
						c0,0.58,0.3,1.09,0.8,1.38L222.01,331.7L222.01,331.7z"/>
				</g>
				<g>
					<g>
						<g>
							<g>
								<g>
									
										<linearGradient id="SVGID_23_" gradientUnits="userSpaceOnUse" x1="31.8747" y1="214.2741" x2="148.7023" y2="214.2741" gradientTransform="matrix(-1 0 0 1 336.3663 0)">
										<stop  offset="0" style="stop-color:#C0BFF6"/>
										<stop  offset="0.2938" style="stop-color:#C5C4F7"/>
										<stop  offset="0.6399" style="stop-color:#D3D2F9"/>
										<stop  offset="1" style="stop-color:#E9E9FD"/>
									</linearGradient>
									<path class="st33" d="M187.69,221.54l12.65-75.07l-1.02-0.43l1.53-0.88l0,0.01c0.3-0.2,0.72-0.19,1.18,0.08l101.13,58.39
										c0.83,0.48,1.46,1.71,1.31,2.57l-12.75,75.67c-0.07,0.39-0.26,0.66-0.53,0.77l0,0l-1.5,0.86l-0.26-1.4l0.09,0.03
										L189,224.11C188.17,223.63,187.54,222.4,187.69,221.54z"/>
									
										<linearGradient id="SVGID_24_" gradientUnits="userSpaceOnUse" x1="31.8755" y1="244.235" x2="51.9359" y2="244.235" gradientTransform="matrix(-1 0 0 1 336.3663 0)">
										<stop  offset="0" style="stop-color:#5761D7"/>
										<stop  offset="0.1779" style="stop-color:#5C66D9"/>
										<stop  offset="0.3876" style="stop-color:#6A73DF"/>
										<stop  offset="0.6134" style="stop-color:#8289E8"/>
										<stop  offset="0.849" style="stop-color:#A3A7F5"/>
										<stop  offset="1" style="stop-color:#BCBEFF"/>
									</linearGradient>
									<path class="st34" d="M302.59,205.69l1.66-0.74c0.19,0.43,0.28,0.87,0.21,1.25l-12.75,75.67
										c-0.07,0.39-0.26,0.66-0.53,0.77l0,0l-1.5,0.86l-0.26-1.4l0.09,0.03l-5.09-2.94L302.59,205.69z"/>
									<path class="st7" d="M187.41,225.02l101.13,58.39c0.78,0.45,1.45,0.19,1.59-0.62l12.75-75.67
										c0.15-0.86-0.48-2.09-1.31-2.57l-101.13-58.39c-0.78-0.45-1.45-0.19-1.59,0.62l-12.75,75.67
										C185.95,223.31,186.58,224.54,187.41,225.02z"/>
									<g class="st19">
										<polygon class="st11" points="201.76,150.99 299.24,207.27 287.16,278.54 189.74,222.3 										"/>
									</g>
								</g>
								<g>
									
										<linearGradient id="SVGID_25_" gradientUnits="userSpaceOnUse" x1="47.5269" y1="277.9147" x2="212.5257" y2="277.9147" gradientTransform="matrix(-1 0 0 1 336.3663 0)">
										<stop  offset="0" style="stop-color:#5761D7"/>
										<stop  offset="0.1779" style="stop-color:#5C66D9"/>
										<stop  offset="0.3876" style="stop-color:#6A73DF"/>
										<stop  offset="0.6134" style="stop-color:#8289E8"/>
										<stop  offset="0.849" style="stop-color:#A3A7F5"/>
										<stop  offset="1" style="stop-color:#BCBEFF"/>
									</linearGradient>
									<path class="st35" d="M123.84,260.84l5.52,2.88l55.34-31.95c0.93-0.53,2.54-0.47,3.61,0.15l95.45,55.11
										c0.91-0.51,5.08-2.51,5.08-2.51l-2.02,5.26c0,0-0.01-0.01-0.01-0.01c-0.08,0.23-0.26,0.45-0.56,0.63l-58.29,33.65
										c-0.93,0.53-2.54,0.47-3.61-0.15l-97.67-56.39c-0.44-0.25-0.71-0.56-0.82-0.87l-0.01,0L123.84,260.84z"/>
									
										<linearGradient id="SVGID_26_" gradientUnits="userSpaceOnUse" x1="102.9671" y1="272.413" x2="268.0537" y2="272.413" gradientTransform="matrix(-1 0 0 1 336.3663 0)">
										<stop  offset="0" style="stop-color:#C0BFF6"/>
										<stop  offset="0.2938" style="stop-color:#C5C4F7"/>
										<stop  offset="0.6399" style="stop-color:#D3D2F9"/>
										<stop  offset="1" style="stop-color:#E9E9FD"/>
									</linearGradient>
									<path class="st36" d="M124.69,261.75l100.1,57.79c1.1,0.63,2.75,0.7,3.7,0.15l59.74-34.49c0.95-0.55,0.83-1.5-0.27-2.14
										l-100.1-57.79c-1.1-0.63-2.75-0.7-3.7-0.15l-59.74,34.49C123.48,260.16,123.6,261.12,124.69,261.75z"/>
									<path class="st3" d="M124.69,261.17l100.1,57.79c1.1,0.63,2.75,0.7,3.7,0.15l59.74-34.49c0.31-0.18,0.5-0.4,0.58-0.65
										c0.15,0.45-0.03,0.9-0.58,1.22L228.5,319.7c-0.95,0.55-2.61,0.48-3.7-0.15l-100.1-57.79c-0.74-0.43-1.02-1-0.85-1.49
										C123.96,260.59,124.23,260.91,124.69,261.17z"/>
									<path class="st4" d="M254.99,307.04v-1.1c0-0.1-0.06-0.15-0.14-0.11l-3.87,2.24c-0.08,0.05-0.14,0.17-0.14,0.27v1.1
										c0,0.1,0.06,0.15,0.14,0.11l3.87-2.24C254.93,307.27,254.99,307.15,254.99,307.04z"/>
									<path class="st4" d="M249.2,310.39v-1.1c0-0.1-0.06-0.15-0.14-0.11l-3.87,2.24c-0.08,0.04-0.14,0.17-0.14,0.27v1.1
										c0,0.1,0.06,0.15,0.14,0.11l3.87-2.24C249.14,310.61,249.2,310.49,249.2,310.39z"/>
									<path class="st5" d="M272.66,281.98l-83.19-48.03c-0.55-0.32-1.24-0.32-1.79,0l-29.62,17.14c-0.43,0.25-0.43,0.86,0,1.11
										l83.15,48c0.55,0.32,1.24,0.32,1.79,0l29.66-17.12C273.09,282.84,273.09,282.23,272.66,281.98z"/>
									<path class="st6" d="M272.66,283.09l-0.3,0.17l-82.89-47.86c-0.55-0.32-1.24-0.32-1.79,0l-29.32,16.97l-0.3-0.17
										c-0.43-0.25-0.43-0.86,0-1.11l29.62-17.14c0.55-0.32,1.24-0.32,1.79,0l83.19,48.03
										C273.09,282.23,273.09,282.84,272.66,283.09z"/>
									<g>
										<polygon class="st7" points="192.41,242.31 262.82,282.97 265.86,281.01 195.63,240.47 										"/>
										<polygon class="st7" points="187.83,248.77 251.76,285.68 253.95,283.23 191.04,246.91 										"/>
										<polygon class="st7" points="172.44,245.81 252.24,291.88 255.45,290.02 175.65,243.95 										"/>
										<polygon class="st7" points="167.31,248.77 247.11,294.84 250.32,292.98 170.52,246.91 										"/>
										<polygon class="st7" points="162.18,251.73 241.98,297.8 245.19,295.95 165.39,249.87 										"/>
										<polygon class="st7" points="262.07,282.53 265.28,284.39 268.5,282.53 265.28,280.68 										"/>
										<polygon class="st7" points="250.74,285.09 257.41,288.94 260.62,287.08 253.95,283.23 										"/>
									</g>
									
										<linearGradient id="SVGID_27_" gradientUnits="userSpaceOnUse" x1="130.9243" y1="281.7847" x2="173.1818" y2="281.7847" gradientTransform="matrix(-1 0 0 1 336.3663 0)">
										<stop  offset="0" style="stop-color:#C0BFF6"/>
										<stop  offset="0.2938" style="stop-color:#C5C4F7"/>
										<stop  offset="0.6399" style="stop-color:#D3D2F9"/>
										<stop  offset="1" style="stop-color:#E9E9FD"/>
									</linearGradient>
									<path class="st37" d="M186.27,293.6l-22.43-12.95c-0.88-0.51-0.88-1.33,0-1.83l15.34-8.86c0.88-0.51,2.3-0.51,3.17,0
										l22.43,12.95c0.88,0.51,0.88,1.33,0,1.83l-15.34,8.86C188.57,294.11,187.15,294.11,186.27,293.6z"/>
									<path class="st6" d="M204.78,283.67l-22.43-12.95c-0.88-0.51-2.3-0.51-3.17,0l-15.34,8.86c-0.27,0.16-0.45,0.34-0.55,0.54
										c-0.23-0.44-0.06-0.94,0.55-1.29l15.34-8.86c0.88-0.51,2.3-0.51,3.17,0l22.43,12.95c0.61,0.35,0.78,0.85,0.55,1.29
										C205.23,284.01,205.06,283.82,204.78,283.67z"/>
								</g>
							</g>
							<g class="st29">
								<defs>
									<polygon id="SVGID_9_" class="st29" points="201.76,150.99 299.24,207.27 287.16,278.54 189.74,222.3 									"/>
								</defs>
								<clipPath id="SVGID_28_">
									<use xlink:href="#SVGID_9_"  style="overflow:visible;"/>
								</clipPath>
								<g class="st38">
									
										<linearGradient id="SVGID_29_" gradientUnits="userSpaceOnUse" x1="39.8945" y1="235.8221" x2="204.9811" y2="235.8221" gradientTransform="matrix(-1 0 0 1 336.3663 0)">
										<stop  offset="0" style="stop-color:#C0BFF6"/>
										<stop  offset="0.2938" style="stop-color:#C5C4F7"/>
										<stop  offset="0.6399" style="stop-color:#D3D2F9"/>
										<stop  offset="1" style="stop-color:#E9E9FD"/>
									</linearGradient>
									<path class="st39" d="M187.77,225.16l100.1,57.79c1.1,0.63,2.75,0.7,3.7,0.15l59.73-34.49c0.95-0.55,0.83-1.5-0.27-2.14
										l-100.1-57.79c-1.1-0.63-2.75-0.7-3.7-0.15l-59.73,34.49C186.55,223.57,186.67,224.53,187.77,225.16z"/>
									
										<linearGradient id="SVGID_30_" gradientUnits="userSpaceOnUse" x1="29.029" y1="223.7035" x2="71.2865" y2="223.7035" gradientTransform="matrix(-1 0 0 1 336.3663 0)">
										<stop  offset="0" style="stop-color:#C0BFF6"/>
										<stop  offset="0.2938" style="stop-color:#C5C4F7"/>
										<stop  offset="0.6399" style="stop-color:#D3D2F9"/>
										<stop  offset="1" style="stop-color:#E9E9FD"/>
									</linearGradient>
									<path class="st40" d="M288.17,235.52l-22.43-12.95c-0.88-0.51-0.88-1.33,0-1.83l15.34-8.86c0.88-0.51,2.3-0.51,3.17,0
										l22.43,12.95c0.88,0.51,0.88,1.33,0,1.83l-15.34,8.86C290.47,236.03,289.04,236.03,288.17,235.52z"/>
									<path class="st6" d="M306.68,225.58l-22.43-12.95c-0.88-0.51-2.3-0.51-3.17,0l-15.34,8.86c-0.27,0.16-0.45,0.34-0.55,0.54
										c-0.23-0.44-0.06-0.94,0.55-1.29l15.34-8.86c0.88-0.51,2.3-0.51,3.17,0l22.43,12.95c0.61,0.35,0.78,0.85,0.55,1.29
										C307.13,225.93,306.95,225.74,306.68,225.58z"/>
									<g>
										<path class="st5" d="M316.54,255.76l-83.19-48.03c-0.55-0.32-1.24-0.32-1.79,0l-29.62,17.14c-0.43,0.25-0.43,0.86,0,1.11
											l83.15,48c0.55,0.32,1.24,0.32,1.79,0l29.66-17.12C316.97,256.62,316.97,256.01,316.54,255.76z"/>
										<path class="st6" d="M316.54,256.87l-0.3,0.17l-82.89-47.85c-0.55-0.32-1.24-0.32-1.79,0l-29.32,16.97l-0.3-0.17
											c-0.43-0.25-0.43-0.86,0-1.11l29.62-17.14c0.55-0.32,1.24-0.32,1.79,0l83.19,48.03
											C316.97,256.01,316.97,256.62,316.54,256.87z"/>
										<g>
											<polygon class="st7" points="209.69,223.7 282.16,265.54 279.29,267.2 206.82,225.36 											"/>
											<polygon class="st7" points="217.33,219.3 286.21,259.06 283.34,260.72 214.46,220.95 											"/>
											<polygon class="st7" points="291.35,262.03 297.79,265.75 294.91,267.4 288.48,263.69 											"/>
											<polygon class="st7" points="285.67,267.57 290.15,270.16 287.28,271.81 282.8,269.23 											"/>
											<polygon class="st7" points="222.11,216.53 302.57,262.98 299.7,264.64 219.24,218.19 											"/>
											<polygon class="st7" points="226.9,213.77 307.35,260.22 304.48,261.88 224.03,215.43 											"/>
											<polygon class="st7" points="231.68,211.01 312.14,257.46 309.27,259.12 228.81,212.67 											"/>
										</g>
									</g>
								</g>
							</g>
						</g>
					</g>
				</g>
				<g>
					<polygon class="st0" points="223.59,177.41 231.47,181.96 231.71,180.6 223.82,176.04 					"/>
					<polygon class="st0" points="232.74,182.69 237.04,185.18 237.27,183.81 232.97,181.32 					"/>
					<polygon class="st0" points="243.73,189.04 246.84,190.83 247.07,189.46 243.96,187.67 					"/>
					<polygon class="st0" points="241.46,187.72 242.52,188.34 242.75,186.97 241.69,186.36 					"/>
					<polygon class="st0" points="238.32,185.91 240.25,187.03 240.48,185.66 238.56,184.54 					"/>
					<polygon class="st0" points="229.83,187.88 232.94,189.68 233.17,188.31 230.06,186.51 					"/>
					<polygon class="st0" points="222.53,183.66 228.62,187.18 228.85,185.82 222.76,182.29 					"/>
					<g>
						<polygon class="st0" points="231.26,205.86 237.36,209.38 237.59,208.01 231.5,204.49 						"/>
						<polygon class="st0" points="228.13,204.05 230.06,205.16 230.29,203.79 228.36,202.68 						"/>
					</g>
					<polygon class="st0" points="232.28,199.59 238.37,203.11 238.6,201.75 232.51,198.22 					"/>
					<polygon class="st0" points="229.15,197.78 231.08,198.9 231.31,197.53 229.38,196.41 					"/>
					<polygon class="st0" points="226.77,232.9 215.29,226.26 215.06,227.63 226.54,234.27 					"/>
					<polygon class="st0" points="230.81,235.23 227.97,233.59 227.74,234.96 230.58,236.6 					"/>
					<polygon class="st0" points="250.98,236.56 239.5,229.93 239.27,231.3 250.75,237.93 					"/>
					<polygon class="st0" points="255.02,238.9 252.18,237.26 251.95,238.63 254.79,240.27 					"/>
					<polygon class="st0" points="218.93,224.93 215.82,223.14 215.59,224.51 218.7,226.3 					"/>
					<polygon class="st0" points="237.85,228.99 234.74,227.19 234.51,228.56 237.61,230.36 					"/>
					<polygon class="st0" points="226.23,229.15 220.13,225.63 219.9,227 225.99,230.52 					"/>
					<polygon class="st0" points="229.36,230.96 227.43,229.85 227.2,231.22 229.13,232.33 					"/>
					<polygon class="st0" points="236.71,235.2 230.62,231.68 230.39,233.05 236.48,236.57 					"/>
					<polygon class="st0" points="239.85,237.02 237.92,235.9 237.69,237.27 239.62,238.39 					"/>
					<polygon class="st0" points="237.32,232.12 234.21,230.32 233.98,231.69 237.09,233.49 					"/>
					<polygon class="st0" points="244.61,236.34 238.52,232.82 238.29,234.19 244.38,237.71 					"/>
					<polygon class="st0" points="247.75,238.15 245.82,237.03 245.59,238.4 247.52,239.52 					"/>
					<polygon class="st0" points="222.71,223.68 216.35,220.01 216.12,221.38 222.48,225.05 					"/>
					<polygon class="st0" points="228.52,227.04 223.91,224.38 223.68,225.75 228.28,228.41 					"/>
					<polygon class="st0" points="232.83,229.53 229.72,227.74 229.49,229.11 232.6,230.9 					"/>
					<polygon class="st0" points="262.98,243.49 256.62,239.81 256.39,241.18 262.75,244.86 					"/>
					<polygon class="st0" points="268.79,246.84 264.19,244.19 263.96,245.56 268.56,248.21 					"/>
					<polygon class="st0" points="273.1,249.34 269.99,247.54 269.76,248.91 272.87,250.71 					"/>
					<polygon class="st0" points="260.5,202.15 266.86,205.83 267.09,204.46 260.73,200.78 					"/>
					<polygon class="st0" points="254.69,198.8 259.29,201.46 259.53,200.09 254.93,197.43 					"/>
					<polygon class="st0" points="250.38,196.3 253.49,198.1 253.72,196.73 250.61,194.93 					"/>
					<polygon class="st0" points="258.39,197.49 264.75,201.16 264.98,199.79 258.62,196.12 					"/>
					<polygon class="st0" points="252.58,194.13 257.18,196.79 257.41,195.42 252.81,192.76 					"/>
					<polygon class="st0" points="248.27,191.64 251.38,193.43 251.61,192.07 248.5,190.27 					"/>
					<polygon class="st0" points="232.7,203.27 234.85,204.51 235.08,203.14 232.93,201.9 					"/>
					<polygon class="st0" points="228.66,200.93 231.5,202.58 231.73,201.21 228.89,199.56 					"/>
					<polygon class="st0" points="223.28,220.57 216.92,216.9 216.69,218.27 223.05,221.94 					"/>
					<polygon class="st0" points="229.08,223.93 224.48,221.27 224.25,222.64 228.85,225.3 					"/>
					<polygon class="st0" points="233.4,226.42 230.29,224.63 230.06,226 233.17,227.79 					"/>
					<polygon class="st0" points="219.59,215.01 217.45,213.77 217.21,215.14 219.36,216.38 					"/>
					<polygon class="st0" points="223.64,217.35 220.8,215.71 220.57,217.08 223.41,218.72 					"/>
					<polygon class="st0" points="229.42,220.69 224.84,218.05 224.61,219.41 229.19,222.06 					"/>
					<polygon class="st0" points="235.62,194.65 237.77,195.89 238,194.52 235.85,193.28 					"/>
					<polygon class="st0" points="231.58,192.31 234.42,193.95 234.65,192.58 231.81,190.94 					"/>
					<polygon class="st0" points="225.8,188.97 230.37,191.61 230.61,190.24 226.03,187.6 					"/>
					<polygon class="st0" points="238.9,199.72 243.47,202.37 243.7,201 239.13,198.36 					"/>
					<polygon class="st0" points="231.41,195.65 237.58,199.21 237.81,197.84 231.64,194.28 					"/>
					<polygon class="st0" points="228.28,193.83 230.21,194.95 230.44,193.58 228.51,192.46 					"/>
					<polygon class="st0" points="225.27,192.1 227.2,193.21 227.43,191.84 225.5,190.73 					"/>
					<g>
						<polygon class="st0" points="225.68,209.77 231.78,213.29 232.01,211.92 225.92,208.4 						"/>
						<polygon class="st0" points="222.55,207.96 224.48,209.08 224.71,207.71 222.78,206.59 						"/>
						<polygon class="st0" points="226.1,213.45 228.25,214.69 228.48,213.32 226.33,212.08 						"/>
						<polygon class="st0" points="233.69,210.94 235.84,212.19 236.07,210.82 233.92,209.58 						"/>
						<polygon class="st0" points="236.75,212.71 241.91,215.69 242.14,214.32 236.98,211.34 						"/>
						<polygon class="st0" points="242.82,216.22 245.89,217.99 246.12,216.62 243.05,214.85 						"/>
						<polygon class="st0" points="222.06,211.11 224.9,212.75 225.13,211.39 222.29,209.74 						"/>
						<g>
							<polygon class="st0" points="221.79,214.33 223.94,215.57 224.17,214.2 222.02,212.96 							"/>
							<polygon class="st0" points="217.75,211.99 220.59,213.63 220.82,212.26 217.98,210.62 							"/>
						</g>
						<polygon class="st0" points="230.57,209.14 232.5,210.26 232.73,208.89 230.8,207.78 						"/>
						<polygon class="st0" points="227.56,207.41 229.49,208.52 229.72,207.15 227.79,206.04 						"/>
					</g>
					<polygon class="st0" points="242.38,191.68 248.97,195.49 249.2,194.12 242.62,190.31 					"/>
					<polygon class="st0" points="235.01,187.42 241.18,190.99 241.41,189.62 235.24,186.05 					"/>
					<polygon class="st0" points="231.88,185.61 233.81,186.73 234.04,185.36 232.11,184.24 					"/>
					<polygon class="st0" points="228.87,183.87 230.8,184.99 231.03,183.62 229.1,182.5 					"/>
					<polygon class="st0" points="227.23,182.92 223.06,180.52 223.29,179.15 227.46,181.55 					"/>
				</g>
			</g>
		</g>
		<polygon class="st7" points="185.45,238.3 188.66,240.15 191.87,238.3 188.66,236.44 		"/>
		<polygon class="st7" points="177.57,242.84 184.24,246.69 187.45,244.84 180.78,240.99 		"/>
	</g>
</g>
</svg>
