<svg id="Layer_1" data-name="Layer 1" xmlns="http://www.w3.org/2000/svg" viewBox="0 0 1072.45 552.2"><defs><style>.cls-1{fill:#efa52e;}.cls-2{fill:#848689;}.cls-3{fill:#15ccba;}.cls-4{fill:#333;}.cls-5{fill:#fff;}.cls-6{fill:#afafaf;}</style></defs><title>Volatility Graph</title><rect class="cls-1" x="189.17" y="359.15" width="160.5" height="50.67" rx="10" ry="10"/><rect class="cls-2" x="486.28" y="314.76" width="160.5" height="95.06" rx="10" ry="10"/><path class="cls-3" d="M934.77,409.82H794.27a10,10,0,0,1-10-10V320.13a10,10,0,0,1,4.48-8.34l140.5-93a10,10,0,0,1,15.52,8.34V399.82A10,10,0,0,1,934.77,409.82Z"/><path class="cls-4" d="M828.33,504.7v-2l16.14-21.18H829.69v-2h17.72v2l-16.14,21.18h16.24v2Z"/><path class="cls-4" d="M870.23,486.81c-1-4.31-3.65-5.95-8-5.95-6.09,0-8.72,5.21-8.72,11.16,0,5.64,2.07,11.31,8.93,11.31,4.34,0,7-2.94,8-6.93H873c-1.12,4.87-4.17,9-10.92,9-7.78,0-10.86-6.12-10.86-13.27,0-9.62,5-13.26,11.73-13.26,5.18,0,9,2.76,9.77,8Z"/><path class="cls-4" d="M880.86,482.71h-.07v22h-2.38V479.49h2.7l14.56,22h.07v-22h2.38V504.7h-2.76Z"/><path class="cls-4" d="M518.57,497.17c.38,4.51,3.39,6.16,7.24,6.16,4.52,0,6.41-2.45,6.41-5.22,0-7.8-15.37-2.62-15.37-12.53,0-3.5,2.91-6.75,8.54-6.75s8.51,3.43,8.47,7.52h-2.27c0-3.85-3-5.49-6.2-5.49-4.83,0-6.58,3-6.16,5.56,1.09,6.51,15.37,1.82,15.37,11.59,0,4.62-3.4,7.35-9.21,7.35-5.25,0-9.13-2.73-9.13-8.19Z"/><path class="cls-4" d="M545.9,504.76a9.9,9.9,0,0,1-2.41.42c-2.07,0-3.22-.91-3.22-3.6V488.31h-2.56v-1.75h2.56v-5h2.1v5h3.39v1.75h-3.39v12.43c0,1.78.07,2.55,1.82,2.55a7.19,7.19,0,0,0,1.71-.24Z"/><path class="cls-4" d="M558.47,494.12a10.7,10.7,0,0,0,2.76-.59c.7-.32.77-1.26.77-1.89,0-2.14-1.26-3.68-4.51-3.68-2.91,0-4.9,1-5.29,4.1h-2.13c.31-4.27,3.5-6,7.45-6,3.68,0,6.58,1.44,6.58,5.64v9.87c0,1.64.42,2,2.21,1.4v1.64a5.68,5.68,0,0,1-1.65.35,4,4,0,0,1-.94-.1c-1.4-.21-1.65-1.44-1.68-2.7a8.9,8.9,0,0,1-6.76,3c-3.18,0-6-1.71-6-5.21,0-3.05,2.1-4.9,6.33-5.46Zm3.53,1.05a17.09,17.09,0,0,1-5.42,1c-3.19.24-5.11,1.4-5.11,3.85,0,2.2,1.92,3.25,3.92,3.25,3.32,0,6.61-1.61,6.61-5.28Z"/><path class="cls-4" d="M572.82,504.7h-2.1V479.49h2.1v10a7.53,7.53,0,0,1,6.47-3.4c5.53,0,8.09,4.52,8.09,9.59,0,5.36-2.35,9.52-8.19,9.52a7.29,7.29,0,0,1-6.3-3.67h-.07Zm6.12-1.41c3.54,0,6.16-2.55,6.2-7.1s-1.86-8.23-6.2-8.23c-3.81,0-6.12,3.5-6.12,7.6C572.82,499.93,575,503.29,578.94,503.29Z"/><path class="cls-4" d="M593.05,504.7V479.49h2.1V504.7Z"/><path class="cls-4" d="M602.67,496.12c0,3.92,2.07,7.17,6.09,7.17a5.31,5.31,0,0,0,5.5-4.16h2.34c-1.05,3.43-3.22,6.05-7.84,6.05-5.81,0-8.33-4.13-8.33-9.48s3.15-9.63,8.33-9.63c5,0,8,3.54,8,10.05Zm11.83-1.75c0-3.54-2-6.41-5.74-6.41s-5.67,3-6.09,6.41Z"/><path class="cls-4" d="M39.36,314.13v-2.49l22.4-7.6-22.4-7.56V294l25.2,8.75v2.62Z"/><path class="cls-4" d="M55.49,291.17c-5.28,0-9.55-2.8-9.55-8.4s4.23-8.41,9.55-8.41c5.74,0,9.56,3.33,9.56,8.41C65,287.39,61.83,291.17,55.49,291.17Zm-7.66-8.4c0,4.41,3.74,6.16,7.66,6.16,4.52,0,7.67-2.14,7.67-6.16,0-4.41-3.78-6.17-7.67-6.17C51.22,276.64,47.83,278.32,47.83,282.77Z"/><path class="cls-4" d="M64.56,269.33H39.36v-2.1h25.2Z"/><path class="cls-4" d="M54,252.67a10.38,10.38,0,0,0-.6-2.77c-.31-.7-1.26-.77-1.89-.77-2.13,0-3.67,1.26-3.67,4.52,0,2.9.94,4.9,4.09,5.28v2.14c-4.27-.32-6-3.5-6-7.46,0-3.67,1.43-6.58,5.63-6.58h9.87c1.65,0,2-.42,1.4-2.21h1.65a6,6,0,0,1,.35,1.65,4,4,0,0,1-.11.94c-.21,1.41-1.43,1.65-2.69,1.69a8.89,8.89,0,0,1,3,6.75c0,3.19-1.72,6.06-5.22,6.06-3,0-4.9-2.1-5.46-6.34Zm1-3.54a17.47,17.47,0,0,1,1,5.43c.25,3.18,1.4,5.11,3.85,5.11,2.21,0,3.26-1.93,3.26-3.92,0-3.33-1.61-6.62-5.29-6.62Z"/><path class="cls-4" d="M64.63,234.29a10.42,10.42,0,0,1,.42,2.42c0,2.06-.91,3.22-3.61,3.22H48.18v2.55H46.43v-2.55h-5v-2.1h5v-3.4h1.75v3.4H60.6c1.79,0,2.56-.07,2.56-1.82a7.29,7.29,0,0,0-.25-1.72Z"/><path class="cls-4" d="M42.47,229.85H39.36v-2.31h3.11Zm22.09-.11H46.43v-2.1H64.56Z"/><path class="cls-4" d="M64.56,221.1H39.36V219h25.2Z"/><path class="cls-4" d="M42.47,212.56H39.36v-2.31h3.11Zm22.09-.11H46.43v-2.1H64.56Z"/><path class="cls-4" d="M64.63,197.75a10.42,10.42,0,0,1,.42,2.42c0,2.06-.91,3.22-3.61,3.22H48.18v2.55H46.43v-2.55h-5v-2.1h5v-3.4h1.75v3.4H60.6c1.79,0,2.56-.07,2.56-1.82a7.29,7.29,0,0,0-.25-1.72Z"/><path class="cls-4" d="M69.49,193.66a9.2,9.2,0,0,0,.21-1.75c0-2.38-3.43-2.73-5-3.54l-18.27,7v-2.35L62,187.25l-15.57-5.81v-2.27l17.88,6.75c4.55,1.72,7.39,2.84,7.39,5.74a8.4,8.4,0,0,1-.25,2Z"/><path class="cls-4" d="M235,486.81c-1-4.31-3.64-5.95-8-5.95-6.09,0-8.71,5.21-8.71,11.16,0,5.64,2.06,11.31,8.93,11.31,4.33,0,7-2.94,8-6.93h2.48c-1.12,4.87-4.17,9-10.92,9-7.77,0-10.85-6.12-10.85-13.27,0-9.62,5-13.26,11.73-13.26,5.18,0,9,2.76,9.76,8Z"/><path class="cls-4" d="M245.17,504.7h-2.1V486.56h2.1V490h.07c1.15-2.91,2.87-3.89,5.91-3.89v2.28c-4.72-.11-6,3.39-6,7.45Z"/><path class="cls-4" d="M255.35,509.63a9.2,9.2,0,0,0,1.75.21c2.38,0,2.73-3.43,3.54-5l-7-18.28H256l5.81,15.58,5.81-15.58h2.27l-6.75,17.89c-1.72,4.55-2.84,7.39-5.74,7.39a8.4,8.4,0,0,1-2-.25Z"/><path class="cls-4" d="M276.21,511.84h-2.1V486.56h2.1v3.19h.07a7.31,7.31,0,0,1,6.3-3.68c5.85,0,8.19,4.17,8.19,9.52,0,5.08-2.55,9.6-8.08,9.6a7.53,7.53,0,0,1-6.48-3.4Zm6.13-8.54c4.34,0,6.37-3.68,6.19-8.23,0-4.55-2.66-7.11-6.19-7.11-4,0-6.13,3.36-6.13,7.74C276.21,499.79,278.52,503.3,282.34,503.3Z"/><path class="cls-4" d="M302.5,504.77a10.42,10.42,0,0,1-2.42.42c-2.06,0-3.22-.91-3.22-3.61V488.31h-2.55v-1.75h2.55v-5H299v5h3.4v1.75H299v12.43c0,1.79.07,2.56,1.82,2.56a7.29,7.29,0,0,0,1.72-.25Z"/><path class="cls-4" d="M305.54,495.63c0-5.29,2.8-9.56,8.4-9.56s8.4,4.24,8.4,9.56c0,5.74-3.32,9.56-8.4,9.56C309.32,505.12,305.54,502,305.54,495.63Zm8.4-7.67c-4.41,0-6.16,3.75-6.16,7.67,0,4.52,2.14,7.67,6.16,7.67,4.41,0,6.16-3.78,6.16-7.67C320.07,491.36,318.39,488,313.94,488Z"/><path class="cls-5" d="M237.77,378.79h1.88v14.36h-2.18l-7.3-11.6h0v11.6h-1.88V378.79h2.3l7.18,11.6h0Z"/><path class="cls-5" d="M247.23,382.39c3.34,0,4.86,2.82,4.86,5.52s-1.52,5.52-4.86,5.52-4.86-2.82-4.86-5.52S243.89,382.39,247.23,382.39Zm0,9.52c2.52,0,3-2.6,3-4s-.52-4-3-4-3,2.6-3,4S244.71,391.91,247.23,391.91Z"/><path class="cls-5" d="M263.13,389l-1.5,4.18h-2l5.4-14.36h2.2l5.2,14.36h-2.12L268.89,389Zm5.06-1.72-2.12-6.32h0l-2.3,6.32Z"/><path class="cls-5" d="M280.43,385.67c0-.66-.26-1.76-2.48-1.76-.54,0-2.08.18-2.08,1.48,0,.86.54,1.06,1.9,1.4l1.76.44c2.18.54,2.94,1.34,2.94,2.76,0,2.16-1.78,3.46-4.14,3.46-4.14,0-4.44-2.4-4.5-3.66h1.7c.06.82.3,2.14,2.78,2.14,1.26,0,2.4-.5,2.4-1.66,0-.84-.58-1.12-2.08-1.5l-2-.5c-1.46-.36-2.42-1.1-2.42-2.54,0-2.3,1.9-3.34,4-3.34,3.74,0,4,2.76,4,3.28Z"/><path class="cls-5" d="M290.93,385.67c0-.66-.26-1.76-2.48-1.76-.54,0-2.08.18-2.08,1.48,0,.86.54,1.06,1.9,1.4l1.76.44c2.18.54,2.94,1.34,2.94,2.76,0,2.16-1.78,3.46-4.14,3.46-4.14,0-4.44-2.4-4.5-3.66H286c.06.82.3,2.14,2.78,2.14,1.26,0,2.4-.5,2.4-1.66,0-.84-.58-1.12-2.08-1.5l-2-.5c-1.46-.36-2.42-1.1-2.42-2.54,0-2.3,1.9-3.34,4-3.34,3.74,0,4,2.76,4,3.28Z"/><path class="cls-5" d="M304.37,389.87a4.35,4.35,0,0,1-4.7,3.58c-2.94,0-4.68-2.22-4.68-5.24,0-3.24,1.56-5.82,5-5.82,3,0,4.5,2.4,4.5,6.1h-7.64c0,2.18,1,3.44,3,3.44a2.66,2.66,0,0,0,2.7-2.06Zm-1.68-2.78c-.1-1.62-.78-3.12-2.92-3.12a3.07,3.07,0,0,0-2.9,3.12Z"/><path class="cls-5" d="M309.27,384.15V391c0,.82.7.82,1.06.82H311v1.38c-.64.06-1.14.14-1.32.14-1.74,0-2.12-1-2.12-2.24v-6.9h-1.42v-1.46h1.42v-2.92h1.76v2.92H311v1.46Z"/><path class="cls-5" d="M531.48,345.79h11.66v1.72h-4.86v12.64h-1.94V347.51h-4.86Z"/><path class="cls-5" d="M547.22,360.15h-1.76V349.69h1.66v1.74h0a3.4,3.4,0,0,1,2.94-2,1.42,1.42,0,0,1,.46.06v1.82h-.66a2.66,2.66,0,0,0-2.68,2.8Z"/><path class="cls-5" d="M559.2,360.15v-1.52l0,0a3.45,3.45,0,0,1-3.32,1.86,3.08,3.08,0,0,1-3.4-3.24v-7.52h1.76v6.94c0,1.72.88,2.3,2,2.3,2.22,0,2.88-2,2.88-3.48v-5.76h1.76v10.46Z"/><path class="cls-5" d="M569.94,352.67c0-.66-.26-1.76-2.48-1.76-.54,0-2.08.18-2.08,1.48,0,.86.54,1.06,1.9,1.4l1.76.44c2.18.54,2.94,1.34,2.94,2.76,0,2.16-1.78,3.46-4.14,3.46-4.14,0-4.44-2.4-4.5-3.66H565c.06.82.3,2.14,2.78,2.14,1.26,0,2.4-.5,2.4-1.66,0-.84-.58-1.12-2.08-1.5l-2-.5c-1.46-.36-2.42-1.1-2.42-2.54,0-2.3,1.9-3.34,4-3.34,3.74,0,4,2.76,4,3.28Z"/><path class="cls-5" d="M576.66,351.15V358c0,.82.7.82,1.06.82h.62v1.38c-.64.06-1.14.14-1.32.14-1.74,0-2.12-1-2.12-2.24v-6.9h-1.42v-1.46h1.42v-2.92h1.76v2.92h1.68v1.46Z"/><path class="cls-5" d="M589.44,356.87a4.35,4.35,0,0,1-4.7,3.58c-2.94,0-4.68-2.22-4.68-5.24,0-3.24,1.56-5.82,5-5.82,3,0,4.5,2.4,4.5,6.1h-7.64c0,2.18,1,3.44,3,3.44a2.66,2.66,0,0,0,2.7-2.06Zm-1.68-2.78c-.1-1.62-.78-3.12-2.92-3.12a3.07,3.07,0,0,0-2.9,3.12Z"/><path class="cls-5" d="M600.86,360.15H599.2v-1.44h0a3.15,3.15,0,0,1-3,1.74c-3.56,0-4.6-3.34-4.6-5.84,0-2.94,1.58-5.22,4.36-5.22a3.54,3.54,0,0,1,3.12,1.78l0-.14v-5.24h1.76Zm-4.64-1.22c1.12,0,2.86-.74,2.86-3.52,0-1.7-.28-4.44-2.82-4.44-2.72,0-2.86,2.58-2.86,3.92C593.4,357.19,594.3,358.93,596.22,358.93Z"/><path class="cls-5" d="M544.37,380l-1.5,4.18h-2l5.4-14.36h2.2l5.2,14.36h-2.12L550.13,380Zm5.06-1.72-2.12-6.32h0l-2.3,6.32Z"/><path class="cls-5" d="M561.67,376.67c0-.66-.26-1.76-2.48-1.76-.54,0-2.08.18-2.08,1.48,0,.86.54,1.06,1.9,1.4l1.76.44c2.18.54,2.94,1.34,2.94,2.76,0,2.16-1.78,3.46-4.14,3.46-4.14,0-4.45-2.4-4.5-3.66h1.7c.06.82.3,2.14,2.78,2.14,1.26,0,2.4-.5,2.4-1.66,0-.84-.58-1.12-2.08-1.5l-2-.5c-1.46-.36-2.42-1.1-2.42-2.54,0-2.3,1.9-3.34,4-3.34,3.74,0,4,2.76,4,3.28Z"/><path class="cls-5" d="M572.17,376.67c0-.66-.26-1.76-2.48-1.76-.54,0-2.08.18-2.08,1.48,0,.86.54,1.06,1.9,1.4l1.76.44c2.18.54,2.94,1.34,2.94,2.76,0,2.16-1.78,3.46-4.14,3.46-4.14,0-4.45-2.4-4.5-3.66h1.7c.06.82.3,2.14,2.78,2.14,1.26,0,2.4-.5,2.4-1.66,0-.84-.58-1.12-2.08-1.5l-2-.5c-1.46-.36-2.42-1.1-2.42-2.54,0-2.3,1.9-3.34,4-3.34,3.74,0,4,2.76,4,3.28Z"/><path class="cls-5" d="M585.61,380.87a4.35,4.35,0,0,1-4.7,3.58c-2.94,0-4.68-2.22-4.68-5.24,0-3.24,1.56-5.82,5-5.82,3,0,4.5,2.4,4.5,6.1h-7.64c0,2.18,1,3.44,3,3.44a2.66,2.66,0,0,0,2.7-2.06Zm-1.68-2.78c-.1-1.62-.78-3.12-2.92-3.12a3.07,3.07,0,0,0-2.9,3.12Z"/><path class="cls-5" d="M590.51,375.15V382c0,.82.7.82,1.06.82h.62v1.38c-.64.06-1.14.14-1.32.14-1.74,0-2.12-1-2.12-2.24v-6.9h-1.42v-1.46h1.42v-2.92h1.76v2.92h1.68v1.46Z"/><path class="cls-5" d="M827,362.15H815.68v-1.62l8.81-11h-8.15v-1.72H827v1.68l-8.85,11H827Z"/><path class="cls-5" d="M838.13,358.87a4.35,4.35,0,0,1-4.71,3.58c-2.94,0-4.68-2.22-4.68-5.24,0-3.24,1.56-5.82,5-5.82,3,0,4.51,2.4,4.51,6.1h-7.65c0,2.18,1,3.44,3,3.44a2.66,2.66,0,0,0,2.71-2.06Zm-1.68-2.78c-.1-1.62-.79-3.12-2.92-3.12a3.07,3.07,0,0,0-2.91,3.12Z"/><path class="cls-5" d="M842.86,362.15H841.1V351.69h1.66v1.74h0a3.4,3.4,0,0,1,3-2,1.42,1.42,0,0,1,.46.06v1.82h-.67a2.66,2.66,0,0,0-2.68,2.8Z"/><path class="cls-5" d="M852.29,351.39c3.34,0,4.86,2.82,4.86,5.52s-1.52,5.52-4.86,5.52-4.87-2.82-4.87-5.52S848.94,351.39,852.29,351.39Zm0,9.52c2.52,0,3-2.6,3-4s-.52-4-3-4-3,2.6-3,4S849.76,360.91,852.29,360.91Z"/><path class="cls-5" d="M864.12,357.51h-4.9v-1.8h4.9Z"/><path class="cls-5" d="M865.78,347.79h11.67v1.72h-4.87v12.64h-1.94V349.51h-4.86Z"/><path class="cls-5" d="M881.52,362.15h-1.76V351.69h1.66v1.74h0a3.4,3.4,0,0,1,2.94-2,1.42,1.42,0,0,1,.46.06v1.82h-.66a2.66,2.66,0,0,0-2.68,2.8Z"/><path class="cls-5" d="M893.5,362.15v-1.52l0,0a3.45,3.45,0,0,1-3.32,1.86,3.08,3.08,0,0,1-3.4-3.24v-7.52h1.76v6.94c0,1.72.88,2.3,2,2.3,2.23,0,2.89-2,2.89-3.48v-5.76h1.75v10.46Z"/><path class="cls-5" d="M904.25,354.67c0-.66-.26-1.76-2.49-1.76-.54,0-2.08.18-2.08,1.48,0,.86.54,1.06,1.9,1.4l1.76.44c2.19.54,2.95,1.34,2.95,2.76,0,2.16-1.79,3.46-4.15,3.46-4.14,0-4.44-2.4-4.5-3.66h1.7c.06.82.3,2.14,2.78,2.14,1.26,0,2.41-.5,2.41-1.66,0-.84-.58-1.12-2.09-1.5l-2-.5c-1.46-.36-2.42-1.1-2.42-2.54,0-2.3,1.9-3.34,4-3.34,3.75,0,4,2.76,4,3.28Z"/><path class="cls-5" d="M911,353.15V360c0,.82.7.82,1.06.82h.62v1.38c-.64.06-1.14.14-1.32.14-1.74,0-2.12-1-2.12-2.24v-6.9h-1.42v-1.46h1.42v-2.92H911v2.92h1.68v1.46Z"/><path class="cls-5" d="M841.91,382l-1.5,4.18h-2l5.41-14.36H846l5.2,14.36H849.1L847.68,382Zm5.07-1.72-2.12-6.32h0l-2.3,6.32Z"/><path class="cls-5" d="M859.22,378.67c0-.66-.26-1.76-2.48-1.76-.54,0-2.09.18-2.09,1.48,0,.86.54,1.06,1.9,1.4l1.77.44c2.18.54,2.94,1.34,2.94,2.76,0,2.16-1.78,3.46-4.14,3.46-4.15,0-4.45-2.4-4.51-3.66h1.7c.06.82.3,2.14,2.79,2.14,1.26,0,2.4-.5,2.4-1.66,0-.84-.58-1.12-2.09-1.5l-2-.5c-1.46-.36-2.42-1.1-2.42-2.54,0-2.3,1.9-3.34,4-3.34,3.75,0,4,2.76,4,3.28Z"/><path class="cls-5" d="M869.72,378.67c0-.66-.26-1.76-2.48-1.76-.54,0-2.09.18-2.09,1.48,0,.86.54,1.06,1.9,1.4l1.77.44c2.18.54,2.94,1.34,2.94,2.76,0,2.16-1.78,3.46-4.14,3.46-4.15,0-4.45-2.4-4.51-3.66h1.7c.06.82.3,2.14,2.79,2.14,1.26,0,2.4-.5,2.4-1.66,0-.84-.58-1.12-2.09-1.5l-2-.5c-1.46-.36-2.42-1.1-2.42-2.54,0-2.3,1.9-3.34,4-3.34,3.75,0,4,2.76,4,3.28Z"/><path class="cls-5" d="M883.16,382.87a4.35,4.35,0,0,1-4.7,3.58c-3,0-4.69-2.22-4.69-5.24,0-3.24,1.56-5.82,5-5.82,3,0,4.51,2.4,4.51,6.1h-7.65c0,2.18,1,3.44,3.05,3.44a2.66,2.66,0,0,0,2.7-2.06Zm-1.68-2.78c-.1-1.62-.78-3.12-2.92-3.12a3.07,3.07,0,0,0-2.91,3.12Z"/><path class="cls-5" d="M888.05,377.15V384c0,.82.7.82,1.07.82h.62v1.38c-.65.06-1.15.14-1.33.14-1.74,0-2.12-1-2.12-2.24v-6.9h-1.42v-1.46h1.42v-2.92h1.76v2.92h1.69v1.46Z"/><path class="cls-1" d="M142.92,304.52a1.44,1.44,0,0,1-.57-.11,1.5,1.5,0,0,1-.81-2l35.68-86.77a13.42,13.42,0,0,1,24.92.22l30.12,77.21a10.42,10.42,0,0,0,19.76-1L280.45,189a13.23,13.23,0,0,1,12.95-9.85h.4a13.24,13.24,0,0,1,12.72,10.65l14.89,70.45a10.43,10.43,0,0,0,20.07,1.2l12-35.49a13.29,13.29,0,0,1,12.59-9.11h.13a13.27,13.27,0,0,1,12.62,8.88L397.33,277a1.5,1.5,0,0,1-2.82,1l-18.46-51.34a10.19,10.19,0,0,0-9.81-6.9h-.09a10.21,10.21,0,0,0-9.78,7.07l-12.05,35.49a13.42,13.42,0,0,1-25.84-1.54l-14.89-70.45a10.42,10.42,0,0,0-20.25-.62L254.91,292.89a13.42,13.42,0,0,1-25.44,1.31L199.34,217a10.26,10.26,0,0,0-9.61-6.63h-.1a10.25,10.25,0,0,0-9.64,6.46l-35.68,86.77A1.5,1.5,0,0,1,142.92,304.52Z"/><path class="cls-2" d="M644.3,243.32H489.64a1.51,1.51,0,0,1,0-3H644.3a1.51,1.51,0,0,1,0,3Z"/><path class="cls-6" d="M1013.29,430.49H100.65a1.24,1.24,0,1,0,0,2.47h912.64a1.24,1.24,0,1,0,0-2.47Z"/><path class="cls-6" d="M86.68,73.45a1.24,1.24,0,0,0-1.24,1.24v343a1.24,1.24,0,1,0,2.47,0v-343A1.24,1.24,0,0,0,86.68,73.45Z"/><path class="cls-3" d="M777.93,268a1.52,1.52,0,0,1-.9-.3,1.5,1.5,0,0,1-.3-2.1l14.43-19.28a7.8,7.8,0,0,1,5-3L835,237a4.79,4.79,0,0,0,2.53-1.23L866.43,209a7.8,7.8,0,0,1,8.68-1.33,4.88,4.88,0,0,0,5.12-.61L909,183.69a7.73,7.73,0,0,1,3.6-1.63l14.88-2.56a4.87,4.87,0,0,0,2.77-1.52L950,156.14a1.51,1.51,0,0,1,2.12-.11,1.49,1.49,0,0,1,.11,2.12L932.51,180a7.91,7.91,0,0,1-4.49,2.47L913.15,185a4.83,4.83,0,0,0-2.23,1l-28.81,23.33a7.86,7.86,0,0,1-8.28,1,4.82,4.82,0,0,0-5.36.82l-29,26.85a7.74,7.74,0,0,1-4.08,2l-38.76,6.22a4.78,4.78,0,0,0-3.1,1.88l-14.44,19.28A1.49,1.49,0,0,1,777.93,268Z"/></svg>