<?xml version="1.0" encoding="utf-8"?>
<!-- Generator: Adobe Illustrator 24.1.3, SVG Export Plug-In . SVG Version: 6.00 Build 0)  -->
<svg version="1.1" id="Layer_1" xmlns="http://www.w3.org/2000/svg" xmlns:xlink="http://www.w3.org/1999/xlink" x="0px" y="0px"
	 viewBox="0 0 450 450" style="enable-background:new 0 0 450 450;" xml:space="preserve">
<style type="text/css">
	.st0{fill:none;stroke:#333333;stroke-width:2;stroke-linecap:round;stroke-linejoin:round;stroke-miterlimit:10;}
	.st1{fill:none;stroke:#333333;stroke-width:4;stroke-linecap:round;stroke-linejoin:round;stroke-miterlimit:10;}
</style>
<g>
	<line class="st0" x1="202.9" y1="332.8" x2="202.9" y2="305.4"/>
	<circle class="st0" cx="202.9" cy="336.9" r="4.2"/>
	<line class="st0" x1="202.9" y1="353.8" x2="202.9" y2="341"/>
	<line class="st0" x1="225" y1="317.7" x2="225" y2="305.4"/>
	<circle class="st0" cx="225" cy="321.8" r="4.2"/>
	<line class="st0" x1="225" y1="353.8" x2="225" y2="326"/>
	<line class="st0" x1="247.1" y1="327.2" x2="247.1" y2="305.4"/>
	<circle class="st0" cx="247.1" cy="331.3" r="4.2"/>
	<line class="st0" x1="247.1" y1="353.8" x2="247.1" y2="335.5"/>
</g>
<g>
	<path class="st1" d="M277.5,213.2h-24.9c-5.6,0-10.1-4.5-10.1-10.1v-24.9c0-5.6,4.5-10.1,10.1-10.1h24.9c5.6,0,10.1,4.5,10.1,10.1
		V203C287.6,208.6,283.1,213.2,277.5,213.2z"/>
	<path class="st1" d="M118,213.2H93.1c-5.6,0-10.1-4.5-10.1-10.1v-24.9c0-5.6,4.5-10.1,10.1-10.1H118c5.6,0,10.1,4.5,10.1,10.1V203
		C128.1,208.6,123.6,213.2,118,213.2z"/>
	<path class="st1" d="M197.8,213.2h-24.9c-5.6,0-10.1-4.5-10.1-10.1v-24.9c0-5.6,4.5-10.1,10.1-10.1h24.9c5.6,0,10.1,4.5,10.1,10.1
		V203C207.9,208.6,203.3,213.2,197.8,213.2z"/>
	<line class="st1" x1="162.7" y1="190.6" x2="128.1" y2="190.6"/>
	<line class="st1" x1="242.5" y1="190.6" x2="207.9" y2="190.6"/>
	<path class="st1" d="M357.2,213.2h-24.9c-5.6,0-10.1-4.5-10.1-10.1v-24.9c0-5.6,4.5-10.1,10.1-10.1h24.9c5.6,0,10.1,4.5,10.1,10.1
		V203C367.3,208.6,362.8,213.2,357.2,213.2z"/>
	<line class="st1" x1="322.2" y1="190.6" x2="287.6" y2="190.6"/>
	<line class="st1" x1="82.7" y1="190.6" x2="59.5" y2="190.6"/>
	<line class="st1" x1="390.5" y1="190.6" x2="367.3" y2="190.6"/>
</g>
</svg>
