<?xml version="1.0" encoding="utf-8"?>
<!-- Generator: Adobe Illustrator 24.1.3, SVG Export Plug-In . SVG Version: 6.00 Build 0)  -->
<svg version="1.1" id="Layer_1" xmlns="http://www.w3.org/2000/svg" xmlns:xlink="http://www.w3.org/1999/xlink" x="0px" y="0px"
	 viewBox="0 0 450 450" style="enable-background:new 0 0 450 450;" xml:space="preserve">
<style type="text/css">
	.st0{fill:none;stroke:#333333;stroke-width:2;stroke-linecap:round;stroke-linejoin:round;stroke-miterlimit:10;}
	.st1{fill:#333333;}
	.st2{fill:none;stroke:#333333;stroke-width:5;stroke-linecap:round;stroke-linejoin:round;stroke-miterlimit:10;}
</style>
<g>
	<line class="st0" x1="202.9" y1="332.8" x2="202.9" y2="305.4"/>
	<circle class="st0" cx="202.9" cy="336.9" r="4.2"/>
	<line class="st0" x1="202.9" y1="353.8" x2="202.9" y2="341"/>
	<line class="st0" x1="225" y1="317.7" x2="225" y2="305.4"/>
	<circle class="st0" cx="225" cy="321.8" r="4.2"/>
	<line class="st0" x1="225" y1="353.8" x2="225" y2="326"/>
	<line class="st0" x1="247.1" y1="327.2" x2="247.1" y2="305.4"/>
	<circle class="st0" cx="247.1" cy="331.3" r="4.2"/>
	<line class="st0" x1="247.1" y1="353.8" x2="247.1" y2="335.5"/>
</g>
<g>
	<path class="st1" d="M223.3,188.4l34.5-59.4l-30.1,61.7c-0.6,1.2-2.1,1.8-3.3,1.2c-1.2-0.6-1.8-2.1-1.2-3.3
		C223.2,188.5,223.3,188.4,223.3,188.4z"/>
</g>
<path class="st2" d="M162,249.2c-14.6-15.6-23.6-36.6-23.6-59.6c0-48.1,39-87.2,87.2-87.2s87.2,39,87.2,87.2"/>
</svg>
