<?xml version="1.0" encoding="utf-8"?>
<!-- Generator: Adobe Illustrator 24.1.3, SVG Export Plug-In . SVG Version: 6.00 Build 0)  -->
<svg version="1.1" id="Layer_1" xmlns="http://www.w3.org/2000/svg" xmlns:xlink="http://www.w3.org/1999/xlink" x="0px" y="0px"
	 viewBox="0 0 1122.8 163" style="enable-background:new 0 0 1122.8 163;" xml:space="preserve">
<style type="text/css">
	.st0{fill:#FFFFFF;}
	.st1{fill:none;stroke:#19191D;stroke-width:5;stroke-linecap:round;stroke-linejoin:round;stroke-miterlimit:10;}
	.st2{fill:#19191D;}
	.st3{fill:none;stroke:#000000;stroke-width:3;stroke-miterlimit:10;}
	.st4{fill:none;stroke:#19191D;stroke-width:2.4717;stroke-linecap:round;stroke-linejoin:round;stroke-miterlimit:10;}
	.st5{fill:#19191D;stroke:#19191D;stroke-width:4;stroke-linecap:round;stroke-linejoin:round;stroke-miterlimit:10;}
	.st6{fill:none;stroke:#000000;stroke-width:3;stroke-linecap:round;stroke-linejoin:round;stroke-miterlimit:10;}
</style>
<g>
	<g>
		<path class="st0" d="M93.9,45.6c-3.1-4-6.7-7-10.8-9c-4.1-2-8.5-2.9-13.1-2.9s-9,1-13.1,2.9c-4.1,2-7.8,5-10.8,9
			c-3,4-5.4,9-7.2,14.9c-1.7,5.9-2.6,12.9-2.6,20.9c0,8,0.9,15.1,2.6,20.9c1.7,5.9,4.2,11,7.2,14.9c3.1,4,6.7,7,10.8,8.9
			c4.1,1.9,8.5,2.9,13.1,2.9s9-1,13.1-2.9c4.1-1.9,7.8-5,10.9-8.9c3-3.9,5.4-8.9,7.2-14.9c1.7-5.9,2.6-12.9,2.6-20.9
			c0-8-0.9-15.1-2.6-20.9C99.4,54.6,97,49.6,93.9,45.6z M70,123.9c-3.8,0-7.4-0.8-10.8-2.4c-3.1-1.5-5.8-3.7-8.2-6.6l40.5-63.1
			c1.7,2.9,3.2,6.4,4.3,10.4c1.5,5.4,2.3,11.9,2.3,19.4c0,7.5-0.8,14-2.3,19.4c-1.5,5.3-3.6,9.8-6.2,13.2c-2.5,3.4-5.5,5.9-8.8,7.5
			C77.4,123.1,73.8,123.9,70,123.9z M44.1,100.9c-1.5-5.4-2.3-11.9-2.3-19.4c0-7.5,0.8-14,2.3-19.4c1.5-5.3,3.6-9.8,6.2-13.2
			c2.5-3.4,5.5-5.9,8.9-7.5c3.4-1.6,7-2.5,10.8-2.5c3.8,0,7.4,0.8,10.7,2.5c2.8,1.4,5.4,3.4,7.6,6l-40.4,63
			C46.4,107.6,45.1,104.5,44.1,100.9z"/>
		<path class="st0" d="M187.3,84.4c-2.3-1.7-5-3.2-8-4.3c-2.8-1.1-5.8-2.1-8.7-3.1c-2.9-1-5.7-2-8.5-3c-2.6-1-5-2.2-7-3.7
			c-1.9-1.4-3.5-3.2-4.7-5.2c-1.2-2-1.7-4.5-1.7-7.6c0-2.4,0.5-4.8,1.4-7c0.9-2.2,2.2-4.2,3.9-5.8c1.7-1.7,3.9-3.1,6.5-4.1
			c2.6-1,5.6-1.6,9-1.6c3.3,0,6.1,0.4,8.3,1.2c2.2,0.8,4.1,1.7,5.4,2.6c1.4,0.9,2.4,1.8,3.1,2.5c0.9,1,2,2,3.2,2
			c0.8,0,1.6-0.4,2.2-1.1c0-0.1,0.1-0.1,0.1-0.2l0.3-0.4c0.5-0.8,0.4-1.8-0.2-2.5c-3.1-3.3-6.5-5.7-10.1-7.2
			c-3.6-1.5-7.7-2.3-12.3-2.3c-4.1,0-7.8,0.7-11.1,1.9c-3.2,1.3-6,3-8.2,5.2c-2.2,2.2-4,4.8-5.1,7.6c-1.2,2.9-1.7,5.9-1.7,9
			c0,3.2,0.5,6,1.5,8.4c1,2.4,2.3,4.5,4,6.2c1.6,1.7,3.5,3.2,5.7,4.3c2.1,1.1,4.3,2.1,6.6,3c2.3,0.9,4.7,1.7,7,2.4
			c2.3,0.7,4.6,1.5,6.8,2.3c2.2,0.8,4.2,1.7,6.1,2.7c1.8,0.9,3.4,2.1,4.7,3.4c1.3,1.3,2.3,2.8,3.1,4.6c0.8,1.8,1.2,4,1.2,6.5
			c0,3.1-0.5,6.1-1.6,8.8c-1.1,2.7-2.6,5.1-4.7,7.2c-2,2-4.6,3.7-7.5,4.9c-3,1.2-6.4,1.8-10.3,1.8c-2.6,0-5-0.3-7-0.7
			c-2-0.5-3.9-1.1-5.5-1.9c-1.6-0.8-2.9-1.6-4-2.4c-1.1-0.9-2.1-1.7-2.9-2.5c-0.8-0.8-1.5-1.5-1.9-2c-0.6-0.7-1.5-1.4-2.6-1.4
			c-0.7,0-1.2,0.2-1.6,0.5c-0.1,0.1-0.3,0.3-0.5,0.5l-0.3,0.3c-0.7,0.7-0.8,1.9-0.1,2.7c1.6,1.9,3.3,3.6,5,5.1
			c1.8,1.5,3.8,2.8,5.9,3.9c2.1,1.1,4.5,1.9,7,2.5c2.5,0.6,5.4,0.8,8.6,0.8c4.6,0,8.8-0.7,12.4-2.2c3.7-1.5,6.8-3.5,9.3-6
			c2.5-2.6,4.5-5.6,5.8-9c1.3-3.4,2-7.1,2-11c0-4-0.8-7.3-2.3-10C191.6,88.4,189.7,86.2,187.3,84.4z"/>
		<path class="st0" d="M298.1,34.7H229c-1.1,0-2,0.9-2,2v1.4c0,1.1,0.9,2,2,2h31.9v86.2c0,1.1,0.9,2,2,2h1.5c1.1,0,2-0.9,2-2V40.1
			h31.7c1.1,0,2-0.9,2-2v-1.4C300.1,35.6,299.2,34.7,298.1,34.7z"/>
		<path class="st0" d="M400.6,46.6c-3.8-4.2-8.5-7.4-13.8-9.6c-5.3-2.2-11.2-3.3-17.6-3.3c-6.3,0-12.2,1.1-17.5,3.4
			c-5.3,2.2-9.9,5.5-13.8,9.6c-3.8,4.1-6.8,9.2-8.9,15.1c-2.1,5.8-3.2,12.5-3.2,19.7c0,7.3,1.1,13.9,3.2,19.7
			c2.1,5.9,5.1,10.9,8.9,15c3.8,4.1,8.5,7.4,13.8,9.6c5.3,2.2,11.2,3.3,17.5,3.3c6.4,0,12.3-1.1,17.6-3.3c5.3-2.2,10-5.4,13.8-9.6
			c3.8-4.1,6.8-9.2,8.9-15c2.1-5.8,3.2-12.5,3.2-19.7s-1.1-13.9-3.2-19.8C407.5,55.8,404.5,50.8,400.6,46.6z M369.2,123.9
			c-5.5,0-10.6-1-15.2-2.9c-4.6-1.9-8.6-4.7-11.9-8.3c-3.3-3.6-6-8.1-7.8-13.3c-1.9-5.2-2.9-11.3-2.9-18c0-6.7,1-12.8,2.9-18
			c1.9-5.2,4.5-9.7,7.8-13.3c3.3-3.6,7.3-6.4,11.9-8.3c4.6-1.9,9.7-2.9,15.2-2.9c5.6,0,10.8,1,15.4,2.9c4.6,1.9,8.6,4.7,11.9,8.3
			c3.3,3.6,5.9,8.1,7.8,13.3c1.9,5.3,2.8,11.3,2.8,18c0,6.7-0.9,12.7-2.8,18c-1.8,5.2-4.4,9.7-7.7,13.3c-3.3,3.6-7.3,6.4-11.9,8.3
			C380,122.9,374.8,123.9,369.2,123.9z"/>
		<path class="st0" d="M524.2,125l-33.9-40.3c2.7-0.3,5.2-0.9,7.6-1.6c3.8-1.2,7.1-3,9.8-5.1c2.8-2.2,5-5,6.5-8.1
			c1.5-3.2,2.3-6.8,2.3-10.7c0-8.3-2.8-14.6-8.3-18.6c-5.3-3.9-13-5.8-22.7-5.8h-20.7c-1.1,0-2,0.9-2,2v89.6c0,1.1,0.9,2,2,2h1.5
			c1.1,0,2-0.9,2-2V85h12c0.8,0,1.5,0,2,0.1c0.4,0,0.8,0.1,1.1,0.2c0.2,0.1,0.5,0.2,0.7,0.4c0.3,0.2,0.5,0.5,0.9,0.9l33.6,40.2
			c0.6,0.7,1.2,1.1,1.8,1.3c0.4,0.1,0.9,0.2,1.4,0.2h1c0.8,0,1.5-0.5,1.8-1.2C524.9,126.4,524.7,125.6,524.2,125z M468.4,40h17.2
			c8.4,0,14.9,1.6,19.3,4.7c4.2,3,6.3,7.7,6.3,14.4c0,3.2-0.6,6.1-1.8,8.6c-1.2,2.5-2.9,4.6-5.2,6.4c-2.3,1.8-5.1,3.2-8.4,4.1
			c-3.3,1-7.1,1.5-11.3,1.5h-16V40z"/>
	</g>
	<g>
		<g>
			<path class="st0" d="M573.9,86v27h-1.1V50H587c6.9,0,12.1,1.5,15.8,4.5c3.7,3,5.5,7.5,5.5,13.5c0,2.6-0.5,5-1.6,7.2
				s-2.5,4.1-4.4,5.7c-1.9,1.6-4.1,2.8-6.8,3.7c-2.6,0.9-5.5,1.3-8.6,1.3H573.9z M573.9,85.1H587c3.1,0,5.9-0.4,8.4-1.3
				c2.5-0.9,4.6-2.1,6.4-3.6s3.1-3.4,4.1-5.4s1.4-4.3,1.4-6.7c0-5.6-1.7-9.9-5.1-12.8c-3.4-2.9-8.4-4.3-15.2-4.3h-13.1V85.1z"/>
			<path class="st0" d="M657.5,82.6V113h-1.1V50H671c6.6,0,11.6,1.3,15.1,3.8s5.3,6.5,5.3,11.9c0,2.5-0.5,4.9-1.5,6.9
				c-1,2.1-2.4,3.8-4.2,5.2c-1.8,1.4-4,2.6-6.5,3.4c-2.5,0.8-5.3,1.2-8.3,1.3c0.3,0.1,0.6,0.3,0.8,0.5c0.2,0.2,0.5,0.4,0.7,0.7
				l24.6,29.3h-0.7c-0.2,0-0.4,0-0.6-0.1s-0.3-0.2-0.6-0.5l-23.6-28.3c-0.3-0.3-0.5-0.6-0.8-0.8c-0.3-0.2-0.5-0.4-0.9-0.5
				c-0.3-0.1-0.7-0.2-1.1-0.2c-0.4,0-0.9-0.1-1.6-0.1H657.5z M657.5,81.7h12.7c3.1,0,5.9-0.4,8.3-1.1c2.5-0.7,4.6-1.8,6.3-3.1
				s3.1-3,4-5c0.9-2,1.4-4.2,1.4-6.7c0-5.1-1.7-8.9-5-11.3s-8.1-3.6-14.4-3.6h-13.5V81.7z"/>
			<path class="st0" d="M744.8,113h-1.1V50h1.1V113z"/>
			<path class="st0" d="M789.8,50h0.8c0.3,0,0.5,0.2,0.5,0.5l24.7,59.2c0.1,0.3,0.3,0.7,0.4,1c0.1,0.3,0.2,0.6,0.3,0.9
				c0.1-0.3,0.2-0.6,0.3-0.9c0.1-0.3,0.3-0.6,0.4-1l24.7-59.2c0.1-0.3,0.3-0.5,0.6-0.5h0.7l-26.3,63H816L789.8,50z"/>
			<path class="st0" d="M927.3,113h-0.8c-0.3,0-0.5-0.1-0.5-0.5l-8.8-21.1h-33.2l-8.8,21.1c-0.1,0.3-0.3,0.5-0.6,0.5h-0.7l26.3-63
				h0.9L927.3,113z M884.3,90.6h32.5l-15.5-37.3c-0.2-0.3-0.3-0.6-0.4-0.9c-0.1-0.3-0.2-0.6-0.3-0.9c-0.1,0.3-0.2,0.6-0.3,0.9
				c-0.1,0.3-0.2,0.6-0.4,0.9L884.3,90.6z"/>
			<path class="st0" d="M1005.6,50v1h-23.7v62h-1.1V51H957v-1H1005.6z"/>
			<path class="st0" d="M1086.5,50v1h-35.7v29.5h30.3v1h-30.3V112h35.8l-0.1,1h-36.8V50H1086.5z"/>
		</g>
	</g>
</g>
</svg>
