<?xml version="1.0" encoding="utf-8"?>
<!-- Generator: Adobe Illustrator 24.1.3, SVG Export Plug-In . SVG Version: 6.00 Build 0)  -->
<svg version="1.1" id="Layer_1" xmlns="http://www.w3.org/2000/svg" xmlns:xlink="http://www.w3.org/1999/xlink" x="0px" y="0px"
	 viewBox="0 0 991.1 163" style="enable-background:new 0 0 991.1 163;" xml:space="preserve">
<style type="text/css">
	.st0{fill:#FFFFFF;}
	.st1{fill:none;stroke:#19191D;stroke-width:5;stroke-linecap:round;stroke-linejoin:round;stroke-miterlimit:10;}
	.st2{fill:#19191D;}
	.st3{fill:none;stroke:#000000;stroke-width:3;stroke-miterlimit:10;}
	.st4{fill:none;stroke:#19191D;stroke-width:2.4717;stroke-linecap:round;stroke-linejoin:round;stroke-miterlimit:10;}
	.st5{fill:none;stroke:#000000;stroke-width:3;stroke-linecap:round;stroke-linejoin:round;stroke-miterlimit:10;}
</style>
<g>
	<g>
		<g>
			<path class="st0" d="M91.9,45.6c-3.1-4-6.7-7-10.8-9c-4.1-2-8.5-2.9-13.1-2.9s-9,1-13.1,2.9c-4.1,2-7.8,5-10.8,9
				c-3,4-5.4,9-7.2,14.9c-1.7,5.9-2.6,12.9-2.6,20.9c0,8,0.9,15.1,2.6,20.9c1.7,5.9,4.2,11,7.2,14.9c3.1,4,6.7,7,10.8,8.9
				c4.1,1.9,8.5,2.9,13.1,2.9s9-1,13.1-2.9c4.1-1.9,7.8-5,10.9-8.9c3-3.9,5.4-8.9,7.2-14.9c1.7-5.9,2.6-12.9,2.6-20.9
				c0-8-0.9-15.1-2.6-20.9C97.3,54.6,94.9,49.6,91.9,45.6z M68,123.9c-3.8,0-7.4-0.8-10.8-2.4c-3.1-1.5-5.8-3.7-8.2-6.6l40.5-63.1
				c1.7,2.9,3.2,6.4,4.3,10.4C95.3,67.5,96,74,96,81.5c0,7.5-0.8,14-2.3,19.4c-1.5,5.3-3.6,9.8-6.2,13.2c-2.5,3.4-5.5,5.9-8.8,7.5
				C75.4,123.1,71.7,123.9,68,123.9z M42.1,100.9c-1.5-5.4-2.3-11.9-2.3-19.4c0-7.5,0.8-14,2.3-19.4c1.5-5.3,3.6-9.8,6.2-13.2
				c2.5-3.4,5.5-5.9,8.9-7.5c3.4-1.6,7-2.5,10.8-2.5c3.8,0,7.4,0.8,10.7,2.5c2.8,1.4,5.4,3.4,7.6,6l-40.4,63
				C44.4,107.6,43.1,104.5,42.1,100.9z"/>
			<path class="st0" d="M185.3,84.4c-2.3-1.7-5-3.2-8-4.3c-2.8-1.1-5.8-2.1-8.7-3.1c-2.9-1-5.7-2-8.5-3c-2.6-1-5-2.2-7-3.7
				c-1.9-1.4-3.5-3.2-4.7-5.2c-1.2-2-1.7-4.5-1.7-7.6c0-2.4,0.5-4.8,1.4-7c0.9-2.2,2.2-4.2,3.9-5.8c1.7-1.7,3.9-3.1,6.5-4.1
				c2.6-1,5.6-1.6,9-1.6c3.3,0,6.1,0.4,8.3,1.2c2.2,0.8,4.1,1.7,5.4,2.6c1.4,0.9,2.4,1.8,3.1,2.5c0.9,1,2,2,3.2,2
				c0.8,0,1.6-0.4,2.2-1.1c0-0.1,0.1-0.1,0.1-0.2l0.3-0.4c0.5-0.8,0.4-1.8-0.2-2.5c-3.1-3.3-6.5-5.7-10.1-7.2
				c-3.6-1.5-7.7-2.3-12.3-2.3c-4.1,0-7.8,0.7-11.1,1.9c-3.2,1.3-6,3-8.2,5.2c-2.2,2.2-4,4.8-5.1,7.6c-1.2,2.9-1.7,5.9-1.7,9
				c0,3.2,0.5,6,1.5,8.4c1,2.4,2.3,4.5,4,6.2c1.6,1.7,3.5,3.2,5.7,4.3c2.1,1.1,4.3,2.1,6.6,3c2.3,0.9,4.7,1.7,7,2.4
				c2.3,0.7,4.6,1.5,6.8,2.3c2.2,0.8,4.2,1.7,6.1,2.7c1.8,0.9,3.4,2.1,4.7,3.4c1.3,1.3,2.3,2.8,3.1,4.6c0.8,1.8,1.2,4,1.2,6.5
				c0,3.1-0.5,6.1-1.6,8.8c-1.1,2.7-2.6,5.1-4.7,7.2c-2,2-4.6,3.7-7.5,4.9c-3,1.2-6.4,1.8-10.3,1.8c-2.6,0-5-0.3-7-0.7
				c-2-0.5-3.9-1.1-5.5-1.9c-1.6-0.8-2.9-1.6-4-2.4c-1.1-0.9-2.1-1.7-2.9-2.5c-0.8-0.8-1.5-1.5-1.9-2c-0.6-0.7-1.5-1.4-2.6-1.4
				c-0.7,0-1.2,0.2-1.6,0.5c-0.1,0.1-0.3,0.3-0.5,0.5l-0.3,0.3c-0.7,0.7-0.8,1.9-0.1,2.7c1.6,1.9,3.3,3.6,5,5.1
				c1.8,1.5,3.8,2.8,5.9,3.9c2.1,1.1,4.5,1.9,7,2.5c2.5,0.6,5.4,0.8,8.6,0.8c4.6,0,8.8-0.7,12.4-2.2c3.7-1.5,6.8-3.5,9.3-6
				c2.5-2.6,4.5-5.6,5.8-9c1.3-3.4,2-7.1,2-11c0-4-0.8-7.3-2.3-10C189.6,88.4,187.6,86.2,185.3,84.4z"/>
			<path class="st0" d="M296.1,34.7h-69.1c-1.1,0-2,0.9-2,2v1.4c0,1.1,0.9,2,2,2h31.9v86.2c0,1.1,0.9,2,2,2h1.5c1.1,0,2-0.9,2-2
				V40.1h31.7c1.1,0,2-0.9,2-2v-1.4C298.1,35.6,297.2,34.7,296.1,34.7z"/>
			<path class="st0" d="M398.6,46.6c-3.8-4.2-8.5-7.4-13.8-9.6c-5.3-2.2-11.2-3.3-17.6-3.3c-6.3,0-12.2,1.1-17.5,3.4
				c-5.3,2.2-9.9,5.5-13.8,9.6c-3.8,4.1-6.8,9.2-8.9,15.1c-2.1,5.8-3.2,12.5-3.2,19.7c0,7.3,1.1,13.9,3.2,19.7
				c2.1,5.9,5.1,10.9,8.9,15c3.8,4.1,8.5,7.4,13.8,9.6c5.3,2.2,11.2,3.3,17.5,3.3c6.4,0,12.3-1.1,17.6-3.3c5.3-2.2,10-5.4,13.8-9.6
				c3.8-4.1,6.8-9.2,8.9-15c2.1-5.8,3.2-12.5,3.2-19.7s-1.1-13.9-3.2-19.8C405.4,55.8,402.4,50.8,398.6,46.6z M367.2,123.9
				c-5.5,0-10.6-1-15.2-2.9c-4.6-1.9-8.6-4.7-11.9-8.3c-3.3-3.6-6-8.1-7.8-13.3c-1.9-5.2-2.9-11.3-2.9-18c0-6.7,1-12.8,2.9-18
				c1.9-5.2,4.5-9.7,7.8-13.3c3.3-3.6,7.3-6.4,11.9-8.3c4.6-1.9,9.7-2.9,15.2-2.9c5.6,0,10.8,1,15.4,2.9c4.6,1.9,8.6,4.7,11.9,8.3
				c3.3,3.6,5.9,8.1,7.8,13.3c1.9,5.3,2.8,11.3,2.8,18c0,6.7-0.9,12.7-2.8,18c-1.8,5.2-4.4,9.7-7.7,13.3c-3.3,3.6-7.3,6.4-11.9,8.3
				C378,122.9,372.8,123.9,367.2,123.9z"/>
			<path class="st0" d="M522.2,125l-33.9-40.3c2.7-0.3,5.2-0.9,7.6-1.6c3.8-1.2,7.1-3,9.8-5.1c2.8-2.2,5-5,6.5-8.1
				c1.5-3.2,2.3-6.8,2.3-10.7c0-8.3-2.8-14.6-8.3-18.6c-5.3-3.9-13-5.8-22.7-5.8h-20.7c-1.1,0-2,0.9-2,2v89.6c0,1.1,0.9,2,2,2h1.5
				c1.1,0,2-0.9,2-2V85h12c0.8,0,1.5,0,2,0.1c0.4,0,0.8,0.1,1.1,0.2c0.2,0.1,0.5,0.2,0.7,0.4c0.3,0.2,0.5,0.5,0.9,0.9l33.6,40.2
				c0.6,0.7,1.2,1.1,1.8,1.3c0.4,0.1,0.9,0.2,1.4,0.2h1c0.8,0,1.5-0.5,1.8-1.2C522.8,126.4,522.7,125.6,522.2,125z M466.4,40h17.2
				c8.4,0,14.9,1.6,19.3,4.7c4.2,3,6.3,7.7,6.3,14.4c0,3.2-0.6,6.1-1.8,8.6c-1.2,2.5-2.9,4.6-5.2,6.4c-2.3,1.8-5.1,3.2-8.4,4.1
				c-3.3,1-7.1,1.5-11.3,1.5h-16V40z"/>
		</g>
	</g>
	<g>
		<path class="st0" d="M594.7,62.6c-2.4-2-5.7-3-10.1-3h-8.8c-1,0-1.9,0.8-2,1.8l-5.2,42c-0.1,0.6,0.1,1.1,0.5,1.6s0.9,0.7,1.5,0.7
			h0.7c1,0,1.9-0.8,2-1.8l2-16.2h6.3c2.3,0,4.5-0.4,6.5-1.1c2-0.8,3.8-1.9,5.3-3.3c1.5-1.4,2.7-3.1,3.6-5.1s1.3-4.1,1.3-6.5
			C598.4,67.7,597.2,64.6,594.7,62.6z M581.8,83H576l2.3-18.8h6.3c3.2,0,5.6,0.7,7,2c1.4,1.3,2.1,3.1,2.1,5.6c0,1.6-0.3,3.1-0.9,4.5
			c-0.6,1.4-1.4,2.5-2.4,3.5c-1,1-2.3,1.8-3.8,2.3C585.2,82.7,583.6,83,581.8,83z"/>
		<path class="st0" d="M655.6,81.2c1.5-1.3,2.6-2.9,3.4-4.7c0.8-1.8,1.2-3.8,1.2-6.1c0-3.7-1.2-6.5-3.7-8.3
			c-2.3-1.7-5.5-2.6-9.6-2.6h-9c-1,0-1.9,0.8-2,1.8l-5.2,42c-0.1,0.6,0.1,1.1,0.5,1.6s0.9,0.7,1.5,0.7h0.7c1,0,1.9-0.8,2-1.8
			l2.3-18.5h4.3c0.3,0,0.5,0,0.7,0c0,0.1,0.1,0.1,0.1,0.1l12.1,18.9c0.4,0.6,0.9,1,1.4,1.1c0.3,0.1,0.6,0.1,1,0.1h0.5
			c0.7,0,1.4-0.4,1.8-1c0.3-0.6,0.3-1.4-0.1-2L648,84.9c0.9-0.2,1.7-0.4,2.5-0.7C652.5,83.5,654.2,82.5,655.6,81.2z M640.3,64.2h6.5
			c3,0,5.3,0.6,6.7,1.7c1.3,1,1.9,2.5,1.9,4.7c0,1.6-0.3,3-0.8,4.3c-0.5,1.2-1.3,2.3-2.3,3.1c-1,0.9-2.2,1.5-3.6,2
			c-1.5,0.5-3.2,0.7-5,0.7h-5.5L640.3,64.2z"/>
		<path class="st0" d="M702.8,59.6h-0.7c-1,0-1.9,0.8-2,1.8l-5.2,42c-0.1,0.6,0.1,1.1,0.5,1.6s0.9,0.7,1.5,0.7h0.7
			c1,0,1.9-0.8,2-1.8l5.2-42c0.1-0.6-0.1-1.1-0.5-1.6S703.4,59.6,702.8,59.6z"/>
		<path class="st0" d="M773.8,59.6h-0.5c-0.9,0-1.8,0.5-2.2,1.4L753,96.9l-9.3-35.6c-0.3-1-1.2-1.7-2.3-1.7H741
			c-0.6,0-1.2,0.3-1.6,0.8c-0.4,0.5-0.5,1.1-0.4,1.7l11,42c0.2,0.9,1,1.5,1.9,1.5h0.6c0.8,0,1.4-0.4,1.8-1.1l21.2-42
			c0.3-0.6,0.3-1.4-0.1-2C775.2,59.9,774.5,59.6,773.8,59.6z"/>
		<path class="st0" d="M821.9,61.1c-0.2-0.9-1-1.5-1.9-1.5h-0.6c-0.8,0-1.4,0.4-1.8,1.1l-21.3,42c-0.3,0.6-0.3,1.4,0.1,2
			c0.4,0.6,1,1,1.7,1h0.5c1,0,1.8-0.5,2.3-1.4l6.5-12.9h17.5l3.3,12.6c0.3,1,1.2,1.7,2.3,1.7h0.5c0.6,0,1.2-0.3,1.6-0.8
			c0.4-0.5,0.5-1.1,0.4-1.7L821.9,61.1z M809.6,86.6l9.3-18.4l4.8,18.4H809.6z"/>
		<path class="st0" d="M894.5,59.6h-29.8c-1,0-1.9,0.8-2,1.8l-0.1,0.7c-0.1,0.6,0.1,1.1,0.5,1.5c0.4,0.4,0.9,0.7,1.5,0.7H877
			l-4.8,39.1c-0.1,0.6,0.1,1.1,0.5,1.6c0.4,0.4,0.9,0.7,1.5,0.7h0.7c1,0,1.9-0.8,2-1.8l4.9-39.6h12.7c1,0,1.9-0.8,2-1.8l0.1-0.7
			c0-0.6-0.1-1.1-0.5-1.5C895.6,59.8,895.1,59.6,894.5,59.6z"/>
		<path class="st0" d="M956.4,60.3c-0.4-0.5-0.9-0.7-1.5-0.7h-22.6c-1,0-1.9,0.8-2,1.8l-5.2,42c-0.1,0.6,0.1,1.1,0.5,1.6
			s0.9,0.7,1.5,0.7h22.6c1,0,1.8-0.7,2-1.6l0.1-0.7c0.1-0.6-0.1-1.2-0.4-1.6c-0.4-0.5-0.9-0.7-1.5-0.7h-19.7l2-16.3h16.8
			c1,0,1.8-0.7,2-1.6l0.1-0.7c0.1-0.6-0.1-1.2-0.4-1.6c-0.4-0.5-0.9-0.7-1.5-0.7h-16.3l1.9-15.7h20.1c1,0,1.8-0.7,2-1.6l0.1-0.7
			C956.9,61.3,956.8,60.7,956.4,60.3z"/>
	</g>
</g>
</svg>
