<?xml version="1.0" encoding="utf-8"?>
<!-- Generator: Adobe Illustrator 24.1.3, SVG Export Plug-In . SVG Version: 6.00 Build 0)  -->
<svg version="1.1" id="Layer_1" xmlns="http://www.w3.org/2000/svg" xmlns:xlink="http://www.w3.org/1999/xlink" x="0px" y="0px"
	 viewBox="0 0 350 350" style="enable-background:new 0 0 350 350;" xml:space="preserve">
<style type="text/css">
	.st0{fill:#231F20;}
	.st1{fill:none;stroke:#333333;stroke-width:1.9157;stroke-linecap:round;stroke-linejoin:round;stroke-miterlimit:10;}
	.st2{fill:none;stroke:#333333;stroke-width:2.1505;stroke-linecap:round;stroke-linejoin:round;stroke-miterlimit:10;}
	.st3{fill:none;stroke:#333333;stroke-width:5;stroke-linecap:round;stroke-linejoin:round;stroke-miterlimit:10;}
	.st4{fill:none;stroke:#333333;stroke-width:2;stroke-linecap:round;stroke-linejoin:round;stroke-miterlimit:10;}
	.st5{fill:none;stroke:#333333;stroke-width:4;stroke-linecap:round;stroke-linejoin:round;stroke-miterlimit:10;}
	.st6{fill:none;stroke:#333333;stroke-width:3.268;stroke-linecap:round;stroke-linejoin:round;stroke-miterlimit:10;}
	.st7{fill:#333333;}
	.st8{fill:none;stroke:#333333;stroke-width:1.0893;stroke-linecap:round;stroke-linejoin:round;stroke-miterlimit:10;}
	.st9{fill:#3EBDB2;}
	.st10{fill:none;stroke:#333333;stroke-width:3.7744;stroke-linecap:round;stroke-linejoin:round;stroke-miterlimit:10;}
	.st11{fill:none;stroke:#90278E;stroke-width:3;stroke-linecap:round;stroke-miterlimit:10;}
	.st12{fill:none;stroke:#26A9E0;stroke-width:3;stroke-linecap:round;stroke-miterlimit:10;}
	.st13{fill:none;stroke:#F6921E;stroke-width:3;stroke-linecap:round;stroke-miterlimit:10;}
	.st14{fill:none;stroke:#333333;stroke-width:3;stroke-linecap:round;stroke-linejoin:round;}
	.st15{fill:#FFFFFF;stroke:#3EBDB2;stroke-width:2.0575;stroke-linecap:round;stroke-linejoin:round;stroke-miterlimit:10;}
	.st16{fill:none;stroke:#EB2027;stroke-width:1.1956;stroke-linecap:round;stroke-linejoin:round;stroke-miterlimit:10;}
	.st17{fill:none;stroke:#EB2027;stroke-width:1.4834;stroke-linecap:round;stroke-linejoin:round;}
	.st18{fill:#EB2027;}
	.st19{fill:#CBCBCA;}
	.st20{fill:none;stroke:#333333;stroke-width:2.3569;stroke-linecap:round;stroke-linejoin:round;stroke-miterlimit:10;}
	.st21{fill:none;stroke:#333333;stroke-width:2.6075;stroke-linecap:round;stroke-linejoin:round;stroke-miterlimit:10;}
	.st22{fill:none;stroke:#3EBDB2;stroke-width:2.6075;stroke-linecap:round;stroke-linejoin:round;stroke-miterlimit:10;}
	.st23{fill:#FFFFFF;stroke:#EC1C24;stroke-width:3.268;stroke-linecap:round;stroke-linejoin:round;stroke-miterlimit:10;}
	.st24{fill:#EC1C24;}
	.st25{fill:none;stroke:#29B473;stroke-width:2.623;stroke-linecap:round;stroke-linejoin:round;stroke-miterlimit:10;}
	.st26{fill:none;stroke:#EC1C24;stroke-width:2.8163;stroke-linecap:round;stroke-linejoin:round;stroke-miterlimit:10;}
	.st27{fill:none;stroke:#333333;stroke-width:3.5103;stroke-linecap:round;stroke-linejoin:round;stroke-miterlimit:10;}
	.st28{fill:none;stroke:#333333;stroke-width:1.6455;stroke-linecap:round;stroke-linejoin:round;stroke-miterlimit:10;}
	.st29{fill:none;stroke:#3EBDB2;stroke-width:4;stroke-linecap:round;stroke-linejoin:round;stroke-miterlimit:10;}
	.st30{fill:none;stroke:#A6A8AB;stroke-width:5;stroke-linecap:round;stroke-linejoin:round;stroke-miterlimit:10;}
	.st31{fill:none;stroke:#333333;stroke-width:1.1395;stroke-linecap:round;stroke-linejoin:round;stroke-miterlimit:10;}
	.st32{fill:none;stroke:#333333;stroke-width:1.8763;stroke-linecap:round;stroke-linejoin:round;stroke-miterlimit:10;}
	.st33{fill:#FFFFFF;stroke:#3EBDB2;stroke-width:4;stroke-linecap:round;stroke-linejoin:round;stroke-miterlimit:10;}
	.st34{fill:#FFFFFF;stroke:#90278E;stroke-width:4;stroke-linecap:round;stroke-linejoin:round;stroke-miterlimit:10;}
	.st35{fill:#FFFFFF;stroke:#F6921E;stroke-width:4;stroke-linecap:round;stroke-linejoin:round;stroke-miterlimit:10;}
	.st36{fill:#FFFFFF;stroke:#90278E;stroke-width:2.0575;stroke-linecap:round;stroke-linejoin:round;stroke-miterlimit:10;}
	.st37{fill:#FFFFFF;stroke:#F6921E;stroke-width:2.0575;stroke-linecap:round;stroke-linejoin:round;stroke-miterlimit:10;}
	.st38{fill:none;stroke:#333333;stroke-width:2.0158;stroke-linecap:round;stroke-linejoin:round;stroke-miterlimit:10;}
	.st39{fill:none;stroke:#333333;stroke-width:3;stroke-linecap:round;stroke-linejoin:round;stroke-miterlimit:10;}
	.st40{fill:none;stroke:#333333;stroke-linecap:round;stroke-linejoin:round;stroke-miterlimit:10;}
	.st41{opacity:0.5;}
	.st42{fill:#312A91;}
	.st43{opacity:0.9;}
	.st44{fill:url(#SVGID_5_);}
	.st45{fill:url(#SVGID_6_);}
	.st46{fill:url(#SVGID_7_);}
	.st47{opacity:0.7;fill:url(#SVGID_8_);}
	.st48{fill:url(#SVGID_9_);}
	.st49{opacity:0.7;fill:url(#SVGID_10_);}
	.st50{opacity:0.7;fill:url(#SVGID_11_);}
	.st51{opacity:0.3;fill:#42E8E0;}
	.st52{fill:#42E8E0;}
	.st53{fill:url(#SVGID_12_);}
	.st54{opacity:0.7;fill:url(#SVGID_13_);}
	.st55{opacity:0.5;fill:#5CFFF3;}
	.st56{fill:url(#SVGID_14_);}
	.st57{opacity:0.5;fill:#42E8E0;}
	.st58{opacity:0.7;fill:url(#SVGID_15_);}
	.st59{opacity:0.9;fill:#42E8E0;}
	.st60{opacity:0.2;fill:#42E8E0;}
	.st61{opacity:0.7;fill:url(#SVGID_16_);}
	.st62{fill:url(#SVGID_17_);}
	.st63{fill:url(#SVGID_18_);}
	.st64{fill:url(#SVGID_19_);}
	.st65{opacity:0.7;fill:url(#SVGID_20_);}
	.st66{fill:url(#SVGID_21_);}
	.st67{opacity:0.7;fill:url(#SVGID_22_);}
	.st68{opacity:0.7;fill:url(#SVGID_23_);}
	.st69{fill:url(#SVGID_24_);}
	.st70{opacity:0.7;fill:url(#SVGID_25_);}
	.st71{fill:url(#SVGID_26_);}
	.st72{opacity:0.7;fill:url(#SVGID_27_);}
	.st73{opacity:0.7;fill:url(#SVGID_28_);}
	.st74{fill:url(#SVGID_29_);}
	.st75{fill:url(#SVGID_30_);}
	.st76{fill:url(#SVGID_31_);}
	.st77{opacity:0.7;fill:url(#SVGID_32_);}
	.st78{fill:url(#SVGID_33_);}
	.st79{fill:url(#SVGID_34_);}
	.st80{opacity:0.7;fill:url(#SVGID_35_);}
	.st81{opacity:0.7;fill:url(#SVGID_36_);}
	.st82{fill:url(#SVGID_37_);}
	.st83{fill:url(#SVGID_38_);}
	.st84{fill:url(#SVGID_39_);}
	.st85{opacity:0.7;fill:url(#SVGID_40_);}
	.st86{fill:url(#SVGID_41_);}
	.st87{fill:url(#SVGID_42_);}
	.st88{opacity:0.7;fill:url(#SVGID_43_);}
	.st89{opacity:0.2;}
	.st90{fill:url(#SVGID_44_);}
	.st91{opacity:0.6;fill:#0F054C;}
	.st92{fill:url(#SVGID_45_);}
	.st93{fill:url(#SVGID_46_);}
	.st94{fill:#251C72;}
	.st95{opacity:0.4;fill:#42E8E0;}
	.st96{fill:url(#SVGID_47_);}
	.st97{fill:url(#SVGID_48_);}
	.st98{fill:url(#SVGID_49_);}
	.st99{fill:#2FD3C7;}
	.st100{fill:#FFFFFF;}
	.st101{opacity:0.7;fill:#18B2A3;}
	.st102{fill:url(#SVGID_50_);}
	.st103{fill:url(#SVGID_51_);}
	.st104{fill:url(#SVGID_52_);}
	.st105{opacity:0.7;fill:#42E8E0;}
	.st106{fill:url(#SVGID_53_);}
	.st107{fill:url(#SVGID_54_);}
	.st108{opacity:0.75;fill:#0F054C;}
	.st109{fill:url(#SVGID_55_);}
	.st110{fill:url(#SVGID_56_);}
	.st111{fill:url(#SVGID_57_);}
	.st112{fill:url(#SVGID_58_);}
	.st113{fill:url(#SVGID_59_);}
	.st114{fill:url(#SVGID_60_);}
	.st115{fill:url(#SVGID_61_);}
	.st116{fill:url(#SVGID_62_);}
	.st117{fill:url(#SVGID_63_);}
	.st118{fill:url(#SVGID_64_);}
	.st119{fill:url(#SVGID_65_);}
	.st120{fill:url(#SVGID_66_);}
	.st121{fill:url(#SVGID_67_);}
	.st122{fill:url(#SVGID_68_);}
	.st123{fill:url(#SVGID_69_);}
	.st124{fill:url(#SVGID_70_);}
	.st125{fill:url(#SVGID_71_);}
	.st126{fill:none;stroke:#3EBDB2;stroke-width:2.0575;stroke-linecap:round;stroke-linejoin:round;stroke-miterlimit:10;}
	.st127{fill:none;stroke:#333333;stroke-width:1.8806;stroke-linecap:round;stroke-linejoin:round;stroke-miterlimit:10;}
	.st128{fill:#FFFFFF;stroke:#333333;stroke-width:1.8806;stroke-linecap:round;stroke-linejoin:round;stroke-miterlimit:10;}
	.st129{fill:#15CCBA;}
	.st130{fill:none;stroke:#15CCBA;stroke-width:1.8806;stroke-linecap:round;stroke-linejoin:round;stroke-miterlimit:10;}
	.st131{fill:#FFFFFF;stroke:#15CCBA;stroke-width:1.8806;stroke-linecap:round;stroke-linejoin:round;stroke-miterlimit:10;}
	.st132{fill:none;stroke:#15CCBA;stroke-width:2;stroke-linecap:round;stroke-linejoin:round;}
</style>
<g>
	<g class="st89">
		<g>
			<g class="st41">
				<linearGradient id="SVGID_2_" gradientUnits="userSpaceOnUse" x1="193.1475" y1="210.3965" x2="259.3006" y2="210.3965">
					<stop  offset="0" style="stop-color:#BCBEFF"/>
					<stop  offset="0.1659" style="stop-color:#B6B8FC"/>
					<stop  offset="0.3956" style="stop-color:#A4A8F5"/>
					<stop  offset="0.6625" style="stop-color:#868DEA"/>
					<stop  offset="0.9554" style="stop-color:#5E67DA"/>
					<stop  offset="1" style="stop-color:#5761D7"/>
				</linearGradient>
				<path style="fill:url(#SVGID_2_);" d="M254.3,183.1l-70.1-40.6c-1.1-0.6-2.1-0.7-2.9-0.2l0,0l-4.2,2.4l2.7,2v2.2l-1.6,0.7
					l0.1,83.4l4.6,4.5l15.8,9.1L249,275c0,0,1.8,0,2.1,0c0.1,0,0.2-0.2,0.3-0.6l2.1,1.2l-0.7,3.2l4.3-2.5l0,0
					c0.9-0.5,1.5-1.8,1.5-3.6v-81.3C258.7,188.3,256.7,184.5,254.3,183.1z M252.4,270.4l-67.6-39.1c-0.6-0.3-1-1.2-1-1.9v-80.2l14,9
					l52.4,31.3l1.5,2.3l0.8,36.3L252.4,270.4z"/>
				<path class="st91" d="M257.3,186.4l-6.6,3.8l1,1.5l0.8,36.3l-0.1,42.3l-1.2-0.7c0,1.3,1.7,7.8,1.7,9.1l3.5-2l0.8-0.5l0,0
					c0.9-0.5,1.5-1.8,1.5-3.6v-81.3C258.7,189.8,258.1,188,257.3,186.4z"/>
				<linearGradient id="SVGID_4_" gradientUnits="userSpaceOnUse" x1="175.4192" y1="211.8486" x2="254.2543" y2="211.8486">
					<stop  offset="0" style="stop-color:#BCBEFF"/>
					<stop  offset="0.1659" style="stop-color:#B6B8FC"/>
					<stop  offset="0.3956" style="stop-color:#A4A8F5"/>
					<stop  offset="0.6625" style="stop-color:#868DEA"/>
					<stop  offset="0.9554" style="stop-color:#5E67DA"/>
					<stop  offset="1" style="stop-color:#5761D7"/>
				</linearGradient>
				<path style="fill:url(#SVGID_4_);" d="M249.9,185.7l-70.1-40.6c-2.4-1.4-4.4,0.1-4.4,3.3v81.3c0,3.2,2,7,4.4,8.4l70.1,40.6
					c2.4,1.4,4.4-0.1,4.4-3.3V194C254.3,190.8,252.3,187.1,249.9,185.7z M250.3,272.9c0,0.7-0.4,1.1-1,0.8l-68.8-39.8
					c-0.6-0.3-1-1.2-1-1.9v-81c0-0.7,0.4-1.1,1-0.8l68.8,39.8c0.6,0.3,1,1.2,1,1.9V272.9z"/>
				<linearGradient id="SVGID_5_" gradientUnits="userSpaceOnUse" x1="164.5308" y1="211.8486" x2="306.7619" y2="211.8486">
					<stop  offset="0" style="stop-color:#706EC4"/>
					<stop  offset="2.222079e-02" style="stop-color:#6D6BC2"/>
					<stop  offset="0.2509" style="stop-color:#5651AC"/>
					<stop  offset="0.4865" style="stop-color:#463F9D"/>
					<stop  offset="0.7314" style="stop-color:#3C3494"/>
					<stop  offset="1" style="stop-color:#393091"/>
				</linearGradient>
				<path class="st44" d="M249.9,185.7l-70.1-40.6c-2.4-1.4-4.4,0.1-4.4,3.3v81.3c0,3.2,2,7,4.4,8.4l70.1,40.6
					c2.4,1.4,4.4-0.1,4.4-3.3V194C254.3,190.8,252.3,187.1,249.9,185.7z M250.3,272.9c0,0.7-0.4,1.1-1,0.8l-68.8-39.8
					c-0.6-0.3-1-1.2-1-1.9v-81c0-0.7,0.4-1.1,1-0.8l68.8,39.8c0.6,0.3,1,1.2,1,1.9V272.9z"/>
				<path class="st94" d="M184.8,231.2c-0.6-0.3-1-1.2-1-1.9V152l-3.4-2c-0.6-0.3-1,0-1,0.8v81c0,0.7,0.4,1.6,1,1.9l68.8,39.8
					c0.6,0.3,1,0,1-0.8v-3.8L184.8,231.2z"/>
				<path class="st95" d="M250.3,272.9c0,0.7-0.4,1.1-1,0.8l-68.8-39.8c-0.6-0.3-1-1.2-1-1.9v-81c0-0.7,0.4-1.1,1-0.8l68.8,39.8
					c0.6,0.3,1,1.2,1,1.9V272.9z"/>
			</g>
			<g class="st41">
				
					<linearGradient id="SVGID_6_" gradientUnits="userSpaceOnUse" x1="-957.2083" y1="210.3965" x2="-891.0552" y2="210.3965" gradientTransform="matrix(-1 0 0 1 -799.5175 0)">
					<stop  offset="0" style="stop-color:#BCBEFF"/>
					<stop  offset="0.1659" style="stop-color:#B6B8FC"/>
					<stop  offset="0.3956" style="stop-color:#A4A8F5"/>
					<stop  offset="0.6625" style="stop-color:#868DEA"/>
					<stop  offset="0.9554" style="stop-color:#5E67DA"/>
					<stop  offset="1" style="stop-color:#5761D7"/>
				</linearGradient>
				<path class="st45" d="M92.2,191.5v81.3c0,1.8,0.6,3,1.5,3.6l0,0l4.3,2.5l-0.7-3.2l2.1-1.2c0.1,0.3,0.2,0.6,0.3,0.6
					c0.2,0,2.1,0,2.1,0l50.2-28.4l15.8-9.1l4.6-4.5l0.1-83.4L171,149v-2.2l2.7-2l-4.2-2.4l0,0c-0.8-0.5-1.8-0.4-2.9,0.2l-70.1,40.6
					C94.1,184.5,92.2,188.3,92.2,191.5z M98.3,228l0.8-36.3l1.5-2.3l52.4-31.3l14-9v80.2c0,0.7-0.4,1.6-1,1.9l-67.6,39.1L98.3,228z"
					/>
				<path class="st91" d="M93.6,186.4l6.6,3.8l-1,1.5L98.3,228l0.1,42.3l1.2-0.7c0,1.3-1.7,7.8-1.7,9.1l-3.5-2l-0.8-0.5l0,0
					c-0.9-0.5-1.5-1.8-1.5-3.6v-81.3C92.2,189.8,92.7,188,93.6,186.4z"/>
				
					<linearGradient id="SVGID_7_" gradientUnits="userSpaceOnUse" x1="-974.9367" y1="211.8486" x2="-896.1016" y2="211.8486" gradientTransform="matrix(-1 0 0 1 -799.5175 0)">
					<stop  offset="0" style="stop-color:#BCBEFF"/>
					<stop  offset="0.1659" style="stop-color:#B6B8FC"/>
					<stop  offset="0.3956" style="stop-color:#A4A8F5"/>
					<stop  offset="0.6625" style="stop-color:#868DEA"/>
					<stop  offset="0.9554" style="stop-color:#5E67DA"/>
					<stop  offset="1" style="stop-color:#5761D7"/>
				</linearGradient>
				<path class="st46" d="M96.6,194v81.3c0,3.2,2,4.7,4.4,3.3L171,238c2.4-1.4,4.4-5.1,4.4-8.4v-81.3c0-3.2-2-4.7-4.4-3.3L101,185.7
					C98.5,187.1,96.6,190.8,96.6,194z M100.6,191.8c0-0.7,0.4-1.6,1-1.9l68.8-39.8c0.6-0.3,1,0,1,0.8v81c0,0.7-0.4,1.6-1,1.9
					l-68.8,39.8c-0.6,0.3-1,0-1-0.8V191.8z"/>
				
					<linearGradient id="SVGID_8_" gradientUnits="userSpaceOnUse" x1="-985.8251" y1="211.8486" x2="-843.5939" y2="211.8486" gradientTransform="matrix(-1 0 0 1 -799.5175 0)">
					<stop  offset="0" style="stop-color:#706EC4"/>
					<stop  offset="2.222079e-02" style="stop-color:#6D6BC2"/>
					<stop  offset="0.2509" style="stop-color:#5651AC"/>
					<stop  offset="0.4865" style="stop-color:#463F9D"/>
					<stop  offset="0.7314" style="stop-color:#3C3494"/>
					<stop  offset="1" style="stop-color:#393091"/>
				</linearGradient>
				<path style="fill:url(#SVGID_8_);" d="M96.6,194v81.3c0,3.2,2,4.7,4.4,3.3L171,238c2.4-1.4,4.4-5.1,4.4-8.4v-81.3
					c0-3.2-2-4.7-4.4-3.3L101,185.7C98.5,187.1,96.6,190.8,96.6,194z M100.6,191.8c0-0.7,0.4-1.6,1-1.9l68.8-39.8c0.6-0.3,1,0,1,0.8
					v81c0,0.7-0.4,1.6-1,1.9l-68.8,39.8c-0.6,0.3-1,0-1-0.8V191.8z"/>
				<path class="st94" d="M166,231.2c0.6-0.3,1-1.2,1-1.9V152l3.4-2c0.6-0.3,1,0,1,0.8v81c0,0.7-0.4,1.6-1,1.9l-68.8,39.8
					c-0.6,0.3-1,0-1-0.8v-3.8L166,231.2z"/>
				<path class="st95" d="M100.6,272.9c0,0.7,0.4,1.1,1,0.8l68.8-39.8c0.6-0.3,1-1.2,1-1.9v-81c0-0.7-0.4-1.1-1-0.8l-68.8,39.8
					c-0.6,0.3-1,1.2-1,1.9V272.9z"/>
			</g>
			<g>
				<g>
					<polygon class="st52" points="175.4,237.7 156.2,226.6 156.2,248.8 175.4,259.9 194.7,248.8 194.7,226.6 					"/>
					<polygon class="st52" points="175.4,259.9 156.2,248.8 156.2,226.6 175.4,237.7 					"/>
					<polygon class="st99" points="194.7,248.8 175.4,259.9 175.4,237.7 194.7,226.6 					"/>
					<polygon class="st52" points="175.4,237.7 156.2,226.6 175.4,215.5 194.7,226.6 					"/>
					<polygon class="st100" points="175.4,237.7 157,227.1 156.2,227.6 175.4,238.7 194.7,227.6 193.8,227.1 					"/>
				</g>
				<g>
					<polygon class="st52" points="200.4,252 181.2,240.9 181.2,263.1 200.4,274.2 219.6,263.1 219.6,240.9 					"/>
					<polygon class="st52" points="200.4,274.2 181.2,263.1 181.2,240.9 200.4,252 					"/>
					<polygon class="st99" points="219.6,263.1 200.4,274.2 200.4,252 219.6,240.9 					"/>
					<polygon class="st52" points="200.4,252 181.2,240.9 200.4,229.8 219.6,240.9 					"/>
					<polygon class="st100" points="200.4,252 182,241.4 181.2,241.8 200.4,252.9 219.6,241.8 218.8,241.4 					"/>
				</g>
				<g>
					<polygon class="st52" points="225.4,266.2 206.2,255.1 206.2,277.3 225.4,288.4 244.6,277.3 244.6,255.1 					"/>
					<polygon class="st52" points="225.4,288.4 206.2,277.3 206.2,255.1 225.4,266.2 					"/>
					<polygon class="st99" points="244.6,277.3 225.4,288.4 225.4,266.2 244.6,255.1 					"/>
					<polygon class="st52" points="225.4,266.2 206.2,255.1 225.4,244 244.6,255.1 					"/>
					<polygon class="st100" points="225.4,266.2 207,255.6 206.2,256.1 225.4,267.2 244.6,256.1 244.6,255.1 					"/>
				</g>
				<g>
					<polygon class="st52" points="150.4,252.9 131.2,241.8 131.2,264.1 150.4,275.2 169.7,264.1 169.7,241.8 					"/>
					<polygon class="st52" points="150.4,275.2 131.2,264.1 131.2,241.8 150.4,252.9 					"/>
					<polygon class="st99" points="169.7,264.1 150.4,275.2 150.4,252.9 169.7,241.8 					"/>
					<polygon class="st52" points="150.4,252.9 131.2,241.8 150.4,230.7 169.7,241.8 					"/>
					<polygon class="st100" points="150.4,252.9 132,242.3 131.2,242.8 150.4,253.9 169.7,242.8 168.8,242.3 					"/>
				</g>
				<g>
					<polygon class="st52" points="175.4,267.2 156.2,256.1 156.2,278.3 175.4,289.4 194.7,278.3 194.7,256.1 					"/>
					<polygon class="st52" points="175.4,289.4 156.2,278.3 156.2,256.1 175.4,267.2 					"/>
					<polygon class="st99" points="194.7,278.3 175.4,289.4 175.4,267.2 194.7,256.1 					"/>
					<polygon class="st52" points="175.4,267.2 156.2,256.1 175.4,245 194.7,256.1 					"/>
					<polygon class="st100" points="175.4,267.2 157,256.6 156.2,257.1 175.4,268.2 194.7,257.1 193.8,256.6 					"/>
				</g>
				<g>
					<polygon class="st52" points="200.4,281.5 181.2,270.4 181.2,292.6 200.4,303.7 219.6,292.6 219.6,270.4 					"/>
					<polygon class="st52" points="200.4,303.7 181.2,292.6 181.2,270.4 200.4,281.5 					"/>
					<polygon class="st99" points="219.6,292.6 200.4,303.7 200.4,281.5 219.6,270.4 					"/>
					<polygon class="st52" points="200.4,281.5 181.2,270.4 200.4,259.2 219.6,270.4 					"/>
					<polygon class="st100" points="200.4,281.5 182,270.8 181.2,271.3 200.4,282.4 219.6,271.3 219.6,270.4 					"/>
				</g>
				<g>
					<polygon class="st52" points="125.5,268.2 106.2,257.1 106.2,279.3 125.5,290.4 144.7,279.3 144.7,257.1 					"/>
					<polygon class="st52" points="125.5,290.4 106.2,279.3 106.2,257.1 125.5,268.2 					"/>
					<polygon class="st99" points="144.7,279.3 125.5,290.4 125.5,268.2 144.7,257.1 					"/>
					<polygon class="st52" points="125.5,268.2 106.2,257.1 125.5,246 144.7,257.1 					"/>
					<polygon class="st100" points="125.5,268.2 106.2,257.1 106.2,258 125.5,269.1 144.7,258 143.9,257.5 					"/>
				</g>
				<g>
					<polygon class="st52" points="150.4,282.4 131.2,271.3 131.2,293.5 150.4,304.6 169.7,293.5 169.7,271.3 					"/>
					<polygon class="st52" points="150.4,304.6 131.2,293.5 131.2,271.3 150.4,282.4 					"/>
					<polygon class="st99" points="169.7,293.5 150.4,304.6 150.4,282.4 169.7,271.3 					"/>
					<polygon class="st52" points="150.4,282.4 131.2,271.3 150.4,260.2 169.7,271.3 					"/>
					<polygon class="st100" points="150.4,282.4 131.2,271.3 131.2,272.3 150.4,283.4 169.7,272.3 168.8,271.8 					"/>
				</g>
				<g>
					<polygon class="st52" points="175.4,296.7 156.2,285.6 156.2,307.8 175.4,318.9 194.7,307.8 194.7,285.6 					"/>
					<polygon class="st52" points="175.4,318.9 156.2,307.8 156.2,285.6 175.4,296.7 					"/>
					<polygon class="st99" points="194.7,307.8 175.4,318.9 175.4,296.7 194.7,285.6 					"/>
					<polygon class="st52" points="175.4,296.7 156.2,285.6 175.4,274.5 194.7,285.6 					"/>
					<polygon class="st100" points="175.4,296.7 156.2,285.6 156.2,286.5 175.4,297.6 194.7,286.5 194.7,285.6 					"/>
				</g>
				<g>
					<polygon class="st52" points="175.4,208.3 156.2,197.2 156.2,219.4 175.4,230.5 194.7,219.4 194.7,197.2 					"/>
					<polygon class="st52" points="175.4,230.5 156.2,219.4 156.2,197.2 175.4,208.3 					"/>
					<polygon class="st99" points="194.7,219.4 175.4,230.5 175.4,208.3 194.7,197.2 					"/>
					<polygon class="st52" points="175.4,208.3 156.2,197.2 175.4,186 194.7,197.2 					"/>
					<polygon class="st100" points="175.4,208.3 157,197.6 156.2,198.1 175.4,209.2 194.7,198.1 193.8,197.6 					"/>
				</g>
				<g>
					<polygon class="st101" points="175.4,293.1 162.3,285.5 175.4,277.9 188.5,285.5 					"/>
					<polygon class="st101" points="150.4,278.8 137.3,271.2 150.4,263.7 163.6,271.2 					"/>
					<polygon class="st101" points="200.4,277.8 187.3,270.3 200.4,262.7 213.5,270.3 					"/>
					<polygon class="st101" points="225.4,262.8 212.3,255.2 225.4,247.6 238.6,255.2 					"/>
					<polygon class="st101" points="125.5,264.5 112.3,257 125.5,249.4 138.6,257 					"/>
				</g>
				<g>
					<polygon class="st52" points="200.4,222.5 181.2,211.4 181.2,233.6 200.4,244.7 219.6,233.6 219.6,211.4 					"/>
					<polygon class="st52" points="200.4,244.7 181.2,233.6 181.2,211.4 200.4,222.5 					"/>
					<polygon class="st99" points="219.6,233.6 200.4,244.7 200.4,222.5 219.6,211.4 					"/>
					<polygon class="st52" points="200.4,222.5 181.2,211.4 200.4,200.3 219.6,211.4 					"/>
					<polygon class="st100" points="200.4,222.5 182,211.9 181.2,212.4 200.4,223.5 219.6,212.4 218.8,211.9 					"/>
				</g>
				<g>
					<polygon class="st52" points="225.4,236.8 206.2,225.7 206.2,247.9 225.4,259 244.6,247.9 244.6,225.7 					"/>
					<polygon class="st52" points="225.4,259 206.2,247.9 206.2,225.7 225.4,236.8 					"/>
					<polygon class="st99" points="244.6,247.9 225.4,259 225.4,236.8 244.6,225.7 					"/>
					<polygon class="st52" points="225.4,236.8 206.2,225.7 225.4,214.6 244.6,225.7 					"/>
					<polygon class="st100" points="225.4,236.8 207,226.1 206.2,226.6 225.4,237.7 244.6,226.6 244.6,225.7 					"/>
				</g>
				<g>
					<polygon class="st52" points="150.4,223.5 131.2,212.4 131.2,234.6 150.4,245.7 169.7,234.6 169.7,212.4 					"/>
					<polygon class="st52" points="150.4,245.7 131.2,234.6 131.2,212.4 150.4,223.5 					"/>
					<polygon class="st99" points="169.7,234.6 150.4,245.7 150.4,223.5 169.7,212.4 					"/>
					<polygon class="st52" points="150.4,223.5 131.2,212.4 150.4,201.3 169.7,212.4 					"/>
					<polygon class="st100" points="150.4,223.5 132,212.9 131.2,213.3 150.4,224.4 169.7,213.3 168.8,212.9 					"/>
				</g>
				<g>
					<polygon class="st52" points="175.4,237.7 156.2,226.6 156.2,248.8 175.4,259.9 194.7,248.8 194.7,226.6 					"/>
					<polygon class="st52" points="175.4,259.9 156.2,248.8 156.2,226.6 175.4,237.7 					"/>
					<polygon class="st99" points="194.7,248.8 175.4,259.9 175.4,237.7 194.7,226.6 					"/>
					<polygon class="st52" points="175.4,237.7 156.2,226.6 175.4,215.5 194.7,226.6 					"/>
					<polygon class="st100" points="175.4,237.7 157,227.1 156.2,227.6 175.4,238.7 194.7,227.6 193.8,227.1 					"/>
				</g>
				<g>
					<polygon class="st52" points="200.4,252 181.2,240.9 181.2,263.1 200.4,274.2 219.6,263.1 219.6,240.9 					"/>
					<polygon class="st52" points="200.4,274.2 181.2,263.1 181.2,240.9 200.4,252 					"/>
					<polygon class="st99" points="219.6,263.1 200.4,274.2 200.4,252 219.6,240.9 					"/>
					<polygon class="st52" points="200.4,252 181.2,240.9 200.4,229.8 219.6,240.9 					"/>
					<polygon class="st100" points="200.4,252 182,241.4 181.2,241.8 200.4,252.9 219.6,241.8 219.6,240.9 					"/>
				</g>
				<g>
					<polygon class="st52" points="125.5,238.7 106.2,227.6 106.2,249.8 125.5,260.9 144.7,249.8 144.7,227.6 					"/>
					<polygon class="st52" points="125.5,260.9 106.2,249.8 106.2,227.6 125.5,238.7 					"/>
					<polygon class="st99" points="144.7,249.8 125.5,260.9 125.5,238.7 144.7,227.6 					"/>
					<polygon class="st52" points="125.5,238.7 106.2,227.6 125.5,216.5 144.7,227.6 					"/>
					<polygon class="st100" points="125.5,238.7 107.1,228.1 106.2,228.6 125.5,239.7 144.7,228.6 143.9,228.1 					"/>
				</g>
				<g>
					<polygon class="st52" points="150.4,252.9 131.2,241.8 131.2,264.1 150.4,275.2 169.7,264.1 169.7,241.8 					"/>
					<polygon class="st52" points="150.4,275.2 131.2,264.1 131.2,241.8 150.4,252.9 					"/>
					<polygon class="st99" points="169.7,264.1 150.4,275.2 150.4,252.9 169.7,241.8 					"/>
					<polygon class="st52" points="150.4,252.9 131.2,241.8 150.4,230.7 169.7,241.8 					"/>
					<polygon class="st100" points="150.4,252.9 131.2,241.8 131.2,242.8 150.4,253.9 169.7,242.8 168.8,242.3 					"/>
				</g>
				<g>
					<polygon class="st52" points="175.4,267.2 156.2,256.1 156.2,278.3 175.4,289.4 194.7,278.3 194.7,256.1 					"/>
					<polygon class="st52" points="175.4,289.4 156.2,278.3 156.2,256.1 175.4,267.2 					"/>
					<polygon class="st99" points="194.7,278.3 175.4,289.4 175.4,267.2 194.7,256.1 					"/>
					<polygon class="st52" points="175.4,267.2 156.2,256.1 175.4,245 194.7,256.1 					"/>
					<polygon class="st100" points="175.4,267.2 156.2,256.1 156.2,257.1 175.4,268.2 194.7,257.1 194.7,256.1 					"/>
				</g>
				<g>
					<polygon class="st101" points="225.4,233.5 212.3,225.9 225.4,218.3 238.6,225.9 					"/>
					<polygon class="st101" points="125.5,235.2 112.3,227.6 125.5,220.1 138.6,227.6 					"/>
				</g>
				<g>
					<polygon class="st52" points="175.4,178.8 156.2,167.7 156.2,189.9 175.4,201 194.7,189.9 194.7,167.7 					"/>
					<polygon class="st52" points="175.4,201 156.2,189.9 156.2,167.7 175.4,178.8 					"/>
					<polygon class="st99" points="194.7,189.9 175.4,201 175.4,178.8 194.7,167.7 					"/>
					<polygon class="st52" points="175.4,178.8 156.2,167.7 175.4,156.6 194.7,167.7 					"/>
					<polygon class="st100" points="175.4,178.8 156.2,167.7 156.2,168.6 175.4,179.7 194.7,168.6 194.7,167.7 					"/>
				</g>
				<g>
					<polygon class="st52" points="200.4,193 181.2,181.9 181.2,204.1 200.4,215.2 219.6,204.1 219.6,181.9 					"/>
					<polygon class="st52" points="200.4,215.2 181.2,204.1 181.2,181.9 200.4,193 					"/>
					<polygon class="st99" points="219.6,204.1 200.4,215.2 200.4,193 219.6,181.9 					"/>
					<polygon class="st52" points="200.4,193 181.2,181.9 200.4,170.8 219.6,181.9 					"/>
					<polygon class="st100" points="200.4,193 181.2,181.9 181.2,182.9 200.4,194 219.6,182.9 219.6,181.9 					"/>
				</g>
				<g>
					<polygon class="st52" points="225.4,207.3 206.2,196.2 206.2,218.4 225.4,229.5 244.6,218.4 244.6,196.2 					"/>
					<polygon class="st52" points="225.4,229.5 206.2,218.4 206.2,196.2 225.4,207.3 					"/>
					<polygon class="st99" points="244.6,218.4 225.4,229.5 225.4,207.3 244.6,196.2 					"/>
					<polygon class="st52" points="225.4,207.3 206.2,196.2 225.4,185.1 244.6,196.2 					"/>
					<polygon class="st100" points="225.4,207.3 206.2,196.2 206.2,197.2 225.4,208.3 244.6,197.2 244.6,196.2 					"/>
				</g>
				<g>
					<polygon class="st52" points="150.4,194 131.2,182.9 131.2,205.1 150.4,216.2 169.7,205.1 169.7,182.9 					"/>
					<polygon class="st52" points="150.4,216.2 131.2,205.1 131.2,182.9 150.4,194 					"/>
					<polygon class="st99" points="169.7,205.1 150.4,216.2 150.4,194 169.7,182.9 					"/>
					<polygon class="st52" points="150.4,194 131.2,182.9 150.4,171.8 169.7,182.9 					"/>
					<polygon class="st100" points="150.4,194 131.2,182.9 131.2,183.9 150.4,195 169.7,183.9 169.7,182.9 					"/>
				</g>
				<g>
					<polygon class="st52" points="125.5,209.2 106.2,198.1 106.2,220.3 125.5,231.4 144.7,220.3 144.7,198.1 					"/>
					<polygon class="st52" points="125.5,231.4 106.2,220.3 106.2,198.1 125.5,209.2 					"/>
					<polygon class="st99" points="144.7,220.3 125.5,231.4 125.5,209.2 144.7,198.1 					"/>
					<polygon class="st52" points="125.5,209.2 106.2,198.1 125.5,187 144.7,198.1 					"/>
					<polygon class="st100" points="125.5,209.2 106.2,198.1 106.2,199.1 125.5,210.2 144.7,199.1 144.7,198.1 					"/>
				</g>
				<polygon class="st101" points="175.4,263.9 162.3,256.4 175.4,248.8 188.5,256.4 				"/>
				<polygon class="st101" points="150.4,249.7 137.3,242.1 150.4,234.5 163.6,242.1 				"/>
				<polygon class="st101" points="200.4,248.7 187.3,241.1 200.4,233.6 213.5,241.1 				"/>
				<g>
					<polygon class="st52" points="175.4,208.6 156.2,197.5 156.2,219.7 175.4,230.8 194.7,219.7 194.7,197.5 					"/>
					<polygon class="st52" points="175.4,230.8 156.2,219.7 156.2,197.5 175.4,208.6 					"/>
					<polygon class="st99" points="194.7,219.7 175.4,230.8 175.4,208.6 194.7,197.5 					"/>
					<polygon class="st52" points="175.4,208.6 156.2,197.5 175.4,186.4 194.7,197.5 					"/>
					<polygon class="st100" points="175.4,208.6 157,198 156.2,198.5 175.4,209.6 194.7,198.5 193.8,198 					"/>
				</g>
				<g>
					<polygon class="st52" points="200.4,222.9 181.2,211.8 181.2,234 200.4,245.1 219.6,234 219.6,211.8 					"/>
					<polygon class="st52" points="200.4,245.1 181.2,234 181.2,211.8 200.4,222.9 					"/>
					<polygon class="st99" points="219.6,234 200.4,245.1 200.4,222.9 219.6,211.8 					"/>
					<polygon class="st52" points="200.4,222.9 181.2,211.8 200.4,200.7 219.6,211.8 					"/>
					<polygon class="st100" points="200.4,222.9 182,212.2 181.2,212.7 200.4,223.8 219.6,212.7 219.6,211.8 					"/>
				</g>
				<g>
					<polygon class="st52" points="150.4,223.8 131.2,212.7 131.2,234.9 150.4,246 169.7,234.9 169.7,212.7 					"/>
					<polygon class="st52" points="150.4,246 131.2,234.9 131.2,212.7 150.4,223.8 					"/>
					<polygon class="st99" points="169.7,234.9 150.4,246 150.4,223.8 169.7,212.7 					"/>
					<polygon class="st52" points="150.4,223.8 131.2,212.7 150.4,201.6 169.7,212.7 					"/>
					<polygon class="st100" points="150.4,223.8 131.2,212.7 131.2,213.7 150.4,224.8 169.7,213.7 168.8,213.2 					"/>
				</g>
				<g>
					<polygon class="st52" points="175.4,238.1 156.2,227 156.2,249.2 175.4,260.3 194.7,249.2 194.7,227 					"/>
					<polygon class="st52" points="175.4,260.3 156.2,249.2 156.2,227 175.4,238.1 					"/>
					<polygon class="st99" points="194.7,249.2 175.4,260.3 175.4,238.1 194.7,227 					"/>
					<polygon class="st52" points="175.4,238.1 156.2,227 175.4,215.9 194.7,227 					"/>
					<polygon class="st100" points="175.4,238.1 156.2,227 156.2,227.9 175.4,239 194.7,227.9 194.7,227 					"/>
				</g>
			</g>
			<g>
				<g>
					<linearGradient id="SVGID_9_" gradientUnits="userSpaceOnUse" x1="109.0611" y1="255.5851" x2="175.2143" y2="255.5851">
						<stop  offset="0" style="stop-color:#BCBEFF"/>
						<stop  offset="0.1659" style="stop-color:#B6B8FC"/>
						<stop  offset="0.3956" style="stop-color:#A4A8F5"/>
						<stop  offset="0.6625" style="stop-color:#868DEA"/>
						<stop  offset="0.9554" style="stop-color:#5E67DA"/>
						<stop  offset="1" style="stop-color:#5761D7"/>
					</linearGradient>
					<path class="st48" d="M170.2,228.3l-70.1-40.6c-1.1-0.6-2.1-0.7-2.9-0.2l0,0L93,190l2.7,2v2.2l-1.6,0.7l0.1,83.4l4.6,4.5
						l15.8,9.1l50.2,28.4c0,0,1.8,0,2.1,0c0.1,0,0.2-0.2,0.3-0.6l2.1,1.2l-0.7,3.2l4.3-2.5l0,0c0.9-0.5,1.5-1.8,1.5-3.6v-81.3
						C174.6,233.4,172.6,229.7,170.2,228.3z M168.3,315.5l-67.6-39.1c-0.6-0.3-1-1.2-1-1.9v-80.2l14,9l52.4,31.3l1.5,2.3l0.8,36.3
						L168.3,315.5z"/>
					<path class="st91" d="M173.2,231.6l-6.6,3.8l1,1.5l0.8,36.3l-0.1,42.3l-1.2-0.7c0,1.3,1.7,7.8,1.7,9.1l3.5-2l0.8-0.5l0,0
						c0.9-0.5,1.5-1.8,1.5-3.6v-81.3C174.6,235,174,233.2,173.2,231.6z"/>
					<linearGradient id="SVGID_10_" gradientUnits="userSpaceOnUse" x1="91.3328" y1="257.0372" x2="170.1679" y2="257.0372">
						<stop  offset="0" style="stop-color:#BCBEFF"/>
						<stop  offset="0.1659" style="stop-color:#B6B8FC"/>
						<stop  offset="0.3956" style="stop-color:#A4A8F5"/>
						<stop  offset="0.6625" style="stop-color:#868DEA"/>
						<stop  offset="0.9554" style="stop-color:#5E67DA"/>
						<stop  offset="1" style="stop-color:#5761D7"/>
					</linearGradient>
					<path style="fill:url(#SVGID_10_);" d="M165.8,230.8l-70.1-40.6c-2.4-1.4-4.4,0.1-4.4,3.3v81.3c0,3.2,2,7,4.4,8.4l70.1,40.6
						c2.4,1.4,4.4-0.1,4.4-3.3v-81.3C170.2,236,168.2,232.2,165.8,230.8z M166.2,318.1c0,0.7-0.4,1.1-1,0.8L96.3,279
						c-0.6-0.3-1-1.2-1-1.9v-81c0-0.7,0.4-1.1,1-0.8l68.8,39.8c0.6,0.3,1,1.2,1,1.9V318.1z"/>
					<linearGradient id="SVGID_11_" gradientUnits="userSpaceOnUse" x1="80.4444" y1="257.0372" x2="222.6756" y2="257.0372">
						<stop  offset="0" style="stop-color:#706EC4"/>
						<stop  offset="2.222079e-02" style="stop-color:#6D6BC2"/>
						<stop  offset="0.2509" style="stop-color:#5651AC"/>
						<stop  offset="0.4865" style="stop-color:#463F9D"/>
						<stop  offset="0.7314" style="stop-color:#3C3494"/>
						<stop  offset="1" style="stop-color:#393091"/>
					</linearGradient>
					<path style="fill:url(#SVGID_11_);" d="M165.8,230.8l-70.1-40.6c-2.4-1.4-4.4,0.1-4.4,3.3v81.3c0,3.2,2,7,4.4,8.4l70.1,40.6
						c2.4,1.4,4.4-0.1,4.4-3.3v-81.3C170.2,236,168.2,232.2,165.8,230.8z M166.2,318.1c0,0.7-0.4,1.1-1,0.8L96.3,279
						c-0.6-0.3-1-1.2-1-1.9v-81c0-0.7,0.4-1.1,1-0.8l68.8,39.8c0.6,0.3,1,1.2,1,1.9V318.1z"/>
					<path class="st94" d="M100.7,276.4c-0.6-0.3-1-1.2-1-1.9v-77.3l-3.4-2c-0.6-0.3-1,0-1,0.8v81c0,0.7,0.4,1.6,1,1.9l68.8,39.8
						c0.6,0.3,1,0,1-0.8v-3.8L100.7,276.4z"/>
					<path class="st105" d="M166.2,318.1c0,0.7-0.4,1.1-1,0.8L96.3,279c-0.6-0.3-1-1.2-1-1.9v-81c0-0.7,0.4-1.1,1-0.8l68.8,39.8
						c0.6,0.3,1,1.2,1,1.9V318.1z"/>
				</g>
				<g>
					<linearGradient id="SVGID_12_" gradientUnits="userSpaceOnUse" x1="280.1659" y1="284.3782" x2="227.3657" y2="260.7531">
						<stop  offset="0" style="stop-color:#BCBEFF"/>
						<stop  offset="0.1659" style="stop-color:#B6B8FC"/>
						<stop  offset="0.3956" style="stop-color:#A4A8F5"/>
						<stop  offset="0.6625" style="stop-color:#868DEA"/>
						<stop  offset="0.9554" style="stop-color:#5E67DA"/>
						<stop  offset="1" style="stop-color:#5761D7"/>
					</linearGradient>
					<path class="st53" d="M174.6,236.7v81.3c0,1.8,0.6,3,1.5,3.6l0,0l4.3,2.5l-0.7-3.2l2.1-1.2c0.1,0.3,0.2,0.6,0.3,0.6
						c0.2,0,2.1,0,2.1,0l50.2-28.4l15.8-9.1l4.6-4.5l0.1-83.4l-1.6-0.7V192l2.7-2l-4.2-2.4l0,0c-0.8-0.5-1.8-0.4-2.9,0.2l-70.1,40.6
						C176.5,229.7,174.6,233.4,174.6,236.7z M180.7,273.2l0.8-36.3l1.5-2.3l52.4-31.3l14-9v80.2c0,0.7-0.4,1.6-1,1.9l-67.6,39.1
						L180.7,273.2z"/>
					<path class="st91" d="M174.6,236.7v81.3c0,1.8,0.6,3,1.5,3.6l0,0l4.3,2.5l-0.7-3.2l2.1-1.2c0.1,0.3,0.2,0.6,0.3,0.6
						c0.2,0,2.1,0,2.1,0l50.2-28.4l15.8-9.1l4.6-4.5l0.1-83.4l-1.6-0.7V192l2.7-2l-4.2-2.4l0,0c-0.8-0.5-1.8-0.4-2.9,0.2l-70.1,40.6
						C176.5,229.7,174.6,233.4,174.6,236.7z M180.7,273.2l0.8-36.3l1.5-2.3l52.4-31.3l14-9v80.2c0,0.7-0.4,1.6-1,1.9l-67.6,39.1
						L180.7,273.2z"/>
					
						<linearGradient id="SVGID_13_" gradientUnits="userSpaceOnUse" x1="-468.4563" y1="269.7045" x2="-722.3029" y2="253.2885" gradientTransform="matrix(-1 0 0 1 -445.9411 0)">
						<stop  offset="0" style="stop-color:#BCBEFF"/>
						<stop  offset="0.1659" style="stop-color:#B6B8FC"/>
						<stop  offset="0.3956" style="stop-color:#A4A8F5"/>
						<stop  offset="0.6625" style="stop-color:#868DEA"/>
						<stop  offset="0.9554" style="stop-color:#5E67DA"/>
						<stop  offset="1" style="stop-color:#5761D7"/>
					</linearGradient>
					<path style="fill:url(#SVGID_13_);" d="M179,239.2v81.3c0,3.2,2,4.7,4.4,3.3l70.1-40.6c2.4-1.4,4.4-5.1,4.4-8.4v-81.3
						c0-3.2-2-4.7-4.4-3.3l-70.1,40.6C180.9,232.2,179,236,179,239.2z M183,237c0-0.7,0.4-1.6,1-1.9l68.8-39.8c0.6-0.3,1,0,1,0.8v81
						c0,0.7-0.4,1.6-1,1.9L184,318.8c-0.6,0.3-1,0-1-0.8V237z"/>
					<path class="st108" d="M179,239.2v81.3c0,3.2,2,4.7,4.4,3.3l70.1-40.6c2.4-1.4,4.4-5.1,4.4-8.4v-81.3c0-3.2-2-4.7-4.4-3.3
						l-70.1,40.6C180.9,232.2,179,236,179,239.2z M183,237c0-0.7,0.4-1.6,1-1.9l68.8-39.8c0.6-0.3,1,0,1,0.8v81c0,0.7-0.4,1.6-1,1.9
						L184,318.8c-0.6,0.3-1,0-1-0.8V237z"/>
					<g>
						<path class="st100" d="M95.4,195.5c-0.4-0.1-0.7,0.3-0.7,0.9v81c0,0.7,0.4,1.6,1,1.9l68.8,39.8c0.4,0.2,0.7,0.1,0.9-0.2
							c-0.1,0-0.2,0-0.3-0.1l-68.8-39.8c-0.6-0.3-1-1.2-1-1.9v-81C95.3,195.8,95.4,195.6,95.4,195.5z"/>
						<path class="st100" d="M165.8,230.8l-70.1-40.6c-1.2-0.7-2.3-0.7-3.1-0.1c0.7-0.3,1.6-0.1,2.5,0.4l70.1,40.6
							c2.4,1.4,4.4,5.1,4.4,8.4v81.3c0,1.6-0.5,2.8-1.3,3.4c1.1-0.4,1.9-1.7,1.9-3.7v-81.3C170.2,236,168.2,232.2,165.8,230.8z"/>
					</g>
					<g>
						<path class="st52" d="M253.7,195.5c0.4-0.1,0.7,0.3,0.7,0.9v81c0,0.7-0.4,1.6-1,1.9l-68.8,39.8c-0.4,0.2-0.7,0.1-0.9-0.2
							c0.1,0,0.2,0,0.3-0.1l68.8-39.8c0.6-0.3,1-1.2,1-1.9v-81C253.8,195.8,253.8,195.6,253.7,195.5z"/>
						<path class="st52" d="M183.4,230.8l70.1-40.6c1.2-0.7,2.3-0.7,3.1-0.1c-0.7-0.3-1.6-0.1-2.5,0.4L184,231.2
							c-2.4,1.4-4.4,5.1-4.4,8.4v81.3c0,1.6,0.5,2.8,1.3,3.4c-1.1-0.4-1.9-1.7-1.9-3.7v-81.3C179,236,180.9,232.2,183.4,230.8z"/>
					</g>
					<path class="st94" d="M248.4,276.4c0.6-0.3,1-1.2,1-1.9v-77.3l3.4-2c0.6-0.3,1,0,1,0.8v81c0,0.7-0.4,1.6-1,1.9L184,318.8
						c-0.6,0.3-1,0-1-0.8v-3.8L248.4,276.4z"/>
					<path class="st60" d="M183,318.1c0,0.7,0.4,1.1,1,0.8l68.8-39.8c0.6-0.3,1-1.2,1-1.9v-81c0-0.7-0.4-1.1-1-0.8L184,235.1
						c-0.6,0.3-1,1.2-1,1.9V318.1z"/>
				</g>
				<g>
					<path class="st52" d="M95.4,195.5c-0.4-0.1-0.7,0.3-0.7,0.9v81c0,0.7,0.4,1.6,1,1.9l68.8,39.8c0.4,0.2,0.7,0.1,0.9-0.2
						c-0.1,0-0.2,0-0.3-0.1l-68.8-39.8c-0.6-0.3-1-1.2-1-1.9v-81C95.3,195.8,95.4,195.6,95.4,195.5z"/>
					<path class="st52" d="M165.8,230.8l-70.1-40.6c-1.2-0.7-2.3-0.7-3.1-0.1c0.7-0.3,1.6-0.1,2.5,0.4l70.1,40.6
						c2.4,1.4,4.4,5.1,4.4,8.4v81.3c0,1.6-0.5,2.8-1.3,3.4c1.1-0.4,1.9-1.7,1.9-3.7v-81.3C170.2,236,168.2,232.2,165.8,230.8z"/>
				</g>
			</g>
			<g>
				
					<linearGradient id="SVGID_14_" gradientUnits="userSpaceOnUse" x1="1026.3048" y1="-964.1198" x2="1092.4635" y2="-964.1198" gradientTransform="matrix(0.4991 0.8665 0.8665 -0.4991 486.5147 -1208.799)">
					<stop  offset="0" style="stop-color:#BCBEFF"/>
					<stop  offset="0.1659" style="stop-color:#B6B8FC"/>
					<stop  offset="0.3956" style="stop-color:#A4A8F5"/>
					<stop  offset="0.6625" style="stop-color:#868DEA"/>
					<stop  offset="0.9554" style="stop-color:#5E67DA"/>
					<stop  offset="1" style="stop-color:#5761D7"/>
				</linearGradient>
				<path class="st56" d="M179.6,227.9l70.4-40.6c1.5-0.9,2.3-2,2.3-3.1l0,0l0-4.9l-2.4,2.2l-2.1-1.2c0.2-0.3,0.4-0.5,0.3-0.6
					c-0.1-0.2-1-1.8-1-1.8l-49.7-29.3l-15.8-9.2l-6.2-1.8l-72.3,41.5l0.2,1.7l-1.9,1.1l-3.1-1.4l0,4.9l0,0c0,0.9,0.5,1.8,1.6,2.4
					l70.1,40.5C172.6,229.7,176.8,229.5,179.6,227.9z M208.2,204.3l-31.9,17.4l-2.7-0.1l-53.3-29.8l-14.8-7.6l69.5-40
					c0.6-0.4,1.6-0.4,2.2-0.1l67.6,39L208.2,204.3z"/>
				<path class="st91" d="M174.6,229.2l0-7.6l1.8,0.1l31.9-17.4l36.6-21.2l-1.2-0.7c1.1-0.7,7.6-2.4,8.7-3.1l0,4l0,0.9l0,0
					c0,1.1-0.8,2.2-2.3,3.1l-70.4,40.6C178.2,228.7,176.3,229.2,174.6,229.2z"/>
				
					<linearGradient id="SVGID_15_" gradientUnits="userSpaceOnUse" x1="1008.5752" y1="-962.6675" x2="1087.4171" y2="-962.6675" gradientTransform="matrix(0.4991 0.8665 0.8665 -0.4991 486.5147 -1208.799)">
					<stop  offset="0" style="stop-color:#BCBEFF"/>
					<stop  offset="0.1659" style="stop-color:#B6B8FC"/>
					<stop  offset="0.3956" style="stop-color:#A4A8F5"/>
					<stop  offset="0.6625" style="stop-color:#868DEA"/>
					<stop  offset="0.9554" style="stop-color:#5E67DA"/>
					<stop  offset="1" style="stop-color:#5761D7"/>
				</linearGradient>
				<path style="fill:url(#SVGID_15_);" d="M179.6,222.8l70.4-40.6c2.8-1.6,3.1-4.1,0.7-5.5l-70.1-40.5c-2.4-1.4-6.6-1.2-9.4,0.4
					l-70.4,40.6c-2.8,1.6-3.1,4.1-0.7,5.5l70.1,40.5C172.6,224.6,176.9,224.4,179.6,222.8z M175.7,220.4c-0.6,0.4-1.6,0.4-2.2,0.1
					l-68.9-39.8c-0.6-0.3-0.5-0.9,0.2-1.2l70.2-40.4c0.6-0.4,1.6-0.4,2.2-0.1l68.9,39.8c0.6,0.3,0.5,0.9-0.2,1.2L175.7,220.4z"/>
				
					<linearGradient id="SVGID_16_" gradientUnits="userSpaceOnUse" x1="997.6859" y1="-962.6675" x2="1139.9292" y2="-962.6675" gradientTransform="matrix(0.4991 0.8665 0.8665 -0.4991 486.5147 -1208.799)">
					<stop  offset="0" style="stop-color:#706EC4"/>
					<stop  offset="2.222079e-02" style="stop-color:#6D6BC2"/>
					<stop  offset="0.2509" style="stop-color:#5651AC"/>
					<stop  offset="0.4865" style="stop-color:#463F9D"/>
					<stop  offset="0.7314" style="stop-color:#3C3494"/>
					<stop  offset="1" style="stop-color:#393091"/>
				</linearGradient>
				<path style="fill:url(#SVGID_16_);" d="M179.6,222.8l70.4-40.6c2.8-1.6,3.1-4.1,0.7-5.5l-70.1-40.5c-2.4-1.4-6.6-1.2-9.4,0.4
					l-70.4,40.6c-2.8,1.6-3.1,4.1-0.7,5.5l70.1,40.5C172.6,224.6,176.9,224.4,179.6,222.8z M175.7,220.4c-0.6,0.4-1.6,0.4-2.2,0.1
					l-68.9-39.8c-0.6-0.3-0.5-0.9,0.2-1.2l70.2-40.4c0.6-0.4,1.6-0.4,2.2-0.1l68.9,39.8c0.6,0.3,0.5,0.9-0.2,1.2L175.7,220.4z"/>
				<g>
					<path class="st52" d="M246.1,178.1l-68.9-39.8c-0.6-0.3-1.5-0.3-2.2,0.1l-70.2,40.4c-0.5,0.3-0.7,0.7-0.4,1
						c0.1-0.1,0.2-0.2,0.4-0.3l70.2-40.4c0.6-0.4,1.6-0.4,2.2-0.1l68.9,39.8c0.1,0.1,0.2,0.1,0.2,0.2
						C246.6,178.6,246.5,178.3,246.1,178.1z"/>
					<path class="st52" d="M250.1,181.6l-70.4,40.6c-2.8,1.6-7,1.8-9.4,0.4L100.1,182c-1-0.6-1.5-1.3-1.6-2c-0.2,1,0.4,2,1.6,2.7
						l70.1,40.5c2.4,1.4,6.6,1.2,9.4-0.4l70.4-40.6c1.7-1,2.5-2.3,2.3-3.4C252.2,179.8,251.4,180.8,250.1,181.6z"/>
				</g>
				<path class="st94" d="M177.2,144.1c-0.6-0.3-1.5-0.3-2.2,0.1l-67,38.6l-3.4-2c-0.6-0.3-0.5-0.9,0.2-1.2l70.2-40.4
					c0.6-0.4,1.6-0.4,2.2-0.1l68.9,39.8c0.6,0.3,0.5,0.9-0.2,1.2l-3.3,1.9L177.2,144.1z"/>
				<path class="st105" d="M246,180c0.6-0.4,0.7-0.9,0.2-1.2L177.2,139c-0.6-0.3-1.5-0.3-2.2,0.1l-70.2,40.4
					c-0.6,0.4-0.7,0.9-0.2,1.2l68.9,39.8c0.6,0.3,1.5,0.3,2.2-0.1L246,180z"/>
			</g>
		</g>
	</g>
	<g>
		<g>
			<g class="st41">
				<linearGradient id="SVGID_17_" gradientUnits="userSpaceOnUse" x1="193.1475" y1="100.6996" x2="259.3006" y2="100.6996">
					<stop  offset="0" style="stop-color:#BCBEFF"/>
					<stop  offset="0.1659" style="stop-color:#B6B8FC"/>
					<stop  offset="0.3956" style="stop-color:#A4A8F5"/>
					<stop  offset="0.6625" style="stop-color:#868DEA"/>
					<stop  offset="0.9554" style="stop-color:#5E67DA"/>
					<stop  offset="1" style="stop-color:#5761D7"/>
				</linearGradient>
				<path class="st62" d="M254.3,73.4l-70.1-40.6c-1.1-0.6-2.1-0.7-2.9-0.2l0,0l-4.2,2.4l2.7,2v2.2l-1.6,0.7l0.1,83.4l4.6,4.5
					l15.8,9.1l50.2,28.4c0,0,1.8,0,2.1,0c0.1,0,0.2-0.2,0.3-0.6l2.1,1.2l-0.7,3.2l4.3-2.5l0,0c0.9-0.5,1.5-1.8,1.5-3.6V81.8
					C258.7,78.6,256.7,74.8,254.3,73.4z M252.4,160.7l-67.6-39.1c-0.6-0.3-1-1.2-1-1.9V39.4l14,9l52.4,31.3l1.5,2.3l0.8,36.3
					L252.4,160.7z"/>
				<path class="st91" d="M257.3,76.7l-6.6,3.8l1,1.5l0.8,36.3l-0.1,42.3l-1.2-0.7c0,1.3,1.7,7.8,1.7,9.1l3.5-2l0.8-0.5l0,0
					c0.9-0.5,1.5-1.8,1.5-3.6V81.8C258.7,80.1,258.1,78.3,257.3,76.7z"/>
				<linearGradient id="SVGID_18_" gradientUnits="userSpaceOnUse" x1="175.4192" y1="102.1517" x2="254.2543" y2="102.1517">
					<stop  offset="0" style="stop-color:#BCBEFF"/>
					<stop  offset="0.1659" style="stop-color:#B6B8FC"/>
					<stop  offset="0.3956" style="stop-color:#A4A8F5"/>
					<stop  offset="0.6625" style="stop-color:#868DEA"/>
					<stop  offset="0.9554" style="stop-color:#5E67DA"/>
					<stop  offset="1" style="stop-color:#5761D7"/>
				</linearGradient>
				<path class="st63" d="M249.9,76l-70.1-40.6c-2.4-1.4-4.4,0.1-4.4,3.3V120c0,3.2,2,7,4.4,8.4l70.1,40.6c2.4,1.4,4.4-0.1,4.4-3.3
					V84.3C254.3,81.1,252.3,77.4,249.9,76z M250.3,163.2c0,0.7-0.4,1.1-1,0.8l-68.8-39.8c-0.6-0.3-1-1.2-1-1.9v-81
					c0-0.7,0.4-1.1,1-0.8l68.8,39.8c0.6,0.3,1,1.2,1,1.9V163.2z"/>
				<linearGradient id="SVGID_19_" gradientUnits="userSpaceOnUse" x1="164.5308" y1="102.1517" x2="306.7619" y2="102.1517">
					<stop  offset="0" style="stop-color:#706EC4"/>
					<stop  offset="2.222079e-02" style="stop-color:#6D6BC2"/>
					<stop  offset="0.2509" style="stop-color:#5651AC"/>
					<stop  offset="0.4865" style="stop-color:#463F9D"/>
					<stop  offset="0.7314" style="stop-color:#3C3494"/>
					<stop  offset="1" style="stop-color:#393091"/>
				</linearGradient>
				<path class="st64" d="M249.9,76l-70.1-40.6c-2.4-1.4-4.4,0.1-4.4,3.3V120c0,3.2,2,7,4.4,8.4l70.1,40.6c2.4,1.4,4.4-0.1,4.4-3.3
					V84.3C254.3,81.1,252.3,77.4,249.9,76z M250.3,163.2c0,0.7-0.4,1.1-1,0.8l-68.8-39.8c-0.6-0.3-1-1.2-1-1.9v-81
					c0-0.7,0.4-1.1,1-0.8l68.8,39.8c0.6,0.3,1,1.2,1,1.9V163.2z"/>
				<path class="st94" d="M184.8,121.5c-0.6-0.3-1-1.2-1-1.9V42.3l-3.4-2c-0.6-0.3-1,0-1,0.8v81c0,0.7,0.4,1.6,1,1.9l68.8,39.8
					c0.6,0.3,1,0,1-0.8v-3.8L184.8,121.5z"/>
				<path class="st95" d="M250.3,163.2c0,0.7-0.4,1.1-1,0.8l-68.8-39.8c-0.6-0.3-1-1.2-1-1.9v-81c0-0.7,0.4-1.1,1-0.8l68.8,39.8
					c0.6,0.3,1,1.2,1,1.9V163.2z"/>
			</g>
			<g class="st41">
				
					<linearGradient id="SVGID_20_" gradientUnits="userSpaceOnUse" x1="-957.2083" y1="100.6996" x2="-891.0552" y2="100.6996" gradientTransform="matrix(-1 0 0 1 -799.5175 0)">
					<stop  offset="0" style="stop-color:#BCBEFF"/>
					<stop  offset="0.1659" style="stop-color:#B6B8FC"/>
					<stop  offset="0.3956" style="stop-color:#A4A8F5"/>
					<stop  offset="0.6625" style="stop-color:#868DEA"/>
					<stop  offset="0.9554" style="stop-color:#5E67DA"/>
					<stop  offset="1" style="stop-color:#5761D7"/>
				</linearGradient>
				<path style="fill:url(#SVGID_20_);" d="M92.2,81.8V163c0,1.8,0.6,3,1.5,3.6l0,0l4.3,2.5l-0.7-3.2l2.1-1.2
					c0.1,0.3,0.2,0.6,0.3,0.6c0.2,0,2.1,0,2.1,0l50.2-28.4l15.8-9.1l4.6-4.5l0.1-83.4l-1.6-0.7v-2.2l2.7-2l-4.2-2.4l0,0
					c-0.8-0.5-1.8-0.4-2.9,0.2L96.6,73.4C94.1,74.8,92.2,78.6,92.2,81.8z M98.3,118.3L99.2,82l1.5-2.3L153,48.4l14-9v80.2
					c0,0.7-0.4,1.6-1,1.9l-67.6,39.1L98.3,118.3z"/>
				<path class="st91" d="M93.6,76.7l6.6,3.8l-1,1.5l-0.8,36.3l0.1,42.3l1.2-0.7c0,1.3-1.7,7.8-1.7,9.1l-3.5-2l-0.8-0.5l0,0
					c-0.9-0.5-1.5-1.8-1.5-3.6V81.8C92.2,80.1,92.7,78.3,93.6,76.7z"/>
				
					<linearGradient id="SVGID_21_" gradientUnits="userSpaceOnUse" x1="-974.9367" y1="102.1517" x2="-896.1016" y2="102.1517" gradientTransform="matrix(-1 0 0 1 -799.5175 0)">
					<stop  offset="0" style="stop-color:#BCBEFF"/>
					<stop  offset="0.1659" style="stop-color:#B6B8FC"/>
					<stop  offset="0.3956" style="stop-color:#A4A8F5"/>
					<stop  offset="0.6625" style="stop-color:#868DEA"/>
					<stop  offset="0.9554" style="stop-color:#5E67DA"/>
					<stop  offset="1" style="stop-color:#5761D7"/>
				</linearGradient>
				<path class="st66" d="M96.6,84.3v81.3c0,3.2,2,4.7,4.4,3.3l70.1-40.6c2.4-1.4,4.4-5.1,4.4-8.4V38.7c0-3.2-2-4.7-4.4-3.3L101,76
					C98.5,77.4,96.6,81.1,96.6,84.3z M100.6,82.1c0-0.7,0.4-1.6,1-1.9l68.8-39.8c0.6-0.3,1,0,1,0.8v81c0,0.7-0.4,1.6-1,1.9
					l-68.8,39.8c-0.6,0.3-1,0-1-0.8V82.1z"/>
				
					<linearGradient id="SVGID_22_" gradientUnits="userSpaceOnUse" x1="-985.8251" y1="102.1517" x2="-843.5939" y2="102.1517" gradientTransform="matrix(-1 0 0 1 -799.5175 0)">
					<stop  offset="0" style="stop-color:#706EC4"/>
					<stop  offset="2.222079e-02" style="stop-color:#6D6BC2"/>
					<stop  offset="0.2509" style="stop-color:#5651AC"/>
					<stop  offset="0.4865" style="stop-color:#463F9D"/>
					<stop  offset="0.7314" style="stop-color:#3C3494"/>
					<stop  offset="1" style="stop-color:#393091"/>
				</linearGradient>
				<path style="fill:url(#SVGID_22_);" d="M96.6,84.3v81.3c0,3.2,2,4.7,4.4,3.3l70.1-40.6c2.4-1.4,4.4-5.1,4.4-8.4V38.7
					c0-3.2-2-4.7-4.4-3.3L101,76C98.5,77.4,96.6,81.1,96.6,84.3z M100.6,82.1c0-0.7,0.4-1.6,1-1.9l68.8-39.8c0.6-0.3,1,0,1,0.8v81
					c0,0.7-0.4,1.6-1,1.9l-68.8,39.8c-0.6,0.3-1,0-1-0.8V82.1z"/>
				<path class="st94" d="M166,121.5c0.6-0.3,1-1.2,1-1.9V42.3l3.4-2c0.6-0.3,1,0,1,0.8v81c0,0.7-0.4,1.6-1,1.9l-68.8,39.8
					c-0.6,0.3-1,0-1-0.8v-3.8L166,121.5z"/>
				<path class="st95" d="M100.6,163.2c0,0.7,0.4,1.1,1,0.8l68.8-39.8c0.6-0.3,1-1.2,1-1.9v-81c0-0.7-0.4-1.1-1-0.8l-68.8,39.8
					c-0.6,0.3-1,1.2-1,1.9V163.2z"/>
			</g>
			<g>
				<g>
					<polygon class="st52" points="175.4,128 156.2,116.9 156.2,139.1 175.4,150.2 194.7,139.1 194.7,116.9 					"/>
					<polygon class="st52" points="175.4,150.2 156.2,139.1 156.2,116.9 175.4,128 					"/>
					<polygon class="st99" points="194.7,139.1 175.4,150.2 175.4,128 194.7,116.9 					"/>
					<polygon class="st52" points="175.4,128 156.2,116.9 175.4,105.8 194.7,116.9 					"/>
					<polygon class="st100" points="175.4,128 157,117.4 156.2,117.9 175.4,129 194.7,117.9 193.8,117.4 					"/>
				</g>
				<g>
					<polygon class="st52" points="200.4,142.3 181.2,131.2 181.2,153.4 200.4,164.5 219.6,153.4 219.6,131.2 					"/>
					<polygon class="st52" points="200.4,164.5 181.2,153.4 181.2,131.2 200.4,142.3 					"/>
					<polygon class="st99" points="219.6,153.4 200.4,164.5 200.4,142.3 219.6,131.2 					"/>
					<polygon class="st52" points="200.4,142.3 181.2,131.2 200.4,120.1 219.6,131.2 					"/>
					<polygon class="st100" points="200.4,142.3 182,131.7 181.2,132.1 200.4,143.3 219.6,132.1 218.8,131.7 					"/>
				</g>
				<g>
					<polygon class="st52" points="225.4,156.5 206.2,145.4 206.2,167.6 225.4,178.8 244.6,167.6 244.6,145.4 					"/>
					<polygon class="st52" points="225.4,178.8 206.2,167.6 206.2,145.4 225.4,156.5 					"/>
					<polygon class="st99" points="244.6,167.6 225.4,178.8 225.4,156.5 244.6,145.4 					"/>
					<polygon class="st52" points="225.4,156.5 206.2,145.4 225.4,134.3 244.6,145.4 					"/>
					<polygon class="st100" points="225.4,156.5 207,145.9 206.2,146.4 225.4,157.5 244.6,146.4 244.6,145.4 					"/>
				</g>
				<g>
					<polygon class="st52" points="150.4,143.3 131.2,132.1 131.2,154.4 150.4,165.5 169.7,154.4 169.7,132.1 					"/>
					<polygon class="st52" points="150.4,165.5 131.2,154.4 131.2,132.1 150.4,143.3 					"/>
					<polygon class="st99" points="169.7,154.4 150.4,165.5 150.4,143.3 169.7,132.1 					"/>
					<polygon class="st52" points="150.4,143.3 131.2,132.1 150.4,121 169.7,132.1 					"/>
					<polygon class="st100" points="150.4,143.3 132,132.6 131.2,133.1 150.4,144.2 169.7,133.1 168.8,132.6 					"/>
				</g>
				<g>
					<polygon class="st52" points="175.4,157.5 156.2,146.4 156.2,168.6 175.4,179.7 194.7,168.6 194.7,146.4 					"/>
					<polygon class="st52" points="175.4,179.7 156.2,168.6 156.2,146.4 175.4,157.5 					"/>
					<polygon class="st99" points="194.7,168.6 175.4,179.7 175.4,157.5 194.7,146.4 					"/>
					<polygon class="st52" points="175.4,157.5 156.2,146.4 175.4,135.3 194.7,146.4 					"/>
					<polygon class="st100" points="175.4,157.5 157,146.9 156.2,147.4 175.4,158.5 194.7,147.4 193.8,146.9 					"/>
				</g>
				<g>
					<polygon class="st52" points="200.4,171.8 181.2,160.7 181.2,182.9 200.4,194 219.6,182.9 219.6,160.7 					"/>
					<polygon class="st52" points="200.4,194 181.2,182.9 181.2,160.7 200.4,171.8 					"/>
					<polygon class="st99" points="219.6,182.9 200.4,194 200.4,171.8 219.6,160.7 					"/>
					<polygon class="st52" points="200.4,171.8 181.2,160.7 200.4,149.6 219.6,160.7 					"/>
					<polygon class="st100" points="200.4,171.8 182,161.1 181.2,161.6 200.4,172.7 219.6,161.6 219.6,160.7 					"/>
				</g>
				<g>
					<polygon class="st52" points="125.5,158.5 106.2,147.4 106.2,169.6 125.5,180.7 144.7,169.6 144.7,147.4 					"/>
					<polygon class="st52" points="125.5,180.7 106.2,169.6 106.2,147.4 125.5,158.5 					"/>
					<polygon class="st99" points="144.7,169.6 125.5,180.7 125.5,158.5 144.7,147.4 					"/>
					<polygon class="st52" points="125.5,158.5 106.2,147.4 125.5,136.3 144.7,147.4 					"/>
					<polygon class="st100" points="125.5,158.5 106.2,147.4 106.2,148.3 125.5,159.4 144.7,148.3 143.9,147.8 					"/>
				</g>
				<g>
					<polygon class="st52" points="150.4,172.7 131.2,161.6 131.2,183.8 150.4,194.9 169.7,183.8 169.7,161.6 					"/>
					<polygon class="st52" points="150.4,194.9 131.2,183.8 131.2,161.6 150.4,172.7 					"/>
					<polygon class="st99" points="169.7,183.8 150.4,194.9 150.4,172.7 169.7,161.6 					"/>
					<polygon class="st52" points="150.4,172.7 131.2,161.6 150.4,150.5 169.7,161.6 					"/>
					<polygon class="st100" points="150.4,172.7 131.2,161.6 131.2,162.6 150.4,173.7 169.7,162.6 168.8,162.1 					"/>
				</g>
				<g>
					<polygon class="st52" points="175.4,187 156.2,175.9 156.2,198.1 175.4,209.2 194.7,198.1 194.7,175.9 					"/>
					<polygon class="st52" points="175.4,209.2 156.2,198.1 156.2,175.9 175.4,187 					"/>
					<polygon class="st99" points="194.7,198.1 175.4,209.2 175.4,187 194.7,175.9 					"/>
					<polygon class="st52" points="175.4,187 156.2,175.9 175.4,164.8 194.7,175.9 					"/>
					<polygon class="st100" points="175.4,187 156.2,175.9 156.2,176.8 175.4,187.9 194.7,176.8 194.7,175.9 					"/>
				</g>
				<g>
					<polygon class="st52" points="175.4,98.6 156.2,87.5 156.2,109.7 175.4,120.8 194.7,109.7 194.7,87.5 					"/>
					<polygon class="st52" points="175.4,120.8 156.2,109.7 156.2,87.5 175.4,98.6 					"/>
					<polygon class="st99" points="194.7,109.7 175.4,120.8 175.4,98.6 194.7,87.5 					"/>
					<polygon class="st52" points="175.4,98.6 156.2,87.5 175.4,76.4 194.7,87.5 					"/>
					<polygon class="st100" points="175.4,98.6 157,87.9 156.2,88.4 175.4,99.5 194.7,88.4 193.8,87.9 					"/>
				</g>
				<g>
					<polygon class="st101" points="175.4,183.4 162.3,175.8 175.4,168.2 188.5,175.8 					"/>
					<polygon class="st101" points="150.4,169.1 137.3,161.5 150.4,154 163.6,161.5 					"/>
					<polygon class="st101" points="200.4,168.1 187.3,160.6 200.4,153 213.5,160.6 					"/>
					<polygon class="st101" points="225.4,153.1 212.3,145.5 225.4,137.9 238.6,145.5 					"/>
					<polygon class="st101" points="125.5,154.9 112.3,147.3 125.5,139.7 138.6,147.3 					"/>
				</g>
				<g>
					<polygon class="st52" points="200.4,112.8 181.2,101.7 181.2,123.9 200.4,135 219.6,123.9 219.6,101.7 					"/>
					<polygon class="st52" points="200.4,135 181.2,123.9 181.2,101.7 200.4,112.8 					"/>
					<polygon class="st99" points="219.6,123.9 200.4,135 200.4,112.8 219.6,101.7 					"/>
					<polygon class="st52" points="200.4,112.8 181.2,101.7 200.4,90.6 219.6,101.7 					"/>
					<polygon class="st100" points="200.4,112.8 182,102.2 181.2,102.7 200.4,113.8 219.6,102.7 218.8,102.2 					"/>
				</g>
				<g>
					<polygon class="st52" points="225.4,127.1 206.2,116 206.2,138.2 225.4,149.3 244.6,138.2 244.6,116 					"/>
					<polygon class="st52" points="225.4,149.3 206.2,138.2 206.2,116 225.4,127.1 					"/>
					<polygon class="st99" points="244.6,138.2 225.4,149.3 225.4,127.1 244.6,116 					"/>
					<polygon class="st52" points="225.4,127.1 206.2,116 225.4,104.9 244.6,116 					"/>
					<polygon class="st100" points="225.4,127.1 207,116.4 206.2,116.9 225.4,128 244.6,116.9 244.6,116 					"/>
				</g>
				<g>
					<polygon class="st52" points="150.4,113.8 131.2,102.7 131.2,124.9 150.4,136 169.7,124.9 169.7,102.7 					"/>
					<polygon class="st52" points="150.4,136 131.2,124.9 131.2,102.7 150.4,113.8 					"/>
					<polygon class="st99" points="169.7,124.9 150.4,136 150.4,113.8 169.7,102.7 					"/>
					<polygon class="st52" points="150.4,113.8 131.2,102.7 150.4,91.6 169.7,102.7 					"/>
					<polygon class="st100" points="150.4,113.8 132,103.2 131.2,103.6 150.4,114.7 169.7,103.6 168.8,103.2 					"/>
				</g>
				<g>
					<polygon class="st52" points="175.4,128 156.2,116.9 156.2,139.1 175.4,150.2 194.7,139.1 194.7,116.9 					"/>
					<polygon class="st52" points="175.4,150.2 156.2,139.1 156.2,116.9 175.4,128 					"/>
					<polygon class="st99" points="194.7,139.1 175.4,150.2 175.4,128 194.7,116.9 					"/>
					<polygon class="st52" points="175.4,128 156.2,116.9 175.4,105.8 194.7,116.9 					"/>
					<polygon class="st100" points="175.4,128 157,117.4 156.2,117.9 175.4,129 194.7,117.9 193.8,117.4 					"/>
				</g>
				<g>
					<polygon class="st52" points="200.4,142.3 181.2,131.2 181.2,153.4 200.4,164.5 219.6,153.4 219.6,131.2 					"/>
					<polygon class="st52" points="200.4,164.5 181.2,153.4 181.2,131.2 200.4,142.3 					"/>
					<polygon class="st99" points="219.6,153.4 200.4,164.5 200.4,142.3 219.6,131.2 					"/>
					<polygon class="st52" points="200.4,142.3 181.2,131.2 200.4,120.1 219.6,131.2 					"/>
					<polygon class="st100" points="200.4,142.3 182,131.7 181.2,132.1 200.4,143.3 219.6,132.1 219.6,131.2 					"/>
				</g>
				<g>
					<polygon class="st52" points="125.5,129 106.2,117.9 106.2,140.1 125.5,151.2 144.7,140.1 144.7,117.9 					"/>
					<polygon class="st52" points="125.5,151.2 106.2,140.1 106.2,117.9 125.5,129 					"/>
					<polygon class="st99" points="144.7,140.1 125.5,151.2 125.5,129 144.7,117.9 					"/>
					<polygon class="st52" points="125.5,129 106.2,117.9 125.5,106.8 144.7,117.9 					"/>
					<polygon class="st100" points="125.5,129 107.1,118.4 106.2,118.9 125.5,130 144.7,118.9 143.9,118.4 					"/>
				</g>
				<g>
					<polygon class="st52" points="150.4,143.3 131.2,132.1 131.2,154.4 150.4,165.5 169.7,154.4 169.7,132.1 					"/>
					<polygon class="st52" points="150.4,165.5 131.2,154.4 131.2,132.1 150.4,143.3 					"/>
					<polygon class="st99" points="169.7,154.4 150.4,165.5 150.4,143.3 169.7,132.1 					"/>
					<polygon class="st52" points="150.4,143.3 131.2,132.1 150.4,121 169.7,132.1 					"/>
					<polygon class="st100" points="150.4,143.3 131.2,132.1 131.2,133.1 150.4,144.2 169.7,133.1 168.8,132.6 					"/>
				</g>
				<g>
					<polygon class="st52" points="175.4,157.5 156.2,146.4 156.2,168.6 175.4,179.7 194.7,168.6 194.7,146.4 					"/>
					<polygon class="st52" points="175.4,179.7 156.2,168.6 156.2,146.4 175.4,157.5 					"/>
					<polygon class="st99" points="194.7,168.6 175.4,179.7 175.4,157.5 194.7,146.4 					"/>
					<polygon class="st52" points="175.4,157.5 156.2,146.4 175.4,135.3 194.7,146.4 					"/>
					<polygon class="st100" points="175.4,157.5 156.2,146.4 156.2,147.4 175.4,158.5 194.7,147.4 194.7,146.4 					"/>
				</g>
				<g>
					<polygon class="st101" points="225.4,123.8 212.3,116.2 225.4,108.6 238.6,116.2 					"/>
					<polygon class="st101" points="125.5,125.5 112.3,117.9 125.5,110.4 138.6,117.9 					"/>
				</g>
				<g>
					<polygon class="st52" points="175.4,69.1 156.2,58 156.2,80.2 175.4,91.3 194.7,80.2 194.7,58 					"/>
					<polygon class="st52" points="175.4,91.3 156.2,80.2 156.2,58 175.4,69.1 					"/>
					<polygon class="st99" points="194.7,80.2 175.4,91.3 175.4,69.1 194.7,58 					"/>
					<polygon class="st52" points="175.4,69.1 156.2,58 175.4,46.9 194.7,58 					"/>
					<polygon class="st100" points="175.4,69.1 156.2,58 156.2,58.9 175.4,70 194.7,58.9 194.7,58 					"/>
				</g>
				<g>
					<polygon class="st52" points="200.4,83.3 181.2,72.2 181.2,94.4 200.4,105.5 219.6,94.4 219.6,72.2 					"/>
					<polygon class="st52" points="200.4,105.5 181.2,94.4 181.2,72.2 200.4,83.3 					"/>
					<polygon class="st99" points="219.6,94.4 200.4,105.5 200.4,83.3 219.6,72.2 					"/>
					<polygon class="st52" points="200.4,83.3 181.2,72.2 200.4,61.1 219.6,72.2 					"/>
					<polygon class="st100" points="200.4,83.3 181.2,72.2 181.2,73.2 200.4,84.3 219.6,73.2 219.6,72.2 					"/>
				</g>
				<g>
					<polygon class="st52" points="225.4,97.6 206.2,86.5 206.2,108.7 225.4,119.8 244.6,108.7 244.6,86.5 					"/>
					<polygon class="st52" points="225.4,119.8 206.2,108.7 206.2,86.5 225.4,97.6 					"/>
					<polygon class="st99" points="244.6,108.7 225.4,119.8 225.4,97.6 244.6,86.5 					"/>
					<polygon class="st52" points="225.4,97.6 206.2,86.5 225.4,75.4 244.6,86.5 					"/>
					<polygon class="st100" points="225.4,97.6 206.2,86.5 206.2,87.5 225.4,98.6 244.6,87.5 244.6,86.5 					"/>
				</g>
				<g>
					<polygon class="st52" points="150.4,84.3 131.2,73.2 131.2,95.4 150.4,106.5 169.7,95.4 169.7,73.2 					"/>
					<polygon class="st52" points="150.4,106.5 131.2,95.4 131.2,73.2 150.4,84.3 					"/>
					<polygon class="st99" points="169.7,95.4 150.4,106.5 150.4,84.3 169.7,73.2 					"/>
					<polygon class="st52" points="150.4,84.3 131.2,73.2 150.4,62.1 169.7,73.2 					"/>
					<polygon class="st100" points="150.4,84.3 131.2,73.2 131.2,74.2 150.4,85.3 169.7,74.2 169.7,73.2 					"/>
				</g>
				<g>
					<polygon class="st52" points="125.5,99.5 106.2,88.4 106.2,110.6 125.5,121.7 144.7,110.6 144.7,88.4 					"/>
					<polygon class="st52" points="125.5,121.7 106.2,110.6 106.2,88.4 125.5,99.5 					"/>
					<polygon class="st99" points="144.7,110.6 125.5,121.7 125.5,99.5 144.7,88.4 					"/>
					<polygon class="st52" points="125.5,99.5 106.2,88.4 125.5,77.3 144.7,88.4 					"/>
					<polygon class="st100" points="125.5,99.5 106.2,88.4 106.2,89.4 125.5,100.5 144.7,89.4 144.7,88.4 					"/>
				</g>
				<polygon class="st101" points="175.4,154.2 162.3,146.7 175.4,139.1 188.5,146.7 				"/>
				<polygon class="st101" points="150.4,140 137.3,132.4 150.4,124.8 163.6,132.4 				"/>
				<polygon class="st101" points="200.4,139 187.3,131.4 200.4,123.9 213.5,131.4 				"/>
				<g>
					<polygon class="st52" points="175.4,98.9 156.2,87.8 156.2,110 175.4,121.1 194.7,110 194.7,87.8 					"/>
					<polygon class="st52" points="175.4,121.1 156.2,110 156.2,87.8 175.4,98.9 					"/>
					<polygon class="st99" points="194.7,110 175.4,121.1 175.4,98.9 194.7,87.8 					"/>
					<polygon class="st52" points="175.4,98.9 156.2,87.8 175.4,76.7 194.7,87.8 					"/>
					<polygon class="st100" points="175.4,98.9 157,88.3 156.2,88.8 175.4,99.9 194.7,88.8 193.8,88.3 					"/>
				</g>
				<g>
					<polygon class="st52" points="200.4,113.2 181.2,102.1 181.2,124.3 200.4,135.4 219.6,124.3 219.6,102.1 					"/>
					<polygon class="st52" points="200.4,135.4 181.2,124.3 181.2,102.1 200.4,113.2 					"/>
					<polygon class="st99" points="219.6,124.3 200.4,135.4 200.4,113.2 219.6,102.1 					"/>
					<polygon class="st52" points="200.4,113.2 181.2,102.1 200.4,91 219.6,102.1 					"/>
					<polygon class="st100" points="200.4,113.2 182,102.5 181.2,103 200.4,114.1 219.6,103 219.6,102.1 					"/>
				</g>
				<g>
					<polygon class="st52" points="150.4,114.1 131.2,103 131.2,125.2 150.4,136.3 169.7,125.2 169.7,103 					"/>
					<polygon class="st52" points="150.4,136.3 131.2,125.2 131.2,103 150.4,114.1 					"/>
					<polygon class="st99" points="169.7,125.2 150.4,136.3 150.4,114.1 169.7,103 					"/>
					<polygon class="st52" points="150.4,114.1 131.2,103 150.4,91.9 169.7,103 					"/>
					<polygon class="st100" points="150.4,114.1 131.2,103 131.2,104 150.4,115.1 169.7,104 168.8,103.5 					"/>
				</g>
				<g>
					<polygon class="st52" points="175.4,128.4 156.2,117.3 156.2,139.5 175.4,150.6 194.7,139.5 194.7,117.3 					"/>
					<polygon class="st52" points="175.4,150.6 156.2,139.5 156.2,117.3 175.4,128.4 					"/>
					<polygon class="st99" points="194.7,139.5 175.4,150.6 175.4,128.4 194.7,117.3 					"/>
					<polygon class="st52" points="175.4,128.4 156.2,117.3 175.4,106.2 194.7,117.3 					"/>
					<polygon class="st100" points="175.4,128.4 156.2,117.3 156.2,118.2 175.4,129.4 194.7,118.2 194.7,117.3 					"/>
				</g>
			</g>
			<g>
				<g>
					<linearGradient id="SVGID_23_" gradientUnits="userSpaceOnUse" x1="109.0611" y1="145.8882" x2="175.2143" y2="145.8882">
						<stop  offset="0" style="stop-color:#BCBEFF"/>
						<stop  offset="0.1659" style="stop-color:#B6B8FC"/>
						<stop  offset="0.3956" style="stop-color:#A4A8F5"/>
						<stop  offset="0.6625" style="stop-color:#868DEA"/>
						<stop  offset="0.9554" style="stop-color:#5E67DA"/>
						<stop  offset="1" style="stop-color:#5761D7"/>
					</linearGradient>
					<path style="fill:url(#SVGID_23_);" d="M170.2,118.6L100.1,78c-1.1-0.6-2.1-0.7-2.9-0.2l0,0L93,80.3l2.7,2v2.2l-1.6,0.7
						l0.1,83.4l4.6,4.5l15.8,9.1l50.2,28.4c0,0,1.8,0,2.1,0c0.1,0,0.2-0.2,0.3-0.6l2.1,1.2l-0.7,3.2l4.3-2.5l0,0
						c0.9-0.5,1.5-1.8,1.5-3.6V127C174.6,123.7,172.6,120,170.2,118.6z M168.3,205.8l-67.6-39.1c-0.6-0.3-1-1.2-1-1.9V84.6l14,9
						l52.4,31.3l1.5,2.3l0.8,36.3L168.3,205.8z"/>
					<path class="st91" d="M173.2,121.9l-6.6,3.8l1,1.5l0.8,36.3l-0.1,42.3l-1.2-0.7c0,1.3,1.7,7.8,1.7,9.1l3.5-2l0.8-0.5l0,0
						c0.9-0.5,1.5-1.8,1.5-3.6V127C174.6,125.3,174,123.5,173.2,121.9z"/>
					<linearGradient id="SVGID_24_" gradientUnits="userSpaceOnUse" x1="91.3328" y1="147.3403" x2="170.1679" y2="147.3403">
						<stop  offset="0" style="stop-color:#BCBEFF"/>
						<stop  offset="0.1659" style="stop-color:#B6B8FC"/>
						<stop  offset="0.3956" style="stop-color:#A4A8F5"/>
						<stop  offset="0.6625" style="stop-color:#868DEA"/>
						<stop  offset="0.9554" style="stop-color:#5E67DA"/>
						<stop  offset="1" style="stop-color:#5761D7"/>
					</linearGradient>
					<path class="st69" d="M165.8,121.1L95.7,80.6c-2.4-1.4-4.4,0.1-4.4,3.3v81.3c0,3.2,2,7,4.4,8.4l70.1,40.6
						c2.4,1.4,4.4-0.1,4.4-3.3v-81.3C170.2,126.3,168.2,122.5,165.8,121.1z M166.2,208.4c0,0.7-0.4,1.1-1,0.8l-68.8-39.8
						c-0.6-0.3-1-1.2-1-1.9v-81c0-0.7,0.4-1.1,1-0.8l68.8,39.8c0.6,0.3,1,1.2,1,1.9V208.4z"/>
					<linearGradient id="SVGID_25_" gradientUnits="userSpaceOnUse" x1="80.4444" y1="147.3403" x2="222.6756" y2="147.3403">
						<stop  offset="0" style="stop-color:#706EC4"/>
						<stop  offset="2.222079e-02" style="stop-color:#6D6BC2"/>
						<stop  offset="0.2509" style="stop-color:#5651AC"/>
						<stop  offset="0.4865" style="stop-color:#463F9D"/>
						<stop  offset="0.7314" style="stop-color:#3C3494"/>
						<stop  offset="1" style="stop-color:#393091"/>
					</linearGradient>
					<path style="fill:url(#SVGID_25_);" d="M165.8,121.1L95.7,80.6c-2.4-1.4-4.4,0.1-4.4,3.3v81.3c0,3.2,2,7,4.4,8.4l70.1,40.6
						c2.4,1.4,4.4-0.1,4.4-3.3v-81.3C170.2,126.3,168.2,122.5,165.8,121.1z M166.2,208.4c0,0.7-0.4,1.1-1,0.8l-68.8-39.8
						c-0.6-0.3-1-1.2-1-1.9v-81c0-0.7,0.4-1.1,1-0.8l68.8,39.8c0.6,0.3,1,1.2,1,1.9V208.4z"/>
					<path class="st94" d="M100.7,166.7c-0.6-0.3-1-1.2-1-1.9V87.5l-3.4-2c-0.6-0.3-1,0-1,0.8v81c0,0.7,0.4,1.6,1,1.9l68.8,39.8
						c0.6,0.3,1,0,1-0.8v-3.8L100.7,166.7z"/>
					<path class="st105" d="M166.2,208.4c0,0.7-0.4,1.1-1,0.8l-68.8-39.8c-0.6-0.3-1-1.2-1-1.9v-81c0-0.7,0.4-1.1,1-0.8l68.8,39.8
						c0.6,0.3,1,1.2,1,1.9V208.4z"/>
				</g>
				<g>
					<linearGradient id="SVGID_26_" gradientUnits="userSpaceOnUse" x1="280.1659" y1="174.6813" x2="227.3657" y2="151.0562">
						<stop  offset="0" style="stop-color:#BCBEFF"/>
						<stop  offset="0.1659" style="stop-color:#B6B8FC"/>
						<stop  offset="0.3956" style="stop-color:#A4A8F5"/>
						<stop  offset="0.6625" style="stop-color:#868DEA"/>
						<stop  offset="0.9554" style="stop-color:#5E67DA"/>
						<stop  offset="1" style="stop-color:#5761D7"/>
					</linearGradient>
					<path class="st71" d="M174.6,127v81.3c0,1.8,0.6,3,1.5,3.6l0,0l4.3,2.5l-0.7-3.2l2.1-1.2c0.1,0.3,0.2,0.6,0.3,0.6
						c0.2,0,2.1,0,2.1,0l50.2-28.4l15.8-9.1l4.6-4.5l0.1-83.4l-1.6-0.7v-2.2l2.7-2l-4.2-2.4l0,0c-0.8-0.5-1.8-0.4-2.9,0.2
						l-70.1,40.6C176.5,120,174.6,123.7,174.6,127z M180.7,163.5l0.8-36.3l1.5-2.3l52.4-31.3l14-9v80.2c0,0.7-0.4,1.6-1,1.9
						l-67.6,39.1L180.7,163.5z"/>
					<path class="st91" d="M174.6,127v81.3c0,1.8,0.6,3,1.5,3.6l0,0l4.3,2.5l-0.7-3.2l2.1-1.2c0.1,0.3,0.2,0.6,0.3,0.6
						c0.2,0,2.1,0,2.1,0l50.2-28.4l15.8-9.1l4.6-4.5l0.1-83.4l-1.6-0.7v-2.2l2.7-2l-4.2-2.4l0,0c-0.8-0.5-1.8-0.4-2.9,0.2
						l-70.1,40.6C176.5,120,174.6,123.7,174.6,127z M180.7,163.5l0.8-36.3l1.5-2.3l52.4-31.3l14-9v80.2c0,0.7-0.4,1.6-1,1.9
						l-67.6,39.1L180.7,163.5z"/>
					
						<linearGradient id="SVGID_27_" gradientUnits="userSpaceOnUse" x1="-468.4563" y1="160.0076" x2="-722.3029" y2="143.5916" gradientTransform="matrix(-1 0 0 1 -445.9411 0)">
						<stop  offset="0" style="stop-color:#BCBEFF"/>
						<stop  offset="0.1659" style="stop-color:#B6B8FC"/>
						<stop  offset="0.3956" style="stop-color:#A4A8F5"/>
						<stop  offset="0.6625" style="stop-color:#868DEA"/>
						<stop  offset="0.9554" style="stop-color:#5E67DA"/>
						<stop  offset="1" style="stop-color:#5761D7"/>
					</linearGradient>
					<path style="fill:url(#SVGID_27_);" d="M179,129.5v81.3c0,3.2,2,4.7,4.4,3.3l70.1-40.6c2.4-1.4,4.4-5.1,4.4-8.4V83.9
						c0-3.2-2-4.7-4.4-3.3l-70.1,40.6C180.9,122.5,179,126.3,179,129.5z M183,127.3c0-0.7,0.4-1.6,1-1.9l68.8-39.8
						c0.6-0.3,1,0,1,0.8v81c0,0.7-0.4,1.6-1,1.9L184,209.1c-0.6,0.3-1,0-1-0.8V127.3z"/>
					<path class="st108" d="M179,129.5v81.3c0,3.2,2,4.7,4.4,3.3l70.1-40.6c2.4-1.4,4.4-5.1,4.4-8.4V83.9c0-3.2-2-4.7-4.4-3.3
						l-70.1,40.6C180.9,122.5,179,126.3,179,129.5z M183,127.3c0-0.7,0.4-1.6,1-1.9l68.8-39.8c0.6-0.3,1,0,1,0.8v81
						c0,0.7-0.4,1.6-1,1.9L184,209.1c-0.6,0.3-1,0-1-0.8V127.3z"/>
					<g>
						<path class="st100" d="M95.4,85.8c-0.4-0.1-0.7,0.3-0.7,0.9v81c0,0.7,0.4,1.6,1,1.9l68.8,39.8c0.4,0.2,0.7,0.1,0.9-0.2
							c-0.1,0-0.2,0-0.3-0.1l-68.8-39.8c-0.6-0.3-1-1.2-1-1.9v-81C95.3,86.1,95.4,85.9,95.4,85.8z"/>
						<path class="st100" d="M165.8,121.1L95.7,80.6c-1.2-0.7-2.3-0.7-3.1-0.1c0.7-0.3,1.6-0.1,2.5,0.4l70.1,40.6
							c2.4,1.4,4.4,5.1,4.4,8.4v81.3c0,1.6-0.5,2.8-1.3,3.4c1.1-0.4,1.9-1.7,1.9-3.7v-81.3C170.2,126.3,168.2,122.5,165.8,121.1z"/>
					</g>
					<g>
						<path class="st52" d="M253.7,85.8c0.4-0.1,0.7,0.3,0.7,0.9v81c0,0.7-0.4,1.6-1,1.9l-68.8,39.8c-0.4,0.2-0.7,0.1-0.9-0.2
							c0.1,0,0.2,0,0.3-0.1l68.8-39.8c0.6-0.3,1-1.2,1-1.9v-81C253.8,86.1,253.8,85.9,253.7,85.8z"/>
						<path class="st52" d="M183.4,121.1l70.1-40.6c1.2-0.7,2.3-0.7,3.1-0.1c-0.7-0.3-1.6-0.1-2.5,0.4L184,121.5
							c-2.4,1.4-4.4,5.1-4.4,8.4v81.3c0,1.6,0.5,2.8,1.3,3.4c-1.1-0.4-1.9-1.7-1.9-3.7v-81.3C179,126.3,180.9,122.5,183.4,121.1z"/>
					</g>
					<path class="st94" d="M248.4,166.7c0.6-0.3,1-1.2,1-1.9V87.5l3.4-2c0.6-0.3,1,0,1,0.8v81c0,0.7-0.4,1.6-1,1.9L184,209.1
						c-0.6,0.3-1,0-1-0.8v-3.8L248.4,166.7z"/>
					<path class="st60" d="M183,208.4c0,0.7,0.4,1.1,1,0.8l68.8-39.8c0.6-0.3,1-1.2,1-1.9v-81c0-0.7-0.4-1.1-1-0.8L184,125.4
						c-0.6,0.3-1,1.2-1,1.9V208.4z"/>
				</g>
				<g>
					<path class="st52" d="M95.4,85.8c-0.4-0.1-0.7,0.3-0.7,0.9v81c0,0.7,0.4,1.6,1,1.9l68.8,39.8c0.4,0.2,0.7,0.1,0.9-0.2
						c-0.1,0-0.2,0-0.3-0.1l-68.8-39.8c-0.6-0.3-1-1.2-1-1.9v-81C95.3,86.1,95.4,85.9,95.4,85.8z"/>
					<path class="st52" d="M165.8,121.1L95.7,80.6c-1.2-0.7-2.3-0.7-3.1-0.1c0.7-0.3,1.6-0.1,2.5,0.4l70.1,40.6
						c2.4,1.4,4.4,5.1,4.4,8.4v81.3c0,1.6-0.5,2.8-1.3,3.4c1.1-0.4,1.9-1.7,1.9-3.7v-81.3C170.2,126.3,168.2,122.5,165.8,121.1z"/>
				</g>
			</g>
			<g>
				
					<linearGradient id="SVGID_28_" gradientUnits="userSpaceOnUse" x1="931.2451" y1="-909.3658" x2="997.4039" y2="-909.3658" gradientTransform="matrix(0.4991 0.8665 0.8665 -0.4991 486.5147 -1208.799)">
					<stop  offset="0" style="stop-color:#BCBEFF"/>
					<stop  offset="0.1659" style="stop-color:#B6B8FC"/>
					<stop  offset="0.3956" style="stop-color:#A4A8F5"/>
					<stop  offset="0.6625" style="stop-color:#868DEA"/>
					<stop  offset="0.9554" style="stop-color:#5E67DA"/>
					<stop  offset="1" style="stop-color:#5761D7"/>
				</linearGradient>
				<path style="fill:url(#SVGID_28_);" d="M179.6,118.2l70.4-40.6c1.5-0.9,2.3-2,2.3-3.1l0,0l0-4.9l-2.4,2.2l-2.1-1.2
					c0.2-0.3,0.4-0.5,0.3-0.6c-0.1-0.2-1-1.8-1-1.8l-49.7-29.3l-15.8-9.2l-6.2-1.8l-72.3,41.5l0.2,1.7l-1.9,1.1l-3.1-1.4l0,4.9l0,0
					c0,0.9,0.5,1.8,1.6,2.4l70.1,40.5C172.6,120,176.8,119.8,179.6,118.2z M208.2,94.6l-31.9,17.4l-2.7-0.1l-53.3-29.8l-14.8-7.6
					l69.5-40c0.6-0.4,1.6-0.4,2.2-0.1l67.6,39L208.2,94.6z"/>
				<path class="st91" d="M174.6,119.5l0-7.6l1.8,0.1l31.9-17.4l36.6-21.2l-1.2-0.7c1.1-0.7,7.6-2.4,8.7-3.1l0,4l0,0.9l0,0
					c0,1.1-0.8,2.2-2.3,3.1l-70.4,40.6C178.2,119,176.3,119.5,174.6,119.5z"/>
				
					<linearGradient id="SVGID_29_" gradientUnits="userSpaceOnUse" x1="913.5155" y1="-907.9136" x2="992.3574" y2="-907.9136" gradientTransform="matrix(0.4991 0.8665 0.8665 -0.4991 486.5147 -1208.799)">
					<stop  offset="0" style="stop-color:#BCBEFF"/>
					<stop  offset="0.1659" style="stop-color:#B6B8FC"/>
					<stop  offset="0.3956" style="stop-color:#A4A8F5"/>
					<stop  offset="0.6625" style="stop-color:#868DEA"/>
					<stop  offset="0.9554" style="stop-color:#5E67DA"/>
					<stop  offset="1" style="stop-color:#5761D7"/>
				</linearGradient>
				<path class="st74" d="M179.6,113.1l70.4-40.6c2.8-1.6,3.1-4.1,0.7-5.5l-70.1-40.5c-2.4-1.4-6.6-1.2-9.4,0.4l-70.4,40.6
					c-2.8,1.6-3.1,4.1-0.7,5.5l70.1,40.5C172.6,114.9,176.9,114.7,179.6,113.1z M175.7,110.7c-0.6,0.4-1.6,0.4-2.2,0.1l-68.9-39.8
					c-0.6-0.3-0.5-0.9,0.2-1.2l70.2-40.4c0.6-0.4,1.6-0.4,2.2-0.1L246.1,69c0.6,0.3,0.5,0.9-0.2,1.2L175.7,110.7z"/>
				
					<linearGradient id="SVGID_30_" gradientUnits="userSpaceOnUse" x1="902.6262" y1="-907.9136" x2="1044.8695" y2="-907.9136" gradientTransform="matrix(0.4991 0.8665 0.8665 -0.4991 486.5147 -1208.799)">
					<stop  offset="0" style="stop-color:#706EC4"/>
					<stop  offset="2.222079e-02" style="stop-color:#6D6BC2"/>
					<stop  offset="0.2509" style="stop-color:#5651AC"/>
					<stop  offset="0.4865" style="stop-color:#463F9D"/>
					<stop  offset="0.7314" style="stop-color:#3C3494"/>
					<stop  offset="1" style="stop-color:#393091"/>
				</linearGradient>
				<path class="st75" d="M179.6,113.1l70.4-40.6c2.8-1.6,3.1-4.1,0.7-5.5l-70.1-40.5c-2.4-1.4-6.6-1.2-9.4,0.4l-70.4,40.6
					c-2.8,1.6-3.1,4.1-0.7,5.5l70.1,40.5C172.6,114.9,176.9,114.7,179.6,113.1z M175.7,110.7c-0.6,0.4-1.6,0.4-2.2,0.1l-68.9-39.8
					c-0.6-0.3-0.5-0.9,0.2-1.2l70.2-40.4c0.6-0.4,1.6-0.4,2.2-0.1L246.1,69c0.6,0.3,0.5,0.9-0.2,1.2L175.7,110.7z"/>
				<g>
					<path class="st52" d="M246.1,68.4l-68.9-39.8c-0.6-0.3-1.5-0.3-2.2,0.1l-70.2,40.4c-0.5,0.3-0.7,0.7-0.4,1
						c0.1-0.1,0.2-0.2,0.4-0.3l70.2-40.4c0.6-0.4,1.6-0.4,2.2-0.1L246.1,69c0.1,0.1,0.2,0.1,0.2,0.2
						C246.6,68.9,246.5,68.6,246.1,68.4z"/>
					<path class="st52" d="M250.1,71.9l-70.4,40.6c-2.8,1.6-7,1.8-9.4,0.4l-70.1-40.5c-1-0.6-1.5-1.3-1.6-2c-0.2,1,0.4,2,1.6,2.7
						l70.1,40.5c2.4,1.4,6.6,1.2,9.4-0.4l70.4-40.6c1.7-1,2.5-2.3,2.3-3.4C252.2,70.1,251.4,71.1,250.1,71.9z"/>
				</g>
				<path class="st94" d="M177.2,34.4c-0.6-0.3-1.5-0.3-2.2,0.1l-67,38.6l-3.4-2c-0.6-0.3-0.5-0.9,0.2-1.2l70.2-40.4
					c0.6-0.4,1.6-0.4,2.2-0.1L246.1,69c0.6,0.3,0.5,0.9-0.2,1.2l-3.3,1.9L177.2,34.4z"/>
				<path class="st105" d="M246,70.3c0.6-0.4,0.7-0.9,0.2-1.2l-68.9-39.8c-0.6-0.3-1.5-0.3-2.2,0.1l-70.2,40.4
					c-0.6,0.4-0.7,0.9-0.2,1.2l68.9,39.8c0.6,0.3,1.5,0.3,2.2-0.1L246,70.3z"/>
			</g>
		</g>
	</g>
</g>
</svg>
