<svg id="Layer_1" data-name="Layer 1" xmlns="http://www.w3.org/2000/svg" viewBox="0 0 250 250"><title>1</title><path d="M125,25.66A99.34,99.34,0,1,0,224.34,125,99.35,99.35,0,0,0,125,25.66Zm67,30.19L183.85,64A84.59,84.59,0,0,0,66.1,64L58,55.85a96.17,96.17,0,0,1,134.05,0ZM126.52,206.79V196.28a71.37,71.37,0,0,0,69.76-69.76h10.54A81.89,81.89,0,0,1,126.52,206.79Zm-83.29-80.3H53.75a71.35,71.35,0,0,0,69.77,69.79v10.54A81.9,81.9,0,0,1,43.2,126.49ZM123.52,43.2V53.74A71.35,71.35,0,0,0,53.77,123.5H43.2A81.9,81.9,0,0,1,123.52,43.2ZM125,193.28A68.3,68.3,0,1,1,193.29,125v0A68.39,68.39,0,0,1,125,193.28Zm71.25-69.79a71.35,71.35,0,0,0-69.73-69.75V43.2a81.9,81.9,0,0,1,80.3,80.3ZM28.65,125A96,96,0,0,1,55.86,58L64,66.14a84.61,84.61,0,0,0,0,117.75L55.86,192a96,96,0,0,1-27.21-67ZM58,194.13,66.12,186a84.59,84.59,0,0,0,117.75,0l8.15,8.16a96.19,96.19,0,0,1-134,0ZM194.14,192,186,183.86a84.61,84.61,0,0,0,0-117.75L194.14,58A96.17,96.17,0,0,1,194.14,192Z"/></svg>