<?xml version="1.0" encoding="utf-8"?>
<!-- Generator: Adobe Illustrator 24.0.1, SVG Export Plug-In . SVG Version: 6.00 Build 0)  -->
<svg version="1.1" id="Layer_1" xmlns="http://www.w3.org/2000/svg" xmlns:xlink="http://www.w3.org/1999/xlink" x="0px" y="0px"
	 width="947.7px" height="98.1px" viewBox="0 0 947.7 98.1" style="enable-background:new 0 0 947.7 98.1;" xml:space="preserve">
<style type="text/css">
	.st0{fill:#FFFFFF;}
</style>
<title>1</title>
<path class="st0" d="M185.2,81.5c-0.5-0.5-1.1-0.7-1.8-0.7c-0.7,0-1.3,0.3-1.8,0.8c-1.9,1.8-3.9,3.4-6,4.9c-2,1.4-4.1,2.6-6.4,3.5
	c-2.5,1-5,1.7-7.7,2.2c-3.2,0.5-6.4,0.8-9.7,0.8c-5.3,0-10.7-1-15.6-3c-4.7-1.9-8.9-4.9-12.4-8.6c-3.6-4-6.4-8.7-8.2-13.8
	c-2.1-6-3.1-12.2-3-18.5c-0.1-6.2,1-12.5,3.1-18.3c1.8-5.1,4.7-9.8,8.4-13.8c3.6-3.8,7.9-6.7,12.7-8.7c5.2-2.1,10.8-3.1,16.4-3.1
	c2.9,0,5.8,0.2,8.7,0.7c2.3,0.4,4.5,1,6.7,1.8c1.7,0.6,3.3,1.4,4.9,2.3c1.4,0.9,2.6,1.6,3.5,2.3c0.9,0.7,1.7,1.3,2.3,1.8
	c0.7,0.7,1.6,1.1,2.6,1.3c0.8,0,1.6-0.4,2.1-1l0.3-0.5l-0.3-2.5c-2.1-1.8-4.3-3.4-6.5-4.9c-2.2-1.4-4.5-2.6-7-3.6
	c-2.5-1-5.2-1.7-7.9-2.1c-3.1-0.5-6.2-0.7-9.3-0.7c-6.4-0.1-12.7,1.1-18.7,3.5C129,5.9,124,9.3,119.9,13.7
	c-4.1,4.5-7.3,9.8-9.4,15.5c-2.3,6.4-3.4,13.1-3.3,19.9c-0.1,6.9,1,13.8,3.3,20.3c2,5.7,5.2,11,9.3,15.5c4,4.3,8.8,7.6,14.2,9.8
	c5.7,2.3,11.7,3.5,17.8,3.4c3.6,0,7.3-0.3,10.8-1c3.1-0.6,6.1-1.5,9.1-2.7c2.7-1.1,5.2-2.6,7.6-4.2c2.3-1.6,4.5-3.4,6.5-5.4
	l-0.1-2.8L185.2,81.5z"/>
<polygon class="st0" points="301.9,1.1 300,3 300,45.7 239.1,45.7 239.1,3 237.2,1.1 235.6,1.1 233.7,3 233.7,95.1 235.6,97 
	237.2,97 239.1,95.1 239.1,51 300,51 300,95.1 301.9,97 303.5,97 305.4,95.1 305.4,3 303.5,1.1 "/>
<path class="st0" d="M386.6,1.5h-1.3l-1.7,1.2l-38.4,92.1l1.8,2.7h1c1.2,0,2.3-0.7,2.7-1.9l35.3-84.8l35.3,84.8
	c0.3,1.1,1.4,1.9,2.6,1.9h1.2l1.8-2.7L388.4,2.6L386.6,1.5z"/>
<polygon class="st0" points="471.1,1.1 469.1,3 469.1,95.1 471.1,97 472.6,97 474.6,95.1 474.6,3 472.6,1.1 "/>
<path class="st0" d="M601,1.1h-1.3L597.8,3v83.3L536.2,2.5c-0.6-0.9-1.5-1.4-2.5-1.3h-0.5L531.2,3v92.1l1.9,1.9h1.3l1.9-1.9V11.5
	l62,84.3c0.5,0.8,1.4,1.3,2.3,1.3h0.4l1.9-1.9V3L601,1.1z"/>
<path class="st0" d="M59.2,12.3C56.3,8.3,52.5,5.2,48.1,3c-8.5-4-18.4-4-26.9,0C16.8,5.2,13,8.3,10,12.3c-3.4,4.6-5.9,9.8-7.4,15.3
	c-1.9,7-2.8,14.3-2.7,21.5c-0.1,7.3,0.8,14.5,2.7,21.5c1.5,5.5,4,10.7,7.4,15.3c2.9,3.9,6.7,7.1,11.1,9.2c8.5,4,18.4,4,26.9,0
	c4.4-2.1,8.2-5.3,11.1-9.2c3.4-4.6,5.9-9.8,7.4-15.3c1.9-7,2.8-14.2,2.7-21.5c0.1-7.3-0.8-14.5-2.7-21.5
	C65.1,22.1,62.6,16.9,59.2,12.3z M34.6,92.6c-3.8,0-7.6-0.9-11.1-2.5c-3.3-1.6-6.1-3.9-8.4-6.7l41.5-64.8c1.9,3.3,3.4,6.9,4.4,10.6
	c1.7,6.5,2.5,13.2,2.4,19.9c0.1,6.7-0.7,13.4-2.4,19.9c-1.3,4.8-3.4,9.4-6.3,13.5C50,88.9,42.5,92.7,34.6,92.6z M8.1,68.9
	c-1.7-6.5-2.5-13.2-2.4-19.9c-0.1-6.7,0.7-13.4,2.4-19.9c1.3-4.9,3.4-9.5,6.4-13.5c7.2-9.8,20.3-13,31.2-7.7c3,1.5,5.6,3.6,7.8,6.2
	L12,78.7C10.3,75.6,9,72.3,8.1,68.9z"/>
<path class="st0" d="M835.8,91.4h-50.1V51.1h42.1c1.1,0,2.1-0.9,2.1-2.1v-1.4c0-1.1-0.9-2.1-2.1-2.1h-42.1V6.7h50
	c1.1,0,2.1-0.9,2.1-2.1V3.2c0-1.1-0.9-2.1-2.1-2.1H782c-1.1,0-2.1,0.9-2.1,2.1v91.8c0,1.1,0.9,2.1,2.1,2.1h53.6c1.1,0,2-0.8,2.1-1.9
	l0.1-1.4c0.1-1.1-0.7-2.1-1.9-2.2L835.8,91.4L835.8,91.4z"/>
<path class="st0" d="M945.6,1.1h-70.8c-1.1,0-2.1,0.9-2.1,2.1v1.4c0,1.1,0.9,2.1,2.1,2.1h32.7v88.2c0,1.1,0.9,2.1,2.1,2.1h1.6
	c1.1,0,2.1-0.9,2.1-2.1V6.7h32.4c1.1,0,2.1-0.9,2.1-2.1V3.2C947.7,2,946.7,1.1,945.6,1.1L945.6,1.1z"/>
<path class="st0" d="M728.6,1.1h-1.3L725.3,3v83.3L663.8,2.5c-0.6-0.9-1.5-1.4-2.5-1.3h-0.5L658.8,3v92.1l1.9,1.9h1.3l1.9-1.9V11.5
	l62,84.3c0.5,0.8,1.4,1.3,2.3,1.3h0.4l1.9-1.9V3L728.6,1.1z"/>
</svg>
