<svg id="Layer_1" data-name="Layer 1" xmlns="http://www.w3.org/2000/svg" viewBox="0 0 972 163"><title>1</title><path d="M204.6,113.16a2.46,2.46,0,0,0-1.72-.7,2.59,2.59,0,0,0-1.77.81,58.38,58.38,0,0,1-5.87,4.76,31.52,31.52,0,0,1-6.24,3.42,36.62,36.62,0,0,1-7.47,2.13,54,54,0,0,1-9.41.74,39.69,39.69,0,0,1-15.22-2.9,34.46,34.46,0,0,1-12.08-8.37,39.21,39.21,0,0,1-8-13.41,52.39,52.39,0,0,1-2.93-18.07,51.36,51.36,0,0,1,3-17.88,39.24,39.24,0,0,1,8.17-13.44,35.36,35.36,0,0,1,12.34-8.47,41.76,41.76,0,0,1,16-3,45.22,45.22,0,0,1,8.46.7,40.85,40.85,0,0,1,6.53,1.75,27,27,0,0,1,4.75,2.21c1.35.83,2.5,1.59,3.39,2.27s1.69,1.3,2.23,1.76a4.2,4.2,0,0,0,2.55,1.22,2.56,2.56,0,0,0,2-1l.33-.52-.33-2.39A64.23,64.23,0,0,0,196.94,40a36,36,0,0,0-6.79-3.48,38.37,38.37,0,0,0-7.68-2.06,57.45,57.45,0,0,0-9.08-.66,47.06,47.06,0,0,0-18.19,3.44A41.18,41.18,0,0,0,141,47.08a44.58,44.58,0,0,0-9.17,15.15A56,56,0,0,0,128.6,81.6a57.39,57.39,0,0,0,3.23,19.78,44.1,44.1,0,0,0,9.08,15.09,39.71,39.71,0,0,0,13.85,9.58,44.87,44.87,0,0,0,17.39,3.32,54.21,54.21,0,0,0,10.56-1,46.1,46.1,0,0,0,8.83-2.67,41,41,0,0,0,7.42-4.11,49.92,49.92,0,0,0,6.29-5.22l-.06-2.73Z"/><polygon points="318.41 34.83 316.54 36.69 316.54 78.29 257.2 78.29 257.2 36.69 255.33 34.83 253.79 34.83 251.92 36.69 251.92 126.44 253.79 128.31 255.33 128.31 257.2 126.44 257.2 83.44 316.54 83.44 316.54 126.44 318.41 128.31 319.95 128.31 321.82 126.44 321.82 36.69 319.95 34.83 318.41 34.83"/><path d="M401,35.16h-1.3L398,36.31l-37.44,89.75,1.72,2.59h1a2.69,2.69,0,0,0,2.65-1.86l34.4-82.63,34.42,82.62a2.61,2.61,0,0,0,2.52,1.86h1.15l1.73-2.59L402.71,36.31Z"/><polygon points="483.3 34.83 481.43 36.69 481.43 126.44 483.3 128.31 484.84 128.31 486.71 126.44 486.71 36.69 484.84 34.83 483.3 34.83"/><path d="M610,34.83h-1.3l-1.87,1.86v81.22L546.77,36.14a2.87,2.87,0,0,0-2.46-1.31h-.51l-1.87,1.86v89.75l1.87,1.87h1.29l1.86-1.87V44.91l60.4,82.17a2.69,2.69,0,0,0,2.23,1.23H610l1.87-1.87V36.69Z"/><path d="M81.83,45.69a29.54,29.54,0,0,0-10.84-9,30.65,30.65,0,0,0-26.23,0,29.57,29.57,0,0,0-10.85,9,45.56,45.56,0,0,0-7.17,14.92,74.8,74.8,0,0,0-2.61,21,75.12,75.12,0,0,0,2.61,20.94,45.19,45.19,0,0,0,7.18,14.9,29.5,29.5,0,0,0,10.85,8.94,31,31,0,0,0,26.21,0,29.67,29.67,0,0,0,10.85-8.94A45.78,45.78,0,0,0,89,102.55a75.12,75.12,0,0,0,2.61-20.94,75.54,75.54,0,0,0-2.61-21A45.88,45.88,0,0,0,81.83,45.69ZM57.83,124A24.74,24.74,0,0,1,47,121.54,24.29,24.29,0,0,1,38.8,115L79.27,51.84A44.69,44.69,0,0,1,83.56,62.2a71.83,71.83,0,0,1,2.32,19.36,71.71,71.71,0,0,1-2.32,19.35,40.16,40.16,0,0,1-6.14,13.17A23.8,23.8,0,0,1,57.83,124ZM32,100.91a70.93,70.93,0,0,1-2.33-19.35A71.05,71.05,0,0,1,32,62.2,40,40,0,0,1,38.2,49a24.47,24.47,0,0,1,30.42-7.53,23.85,23.85,0,0,1,7.6,6l-40.37,63A44.7,44.7,0,0,1,32,100.91Z"/><path d="M838.79,122.88H789.93V83.56H831a2,2,0,0,0,2-2V80.15a2,2,0,0,0-2-2H789.94V40.24h48.73a2,2,0,0,0,2-2v-1.4a2,2,0,0,0-2-2H786.4a2,2,0,0,0-2,2v89.44a2,2,0,0,0,2,2h52.26a2,2,0,0,0,2-1.82l.12-1.4a2,2,0,0,0-1.81-2.17h-.18Z"/><path d="M945.87,34.84h-69a2,2,0,0,0-2,2v1.4a2,2,0,0,0,2,2h31.87v86a2,2,0,0,0,2,2h1.53a2,2,0,0,0,2-2v-86h31.61a2,2,0,0,0,2-2v-1.4a2,2,0,0,0-2-2Z"/><path d="M734.31,34.83H733l-1.87,1.86v81.22l-60-81.77a2.87,2.87,0,0,0-2.46-1.31h-.51l-1.87,1.86v89.75l1.87,1.87h1.29l1.86-1.87V44.91l60.4,82.17a2.69,2.69,0,0,0,2.23,1.23h.38l1.87-1.87V36.69Z"/></svg>