<?xml version="1.0" encoding="utf-8"?>
<!-- Generator: Adobe Illustrator 22.1.0, SVG Export Plug-In . SVG Version: 6.00 Build 0)  -->
<svg version="1.1" id="Layer_1" xmlns="http://www.w3.org/2000/svg" xmlns:xlink="http://www.w3.org/1999/xlink" x="0px" y="0px"
	 viewBox="0 0 1517.7 802" style="enable-background:new 0 0 1517.7 802;" xml:space="preserve">
<style type="text/css">
	.st0{fill:#15CCBA;}
	.st1{fill:#19191D;}
	.st2{fill:#CCCCCC;}
	.st3{fill:#333333;}
	.st4{fill:#FFFFFF;}
	.st5{fill:#C1272D;}
	.st6{fill:#ED1C24;}
	.st7{fill:#662D91;}
</style>
<g>
	<g>
		<path d="M723.5,382.5c-0.1-0.1-0.3-0.2-0.5-0.2c-0.2,0-0.4,0.1-0.5,0.2c-0.6,0.5-1.2,1-1.8,1.4c-0.6,0.4-1.2,0.8-1.9,1
			c-0.7,0.3-1.5,0.5-2.3,0.6c-0.9,0.2-1.9,0.2-2.9,0.2c-1.6,0-3.1-0.3-4.6-0.9c-1.4-0.6-2.6-1.4-3.7-2.5c-1.1-1.2-1.9-2.6-2.4-4.1
			c-0.6-1.8-0.9-3.6-0.9-5.5c0-1.8,0.3-3.7,0.9-5.4c0.5-1.5,1.4-2.9,2.5-4.1c1-1.1,2.3-2,3.7-2.6c1.5-0.6,3.2-0.9,4.9-0.9
			c0.9,0,1.7,0.1,2.6,0.2c0.7,0.1,1.3,0.3,2,0.5c0.5,0.2,1,0.4,1.4,0.7c0.4,0.3,0.8,0.5,1,0.7c0.3,0.2,0.5,0.4,0.7,0.5
			c0.2,0.2,0.5,0.3,0.8,0.4c0.2,0,0.5-0.1,0.6-0.3l0.1-0.2l-0.1-0.7c-0.6-0.5-1.3-1-1.9-1.4c-0.6-0.4-1.3-0.8-2.1-1.1
			c-0.8-0.3-1.5-0.5-2.3-0.6c-0.9-0.1-1.8-0.2-2.8-0.2c-1.9,0-3.8,0.3-5.5,1c-1.6,0.7-3.1,1.7-4.3,3c-1.2,1.3-2.2,2.9-2.8,4.6
			c-0.7,1.9-1,3.9-1,5.9c0,2,0.3,4.1,1,6c0.6,1.7,1.5,3.2,2.8,4.6c1.2,1.3,2.6,2.2,4.2,2.9c1.7,0.7,3.5,1,5.3,1
			c1.1,0,2.1-0.1,3.2-0.3c0.9-0.2,1.8-0.5,2.7-0.8c0.8-0.3,1.5-0.8,2.2-1.2c0.7-0.5,1.3-1,1.9-1.6l0-0.8L723.5,382.5z"/>
		<polygon points="758,358.8 757.4,359.3 757.4,371.9 739.4,371.9 739.4,359.3 738.9,358.8 738.4,358.8 737.8,359.3 737.8,386.5 
			738.4,387.1 738.9,387.1 739.4,386.5 739.4,373.5 757.4,373.5 757.4,386.5 758,387.1 758.5,387.1 759,386.5 759,359.3 
			758.5,358.8 		"/>
		<path d="M783,358.9h-0.4l-0.5,0.3l-11.4,27.2l0.5,0.8h0.3c0.4,0,0.7-0.2,0.8-0.6l10.4-25.1l10.4,25c0.1,0.3,0.4,0.6,0.8,0.6h0.3
			l0.5-0.8l-11.4-27.2L783,358.9z"/>
		<polygon points="808,358.8 807.4,359.3 807.4,386.5 808,387.1 808.5,387.1 809,386.5 809,359.3 808.5,358.8 		"/>
		<path d="M846.4,358.8H846l-0.6,0.6V384l-18.2-24.8c-0.2-0.3-0.4-0.4-0.7-0.4h-0.2l-0.6,0.6v27.2l0.6,0.6h0.4l0.6-0.6v-24.7
			l18.3,24.9c0.1,0.2,0.4,0.4,0.7,0.4h0.1l0.6-0.6v-27.2L846.4,358.8z"/>
		<path d="M686.3,362.1c-0.9-1.2-2-2.1-3.3-2.7c-2.5-1.2-5.4-1.2-8,0c-1.3,0.6-2.4,1.6-3.3,2.7c-1,1.4-1.7,2.9-2.2,4.5
			c-0.6,2.1-0.8,4.2-0.8,6.4c0,2.1,0.2,4.3,0.8,6.3c0.4,1.6,1.2,3.2,2.2,4.5c0.9,1.2,2,2.1,3.3,2.7c2.5,1.2,5.4,1.2,7.9,0
			c1.3-0.6,2.4-1.6,3.3-2.7c1-1.4,1.7-2.9,2.2-4.5c0.6-2.1,0.8-4.2,0.8-6.3c0-2.1-0.2-4.3-0.8-6.4C688,365,687.3,363.4,686.3,362.1z
			 M679,385.8c-1.1,0-2.3-0.2-3.3-0.7c-1-0.5-1.8-1.2-2.5-2l12.3-19.1c0.6,1,1,2,1.3,3.1c0.5,1.9,0.7,3.9,0.7,5.9c0,2-0.2,4-0.7,5.9
			c-0.4,1.4-1,2.8-1.9,4C683.6,384.7,681.3,385.8,679,385.8L679,385.8z M671.2,378.8c-0.5-1.9-0.7-3.9-0.7-5.9c0-2,0.2-4,0.7-5.9
			c0.4-1.4,1-2.8,1.9-4c2.1-2.9,6-3.8,9.2-2.3c0.9,0.4,1.7,1.1,2.3,1.8l-12.2,19.1C671.8,380.8,671.4,379.8,671.2,378.8z"/>
	</g>
	<path d="M757.9,221.9c-101.7,0-184.1,82.4-184.1,184.1s82.4,184.1,184.1,184.1S941.9,507.7,941.9,406S859.5,221.9,757.9,221.9
		C757.9,221.9,757.9,221.9,757.9,221.9z M882,277.9L866.9,293c-60.8-58.9-157.4-58.9-218.2,0l-15.1-15.1
		C702.8,210.7,812.8,210.7,882,277.9L882,277.9z M760.7,557.5v-19.5c70.7-1.6,127.7-58.6,129.3-129.3h19.5
		C907.9,490.3,842.2,556,760.7,557.5z M606.4,408.8h19.5c1.5,70.8,58.5,127.7,129.3,129.3v19.5C673.6,556,607.9,490.3,606.4,408.8
		L606.4,408.8z M755.1,254.4V274c-70.7,1.6-127.7,58.5-129.2,129.3h-19.6C607.9,321.7,673.6,256,755.1,254.4z M757.9,532.5
		c-69.9,0-126.6-56.6-126.6-126.5c0-69.9,56.6-126.6,126.5-126.6s126.6,56.6,126.6,126.5l0,0l0,0
		C884.3,475.8,827.7,532.4,757.9,532.5z M889.9,403.2c-1.6-70.7-58.5-127.7-129.2-129.3v-19.5c81.5,1.6,147.2,67.3,148.8,148.8
		H889.9z M579.3,406c0-46.4,18.1-90.9,50.4-124.1l15.1,15.1c-58.9,60.8-58.9,157.4,0,218.2l-15.1,15.1
		C597.4,497,579.3,452.5,579.3,406L579.3,406z M633.7,534.1l15.1-15.1c60.8,58.9,157.4,58.9,218.2,0l15.1,15.1
		C812.9,601.2,702.9,601.2,633.7,534.1L633.7,534.1z M886,530.2l-15.1-15.1c58.9-60.8,58.9-157.4,0-218.2l15.1-15.1
		C952.1,350.7,951.2,460.4,886,530.2L886,530.2z"/>
	<g>
		<g>
			<g>
				<path class="st1" d="M701.2,438.4c-1-0.5-2.1-0.8-3.3-0.8c-1.3,0-2.3,0.2-3.3,0.7c-0.9,0.5-1.7,1.1-2.3,1.8
					c-0.6,0.8-1.1,1.7-1.4,2.8c-0.3,1.1-0.5,2.3-0.5,3.6c0,3,0.6,5.3,1.7,6.7c1.1,1.4,2.7,2.1,4.9,2.1c1.3,0,2.5-0.4,3.7-1.1
					c1.1-0.7,2.1-1.7,2.9-3v-10.5C703,439.7,702.1,438.9,701.2,438.4z"/>
				<path class="st1" d="M707.5,419.9h-46.8c-2.1,0-3.8,1.7-3.8,3.8v35.5c0,2.1,1.7,3.8,3.8,3.8h46.8c2.1,0,3.8-1.7,3.8-3.8v-35.5
					C711.2,421.5,709.5,419.9,707.5,419.9z M705.4,456.2c0,0.3-0.3,0.6-0.6,0.6h-0.1c-0.5,0-0.9-0.4-0.9-0.9l0-2
					c-0.7,0.7-1.4,1.4-2.2,1.9c-1.3,0.8-2.8,1.2-4.3,1.2c-2.7,0-4.8-0.9-6.2-2.6c-1.4-1.7-2.1-4.3-2.1-7.8c0-1.4,0.2-2.8,0.6-4.1
					c0.4-1.3,1-2.4,1.7-3.4c0.8-1,1.7-1.7,2.9-2.3s2.5-0.8,4-0.8c1.5,0,2.9,0.3,4,0.9c0.6,0.3,1.3,0.8,1.8,1.4v-10.4
					c0-0.3,0.3-0.6,0.6-0.6h0.5c0.3,0,0.6,0.3,0.6,0.6L705.4,456.2L705.4,456.2z"/>
			</g>
		</g>
		<path class="st1" d="M730.7,445.3c-0.5-0.8-1-1.5-1.8-2.1c-0.7-0.5-1.5-1-2.5-1.3c-0.9-0.3-1.7-0.6-2.7-1
			c-0.9-0.3-1.7-0.6-2.6-0.9c-0.8-0.3-1.5-0.7-2.1-1.1c-0.6-0.4-1.1-1-1.4-1.6s-0.5-1.4-0.5-2.3c0-0.7,0.2-1.5,0.4-2.1
			c0.3-0.7,0.7-1.3,1.2-1.8c0.5-0.5,1.2-1,2-1.3c0.8-0.3,1.7-0.5,2.8-0.5c1,0,1.9,0.1,2.5,0.4s1.3,0.5,1.7,0.8
			c0.4,0.3,0.7,0.6,1,0.8c0.3,0.3,0.6,0.6,1,0.6c0.2,0,0.5-0.1,0.7-0.3c0,0,0,0,0-0.1l0.1-0.1c0.2-0.2,0.1-0.6-0.1-0.8
			c-1-1-2-1.7-3.1-2.2c-1.1-0.5-2.4-0.7-3.8-0.7c-1.3,0-2.4,0.2-3.4,0.6c-1,0.4-1.8,0.9-2.5,1.6s-1.2,1.5-1.6,2.3
			c-0.4,0.9-0.5,1.8-0.5,2.8c0,1,0.2,1.8,0.5,2.6s0.7,1.4,1.2,1.9c0.5,0.5,1.1,1,1.7,1.3c0.6,0.3,1.3,0.6,2,0.9
			c0.7,0.3,1.4,0.5,2.1,0.7c0.7,0.2,1.4,0.5,2.1,0.7c0.7,0.2,1.3,0.5,1.9,0.8c0.6,0.3,1,0.6,1.4,1c0.4,0.4,0.7,0.9,1,1.4
			c0.2,0.6,0.4,1.2,0.4,2c0,1-0.2,1.9-0.5,2.7s-0.8,1.6-1.4,2.2c-0.6,0.6-1.4,1.1-2.3,1.5c-0.9,0.4-2,0.6-3.2,0.6
			c-0.8,0-1.5-0.1-2.1-0.2c-0.6-0.2-1.2-0.3-1.7-0.6c-0.5-0.2-0.9-0.5-1.2-0.7c-0.3-0.3-0.6-0.5-0.9-0.8c-0.2-0.2-0.5-0.5-0.6-0.6
			c-0.2-0.2-0.5-0.4-0.8-0.4c-0.2,0-0.4,0.1-0.5,0.2c0,0-0.1,0.1-0.2,0.2l-0.1,0.1c-0.2,0.2-0.2,0.6,0,0.8c0.5,0.6,1,1.1,1.5,1.6
			c0.6,0.5,1.2,0.9,1.8,1.2c0.6,0.3,1.4,0.6,2.1,0.8c0.8,0.2,1.7,0.2,2.6,0.2c1.4,0,2.7-0.2,3.8-0.7c1.1-0.5,2.1-1.1,2.9-1.8
			c0.8-0.8,1.4-1.7,1.8-2.8c0.4-1,0.6-2.2,0.6-3.4C731.4,447.2,731.2,446.2,730.7,445.3z"/>
		<path class="st1" d="M749.1,454.2L749.1,454.2c-0.3-0.3-0.5-0.3-0.7-0.3c-0.3,0-0.6,0.2-0.8,0.4c-0.2,0.2-0.4,0.3-0.6,0.5
			c-0.2,0.2-0.6,0.3-1,0.5c-0.3,0.2-0.7,0.2-1.2,0.2c-0.4,0-0.7-0.1-1-0.2c-0.3-0.1-0.6-0.2-0.8-0.5c-0.2-0.2-0.4-0.5-0.5-0.9
			c-0.2-0.4-0.2-0.9-0.2-1.4v-13.8h6c0.3,0,0.6-0.3,0.6-0.6v-0.4c0-0.3-0.3-0.6-0.6-0.6h-6v-7.5c0-0.3-0.3-0.6-0.6-0.6h-0.1
			c-0.3,0-0.6,0.2-0.7,0.4c-0.1,0.2-0.1,0.3-0.1,0.5l-0.2,7.2l-2.9,0.1c-0.3,0-0.6,0.3-0.6,0.6v0.1c0,0.4,0.3,0.8,0.9,0.8h2.6v13.8
			c0,1.6,0.4,2.8,1.2,3.5c0.8,0.7,1.8,1.1,3.1,1.1c0.4,0,0.8-0.1,1.3-0.2c0.4-0.1,0.8-0.2,1.2-0.4c0.4-0.2,0.7-0.4,1-0.7
			c0.3-0.2,0.6-0.6,0.8-0.9C749.4,454.8,749.3,454.4,749.1,454.2z"/>
		<path class="st1" d="M772.9,442.3c-0.4-1.3-1-2.4-1.7-3.3c-0.8-0.9-1.7-1.7-2.9-2.2c-1.1-0.5-2.4-0.8-3.8-0.8
			c-1.4,0-2.7,0.2-3.9,0.8c-1.1,0.5-2.1,1.3-2.9,2.2c-0.8,0.9-1.4,2.1-1.7,3.3c-0.4,1.3-0.6,2.7-0.6,4.3c0,1.5,0.2,3,0.6,4.2
			c0.4,1.3,1,2.4,1.7,3.3c0.8,0.9,1.7,1.7,2.9,2.1c1.1,0.5,2.4,0.7,3.9,0.7c1.4,0,2.7-0.2,3.8-0.7c1.1-0.5,2.1-1.2,2.9-2.2
			c0.8-0.9,1.4-2.1,1.7-3.3c0.4-1.3,0.6-2.7,0.6-4.2C773.4,445,773.3,443.5,772.9,442.3z M764.4,437.6c1.2,0,2.3,0.2,3.2,0.6
			s1.7,1,2.3,1.8c0.6,0.8,1.1,1.7,1.4,2.8c0.3,1.1,0.5,2.4,0.5,3.7c0,1.4-0.2,2.6-0.5,3.7c-0.3,1.1-0.8,2-1.4,2.8
			c-0.6,0.7-1.4,1.4-2.3,1.7c-0.9,0.4-2,0.6-3.2,0.6c-1.2,0-2.3-0.2-3.2-0.6c-0.9-0.4-1.7-1-2.2-1.7c-0.6-0.8-1.1-1.7-1.4-2.8
			c-0.3-1.1-0.5-2.4-0.5-3.7s0.2-2.6,0.5-3.7c0.3-1.1,0.8-2,1.4-2.8c0.6-0.8,1.4-1.4,2.2-1.8C762.1,437.8,763.2,437.6,764.4,437.6z"
			/>
		<path class="st1" d="M793.2,437.1c-0.1-0.2-0.2-0.3-0.3-0.4c-0.5-0.2-1.1-0.5-1.7-0.6c-0.6-0.2-1.2-0.2-1.9-0.2
			c-1,0-1.8,0.2-2.6,0.4s-1.5,0.7-2.1,1.3c-0.6,0.5-1,1.1-1.4,1.9l0-2.3c0-0.6-0.4-0.9-0.9-0.9h-0.1c-0.3,0-0.6,0.3-0.6,0.6v19.2
			c0,0.3,0.3,0.6,0.6,0.6h0.5c0.3,0,0.6-0.3,0.6-0.6v-12.6c0.6-1.9,1.4-3.4,2.3-4.5s2.2-1.5,3.7-1.5c0.4,0,0.8,0,1.1,0.1
			c0.3,0.1,0.6,0.1,0.8,0.2c0.2,0.1,0.4,0.2,0.5,0.2c0.2,0.1,0.4,0.2,0.6,0.2c0.4,0,0.6-0.2,0.6-0.3c0,0,0-0.1,0.1-0.1
			c0,0,0,0,0-0.1l0.1-0.2C793.2,437.5,793.3,437.3,793.2,437.1z"/>
		<path class="st1" d="M812.6,440.4c-0.2-0.9-0.6-1.7-1.2-2.4c-0.5-0.7-1.2-1.2-2-1.5c-0.8-0.3-1.7-0.5-2.8-0.5
			c-1.4,0-2.7,0.3-3.8,0.9c-1.1,0.6-2.1,1.4-3.1,2.4c-0.2,0.2-0.2,0.6,0,0.9l0.1,0.1c0.2,0.2,0.4,0.3,0.6,0.3c0.3,0,0.6-0.2,0.7-0.4
			c0.1-0.1,0.3-0.3,0.6-0.5c0.2-0.2,0.5-0.4,0.8-0.7c0.3-0.2,0.6-0.4,1-0.6c0.4-0.2,0.9-0.4,1.4-0.5c0.5-0.1,1.1-0.2,1.7-0.2
			c0.8,0,1.4,0.1,2,0.4c0.6,0.2,1,0.6,1.4,1.1c0.4,0.5,0.7,1.1,0.9,1.8c0.2,0.7,0.3,1.6,0.3,2.5v1.9c-1.9,0.1-3.7,0.2-5.1,0.5
			c-1.6,0.3-3,0.7-4.1,1.2c-1.1,0.5-2,1.2-2.5,2c-0.6,0.8-0.9,1.7-0.9,2.7c0,1,0.2,1.8,0.5,2.5c0.3,0.7,0.8,1.3,1.3,1.7
			c0.5,0.4,1.1,0.8,1.8,1c0.6,0.2,1.3,0.3,1.9,0.3c0.9,0,1.7-0.1,2.5-0.3c0.8-0.2,1.5-0.5,2.1-0.8c0.6-0.3,1.3-0.8,1.9-1.3
			c0.2-0.2,0.5-0.4,0.7-0.6l0.1,1.7c0,0.6,0.4,0.9,0.9,0.9h0.1c0.3,0,0.6-0.3,0.6-0.6v-12.7C813,442.3,812.9,441.3,812.6,440.4z
			 M811.3,446.9v5c-0.4,0.4-0.9,0.9-1.3,1.3c-0.5,0.4-1,0.8-1.6,1.2c-0.6,0.3-1.2,0.6-1.9,0.8c-0.7,0.2-1.4,0.3-2.3,0.3
			c-0.5,0-1-0.1-1.4-0.2c-0.5-0.2-0.9-0.4-1.2-0.7c-0.3-0.3-0.6-0.7-0.9-1.2c-0.2-0.5-0.3-1-0.3-1.7c0-1.4,0.9-2.5,2.6-3.3
			C804.8,447.6,807.5,447.1,811.3,446.9z"/>
		<path class="st1" d="M837.7,437.2h-4.5c-0.6-0.4-1.2-0.7-1.9-0.9c-0.8-0.2-1.6-0.4-2.5-0.4c-1.1,0-2.1,0.2-2.9,0.5
			c-0.9,0.3-1.6,0.8-2.3,1.4s-1.1,1.3-1.4,2.1c-0.3,0.8-0.5,1.7-0.5,2.7c0,1.3,0.3,2.4,0.8,3.4c0.4,0.7,0.9,1.3,1.5,1.8
			c-0.1,0.1-0.2,0.2-0.3,0.2c-0.3,0.3-0.6,0.6-0.8,0.9c-0.2,0.3-0.4,0.6-0.5,1c-0.2,0.4-0.2,0.7-0.2,1c0,0.9,0.3,1.7,0.9,2.2
			c0.2,0.2,0.4,0.3,0.6,0.4c-0.7,0.4-1.4,0.9-1.9,1.4c-0.9,0.9-1.3,2-1.3,3.3c0,0.8,0.2,1.6,0.6,2.3c0.4,0.7,1,1.3,1.7,1.9
			c0.7,0.5,1.7,0.9,2.7,1.2c1,0.3,2.2,0.4,3.6,0.4c1.3,0,2.5-0.2,3.6-0.5c1.1-0.3,2-0.8,2.8-1.4c0.8-0.6,1.4-1.3,1.8-2.1
			c0.5-0.8,0.7-1.6,0.7-2.5c0-1-0.2-1.8-0.7-2.4c-0.5-0.6-1.1-1-1.8-1.3c-0.7-0.3-1.5-0.5-2.5-0.6c-0.9-0.1-1.7-0.2-2.6-0.2
			c-0.9,0-1.7-0.1-2.6-0.1c-0.8,0-1.5-0.2-2.1-0.3c-0.6-0.2-1-0.4-1.4-0.6c-0.3-0.2-0.4-0.6-0.4-1c0-0.2,0-0.4,0.1-0.6
			c0.1-0.2,0.2-0.5,0.4-0.7c0.2-0.2,0.4-0.4,0.6-0.6c0.2-0.2,0.3-0.3,0.6-0.4c1,0.4,2.1,0.6,3.3,0.6c1.1,0,2-0.2,2.9-0.5
			c0.9-0.3,1.6-0.8,2.3-1.4s1.1-1.3,1.5-2.1c0.3-0.8,0.5-1.7,0.5-2.7c0-1-0.2-1.9-0.5-2.7c-0.2-0.4-0.4-0.8-0.6-1.1l2.5-0.1
			c0.2,0,0.4-0.1,0.6-0.2c0.2-0.2,0.3-0.4,0.3-0.7v-0.1C838.3,437.5,838.1,437.2,837.7,437.2z M837.4,437.6L837.4,437.6L837.4,437.6
			L837.4,437.6z M828.8,447.8c-0.9,0-1.6-0.1-2.3-0.4s-1.2-0.6-1.7-1c-0.5-0.4-0.8-1-1.1-1.6c-0.2-0.6-0.4-1.4-0.4-2.1
			s0.1-1.5,0.4-2.1c0.2-0.6,0.6-1.2,1.1-1.6c0.5-0.4,1-0.8,1.7-1s1.4-0.4,2.3-0.4s1.6,0.1,2.3,0.4s1.2,0.6,1.7,1
			c0.5,0.4,0.8,1,1.1,1.6c0.2,0.6,0.4,1.4,0.4,2.1s-0.1,1.5-0.4,2.1c-0.2,0.6-0.6,1.2-1,1.6s-1,0.8-1.7,1S829.7,447.8,828.8,447.8z
			 M829.1,462.5c-1.1,0-2.1-0.1-3-0.3c-0.9-0.2-1.6-0.6-2.2-1c-0.6-0.4-1-0.8-1.3-1.3s-0.4-1-0.4-1.6c0-0.5,0.1-0.9,0.2-1.3
			c0.2-0.4,0.4-0.8,0.8-1.1c0.3-0.3,0.7-0.6,1.2-0.9c0.5-0.2,1-0.5,1.5-0.7c0.7,0.1,1.4,0.2,2.2,0.2c0.8,0,1.7,0.1,2.5,0.1
			s1.6,0.1,2.4,0.2c0.7,0.1,1.4,0.2,1.9,0.5c0.5,0.2,0.9,0.5,1.2,0.8c0.3,0.3,0.4,0.8,0.4,1.4c0,0.7-0.2,1.3-0.6,1.9
			c-0.4,0.6-0.9,1.1-1.6,1.5c-0.7,0.4-1.5,0.8-2.4,1C831,462.4,830,462.5,829.1,462.5z"/>
		<path class="st1" d="M860.3,441.1c-0.4-1.1-1-2.1-1.7-2.8c-0.7-0.8-1.5-1.4-2.5-1.7c-1-0.4-2-0.6-3.1-0.6c-1.4,0-2.7,0.2-3.8,0.7
			c-1.1,0.5-2.1,1.2-2.9,2.1c-0.8,0.9-1.4,2-1.8,3.2c-0.4,1.2-0.6,2.6-0.6,4.1c0,1.7,0.2,3.2,0.6,4.5c0.4,1.4,1,2.5,1.8,3.4
			c0.8,1,1.7,1.7,2.9,2.2c1.1,0.5,2.4,0.7,3.8,0.7c0.8,0,1.6-0.1,2.3-0.2c0.7-0.2,1.4-0.4,2.1-0.6c0.6-0.3,1.2-0.6,1.7-0.9
			c0.5-0.3,0.9-0.6,1.1-1c0.2-0.2,0.2-0.6,0-0.8l-0.1-0.1c-0.2-0.2-0.4-0.2-0.6-0.2c-0.3,0-0.5,0.1-0.9,0.5
			c-0.2,0.2-0.6,0.5-1.1,0.7c-0.5,0.3-1.1,0.5-1.8,0.7c-0.7,0.2-1.6,0.3-2.6,0.3c-1.1,0-2.1-0.2-3-0.6c-0.9-0.4-1.7-1-2.3-1.7
			c-0.6-0.8-1.1-1.7-1.5-2.9c-0.4-1.2-0.6-2.5-0.6-4.1v-0.5H860c0.2,0,0.4-0.1,0.5-0.2c0.2-0.2,0.3-0.4,0.3-0.6
			C860.9,443.5,860.7,442.2,860.3,441.1z M853.1,437.6c0.9,0,1.7,0.2,2.4,0.5s1.4,0.8,1.9,1.4s1,1.3,1.3,2.2
			c0.2,0.7,0.4,1.6,0.5,2.5h-13.3c0.1-0.8,0.3-1.6,0.6-2.3c0.4-0.9,0.9-1.6,1.5-2.2s1.4-1.1,2.2-1.4
			C851,437.8,852,437.6,853.1,437.6z"/>
	</g>
	<g>
		<g>
			<rect x="142.8" y="142.9" class="st2" width="52" height="7.8"/>
			<rect x="142.8" y="167.2" class="st2" width="52" height="7.8"/>
			<path class="st3" d="M205.1,144.6h-72.6c-1,0-1.7-0.8-1.7-1.7v-16.5c0-1,0.8-1.7,1.7-1.7h72.6c1,0,1.7,0.8,1.7,1.7v16.5
				C206.8,143.9,206.1,144.6,205.1,144.6z M134.2,141.2h69.2v-13h-69.2V141.2z"/>
			<path class="st3" d="M205.1,169h-72.6c-1,0-1.7-0.8-1.7-1.7v-16.5c0-1,0.8-1.7,1.7-1.7h72.6c1,0,1.7,0.8,1.7,1.7v16.5
				C206.8,168.2,206.1,169,205.1,169z M134.2,165.5h69.2v-13h-69.2V165.5z"/>
			<path class="st3" d="M205.1,193.3h-72.6c-1,0-1.7-0.8-1.7-1.7v-16.5c0-1,0.8-1.7,1.7-1.7h72.6c1,0,1.7,0.8,1.7,1.7v16.5
				C206.8,192.5,206.1,193.3,205.1,193.3z M134.2,189.8h69.2v-13h-69.2V189.8z"/>
			<circle class="st0" cx="142.2" cy="134.7" r="2.7"/>
			<circle class="st0" cx="142.2" cy="159" r="2.7"/>
			<circle class="st0" cx="142.2" cy="183.3" r="2.7"/>
		</g>
		<g>
			<g>
				<path class="st3" d="M158.7,204.6h2.1v17.6h-2.3l0-12.8l-5.3,9.9h-1.8l-5.3-9.8l0,12.6h-2.3v-17.6h2.1l6.4,12.2L158.7,204.6z"/>
				<path class="st3" d="M167.5,221.8c-1.1-0.4-2.1-0.9-2.9-1.6l0.9-1.9c0.9,0.7,1.8,1.2,2.7,1.5c0.9,0.3,2,0.5,3.1,0.5
					c1.3,0,2.3-0.2,3-0.7c0.7-0.5,1.1-1.2,1.1-2.1c0-0.8-0.3-1.3-1-1.7c-0.7-0.4-1.7-0.7-3.2-1.1c-1.4-0.3-2.5-0.6-3.4-1
					c-0.9-0.4-1.6-0.9-2.1-1.6c-0.5-0.7-0.8-1.5-0.8-2.5c0-1,0.3-1.9,0.8-2.7c0.5-0.8,1.3-1.4,2.3-1.8c1-0.4,2.2-0.7,3.5-0.7
					c1.2,0,2.4,0.2,3.5,0.6c1.1,0.4,2,0.9,2.7,1.6l-0.9,1.9c-0.8-0.7-1.7-1.2-2.5-1.5c-0.9-0.3-1.8-0.5-2.7-0.5
					c-1.3,0-2.3,0.3-3,0.8s-1.1,1.3-1.1,2.2c0,0.8,0.3,1.4,1,1.8c0.6,0.4,1.6,0.8,3,1.1c1.5,0.3,2.7,0.7,3.6,1
					c0.9,0.4,1.6,0.9,2.2,1.5s0.8,1.4,0.8,2.4c0,1-0.3,1.9-0.8,2.7c-0.5,0.8-1.3,1.4-2.3,1.8c-1,0.4-2.2,0.6-3.6,0.6
					C169.9,222.4,168.7,222.2,167.5,221.8z"/>
				<path class="st3" d="M181.8,204.6h7.3c1.9,0,3.3,0.5,4.4,1.4c1,0.9,1.5,2.2,1.5,3.9c0,1.7-0.5,3-1.5,3.9c-1,0.9-2.5,1.4-4.4,1.4
					h-4.7v7h-2.6V204.6z M188.8,213.1c2.5,0,3.7-1.1,3.7-3.2c0-2.1-1.2-3.2-3.7-3.2h-4.5v6.4H188.8z"/>
				<path class="st3" d="M202.2,229.3h2.3v1.2h-6v-1.2h2.2V222l-1.8,1.1l-0.6-1.1l2.9-1.8h1.1V229.3z"/>
			</g>
		</g>
		<g>
			<rect x="142.8" y="592.3" class="st2" width="52" height="7.8"/>
			<rect x="142.8" y="616.7" class="st2" width="52" height="7.8"/>
			<path class="st3" d="M205.1,594.1h-72.6c-1,0-1.7-0.8-1.7-1.7v-16.5c0-1,0.8-1.7,1.7-1.7h72.6c1,0,1.7,0.8,1.7,1.7v16.5
				C206.8,593.3,206.1,594.1,205.1,594.1z M134.2,590.6h69.2v-13h-69.2V590.6z"/>
			<path class="st3" d="M205.1,618.4h-72.6c-1,0-1.7-0.8-1.7-1.7v-16.5c0-1,0.8-1.7,1.7-1.7h72.6c1,0,1.7,0.8,1.7,1.7v16.5
				C206.8,617.6,206.1,618.4,205.1,618.4z M134.2,614.9h69.2v-13h-69.2V614.9z"/>
			<path class="st3" d="M205.1,642.7h-72.6c-1,0-1.7-0.8-1.7-1.7v-16.5c0-1,0.8-1.7,1.7-1.7h72.6c1,0,1.7,0.8,1.7,1.7V641
				C206.8,641.9,206.1,642.7,205.1,642.7z M134.2,639.2h69.2v-13h-69.2V639.2z"/>
			<circle class="st0" cx="142.2" cy="584.1" r="2.7"/>
			<circle class="st0" cx="142.2" cy="608.4" r="2.7"/>
			<circle class="st0" cx="142.2" cy="632.7" r="2.7"/>
		</g>
		<g>
			<g>
				<path class="st3" d="M154.2,654h2.1v17.6h-2.3l0-12.8l-5.3,9.9h-1.8l-5.3-9.8l0,12.6h-2.3V654h2.1l6.4,12.2L154.2,654z"/>
				<path class="st3" d="M163,671.2c-1.1-0.4-2.1-0.9-2.9-1.6l0.9-1.9c0.9,0.7,1.8,1.2,2.7,1.5c0.9,0.3,2,0.5,3.1,0.5
					c1.3,0,2.3-0.2,3-0.7c0.7-0.5,1.1-1.2,1.1-2.1c0-0.8-0.3-1.3-1-1.7c-0.7-0.4-1.7-0.7-3.2-1.1c-1.4-0.3-2.5-0.6-3.4-1
					c-0.9-0.4-1.6-0.9-2.1-1.6c-0.5-0.7-0.8-1.5-0.8-2.5c0-1,0.3-1.9,0.8-2.7c0.5-0.8,1.3-1.4,2.3-1.8c1-0.4,2.2-0.7,3.5-0.7
					c1.2,0,2.4,0.2,3.5,0.6c1.1,0.4,2,0.9,2.7,1.6l-0.9,1.9c-0.8-0.7-1.7-1.2-2.5-1.5c-0.9-0.3-1.8-0.5-2.7-0.5
					c-1.3,0-2.3,0.3-3,0.8c-0.7,0.5-1.1,1.3-1.1,2.2c0,0.8,0.3,1.4,1,1.8c0.6,0.4,1.6,0.8,3,1.1c1.5,0.3,2.7,0.7,3.6,1
					c0.9,0.4,1.6,0.9,2.2,1.5s0.8,1.4,0.8,2.4c0,1-0.3,1.9-0.8,2.7s-1.3,1.4-2.3,1.8c-1,0.4-2.2,0.6-3.6,0.6
					C165.4,671.8,164.1,671.6,163,671.2z"/>
				<path class="st3" d="M177.2,654h7.3c1.9,0,3.3,0.5,4.4,1.4c1,0.9,1.5,2.2,1.5,3.9c0,1.7-0.5,3-1.5,3.9c-1,0.9-2.5,1.4-4.4,1.4
					h-4.7v7h-2.6V654z M184.3,662.5c2.5,0,3.7-1.1,3.7-3.2c0-2.1-1.2-3.2-3.7-3.2h-4.5v6.4H184.3z"/>
				<path class="st3" d="M197.7,678.7h2.3v1.2h-6v-1.2h2.2v-7.2l-1.8,1.1l-0.6-1.1l2.9-1.8h1.1V678.7z"/>
				<path class="st3" d="M207.8,673.8c0.5,0.3,0.9,0.7,1.1,1.2c0.3,0.5,0.4,1.1,0.4,1.7c0,0.7-0.1,1.2-0.4,1.7
					c-0.3,0.5-0.7,0.9-1.3,1.2c-0.5,0.3-1.2,0.4-1.9,0.4c-0.6,0-1.3-0.1-1.9-0.3s-1.1-0.5-1.5-0.9l0.5-1.1c0.9,0.7,1.9,1.1,2.9,1.1
					c0.7,0,1.2-0.2,1.6-0.5c0.4-0.4,0.6-0.9,0.6-1.5c0-0.6-0.2-1.1-0.6-1.5c-0.4-0.4-0.9-0.6-1.5-0.6c-0.9,0-1.6,0.3-2.2,1h-1v-6
					h6.3v1.2h-4.8v3.2c0.5-0.4,1.2-0.7,2-0.7C206.7,673.4,207.3,673.6,207.8,673.8z"/>
			</g>
		</g>
		<circle class="st3" cx="169.5" cy="525.1" r="4.8"/>
		<circle class="st3" cx="169.5" cy="478.8" r="4.8"/>
		<circle class="st3" cx="169.5" cy="432.5" r="4.8"/>
		<circle class="st3" cx="169.5" cy="383.3" r="4.8"/>
		<circle class="st3" cx="169.5" cy="337" r="4.8"/>
		<circle class="st3" cx="169.5" cy="290.7" r="4.8"/>
	</g>
	<path class="st3" d="M253.7,733.5h-165c-11.7,0-21.2-9.5-21.2-21.2V89.8c0-11.7,9.5-21.2,21.2-21.2h165c11.7,0,21.2,9.5,21.2,21.2
		v622.5C275,724,265.5,733.5,253.7,733.5z M88.7,70.5c-10.6,0-19.2,8.6-19.2,19.2v622.5c0,10.6,8.6,19.2,19.2,19.2h165
		c10.6,0,19.2-8.6,19.2-19.2V89.8c0-10.6-8.6-19.2-19.2-19.2H88.7z"/>
	<path class="st3" d="M556.4,391.1c-0.2,0-0.4,0-0.5-0.1L255.7,206.9c-0.5-0.3-0.6-0.9-0.3-1.4c0.3-0.5,0.9-0.6,1.4-0.3l300.1,184.1
		c0.5,0.3,0.6,0.9,0.3,1.4C557,391,556.7,391.1,556.4,391.1z"/>
	<g>
		<g>
			<rect x="1322.9" y="142.9" class="st2" width="52" height="7.8"/>
			<rect x="1322.9" y="167.2" class="st2" width="52" height="7.8"/>
			<path class="st3" d="M1385.2,144.6h-72.6c-1,0-1.7-0.8-1.7-1.7v-16.5c0-1,0.8-1.7,1.7-1.7h72.6c1,0,1.7,0.8,1.7,1.7v16.5
				C1387,143.9,1386.2,144.6,1385.2,144.6z M1314.3,141.2h69.2v-13h-69.2V141.2z"/>
			<path class="st3" d="M1385.2,169h-72.6c-1,0-1.7-0.8-1.7-1.7v-16.5c0-1,0.8-1.7,1.7-1.7h72.6c1,0,1.7,0.8,1.7,1.7v16.5
				C1387,168.2,1386.2,169,1385.2,169z M1314.3,165.5h69.2v-13h-69.2V165.5z"/>
			<path class="st3" d="M1385.2,193.3h-72.6c-1,0-1.7-0.8-1.7-1.7v-16.5c0-1,0.8-1.7,1.7-1.7h72.6c1,0,1.7,0.8,1.7,1.7v16.5
				C1387,192.5,1386.2,193.3,1385.2,193.3z M1314.3,189.8h69.2v-13h-69.2V189.8z"/>
			<circle class="st0" cx="1322.3" cy="134.7" r="2.7"/>
			<circle class="st0" cx="1322.3" cy="159" r="2.7"/>
			<circle class="st0" cx="1322.3" cy="183.3" r="2.7"/>
		</g>
		<g>
			<g>
				<path class="st3" d="M1338.8,204.6h2v17.6h-2.3l0-12.8l-5.3,9.9h-1.8l-5.3-9.8l0,12.6h-2.3v-17.6h2.1l6.4,12.2L1338.8,204.6z"/>
				<path class="st3" d="M1347.7,221.8c-1.1-0.4-2.1-0.9-2.9-1.6l0.9-1.9c0.9,0.7,1.8,1.2,2.7,1.5s2,0.5,3.1,0.5
					c1.3,0,2.3-0.2,3-0.7c0.7-0.5,1.1-1.2,1.1-2.1c0-0.8-0.3-1.3-1-1.7s-1.7-0.7-3.2-1.1c-1.4-0.3-2.5-0.6-3.4-1
					c-0.9-0.4-1.6-0.9-2.1-1.6c-0.5-0.7-0.8-1.5-0.8-2.5c0-1,0.3-1.9,0.8-2.7c0.5-0.8,1.3-1.4,2.3-1.8c1-0.4,2.2-0.7,3.5-0.7
					c1.2,0,2.4,0.2,3.5,0.6s2,0.9,2.7,1.6l-0.9,1.9c-0.8-0.7-1.7-1.2-2.5-1.5c-0.9-0.3-1.8-0.5-2.7-0.5c-1.3,0-2.3,0.3-3,0.8
					c-0.7,0.5-1.1,1.3-1.1,2.2c0,0.8,0.3,1.4,1,1.8c0.6,0.4,1.6,0.8,3,1.1c1.5,0.3,2.7,0.7,3.6,1c0.9,0.4,1.6,0.9,2.2,1.5
					c0.5,0.6,0.8,1.4,0.8,2.4c0,1-0.3,1.9-0.8,2.7c-0.5,0.8-1.3,1.4-2.3,1.8s-2.2,0.6-3.6,0.6
					C1350.1,222.4,1348.8,222.2,1347.7,221.8z"/>
				<path class="st3" d="M1361.9,204.6h7.3c1.9,0,3.3,0.5,4.4,1.4c1,0.9,1.5,2.2,1.5,3.9c0,1.7-0.5,3-1.5,3.9
					c-1,0.9-2.5,1.4-4.4,1.4h-4.7v7h-2.6V204.6z M1369,213.1c2.5,0,3.7-1.1,3.7-3.2c0-2.1-1.2-3.2-3.7-3.2h-4.5v6.4H1369z"/>
				<path class="st3" d="M1382.4,229.3h2.3v1.2h-6v-1.2h2.2V222l-1.8,1.1l-0.6-1.1l2.9-1.8h1.1V229.3z"/>
			</g>
		</g>
		<g>
			<rect x="1322.9" y="443.9" class="st2" width="52" height="7.8"/>
			<rect x="1322.9" y="468.2" class="st2" width="52" height="7.8"/>
			<path class="st3" d="M1385.2,445.6h-72.6c-1,0-1.7-0.8-1.7-1.7v-16.5c0-1,0.8-1.7,1.7-1.7h72.6c1,0,1.7,0.8,1.7,1.7v16.5
				C1387,444.8,1386.2,445.6,1385.2,445.6z M1314.3,442.1h69.2v-13h-69.2V442.1z"/>
			<path class="st3" d="M1385.2,469.9h-72.6c-1,0-1.7-0.8-1.7-1.7v-16.5c0-1,0.8-1.7,1.7-1.7h72.6c1,0,1.7,0.8,1.7,1.7v16.5
				C1387,469.1,1386.2,469.9,1385.2,469.9z M1314.3,466.4h69.2v-13h-69.2V466.4z"/>
			<path class="st3" d="M1385.2,494.2h-72.6c-1,0-1.7-0.8-1.7-1.7V476c0-1,0.8-1.7,1.7-1.7h72.6c1,0,1.7,0.8,1.7,1.7v16.5
				C1387,493.4,1386.2,494.2,1385.2,494.2z M1314.3,490.7h69.2v-13h-69.2V490.7z"/>
			<circle class="st0" cx="1322.3" cy="435.6" r="2.7"/>
			<circle class="st0" cx="1322.3" cy="459.9" r="2.7"/>
			<circle class="st0" cx="1322.3" cy="484.2" r="2.7"/>
		</g>
		<g>
			<g>
				<path class="st3" d="M1334.3,505.5h2v17.6h-2.3l0-12.8l-5.3,9.9h-1.8l-5.3-9.8l0,12.6h-2.3v-17.6h2.1l6.4,12.2L1334.3,505.5z"/>
				<path class="st3" d="M1343.1,522.8c-1.1-0.4-2.1-0.9-2.9-1.6l0.9-1.9c0.9,0.7,1.8,1.2,2.7,1.5s2,0.5,3.1,0.5
					c1.3,0,2.3-0.2,3-0.7c0.7-0.5,1.1-1.2,1.1-2.1c0-0.8-0.3-1.3-1-1.7s-1.7-0.7-3.2-1.1c-1.4-0.3-2.5-0.6-3.4-1
					c-0.9-0.4-1.6-0.9-2.1-1.6c-0.5-0.7-0.8-1.5-0.8-2.5c0-1,0.3-1.9,0.8-2.7c0.5-0.8,1.3-1.4,2.3-1.8s2.2-0.7,3.5-0.7
					c1.2,0,2.4,0.2,3.5,0.6s2,0.9,2.7,1.6l-0.9,1.9c-0.8-0.7-1.7-1.2-2.5-1.5s-1.8-0.5-2.7-0.5c-1.3,0-2.3,0.3-3,0.8
					c-0.7,0.5-1.1,1.3-1.1,2.2c0,0.8,0.3,1.4,1,1.8c0.6,0.4,1.6,0.8,3,1.1c1.5,0.3,2.7,0.7,3.6,1c0.9,0.4,1.6,0.8,2.2,1.5
					c0.5,0.6,0.8,1.4,0.8,2.4c0,1-0.3,1.9-0.8,2.7c-0.5,0.8-1.3,1.4-2.3,1.8c-1,0.4-2.2,0.6-3.6,0.6
					C1345.5,523.3,1344.2,523.1,1343.1,522.8z"/>
				<path class="st3" d="M1357.4,505.5h7.3c1.9,0,3.3,0.5,4.4,1.4c1,0.9,1.5,2.2,1.5,3.9c0,1.7-0.5,3-1.5,3.9
					c-1,0.9-2.5,1.4-4.4,1.4h-4.7v7h-2.6V505.5z M1364.4,514c2.5,0,3.7-1.1,3.7-3.2c0-2.1-1.2-3.2-3.7-3.2h-4.5v6.4H1364.4z"/>
				<path class="st3" d="M1377.8,530.2h2.3v1.2h-6v-1.2h2.2v-7.2l-1.8,1.1l-0.6-1.1l2.9-1.8h1.1V530.2z"/>
				<path class="st3" d="M1389.7,528.1v1.2h-1.5v2.1h-1.5v-2.1h-4.6v-1.1l4.9-7h1.2v7H1389.7z M1383.5,528.1h3.1v-4.5L1383.5,528.1z
					"/>
			</g>
		</g>
		<g>
			<rect x="1322.9" y="592.3" class="st2" width="52" height="7.8"/>
			<rect x="1322.9" y="616.7" class="st2" width="52" height="7.8"/>
			<path class="st3" d="M1385.2,594.1h-72.6c-1,0-1.7-0.8-1.7-1.7v-16.5c0-1,0.8-1.7,1.7-1.7h72.6c1,0,1.7,0.8,1.7,1.7v16.5
				C1387,593.3,1386.2,594.1,1385.2,594.1z M1314.3,590.6h69.2v-13h-69.2V590.6z"/>
			<path class="st3" d="M1385.2,618.4h-72.6c-1,0-1.7-0.8-1.7-1.7v-16.5c0-1,0.8-1.7,1.7-1.7h72.6c1,0,1.7,0.8,1.7,1.7v16.5
				C1387,617.6,1386.2,618.4,1385.2,618.4z M1314.3,614.9h69.2v-13h-69.2V614.9z"/>
			<path class="st3" d="M1385.2,642.7h-72.6c-1,0-1.7-0.8-1.7-1.7v-16.5c0-1,0.8-1.7,1.7-1.7h72.6c1,0,1.7,0.8,1.7,1.7V641
				C1387,641.9,1386.2,642.7,1385.2,642.7z M1314.3,639.2h69.2v-13h-69.2V639.2z"/>
			<circle class="st0" cx="1322.3" cy="584.1" r="2.7"/>
			<circle class="st0" cx="1322.3" cy="608.4" r="2.7"/>
			<circle class="st0" cx="1322.3" cy="632.7" r="2.7"/>
		</g>
		<g>
			<g>
				<path class="st3" d="M1334.3,654h2v17.6h-2.3l0-12.8l-5.3,9.9h-1.8l-5.3-9.8l0,12.6h-2.3V654h2.1l6.4,12.2L1334.3,654z"/>
				<path class="st3" d="M1343.1,671.2c-1.1-0.4-2.1-0.9-2.9-1.6l0.9-1.9c0.9,0.7,1.8,1.2,2.7,1.5s2,0.5,3.1,0.5
					c1.3,0,2.3-0.2,3-0.7c0.7-0.5,1.1-1.2,1.1-2.1c0-0.8-0.3-1.3-1-1.7s-1.7-0.7-3.2-1.1c-1.4-0.3-2.5-0.6-3.4-1
					c-0.9-0.4-1.6-0.9-2.1-1.6c-0.5-0.7-0.8-1.5-0.8-2.5c0-1,0.3-1.9,0.8-2.7c0.5-0.8,1.3-1.4,2.3-1.8c1-0.4,2.2-0.7,3.5-0.7
					c1.2,0,2.4,0.2,3.5,0.6s2,0.9,2.7,1.6l-0.9,1.9c-0.8-0.7-1.7-1.2-2.5-1.5c-0.9-0.3-1.8-0.5-2.7-0.5c-1.3,0-2.3,0.3-3,0.8
					c-0.7,0.5-1.1,1.3-1.1,2.2c0,0.8,0.3,1.4,1,1.8c0.6,0.4,1.6,0.8,3,1.1c1.5,0.3,2.7,0.7,3.6,1c0.9,0.4,1.6,0.9,2.2,1.5
					c0.5,0.6,0.8,1.4,0.8,2.4c0,1-0.3,1.9-0.8,2.7c-0.5,0.8-1.3,1.4-2.3,1.8c-1,0.4-2.2,0.6-3.6,0.6
					C1345.5,671.8,1344.2,671.6,1343.1,671.2z"/>
				<path class="st3" d="M1357.4,654h7.3c1.9,0,3.3,0.5,4.4,1.4c1,0.9,1.5,2.2,1.5,3.9c0,1.7-0.5,3-1.5,3.9c-1,0.9-2.5,1.4-4.4,1.4
					h-4.7v7h-2.6V654z M1364.4,662.5c2.5,0,3.7-1.1,3.7-3.2c0-2.1-1.2-3.2-3.7-3.2h-4.5v6.4H1364.4z"/>
				<path class="st3" d="M1377.8,678.7h2.3v1.2h-6v-1.2h2.2v-7.2l-1.8,1.1l-0.6-1.1l2.9-1.8h1.1V678.7z"/>
				<path class="st3" d="M1387.9,673.8c0.5,0.3,0.9,0.7,1.1,1.2c0.3,0.5,0.4,1.1,0.4,1.7c0,0.7-0.1,1.2-0.4,1.7
					c-0.3,0.5-0.7,0.9-1.3,1.2c-0.5,0.3-1.2,0.4-1.9,0.4c-0.6,0-1.3-0.1-1.9-0.3s-1.1-0.5-1.5-0.9l0.5-1.1c0.9,0.7,1.9,1.1,2.9,1.1
					c0.7,0,1.2-0.2,1.6-0.5c0.4-0.4,0.6-0.9,0.6-1.5c0-0.6-0.2-1.1-0.6-1.5c-0.4-0.4-0.9-0.6-1.5-0.6c-0.9,0-1.6,0.3-2.2,1h-1v-6
					h6.3v1.2h-4.8v3.2c0.5-0.4,1.2-0.7,2-0.7C1386.9,673.4,1387.4,673.6,1387.9,673.8z"/>
			</g>
		</g>
		<circle class="st3" cx="1348.9" cy="279.2" r="4.8"/>
		<circle class="st3" cx="1348.9" cy="325.5" r="4.8"/>
		<circle class="st3" cx="1348.9" cy="371.7" r="4.8"/>
	</g>
	<path class="st3" d="M1429,733.5h-165c-11.7,0-21.2-9.5-21.2-21.2V89.8c0-11.7,9.5-21.2,21.2-21.2h165c11.7,0,21.2,9.5,21.2,21.2
		v622.5C1450.2,724,1440.7,733.5,1429,733.5z M1264,70.5c-10.6,0-19.2,8.6-19.2,19.2v622.5c0,10.6,8.6,19.2,19.2,19.2h165
		c10.6,0,19.2-8.6,19.2-19.2V89.8c0-10.6-8.6-19.2-19.2-19.2H1264z"/>
	<path class="st3" d="M952.3,321.6c-0.4,0-0.7-0.2-0.9-0.6c-0.2-0.5,0-1.1,0.5-1.3l270.1-126.1c0.5-0.2,1.1,0,1.3,0.5
		c0.2,0.5,0,1.1-0.5,1.3L952.7,321.5C952.6,321.6,952.4,321.6,952.3,321.6z"/>
	<path class="st3" d="M1222.4,457.4c0,0-0.1,0-0.1,0l-264.1-29.2c-0.5-0.1-0.9-0.6-0.9-1.1c0.1-0.5,0.6-0.9,1.1-0.9l264.1,29.2
		c0.5,0.1,0.9,0.6,0.9,1.1C1223.3,457,1222.9,457.4,1222.4,457.4z"/>
	<path class="st3" d="M1221.8,586.9c-0.1,0-0.3,0-0.4-0.1L951.9,476.9c-0.5-0.2-0.8-0.8-0.5-1.3c0.2-0.5,0.8-0.8,1.3-0.5
		l269.5,109.9c0.5,0.2,0.8,0.8,0.5,1.3C1222.6,586.6,1222.2,586.9,1221.8,586.9z"/>
	<g>
		<path d="M322.1,220.8l2.6,1.5l-0.8,1.4l-6.9-4.1l0.8-1.4l2.6,1.5l4.9-8.3l-2.8,0l0-1.7l4.5-0.1l1.2,0.7L322.1,220.8z"/>
	</g>
	<path class="st3" d="M335.3,242.2c-0.2,0-0.4,0-0.5-0.2L295,217c-0.5-0.3-0.6-0.9-0.3-1.4l15.9-25.3c0.1-0.2,0.4-0.4,0.6-0.4
		c0.3-0.1,0.5,0,0.8,0.1l39.8,25c0.2,0.1,0.4,0.4,0.4,0.6c0.1,0.3,0,0.5-0.1,0.8l-15.9,25.3C336,242,335.7,242.2,335.3,242.2z
		 M296.9,215.9l38.1,23.9l14.8-23.6l-38.1-23.9L296.9,215.9z"/>
	<g>
		<path d="M374.6,252.7l-0.8,1.4l-7.7-4.5l0.8-1.3l6.7-2c0.9-0.3,1.5-0.6,2-0.9s0.9-0.7,1.2-1.2c0.4-0.6,0.5-1.2,0.3-1.7
			c-0.2-0.5-0.6-1-1.2-1.3c-1.1-0.6-2.4-0.9-4-0.6l0.1-1.6c0.7-0.2,1.5-0.2,2.4,0c0.9,0.2,1.7,0.5,2.4,0.9c1.1,0.7,1.8,1.5,2.2,2.4
			c0.3,0.9,0.2,1.9-0.4,2.9c-0.4,0.7-0.9,1.2-1.6,1.7c-0.7,0.4-1.5,0.8-2.7,1.2l-5.1,1.5L374.6,252.7z"/>
	</g>
	<path class="st3" d="M385.1,272.5c-0.2,0-0.4,0-0.5-0.2l-39.8-25c-0.2-0.1-0.4-0.4-0.4-0.6c-0.1-0.3,0-0.5,0.1-0.8l15.9-25.3
		c0.3-0.5,0.9-0.6,1.4-0.3l39.8,25c0.2,0.1,0.4,0.4,0.4,0.6c0.1,0.3,0,0.5-0.1,0.8L385.9,272C385.7,272.3,385.4,272.5,385.1,272.5z
		 M346.6,246.2l38.1,23.9l14.8-23.6l-38.1-23.9L346.6,246.2z"/>
	<g>
		<path d="M453.4,300.8l2.6,1.5l-0.8,1.4l-6.9-4.1l0.8-1.4l2.6,1.5l4.9-8.3l-2.8,0l0-1.7l4.5-0.1l1.2,0.7L453.4,300.8z"/>
		<path d="M468.2,302.1c0.4,0.6,0.5,1.3,0.5,2.1c0,0.7-0.3,1.5-0.7,2.2c-0.4,0.8-1,1.3-1.7,1.7c-0.7,0.4-1.4,0.5-2.2,0.5
			c-0.8-0.1-1.6-0.3-2.5-0.8c-0.7-0.4-1.4-1-1.9-1.6c-0.6-0.7-0.9-1.4-1.1-2.1l1.3-0.9c0.5,1.5,1.4,2.6,2.6,3.2
			c0.8,0.5,1.5,0.6,2.2,0.4c0.7-0.2,1.2-0.6,1.7-1.4c0.4-0.7,0.6-1.4,0.4-2.1s-0.6-1.2-1.3-1.7c-1-0.6-2.1-0.7-3.3-0.3l-1.1-0.6
			l4.1-6.9l7.2,4.3l-0.8,1.4l-5.5-3.2l-2.2,3.7c0.9-0.1,1.8,0.1,2.8,0.6C467.3,301,467.8,301.5,468.2,302.1z"/>
	</g>
	<path class="st3" d="M471.8,325.3c-0.2,0-0.4-0.1-0.5-0.2l-39.8-25c-0.5-0.3-0.6-0.9-0.3-1.4l15.9-25.3c0.1-0.2,0.4-0.4,0.6-0.4
		c0.3-0.1,0.5,0,0.8,0.1l39.8,25c0.2,0.1,0.4,0.4,0.4,0.6c0.1,0.3,0,0.5-0.1,0.8l-15.9,25.3c-0.1,0.2-0.4,0.4-0.6,0.4
		C471.9,325.2,471.8,325.3,471.8,325.3z M433.3,299l38.1,23.9l14.8-23.6l-38.1-23.9L433.3,299z"/>
	<circle cx="407.2" cy="267.1" r="1.5"/>
	<circle cx="416.4" cy="272.7" r="1.5"/>
	<circle cx="425.7" cy="278.3" r="1.5"/>
	<g>
		<path d="M1058.7,244.7l2.7-1.3l0.7,1.5l-7.2,3.5l-0.7-1.5l2.7-1.3l-4.2-8.6l-1.5,2.3l-1.4-1l2.4-3.8l1.3-0.6L1058.7,244.7z"/>
	</g>
	<path class="st3" d="M1040.2,265.4c-0.1,0-0.2,0-0.3-0.1c-0.2-0.1-0.5-0.3-0.6-0.5l-12.4-27.1c-0.2-0.5,0-1.1,0.5-1.3l42.7-19.6
		c0.2-0.1,0.5-0.1,0.8,0c0.2,0.1,0.5,0.3,0.6,0.5l12.4,27.1c0.2,0.5,0,1.1-0.5,1.3l-42.7,19.6
		C1040.5,265.4,1040.4,265.4,1040.2,265.4z M1029.1,237.8l11.6,25.3l40.9-18.7l-11.6-25.3L1029.1,237.8z"/>
	<g>
		<path d="M1060.7,416l3,0.2l-0.1,1.6l-7.9-0.7l0.1-1.6l3,0.2l0.8-9.6l-2.5,1.3l-0.7-1.6l4-2l1.4,0.1L1060.7,416z"/>
		<path d="M1076.6,414.5l-0.1,1.6l-2-0.2l-0.2,2.8l-1.9-0.2l0.2-2.8l-6.1-0.5l0.1-1.5l7.2-8.8l1.6,0.1l-0.8,9.2L1076.6,414.5z
			 M1068.5,413.8l4.2,0.3l0.5-6L1068.5,413.8z"/>
	</g>
	<path class="st3" d="M1087.5,430c0,0-0.1,0-0.1,0l-46.7-5.1c-0.3,0-0.5-0.2-0.7-0.4c-0.2-0.2-0.2-0.5-0.2-0.7l3.2-29.7
		c0.1-0.5,0.5-0.9,1.1-0.9l46.7,5.1c0.5,0.1,0.9,0.6,0.9,1.1l-3.2,29.7c0,0.3-0.2,0.5-0.4,0.7C1088,429.9,1087.8,430,1087.5,430z
		 M1041.9,423l44.7,4.9l3-27.7l-44.7-4.9L1041.9,423z"/>
	<g>
		<path d="M1054.9,495.1l2.8,1.1l-0.6,1.5l-7.4-2.9l0.6-1.5l2.8,1.1l3.5-9l-2.7,0.5l-0.3-1.7l4.4-0.8l1.3,0.5L1054.9,495.1z"/>
		<path d="M1069.8,494c0.5,0.6,0.8,1.2,0.8,2c0.1,0.7,0,1.5-0.3,2.3c-0.3,0.8-0.8,1.5-1.4,1.9c-0.6,0.5-1.3,0.8-2.1,0.8
			c-0.8,0.1-1.7-0.1-2.6-0.4c-0.8-0.3-1.5-0.7-2.2-1.3c-0.7-0.6-1.1-1.2-1.5-1.9l1.2-1.1c0.8,1.4,1.8,2.3,3,2.8
			c0.8,0.3,1.6,0.4,2.2,0.1c0.6-0.3,1.1-0.8,1.4-1.6c0.3-0.8,0.3-1.5,0-2.1c-0.3-0.7-0.8-1.1-1.6-1.4c-1.1-0.4-2.2-0.4-3.3,0.2
			l-1.2-0.5l2.9-7.5l7.8,3l-0.6,1.5l-5.9-2.3l-1.6,4c0.9-0.3,1.8-0.2,2.8,0.1C1068.7,493,1069.3,493.4,1069.8,494z"/>
	</g>
	<path class="st3" d="M1076.9,516.2c-0.1,0-0.3,0-0.4-0.1l-43.3-18.2c-0.5-0.2-0.7-0.8-0.5-1.3l11.5-27.5c0.1-0.2,0.3-0.4,0.5-0.5
		c0.2-0.1,0.5-0.1,0.8,0l43.3,18.2c0.5,0.2,0.7,0.8,0.5,1.3l-11.5,27.5c-0.1,0.2-0.3,0.4-0.5,0.5
		C1077.1,516.2,1077,516.2,1076.9,516.2z M1034.8,496.5l41.5,17.4l10.8-25.7l-41.5-17.4L1034.8,496.5z"/>
</g>
</svg>
