<?xml version="1.0" encoding="utf-8"?>
<!-- Generator: Adobe Illustrator 22.1.0, SVG Export Plug-In . SVG Version: 6.00 Build 0)  -->
<svg version="1.1" id="Layer_1" xmlns="http://www.w3.org/2000/svg" xmlns:xlink="http://www.w3.org/1999/xlink" x="0px" y="0px"
	 viewBox="0 0 490.9 475.5" style="enable-background:new 0 0 490.9 475.5;" xml:space="preserve">
<style type="text/css">
	.st0{fill:none;stroke:#15CCBA;stroke-width:2;stroke-miterlimit:10;}
	.st1{fill:#19191D;}
	.st2{fill:#CCCCCC;}
	.st3{fill:none;stroke:#333333;stroke-width:3.441;stroke-linecap:round;stroke-linejoin:round;stroke-miterlimit:10;}
	.st4{fill:#15CCBA;}
	.st5{fill:#333333;}
	.st6{fill:none;stroke:#333333;stroke-width:2;stroke-linecap:round;stroke-linejoin:round;stroke-miterlimit:10;}
	.st7{fill:none;stroke:#333333;stroke-width:2.3569;stroke-linecap:round;stroke-linejoin:round;stroke-miterlimit:10;}
	.st8{fill:#FFFFFF;stroke:#C1272D;stroke-width:1.4663;stroke-linecap:round;stroke-linejoin:round;stroke-miterlimit:10;}
	.st9{fill:none;stroke:#ED1C24;stroke-width:1.4663;stroke-linecap:round;stroke-linejoin:round;stroke-miterlimit:10;}
	.st10{fill:none;stroke:#ED1C24;stroke-width:1.466;stroke-linecap:round;stroke-linejoin:round;}
	.st11{fill:#ED1C24;}
	.st12{fill:none;stroke:#333333;stroke-width:2;stroke-linecap:round;stroke-linejoin:round;}
	.st13{fill:none;stroke:#15CCBA;stroke-width:2.3569;stroke-linecap:round;stroke-linejoin:round;stroke-miterlimit:10;}
	.st14{fill:none;stroke:#333333;stroke-width:2.357;stroke-linecap:round;stroke-linejoin:round;}
	.st15{fill:none;stroke:#333333;stroke-width:2.357;stroke-linecap:round;stroke-linejoin:round;stroke-miterlimit:10;}
	.st16{fill:none;stroke:#662D91;stroke-width:2.3569;stroke-linecap:round;stroke-linejoin:round;stroke-miterlimit:10;}
</style>
<line class="st0" x1="101" y1="377.3" x2="377.7" y2="100.6"/>
<g>
	<g>
		<path d="M347.6,417.9v-13.6h2v12h6.6v1.7H347.6z"/>
		<path d="M360,417.4c-0.7-0.4-1.2-1-1.6-1.7c-0.4-0.7-0.6-1.6-0.6-2.6c0-1,0.2-1.9,0.6-2.6c0.4-0.7,0.9-1.3,1.6-1.7
			c0.7-0.4,1.5-0.6,2.4-0.6c0.9,0,1.7,0.2,2.4,0.6c0.7,0.4,1.2,1,1.6,1.7c0.4,0.7,0.6,1.6,0.6,2.6c0,1-0.2,1.8-0.6,2.6
			c-0.4,0.7-0.9,1.3-1.6,1.7c-0.7,0.4-1.5,0.6-2.4,0.6C361.6,418,360.7,417.8,360,417.4z M364.5,415.6c0.5-0.6,0.7-1.4,0.7-2.5
			c0-1.1-0.2-1.9-0.7-2.5c-0.5-0.6-1.1-0.9-2-0.9s-1.5,0.3-2,0.9c-0.5,0.6-0.7,1.4-0.7,2.5c0,1.1,0.2,1.9,0.7,2.5
			c0.5,0.6,1.1,0.9,2,0.9S364,416.2,364.5,415.6z"/>
		<path d="M371.4,417.4c-0.7-0.4-1.2-1-1.6-1.7c-0.4-0.7-0.6-1.6-0.6-2.6s0.2-1.8,0.6-2.6s0.9-1.3,1.7-1.7s1.5-0.6,2.5-0.6
			c0.7,0,1.3,0.1,1.9,0.3c0.6,0.2,1.1,0.5,1.5,0.9l-0.6,1.4c-0.9-0.7-1.7-1-2.6-1c-0.9,0-1.6,0.3-2.1,0.9c-0.5,0.6-0.8,1.4-0.8,2.5
			c0,1.1,0.3,1.9,0.8,2.4c0.5,0.6,1.2,0.9,2.1,0.9s1.8-0.3,2.6-1l0.6,1.4c-0.4,0.4-0.9,0.7-1.5,0.9c-0.6,0.2-1.3,0.3-1.9,0.3
			C373,418,372.1,417.8,371.4,417.4z"/>
		<path d="M388.5,417.9H386l-4.5-4.4v4.4h-2v-13.6h2v8.5l4.1-4.2h2.4l-4.5,4.5L388.5,417.9z"/>
		<path d="M405.4,417.9l-1.5-1.6c-0.6,0.6-1.2,1-1.9,1.3c-0.7,0.3-1.5,0.5-2.3,0.5c-0.9,0-1.7-0.2-2.4-0.5c-0.7-0.3-1.2-0.7-1.6-1.3
			s-0.6-1.2-0.6-1.9c0-0.8,0.2-1.6,0.7-2.2c0.5-0.7,1.3-1.3,2.3-1.9c-0.6-0.6-1-1.1-1.2-1.6c-0.2-0.5-0.4-1-0.4-1.5
			c0-0.9,0.3-1.7,1-2.2s1.5-0.9,2.6-0.9c1,0,1.8,0.3,2.3,0.8c0.6,0.5,0.9,1.2,0.9,2.1c0,0.7-0.2,1.3-0.6,1.8
			c-0.4,0.5-1.1,1.1-2.1,1.7l3,3.2c0.5-1.1,0.8-2.4,0.9-3.9h1.7c-0.1,2-0.5,3.7-1.4,5.1l2.8,3H405.4z M402.8,415.2l-3.5-3.8
			c-0.8,0.5-1.3,0.9-1.7,1.4s-0.5,1-0.5,1.5c0,0.7,0.2,1.2,0.7,1.6c0.5,0.4,1.1,0.6,1.9,0.6C401,416.5,402,416.1,402.8,415.2z
			 M399,406c-0.3,0.3-0.5,0.7-0.5,1.2c0,0.3,0.1,0.7,0.3,1s0.5,0.7,1,1.3c0.8-0.5,1.3-0.9,1.6-1.2c0.3-0.4,0.4-0.7,0.4-1.2
			c0-0.5-0.1-0.8-0.4-1.1s-0.7-0.4-1.1-0.4C399.7,405.5,399.3,405.7,399,406z"/>
		<path d="M416.5,417.6c-0.9-0.3-1.6-0.7-2.3-1.3l0.7-1.5c0.7,0.5,1.4,0.9,2.1,1.2c0.7,0.2,1.5,0.4,2.4,0.4c1,0,1.8-0.2,2.4-0.6
			c0.6-0.4,0.8-0.9,0.8-1.6c0-0.6-0.3-1-0.8-1.3s-1.3-0.6-2.5-0.8c-1.1-0.2-2-0.5-2.7-0.8c-0.7-0.3-1.2-0.7-1.6-1.2
			c-0.4-0.5-0.6-1.2-0.6-1.9c0-0.8,0.2-1.5,0.6-2.1c0.4-0.6,1-1.1,1.8-1.4s1.7-0.5,2.7-0.5c1,0,1.9,0.1,2.7,0.4
			c0.8,0.3,1.5,0.7,2.1,1.2l-0.7,1.5c-0.6-0.5-1.3-0.9-1.9-1.2c-0.7-0.3-1.4-0.4-2.1-0.4c-1,0-1.7,0.2-2.3,0.6
			c-0.6,0.4-0.8,1-0.8,1.7c0,0.6,0.2,1.1,0.7,1.4c0.5,0.3,1.3,0.6,2.4,0.9c1.1,0.3,2.1,0.5,2.8,0.8c0.7,0.3,1.3,0.7,1.7,1.1
			s0.6,1.1,0.6,1.9c0,0.8-0.2,1.5-0.6,2.1s-1,1.1-1.8,1.4c-0.8,0.3-1.7,0.5-2.8,0.5C418.3,418.1,417.4,417.9,416.5,417.6z"/>
		<path d="M432.6,416.5l-0.1,1.5c-0.3,0.1-0.7,0.1-1,0.1c-1.2,0-2.1-0.3-2.7-0.9s-0.9-1.5-0.9-2.6V410H426v-1.5h1.8v-2.8h2v2.8h2.6
			v1.5h-2.6v4.5c0,1.4,0.6,2.1,1.9,2.1C432,416.5,432.3,416.5,432.6,416.5z"/>
		<path d="M441.3,409.2c0.6,0.6,0.9,1.6,0.9,2.9v5.8h-1.9v-1.6c-0.2,0.6-0.6,1-1.1,1.3s-1,0.4-1.7,0.4c-0.6,0-1.2-0.1-1.7-0.4
			c-0.5-0.3-0.9-0.6-1.2-1.1c-0.3-0.5-0.4-1-0.4-1.5c0-0.7,0.2-1.2,0.5-1.6c0.4-0.4,0.9-0.7,1.8-0.8c0.8-0.2,1.9-0.3,3.4-0.3h0.4
			v-0.6c0-0.7-0.2-1.2-0.5-1.6s-0.8-0.5-1.5-0.5c-1.1,0-2.1,0.3-3.2,1l-0.6-1.4c0.5-0.3,1.1-0.6,1.8-0.8c0.7-0.2,1.4-0.3,2.1-0.3
			C439.7,408.2,440.7,408.6,441.3,409.2z M439.6,415.9c0.5-0.5,0.7-1.1,0.7-1.9v-0.5H440c-1,0-1.8,0-2.3,0.1
			c-0.5,0.1-0.9,0.2-1.2,0.5c-0.2,0.2-0.3,0.5-0.3,0.9c0,0.5,0.2,0.8,0.5,1.1c0.3,0.3,0.8,0.5,1.3,0.5
			C438.6,416.6,439.2,416.3,439.6,415.9z"/>
		<path d="M454.2,417.9h-2.5l-4.5-4.4v4.4h-2v-13.6h2v8.5l4.1-4.2h2.4l-4.5,4.5L454.2,417.9z"/>
		<path d="M463.8,413.5h-6.7c0.1,2,1.1,3,3,3c1.1,0,2.1-0.4,2.9-1.1l0.6,1.4c-0.4,0.4-1,0.7-1.6,0.9s-1.3,0.3-2,0.3
			c-1.5,0-2.7-0.4-3.6-1.3c-0.9-0.9-1.3-2.1-1.3-3.6c0-1,0.2-1.8,0.6-2.6c0.4-0.7,0.9-1.3,1.6-1.7s1.5-0.6,2.3-0.6
			c1.3,0,2.3,0.4,3,1.2c0.7,0.8,1.1,2,1.1,3.4V413.5z M457.9,410.4c-0.4,0.5-0.7,1.1-0.8,2h5c0-0.9-0.3-1.5-0.7-2s-1-0.7-1.7-0.7
			C459,409.7,458.4,409.9,457.9,410.4z"/>
	</g>
</g>
<g>
	<g>
		<path d="M42.7,73.3h7.7v1.6h-9.9v-1.5l7.4-10.5h-7.4v-1.6h9.7v1.5L42.7,73.3z"/>
		<path d="M55.4,74.2c-1-0.6-1.7-1.4-2.2-2.4c-0.5-1-0.8-2.3-0.8-3.7s0.3-2.7,0.8-3.7c0.5-1,1.3-1.9,2.2-2.4c1-0.6,2.1-0.8,3.4-0.8
			c0.9,0,1.8,0.1,2.6,0.4c0.8,0.3,1.5,0.7,2,1.2l-0.7,1.5c-0.6-0.5-1.3-0.9-1.9-1.1c-0.6-0.2-1.3-0.3-2-0.3c-1.4,0-2.5,0.5-3.3,1.4
			c-0.8,0.9-1.2,2.2-1.2,3.9c0,1.7,0.4,3,1.2,3.9s1.9,1.4,3.3,1.4c0.7,0,1.4-0.1,2-0.3c0.6-0.2,1.3-0.6,1.9-1.1l0.7,1.5
			c-0.6,0.5-1.2,1-2,1.2c-0.8,0.3-1.7,0.4-2.6,0.4C57.5,75.1,56.3,74.8,55.4,74.2z"/>
		<path d="M75.7,61.3h1.9v13.6H76l-7.8-10.3v10.3h-1.9V61.3h1.5l7.8,10.3V61.3z"/>
		<path d="M43.3,90.5h2l-4.1,9.4h-1.8l-4.1-9.4h2l2.9,7.2L43.3,90.5z"/>
		<path d="M53.8,91.2c0.6,0.6,0.9,1.6,0.9,2.9v5.8h-1.9v-1.6c-0.2,0.6-0.6,1-1.1,1.3s-1,0.4-1.7,0.4c-0.6,0-1.2-0.1-1.7-0.4
			c-0.5-0.3-0.9-0.6-1.2-1.1c-0.3-0.5-0.4-1-0.4-1.5c0-0.7,0.2-1.2,0.5-1.6c0.4-0.4,0.9-0.7,1.8-0.8c0.8-0.2,1.9-0.3,3.4-0.3h0.4
			v-0.6c0-0.7-0.2-1.2-0.5-1.6s-0.8-0.5-1.5-0.5c-1.1,0-2.1,0.3-3.2,1l-0.6-1.4c0.5-0.3,1.1-0.6,1.8-0.8s1.4-0.3,2.1-0.3
			C52.2,90.2,53.2,90.6,53.8,91.2z M52.1,97.9c0.5-0.5,0.7-1.1,0.7-1.9v-0.5h-0.3c-1,0-1.8,0-2.3,0.1c-0.5,0.1-0.9,0.2-1.2,0.5
			c-0.2,0.2-0.3,0.5-0.3,0.9c0,0.5,0.2,0.8,0.5,1.1c0.3,0.3,0.8,0.5,1.3,0.5C51.1,98.6,51.7,98.3,52.1,97.9z"/>
		<path d="M57.8,99.9V86.3h2v13.6H57.8z"/>
		<path d="M71.3,90.5v9.4h-1.9v-1.5c-0.3,0.5-0.7,1-1.2,1.2c-0.5,0.3-1.1,0.4-1.8,0.4c-2.3,0-3.4-1.3-3.4-3.8v-5.8h2v5.8
			c0,0.8,0.2,1.3,0.5,1.7c0.3,0.4,0.8,0.5,1.4,0.5c0.8,0,1.4-0.2,1.8-0.7c0.5-0.5,0.7-1.1,0.7-2v-5.3H71.3z"/>
		<path d="M82.6,95.5h-6.7c0.1,2,1.1,3,3,3c1.1,0,2.1-0.4,2.9-1.1l0.6,1.4c-0.4,0.4-1,0.7-1.6,0.9c-0.6,0.2-1.3,0.3-2,0.3
			c-1.5,0-2.7-0.4-3.6-1.3c-0.9-0.9-1.3-2.1-1.3-3.6c0-1,0.2-1.8,0.6-2.6s0.9-1.3,1.6-1.7c0.7-0.4,1.5-0.6,2.3-0.6
			c1.3,0,2.3,0.4,3,1.2c0.7,0.8,1.1,2,1.1,3.4V95.5z M76.7,92.4c-0.4,0.5-0.7,1.1-0.8,2h5c0-0.9-0.3-1.5-0.7-2s-1-0.7-1.7-0.7
			C77.8,91.7,77.2,91.9,76.7,92.4z"/>
	</g>
</g>
<g>
	<g>
		<polyline class="st14" points="407.4,377.3 101,377.3 101,70.9 		"/>
		<g>
			<polygon class="st5" points="399.6,367.6 398,369.4 406.5,377.3 398,385.2 399.6,386.9 409.9,377.3 			"/>
		</g>
		<g>
			<polygon class="st5" points="110.6,78.7 108.9,80.3 101,71.8 93,80.3 91.3,78.7 101,68.3 			"/>
		</g>
	</g>
</g>
</svg>
