<?xml version="1.0" encoding="utf-8"?>
<!-- Generator: Adobe Illustrator 22.1.0, SVG Export Plug-In . SVG Version: 6.00 Build 0)  -->
<svg version="1.1" id="Layer_1" xmlns="http://www.w3.org/2000/svg" xmlns:xlink="http://www.w3.org/1999/xlink" x="0px" y="0px"
	 viewBox="0 0 464.5 301.2" style="enable-background:new 0 0 464.5 301.2;" xml:space="preserve">
<style type="text/css">
	.st0{fill:#19191D;}
	.st1{fill:#CCCCCC;}
	.st2{fill:none;stroke:#333333;stroke-width:3.441;stroke-linecap:round;stroke-linejoin:round;stroke-miterlimit:10;}
	.st3{fill:#15CCBA;}
	.st4{fill:#333333;}
	.st5{fill:none;stroke:#333333;stroke-width:2;stroke-linecap:round;stroke-linejoin:round;stroke-miterlimit:10;}
	.st6{fill:none;stroke:#333333;stroke-width:2.3569;stroke-linecap:round;stroke-linejoin:round;stroke-miterlimit:10;}
	.st7{fill:#FFFFFF;stroke:#C1272D;stroke-width:1.4663;stroke-linecap:round;stroke-linejoin:round;stroke-miterlimit:10;}
	.st8{fill:none;stroke:#ED1C24;stroke-width:1.4663;stroke-linecap:round;stroke-linejoin:round;stroke-miterlimit:10;}
	.st9{fill:none;stroke:#ED1C24;stroke-width:1.466;stroke-linecap:round;stroke-linejoin:round;}
	.st10{fill:#ED1C24;}
	.st11{fill:none;stroke:#15CCBA;stroke-width:2;stroke-miterlimit:10;}
	.st12{fill:none;stroke:#333333;stroke-width:2;stroke-linecap:round;stroke-linejoin:round;}
	.st13{fill:none;stroke:#15CCBA;stroke-width:2.3569;stroke-linecap:round;stroke-linejoin:round;stroke-miterlimit:10;}
	.st14{fill:none;stroke:#333333;stroke-width:2.357;stroke-linecap:round;stroke-linejoin:round;}
	.st15{fill:none;stroke:#333333;stroke-width:1.161;stroke-linecap:round;stroke-linejoin:round;stroke-miterlimit:10;}
	.st16{fill:none;stroke:#333333;stroke-width:2.357;stroke-linecap:round;stroke-linejoin:round;stroke-miterlimit:10;}
</style>
<g>
	<rect x="397.6" y="47.9" class="st1" width="35.6" height="5.4"/>
	<rect x="397.6" y="64.5" class="st1" width="35.6" height="5.4"/>
	<rect x="390.6" y="36.6" class="st6" width="49.7" height="11.3"/>
	<rect x="390.6" y="53.3" class="st6" width="49.7" height="11.3"/>
	<rect x="390.6" y="69.9" class="st6" width="49.7" height="11.3"/>
	<circle class="st3" cx="397.2" cy="42.3" r="1.8"/>
	<circle class="st3" cx="397.2" cy="58.9" r="1.8"/>
	<circle class="st3" cx="397.2" cy="75.6" r="1.8"/>
</g>
<g>
	<rect x="328.6" y="47.9" class="st1" width="35.6" height="5.4"/>
	<rect x="328.6" y="64.5" class="st1" width="35.6" height="5.4"/>
	<rect x="321.5" y="36.6" class="st6" width="49.7" height="11.3"/>
	<rect x="321.5" y="53.3" class="st6" width="49.7" height="11.3"/>
	<rect x="321.5" y="69.9" class="st6" width="49.7" height="11.3"/>
	<circle class="st3" cx="328.2" cy="42.3" r="1.8"/>
	<circle class="st3" cx="328.2" cy="58.9" r="1.8"/>
	<circle class="st3" cx="328.2" cy="75.6" r="1.8"/>
</g>
<g>
	<rect x="259.5" y="47.9" class="st1" width="35.6" height="5.4"/>
	<rect x="259.5" y="64.5" class="st1" width="35.6" height="5.4"/>
	<rect x="252.5" y="36.6" class="st6" width="49.7" height="11.3"/>
	<rect x="252.5" y="53.3" class="st6" width="49.7" height="11.3"/>
	<rect x="252.5" y="69.9" class="st6" width="49.7" height="11.3"/>
	<circle class="st3" cx="259.1" cy="42.3" r="1.8"/>
	<circle class="st3" cx="259.1" cy="58.9" r="1.8"/>
	<circle class="st3" cx="259.1" cy="75.6" r="1.8"/>
</g>
<g>
	<rect x="190.5" y="47.9" class="st1" width="35.6" height="5.4"/>
	<rect x="190.5" y="64.5" class="st1" width="35.6" height="5.4"/>
	<rect x="183.4" y="36.6" class="st6" width="49.7" height="11.3"/>
	<rect x="183.4" y="53.3" class="st6" width="49.7" height="11.3"/>
	<rect x="183.4" y="69.9" class="st6" width="49.7" height="11.3"/>
	<circle class="st3" cx="190.1" cy="42.3" r="1.8"/>
	<circle class="st3" cx="190.1" cy="58.9" r="1.8"/>
	<circle class="st3" cx="190.1" cy="75.6" r="1.8"/>
</g>
<g>
	<rect x="121.4" y="47.9" class="st1" width="35.6" height="5.4"/>
	<rect x="121.4" y="64.5" class="st1" width="35.6" height="5.4"/>
	<rect x="114.4" y="36.6" class="st6" width="49.7" height="11.3"/>
	<rect x="114.4" y="53.3" class="st6" width="49.7" height="11.3"/>
	<rect x="114.4" y="69.9" class="st6" width="49.7" height="11.3"/>
	<circle class="st3" cx="121" cy="42.3" r="1.8"/>
	<circle class="st3" cx="121" cy="58.9" r="1.8"/>
	<circle class="st3" cx="121" cy="75.6" r="1.8"/>
</g>
<g>
	<rect x="397.6" y="118.8" class="st1" width="35.6" height="5.4"/>
	<rect x="397.6" y="135.4" class="st1" width="35.6" height="5.4"/>
	<rect x="390.6" y="107.5" class="st6" width="49.7" height="11.3"/>
	<rect x="390.6" y="124.1" class="st6" width="49.7" height="11.3"/>
	<rect x="390.6" y="140.8" class="st6" width="49.7" height="11.3"/>
	<circle class="st3" cx="397.2" cy="113.1" r="1.8"/>
	<circle class="st3" cx="397.2" cy="129.8" r="1.8"/>
	<circle class="st3" cx="397.2" cy="146.4" r="1.8"/>
</g>
<g>
	<rect x="328.6" y="118.8" class="st1" width="35.6" height="5.4"/>
	<rect x="328.6" y="135.4" class="st1" width="35.6" height="5.4"/>
	<rect x="321.5" y="107.5" class="st6" width="49.7" height="11.3"/>
	<rect x="321.5" y="124.1" class="st6" width="49.7" height="11.3"/>
	<rect x="321.5" y="140.8" class="st6" width="49.7" height="11.3"/>
	<circle class="st3" cx="328.2" cy="113.1" r="1.8"/>
	<circle class="st3" cx="328.2" cy="129.8" r="1.8"/>
	<circle class="st3" cx="328.2" cy="146.4" r="1.8"/>
</g>
<g>
	<rect x="259.5" y="118.8" class="st1" width="35.6" height="5.4"/>
	<rect x="259.5" y="135.4" class="st1" width="35.6" height="5.4"/>
	<rect x="252.5" y="107.5" class="st6" width="49.7" height="11.3"/>
	<rect x="252.5" y="124.1" class="st6" width="49.7" height="11.3"/>
	<rect x="252.5" y="140.8" class="st6" width="49.7" height="11.3"/>
	<circle class="st3" cx="259.1" cy="113.1" r="1.8"/>
	<circle class="st3" cx="259.1" cy="129.8" r="1.8"/>
	<circle class="st3" cx="259.1" cy="146.4" r="1.8"/>
</g>
<g>
	<rect x="190.5" y="118.8" class="st1" width="35.6" height="5.4"/>
	<rect x="190.5" y="135.4" class="st1" width="35.6" height="5.4"/>
	<rect x="183.4" y="107.5" class="st6" width="49.7" height="11.3"/>
	<rect x="183.4" y="124.1" class="st6" width="49.7" height="11.3"/>
	<rect x="183.4" y="140.8" class="st6" width="49.7" height="11.3"/>
	<circle class="st3" cx="190.1" cy="113.1" r="1.8"/>
	<circle class="st3" cx="190.1" cy="129.8" r="1.8"/>
	<circle class="st3" cx="190.1" cy="146.4" r="1.8"/>
</g>
<g>
	<rect x="121.4" y="118.8" class="st1" width="35.6" height="5.4"/>
	<rect x="121.4" y="135.4" class="st1" width="35.6" height="5.4"/>
	<rect x="114.4" y="107.5" class="st6" width="49.7" height="11.3"/>
	<rect x="114.4" y="124.1" class="st6" width="49.7" height="11.3"/>
	<rect x="114.4" y="140.8" class="st6" width="49.7" height="11.3"/>
	<circle class="st3" cx="121" cy="113.1" r="1.8"/>
	<circle class="st3" cx="121" cy="129.8" r="1.8"/>
	<circle class="st3" cx="121" cy="146.4" r="1.8"/>
</g>
<path class="st7" d="M45.7,246.1L45.7,246.1c-1.2-0.7-1.6-2.3-0.8-3.5l21.5-34.9l4.4,2.7l-21.5,34.9
	C48.5,246.4,46.9,246.8,45.7,246.1z"/>
<polyline class="st8" points="77.8,203.3 72.7,211.6 64.4,206.4 69.5,198.1 "/>
<path class="st8" d="M76.2,205.9c2.1-3.3,21,13,21,13c-18.2-28.8-50.5-31.1-50.5-31.1s23.2,9.5,21.1,13"/>
<polyline class="st8" points="77.9,198.7 79.6,195.9 75.3,193.2 73.6,196 "/>
<g>
	<g>
		<line class="st9" x1="108.4" y1="211.6" x2="255.8" y2="163.1"/>
		<g>
			<polygon class="st10" points="253,170.3 251.7,169.6 255.2,163.2 248.7,160.2 249.3,158.9 257.3,162.6 			"/>
		</g>
	</g>
</g>
<g>
	<g>
		<line class="st9" x1="64.4" y1="176.6" x2="102.4" y2="94.7"/>
		<g>
			<polygon class="st10" points="105.8,101.6 104.4,102.1 102.1,95.2 95.4,97.9 94.9,96.6 103,93.2 			"/>
		</g>
	</g>
</g>
<g>
	<g>
		<line class="st9" x1="77.8" y1="187.1" x2="105" y2="136.3"/>
		<g>
			<polygon class="st10" points="107.9,143.4 106.5,143.8 104.7,136.8 97.9,139.1 97.4,137.8 105.7,134.9 			"/>
		</g>
	</g>
</g>
<g>
	<g>
		<line class="st9" x1="91.8" y1="198.1" x2="186.7" y2="161.5"/>
		<g>
			<polygon class="st10" points="184.3,168.9 183,168.2 186.2,161.8 179.5,159.1 180,157.7 188.2,161 			"/>
		</g>
	</g>
</g>
<g>
	<g>
		<line class="st9" x1="88.2" y1="183.2" x2="121.5" y2="161.8"/>
		<g>
			<polygon class="st10" points="120.7,169.5 119.2,169.1 121,162.1 113.9,160.9 114.2,159.4 122.8,161 			"/>
		</g>
	</g>
</g>
<g>
	<path d="M30.9,255.3h2v13.6h-2v-6.1h-7.6v6.1h-2v-13.6h2v5.9h7.6V255.3z"/>
	<path d="M43,260.2c0.6,0.6,0.9,1.6,0.9,2.9v5.8h-1.9v-1.6c-0.2,0.6-0.6,1-1.1,1.3s-1,0.4-1.7,0.4c-0.6,0-1.2-0.1-1.7-0.4
		c-0.5-0.3-0.9-0.6-1.2-1.1c-0.3-0.5-0.4-1-0.4-1.5c0-0.7,0.2-1.2,0.5-1.6c0.4-0.4,0.9-0.7,1.8-0.8c0.8-0.2,1.9-0.3,3.4-0.3h0.4
		v-0.6c0-0.7-0.2-1.2-0.5-1.6s-0.8-0.5-1.5-0.5c-1.1,0-2.1,0.3-3.2,1l-0.6-1.4c0.5-0.3,1.1-0.6,1.8-0.8s1.4-0.3,2.1-0.3
		C41.5,259.3,42.4,259.6,43,260.2z M41.4,266.9c0.5-0.5,0.7-1.1,0.7-1.9v-0.5h-0.3c-1,0-1.8,0-2.3,0.1c-0.5,0.1-0.9,0.2-1.2,0.5
		c-0.2,0.2-0.3,0.5-0.3,0.9c0,0.5,0.2,0.8,0.5,1.1c0.3,0.3,0.8,0.5,1.3,0.5C40.4,267.6,40.9,267.4,41.4,266.9z"/>
	<path d="M48.8,268.5c-0.7-0.4-1.2-1-1.6-1.7c-0.4-0.7-0.6-1.6-0.6-2.6s0.2-1.8,0.6-2.6c0.4-0.7,0.9-1.3,1.7-1.7
		c0.7-0.4,1.5-0.6,2.5-0.6c0.7,0,1.3,0.1,1.9,0.3c0.6,0.2,1.1,0.5,1.5,0.9l-0.6,1.4c-0.9-0.7-1.7-1-2.6-1c-0.9,0-1.6,0.3-2.1,0.9
		s-0.8,1.4-0.8,2.5c0,1.1,0.3,1.9,0.8,2.4c0.5,0.6,1.2,0.9,2.1,0.9c0.9,0,1.8-0.3,2.6-1l0.6,1.4c-0.4,0.4-0.9,0.7-1.5,0.9
		s-1.3,0.3-1.9,0.3C50.3,269.1,49.5,268.9,48.8,268.5z"/>
	<path d="M65.8,268.9h-2.5l-4.5-4.4v4.4h-2v-13.6h2v8.5l4.1-4.2h2.4L61,264L65.8,268.9z"/>
	<path d="M75.3,264.5h-6.7c0.1,2,1.1,3,3,3c1.1,0,2.1-0.4,2.9-1.1l0.6,1.4c-0.4,0.4-1,0.7-1.6,0.9s-1.3,0.3-2,0.3
		c-1.5,0-2.7-0.4-3.6-1.3c-0.9-0.9-1.3-2.1-1.3-3.6c0-1,0.2-1.8,0.6-2.6s0.9-1.3,1.6-1.7c0.7-0.4,1.5-0.6,2.3-0.6
		c1.3,0,2.3,0.4,3,1.2c0.7,0.8,1.1,2,1.1,3.4V264.5z M69.5,261.4c-0.4,0.5-0.7,1.1-0.8,2h5c0-0.9-0.3-1.5-0.7-2s-1-0.7-1.7-0.7
		C70.5,260.7,69.9,260.9,69.5,261.4z"/>
	<path d="M83.7,260.9l-1.2,0.1c-0.9,0.1-1.6,0.4-2,0.9c-0.4,0.5-0.6,1.1-0.6,1.8v5.2h-2v-9.4h1.9v1.6c0.5-1.1,1.5-1.7,3.1-1.8l0.6,0
		L83.7,260.9z"/>
</g>
</svg>
