<?xml version="1.0" encoding="utf-8"?>
<!-- Generator: Adobe Illustrator 22.1.0, SVG Export Plug-In . SVG Version: 6.00 Build 0)  -->
<svg version="1.1" id="Layer_1" xmlns="http://www.w3.org/2000/svg" xmlns:xlink="http://www.w3.org/1999/xlink" x="0px" y="0px"
	 viewBox="0 0 464.5 301.2" style="enable-background:new 0 0 464.5 301.2;" xml:space="preserve">
<style type="text/css">
	.st0{fill:#19191D;}
	.st1{fill:#CCCCCC;}
	.st2{fill:none;stroke:#333333;stroke-width:3.441;stroke-linecap:round;stroke-linejoin:round;stroke-miterlimit:10;}
	.st3{fill:#15CCBA;}
	.st4{fill:#333333;}
	.st5{fill:none;stroke:#333333;stroke-width:2;stroke-linecap:round;stroke-linejoin:round;stroke-miterlimit:10;}
	.st6{fill:none;stroke:#333333;stroke-width:2.3569;stroke-linecap:round;stroke-linejoin:round;stroke-miterlimit:10;}
	.st7{fill:#FFFFFF;stroke:#C1272D;stroke-width:1.4663;stroke-linecap:round;stroke-linejoin:round;stroke-miterlimit:10;}
	.st8{fill:none;stroke:#ED1C24;stroke-width:1.4663;stroke-linecap:round;stroke-linejoin:round;stroke-miterlimit:10;}
	.st9{fill:none;stroke:#ED1C24;stroke-width:1.466;stroke-linecap:round;stroke-linejoin:round;}
	.st10{fill:#ED1C24;}
	.st11{fill:none;stroke:#15CCBA;stroke-width:2;stroke-miterlimit:10;}
	.st12{fill:none;stroke:#333333;stroke-width:2;stroke-linecap:round;stroke-linejoin:round;}
	.st13{fill:none;stroke:#15CCBA;stroke-width:2.3569;stroke-linecap:round;stroke-linejoin:round;stroke-miterlimit:10;}
	.st14{fill:none;stroke:#333333;stroke-width:2.357;stroke-linecap:round;stroke-linejoin:round;}
	.st15{fill:none;stroke:#333333;stroke-width:1.161;stroke-linecap:round;stroke-linejoin:round;stroke-miterlimit:10;}
	.st16{fill:none;stroke:#333333;stroke-width:2.357;stroke-linecap:round;stroke-linejoin:round;stroke-miterlimit:10;}
</style>
<path class="st6" d="M318,63h-91.5c-5.8,0-10.5,4.7-10.5,10.5v154.2c0,5.8,4.7,10.5,10.5,10.5H318c5.8,0,10.5-4.7,10.5-10.5V73.5
	C328.5,67.7,323.8,63,318,63z"/>
<line class="st13" x1="220" y1="106.8" x2="324.5" y2="106.8"/>
<g>
	<line class="st13" x1="231.1" y1="69" x2="221.5" y2="87.7"/>
	<line class="st13" x1="250.5" y1="69" x2="234" y2="100.8"/>
	<line class="st13" x1="269.8" y1="69" x2="253.4" y2="100.8"/>
	<line class="st13" x1="289.2" y1="69" x2="272.7" y2="100.8"/>
	<line class="st13" x1="308.5" y1="69" x2="292" y2="100.8"/>
	<line class="st13" x1="323" y1="78.4" x2="311.4" y2="100.8"/>
</g>
<path class="st6" d="M230.6,89.6c0,0-12.7-25.4-48.7-20"/>
<g>
	<g>
		<path d="M138.6,72.4v1.6h-8.9v-1.5l4.7-5.1c0.6-0.7,1-1.3,1.3-1.8c0.3-0.5,0.4-1.1,0.4-1.6c0-0.7-0.2-1.2-0.6-1.6
			c-0.4-0.4-1-0.5-1.7-0.5c-1.3,0-2.5,0.5-3.8,1.5l-0.7-1.5c0.5-0.5,1.2-0.9,2-1.2c0.8-0.3,1.7-0.4,2.5-0.4c1.3,0,2.3,0.3,3.1,1
			c0.8,0.7,1.1,1.5,1.1,2.6c0,0.8-0.2,1.5-0.5,2.2s-0.9,1.5-1.7,2.4l-3.7,3.9H138.6z"/>
		<path d="M148.9,66c0.6,0.4,1.1,0.9,1.5,1.5s0.5,1.4,0.5,2.3c0,0.9-0.2,1.6-0.6,2.3c-0.4,0.7-1,1.2-1.7,1.6
			c-0.7,0.4-1.6,0.6-2.5,0.6c-0.8,0-1.7-0.1-2.5-0.4c-0.8-0.3-1.5-0.7-2-1.2l0.7-1.5c1.2,1,2.5,1.5,3.8,1.5c0.9,0,1.6-0.2,2.1-0.7
			c0.5-0.5,0.8-1.2,0.8-2c0-0.8-0.3-1.5-0.8-2c-0.5-0.5-1.2-0.8-2-0.8c-1.2,0-2.2,0.5-3,1.4H142v-8h8.4V62H144v4.3
			c0.7-0.6,1.6-0.9,2.7-0.9C147.5,65.4,148.3,65.6,148.9,66z"/>
		<path d="M154.1,67.5c-0.6-0.7-0.9-1.7-0.9-3.1c0-1.4,0.3-2.4,0.9-3.1c0.6-0.7,1.4-1.1,2.5-1.1c1.1,0,1.9,0.4,2.5,1.1
			c0.6,0.7,0.9,1.7,0.9,3.1c0,1.4-0.3,2.4-0.9,3.1c-0.6,0.7-1.4,1.1-2.5,1.1C155.6,68.6,154.7,68.2,154.1,67.5z M157.9,66.6
			c0.3-0.5,0.4-1.2,0.4-2.2c0-1-0.1-1.7-0.4-2.1c-0.3-0.5-0.7-0.7-1.3-0.7s-1,0.2-1.2,0.7c-0.3,0.4-0.4,1.2-0.4,2.2
			c0,1,0.1,1.7,0.4,2.2c0.3,0.5,0.7,0.7,1.2,0.7S157.6,67,157.9,66.6z M158,74.6l-1.4-0.8l8-13.9l1.4,0.8L158,74.6z M163.6,73.1
			c-0.6-0.7-0.9-1.7-0.9-3.1c0-1.4,0.3-2.4,0.9-3.1c0.6-0.7,1.4-1.1,2.5-1.1c1,0,1.9,0.4,2.5,1.1c0.6,0.7,0.9,1.7,0.9,3.1
			s-0.3,2.4-0.9,3.1s-1.4,1.1-2.5,1.1C165,74.2,164.2,73.8,163.6,73.1z M167.3,72.2c0.3-0.5,0.4-1.2,0.4-2.2c0-1-0.1-1.7-0.4-2.2
			c-0.3-0.5-0.7-0.7-1.2-0.7c-0.6,0-1,0.2-1.3,0.7c-0.3,0.5-0.4,1.2-0.4,2.2c0,1,0.1,1.7,0.4,2.2c0.3,0.5,0.7,0.7,1.3,0.7
			C166.7,72.9,167.1,72.6,167.3,72.2z"/>
		<path d="M115.4,92l0.6-1.4c1,0.7,2.1,1.1,3.4,1.1c0.6,0,1.1-0.1,1.5-0.3c0.3-0.2,0.5-0.5,0.5-0.9c0-0.3-0.1-0.6-0.3-0.8
			s-0.6-0.4-1.2-0.5l-1.6-0.3c-0.8-0.2-1.5-0.5-1.9-0.9c-0.4-0.4-0.6-1-0.6-1.7c0-0.9,0.3-1.5,1-2.1s1.6-0.8,2.7-0.8
			c0.7,0,1.3,0.1,1.9,0.3c0.6,0.2,1.1,0.5,1.6,0.9l-0.6,1.4c-0.9-0.7-1.9-1.1-2.9-1.1c-0.6,0-1.1,0.1-1.4,0.3
			c-0.3,0.2-0.5,0.5-0.5,0.9c0,0.3,0.1,0.6,0.3,0.8c0.2,0.2,0.6,0.4,1,0.5l1.6,0.4c0.9,0.2,1.6,0.5,2,1c0.4,0.4,0.6,1,0.6,1.7
			c0,0.9-0.3,1.5-1,2c-0.7,0.5-1.6,0.7-2.8,0.7C117.7,93.2,116.4,92.8,115.4,92z"/>
		<path d="M132.5,84.3c0.6,0.6,0.9,1.6,0.9,2.9v5.8h-1.9v-1.6c-0.2,0.6-0.6,1-1.1,1.3s-1,0.4-1.7,0.4c-0.6,0-1.2-0.1-1.7-0.4
			c-0.5-0.3-0.9-0.6-1.2-1.1c-0.3-0.5-0.4-1-0.4-1.5c0-0.7,0.2-1.2,0.5-1.6s0.9-0.7,1.8-0.8c0.8-0.2,1.9-0.3,3.4-0.3h0.4V87
			c0-0.7-0.2-1.2-0.5-1.6c-0.3-0.3-0.8-0.5-1.5-0.5c-1.1,0-2.1,0.3-3.2,1l-0.6-1.4c0.5-0.3,1.1-0.6,1.8-0.8c0.7-0.2,1.4-0.3,2.1-0.3
			C131,83.4,131.9,83.7,132.5,84.3z M130.9,91c0.5-0.5,0.7-1.1,0.7-1.9v-0.5h-0.3c-1,0-1.8,0-2.3,0.1c-0.5,0.1-0.9,0.2-1.2,0.5
			c-0.2,0.2-0.3,0.5-0.3,0.9c0,0.5,0.2,0.8,0.5,1.1c0.3,0.3,0.8,0.5,1.3,0.5C129.9,91.7,130.4,91.5,130.9,91z"/>
		<path d="M143.3,83.6h2l-4.1,9.4h-1.8l-4.1-9.4h2l2.9,7.2L143.3,83.6z"/>
		<path d="M147,79.4h2.2v2H147V79.4z M147.2,93.1v-9.4h2v9.4H147.2z"/>
		<path d="M160.8,87.2v5.9h-2v-5.8c0-0.8-0.2-1.4-0.5-1.8c-0.3-0.4-0.8-0.6-1.5-0.6c-0.8,0-1.4,0.2-1.9,0.7c-0.5,0.5-0.7,1.1-0.7,2
			v5.4h-2v-9.4h1.9v1.5c0.3-0.6,0.7-1,1.3-1.3c0.6-0.3,1.2-0.4,1.9-0.4C159.7,83.4,160.8,84.7,160.8,87.2z"/>
		<path d="M172.7,83.6v8.7c0,1.4-0.4,2.5-1.2,3.3c-0.8,0.7-1.9,1.1-3.4,1.1c-0.8,0-1.6-0.1-2.3-0.3s-1.4-0.5-1.9-0.9l0.6-1.4
			c0.6,0.4,1.2,0.7,1.8,0.9c0.6,0.2,1.2,0.3,1.8,0.3c1.8,0,2.6-0.9,2.6-2.7V91c-0.3,0.6-0.7,1-1.2,1.3c-0.6,0.3-1.2,0.5-1.9,0.5
			c-0.8,0-1.6-0.2-2.2-0.6c-0.6-0.4-1.1-0.9-1.5-1.6s-0.5-1.5-0.5-2.5c0-0.9,0.2-1.7,0.5-2.5c0.4-0.7,0.9-1.3,1.5-1.7
			c0.6-0.4,1.4-0.6,2.2-0.6c0.7,0,1.4,0.2,1.9,0.5c0.5,0.3,1,0.7,1.2,1.3v-1.5H172.7z M170.1,90.4c0.5-0.6,0.7-1.3,0.7-2.3
			c0-1-0.2-1.7-0.7-2.3c-0.5-0.6-1.1-0.8-2-0.8s-1.5,0.3-2,0.8c-0.5,0.6-0.7,1.3-0.7,2.3s0.2,1.7,0.7,2.3c0.5,0.6,1.2,0.8,2,0.8
			S169.6,90.9,170.1,90.4z"/>
		<path d="M175.3,92l0.6-1.4c1,0.7,2.1,1.1,3.4,1.1c0.6,0,1.1-0.1,1.5-0.3c0.3-0.2,0.5-0.5,0.5-0.9c0-0.3-0.1-0.6-0.3-0.8
			s-0.6-0.4-1.2-0.5l-1.6-0.3c-0.8-0.2-1.5-0.5-1.9-0.9c-0.4-0.4-0.6-1-0.6-1.7c0-0.9,0.3-1.5,1-2.1s1.6-0.8,2.7-0.8
			c0.7,0,1.3,0.1,1.9,0.3c0.6,0.2,1.1,0.5,1.6,0.9l-0.6,1.4c-0.9-0.7-1.9-1.1-2.9-1.1c-0.6,0-1.1,0.1-1.4,0.3
			c-0.3,0.2-0.5,0.5-0.5,0.9c0,0.3,0.1,0.6,0.3,0.8c0.2,0.2,0.6,0.4,1,0.5l1.6,0.4c0.9,0.2,1.6,0.5,2,1c0.4,0.4,0.6,1,0.6,1.7
			c0,0.9-0.3,1.5-1,2c-0.7,0.5-1.6,0.7-2.8,0.7C177.6,93.2,176.3,92.8,175.3,92z"/>
	</g>
</g>
</svg>
