<?xml version="1.0" encoding="utf-8"?>
<!-- Generator: Adobe Illustrator 22.1.0, SVG Export Plug-In . SVG Version: 6.00 Build 0)  -->
<svg version="1.1" id="Layer_1" xmlns="http://www.w3.org/2000/svg" xmlns:xlink="http://www.w3.org/1999/xlink" x="0px" y="0px"
	 viewBox="0 0 490.9 475.5" style="enable-background:new 0 0 490.9 475.5;" xml:space="preserve">
<style type="text/css">
	.st0{fill:#19191D;}
	.st1{fill:#CCCCCC;}
	.st2{fill:none;stroke:#333333;stroke-width:3.441;stroke-linecap:round;stroke-linejoin:round;stroke-miterlimit:10;}
	.st3{fill:#15CCBA;}
	.st4{fill:#333333;}
	.st5{fill:none;stroke:#333333;stroke-width:2;stroke-linecap:round;stroke-linejoin:round;stroke-miterlimit:10;}
	.st6{fill:none;stroke:#333333;stroke-width:2.3569;stroke-linecap:round;stroke-linejoin:round;stroke-miterlimit:10;}
	.st7{fill:#FFFFFF;stroke:#C1272D;stroke-width:1.4663;stroke-linecap:round;stroke-linejoin:round;stroke-miterlimit:10;}
	.st8{fill:none;stroke:#ED1C24;stroke-width:1.4663;stroke-linecap:round;stroke-linejoin:round;stroke-miterlimit:10;}
	.st9{fill:none;stroke:#ED1C24;stroke-width:1.466;stroke-linecap:round;stroke-linejoin:round;}
	.st10{fill:#ED1C24;}
	.st11{fill:none;stroke:#15CCBA;stroke-width:2;stroke-miterlimit:10;}
	.st12{fill:none;stroke:#333333;stroke-width:2;stroke-linecap:round;stroke-linejoin:round;}
	.st13{fill:none;stroke:#15CCBA;stroke-width:2.3569;stroke-linecap:round;stroke-linejoin:round;stroke-miterlimit:10;}
	.st14{fill:none;stroke:#333333;stroke-width:2.357;stroke-linecap:round;stroke-linejoin:round;}
	.st15{fill:none;stroke:#333333;stroke-width:1.161;stroke-linecap:round;stroke-linejoin:round;stroke-miterlimit:10;}
	.st16{fill:none;stroke:#333333;stroke-width:2.357;stroke-linecap:round;stroke-linejoin:round;stroke-miterlimit:10;}
</style>
<g>
	<g>
		<polyline class="st14" points="407.4,377.3 101,377.3 101,70.9 		"/>
		<g>
			<polygon class="st4" points="399.6,367.6 398,369.4 406.5,377.3 398,385.2 399.6,386.9 409.9,377.3 			"/>
		</g>
		<g>
			<polygon class="st4" points="110.6,78.7 108.9,80.3 101,71.8 93,80.3 91.3,78.7 101,68.3 			"/>
		</g>
	</g>
</g>
<g>
	<g>
		<path d="M78.7,49.9v-12h-4.6v-1.7h11.2v1.7h-4.6v12H78.7z"/>
		<path d="M87.5,49.4c-0.7-0.4-1.2-1-1.6-1.7c-0.4-0.7-0.6-1.6-0.6-2.6c0-1,0.2-1.9,0.6-2.6c0.4-0.7,0.9-1.3,1.6-1.7
			c0.7-0.4,1.5-0.6,2.4-0.6c0.9,0,1.7,0.2,2.4,0.6c0.7,0.4,1.2,1,1.6,1.7c0.4,0.7,0.6,1.6,0.6,2.6c0,1-0.2,1.8-0.6,2.6
			c-0.4,0.7-0.9,1.3-1.6,1.7C91.7,49.8,90.9,50,90,50C89,50,88.2,49.8,87.5,49.4z M92,47.6c0.5-0.6,0.7-1.4,0.7-2.5
			c0-1.1-0.2-1.9-0.7-2.5c-0.5-0.6-1.1-0.9-2-0.9c-0.9,0-1.5,0.3-2,0.9c-0.5,0.6-0.7,1.4-0.7,2.5c0,1.1,0.2,1.9,0.7,2.5
			c0.5,0.6,1.1,0.9,2,0.9C90.8,48.5,91.5,48.2,92,47.6z"/>
		<path d="M106.2,49.9h-2.5l-4.5-4.4v4.4h-2V36.3h2v8.5l4.1-4.2h2.4l-4.5,4.5L106.2,49.9z"/>
		<path d="M115.7,45.5H109c0.1,2,1.1,3,3,3c1.1,0,2.1-0.4,2.9-1.1l0.6,1.4c-0.4,0.4-1,0.7-1.6,0.9s-1.3,0.3-2,0.3
			c-1.5,0-2.7-0.4-3.6-1.3c-0.9-0.9-1.3-2.1-1.3-3.6c0-1,0.2-1.8,0.6-2.6c0.4-0.7,0.9-1.3,1.6-1.7c0.7-0.4,1.5-0.6,2.3-0.6
			c1.3,0,2.3,0.4,3,1.2c0.7,0.8,1.1,2,1.1,3.4V45.5z M109.8,42.4c-0.4,0.5-0.7,1.1-0.8,2h5c0-0.9-0.3-1.5-0.7-2s-1-0.7-1.7-0.7
			C110.9,41.7,110.3,41.9,109.8,42.4z"/>
		<path d="M126.8,44v5.9h-2v-5.8c0-0.8-0.2-1.4-0.5-1.8c-0.3-0.4-0.8-0.6-1.5-0.6c-0.8,0-1.4,0.2-1.9,0.7c-0.5,0.5-0.7,1.1-0.7,2
			v5.4h-2v-9.4h1.9V42c0.3-0.6,0.7-1,1.3-1.3c0.6-0.3,1.2-0.4,1.9-0.4C125.6,40.2,126.8,41.5,126.8,44z"/>
	</g>
</g>
<g>
	<g>
		<path d="M371.4,417.9v-12h-4.6v-1.7h11.2v1.7h-4.6v12H371.4z"/>
		<path d="M380,404.3h2.2v2H380V404.3z M380.1,417.9v-9.4h2v9.4H380.1z"/>
		<path d="M399.3,412v5.9h-2v-5.8c0-0.8-0.1-1.4-0.4-1.8c-0.3-0.4-0.7-0.6-1.3-0.6c-0.7,0-1.3,0.2-1.7,0.7c-0.4,0.5-0.6,1.2-0.6,2
			v5.3h-2v-5.8c0-0.8-0.1-1.4-0.4-1.8s-0.7-0.6-1.3-0.6c-0.7,0-1.3,0.2-1.7,0.7c-0.4,0.5-0.6,1.2-0.6,2v5.3h-2v-9.4h1.9v1.4
			c0.3-0.5,0.7-0.9,1.2-1.2s1.1-0.4,1.7-0.4c1.5,0,2.4,0.6,2.8,1.8c0.3-0.6,0.7-1,1.3-1.3c0.6-0.3,1.2-0.5,1.9-0.5
			C398.2,408.2,399.3,409.5,399.3,412z"/>
		<path d="M410.5,413.5h-6.7c0.1,2,1.1,3,3,3c1.1,0,2.1-0.4,2.9-1.1l0.6,1.4c-0.4,0.4-1,0.7-1.6,0.9s-1.3,0.3-2,0.3
			c-1.5,0-2.7-0.4-3.6-1.3c-0.9-0.9-1.3-2.1-1.3-3.6c0-1,0.2-1.8,0.6-2.6c0.4-0.7,0.9-1.3,1.6-1.7s1.5-0.6,2.3-0.6
			c1.3,0,2.3,0.4,3,1.2c0.7,0.8,1.1,2,1.1,3.4V413.5z M404.7,410.4c-0.4,0.5-0.7,1.1-0.8,2h5c0-0.9-0.3-1.5-0.7-2s-1-0.7-1.7-0.7
			C405.7,409.7,405.1,409.9,404.7,410.4z"/>
		<path d="M413.1,417.9v-13.6h2v13.6H413.1z"/>
		<path d="M418.2,404.3h2.2v2h-2.2V404.3z M418.3,417.9v-9.4h2v9.4H418.3z"/>
		<path d="M431.9,412v5.9h-2v-5.8c0-0.8-0.2-1.4-0.5-1.8c-0.3-0.4-0.8-0.6-1.5-0.6c-0.8,0-1.4,0.2-1.9,0.7c-0.5,0.5-0.7,1.1-0.7,2
			v5.4h-2v-9.4h1.9v1.5c0.3-0.6,0.7-1,1.3-1.3c0.6-0.3,1.2-0.4,1.9-0.4C430.8,408.2,431.9,409.5,431.9,412z"/>
		<path d="M443.2,413.5h-6.7c0.1,2,1.1,3,3,3c1.1,0,2.1-0.4,2.9-1.1l0.6,1.4c-0.4,0.4-1,0.7-1.6,0.9s-1.3,0.3-2,0.3
			c-1.5,0-2.7-0.4-3.6-1.3c-0.9-0.9-1.3-2.1-1.3-3.6c0-1,0.2-1.8,0.6-2.6c0.4-0.7,0.9-1.3,1.6-1.7c0.7-0.4,1.5-0.6,2.3-0.6
			c1.3,0,2.3,0.4,3,1.2c0.7,0.8,1.1,2,1.1,3.4V413.5z M437.3,410.4c-0.4,0.5-0.7,1.1-0.8,2h5c0-0.9-0.3-1.5-0.7-2s-1-0.7-1.7-0.7
			C438.4,409.7,437.8,409.9,437.3,410.4z"/>
	</g>
</g>
<g>
	<g>
		<path d="M139.2,404.3h1.9v13.6h-1.5l-7.8-10.3v10.3h-1.9v-13.6h1.5l7.8,10.3V404.3z"/>
		<path d="M146.1,417.4c-0.7-0.4-1.2-1-1.6-1.7c-0.4-0.7-0.6-1.6-0.6-2.6c0-1,0.2-1.9,0.6-2.6c0.4-0.7,0.9-1.3,1.6-1.7
			c0.7-0.4,1.5-0.6,2.4-0.6c0.9,0,1.7,0.2,2.4,0.6c0.7,0.4,1.2,1,1.6,1.7c0.4,0.7,0.6,1.6,0.6,2.6c0,1-0.2,1.8-0.6,2.6
			c-0.4,0.7-0.9,1.3-1.6,1.7c-0.7,0.4-1.5,0.6-2.4,0.6C147.6,418,146.8,417.8,146.1,417.4z M150.5,415.6c0.5-0.6,0.7-1.4,0.7-2.5
			c0-1.1-0.2-1.9-0.7-2.5c-0.5-0.6-1.1-0.9-2-0.9s-1.5,0.3-2,0.9c-0.5,0.6-0.7,1.4-0.7,2.5c0,1.1,0.2,1.9,0.7,2.5
			c0.5,0.6,1.1,0.9,2,0.9S150.1,416.2,150.5,415.6z"/>
		<path d="M168.5,408.5h1.9l-3.6,9.4h-1.8l-2.5-6.7l-2.5,6.7h-1.8l-3.6-9.4h2l2.6,7.1l2.6-7.1h1.5l2.6,7.1L168.5,408.5z"/>
	</g>
</g>
<g>
	<g>
		<path d="M250.2,412.1c0.4,0.6,0.6,1.3,0.6,2.1c0,1.2-0.4,2.1-1.3,2.8c-0.8,0.7-2,1-3.4,1c-0.9,0-1.8-0.1-2.6-0.4
			c-0.8-0.3-1.5-0.7-2.1-1.2l0.7-1.5c1.2,1,2.5,1.5,3.9,1.5c0.9,0,1.6-0.2,2.1-0.6c0.5-0.4,0.7-1,0.7-1.8c0-0.8-0.2-1.3-0.7-1.7
			c-0.5-0.4-1.2-0.6-2.2-0.6h-1.7v-1.6h1.4c0.9,0,1.7-0.2,2.2-0.6c0.5-0.4,0.7-1,0.7-1.7c0-0.7-0.2-1.2-0.6-1.6
			c-0.4-0.4-1-0.6-1.7-0.6c-1.3,0-2.6,0.5-3.8,1.5l-0.7-1.5c0.5-0.5,1.2-0.9,2-1.2c0.8-0.3,1.7-0.4,2.5-0.4c1.3,0,2.3,0.3,3.1,0.9
			c0.8,0.6,1.1,1.5,1.1,2.6c0,0.8-0.2,1.4-0.6,2s-0.9,1-1.6,1.3C249.2,411.1,249.8,411.5,250.2,412.1z"/>
		<path d="M260.7,408.5h2l-5.6,12.9h-2l1.6-3.7l-4-9.2h2l2.9,7.2L260.7,408.5z"/>
		<path d="M270.3,409.9l-1.2,0.1c-0.9,0.1-1.6,0.4-2,0.9c-0.4,0.5-0.6,1.1-0.6,1.8v5.2h-2v-9.4h1.9v1.6c0.5-1.1,1.5-1.7,3.1-1.8
			l0.6,0L270.3,409.9z"/>
		<path d="M271.4,416.8l0.6-1.4c1,0.7,2.1,1.1,3.4,1.1c0.6,0,1.1-0.1,1.5-0.3c0.3-0.2,0.5-0.5,0.5-0.9c0-0.3-0.1-0.6-0.3-0.8
			s-0.6-0.4-1.2-0.5l-1.6-0.3c-0.8-0.2-1.5-0.5-1.9-0.9c-0.4-0.4-0.6-1-0.6-1.7c0-0.9,0.3-1.5,1-2.1s1.6-0.8,2.7-0.8
			c0.7,0,1.3,0.1,1.9,0.3c0.6,0.2,1.1,0.5,1.6,0.9l-0.6,1.4c-0.9-0.7-1.9-1.1-2.9-1.1c-0.6,0-1.1,0.1-1.4,0.3
			c-0.3,0.2-0.5,0.5-0.5,0.9c0,0.3,0.1,0.6,0.3,0.8c0.2,0.2,0.6,0.4,1,0.5l1.6,0.4c0.9,0.2,1.6,0.5,2,1c0.4,0.4,0.6,1,0.6,1.7
			c0,0.9-0.3,1.5-1,2c-0.7,0.5-1.6,0.7-2.8,0.7C273.7,418,272.4,417.6,271.4,416.8z"/>
	</g>
</g>
<g>
	<g>
		<path d="M314.5,413.5v1.6h-2v2.8h-2v-2.8h-6.1v-1.5l6.5-9.3h1.6v9.2H314.5z M306.4,413.5h4.2v-6L306.4,413.5z"/>
		<path d="M323.7,408.5h2l-5.6,12.9h-2l1.6-3.7l-4-9.2h2l2.9,7.2L323.7,408.5z"/>
		<path d="M333.3,409.9l-1.2,0.1c-0.9,0.1-1.6,0.4-2,0.9c-0.4,0.5-0.6,1.1-0.6,1.8v5.2h-2v-9.4h1.9v1.6c0.5-1.1,1.5-1.7,3.1-1.8
			l0.6,0L333.3,409.9z"/>
		<path d="M334.4,416.8l0.6-1.4c1,0.7,2.1,1.1,3.4,1.1c0.6,0,1.1-0.1,1.5-0.3c0.3-0.2,0.5-0.5,0.5-0.9c0-0.3-0.1-0.6-0.3-0.8
			s-0.6-0.4-1.2-0.5l-1.6-0.3c-0.8-0.2-1.5-0.5-1.9-0.9c-0.4-0.4-0.6-1-0.6-1.7c0-0.9,0.3-1.5,1-2.1s1.6-0.8,2.7-0.8
			c0.7,0,1.3,0.1,1.9,0.3c0.6,0.2,1.1,0.5,1.6,0.9l-0.6,1.4c-0.9-0.7-1.9-1.1-2.9-1.1c-0.6,0-1.1,0.1-1.4,0.3
			c-0.3,0.2-0.5,0.5-0.5,0.9c0,0.3,0.1,0.6,0.3,0.8c0.2,0.2,0.6,0.4,1,0.5l1.6,0.4c0.9,0.2,1.6,0.5,2,1c0.4,0.4,0.6,1,0.6,1.7
			c0,0.9-0.3,1.5-1,2c-0.7,0.5-1.6,0.7-2.8,0.7C336.7,418,335.4,417.6,334.4,416.8z"/>
	</g>
</g>
<line class="st16" x1="149.5" y1="363.5" x2="149.5" y2="377.3"/>
<line class="st16" x1="323.3" y1="231.5" x2="323.3" y2="377.3"/>
<line class="st16" x1="260.3" y1="274.7" x2="260.3" y2="377.3"/>
<path class="st11" d="M149.5,352.5l108.1-89.8c1.8-1.5,3.7-2.9,5.6-4.1l51-33c6-3.9,12.6-6.6,19.6-8.1l67.6-14.4"/>
</svg>
