<?xml version="1.0" encoding="utf-8"?>
<!-- Generator: Adobe Illustrator 22.1.0, SVG Export Plug-In . SVG Version: 6.00 Build 0)  -->
<svg version="1.1" id="Layer_1" xmlns="http://www.w3.org/2000/svg" xmlns:xlink="http://www.w3.org/1999/xlink" x="0px" y="0px"
	 viewBox="0 0 350 350" style="enable-background:new 0 0 350 350;" xml:space="preserve">
<style type="text/css">
	.st0{fill:none;stroke:#15CCBA;stroke-width:2;stroke-miterlimit:10;}
	.st1{fill:#19191D;}
	.st2{fill:#CCCCCC;}
	.st3{fill:none;stroke:#333333;stroke-width:3.441;stroke-linecap:round;stroke-linejoin:round;stroke-miterlimit:10;}
	.st4{fill:#15CCBA;}
	.st5{fill:#333333;}
	.st6{fill:none;stroke:#333333;stroke-width:2;stroke-linecap:round;stroke-linejoin:round;stroke-miterlimit:10;}
	.st7{fill:none;stroke:#333333;stroke-width:2.3569;stroke-linecap:round;stroke-linejoin:round;stroke-miterlimit:10;}
	.st8{fill:#FFFFFF;stroke:#C1272D;stroke-width:1.4663;stroke-linecap:round;stroke-linejoin:round;stroke-miterlimit:10;}
	.st9{fill:none;stroke:#ED1C24;stroke-width:1.4663;stroke-linecap:round;stroke-linejoin:round;stroke-miterlimit:10;}
	.st10{fill:none;stroke:#ED1C24;stroke-width:1.466;stroke-linecap:round;stroke-linejoin:round;}
	.st11{fill:#ED1C24;}
	.st12{fill:none;stroke:#333333;stroke-width:2;stroke-linecap:round;stroke-linejoin:round;}
	.st13{fill:none;stroke:#15CCBA;stroke-width:2.3569;stroke-linecap:round;stroke-linejoin:round;stroke-miterlimit:10;}
	.st14{fill:none;stroke:#333333;stroke-width:2.357;stroke-linecap:round;stroke-linejoin:round;}
	.st15{fill:none;stroke:#333333;stroke-width:2.357;stroke-linecap:round;stroke-linejoin:round;stroke-miterlimit:10;}
	.st16{fill:none;stroke:#662D91;stroke-width:2.3569;stroke-linecap:round;stroke-linejoin:round;stroke-miterlimit:10;}
</style>
<g>
	<g>
		<path d="M87.8,179h3v1.6h-8V179h3v-9.6l-2.4,1.5l-0.9-1.5l3.8-2.3h1.4V179z"/>
		<path d="M94.7,179.1c-0.8-1.2-1.2-2.9-1.2-5.2s0.4-4,1.2-5.2c0.8-1.2,2-1.8,3.6-1.8s2.8,0.6,3.6,1.8c0.8,1.2,1.2,2.9,1.2,5.2
			c0,2.3-0.4,4-1.2,5.2c-0.8,1.2-2,1.8-3.6,1.8S95.5,180.3,94.7,179.1z M100.5,177.9c0.5-0.9,0.7-2.2,0.7-4.1c0-1.8-0.2-3.2-0.7-4.1
			c-0.5-0.9-1.2-1.3-2.2-1.3c-1,0-1.7,0.4-2.2,1.3s-0.7,2.2-0.7,4.1s0.2,3.2,0.7,4.1s1.2,1.3,2.2,1.3
			C99.3,179.2,100,178.8,100.5,177.9z"/>
		<path d="M106.8,179.1c-0.8-1.2-1.2-2.9-1.2-5.2s0.4-4,1.2-5.2c0.8-1.2,2-1.8,3.6-1.8s2.8,0.6,3.6,1.8c0.8,1.2,1.2,2.9,1.2,5.2
			c0,2.3-0.4,4-1.2,5.2c-0.8,1.2-2,1.8-3.6,1.8S107.6,180.3,106.8,179.1z M112.6,177.9c0.5-0.9,0.7-2.2,0.7-4.1
			c0-1.8-0.2-3.2-0.7-4.1c-0.5-0.9-1.2-1.3-2.2-1.3c-1,0-1.7,0.4-2.2,1.3s-0.7,2.2-0.7,4.1s0.2,3.2,0.7,4.1s1.2,1.3,2.2,1.3
			C111.4,179.2,112.1,178.8,112.6,177.9z"/>
		<path d="M118.6,174.2c-0.6-0.7-0.9-1.7-0.9-3.1s0.3-2.4,0.9-3.1c0.6-0.7,1.4-1.1,2.5-1.1c1.1,0,1.9,0.4,2.5,1.1
			c0.6,0.7,0.9,1.7,0.9,3.1c0,1.4-0.3,2.4-0.9,3.1c-0.6,0.7-1.4,1.1-2.5,1.1C120,175.2,119.1,174.9,118.6,174.2z M122.3,173.2
			c0.3-0.5,0.4-1.2,0.4-2.2c0-1-0.1-1.7-0.4-2.1c-0.3-0.5-0.7-0.7-1.3-0.7c-0.6,0-1,0.2-1.2,0.7c-0.3,0.4-0.4,1.2-0.4,2.2
			c0,1,0.1,1.7,0.4,2.2c0.3,0.5,0.7,0.7,1.2,0.7C121.6,173.9,122,173.7,122.3,173.2z M122.4,181.2l-1.4-0.8l8-13.9l1.4,0.8
			L122.4,181.2z M128,179.8c-0.6-0.7-0.9-1.7-0.9-3.1c0-1.4,0.3-2.4,0.9-3.1c0.6-0.7,1.4-1.1,2.5-1.1c1,0,1.9,0.4,2.5,1.1
			c0.6,0.7,0.9,1.7,0.9,3.1s-0.3,2.4-0.9,3.1s-1.4,1.1-2.5,1.1C129.4,180.8,128.6,180.5,128,179.8z M131.7,178.8
			c0.3-0.5,0.4-1.2,0.4-2.2c0-1-0.1-1.7-0.4-2.2c-0.3-0.5-0.7-0.7-1.2-0.7c-0.6,0-1,0.2-1.3,0.7c-0.3,0.5-0.4,1.2-0.4,2.2
			c0,1,0.1,1.7,0.4,2.2c0.3,0.5,0.7,0.7,1.3,0.7C131.1,179.5,131.5,179.3,131.7,178.8z"/>
		<path d="M144.8,171.3h2.6v1.5h-2.6v7.9h-2v-7.9H141v-1.5h1.8v-0.2c0-1.3,0.3-2.3,1-2.9c0.7-0.7,1.7-1,3-1.1l0.9,0l0.1,1.5
			l-0.9,0.1c-0.8,0-1.3,0.2-1.7,0.6c-0.3,0.4-0.5,0.9-0.5,1.6V171.3z"/>
		<path d="M150.9,180.2c-0.7-0.4-1.2-1-1.6-1.7s-0.6-1.6-0.6-2.6c0-1,0.2-1.9,0.6-2.6c0.4-0.7,0.9-1.3,1.6-1.7
			c0.7-0.4,1.5-0.6,2.4-0.6s1.7,0.2,2.4,0.6s1.2,1,1.6,1.7c0.4,0.7,0.6,1.6,0.6,2.6c0,1-0.2,1.8-0.6,2.6s-0.9,1.3-1.6,1.7
			s-1.5,0.6-2.4,0.6S151.6,180.6,150.9,180.2z M155.3,178.4c0.5-0.6,0.7-1.4,0.7-2.5c0-1.1-0.2-1.9-0.7-2.5c-0.5-0.6-1.1-0.9-2-0.9
			c-0.9,0-1.5,0.3-2,0.9c-0.5,0.6-0.7,1.4-0.7,2.5c0,1.1,0.2,1.9,0.7,2.5c0.5,0.6,1.1,0.9,2,0.9C154.2,179.3,154.9,179,155.3,178.4z
			"/>
		<path d="M166.4,172.7l-1.2,0.1c-0.9,0.1-1.6,0.4-2,0.9c-0.4,0.5-0.6,1.1-0.6,1.8v5.2h-2v-9.4h1.9v1.6c0.5-1.1,1.5-1.7,3.1-1.8
			l0.6,0L166.4,172.7z"/>
		<path d="M179.1,179.3l-0.1,1.5c-0.3,0.1-0.7,0.1-1,0.1c-1.2,0-2.1-0.3-2.7-0.9c-0.6-0.6-0.9-1.5-0.9-2.6v-4.6h-1.8v-1.5h1.8v-2.8
			h2v2.8h2.6v1.5h-2.6v4.5c0,1.4,0.6,2.1,1.9,2.1C178.5,179.3,178.8,179.3,179.1,179.3z"/>
		<path d="M189.5,174.8v5.9h-2v-5.8c0-0.8-0.2-1.4-0.5-1.8c-0.3-0.4-0.8-0.6-1.5-0.6c-0.8,0-1.4,0.2-1.9,0.7c-0.5,0.5-0.7,1.1-0.7,2
			v5.4h-2v-13.6h2v5.6c0.3-0.5,0.8-1,1.3-1.2c0.5-0.3,1.2-0.4,1.8-0.4C188.4,171,189.5,172.3,189.5,174.8z"/>
		<path d="M200.8,176.3h-6.7c0.1,2,1.1,3,3,3c1.1,0,2.1-0.4,2.9-1.1l0.6,1.4c-0.4,0.4-1,0.7-1.6,0.9s-1.3,0.3-2,0.3
			c-1.5,0-2.7-0.4-3.6-1.3c-0.9-0.9-1.3-2.1-1.3-3.6c0-1,0.2-1.8,0.6-2.6s0.9-1.3,1.6-1.7c0.7-0.4,1.5-0.6,2.3-0.6
			c1.3,0,2.3,0.4,3,1.2c0.7,0.8,1.1,2,1.1,3.4V176.3z M194.9,173.2c-0.4,0.5-0.7,1.1-0.8,2h5c0-0.9-0.3-1.5-0.7-2s-1-0.7-1.7-0.7
			C196,172.5,195.4,172.7,194.9,173.2z"/>
		<path d="M223,174.8v5.9h-2v-5.8c0-0.8-0.1-1.4-0.4-1.8c-0.3-0.4-0.7-0.6-1.3-0.6c-0.7,0-1.3,0.2-1.7,0.7c-0.4,0.5-0.6,1.2-0.6,2
			v5.3h-2v-5.8c0-0.8-0.1-1.4-0.4-1.8c-0.3-0.4-0.7-0.6-1.3-0.6c-0.7,0-1.3,0.2-1.7,0.7c-0.4,0.5-0.6,1.2-0.6,2v5.3h-2v-9.4h1.9v1.4
			c0.3-0.5,0.7-0.9,1.2-1.2c0.5-0.3,1.1-0.4,1.7-0.4c1.5,0,2.4,0.6,2.8,1.8c0.3-0.6,0.7-1,1.3-1.3c0.6-0.3,1.2-0.5,1.9-0.5
			C221.9,171,223,172.3,223,174.8z"/>
		<path d="M226,167h2.2v2H226V167z M226.2,180.7v-9.4h2v9.4H226.2z"/>
		<path d="M239.8,174.8v5.9h-2v-5.8c0-0.8-0.2-1.4-0.5-1.8c-0.3-0.4-0.8-0.6-1.5-0.6c-0.8,0-1.4,0.2-1.9,0.7c-0.5,0.5-0.7,1.1-0.7,2
			v5.4h-2v-9.4h1.9v1.5c0.3-0.6,0.7-1,1.3-1.3s1.2-0.4,1.9-0.4C238.7,171,239.8,172.3,239.8,174.8z"/>
		<path d="M251,176.3h-6.7c0.1,2,1.1,3,3,3c1.1,0,2.1-0.4,2.9-1.1l0.6,1.4c-0.4,0.4-1,0.7-1.6,0.9s-1.3,0.3-2,0.3
			c-1.5,0-2.7-0.4-3.6-1.3c-0.9-0.9-1.3-2.1-1.3-3.6c0-1,0.2-1.8,0.6-2.6s0.9-1.3,1.6-1.7c0.7-0.4,1.5-0.6,2.3-0.6
			c1.3,0,2.3,0.4,3,1.2c0.7,0.8,1.1,2,1.1,3.4V176.3z M245.2,173.2c-0.4,0.5-0.7,1.1-0.8,2h5c0-0.9-0.3-1.5-0.7-2s-1-0.7-1.7-0.7
			C246.2,172.5,245.6,172.7,245.2,173.2z"/>
		<path d="M259.4,172.7l-1.2,0.1c-0.9,0.1-1.6,0.4-2,0.9c-0.4,0.5-0.6,1.1-0.6,1.8v5.2h-2v-9.4h1.9v1.6c0.5-1.1,1.5-1.7,3.1-1.8
			l0.6,0L259.4,172.7z"/>
		<path d="M260.5,179.6l0.6-1.4c1,0.7,2.1,1.1,3.4,1.1c0.6,0,1.1-0.1,1.5-0.3c0.3-0.2,0.5-0.5,0.5-0.9c0-0.3-0.1-0.6-0.3-0.8
			s-0.6-0.4-1.2-0.5l-1.6-0.3c-0.8-0.2-1.5-0.5-1.9-0.9c-0.4-0.4-0.6-1-0.6-1.7c0-0.9,0.3-1.5,1-2.1c0.7-0.5,1.6-0.8,2.7-0.8
			c0.7,0,1.3,0.1,1.9,0.3s1.1,0.5,1.6,0.9l-0.6,1.4c-0.9-0.7-1.9-1.1-2.9-1.1c-0.6,0-1.1,0.1-1.4,0.3c-0.3,0.2-0.5,0.5-0.5,0.9
			c0,0.3,0.1,0.6,0.3,0.8c0.2,0.2,0.6,0.4,1,0.5l1.6,0.4c0.9,0.2,1.6,0.5,2,1s0.6,1,0.6,1.7c0,0.9-0.3,1.5-1,2
			c-0.7,0.5-1.6,0.7-2.8,0.7C262.8,180.8,261.5,180.4,260.5,179.6z"/>
	</g>
</g>
<circle class="st7" cx="175" cy="175" r="146.4"/>
</svg>
