<?xml version="1.0" encoding="utf-8"?>
<!-- Generator: Adobe Illustrator 22.1.0, SVG Export Plug-In . SVG Version: 6.00 Build 0)  -->
<svg version="1.1" id="Layer_1" xmlns="http://www.w3.org/2000/svg" xmlns:xlink="http://www.w3.org/1999/xlink" x="0px" y="0px"
	 viewBox="0 0 464.5 301.2" style="enable-background:new 0 0 464.5 301.2;" xml:space="preserve">
<style type="text/css">
	.st0{fill:#19191D;}
	.st1{fill:#CCCCCC;}
	.st2{fill:none;stroke:#333333;stroke-width:3.441;stroke-linecap:round;stroke-linejoin:round;stroke-miterlimit:10;}
	.st3{fill:#15CCBA;}
	.st4{fill:#333333;}
	.st5{fill:none;stroke:#333333;stroke-width:2;stroke-linecap:round;stroke-linejoin:round;stroke-miterlimit:10;}
	.st6{fill:none;stroke:#333333;stroke-width:2.3569;stroke-linecap:round;stroke-linejoin:round;stroke-miterlimit:10;}
	.st7{fill:#FFFFFF;stroke:#C1272D;stroke-width:1.4663;stroke-linecap:round;stroke-linejoin:round;stroke-miterlimit:10;}
	.st8{fill:none;stroke:#ED1C24;stroke-width:1.4663;stroke-linecap:round;stroke-linejoin:round;stroke-miterlimit:10;}
	.st9{fill:none;stroke:#ED1C24;stroke-width:1.466;stroke-linecap:round;stroke-linejoin:round;}
	.st10{fill:#ED1C24;}
	.st11{fill:none;stroke:#15CCBA;stroke-width:2;stroke-miterlimit:10;}
	.st12{fill:none;stroke:#333333;stroke-width:2;stroke-linecap:round;stroke-linejoin:round;}
	.st13{fill:none;stroke:#15CCBA;stroke-width:2.3569;stroke-linecap:round;stroke-linejoin:round;stroke-miterlimit:10;}
	.st14{fill:none;stroke:#333333;stroke-width:2.357;stroke-linecap:round;stroke-linejoin:round;}
	.st15{fill:none;stroke:#333333;stroke-width:1.161;stroke-linecap:round;stroke-linejoin:round;stroke-miterlimit:10;}
	.st16{fill:none;stroke:#333333;stroke-width:2.357;stroke-linecap:round;stroke-linejoin:round;stroke-miterlimit:10;}
</style>
<g>
	<rect x="352.5" y="47.9" class="st1" width="35.6" height="5.4"/>
	<rect x="352.5" y="64.5" class="st1" width="35.6" height="5.4"/>
	<rect x="345.5" y="36.6" class="st6" width="49.7" height="11.3"/>
	<rect x="345.5" y="53.3" class="st6" width="49.7" height="11.3"/>
	<rect x="345.5" y="69.9" class="st6" width="49.7" height="11.3"/>
	<circle class="st3" cx="352.1" cy="42.3" r="1.8"/>
	<circle class="st3" cx="352.1" cy="58.9" r="1.8"/>
	<circle class="st3" cx="352.1" cy="75.6" r="1.8"/>
</g>
<g>
	<rect x="145.4" y="47.9" class="st1" width="35.6" height="5.4"/>
	<rect x="145.4" y="64.5" class="st1" width="35.6" height="5.4"/>
	<rect x="138.3" y="36.6" class="st6" width="49.7" height="11.3"/>
	<rect x="138.3" y="53.3" class="st6" width="49.7" height="11.3"/>
	<rect x="138.3" y="69.9" class="st6" width="49.7" height="11.3"/>
	<circle class="st3" cx="144.9" cy="42.3" r="1.8"/>
	<circle class="st3" cx="144.9" cy="58.9" r="1.8"/>
	<circle class="st3" cx="144.9" cy="75.6" r="1.8"/>
</g>
<g>
	<rect x="76.3" y="47.9" class="st1" width="35.6" height="5.4"/>
	<rect x="76.3" y="64.5" class="st1" width="35.6" height="5.4"/>
	<rect x="69.2" y="36.6" class="st6" width="49.7" height="11.3"/>
	<rect x="69.2" y="53.3" class="st6" width="49.7" height="11.3"/>
	<rect x="69.2" y="69.9" class="st6" width="49.7" height="11.3"/>
	<circle class="st3" cx="75.9" cy="42.3" r="1.8"/>
	<circle class="st3" cx="75.9" cy="58.9" r="1.8"/>
	<circle class="st3" cx="75.9" cy="75.6" r="1.8"/>
</g>
<g>
	<path class="st6" d="M243.2,186.1c0,6-4.9,13.6-10.9,13.6c-6,0-10.9-7.5-10.9-13.6s4.9-10.9,10.9-10.9
		C238.3,175.2,243.2,180.1,243.2,186.1z"/>
	<path class="st6" d="M211.5,227.1c0-11.5,9.3-20.8,20.8-20.8s20.8,9.3,20.8,20.8"/>
	<path class="st6" d="M253,227.1c0,5.7-9.3,10.4-20.8,10.4s-20.8-4.7-20.8-10.4"/>
</g>
<g>
	<path class="st6" d="M265.7,227.1H390c5.7,0,10.4-4.7,10.4-10.4v-18.8c0-5.7-4.7-10.4-10.4-10.4H255.7"/>
	<path class="st6" d="M211,187.4H76.8c-5.7,0-10.4,4.7-10.4,10.4v18.8c0,5.7,4.7,10.4,10.4,10.4H201"/>
</g>
<g>
	<path d="M209.9,268.2c-1-0.6-1.7-1.4-2.2-2.4c-0.5-1-0.8-2.3-0.8-3.7s0.3-2.7,0.8-3.7c0.5-1,1.3-1.9,2.2-2.4c1-0.6,2.1-0.8,3.4-0.8
		c0.9,0,1.8,0.1,2.6,0.4s1.5,0.7,2,1.2l-0.7,1.5c-0.6-0.5-1.3-0.9-1.9-1.1c-0.6-0.2-1.3-0.3-2-0.3c-1.4,0-2.5,0.5-3.3,1.4
		c-0.8,0.9-1.2,2.2-1.2,3.9c0,1.7,0.4,3,1.2,3.9c0.8,0.9,1.9,1.4,3.3,1.4c0.7,0,1.4-0.1,2-0.3c0.6-0.2,1.3-0.6,1.9-1.1l0.7,1.5
		c-0.6,0.5-1.2,1-2,1.2s-1.7,0.4-2.6,0.4C212,269.1,210.8,268.8,209.9,268.2z"/>
	<path d="M220.6,268.9v-13.6h2v13.6H220.6z"/>
	<path d="M225.7,255.3h2.2v2h-2.2V255.3z M225.8,268.9v-9.4h2v9.4H225.8z"/>
	<path d="M239,264.5h-6.7c0.1,2,1.1,3,3,3c1.1,0,2.1-0.4,2.9-1.1l0.6,1.4c-0.4,0.4-1,0.7-1.6,0.9s-1.3,0.3-2,0.3
		c-1.5,0-2.7-0.4-3.6-1.3c-0.9-0.9-1.3-2.1-1.3-3.6c0-1,0.2-1.8,0.6-2.6c0.4-0.7,0.9-1.3,1.6-1.7s1.5-0.6,2.3-0.6
		c1.3,0,2.3,0.4,3,1.2c0.7,0.8,1.1,2,1.1,3.4V264.5z M233.2,261.4c-0.4,0.5-0.7,1.1-0.8,2h5c0-0.9-0.3-1.5-0.7-2s-1-0.7-1.7-0.7
		C234.2,260.7,233.6,260.9,233.2,261.4z"/>
	<path d="M250.1,263.1v5.9h-2v-5.8c0-0.8-0.2-1.4-0.5-1.8c-0.3-0.4-0.8-0.6-1.5-0.6c-0.8,0-1.4,0.2-1.9,0.7c-0.5,0.5-0.7,1.1-0.7,2
		v5.4h-2v-9.4h1.9v1.5c0.3-0.6,0.7-1,1.3-1.3c0.6-0.3,1.2-0.4,1.9-0.4C249,259.3,250.1,260.5,250.1,263.1z"/>
	<path d="M258.6,267.5l-0.1,1.5c-0.3,0.1-0.7,0.1-1,0.1c-1.2,0-2.1-0.3-2.7-0.9s-0.9-1.5-0.9-2.6V261h-1.8v-1.5h1.8v-2.8h2v2.8h2.6
		v1.5h-2.6v4.5c0,1.4,0.6,2.1,1.9,2.1C258.1,267.6,258.3,267.5,258.6,267.5z"/>
</g>
<circle class="st4" cx="306.6" cy="60.8" r="4.1"/>
<circle class="st4" cx="266.8" cy="60.8" r="4.1"/>
<circle class="st4" cx="227" cy="60.8" r="4.1"/>
<g>
	<g>
		<line class="st11" x1="94.1" y1="162.6" x2="94.1" y2="102.4"/>
		<g>
			<polygon class="st3" points="102.3,156 100.8,154.6 94.1,161.8 87.4,154.6 85.9,156 94.1,164.8 			"/>
		</g>
		<g>
			<polygon class="st3" points="102.3,109.1 100.8,110.4 94.1,103.2 87.4,110.4 85.9,109.1 94.1,100.3 			"/>
		</g>
	</g>
</g>
<g>
	<g>
		<line class="st11" x1="163.2" y1="162.6" x2="163.2" y2="102.4"/>
		<g>
			<polygon class="st3" points="171.4,156 169.9,154.6 163.2,161.8 156.5,154.6 155,156 163.2,164.8 			"/>
		</g>
		<g>
			<polygon class="st3" points="171.4,109.1 169.9,110.4 163.2,103.2 156.5,110.4 155,109.1 163.2,100.3 			"/>
		</g>
	</g>
</g>
<g>
	<g>
		<line class="st11" x1="370.4" y1="162.6" x2="370.4" y2="102.4"/>
		<g>
			<polygon class="st3" points="378.5,156 377.1,154.6 370.4,161.8 363.6,154.6 362.2,156 370.4,164.8 			"/>
		</g>
		<g>
			<polygon class="st3" points="378.5,109.1 377.1,110.4 370.4,103.2 363.6,110.4 362.2,109.1 370.4,100.3 			"/>
		</g>
	</g>
</g>
</svg>
