<?xml version="1.0" encoding="utf-8"?>
<!-- Generator: Adobe Illustrator 22.1.0, SVG Export Plug-In . SVG Version: 6.00 Build 0)  -->
<svg version="1.1" id="Layer_1" xmlns="http://www.w3.org/2000/svg" xmlns:xlink="http://www.w3.org/1999/xlink" x="0px" y="0px"
	 viewBox="0 0 350 350" style="enable-background:new 0 0 350 350;" xml:space="preserve">
<style type="text/css">
	.st0{fill:none;stroke:#15CCBA;stroke-width:2;stroke-miterlimit:10;}
	.st1{fill:#19191D;}
	.st2{fill:#CCCCCC;}
	.st3{fill:none;stroke:#333333;stroke-width:3.441;stroke-linecap:round;stroke-linejoin:round;stroke-miterlimit:10;}
	.st4{fill:#15CCBA;}
	.st5{fill:#333333;}
	.st6{fill:none;stroke:#333333;stroke-width:2;stroke-linecap:round;stroke-linejoin:round;stroke-miterlimit:10;}
	.st7{fill:none;stroke:#333333;stroke-width:2.3569;stroke-linecap:round;stroke-linejoin:round;stroke-miterlimit:10;}
	.st8{fill:#FFFFFF;stroke:#C1272D;stroke-width:1.4663;stroke-linecap:round;stroke-linejoin:round;stroke-miterlimit:10;}
	.st9{fill:none;stroke:#ED1C24;stroke-width:1.4663;stroke-linecap:round;stroke-linejoin:round;stroke-miterlimit:10;}
	.st10{fill:none;stroke:#ED1C24;stroke-width:1.466;stroke-linecap:round;stroke-linejoin:round;}
	.st11{fill:#ED1C24;}
	.st12{fill:none;stroke:#333333;stroke-width:2;stroke-linecap:round;stroke-linejoin:round;}
	.st13{fill:none;stroke:#15CCBA;stroke-width:2.3569;stroke-linecap:round;stroke-linejoin:round;stroke-miterlimit:10;}
	.st14{fill:none;stroke:#333333;stroke-width:2.357;stroke-linecap:round;stroke-linejoin:round;}
	.st15{fill:none;stroke:#333333;stroke-width:2.357;stroke-linecap:round;stroke-linejoin:round;stroke-miterlimit:10;}
	.st16{fill:none;stroke:#662D91;stroke-width:2.3569;stroke-linecap:round;stroke-linejoin:round;stroke-miterlimit:10;}
</style>
<path class="st0" d="M175,28.6V175l0,0l0,0v0H28.6c0,80.9,65.6,146.4,146.4,146.4c80.9,0,146.4-65.6,146.4-146.4
	S255.9,28.6,175,28.6z"/>
<path class="st7" d="M175,175L147.5,31.1C79.8,44,28.6,103.5,28.6,175L175,175L175,175z"/>
<path class="st16" d="M175,28.6c-9.4,0-18.6,0.9-27.5,2.6L175,175V28.6z"/>
<g>
	<g>
		<path d="M217.1,203.4h5.6v0.9l-3.8,7.3h-1.3l3.8-7.2h-4.3V203.4z"/>
		<path d="M228.9,206.8c0.4,0.2,0.7,0.5,0.9,0.9s0.3,0.9,0.3,1.4c0,0.5-0.1,1-0.4,1.4c-0.2,0.4-0.6,0.7-1,0.9
			c-0.4,0.2-1,0.3-1.5,0.3c-0.5,0-1-0.1-1.5-0.3c-0.5-0.2-0.9-0.4-1.2-0.7l0.4-0.9c0.7,0.6,1.5,0.9,2.3,0.9c0.5,0,1-0.1,1.3-0.4
			c0.3-0.3,0.5-0.7,0.5-1.2c0-0.5-0.2-0.9-0.5-1.2c-0.3-0.3-0.7-0.5-1.2-0.5c-0.7,0-1.3,0.3-1.8,0.8h-0.8v-4.8h5v1h-3.8v2.6
			c0.4-0.4,1-0.5,1.6-0.5C228.1,206.5,228.5,206.6,228.9,206.8z"/>
		<path d="M232.1,207.7c-0.4-0.4-0.5-1.1-0.5-1.9s0.2-1.4,0.5-1.9s0.9-0.6,1.5-0.6c0.6,0,1.1,0.2,1.5,0.6s0.5,1,0.5,1.9
			c0,0.8-0.2,1.5-0.5,1.9c-0.4,0.4-0.9,0.6-1.5,0.6C232.9,208.4,232.4,208.1,232.1,207.7z M234.3,207.2c0.2-0.3,0.2-0.7,0.2-1.3
			c0-0.6-0.1-1-0.2-1.3c-0.2-0.3-0.4-0.4-0.8-0.4c-0.3,0-0.6,0.1-0.8,0.4c-0.2,0.3-0.2,0.7-0.2,1.3s0.1,1,0.2,1.3
			c0.2,0.3,0.4,0.4,0.8,0.4C233.9,207.6,234.1,207.4,234.3,207.2z M234.4,212l-0.8-0.5l4.8-8.4l0.8,0.5L234.4,212z M237.8,211.1
			c-0.4-0.4-0.5-1.1-0.5-1.9c0-0.8,0.2-1.4,0.5-1.9s0.9-0.6,1.5-0.6c0.6,0,1.1,0.2,1.5,0.6c0.4,0.4,0.5,1,0.5,1.9
			c0,0.8-0.2,1.4-0.5,1.9s-0.9,0.6-1.5,0.6S238.1,211.5,237.8,211.1z M240,210.5c0.2-0.3,0.2-0.7,0.2-1.3c0-0.6-0.1-1-0.2-1.3
			c-0.2-0.3-0.4-0.4-0.7-0.4c-0.3,0-0.6,0.1-0.8,0.4c-0.2,0.3-0.2,0.7-0.2,1.3s0.1,1,0.2,1.3c0.2,0.3,0.4,0.4,0.8,0.4
			S239.9,210.8,240,210.5z"/>
		<path d="M208.9,217.4h1.4v1.2h-1.4V217.4z M209,225.7V220h1.2v5.7H209z"/>
		<path d="M217.2,222.1v3.5h-1.2v-3.5c0-0.5-0.1-0.8-0.3-1.1c-0.2-0.2-0.5-0.3-0.9-0.3c-0.5,0-0.9,0.1-1.1,0.4
			c-0.3,0.3-0.4,0.7-0.4,1.2v3.2h-1.2V220h1.2v0.9c0.2-0.3,0.4-0.6,0.8-0.8c0.3-0.2,0.7-0.3,1.1-0.3
			C216.6,219.8,217.2,220.6,217.2,222.1z"/>
		<path d="M222.4,224.8l-0.1,0.9c-0.2,0-0.4,0-0.6,0c-0.7,0-1.3-0.2-1.7-0.5c-0.4-0.4-0.5-0.9-0.5-1.6v-2.8h-1.1V220h1.1v-1.7h1.2
			v1.7h1.6v0.9h-1.6v2.7c0,0.8,0.4,1.2,1.2,1.2C222,224.8,222.2,224.8,222.4,224.8z"/>
		<path d="M228.4,223h-4c0.1,1.2,0.7,1.8,1.8,1.8c0.7,0,1.2-0.2,1.8-0.6l0.4,0.8c-0.3,0.2-0.6,0.4-1,0.5c-0.4,0.1-0.8,0.2-1.2,0.2
			c-0.9,0-1.6-0.3-2.2-0.8c-0.5-0.5-0.8-1.2-0.8-2.2c0-0.6,0.1-1.1,0.3-1.6c0.2-0.5,0.6-0.8,1-1c0.4-0.2,0.9-0.4,1.4-0.4
			c0.8,0,1.4,0.2,1.8,0.7c0.4,0.5,0.7,1.2,0.7,2.1V223z M224.9,221.1c-0.3,0.3-0.4,0.7-0.5,1.2h3c0-0.5-0.2-0.9-0.4-1.2
			c-0.2-0.3-0.6-0.4-1-0.4C225.5,220.7,225.2,220.8,224.9,221.1z"/>
		<path d="M233.5,220.8l-0.7,0.1c-0.6,0.1-1,0.2-1.2,0.5c-0.2,0.3-0.4,0.7-0.4,1.1v3.2H230V220h1.1v1c0.3-0.7,0.9-1,1.9-1.1l0.4,0
			L233.5,220.8z"/>
		<path d="M239.3,223h-4c0.1,1.2,0.7,1.8,1.8,1.8c0.7,0,1.2-0.2,1.8-0.6l0.4,0.8c-0.3,0.2-0.6,0.4-1,0.5c-0.4,0.1-0.8,0.2-1.2,0.2
			c-0.9,0-1.6-0.3-2.2-0.8c-0.5-0.5-0.8-1.2-0.8-2.2c0-0.6,0.1-1.1,0.3-1.6c0.2-0.5,0.6-0.8,1-1c0.4-0.2,0.9-0.4,1.4-0.4
			c0.8,0,1.4,0.2,1.8,0.7c0.4,0.5,0.7,1.2,0.7,2.1V223z M235.8,221.1c-0.3,0.3-0.4,0.7-0.5,1.2h3c0-0.5-0.2-0.9-0.4-1.2
			c-0.2-0.3-0.6-0.4-1-0.4C236.4,220.7,236.1,220.8,235.8,221.1z"/>
		<path d="M240.5,225l0.4-0.9c0.6,0.5,1.3,0.7,2,0.7c0.4,0,0.7-0.1,0.9-0.2c0.2-0.1,0.3-0.3,0.3-0.5c0-0.2-0.1-0.4-0.2-0.5
			c-0.1-0.1-0.4-0.2-0.7-0.3l-0.9-0.2c-0.5-0.1-0.9-0.3-1.1-0.6c-0.3-0.3-0.4-0.6-0.4-1c0-0.5,0.2-0.9,0.6-1.2
			c0.4-0.3,1-0.5,1.6-0.5c0.4,0,0.8,0.1,1.2,0.2s0.7,0.3,0.9,0.5l-0.4,0.8c-0.6-0.4-1.1-0.7-1.7-0.7c-0.4,0-0.6,0.1-0.8,0.2
			c-0.2,0.1-0.3,0.3-0.3,0.6c0,0.2,0.1,0.4,0.2,0.5s0.3,0.2,0.6,0.3l1,0.2c0.6,0.1,1,0.3,1.2,0.6c0.3,0.3,0.4,0.6,0.4,1
			c0,0.5-0.2,0.9-0.6,1.2c-0.4,0.3-1,0.4-1.7,0.4C241.9,225.7,241.1,225.5,240.5,225z"/>
		<path d="M250,224.8l-0.1,0.9c-0.2,0-0.4,0-0.6,0c-0.7,0-1.3-0.2-1.7-0.5c-0.4-0.4-0.5-0.9-0.5-1.6v-2.8H246V220h1.1v-1.7h1.2v1.7
			h1.6v0.9h-1.6v2.7c0,0.8,0.4,1.2,1.2,1.2C249.6,224.8,249.8,224.8,250,224.8z"/>
	</g>
</g>
<g>
	<g>
		<path d="M96.2,117.2v1h-5.4v-0.9l2.8-3.1c0.4-0.4,0.6-0.8,0.8-1.1c0.2-0.3,0.2-0.6,0.2-1c0-0.4-0.1-0.7-0.4-1s-0.6-0.3-1-0.3
			c-0.8,0-1.5,0.3-2.3,0.9l-0.4-0.9c0.3-0.3,0.7-0.5,1.2-0.7c0.5-0.2,1-0.3,1.5-0.3c0.8,0,1.4,0.2,1.9,0.6c0.5,0.4,0.7,0.9,0.7,1.6
			c0,0.5-0.1,0.9-0.3,1.4c-0.2,0.4-0.6,0.9-1,1.4l-2.2,2.4H96.2z"/>
		<path d="M98.4,117.2c-0.5-0.7-0.8-1.8-0.8-3.1s0.3-2.4,0.8-3.1c0.5-0.7,1.2-1.1,2.2-1.1s1.7,0.4,2.2,1.1c0.5,0.7,0.8,1.8,0.8,3.1
			c0,1.4-0.3,2.4-0.8,3.1c-0.5,0.7-1.2,1.1-2.2,1.1S98.9,117.9,98.4,117.2z M101.9,116.5c0.3-0.5,0.4-1.3,0.4-2.5
			c0-1.1-0.1-1.9-0.4-2.4c-0.3-0.5-0.7-0.8-1.3-0.8s-1,0.3-1.3,0.8c-0.3,0.5-0.4,1.3-0.4,2.4c0,1.1,0.1,1.9,0.4,2.5
			c0.3,0.5,0.7,0.8,1.3,0.8S101.7,117,101.9,116.5z"/>
		<path d="M105.5,114.2c-0.4-0.4-0.5-1.1-0.5-1.9s0.2-1.4,0.5-1.9s0.9-0.6,1.5-0.6c0.6,0,1.1,0.2,1.5,0.6s0.5,1,0.5,1.9
			c0,0.8-0.2,1.5-0.5,1.9c-0.4,0.4-0.9,0.6-1.5,0.6C106.4,114.9,105.9,114.6,105.5,114.2z M107.8,113.7c0.2-0.3,0.2-0.7,0.2-1.3
			c0-0.6-0.1-1-0.2-1.3c-0.2-0.3-0.4-0.4-0.8-0.4c-0.3,0-0.6,0.1-0.8,0.4c-0.2,0.3-0.2,0.7-0.2,1.3s0.1,1,0.2,1.3
			c0.2,0.3,0.4,0.4,0.8,0.4C107.4,114.1,107.6,113.9,107.8,113.7z M107.9,118.5l-0.8-0.5l4.8-8.4l0.8,0.5L107.9,118.5z M111.3,117.6
			c-0.4-0.4-0.5-1.1-0.5-1.9c0-0.8,0.2-1.4,0.5-1.9s0.9-0.6,1.5-0.6c0.6,0,1.1,0.2,1.5,0.6c0.4,0.4,0.5,1,0.5,1.9
			c0,0.8-0.2,1.4-0.5,1.9s-0.9,0.6-1.5,0.6S111.6,118,111.3,117.6z M113.5,117c0.2-0.3,0.2-0.7,0.2-1.3c0-0.6-0.1-1-0.2-1.3
			c-0.2-0.3-0.4-0.4-0.7-0.4c-0.3,0-0.6,0.1-0.8,0.4c-0.2,0.3-0.2,0.7-0.2,1.3s0.1,1,0.2,1.3c0.2,0.3,0.4,0.4,0.8,0.4
			S113.3,117.3,113.5,117z"/>
		<path d="M64.1,128.6v3.5h-1.2v-3.5c0-0.5-0.1-0.8-0.3-1.1c-0.2-0.2-0.4-0.3-0.8-0.3c-0.4,0-0.8,0.1-1,0.4
			c-0.2,0.3-0.4,0.7-0.4,1.2v3.2h-1.2v-3.5c0-0.5-0.1-0.8-0.3-1.1c-0.2-0.2-0.4-0.3-0.8-0.3c-0.4,0-0.8,0.1-1,0.4
			c-0.2,0.3-0.4,0.7-0.4,1.2v3.2h-1.2v-5.7h1.2v0.9c0.2-0.3,0.4-0.6,0.7-0.7c0.3-0.2,0.6-0.3,1-0.3c0.9,0,1.4,0.4,1.7,1.1
			c0.2-0.3,0.4-0.6,0.8-0.8s0.7-0.3,1.1-0.3C63.5,126.3,64.1,127.1,64.1,128.6z"/>
		<path d="M65.9,123.9h1.4v1.2h-1.4V123.9z M66,132.2v-5.7h1.2v5.7H66z"/>
		<path d="M74.2,128.6v3.5h-1.2v-3.5c0-0.5-0.1-0.8-0.3-1.1c-0.2-0.2-0.5-0.3-0.9-0.3c-0.5,0-0.9,0.1-1.1,0.4
			c-0.3,0.3-0.4,0.7-0.4,1.2v3.2h-1.2v-5.7h1.2v0.9c0.2-0.3,0.4-0.6,0.8-0.8c0.3-0.2,0.7-0.3,1.1-0.3
			C73.6,126.3,74.2,127.1,74.2,128.6z"/>
		<path d="M81,129.5h-4c0.1,1.2,0.7,1.8,1.8,1.8c0.7,0,1.2-0.2,1.8-0.6l0.4,0.8c-0.3,0.2-0.6,0.4-1,0.5c-0.4,0.1-0.8,0.2-1.2,0.2
			c-0.9,0-1.6-0.3-2.2-0.8c-0.5-0.5-0.8-1.2-0.8-2.2c0-0.6,0.1-1.1,0.3-1.6c0.2-0.5,0.6-0.8,1-1c0.4-0.2,0.9-0.4,1.4-0.4
			c0.8,0,1.4,0.2,1.8,0.7c0.4,0.5,0.7,1.2,0.7,2.1V129.5z M77.5,127.6c-0.3,0.3-0.4,0.7-0.5,1.2h3c0-0.5-0.2-0.9-0.4-1.2
			c-0.2-0.3-0.6-0.4-1-0.4C78.1,127.2,77.8,127.3,77.5,127.6z"/>
		<path d="M86.1,127.3l-0.7,0.1c-0.6,0.1-1,0.2-1.2,0.5c-0.2,0.3-0.4,0.7-0.4,1.1v3.2h-1.2v-5.7h1.1v1c0.3-0.7,0.9-1,1.9-1.1l0.4,0
			L86.1,127.3z"/>
		<path d="M86.7,131.5l0.4-0.9c0.6,0.5,1.3,0.7,2,0.7c0.4,0,0.7-0.1,0.9-0.2c0.2-0.1,0.3-0.3,0.3-0.5c0-0.2-0.1-0.4-0.2-0.5
			c-0.1-0.1-0.4-0.2-0.7-0.3l-0.9-0.2c-0.5-0.1-0.9-0.3-1.1-0.6c-0.3-0.3-0.4-0.6-0.4-1c0-0.5,0.2-0.9,0.6-1.2
			c0.4-0.3,1-0.5,1.6-0.5c0.4,0,0.8,0.1,1.2,0.2s0.7,0.3,0.9,0.5l-0.4,0.8c-0.6-0.4-1.1-0.7-1.7-0.7c-0.4,0-0.6,0.1-0.8,0.2
			c-0.2,0.1-0.3,0.3-0.3,0.6c0,0.2,0.1,0.4,0.2,0.5s0.3,0.2,0.6,0.3l1,0.2c0.6,0.1,1,0.3,1.2,0.6c0.3,0.3,0.4,0.6,0.4,1
			c0,0.5-0.2,0.9-0.6,1.2c-0.4,0.3-1,0.4-1.7,0.4C88.1,132.2,87.3,132,86.7,131.5z"/>
		<path d="M96.3,133l-0.9-0.3l3-9.3l0.9,0.3L96.3,133z"/>
		<path d="M103.1,131.5l0.4-0.9c0.6,0.5,1.3,0.7,2,0.7c0.4,0,0.7-0.1,0.9-0.2c0.2-0.1,0.3-0.3,0.3-0.5c0-0.2-0.1-0.4-0.2-0.5
			c-0.1-0.1-0.4-0.2-0.7-0.3l-0.9-0.2c-0.5-0.1-0.9-0.3-1.1-0.6c-0.3-0.3-0.4-0.6-0.4-1c0-0.5,0.2-0.9,0.6-1.2
			c0.4-0.3,1-0.5,1.6-0.5c0.4,0,0.8,0.1,1.2,0.2s0.7,0.3,0.9,0.5l-0.4,0.8c-0.6-0.4-1.1-0.7-1.7-0.7c-0.4,0-0.6,0.1-0.8,0.2
			c-0.2,0.1-0.3,0.3-0.3,0.6c0,0.2,0.1,0.4,0.2,0.5s0.3,0.2,0.6,0.3l1,0.2c0.6,0.1,1,0.3,1.2,0.6c0.3,0.3,0.4,0.6,0.4,1
			c0,0.5-0.2,0.9-0.6,1.2c-0.4,0.3-1,0.4-1.7,0.4C104.5,132.2,103.7,132,103.1,131.5z"/>
		<path d="M114.5,128.6v3.5h-1.2v-3.5c0-0.5-0.1-0.8-0.3-1.1c-0.2-0.2-0.5-0.3-0.9-0.3c-0.5,0-0.9,0.1-1.1,0.4
			c-0.3,0.3-0.4,0.7-0.4,1.2v3.2h-1.2v-8.2h1.2v3.4c0.2-0.3,0.5-0.6,0.8-0.7c0.3-0.2,0.7-0.3,1.1-0.3
			C113.8,126.3,114.5,127.1,114.5,128.6z"/>
		<path d="M120.5,126.9c0.4,0.4,0.6,1,0.6,1.7v3.5h-1.1v-0.9c-0.1,0.3-0.4,0.6-0.7,0.8c-0.3,0.2-0.6,0.3-1,0.3c-0.4,0-0.7-0.1-1-0.2
			c-0.3-0.2-0.6-0.4-0.7-0.6c-0.2-0.3-0.3-0.6-0.3-0.9c0-0.4,0.1-0.7,0.3-1s0.6-0.4,1.1-0.5c0.5-0.1,1.2-0.2,2-0.2h0.3v-0.3
			c0-0.4-0.1-0.7-0.3-0.9s-0.5-0.3-0.9-0.3c-0.6,0-1.3,0.2-1.9,0.6l-0.3-0.8c0.3-0.2,0.7-0.4,1.1-0.5s0.8-0.2,1.2-0.2
			C119.6,126.3,120.1,126.5,120.5,126.9z M119.5,130.9c0.3-0.3,0.4-0.7,0.4-1.1v-0.3h-0.2c-0.6,0-1.1,0-1.4,0.1
			c-0.3,0.1-0.6,0.1-0.7,0.3c-0.1,0.1-0.2,0.3-0.2,0.6c0,0.3,0.1,0.5,0.3,0.7s0.5,0.3,0.8,0.3C118.9,131.4,119.2,131.2,119.5,130.9z
			"/>
		<path d="M126.4,127.3l-0.7,0.1c-0.6,0.1-1,0.2-1.2,0.5c-0.2,0.3-0.4,0.7-0.4,1.1v3.2h-1.2v-5.7h1.1v1c0.3-0.7,0.9-1,1.9-1.1l0.4,0
			L126.4,127.3z"/>
		<path d="M132.6,123.9v8.2h-1.2v-1c-0.2,0.3-0.4,0.6-0.7,0.8c-0.3,0.2-0.7,0.3-1.1,0.3c-0.5,0-0.9-0.1-1.3-0.4
			c-0.4-0.2-0.7-0.6-0.9-1s-0.3-1-0.3-1.6c0-0.6,0.1-1.1,0.3-1.6c0.2-0.4,0.5-0.8,0.9-1c0.4-0.2,0.8-0.4,1.3-0.4
			c0.4,0,0.8,0.1,1.1,0.3c0.3,0.2,0.6,0.4,0.7,0.8v-3.4H132.6z M131.1,130.8c0.3-0.3,0.4-0.8,0.4-1.5s-0.1-1.1-0.4-1.5
			c-0.3-0.3-0.7-0.5-1.2-0.5s-0.9,0.2-1.2,0.5c-0.3,0.3-0.4,0.8-0.4,1.5s0.1,1.1,0.4,1.5c0.3,0.4,0.7,0.5,1.2,0.5
			C130.4,131.3,130.8,131.1,131.1,130.8z"/>
		<path d="M139.4,129.5h-4c0.1,1.2,0.7,1.8,1.8,1.8c0.7,0,1.2-0.2,1.8-0.6l0.4,0.8c-0.3,0.2-0.6,0.4-1,0.5c-0.4,0.1-0.8,0.2-1.2,0.2
			c-0.9,0-1.6-0.3-2.2-0.8c-0.5-0.5-0.8-1.2-0.8-2.2c0-0.6,0.1-1.1,0.3-1.6c0.2-0.5,0.6-0.8,1-1c0.4-0.2,0.9-0.4,1.4-0.4
			c0.8,0,1.4,0.2,1.8,0.7c0.4,0.5,0.7,1.2,0.7,2.1V129.5z M135.9,127.6c-0.3,0.3-0.4,0.7-0.5,1.2h3c0-0.5-0.2-0.9-0.4-1.2
			c-0.2-0.3-0.6-0.4-1-0.4C136.5,127.2,136.2,127.3,135.9,127.6z"/>
		<path d="M144.5,127.3l-0.7,0.1c-0.6,0.1-1,0.2-1.2,0.5c-0.2,0.3-0.4,0.7-0.4,1.1v3.2H141v-5.7h1.1v1c0.3-0.7,0.9-1,1.9-1.1l0.4,0
			L144.5,127.3z"/>
		<path d="M145.2,131.5l0.4-0.9c0.6,0.5,1.3,0.7,2,0.7c0.4,0,0.7-0.1,0.9-0.2c0.2-0.1,0.3-0.3,0.3-0.5c0-0.2-0.1-0.4-0.2-0.5
			c-0.1-0.1-0.4-0.2-0.7-0.3l-0.9-0.2c-0.5-0.1-0.9-0.3-1.1-0.6c-0.3-0.3-0.4-0.6-0.4-1c0-0.5,0.2-0.9,0.6-1.2
			c0.4-0.3,1-0.5,1.6-0.5c0.4,0,0.8,0.1,1.2,0.2s0.7,0.3,0.9,0.5l-0.4,0.8c-0.6-0.4-1.1-0.7-1.7-0.7c-0.4,0-0.6,0.1-0.8,0.2
			c-0.2,0.1-0.3,0.3-0.3,0.6c0,0.2,0.1,0.4,0.2,0.5s0.3,0.2,0.6,0.3l1,0.2c0.6,0.1,1,0.3,1.2,0.6c0.3,0.3,0.4,0.6,0.4,1
			c0,0.5-0.2,0.9-0.6,1.2c-0.4,0.3-1,0.4-1.7,0.4C146.5,132.2,145.8,132,145.2,131.5z"/>
	</g>
</g>
<g>
	<g>
		<path d="M163.7,39.1c-0.2,0.3-0.4,0.6-0.7,0.8c-0.3,0.2-0.7,0.3-1.1,0.4c-0.4,0-0.9,0-1.2-0.2s-0.7-0.4-0.9-0.8s-0.4-0.8-0.4-1.3
			c0-0.4,0-0.9,0.1-1.3c0.1-0.4,0.3-0.8,0.5-1.1l0.8,0.3c-0.5,0.7-0.6,1.3-0.6,2c0,0.5,0.2,0.8,0.5,1c0.3,0.2,0.6,0.3,1.1,0.3
			c0.4,0,0.8-0.2,1-0.5c0.2-0.3,0.3-0.6,0.3-1.1c-0.1-0.6-0.3-1.1-0.8-1.4l-0.1-0.7l4.1-0.4l0.4,4.3l-0.8,0.1l-0.3-3.3l-2.2,0.2
			c0.3,0.3,0.5,0.8,0.6,1.3C163.9,38.4,163.8,38.7,163.7,39.1z"/>
		<path d="M159.7,44.1l0.3-0.7l7.4,3.5l-0.3,0.7L159.7,44.1z M160.7,46.9c0.3-0.3,0.8-0.5,1.6-0.6c0.7-0.1,1.2,0,1.6,0.3
			c0.4,0.3,0.6,0.7,0.7,1.2c0,0.5-0.1,1-0.4,1.3c-0.3,0.3-0.8,0.5-1.5,0.6s-1.2,0-1.6-0.3c-0.4-0.3-0.6-0.7-0.7-1.2
			C160.2,47.7,160.4,47.3,160.7,46.9z M161.4,48.8c0.2,0.1,0.6,0.1,1.1,0.1c0.5,0,0.9-0.1,1.1-0.3c0.2-0.2,0.3-0.4,0.3-0.7
			c0-0.3-0.2-0.5-0.4-0.6s-0.6-0.2-1.1-0.1s-0.9,0.1-1.1,0.3c-0.2,0.2-0.3,0.4-0.3,0.7C161,48.5,161.1,48.7,161.4,48.8z M163.1,41.8
			c0.3-0.3,0.9-0.5,1.5-0.6c0.7-0.1,1.2,0,1.6,0.3c0.4,0.3,0.6,0.7,0.7,1.2c0,0.5-0.1,1-0.4,1.3c-0.3,0.3-0.8,0.5-1.5,0.6
			c-0.7,0.1-1.2,0-1.6-0.3s-0.6-0.7-0.7-1.2C162.7,42.6,162.8,42.2,163.1,41.8z M163.8,43.7c0.2,0.1,0.6,0.2,1.1,0.1
			c0.5,0,0.9-0.1,1.1-0.3c0.2-0.2,0.3-0.4,0.3-0.7c0-0.3-0.2-0.5-0.4-0.6c-0.2-0.1-0.6-0.2-1.1-0.1c-0.5,0-0.9,0.1-1.1,0.3
			c-0.2,0.2-0.3,0.4-0.3,0.7C163.4,43.4,163.5,43.6,163.8,43.7z"/>
		<path d="M161.2,55.1c0.2-0.4,0.4-0.7,0.8-0.9c0.4-0.2,0.8-0.4,1.3-0.4s1,0,1.3,0.2c0.4,0.2,0.7,0.4,1,0.8c0.2,0.3,0.4,0.8,0.4,1.3
			c0,0.3,0,0.7-0.1,1c-0.1,0.3-0.2,0.6-0.4,0.8l-0.7-0.2c0.3-0.5,0.5-0.9,0.4-1.4c0-0.5-0.2-0.8-0.5-1c-0.3-0.2-0.8-0.3-1.3-0.3
			c-0.5,0-0.9,0.2-1.2,0.5c-0.3,0.3-0.4,0.7-0.3,1.1s0.3,0.9,0.7,1.3l-0.7,0.4c-0.2-0.2-0.4-0.4-0.5-0.8c-0.1-0.3-0.2-0.6-0.3-1
			C161,55.9,161,55.4,161.2,55.1z"/>
		<path d="M161.6,60.1c0.2-0.4,0.4-0.7,0.8-0.9c0.4-0.2,0.8-0.4,1.3-0.4c0.5,0,1,0,1.4,0.2c0.4,0.2,0.7,0.4,0.9,0.8
			c0.2,0.3,0.4,0.7,0.4,1.2c0,0.5,0,0.9-0.2,1.3c-0.2,0.4-0.4,0.7-0.8,0.9c-0.4,0.2-0.8,0.4-1.3,0.4c-0.5,0-0.9,0-1.3-0.2
			c-0.4-0.2-0.7-0.4-0.9-0.7c-0.2-0.3-0.4-0.7-0.4-1.2C161.4,60.9,161.5,60.4,161.6,60.1z M162.8,62.2c0.3,0.2,0.7,0.3,1.3,0.2
			c0.6,0,1-0.2,1.2-0.5c0.3-0.3,0.4-0.6,0.3-1c0-0.4-0.2-0.8-0.5-1c-0.3-0.2-0.7-0.3-1.3-0.2c-0.6,0.1-1,0.2-1.2,0.5
			c-0.3,0.3-0.4,0.6-0.3,1.1C162.3,61.7,162.5,62,162.8,62.2z"/>
		<path d="M165.5,71.9l-3,0.3l-0.1-1l3-0.3c0.4,0,0.7-0.1,0.9-0.3s0.2-0.4,0.2-0.7c0-0.4-0.2-0.6-0.5-0.8c-0.3-0.2-0.6-0.3-1.1-0.2
			l-2.7,0.2l-0.1-1l3-0.3c0.4,0,0.7-0.1,0.9-0.3s0.2-0.4,0.2-0.7c0-0.4-0.2-0.6-0.5-0.8c-0.3-0.2-0.6-0.3-1.1-0.2l-2.7,0.2l-0.1-1
			l4.8-0.4l0.1,1l-0.7,0.1c0.3,0.1,0.5,0.3,0.7,0.6c0.2,0.2,0.3,0.5,0.3,0.9c0.1,0.7-0.2,1.3-0.8,1.5c0.3,0.1,0.6,0.3,0.7,0.6
			c0.2,0.3,0.3,0.6,0.3,0.9C167.4,71.2,166.8,71.8,165.5,71.9z"/>
		<path d="M166.3,80.7l-3,0.3l-0.1-1l3-0.3c0.4,0,0.7-0.1,0.9-0.3s0.2-0.4,0.2-0.7c0-0.4-0.2-0.6-0.5-0.8c-0.3-0.2-0.6-0.3-1.1-0.2
			l-2.7,0.2l-0.1-1l3-0.3c0.4,0,0.7-0.1,0.9-0.3c0.2-0.2,0.2-0.4,0.2-0.7c0-0.4-0.2-0.6-0.5-0.8s-0.6-0.3-1.1-0.2l-2.7,0.2l-0.1-1
			l4.8-0.4l0.1,1l-0.7,0.1c0.3,0.1,0.5,0.3,0.7,0.6c0.2,0.2,0.3,0.5,0.3,0.9c0.1,0.7-0.2,1.3-0.8,1.5c0.3,0.1,0.5,0.3,0.7,0.6
			c0.2,0.3,0.3,0.6,0.3,0.9C168.2,80,167.6,80.6,166.3,80.7z"/>
		<path d="M168.6,86.4l-4.8,0.4l-0.1-1l0.8-0.1c-0.3-0.1-0.5-0.3-0.7-0.6s-0.3-0.5-0.3-0.9c-0.1-1.2,0.5-1.8,1.8-1.9l3-0.3l0.1,1
			l-2.9,0.3c-0.4,0-0.7,0.1-0.8,0.3c-0.2,0.2-0.2,0.4-0.2,0.8c0,0.4,0.2,0.7,0.5,0.9c0.3,0.2,0.6,0.3,1,0.3l2.7-0.2L168.6,86.4z"/>
		<path d="M167.3,92.5l-3,0.3l-0.1-1l2.9-0.3c0.4,0,0.7-0.1,0.9-0.3s0.2-0.4,0.2-0.8c0-0.4-0.2-0.7-0.5-0.9c-0.3-0.2-0.6-0.3-1-0.3
			l-2.7,0.2l-0.1-1l4.8-0.4l0.1,1l-0.8,0.1c0.3,0.1,0.5,0.3,0.7,0.6c0.2,0.3,0.3,0.6,0.3,0.9C169.2,91.7,168.6,92.4,167.3,92.5z"/>
		<path d="M164.5,94.4l4.8-0.4l0.1,1l-4.8,0.4L164.5,94.4z M171.4,93.7l0.1,1.1l-1,0.1l-0.1-1.1L171.4,93.7z"/>
		<path d="M165.7,99.7l-0.8,0c0-0.2-0.1-0.3-0.1-0.5c-0.1-0.6,0.1-1.1,0.3-1.4c0.3-0.3,0.7-0.5,1.3-0.6l2.3-0.2l-0.1-0.9l0.8-0.1
			l0.1,0.9l1.5-0.1l0.1,1l-1.5,0.1l0.1,1.3l-0.8,0.1l-0.1-1.3l-2.3,0.2c-0.7,0.1-1,0.4-1,1.1C165.6,99.4,165.7,99.5,165.7,99.7z"/>
		<path d="M170.2,103.8l0.1,1l-6.8-2.3l-0.1-1l2,0.7l4.5-2.4l0.1,1l-3.5,1.8L170.2,103.8z"/>
	</g>
</g>
</svg>
