<?xml version="1.0" encoding="utf-8"?>
<!-- Generator: Adobe Illustrator 22.1.0, SVG Export Plug-In . SVG Version: 6.00 Build 0)  -->
<svg version="1.1" id="Layer_1" xmlns="http://www.w3.org/2000/svg" xmlns:xlink="http://www.w3.org/1999/xlink" x="0px" y="0px"
	 viewBox="0 0 464.5 301.2" style="enable-background:new 0 0 464.5 301.2;" xml:space="preserve">
<style type="text/css">
	.st0{fill:#19191D;}
	.st1{fill:#CCCCCC;}
	.st2{fill:none;stroke:#333333;stroke-width:3.441;stroke-linecap:round;stroke-linejoin:round;stroke-miterlimit:10;}
	.st3{fill:#15CCBA;}
	.st4{fill:#333333;}
	.st5{fill:none;stroke:#333333;stroke-width:2;stroke-linecap:round;stroke-linejoin:round;stroke-miterlimit:10;}
	.st6{fill:none;stroke:#333333;stroke-width:2.3569;stroke-linecap:round;stroke-linejoin:round;stroke-miterlimit:10;}
	.st7{fill:#FFFFFF;stroke:#C1272D;stroke-width:1.4663;stroke-linecap:round;stroke-linejoin:round;stroke-miterlimit:10;}
	.st8{fill:none;stroke:#ED1C24;stroke-width:1.4663;stroke-linecap:round;stroke-linejoin:round;stroke-miterlimit:10;}
	.st9{fill:none;stroke:#ED1C24;stroke-width:1.466;stroke-linecap:round;stroke-linejoin:round;}
	.st10{fill:#ED1C24;}
	.st11{fill:none;stroke:#15CCBA;stroke-width:2;stroke-miterlimit:10;}
	.st12{fill:none;stroke:#333333;stroke-width:2;stroke-linecap:round;stroke-linejoin:round;}
	.st13{fill:none;stroke:#15CCBA;stroke-width:2.3569;stroke-linecap:round;stroke-linejoin:round;stroke-miterlimit:10;}
	.st14{fill:none;stroke:#333333;stroke-width:2.357;stroke-linecap:round;stroke-linejoin:round;}
	.st15{fill:none;stroke:#333333;stroke-width:1.161;stroke-linecap:round;stroke-linejoin:round;stroke-miterlimit:10;}
	.st16{fill:none;stroke:#333333;stroke-width:2.357;stroke-linecap:round;stroke-linejoin:round;stroke-miterlimit:10;}
</style>
<g>
	<path class="st6" d="M382,169.9h-19.4c-5.6,0-10.1-4.5-10.1-10.1v-19.4c0-5.6,4.5-10.1,10.1-10.1H382c5.6,0,10.1,4.5,10.1,10.1
		v19.4C392.1,165.4,387.6,169.9,382,169.9z"/>
	<path class="st6" d="M312,169.9h-19.4c-5.6,0-10.1-4.5-10.1-10.1v-19.4c0-5.6,4.5-10.1,10.1-10.1H312c5.6,0,10.1,4.5,10.1,10.1
		v19.4C322.2,165.4,317.6,169.9,312,169.9z"/>
	<path class="st6" d="M242.1,169.9h-19.4c-5.6,0-10.1-4.5-10.1-10.1v-19.4c0-5.6,4.5-10.1,10.1-10.1h19.4c5.6,0,10.1,4.5,10.1,10.1
		v19.4C252.2,165.4,247.7,169.9,242.1,169.9z"/>
	<path class="st6" d="M172.1,169.9h-19.4c-5.6,0-10.1-4.5-10.1-10.1v-19.4c0-5.6,4.5-10.1,10.1-10.1h19.4c5.6,0,10.1,4.5,10.1,10.1
		v19.4C182.2,165.4,177.7,169.9,172.1,169.9z"/>
	<path class="st6" d="M102.1,169.9H82.7c-5.6,0-10.1-4.5-10.1-10.1v-19.4c0-5.6,4.5-10.1,10.1-10.1h19.4c5.6,0,10.1,4.5,10.1,10.1
		v19.4C112.2,165.4,107.7,169.9,102.1,169.9z"/>
	<path class="st6" d="M312,73.9h-19.4c-5.6,0-10.1-4.5-10.1-10.1V44.4c0-5.6,4.5-10.1,10.1-10.1H312c5.6,0,10.1,4.5,10.1,10.1v19.4
		C322.2,69.3,317.6,73.9,312,73.9z"/>
	<path class="st6" d="M242.1,73.9h-19.4c-5.6,0-10.1-4.5-10.1-10.1V44.4c0-5.6,4.5-10.1,10.1-10.1h19.4c5.6,0,10.1,4.5,10.1,10.1
		v19.4C252.2,69.3,247.7,73.9,242.1,73.9z"/>
	<path class="st6" d="M172.1,73.9h-19.4c-5.6,0-10.1-4.5-10.1-10.1V44.4c0-5.6,4.5-10.1,10.1-10.1h19.4c5.6,0,10.1,4.5,10.1,10.1
		v19.4C182.2,69.3,177.7,73.9,172.1,73.9z"/>
	<path class="st6" d="M102.1,73.9H82.7c-5.6,0-10.1-4.5-10.1-10.1V44.4c0-5.6,4.5-10.1,10.1-10.1h19.4c5.6,0,10.1,4.5,10.1,10.1
		v19.4C112.2,69.3,107.7,73.9,102.1,73.9z"/>
	<line class="st6" x1="142.6" y1="150.1" x2="112.2" y2="150.1"/>
	<line class="st6" x1="212.6" y1="150.1" x2="182.2" y2="150.1"/>
	<line class="st6" x1="72.3" y1="150.1" x2="42" y2="150.1"/>
	<line class="st6" x1="282.5" y1="150.1" x2="252.2" y2="150.1"/>
	<line class="st6" x1="352.5" y1="150.1" x2="322.2" y2="150.1"/>
	<line class="st6" x1="422.5" y1="150.1" x2="392.1" y2="150.1"/>
	<circle class="st4" cx="190.3" cy="73.4" r="1.5"/>
	<circle class="st4" cx="204.2" cy="73.4" r="1.5"/>
	<circle class="st4" cx="197.3" cy="73.4" r="1.5"/>
	<path class="st6" d="M382,266h-19.4c-5.6,0-10.1-4.5-10.1-10.1v-19.4c0-5.6,4.5-10.1,10.1-10.1H382c5.6,0,10.1,4.5,10.1,10.1v19.4
		C392.1,261.5,387.6,266,382,266z"/>
	<path class="st6" d="M312,266h-19.4c-5.6,0-10.1-4.5-10.1-10.1v-19.4c0-5.6,4.5-10.1,10.1-10.1H312c5.6,0,10.1,4.5,10.1,10.1v19.4
		C322.2,261.5,317.6,266,312,266z"/>
	<path class="st6" d="M242.1,266h-19.4c-5.6,0-10.1-4.5-10.1-10.1v-19.4c0-5.6,4.5-10.1,10.1-10.1h19.4c5.6,0,10.1,4.5,10.1,10.1
		v19.4C252.2,261.5,247.7,266,242.1,266z"/>
	<path class="st6" d="M172.1,266h-19.4c-5.6,0-10.1-4.5-10.1-10.1v-19.4c0-5.6,4.5-10.1,10.1-10.1h19.4c5.6,0,10.1,4.5,10.1,10.1
		v19.4C182.2,261.5,177.7,266,172.1,266z"/>
	<circle class="st4" cx="260.3" cy="265.5" r="1.5"/>
	<circle class="st4" cx="274.2" cy="265.5" r="1.5"/>
	<circle class="st4" cx="267.2" cy="265.5" r="1.5"/>
	<g>
		<g>
			<line class="st12" x1="162.4" y1="85.1" x2="162.4" y2="120.1"/>
			<g>
				<polygon class="st4" points="156.7,115.5 157.7,114.5 162.4,119.6 167.1,114.5 168.1,115.5 162.4,121.6 				"/>
			</g>
		</g>
	</g>
	<g>
		<g>
			<line class="st12" x1="232.4" y1="85.1" x2="232.4" y2="120.1"/>
			<g>
				<polygon class="st4" points="226.7,115.5 227.7,114.5 232.4,119.6 237.1,114.5 238.1,115.5 232.4,121.6 				"/>
			</g>
		</g>
	</g>
	<g>
		<g>
			<line class="st12" x1="162.4" y1="179.9" x2="162.4" y2="214.9"/>
			<g>
				<polygon class="st4" points="156.7,210.3 157.7,209.3 162.4,214.4 167.1,209.3 168.1,210.3 162.4,216.4 				"/>
			</g>
		</g>
	</g>
	<g>
		<g>
			<line class="st12" x1="232.4" y1="216.4" x2="232.4" y2="181.4"/>
			<g>
				<polygon class="st4" points="238.1,186 237.1,187 232.4,181.9 227.7,187 226.7,186 232.4,179.9 				"/>
			</g>
		</g>
	</g>
	<g>
		<g>
			<path d="M113.9,100.6l-1.2,0.1c-0.9,0.1-1.6,0.4-2,0.9c-0.4,0.5-0.6,1.1-0.6,1.8v5.2h-2v-9.4h1.9v1.6c0.5-1.1,1.5-1.7,3.1-1.8
				l0.6,0L113.9,100.6z"/>
			<path d="M123.6,104.2H117c0.1,2,1.1,3,3,3c1.1,0,2.1-0.4,2.9-1.1l0.6,1.4c-0.4,0.4-1,0.7-1.6,0.9c-0.6,0.2-1.3,0.3-2,0.3
				c-1.5,0-2.7-0.4-3.6-1.3c-0.9-0.9-1.3-2.1-1.3-3.6c0-1,0.2-1.8,0.6-2.6c0.4-0.7,0.9-1.3,1.6-1.7s1.5-0.6,2.3-0.6
				c1.3,0,2.3,0.4,3,1.2c0.7,0.8,1.1,2,1.1,3.4V104.2z M117.8,101.1c-0.4,0.5-0.7,1.1-0.8,2h5c0-0.9-0.3-1.5-0.7-2
				c-0.4-0.5-1-0.7-1.7-0.7C118.8,100.4,118.2,100.6,117.8,101.1z"/>
			<path d="M133,99.9c0.6,0.6,0.9,1.6,0.9,2.9v5.8h-1.9v-1.6c-0.2,0.6-0.6,1-1.1,1.3s-1,0.4-1.7,0.4c-0.6,0-1.2-0.1-1.7-0.4
				c-0.5-0.3-0.9-0.6-1.2-1.1c-0.3-0.5-0.4-1-0.4-1.5c0-0.7,0.2-1.2,0.5-1.6s0.9-0.7,1.8-0.8c0.8-0.2,1.9-0.3,3.4-0.3h0.4v-0.6
				c0-0.7-0.2-1.2-0.5-1.6c-0.3-0.3-0.8-0.5-1.5-0.5c-1.1,0-2.1,0.3-3.2,1l-0.6-1.4c0.5-0.3,1.1-0.6,1.8-0.8
				c0.7-0.2,1.4-0.3,2.1-0.3C131.5,99,132.4,99.3,133,99.9z M131.4,106.6c0.5-0.5,0.7-1.1,0.7-1.9v-0.5h-0.3c-1,0-1.8,0-2.3,0.1
				c-0.5,0.1-0.9,0.2-1.2,0.5c-0.2,0.2-0.3,0.5-0.3,0.9c0,0.5,0.2,0.8,0.5,1.1c0.3,0.3,0.8,0.5,1.3,0.5
				C130.3,107.3,130.9,107.1,131.4,106.6z"/>
			<path d="M145.8,95v13.6h-1.9V107c-0.3,0.6-0.7,1-1.2,1.3c-0.5,0.3-1.2,0.5-1.9,0.5c-0.8,0-1.5-0.2-2.2-0.6
				c-0.6-0.4-1.1-1-1.5-1.7c-0.4-0.7-0.5-1.6-0.5-2.6c0-1,0.2-1.8,0.5-2.6c0.4-0.7,0.8-1.3,1.5-1.7c0.6-0.4,1.4-0.6,2.2-0.6
				c0.7,0,1.3,0.2,1.9,0.5c0.5,0.3,0.9,0.7,1.2,1.3V95H145.8z M143.2,106.4c0.5-0.6,0.7-1.4,0.7-2.5c0-1.1-0.2-1.9-0.7-2.5
				c-0.5-0.6-1.1-0.9-2-0.9s-1.5,0.3-2,0.9c-0.5,0.6-0.7,1.4-0.7,2.4s0.2,1.9,0.7,2.5c0.5,0.6,1.1,0.9,2,0.9
				C142.1,107.2,142.7,106.9,143.2,106.4z"/>
		</g>
	</g>
	<g>
		<g>
			<path d="M63.4,202.7c-0.7-0.4-1.2-1-1.6-1.7c-0.4-0.7-0.6-1.6-0.6-2.6s0.2-1.8,0.6-2.6c0.4-0.7,0.9-1.3,1.7-1.7
				c0.7-0.4,1.5-0.6,2.5-0.6c0.7,0,1.3,0.1,1.9,0.3c0.6,0.2,1.1,0.5,1.5,0.9l-0.6,1.4c-0.9-0.7-1.7-1-2.6-1c-0.9,0-1.6,0.3-2.1,0.9
				c-0.5,0.6-0.8,1.4-0.8,2.5c0,1.1,0.3,1.9,0.8,2.4c0.5,0.6,1.2,0.9,2.1,0.9c0.9,0,1.8-0.3,2.6-1l0.6,1.4c-0.4,0.4-0.9,0.7-1.5,0.9
				s-1.3,0.3-1.9,0.3C65,203.3,64.1,203.1,63.4,202.7z"/>
			<path d="M80.1,197.3v5.9h-2v-5.8c0-0.8-0.2-1.4-0.5-1.8c-0.3-0.4-0.8-0.6-1.5-0.6c-0.8,0-1.4,0.2-1.9,0.7c-0.5,0.5-0.7,1.1-0.7,2
				v5.4h-2v-13.6h2v5.6c0.3-0.5,0.8-1,1.3-1.2c0.5-0.3,1.2-0.4,1.8-0.4C79,193.5,80.1,194.8,80.1,197.3z"/>
			<path d="M90,194.5c0.6,0.6,0.9,1.6,0.9,2.9v5.8H89v-1.6c-0.2,0.6-0.6,1-1.1,1.3s-1,0.4-1.7,0.4c-0.6,0-1.2-0.1-1.7-0.4
				c-0.5-0.3-0.9-0.6-1.2-1.1c-0.3-0.5-0.4-1-0.4-1.5c0-0.7,0.2-1.2,0.5-1.6s0.9-0.7,1.8-0.8c0.8-0.2,1.9-0.3,3.4-0.3H89v-0.6
				c0-0.7-0.2-1.2-0.5-1.6c-0.3-0.3-0.8-0.5-1.5-0.5c-1.1,0-2.1,0.3-3.2,1l-0.6-1.4c0.5-0.3,1.1-0.6,1.8-0.8
				c0.7-0.2,1.4-0.3,2.1-0.3C88.4,193.5,89.4,193.8,90,194.5z M88.3,201.2c0.5-0.5,0.7-1.1,0.7-1.9v-0.5h-0.3c-1,0-1.8,0-2.3,0.1
				c-0.5,0.1-0.9,0.2-1.2,0.5c-0.2,0.2-0.3,0.5-0.3,0.9c0,0.5,0.2,0.8,0.5,1.1c0.3,0.3,0.8,0.5,1.3,0.5
				C87.3,201.9,87.9,201.6,88.3,201.2z"/>
			<path d="M94.1,203.2v-13.6h2v13.6H94.1z"/>
			<path d="M99.2,203.2v-13.6h2v13.6H99.2z"/>
			<path d="M112.5,198.8h-6.7c0.1,2,1.1,3,3,3c1.1,0,2.1-0.4,2.9-1.1l0.6,1.4c-0.4,0.4-1,0.7-1.6,0.9c-0.6,0.2-1.3,0.3-2,0.3
				c-1.5,0-2.7-0.4-3.6-1.3c-0.9-0.9-1.3-2.1-1.3-3.6c0-1,0.2-1.8,0.6-2.6c0.4-0.7,0.9-1.3,1.6-1.7s1.5-0.6,2.3-0.6
				c1.3,0,2.3,0.4,3,1.2c0.7,0.8,1.1,2,1.1,3.4V198.8z M106.6,195.7c-0.4,0.5-0.7,1.1-0.8,2h5c0-0.9-0.3-1.5-0.7-2
				c-0.4-0.5-1-0.7-1.7-0.7C107.7,195,107.1,195.2,106.6,195.7z"/>
			<path d="M123.6,197.3v5.9h-2v-5.8c0-0.8-0.2-1.4-0.5-1.8c-0.3-0.4-0.8-0.6-1.5-0.6c-0.8,0-1.4,0.2-1.9,0.7
				c-0.5,0.5-0.7,1.1-0.7,2v5.4h-2v-9.4h1.9v1.5c0.3-0.6,0.7-1,1.3-1.3c0.6-0.3,1.2-0.4,1.9-0.4
				C122.4,193.5,123.6,194.8,123.6,197.3z"/>
			<path d="M135.5,193.8v8.7c0,1.4-0.4,2.5-1.2,3.3c-0.8,0.7-1.9,1.1-3.4,1.1c-0.8,0-1.6-0.1-2.3-0.3s-1.4-0.5-1.9-0.9l0.6-1.4
				c0.6,0.4,1.2,0.7,1.8,0.9c0.6,0.2,1.2,0.3,1.8,0.3c1.8,0,2.6-0.9,2.6-2.7v-1.5c-0.3,0.6-0.7,1-1.2,1.3c-0.6,0.3-1.2,0.5-1.9,0.5
				c-0.8,0-1.6-0.2-2.2-0.6c-0.6-0.4-1.1-0.9-1.5-1.6s-0.5-1.5-0.5-2.5c0-0.9,0.2-1.7,0.5-2.5c0.4-0.7,0.9-1.3,1.5-1.7
				c0.6-0.4,1.4-0.6,2.2-0.6c0.7,0,1.4,0.2,1.9,0.5c0.5,0.3,1,0.7,1.2,1.3v-1.5H135.5z M132.8,200.5c0.5-0.6,0.7-1.3,0.7-2.3
				c0-1-0.2-1.7-0.7-2.3c-0.5-0.6-1.1-0.8-2-0.8s-1.5,0.3-2,0.8c-0.5,0.6-0.7,1.3-0.7,2.3s0.2,1.7,0.7,2.3c0.5,0.6,1.2,0.8,2,0.8
				S132.4,201.1,132.8,200.5z"/>
			<path d="M146.8,198.8h-6.7c0.1,2,1.1,3,3,3c1.1,0,2.1-0.4,2.9-1.1l0.6,1.4c-0.4,0.4-1,0.7-1.6,0.9c-0.6,0.2-1.3,0.3-2,0.3
				c-1.5,0-2.7-0.4-3.6-1.3c-0.9-0.9-1.3-2.1-1.3-3.6c0-1,0.2-1.8,0.6-2.6c0.4-0.7,0.9-1.3,1.6-1.7s1.5-0.6,2.3-0.6
				c1.3,0,2.3,0.4,3,1.2c0.7,0.8,1.1,2,1.1,3.4V198.8z M140.9,195.7c-0.4,0.5-0.7,1.1-0.8,2h5c0-0.9-0.3-1.5-0.7-2
				c-0.4-0.5-1-0.7-1.7-0.7C142,195,141.4,195.2,140.9,195.7z"/>
		</g>
	</g>
	<g>
		<g>
			<path d="M255.7,195.2l-1.2,0.1c-0.9,0.1-1.6,0.4-2,0.9c-0.4,0.5-0.6,1.1-0.6,1.8v5.2h-2v-9.4h1.9v1.6c0.5-1.1,1.5-1.7,3.1-1.8
				l0.6,0L255.7,195.2z"/>
			<path d="M265.4,198.8h-6.7c0.1,2,1.1,3,3,3c1.1,0,2.1-0.4,2.9-1.1l0.6,1.4c-0.4,0.4-1,0.7-1.6,0.9c-0.6,0.2-1.3,0.3-2,0.3
				c-1.5,0-2.7-0.4-3.6-1.3c-0.9-0.9-1.3-2.1-1.3-3.6c0-1,0.2-1.8,0.6-2.6c0.4-0.7,0.9-1.3,1.6-1.7s1.5-0.6,2.3-0.6
				c1.3,0,2.3,0.4,3,1.2c0.7,0.8,1.1,2,1.1,3.4V198.8z M259.5,195.7c-0.4,0.5-0.7,1.1-0.8,2h5c0-0.9-0.3-1.5-0.7-2
				c-0.4-0.5-1-0.7-1.7-0.7C260.6,195,260,195.2,259.5,195.7z"/>
			<path d="M267.4,202.1l0.6-1.4c1,0.7,2.1,1.1,3.4,1.1c0.6,0,1.1-0.1,1.5-0.3c0.3-0.2,0.5-0.5,0.5-0.9c0-0.3-0.1-0.6-0.3-0.8
				s-0.6-0.4-1.2-0.5l-1.6-0.3c-0.8-0.2-1.5-0.5-1.9-0.9c-0.4-0.4-0.6-1-0.6-1.7c0-0.9,0.3-1.5,1-2.1s1.6-0.8,2.7-0.8
				c0.7,0,1.3,0.1,1.9,0.3c0.6,0.2,1.1,0.5,1.6,0.9l-0.6,1.4c-0.9-0.7-1.9-1.1-2.9-1.1c-0.6,0-1.1,0.1-1.4,0.3
				c-0.3,0.2-0.5,0.5-0.5,0.9c0,0.3,0.1,0.6,0.3,0.8c0.2,0.2,0.6,0.4,1,0.5l1.6,0.4c0.9,0.2,1.6,0.5,2,1c0.4,0.4,0.6,1,0.6,1.7
				c0,0.9-0.3,1.5-1,2c-0.7,0.5-1.6,0.7-2.8,0.7C269.7,203.3,268.4,202.9,267.4,202.1z"/>
			<path d="M285.1,194.1c0.6,0.4,1.1,1,1.5,1.7s0.5,1.6,0.5,2.6c0,1-0.2,1.8-0.5,2.6c-0.3,0.7-0.8,1.3-1.5,1.7
				c-0.6,0.4-1.4,0.6-2.2,0.6c-0.7,0-1.3-0.2-1.9-0.5c-0.5-0.3-1-0.7-1.2-1.3v5.1h-2v-12.9h2v1.5c0.3-0.6,0.7-1,1.2-1.3
				c0.5-0.3,1.2-0.5,1.9-0.5C283.7,193.5,284.4,193.7,285.1,194.1z M284.4,200.9c0.5-0.6,0.7-1.4,0.7-2.4c0-1.1-0.2-1.9-0.7-2.5
				s-1.1-0.9-2-0.9c-0.9,0-1.5,0.3-2,0.9c-0.5,0.6-0.7,1.4-0.7,2.5c0,1.1,0.2,1.9,0.7,2.5c0.5,0.6,1.1,0.9,2,0.9
				S283.9,201.5,284.4,200.9z"/>
			<path d="M291.4,202.7c-0.7-0.4-1.2-1-1.6-1.7c-0.4-0.7-0.6-1.6-0.6-2.6c0-1,0.2-1.9,0.6-2.6c0.4-0.7,0.9-1.3,1.6-1.7
				c0.7-0.4,1.5-0.6,2.4-0.6c0.9,0,1.7,0.2,2.4,0.6c0.7,0.4,1.2,1,1.6,1.7c0.4,0.7,0.6,1.6,0.6,2.6c0,1-0.2,1.8-0.6,2.6
				s-0.9,1.3-1.6,1.7c-0.7,0.4-1.5,0.6-2.4,0.6C292.9,203.3,292.1,203.1,291.4,202.7z M295.8,200.9c0.5-0.6,0.7-1.4,0.7-2.5
				c0-1.1-0.2-1.9-0.7-2.5c-0.5-0.6-1.1-0.9-2-0.9c-0.9,0-1.5,0.3-2,0.9c-0.5,0.6-0.7,1.4-0.7,2.5c0,1.1,0.2,1.9,0.7,2.5
				c0.5,0.6,1.1,0.9,2,0.9C294.7,201.8,295.4,201.5,295.8,200.9z"/>
			<path d="M309.6,197.3v5.9h-2v-5.8c0-0.8-0.2-1.4-0.5-1.8c-0.3-0.4-0.8-0.6-1.5-0.6c-0.8,0-1.4,0.2-1.9,0.7
				c-0.5,0.5-0.7,1.1-0.7,2v5.4h-2v-9.4h1.9v1.5c0.3-0.6,0.7-1,1.3-1.3c0.6-0.3,1.2-0.4,1.9-0.4
				C308.5,193.5,309.6,194.8,309.6,197.3z"/>
			<path d="M312.1,202.1l0.6-1.4c1,0.7,2.1,1.1,3.4,1.1c0.6,0,1.1-0.1,1.5-0.3c0.3-0.2,0.5-0.5,0.5-0.9c0-0.3-0.1-0.6-0.3-0.8
				s-0.6-0.4-1.2-0.5L315,199c-0.8-0.2-1.5-0.5-1.9-0.9c-0.4-0.4-0.6-1-0.6-1.7c0-0.9,0.3-1.5,1-2.1s1.6-0.8,2.7-0.8
				c0.7,0,1.3,0.1,1.9,0.3c0.6,0.2,1.1,0.5,1.6,0.9l-0.6,1.4c-0.9-0.7-1.9-1.1-2.9-1.1c-0.6,0-1.1,0.1-1.4,0.3
				c-0.3,0.2-0.5,0.5-0.5,0.9c0,0.3,0.1,0.6,0.3,0.8c0.2,0.2,0.6,0.4,1,0.5l1.6,0.4c0.9,0.2,1.6,0.5,2,1c0.4,0.4,0.6,1,0.6,1.7
				c0,0.9-0.3,1.5-1,2c-0.7,0.5-1.6,0.7-2.8,0.7C314.4,203.3,313.1,202.9,312.1,202.1z"/>
			<path d="M330.6,198.8H324c0.1,2,1.1,3,3,3c1.1,0,2.1-0.4,2.9-1.1l0.6,1.4c-0.4,0.4-1,0.7-1.6,0.9c-0.6,0.2-1.3,0.3-2,0.3
				c-1.5,0-2.7-0.4-3.6-1.3c-0.9-0.9-1.3-2.1-1.3-3.6c0-1,0.2-1.8,0.6-2.6c0.4-0.7,0.9-1.3,1.6-1.7s1.5-0.6,2.3-0.6
				c1.3,0,2.3,0.4,3,1.2c0.7,0.8,1.1,2,1.1,3.4V198.8z M324.8,195.7c-0.4,0.5-0.7,1.1-0.8,2h5c0-0.9-0.3-1.5-0.7-2
				c-0.4-0.5-1-0.7-1.7-0.7C325.8,195,325.2,195.2,324.8,195.7z"/>
		</g>
	</g>
	<g>
		<g>
			<path d="M259.6,99.2h1.9l-3.6,9.4h-1.8l-2.5-6.7l-2.5,6.7h-1.8l-3.6-9.4h2l2.6,7.1l2.6-7.1h1.5l2.6,7.1L259.6,99.2z"/>
			<path d="M269.4,100.6l-1.2,0.1c-0.9,0.1-1.6,0.4-2,0.9c-0.4,0.5-0.6,1.1-0.6,1.8v5.2h-2v-9.4h1.9v1.6c0.5-1.1,1.5-1.7,3.1-1.8
				l0.6,0L269.4,100.6z"/>
			<path d="M271.1,95h2.2v2h-2.2V95z M271.2,108.6v-9.4h2v9.4H271.2z"/>
			<path d="M281.7,107.2l-0.1,1.5c-0.3,0.1-0.7,0.1-1,0.1c-1.2,0-2.1-0.3-2.7-0.9c-0.6-0.6-0.9-1.5-0.9-2.6v-4.6h-1.8v-1.5h1.8v-2.8
				h2v2.8h2.6v1.5h-2.6v4.5c0,1.4,0.6,2.1,1.9,2.1C281.2,107.3,281.4,107.2,281.7,107.2z"/>
			<path d="M291.8,104.2h-6.7c0.1,2,1.1,3,3,3c1.1,0,2.1-0.4,2.9-1.1l0.6,1.4c-0.4,0.4-1,0.7-1.6,0.9c-0.6,0.2-1.3,0.3-2,0.3
				c-1.5,0-2.7-0.4-3.6-1.3c-0.9-0.9-1.3-2.1-1.3-3.6c0-1,0.2-1.8,0.6-2.6c0.4-0.7,0.9-1.3,1.6-1.7s1.5-0.6,2.3-0.6
				c1.3,0,2.3,0.4,3,1.2c0.7,0.8,1.1,2,1.1,3.4V104.2z M285.9,101.1c-0.4,0.5-0.7,1.1-0.8,2h5c0-0.9-0.3-1.5-0.7-2
				c-0.4-0.5-1-0.7-1.7-0.7C287,100.4,286.4,100.6,285.9,101.1z"/>
		</g>
	</g>
</g>
</svg>
