<?xml version="1.0" encoding="utf-8"?>
<!-- Generator: Adobe Illustrator 24.1.3, SVG Export Plug-In . SVG Version: 6.00 Build 0)  -->
<svg version="1.1" id="Layer_1" xmlns="http://www.w3.org/2000/svg" xmlns:xlink="http://www.w3.org/1999/xlink" x="0px" y="0px"
	 viewBox="0 0 450 450" style="enable-background:new 0 0 450 450;" xml:space="preserve">
<style type="text/css">
	.st0{fill:none;stroke:#3EBDB2;stroke-width:4;stroke-linecap:round;stroke-linejoin:round;stroke-miterlimit:10;}
	.st1{fill:none;stroke:#333333;stroke-width:4;stroke-linecap:round;stroke-linejoin:round;stroke-miterlimit:10;}
</style>
<g>
	<g>
		<circle class="st0" cx="220" cy="117.8" r="13"/>
		<line class="st0" x1="229.9" y1="126.1" x2="245" y2="138.8"/>
	</g>
	<path class="st1" d="M251.9,120.8h66.7c11.5,0,20.8,9.3,20.8,20.8v182.7c0,11.5-9.3,20.8-20.8,20.8H131.4
		c-11.5,0-20.8-9.3-20.8-20.8V141.6c0-11.5,9.3-20.8,20.8-20.8h57.3"/>
</g>
<g>
	<line class="st1" x1="151.9" y1="172.4" x2="298.1" y2="172.4"/>
</g>
<g>
	<line class="st1" x1="151.9" y1="203.8" x2="298.1" y2="203.8"/>
</g>
<g>
	<line class="st1" x1="151.9" y1="235.2" x2="298.1" y2="235.2"/>
</g>
<g>
	<line class="st1" x1="151.9" y1="266.6" x2="298.1" y2="266.6"/>
</g>
<g>
	<line class="st1" x1="151.9" y1="298" x2="298.1" y2="298"/>
</g>
</svg>
