<?xml version="1.0" encoding="utf-8"?>
<!-- Generator: Adobe Illustrator 24.1.3, SVG Export Plug-In . SVG Version: 6.00 Build 0)  -->
<svg version="1.1" id="Layer_1" xmlns="http://www.w3.org/2000/svg" xmlns:xlink="http://www.w3.org/1999/xlink" x="0px" y="0px"
	 viewBox="0 0 450 450" style="enable-background:new 0 0 450 450;" xml:space="preserve">
<style type="text/css">
	.st0{fill:none;stroke:#EB2027;stroke-width:4.337;stroke-linecap:round;stroke-linejoin:round;}
	.st1{fill:none;stroke:#3EBDB2;stroke-width:4.337;stroke-linecap:round;stroke-linejoin:round;stroke-miterlimit:10;}
	.st2{fill:none;stroke:#3EBDB2;stroke-width:2.2309;stroke-linecap:round;stroke-linejoin:round;stroke-miterlimit:10;}
	.st3{fill:#15CBB9;}
	.st4{fill:#333333;}
	.st5{fill:#EB2027;}
	.st6{fill:none;stroke:#A5A5A5;stroke-width:1.0843;stroke-linecap:round;stroke-linejoin:round;}
	.st7{fill:#A5A5A5;}
</style>
<g>
	<path class="st0" d="M152.2,327h-27c-6.1,0-11-4.9-11-11v-27c0-6.1,4.9-11,11-11h27c6.1,0,11,4.9,11,11v27
		C163.1,322.1,158.2,327,152.2,327z"/>
	<path class="st1" d="M238.7,327h-27c-6.1,0-11-4.9-11-11v-27c0-6.1,4.9-11,11-11h27c6.1,0,11,4.9,11,11v27
		C249.6,322.1,244.6,327,238.7,327z"/>
	<path class="st0" d="M325.1,327h-27c-6.1,0-11-4.9-11-11v-27c0-6.1,4.9-11,11-11h27c6.1,0,11,4.9,11,11v27
		C336,322.1,331.2,327,325.1,327z"/>
</g>
<polyline class="st2" points="212.9,302.6 218.5,310.8 236.9,294.2 "/>
<circle class="st3" cx="212.1" cy="155" r="1.4"/>
<circle class="st3" cx="212.1" cy="167.3" r="1.4"/>
<circle class="st3" cx="212.1" cy="179.5" r="1.4"/>
<path class="st4" d="M260.9,135.4c-10-4.9-20.8-7.5-31.8-7.8c0-0.1,0-0.1,0-0.2v-3.9c0-0.2-0.2-0.4-0.5-0.4h-6.1
	c-0.2,0-0.4,0.2-0.4,0.4l0,0v3.9c0,0.1,0,0.2,0.1,0.2c-11,0.5-21.8,3.1-31.8,7.7c-0.2,0.1-0.3,0.3-0.2,0.5c0.1,0.2,0.3,0.3,0.5,0.3
	c6.9-1.1,25.5-3.6,28.5-1.1c0.1,0.1,0.2,0.2,0.2,0.3v8c0,0.2,0.2,0.4,0.4,0.4l0,0h2.3v5.6h-14.9c-0.2,0-0.4,0.2-0.4,0.4l0,0v9.4
	c0,0.2,0.2,0.4,0.4,0.4l0,0h14.9v1.8h-14.9c-0.2,0-0.5,0.2-0.5,0.4l0,0v9.4c0,0.2,0.2,0.4,0.5,0.4h14.9v1.8h-14.9
	c-0.2,0-0.4,0.2-0.5,0.4v9.4c0,0.2,0.2,0.4,0.5,0.4l0,0h14.9v7.5c-0.1,2,1.4,3.6,3.4,3.7c2,0.1,3.6-1.4,3.7-3.4c0-0.1,0-0.2,0-0.4
	V184h14.9c0.2,0,0.4-0.2,0.4-0.4l0,0v-8.8c0-0.2-0.2-0.4-0.4-0.4l0,0h-14.9v-1.8h14.9c0.2,0,0.4-0.2,0.4-0.4l0,0v-9.4
	c0-0.2-0.2-0.4-0.4-0.4l0,0h-14.9v-1.8h14.9c0.2,0,0.4-0.2,0.4-0.4l0,0v-9.4c0-0.2-0.2-0.4-0.4-0.4l0,0h-14.9v-5.6h2.3
	c0.2,0,0.4-0.2,0.5-0.4v-7.7c0-0.1,0-0.1,0-0.2c0-0.2,0.1-0.4,0.3-0.5c2.8-2.5,21.5-0.1,28.4,1h0.1c0.2,0,0.4-0.2,0.4-0.4
	C261.1,135.6,261,135.5,260.9,135.4L260.9,135.4z M223.1,127.4V124h5.1v3.4v0.1c-1.7,0-3.5,0-5.2,0
	C223,127.5,223.1,127.5,223.1,127.4z M207.8,159.2v-8.5h14.3v8.5H207.8z M207.8,171.5V163h14.3v8.5H207.8z M207.8,183.7v-8.5h14.3
	v8.5H207.8z M243.5,175.3v8.5h-14.3v-8.5H243.5z M243.5,163v8.5h-14.3V163H243.5z M243.5,150.8v8.5h-14.3v-8.5H243.5z M228.2,150.2
	v41.9c0.1,1.4-1,2.6-2.4,2.7c-1.4,0.1-2.6-1-2.7-2.4c0-0.1,0-0.2,0-0.3v-47.9h5.1V150.2z M231.9,134.4v-2.3c0-0.2-0.1-0.5-0.4-0.5
	c-0.2,0-0.5,0.1-0.5,0.4v0.1v11.1h-10.6V136c0-0.1,0-0.1,0-0.2c0-0.1,0-0.2,0-0.3v-3.4c0-0.2-0.1-0.5-0.4-0.5
	c-0.2,0-0.5,0.1-0.5,0.4v0.1v2.2c-3.8-2.3-18.3-0.4-25.4,0.5c9-3.7,35.3-12.1,63.4,0C250.5,133.9,235.5,132.1,231.9,134.4z"/>
<circle class="st3" cx="297.9" cy="155" r="1.4"/>
<circle class="st3" cx="297.9" cy="167.3" r="1.4"/>
<circle class="st3" cx="297.9" cy="179.5" r="1.4"/>
<path class="st5" d="M346.7,135.4c-10-4.9-20.8-7.5-31.8-7.8c0-0.1,0-0.1,0-0.2v-3.9c0-0.2-0.2-0.4-0.5-0.4h-6.1
	c-0.2,0-0.4,0.2-0.4,0.4l0,0v3.9c0,0.1,0,0.2,0.1,0.2c-11,0.5-21.8,3.1-31.8,7.7c-0.2,0.1-0.3,0.3-0.2,0.5c0.1,0.2,0.3,0.3,0.5,0.3
	c6.9-1.1,25.5-3.6,28.5-1.1c0.1,0.1,0.2,0.2,0.2,0.3v8c0,0.2,0.2,0.4,0.4,0.4l0,0h2.3v5.6h-14.9c-0.2,0-0.4,0.2-0.4,0.4l0,0v9.4
	c0,0.2,0.2,0.4,0.4,0.4l0,0H308v1.8h-14.9c-0.2,0-0.5,0.2-0.5,0.4l0,0v9.4c0,0.2,0.2,0.4,0.5,0.4H308v1.8h-14.9
	c-0.2,0-0.4,0.2-0.5,0.4v9.4c0,0.2,0.2,0.4,0.5,0.4l0,0H308v7.5c-0.1,2,1.4,3.6,3.4,3.7c2,0.1,3.6-1.4,3.7-3.4c0-0.1,0-0.2,0-0.4
	V184h14.9c0.2,0,0.4-0.2,0.4-0.4l0,0v-8.8c0-0.2-0.2-0.4-0.4-0.4l0,0h-15v-1.8h14.9c0.2,0,0.4-0.2,0.4-0.4l0,0v-9.4
	c0-0.2-0.2-0.4-0.4-0.4l0,0h-14.9v-1.8h14.9c0.2,0,0.4-0.2,0.4-0.4l0,0v-9.4c0-0.2-0.2-0.4-0.4-0.4l0,0h-14.9v-5.6h2.3
	c0.2,0,0.4-0.2,0.5-0.4v-7.7c0-0.1,0-0.1,0-0.2c0-0.2,0.1-0.4,0.3-0.5c2.8-2.5,21.5-0.1,28.4,1h0.1c0.2,0,0.4-0.2,0.4-0.4
	C346.9,135.6,346.8,135.5,346.7,135.4L346.7,135.4z M308.8,127.4V124h5.1v3.4v0.1c-1.7,0-3.5,0-5.2,0
	C308.7,127.5,308.8,127.5,308.8,127.4z M293.5,159.2v-8.5h14.3v8.5H293.5z M293.5,171.5V163h14.3v8.5H293.5z M293.5,183.7v-8.5h14.3
	v8.5H293.5z M329.2,175.3v8.5h-14.3v-8.5H329.2z M329.2,163v8.5h-14.3V163H329.2z M329.2,150.8v8.5h-14.3v-8.5H329.2z M313.9,150.2
	v41.9c0.1,1.4-1,2.6-2.4,2.7c-1.4,0.1-2.6-1-2.7-2.4c0-0.1,0-0.2,0-0.3v-47.9h5.1V150.2z M317.6,134.4v-2.3c0-0.2-0.1-0.5-0.4-0.5
	c-0.2,0-0.5,0.1-0.5,0.4v0.1v11.1H306V136c0-0.1,0-0.1,0-0.2c0-0.1,0-0.2,0-0.3v-3.4c0-0.2-0.1-0.5-0.4-0.5c-0.2,0-0.5,0.1-0.5,0.4
	v0.1v2.2c-3.8-2.3-18.3-0.4-25.4,0.5c9-3.7,35.3-12.1,63.4,0C336.3,133.9,321.3,132.1,317.6,134.4z"/>
<circle class="st3" cx="125.1" cy="155" r="1.4"/>
<circle class="st3" cx="125.1" cy="167.3" r="1.4"/>
<circle class="st3" cx="125.1" cy="179.5" r="1.4"/>
<path class="st5" d="M173.7,135.4c-10-4.9-20.8-7.5-31.8-7.8c0-0.1,0-0.1,0-0.2v-3.9c0-0.2-0.2-0.4-0.5-0.4h-6.1
	c-0.2,0-0.4,0.2-0.4,0.4l0,0v3.9c0,0.1,0,0.2,0.1,0.2c-11,0.5-21.8,3.1-31.8,7.7c-0.2,0.1-0.3,0.3-0.2,0.5c0.1,0.2,0.3,0.3,0.5,0.3
	c6.9-1.1,25.5-3.6,28.5-1.1c0.1,0.1,0.2,0.2,0.2,0.3v8c0,0.2,0.2,0.4,0.4,0.4l0,0h2.3v5.6h-14.9c-0.2,0-0.4,0.2-0.4,0.4l0,0v9.4
	c0,0.2,0.2,0.4,0.4,0.4l0,0h14.7v1.8h-14.9c-0.2,0-0.5,0.2-0.5,0.4l0,0v9.4c0,0.2,0.2,0.4,0.5,0.4h14.9v1.8h-14.9
	c-0.2,0-0.4,0.2-0.5,0.4v9.4c0,0.2,0.2,0.4,0.5,0.4l0,0h14.9v7.5c-0.1,2,1.4,3.6,3.4,3.7c2,0.1,3.6-1.4,3.7-3.4c0-0.1,0-0.2,0-0.4
	V184h14.9c0.2,0,0.4-0.2,0.4-0.4l0,0v-8.8c0-0.2-0.2-0.4-0.4-0.4l0,0H142v-1.8h14.9c0.2,0,0.4-0.2,0.4-0.4l0,0v-9.4
	c0-0.2-0.2-0.4-0.4-0.4l0,0H142v-1.8h14.9c0.2,0,0.4-0.2,0.4-0.4l0,0v-9.4c0-0.2-0.2-0.4-0.4-0.4l0,0H142v-5.6h2.3
	c0.2,0,0.4-0.2,0.5-0.4v-7.7c0-0.1,0-0.1,0-0.2c0-0.2,0.1-0.4,0.3-0.5c2.8-2.5,21.5-0.1,28.4,1h0.1c0.2,0,0.4-0.2,0.4-0.4
	C174,135.6,173.8,135.5,173.7,135.4L173.7,135.4z M135.9,127.4V124h5.1v3.4v0.1c-1.7,0-3.5,0-5.2,0
	C135.9,127.5,135.9,127.5,135.9,127.4z M120.6,159.2v-8.5h14.3v8.5H120.6z M120.6,171.5V163h14.3v8.5H120.6z M120.6,183.7v-8.5h14.3
	v8.5H120.6z M156.3,175.3v8.5H142v-8.5H156.3z M156.3,163v8.5H142V163H156.3z M156.3,150.8v8.5H142v-8.5H156.3z M141,150.2v41.9
	c0.1,1.4-1,2.6-2.4,2.7c-1.4,0.1-2.6-1-2.7-2.4c0-0.1,0-0.2,0-0.3v-47.9h5.1V150.2z M144.7,134.4v-2.3c0-0.2-0.1-0.5-0.4-0.5
	c-0.2,0-0.5,0.1-0.5,0.4v0.1v11.1h-10.6V136c0-0.1,0-0.1,0-0.2c0-0.1,0-0.2,0-0.3v-3.4c0-0.2-0.1-0.5-0.4-0.5
	c-0.2,0-0.5,0.1-0.5,0.4v0.1v2.2c-3.8-2.3-18.3-0.4-25.4,0.5c9-3.7,35.3-12.1,63.4,0C163.3,133.9,148.4,132.1,144.7,134.4z"/>
<g>
	<g>
		<line class="st6" x1="138.4" y1="217.9" x2="138.4" y2="254.8"/>
		<g>
			<polygon class="st7" points="133.9,251.2 134.8,250.4 138.4,254.4 142.1,250.4 142.8,251.2 138.4,256 			"/>
		</g>
	</g>
</g>
<g>
	<g>
		<line class="st6" x1="225.1" y1="217.9" x2="225.1" y2="254.8"/>
		<g>
			<polygon class="st7" points="220.7,251.2 221.6,250.4 225.1,254.4 228.8,250.4 229.6,251.2 225.1,256 			"/>
		</g>
	</g>
</g>
<g>
	<g>
		<line class="st6" x1="311.9" y1="217.9" x2="311.9" y2="254.8"/>
		<g>
			<polygon class="st7" points="307.4,251.2 308.2,250.4 311.9,254.4 315.6,250.4 316.3,251.2 311.9,256 			"/>
		</g>
	</g>
</g>
</svg>
