<?xml version="1.0" encoding="utf-8"?>
<!-- Generator: Adobe Illustrator 24.1.3, SVG Export Plug-In . SVG Version: 6.00 Build 0)  -->
<svg version="1.1" id="Layer_1" xmlns="http://www.w3.org/2000/svg" xmlns:xlink="http://www.w3.org/1999/xlink" x="0px" y="0px"
	 viewBox="0 0 450 450" style="enable-background:new 0 0 450 450;" xml:space="preserve">
<style type="text/css">
	.st0{fill:none;stroke:#333333;stroke-width:3.0032;stroke-linecap:round;stroke-linejoin:round;stroke-miterlimit:10;}
	.st1{fill:#FFFFFF;stroke:#333333;stroke-width:3.0032;stroke-linecap:round;stroke-linejoin:round;stroke-miterlimit:10;}
	.st2{fill:#15CCBA;}
	.st3{font-family:'Nunito-Regular';}
	.st4{font-size:53.2364px;}
</style>
<g>
	<rect x="181.1" y="204.6" class="st0" width="87.7" height="20"/>
	<rect x="181.1" y="234" class="st0" width="87.7" height="20"/>
	<rect x="181.1" y="263.2" class="st0" width="87.7" height="20"/>
	<path class="st1" d="M230.1,310.8h-10.2c-1.1,0-2.1-1-2.1-2.1V187.4h14.5v121.4C232.2,309.9,231.2,310.8,230.1,310.8z"/>
	<polyline class="st0" points="238.7,159.8 238.7,187.4 211.1,187.4 211.1,159.8 	"/>
	<path class="st0" d="M238.9,168.7c0-11.2,70.1,0,70.1,0c-86.9-42.3-168,0-168,0s70.3-11.5,70.3,0"/>
	<polyline class="st0" points="232.2,148.4 232.2,139.2 217.7,139.2 217.7,148.4 	"/>
	<circle class="st2" cx="192.7" cy="214.5" r="3.2"/>
	<circle class="st2" cx="192.7" cy="243.9" r="3.2"/>
	<circle class="st2" cx="192.7" cy="273.3" r="3.2"/>
</g>
<text transform="matrix(1 0 0 1 297.1505 143.7947)" class="st2 st3 st4">2</text>
</svg>
