<?xml version="1.0" encoding="utf-8"?>
<!-- Generator: Adobe Illustrator 24.1.3, SVG Export Plug-In . SVG Version: 6.00 Build 0)  -->
<svg version="1.1" id="Layer_1" xmlns="http://www.w3.org/2000/svg" xmlns:xlink="http://www.w3.org/1999/xlink" x="0px" y="0px"
	 viewBox="0 0 450 450" style="enable-background:new 0 0 450 450;" xml:space="preserve">
<style type="text/css">
	.st0{fill:none;stroke:#EB2027;stroke-width:1.1956;stroke-linecap:round;stroke-linejoin:round;stroke-miterlimit:10;}
	.st1{fill:none;stroke:#EB2027;stroke-width:1.4834;stroke-linecap:round;stroke-linejoin:round;}
	.st2{fill:#EB2027;}
	.st3{fill:none;stroke:#333333;stroke-width:4;stroke-linecap:round;stroke-linejoin:round;stroke-miterlimit:10;}
	.st4{fill:none;stroke:#EB2027;stroke-width:4;stroke-linecap:round;stroke-linejoin:round;}
	.st5{fill:none;stroke:#3EBDB2;stroke-width:4;stroke-linecap:round;stroke-linejoin:round;stroke-miterlimit:10;}
	.st6{fill:none;stroke:#3EBDB2;stroke-width:2.0575;stroke-linecap:round;stroke-linejoin:round;stroke-miterlimit:10;}
	.st7{fill:#15CBB9;}
	.st8{fill:#333333;}
	.st9{fill:none;stroke:#A5A5A5;stroke-linecap:round;stroke-linejoin:round;}
	.st10{fill:#A5A5A5;}
</style>
<g>
	<g>
		<path class="st0" d="M247,389.4L247,389.4c1-0.6,1.3-1.9,0.7-2.8L230,358.4l-3.6,2.2l17.7,28.1C244.7,389.7,246,390,247,389.4z"/>
		<polyline class="st0" points="220.5,354.9 224.7,361.6 231.6,357.4 227.4,350.7 		"/>
		<path class="st0" d="M221.8,357c-1.7-2.7-17.4,10.4-17.4,10.4c15.1-23.2,41.6-25.1,41.6-25.1s-19.2,7.7-17.4,10.5"/>
		<polyline class="st0" points="220.4,351.2 219,348.9 222.6,346.7 224,349 		"/>
	</g>
	<g>
		<g>
			<line class="st1" x1="215.5" y1="342.3" x2="159" y2="264.9"/>
			<g>
				<polygon class="st2" points="166.3,265.4 165.8,266.9 158.9,264.7 157.2,271.8 155.8,271.5 157.8,262.8 				"/>
			</g>
		</g>
	</g>
	<g>
		<g>
			<line class="st1" x1="251.9" y1="335.4" x2="302.6" y2="262.2"/>
			<g>
				<polygon class="st2" points="304.6,269.4 303.2,269.5 302.7,262.2 295.5,263.2 295.3,261.7 304.1,260.5 				"/>
			</g>
		</g>
	</g>
	<g>
		<line class="st3" x1="202.6" y1="225.9" x2="168" y2="225.9"/>
		<line class="st3" x1="282.4" y1="225.9" x2="247.8" y2="225.9"/>
		<line class="st3" x1="122.6" y1="225.9" x2="99.4" y2="225.9"/>
		<line class="st3" x1="350.6" y1="225.9" x2="327.4" y2="225.9"/>
		<path class="st4" d="M157.9,248.4H133c-5.6,0-10.1-4.5-10.1-10.1v-24.9c0-5.6,4.5-10.1,10.1-10.1h24.9c5.6,0,10.1,4.5,10.1,10.1
			v24.9C168,243.9,163.5,248.4,157.9,248.4z"/>
		<path class="st5" d="M237.7,248.4h-24.9c-5.6,0-10.1-4.5-10.1-10.1v-24.9c0-5.6,4.5-10.1,10.1-10.1h24.9c5.6,0,10.1,4.5,10.1,10.1
			v24.9C247.8,243.9,243.2,248.4,237.7,248.4z"/>
		<path class="st4" d="M317.4,248.4h-24.9c-5.6,0-10.1-4.5-10.1-10.1v-24.9c0-5.6,4.5-10.1,10.1-10.1h24.9c5.6,0,10.1,4.5,10.1,10.1
			v24.9C327.5,243.9,323,248.4,317.4,248.4z"/>
	</g>
	<polyline class="st6" points="213.9,225.9 219.1,233.5 236.1,218.2 	"/>
	<g>
		<circle class="st7" cx="213.2" cy="89.8" r="1.3"/>
		<circle class="st7" cx="213.2" cy="101.1" r="1.3"/>
		<circle class="st7" cx="213.2" cy="112.4" r="1.3"/>
		<path class="st8" d="M258.2,71.7c-9.2-4.5-19.2-6.9-29.3-7.2c0-0.1,0-0.1,0-0.2v-3.6c0-0.2-0.2-0.4-0.5-0.4h-5.6
			c-0.2,0-0.4,0.2-0.4,0.4c0,0,0,0,0,0v3.6c0,0.1,0,0.2,0.1,0.2c-10.1,0.5-20.1,2.9-29.3,7.1c-0.2,0.1-0.3,0.3-0.2,0.5
			c0.1,0.2,0.3,0.3,0.5,0.3c6.4-1,23.5-3.3,26.3-1c0.1,0.1,0.2,0.2,0.2,0.3v7.4c0,0.2,0.2,0.4,0.4,0.4l0,0h2.1v5.2h-13.7
			c-0.2,0-0.4,0.2-0.4,0.4c0,0,0,0,0,0v8.7c0,0.2,0.2,0.4,0.4,0.4c0,0,0,0,0,0h13.7v1.7h-13.7c-0.2,0-0.5,0.2-0.5,0.4v0v8.7
			c0,0.2,0.2,0.4,0.5,0.4h13.7v1.7h-13.7c-0.2,0-0.4,0.2-0.5,0.4v8.7c0,0.2,0.2,0.4,0.5,0.4l0,0h13.7v6.9c-0.1,1.8,1.3,3.3,3.1,3.4
			s3.3-1.3,3.4-3.1c0-0.1,0-0.2,0-0.4v-6.9h13.7c0.2,0,0.4-0.2,0.4-0.4c0,0,0,0,0,0V108c0-0.2-0.2-0.4-0.4-0.4l0,0h-13.7v-1.7h13.7
			c0.2,0,0.4-0.2,0.4-0.4c0,0,0,0,0,0v-8.7c0-0.2-0.2-0.4-0.4-0.4c0,0,0,0,0,0h-13.7v-1.7h13.7c0.2,0,0.4-0.2,0.4-0.4c0,0,0,0,0,0
			v-8.7c0-0.2-0.2-0.4-0.4-0.4c0,0,0,0,0,0h-13.7v-5.2h2.1c0.2,0,0.4-0.2,0.5-0.4v-7.1c0-0.1,0-0.1,0-0.2c0-0.2,0.1-0.4,0.3-0.5
			c2.6-2.3,19.8-0.1,26.2,0.9h0.1c0.2,0,0.4-0.2,0.4-0.4C258.4,71.9,258.3,71.8,258.2,71.7L258.2,71.7z M223.3,64.3v-3.1h4.7v3.1
			c0,0,0,0.1,0,0.1c-1.6,0-3.2,0-4.8,0C223.2,64.4,223.3,64.4,223.3,64.3z M209.2,93.7v-7.8h13.2v7.8H209.2z M209.2,105v-7.8h13.2
			v7.8L209.2,105z M209.2,116.3v-7.8h13.2v7.8L209.2,116.3z M242.1,108.5v7.8h-13.2v-7.8L242.1,108.5z M242.1,97.2v7.8h-13.2v-7.8
			L242.1,97.2z M242.1,85.9v7.8h-13.2v-7.8H242.1z M228,85.4v38.6c0.1,1.3-0.9,2.4-2.2,2.5c-1.3,0.1-2.4-0.9-2.5-2.2
			c0-0.1,0-0.2,0-0.3V79.8h4.7V85.4z M231.4,70.8v-2.1c0-0.2-0.1-0.5-0.4-0.5c-0.2,0-0.5,0.1-0.5,0.4c0,0,0,0.1,0,0.1v10.2h-9.8
			v-6.6c0-0.1,0-0.1,0-0.2c0-0.1,0-0.2,0-0.3v-3.1c0-0.2-0.1-0.5-0.4-0.5c-0.2,0-0.5,0.1-0.5,0.4c0,0,0,0.1,0,0.1v2
			c-3.5-2.1-16.9-0.4-23.4,0.5c8.3-3.4,32.6-11.2,58.5,0C248.6,70.3,234.8,68.7,231.4,70.8z"/>
		<circle class="st7" cx="292.3" cy="89.8" r="1.3"/>
		<circle class="st7" cx="292.3" cy="101.1" r="1.3"/>
		<circle class="st7" cx="292.3" cy="112.4" r="1.3"/>
		<path class="st8" d="M337.3,71.7c-9.2-4.5-19.2-6.9-29.3-7.2c0-0.1,0-0.1,0-0.2v-3.6c0-0.2-0.2-0.4-0.5-0.4h-5.6
			c-0.2,0-0.4,0.2-0.4,0.4c0,0,0,0,0,0v3.6c0,0.1,0,0.2,0.1,0.2c-10.1,0.5-20.1,2.9-29.3,7.1c-0.2,0.1-0.3,0.3-0.2,0.5
			c0.1,0.2,0.3,0.3,0.5,0.3c6.4-1,23.5-3.3,26.3-1c0.1,0.1,0.2,0.2,0.2,0.3v7.4c0,0.2,0.2,0.4,0.4,0.4l0,0h2.1v5.2h-13.7
			c-0.2,0-0.4,0.2-0.4,0.4c0,0,0,0,0,0v8.7c0,0.2,0.2,0.4,0.4,0.4c0,0,0,0,0,0h13.7v1.7h-13.7c-0.2,0-0.5,0.2-0.5,0.4v0v8.7
			c0,0.2,0.2,0.4,0.5,0.4h13.7v1.7h-13.7c-0.2,0-0.4,0.2-0.5,0.4v8.7c0,0.2,0.2,0.4,0.5,0.4l0,0h13.7v6.9c-0.1,1.8,1.3,3.3,3.1,3.4
			s3.3-1.3,3.4-3.1c0-0.1,0-0.2,0-0.4v-6.9h13.7c0.2,0,0.4-0.2,0.4-0.4c0,0,0,0,0,0V108c0-0.2-0.2-0.4-0.4-0.4l0,0H308v-1.7h13.7
			c0.2,0,0.4-0.2,0.4-0.4c0,0,0,0,0,0v-8.7c0-0.2-0.2-0.4-0.4-0.4c0,0,0,0,0,0H308v-1.7h13.7c0.2,0,0.4-0.2,0.4-0.4c0,0,0,0,0,0
			v-8.7c0-0.2-0.2-0.4-0.4-0.4c0,0,0,0,0,0H308v-5.2h2.1c0.2,0,0.4-0.2,0.5-0.4v-7.1c0-0.1,0-0.1,0-0.2c0-0.2,0.1-0.4,0.3-0.5
			c2.6-2.3,19.8-0.1,26.2,0.9h0.1c0.2,0,0.4-0.2,0.4-0.4C337.5,71.9,337.4,71.8,337.3,71.7L337.3,71.7z M302.4,64.3v-3.1h4.7v3.1
			c0,0,0,0.1,0,0.1c-1.6,0-3.2,0-4.8,0C302.3,64.4,302.4,64.4,302.4,64.3z M288.3,93.7v-7.8h13.2v7.8H288.3z M288.3,105v-7.8h13.2
			v7.8L288.3,105z M288.3,116.3v-7.8h13.2v7.8L288.3,116.3z M321.2,108.5v7.8H308v-7.8L321.2,108.5z M321.2,97.2v7.8H308v-7.8
			L321.2,97.2z M321.2,85.9v7.8H308v-7.8H321.2z M307.1,85.4v38.6c0.1,1.3-0.9,2.4-2.2,2.5c-1.3,0.1-2.4-0.9-2.5-2.2
			c0-0.1,0-0.2,0-0.3V79.8h4.7V85.4z M310.5,70.8v-2.1c0-0.2-0.1-0.5-0.4-0.5c-0.2,0-0.5,0.1-0.5,0.4c0,0,0,0.1,0,0.1v10.2h-9.8
			v-6.6c0-0.1,0-0.1,0-0.2c0-0.1,0-0.2,0-0.3v-3.1c0-0.2-0.1-0.5-0.4-0.5c-0.2,0-0.5,0.1-0.5,0.4c0,0,0,0.1,0,0.1v2
			c-3.5-2.1-16.9-0.4-23.4,0.5c8.3-3.4,32.6-11.2,58.5,0C327.7,70.3,313.9,68.7,310.5,70.8z"/>
		<circle class="st7" cx="132.9" cy="89.8" r="1.3"/>
		<circle class="st7" cx="132.9" cy="101.1" r="1.3"/>
		<circle class="st7" cx="132.9" cy="112.4" r="1.3"/>
		<path class="st8" d="M177.8,71.7c-9.2-4.5-19.2-6.9-29.3-7.2c0-0.1,0-0.1,0-0.2v-3.6c0-0.2-0.2-0.4-0.5-0.4h-5.6
			c-0.2,0-0.4,0.2-0.4,0.4c0,0,0,0,0,0v3.6c0,0.1,0,0.2,0.1,0.2c-10.1,0.5-20.1,2.9-29.3,7.1c-0.2,0.1-0.3,0.3-0.2,0.5
			c0.1,0.2,0.3,0.3,0.5,0.3c6.4-1,23.5-3.3,26.3-1c0.1,0.1,0.2,0.2,0.2,0.3v7.4c0,0.2,0.2,0.4,0.4,0.4l0,0h2.1v5.2h-13.7
			c-0.2,0-0.4,0.2-0.4,0.4c0,0,0,0,0,0v8.7c0,0.2,0.2,0.4,0.4,0.4c0,0,0,0,0,0H142v1.7h-13.7c-0.2,0-0.5,0.2-0.5,0.4v0v8.7
			c0,0.2,0.2,0.4,0.5,0.4H142v1.7h-13.7c-0.2,0-0.4,0.2-0.5,0.4v8.7c0,0.2,0.2,0.4,0.5,0.4l0,0H142v6.9c-0.1,1.8,1.3,3.3,3.1,3.4
			s3.3-1.3,3.4-3.1c0-0.1,0-0.2,0-0.4v-6.9h13.7c0.2,0,0.4-0.2,0.4-0.4c0,0,0,0,0,0V108c0-0.2-0.2-0.4-0.4-0.4l0,0h-13.7v-1.7h13.7
			c0.2,0,0.4-0.2,0.4-0.4c0,0,0,0,0,0v-8.7c0-0.2-0.2-0.4-0.4-0.4c0,0,0,0,0,0h-13.7v-1.7h13.7c0.2,0,0.4-0.2,0.4-0.4c0,0,0,0,0,0
			v-8.7c0-0.2-0.2-0.4-0.4-0.4c0,0,0,0,0,0h-13.7v-5.2h2.1c0.2,0,0.4-0.2,0.5-0.4v-7.1c0-0.1,0-0.1,0-0.2c0-0.2,0.1-0.4,0.3-0.5
			c2.6-2.3,19.8-0.1,26.2,0.9h0.1c0.2,0,0.4-0.2,0.4-0.4C178,71.9,177.9,71.8,177.8,71.7L177.8,71.7z M142.9,64.3v-3.1h4.7v3.1
			c0,0,0,0.1,0,0.1c-1.6,0-3.2,0-4.8,0C142.9,64.4,142.9,64.4,142.9,64.3z M128.8,93.7v-7.8H142v7.8H128.8z M128.8,105v-7.8H142v7.8
			L128.8,105z M128.8,116.3v-7.8H142v7.8L128.8,116.3z M161.7,108.5v7.8h-13.2v-7.8L161.7,108.5z M161.7,97.2v7.8h-13.2v-7.8
			L161.7,97.2z M161.7,85.9v7.8h-13.2v-7.8H161.7z M147.6,85.4v38.6c0.1,1.3-0.9,2.4-2.2,2.5c-1.3,0.1-2.4-0.9-2.5-2.2
			c0-0.1,0-0.2,0-0.3V79.8h4.7V85.4z M151,70.8v-2.1c0-0.2-0.1-0.5-0.4-0.5c-0.2,0-0.5,0.1-0.5,0.4c0,0,0,0.1,0,0.1v10.2h-9.8v-6.6
			c0-0.1,0-0.1,0-0.2c0-0.1,0-0.2,0-0.3v-3.1c0-0.2-0.1-0.5-0.4-0.5c-0.2,0-0.5,0.1-0.5,0.4c0,0,0,0.1,0,0.1v2
			c-3.5-2.1-16.9-0.4-23.4,0.5c8.3-3.4,32.6-11.2,58.5,0C168.2,70.3,154.4,68.7,151,70.8z"/>
	</g>
	<g>
		<g>
			<line class="st9" x1="145.2" y1="147.8" x2="145.2" y2="181.8"/>
			<g>
				<polygon class="st10" points="141.1,178.5 141.9,177.8 145.2,181.5 148.6,177.8 149.3,178.5 145.2,182.9 				"/>
			</g>
		</g>
	</g>
	<g>
		<g>
			<line class="st9" x1="225.2" y1="147.8" x2="225.2" y2="181.8"/>
			<g>
				<polygon class="st10" points="221.1,178.5 221.9,177.8 225.2,181.5 228.6,177.8 229.3,178.5 225.2,182.9 				"/>
			</g>
		</g>
	</g>
	<g>
		<g>
			<line class="st9" x1="305.2" y1="147.8" x2="305.2" y2="181.8"/>
			<g>
				<polygon class="st10" points="301.1,178.5 301.8,177.8 305.2,181.5 308.6,177.8 309.3,178.5 305.2,182.9 				"/>
			</g>
		</g>
	</g>
</g>
</svg>
