<?xml version="1.0" encoding="utf-8"?>
<!-- Generator: Adobe Illustrator 22.1.0, SVG Export Plug-In . SVG Version: 6.00 Build 0)  -->
<svg version="1.1" id="Layer_1" xmlns="http://www.w3.org/2000/svg" xmlns:xlink="http://www.w3.org/1999/xlink" x="0px" y="0px"
	 viewBox="0 0 558 200" style="enable-background:new 0 0 558 200;" xml:space="preserve">
<style type="text/css">
	.st0{fill:#1A1A1E;}
</style>
<g>
	<g>
		<path class="st0" d="M228.6,110.8c0.9-3,1.3-6.7,1.3-10.8c0-4.1-0.5-7.7-1.3-10.8c-0.9-3.1-2.1-5.6-3.7-7.7
			c-1.6-2.1-3.4-3.6-5.6-4.6c-2.1-1-4.4-1.5-6.7-1.5c-2.4,0-4.6,0.5-6.7,1.5c-2.1,1-4,2.6-5.6,4.6c-1.5,2-2.8,4.6-3.7,7.7
			c-0.9,3-1.3,6.7-1.3,10.8c0,4.1,0.5,7.7,1.3,10.8c0.9,3.1,2.1,5.6,3.7,7.6c1.6,2,3.4,3.6,5.6,4.6c2.1,1,4.4,1.5,6.7,1.5
			c2.4,0,4.6-0.5,6.7-1.5c2.1-1,4-2.5,5.6-4.6C226.5,116.4,227.7,113.8,228.6,110.8z M212.6,78c2,0,3.8,0.4,5.6,1.3
			c1.7,0.8,3.3,2.2,4.6,3.9c1.3,1.8,2.4,4.1,3.2,6.8c0.8,2.8,1.2,6.1,1.2,10c0,3.8-0.4,7.2-1.2,10c-0.8,2.8-1.9,5-3.2,6.8
			c-1.3,1.7-2.8,3-4.6,3.9c-1.7,0.8-3.6,1.3-5.6,1.3c-2,0-3.8-0.4-5.6-1.3c-1.7-0.8-3.3-2.1-4.6-3.9c-1.3-1.8-2.4-4.1-3.2-6.8
			c-0.8-2.8-1.2-6.1-1.2-10c0-3.8,0.4-7.2,1.2-10c0.8-2.8,1.9-5,3.2-6.8c1.3-1.7,2.9-3.1,4.6-3.9C208.8,78.4,210.7,78,212.6,78z"/>
		<path class="st0" d="M288.1,116.2c-0.2-0.2-0.6-0.4-0.9-0.4c-0.5,0-0.8,0.3-0.9,0.4c-1,0.9-2,1.7-3,2.4c-1,0.7-2.1,1.3-3.2,1.8
			c-1.2,0.5-2.4,0.8-3.8,1.1c-1.4,0.3-3,0.4-4.8,0.4c-2.8,0-5.4-0.5-7.8-1.5c-2.4-1-4.5-2.4-6.2-4.3c-1.8-1.9-3.1-4.2-4.1-6.9
			c-1-2.7-1.5-5.8-1.5-9.3c0-3.4,0.5-6.5,1.5-9.2c1-2.7,2.4-5,4.2-6.9c1.8-1.9,3.9-3.3,6.4-4.4c2.5-1,5.2-1.5,8.2-1.5
			c1.6,0,3.1,0.1,4.4,0.4c1.3,0.2,2.4,0.5,3.4,0.9c1,0.4,1.8,0.7,2.4,1.1c0.7,0.4,1.3,0.8,1.7,1.2c0.5,0.4,0.9,0.7,1.1,0.9
			c0.3,0.3,0.8,0.6,1.3,0.6c0.4,0,0.8-0.2,1-0.5l0.2-0.3l-0.2-1.2c-1.1-0.9-2.2-1.7-3.3-2.4c-1.1-0.7-2.3-1.3-3.5-1.8
			c-1.2-0.5-2.6-0.8-3.9-1.1c-1.4-0.2-3-0.3-4.7-0.3c-3.4,0-6.5,0.6-9.4,1.8c-2.8,1.2-5.3,2.9-7.3,5c-2,2.2-3.6,4.8-4.7,7.8
			c-1.1,3-1.7,6.3-1.7,10c0,3.7,0.6,7.2,1.7,10.2c1.1,3,2.7,5.6,4.7,7.8c2,2.1,4.4,3.8,7.1,4.9c2.7,1.1,5.7,1.7,8.9,1.7
			c2,0,3.8-0.2,5.4-0.5c1.6-0.3,3.2-0.8,4.5-1.4c1.4-0.6,2.7-1.3,3.8-2.1c1.1-0.8,2.2-1.7,3.2-2.7l0-1.4L288.1,116.2z"/>
		<polygon class="st0" points="346.6,76 345.7,76.9 345.7,98.3 315.2,98.3 315.2,76.9 314.2,76 313.4,76 312.5,76.9 312.5,123.1 
			313.4,124 314.2,124 315.2,123.1 315.2,101 345.7,101 345.7,123.1 346.6,124 347.4,124 348.4,123.1 348.4,76.9 347.4,76 		"/>
		<path class="st0" d="M389.1,76.1h-0.7l-0.9,0.6l-19.2,46.1l0.9,1.3h0.5c0.6,0,1.2-0.4,1.4-1l17.7-42.5l17.7,42.5
			c0.2,0.6,0.7,1,1.3,1h0.6l0.9-1.3L390,76.7L389.1,76.1z"/>
		<polygon class="st0" points="431.4,76 430.5,76.9 430.5,123.1 431.4,124 432.2,124 433.2,123.1 433.2,76.9 432.2,76 		"/>
		<path class="st0" d="M463.2,124l1-1V81.2l31.1,42.2c0.4,0.6,0.9,0.6,1.1,0.6h0.2l1-1V76.9l-1-1h-0.7l-1,1v41.8l-30.9-42
			c-0.3-0.4-0.7-0.7-1.3-0.7h-0.3l-1,1v46.1l1,1H463.2z"/>
	</g>
	<path class="st0" d="M113.8,46c-29.8,0-54,24.2-54,54s24.2,54,54,54c29.8,0,54-24.2,54-54S143.6,46,113.8,46z M150.2,62.4l-4.4,4.4
		c-8.3-8-19.6-13-32-13s-23.7,4.9-32,13l-4.4-4.4c9.4-9.1,22.3-14.8,36.4-14.8S140.8,53.3,150.2,62.4z M114.6,144.5v-5.7
		c20.7-0.4,37.5-17.2,37.9-37.9h5.7C157.8,124.7,138.5,144,114.6,144.5z M69.3,100.8h5.7c0.4,20.7,17.2,37.5,37.9,37.9v5.7
		C89.1,144,69.8,124.7,69.3,100.8z M113,55.5v5.7c-20.7,0.4-37.5,17.2-37.9,37.9h-5.7C69.8,75.3,89.1,56,113,55.5z M113.8,137.1
		c-20.5,0-37.1-16.7-37.1-37.1c0-20.5,16.7-37.1,37.1-37.1c20.5,0,37.1,16.7,37.1,37.1C150.9,120.5,134.3,137.1,113.8,137.1z
		 M152.5,99.2c-0.4-20.7-17.2-37.5-37.9-37.9v-5.7c23.9,0.4,43.2,19.8,43.7,43.7H152.5z M61.4,100c0-14.1,5.6-27,14.8-36.4l4.4,4.4
		c-8,8.3-13,19.6-13,32s4.9,23.7,13,32l-4.4,4.4C67.1,127,61.4,114.1,61.4,100z M77.4,137.6l4.4-4.4c8.3,8,19.6,13,32,13
		c12.4,0,23.7-4.9,32-13l4.4,4.4c-9.4,9.1-22.3,14.8-36.4,14.8S86.8,146.7,77.4,137.6z M151.4,136.4l-4.4-4.4c8-8.3,13-19.6,13-32
		s-4.9-23.7-13-32l4.4-4.4c9.1,9.4,14.8,22.3,14.8,36.4C166.2,114.1,160.5,127,151.4,136.4z"/>
</g>
</svg>
