<?xml version="1.0" encoding="utf-8"?>
<!-- Generator: Adobe Illustrator 24.1.3, SVG Export Plug-In . SVG Version: 6.00 Build 0)  -->
<svg version="1.1" id="Layer_1" xmlns="http://www.w3.org/2000/svg" xmlns:xlink="http://www.w3.org/1999/xlink" x="0px" y="0px"
	 viewBox="0 0 200 200" style="enable-background:new 0 0 200 200;" xml:space="preserve">
<style type="text/css">
	.st0{fill:#FFFFFF;}
	.st1{fill:none;stroke:#19191D;stroke-width:5;stroke-linecap:round;stroke-linejoin:round;stroke-miterlimit:10;}
	.st2{fill:#19191D;}
	.st3{fill:none;stroke:#000000;stroke-width:3;stroke-miterlimit:10;}
	.st4{fill:none;stroke:#19191D;stroke-width:2.4717;stroke-linecap:round;stroke-linejoin:round;stroke-miterlimit:10;}
	.st5{fill:#19191D;stroke:#19191D;stroke-width:4;stroke-linecap:round;stroke-linejoin:round;stroke-miterlimit:10;}
	.st6{fill:none;stroke:#000000;stroke-width:3;stroke-linecap:round;stroke-linejoin:round;stroke-miterlimit:10;}
</style>
<path class="st2" d="M140,40.2c-5.1-6.7-11.2-11.8-18.1-15.1c-6.9-3.3-14.3-4.9-21.9-4.9s-15,1.7-21.9,4.9
	c-6.9,3.3-13,8.4-18.1,15.1c-5,6.6-9.1,15-12,24.9c-2.9,9.8-4.4,21.6-4.4,35c0,13.4,1.5,25.2,4.4,35c2.9,9.9,7,18.3,12,24.9
	c5.1,6.7,11.2,11.7,18.1,15c6.9,3.2,14.2,4.9,21.9,4.9s15-1.6,21.9-4.9c6.9-3.2,13-8.3,18.1-15c5-6.6,9.1-15,12-24.9
	c2.9-9.8,4.4-21.6,4.4-35c0-13.4-1.5-25.2-4.4-35C149.1,55.2,145.1,46.8,140,40.2z M100,171c-6.3,0-12.4-1.4-18-4.1
	c-5.1-2.4-9.7-6.1-13.7-11l67.6-105.5c2.9,4.9,5.3,10.7,7.2,17.3c2.6,9,3.9,19.9,3.9,32.3c0,12.5-1.3,23.4-3.9,32.3
	c-2.5,8.9-6,16.3-10.3,22c-4.2,5.6-9.2,9.8-14.8,12.5C112.4,169.6,106.3,171,100,171z M56.7,132.5c-2.6-9-3.9-19.9-3.9-32.3
	c0-12.5,1.3-23.4,3.9-32.3c2.6-8.9,6-16.3,10.4-22.1c4.3-5.6,9.3-9.9,14.9-12.6c5.7-2.7,11.7-4.1,18-4.1c6.3,0,12.3,1.4,18,4.1
	c4.7,2.3,8.9,5.6,12.7,10L63.2,148.4C60.6,143.8,58.5,138.5,56.7,132.5z"/>
</svg>
