<?xml version="1.0" encoding="utf-8"?>
<!-- Generator: Adobe Illustrator 24.0.1, SVG Export Plug-In . SVG Version: 6.00 Build 0)  -->
<svg version="1.1" id="Layer_1" xmlns="http://www.w3.org/2000/svg" xmlns:xlink="http://www.w3.org/1999/xlink" x="0px" y="0px"
	 width="500.8px" height="98px" viewBox="0 0 500.8 98" style="enable-background:new 0 0 500.8 98;" xml:space="preserve">
<style type="text/css">
	.st0{fill:#FFFFFF;}
</style>
<g>
	<path class="st0" d="M59.1,12.3C55.9,8.2,52.2,5.1,48,3.1s-8.7-3-13.4-3s-9.2,1-13.4,3c-4.2,2.1-8,5.1-11.1,9.2s-5.5,9.2-7.4,15.3
		C0.9,33.6,0,40.8,0,49s0.9,15.5,2.7,21.4c1.7,6,4.3,11.3,7.4,15.3c3.2,4.1,6.9,7.2,11.1,9.1c4.2,1.9,8.7,3,13.4,3s9.2-1,13.4-3
		s8-5.1,11.2-9.1c3.1-4,5.5-9.1,7.4-15.3c1.7-6,2.7-13.2,2.7-21.4s-0.9-15.5-2.7-21.4C64.6,21.5,62.1,16.4,59.1,12.3z M34.5,92.6
		c-3.9,0-7.6-0.8-11.1-2.5c-3.2-1.5-5.9-3.8-8.4-6.8l41.5-64.7c1.7,3,3.3,6.6,4.4,10.7c1.5,5.5,2.4,12.2,2.4,19.9
		s-0.8,14.4-2.4,19.9c-1.5,5.4-3.7,10-6.4,13.5c-2.6,3.5-5.6,6-9,7.7C42,91.8,38.3,92.6,34.5,92.6z M7.9,69
		c-1.5-5.5-2.4-12.2-2.4-19.9s0.8-14.4,2.4-19.9c1.5-5.4,3.7-10,6.4-13.5c2.6-3.5,5.6-6,9.1-7.7s7.2-2.6,11.1-2.6S42,6.3,45.4,8
		c2.9,1.4,5.5,3.5,7.8,6.2L11.8,78.7C10.3,75.9,9,72.7,7.9,69z"/>
	<path class="st0" d="M154.7,52.1c-2.4-1.7-5.1-3.3-8.2-4.4c-2.9-1.1-5.9-2.2-8.9-3.2c-3-1-5.8-2.1-8.7-3.1c-2.7-1-5.1-2.3-7.2-3.8
		c-1.9-1.4-3.6-3.3-4.8-5.3s-1.7-4.6-1.7-7.8c0-2.5,0.5-4.9,1.4-7.2s2.3-4.3,4-5.9c1.7-1.7,4-3.2,6.7-4.2c2.7-1,5.7-1.6,9.2-1.6
		c3.4,0,6.3,0.4,8.5,1.2c2.3,0.8,4.2,1.7,5.5,2.7c1.4,0.9,2.5,1.8,3.2,2.6c0.9,1,2.1,2.1,3.3,2.1c0.8,0,1.6-0.4,2.3-1.1
		c0-0.1,0.1-0.1,0.1-0.2l0.3-0.4c0.5-0.8,0.4-1.8-0.2-2.6c-3.2-3.4-6.7-5.8-10.4-7.4c-3.7-1.5-7.9-2.4-12.6-2.4
		c-4.2,0-8,0.7-11.4,1.9c-3.3,1.3-6.2,3.1-8.4,5.3c-2.3,2.3-4.1,4.9-5.2,7.8c-1.2,3-1.7,6-1.7,9.2c0,3.3,0.5,6.2,1.5,8.6
		s2.4,4.6,4.1,6.4c1.6,1.7,3.6,3.3,5.8,4.4c2.2,1.1,4.4,2.2,6.8,3.1c2.4,0.9,4.8,1.7,7.2,2.5c2.4,0.7,4.7,1.5,7,2.4
		c2.3,0.8,4.3,1.7,6.3,2.8c1.8,0.9,3.5,2.2,4.8,3.5s2.4,2.9,3.2,4.7c0.8,1.8,1.2,4.1,1.2,6.7c0,3.2-0.5,6.3-1.6,9s-2.7,5.2-4.8,7.4
		c-2.1,2.1-4.7,3.8-7.7,5c-3.1,1.2-6.6,1.8-10.6,1.8c-2.7,0-5.1-0.3-7.2-0.7c-2.1-0.5-4-1.1-5.6-1.9c-1.6-0.8-3-1.6-4.1-2.5
		c-1.1-0.9-2.2-1.7-3-2.6c-0.8-0.8-1.5-1.5-1.9-2.1c-0.6-0.7-1.5-1.4-2.7-1.4c-0.7,0-1.2,0.2-1.6,0.5c-0.1,0.1-0.3,0.3-0.5,0.5
		l-0.3,0.3c-0.7,0.7-0.8,1.9-0.1,2.8c1.6,1.9,3.4,3.7,5.1,5.2c1.8,1.5,3.9,2.9,6,4c2.2,1.1,4.6,1.9,7.2,2.6s5.5,0.8,8.8,0.8
		c4.7,0,9-0.7,12.7-2.3c3.8-1.5,7-3.6,9.5-6.2c2.6-2.7,4.6-5.7,5.9-9.2s2.1-7.3,2.1-11.3c0-4.1-0.8-7.5-2.4-10.3
		C159.2,56.2,157.2,53.9,154.7,52.1z"/>
	<path class="st0" d="M268.3,1.1h-70.8c-1.1,0-2.1,0.9-2.1,2.1v1.4c0,1.1,0.9,2.1,2.1,2.1h32.7V95c0,1.1,0.9,2.1,2.1,2.1h1.5
		c1.1,0,2.1-0.9,2.1-2.1V6.7h32.5c1.1,0,2.1-0.9,2.1-2.1V3.2C270.4,2.1,269.5,1.1,268.3,1.1z"/>
	<path class="st0" d="M373.5,13.3c-3.9-4.3-8.7-7.6-14.1-9.8c-5.4-2.3-11.5-3.4-18-3.4c-6.5,0-12.5,1.1-17.9,3.5
		c-5.4,2.3-10.2,5.6-14.1,9.8c-3.9,4.2-7,9.4-9.1,15.5c-2.2,5.9-3.3,12.8-3.3,20.2c0,7.5,1.1,14.3,3.3,20.2c2.2,6,5.2,11.2,9.1,15.4
		s8.7,7.6,14.1,9.8c5.4,2.3,11.5,3.4,17.9,3.4c6.6,0,12.6-1.1,18-3.4c5.4-2.3,10.3-5.5,14.1-9.8c3.9-4.2,7-9.4,9.1-15.4
		c2.2-5.9,3.3-12.8,3.3-20.2s-1.1-14.3-3.3-20.3C380.5,22.8,377.4,17.6,373.5,13.3z M341.3,92.6c-5.6,0-10.9-1-15.6-3
		c-4.7-1.9-8.8-4.8-12.2-8.5c-3.4-3.7-6.2-8.3-8-13.6c-1.9-5.3-3-11.6-3-18.5s1-13.1,3-18.5c1.9-5.3,4.6-9.9,8-13.6
		s7.5-6.6,12.2-8.5c4.7-1.9,9.9-3,15.6-3c5.7,0,11.1,1,15.8,3s8.8,4.8,12.2,8.5c3.4,3.7,6,8.3,8,13.6c1.9,5.4,2.9,11.6,2.9,18.5
		s-0.9,13-2.9,18.5c-1.8,5.3-4.5,9.9-7.9,13.6c-3.4,3.7-7.5,6.6-12.2,8.5C352.3,91.6,347.1,92.6,341.3,92.6z"/>
	<path class="st0" d="M500.2,93.7l-34.8-41.3c2.8-0.3,5.3-0.9,7.8-1.6c3.9-1.2,7.3-3.1,10-5.2c2.9-2.3,5.1-5.1,6.7-8.3
		c1.5-3.3,2.4-7,2.4-11c0-8.5-2.9-15-8.5-19.1c-5.4-4-13.3-5.9-23.3-5.9h-21.2c-1.1,0-2.1,0.9-2.1,2.1v91.9c0,1.1,0.9,2.1,2.1,2.1
		h1.5c1.1,0,2.1-0.9,2.1-2.1V52.7h12.3c0.8,0,1.5,0,2.1,0.1c0.4,0,0.8,0.1,1.1,0.2c0.2,0.1,0.5,0.2,0.7,0.4c0.3,0.2,0.5,0.5,0.9,0.9
		l34.5,41.2c0.6,0.7,1.2,1.1,1.8,1.3c0.4,0.1,0.9,0.2,1.4,0.2h1c0.8,0,1.5-0.5,1.8-1.2C500.9,95.1,500.8,94.3,500.2,93.7z
		 M442.9,6.6h17.6c8.6,0,15.3,1.6,19.8,4.8c4.3,3.1,6.5,7.9,6.5,14.8c0,3.3-0.6,6.3-1.8,8.8c-1.2,2.6-3,4.7-5.3,6.6
		c-2.4,1.8-5.2,3.3-8.6,4.2c-3.4,1-7.3,1.5-11.6,1.5H443V6.6H442.9z"/>
</g>
</svg>
