<?xml version="1.0" encoding="utf-8"?>
<!-- Generator: Adobe Illustrator 22.1.0, SVG Export Plug-In . SVG Version: 6.00 Build 0)  -->
<svg version="1.1" id="Layer_1" xmlns="http://www.w3.org/2000/svg" xmlns:xlink="http://www.w3.org/1999/xlink" x="0px" y="0px"
	 viewBox="0 0 55 55" style="enable-background:new 0 0 55 55;" xml:space="preserve">
<style type="text/css">
	.st0{fill:none;stroke:#15CCBA;stroke-width:2.0312;stroke-miterlimit:10;}
	.st1{fill:none;stroke:#15CCBA;stroke-width:1.8202;stroke-miterlimit:10;}
	.st2{fill:#15CCBA;stroke:#15CCBA;stroke-width:2;stroke-miterlimit:10;}
	.st3{fill:#15CCBA;}
	.st4{fill:none;stroke:#15CCBA;stroke-width:2.2864;stroke-linecap:round;stroke-miterlimit:10;}
	.st5{fill:none;stroke:#000000;stroke-width:2.2864;stroke-linecap:round;stroke-miterlimit:10;}
	.st6{fill:none;stroke:#15CCBA;stroke-width:3;stroke-linecap:round;stroke-miterlimit:10;}
	.st7{fill:none;stroke:#000000;stroke-width:2.0312;stroke-miterlimit:10;}
	.st8{fill:none;stroke:#000000;stroke-width:1.8202;stroke-miterlimit:10;}
	.st9{stroke:#000000;stroke-width:2;stroke-miterlimit:10;}
	.st10{fill:none;stroke:#000000;stroke-width:3;stroke-linecap:round;stroke-miterlimit:10;}
	.st11{fill:none;stroke:#000000;stroke-width:2.5615;stroke-linejoin:round;stroke-miterlimit:10;}
	.st12{fill:none;stroke:#000000;stroke-width:2.5615;stroke-linecap:round;stroke-linejoin:round;stroke-miterlimit:10;}
	.st13{fill:none;stroke:#000000;stroke-width:1.9211;stroke-linecap:round;stroke-linejoin:round;stroke-miterlimit:10;}
	.st14{fill:none;stroke:#1A1A1A;stroke-width:2.5206;stroke-linecap:round;stroke-miterlimit:10;}
	.st15{fill:none;stroke:#000000;stroke-width:2.5283;stroke-linecap:round;stroke-linejoin:round;stroke-miterlimit:10;}
	.st16{fill:none;stroke:#15CCBA;stroke-width:2.5283;stroke-linecap:round;stroke-linejoin:round;stroke-miterlimit:10;}
	.st17{fill:none;stroke:#000000;stroke-width:1.6364;stroke-miterlimit:10;}
	.st18{stroke:#000000;stroke-width:1.6364;stroke-miterlimit:10;}
	.st19{fill:none;stroke:#000000;stroke-width:1.5;stroke-linecap:round;stroke-linejoin:round;stroke-miterlimit:10;}
	.st20{fill:none;stroke:#000000;stroke-width:1.636;stroke-linecap:round;stroke-linejoin:round;stroke-miterlimit:10;}
	.st21{fill:none;stroke:#000000;stroke-width:1.636;stroke-linecap:round;stroke-miterlimit:10;}
	.st22{fill:none;stroke:#000000;stroke-width:1.5434;stroke-miterlimit:10;}
	.st23{fill:none;stroke:#000000;stroke-width:4;stroke-linecap:round;stroke-linejoin:round;stroke-miterlimit:10;}
	.st24{fill:none;stroke:#000000;stroke-width:1.543;stroke-linecap:round;stroke-miterlimit:10;}
	.st25{fill:none;stroke:#000000;stroke-width:1.6;stroke-linecap:round;stroke-linejoin:round;stroke-miterlimit:10;}
	.st26{fill:none;stroke:#000000;stroke-width:1.2;stroke-linecap:round;stroke-linejoin:round;stroke-miterlimit:10;}
	.st27{fill:none;stroke:#000000;stroke-width:1.6811;stroke-linecap:round;stroke-linejoin:round;stroke-miterlimit:10;}
	.st28{fill:none;stroke:#000000;stroke-width:1.9874;stroke-linecap:round;stroke-linejoin:round;stroke-miterlimit:10;}
	.st29{fill:none;stroke:#000000;stroke-width:1.987;stroke-linecap:round;stroke-linejoin:round;stroke-miterlimit:10;}
	.st30{fill:none;stroke:#000000;stroke-width:1.7411;stroke-linecap:round;stroke-linejoin:round;stroke-miterlimit:10;}
	.st31{fill:none;stroke:#000000;stroke-width:1.6;stroke-linecap:round;stroke-linejoin:round;stroke-dasharray:0,4.9372;}
	.st32{fill:none;stroke:#000000;stroke-width:0.75;stroke-linecap:round;stroke-linejoin:round;stroke-miterlimit:10;}
	.st33{fill:none;stroke:#000000;stroke-width:0.6735;stroke-linecap:round;stroke-linejoin:round;stroke-miterlimit:10;}
	.st34{fill:none;stroke:#000000;stroke-width:0.6738;stroke-linecap:round;stroke-linejoin:round;stroke-miterlimit:10;}
	.st35{fill:none;stroke:#000000;stroke-width:0.4211;stroke-linecap:round;stroke-miterlimit:10;}
</style>
<g>
	<g>
		<g>
			<path class="st32" d="M33,46l-11.3-0.2c-0.6,0-1.1-0.5-1.1-1.1l0.1-10c0-0.6,0.5-1.1,1.1-1.1l11.3,0.2c0.6,0,1.1,0.5,1.1,1.1
				l-0.1,10C34.1,45.6,33.6,46,33,46z"/>
			<path class="st32" d="M32,33.9l0.1-3.7c0-2.5-1.9-4.5-4.4-4.5s-4.5,1.9-4.5,4.4l-0.1,3.7"/>
			<path d="M27.9,39.8l0,1.5c0,0.2-0.2,0.4-0.5,0.4l0,0c-0.2,0-0.4-0.2-0.4-0.5l0-1.5l0,0c-0.2-0.2-0.3-0.4-0.2-0.7
				c0-0.3,0.3-0.5,0.6-0.6c0.4-0.1,0.8,0.3,0.8,0.7C28.2,39.5,28,39.7,27.9,39.8L27.9,39.8z"/>
		</g>
	</g>
	<g>
		<g>
			<g>
				<path class="st25" d="M38.6,40.3h2c3.4,0,6.1-2.7,6.1-6.1V15.1c0-3.4-2.7-6.1-6.1-6.1h-3.1h-2.9L31,19.5H8.3v14.6
					c0,3.4,2.7,6.1,6.1,6.1h2"/>
				<path class="st25" d="M33,11.8H15.2c-2.5,0-4.4,1.8-4.4,4v3.1"/>
			</g>
		</g>
	</g>
</g>
</svg>
