<?xml version="1.0" encoding="utf-8"?>
<!-- Generator: Adobe Illustrator 22.1.0, SVG Export Plug-In . SVG Version: 6.00 Build 0)  -->
<svg version="1.1" id="Layer_1" xmlns="http://www.w3.org/2000/svg" xmlns:xlink="http://www.w3.org/1999/xlink" x="0px" y="0px"
	 viewBox="0 0 55 55" style="enable-background:new 0 0 55 55;" xml:space="preserve">
<style type="text/css">
	.st0{fill:none;stroke:#15CCBA;stroke-width:2.0312;stroke-miterlimit:10;}
	.st1{fill:none;stroke:#15CCBA;stroke-width:1.8202;stroke-miterlimit:10;}
	.st2{fill:#15CCBA;stroke:#15CCBA;stroke-width:2;stroke-miterlimit:10;}
	.st3{fill:#15CCBA;}
	.st4{fill:none;stroke:#15CCBA;stroke-width:2.2864;stroke-linecap:round;stroke-miterlimit:10;}
	.st5{fill:none;stroke:#000000;stroke-width:2.2864;stroke-linecap:round;stroke-miterlimit:10;}
	.st6{fill:none;stroke:#15CCBA;stroke-width:3;stroke-linecap:round;stroke-miterlimit:10;}
	.st7{fill:none;stroke:#000000;stroke-width:2.0312;stroke-miterlimit:10;}
	.st8{fill:none;stroke:#000000;stroke-width:1.8202;stroke-miterlimit:10;}
	.st9{stroke:#000000;stroke-width:2;stroke-miterlimit:10;}
	.st10{fill:none;stroke:#000000;stroke-width:3;stroke-linecap:round;stroke-miterlimit:10;}
	.st11{fill:none;stroke:#000000;stroke-width:2.5615;stroke-linejoin:round;stroke-miterlimit:10;}
	.st12{fill:none;stroke:#000000;stroke-width:2.5615;stroke-linecap:round;stroke-linejoin:round;stroke-miterlimit:10;}
	.st13{fill:none;stroke:#000000;stroke-width:1.9211;stroke-linecap:round;stroke-linejoin:round;stroke-miterlimit:10;}
	.st14{fill:none;stroke:#1A1A1A;stroke-width:2.5206;stroke-linecap:round;stroke-miterlimit:10;}
	.st15{fill:none;stroke:#000000;stroke-width:2.5283;stroke-linecap:round;stroke-linejoin:round;stroke-miterlimit:10;}
	.st16{fill:none;stroke:#15CCBA;stroke-width:2.5283;stroke-linecap:round;stroke-linejoin:round;stroke-miterlimit:10;}
	.st17{fill:none;stroke:#000000;stroke-width:1.6364;stroke-miterlimit:10;}
	.st18{stroke:#000000;stroke-width:1.6364;stroke-miterlimit:10;}
	.st19{fill:none;stroke:#000000;stroke-width:1.5;stroke-linecap:round;stroke-linejoin:round;stroke-miterlimit:10;}
	.st20{fill:none;stroke:#000000;stroke-width:1.636;stroke-linecap:round;stroke-linejoin:round;stroke-miterlimit:10;}
	.st21{fill:none;stroke:#000000;stroke-width:1.636;stroke-linecap:round;stroke-miterlimit:10;}
	.st22{fill:none;stroke:#000000;stroke-width:1.5434;stroke-miterlimit:10;}
	.st23{fill:none;stroke:#000000;stroke-width:4;stroke-linecap:round;stroke-linejoin:round;stroke-miterlimit:10;}
	.st24{fill:none;stroke:#000000;stroke-width:1.543;stroke-linecap:round;stroke-miterlimit:10;}
	.st25{fill:none;stroke:#000000;stroke-width:1.6;stroke-linecap:round;stroke-linejoin:round;stroke-miterlimit:10;}
	.st26{fill:none;stroke:#000000;stroke-width:1.2;stroke-linecap:round;stroke-linejoin:round;stroke-miterlimit:10;}
	.st27{fill:none;stroke:#000000;stroke-width:1.6811;stroke-linecap:round;stroke-linejoin:round;stroke-miterlimit:10;}
	.st28{fill:none;stroke:#000000;stroke-width:1.9874;stroke-linecap:round;stroke-linejoin:round;stroke-miterlimit:10;}
	.st29{fill:none;stroke:#000000;stroke-width:1.987;stroke-linecap:round;stroke-linejoin:round;stroke-miterlimit:10;}
	.st30{fill:none;stroke:#000000;stroke-width:1.7411;stroke-linecap:round;stroke-linejoin:round;stroke-miterlimit:10;}
	.st31{fill:none;stroke:#000000;stroke-width:1.6;stroke-linecap:round;stroke-linejoin:round;stroke-dasharray:0,4.9372;}
	.st32{fill:none;stroke:#000000;stroke-width:0.75;stroke-linecap:round;stroke-linejoin:round;stroke-miterlimit:10;}
	.st33{fill:none;stroke:#000000;stroke-width:0.6735;stroke-linecap:round;stroke-linejoin:round;stroke-miterlimit:10;}
	.st34{fill:none;stroke:#000000;stroke-width:0.6738;stroke-linecap:round;stroke-linejoin:round;stroke-miterlimit:10;}
	.st35{fill:none;stroke:#000000;stroke-width:0.4211;stroke-linecap:round;stroke-miterlimit:10;}
</style>
<g>
	<g>
		<g>
			<path class="st25" d="M40.5,38.3c3.4,0,6.1-2.7,6.1-6.1V13.2c0-3.4-2.7-6.1-6.1-6.1h-3.1h-2.9L31,17.6H8.3v14.6
				c0,3.4,2.7,6.1,6.1,6.1"/>
			<path class="st25" d="M33,9.8H15.2c-2.5,0-4.4,1.8-4.4,4v3.1"/>
		</g>
	</g>
	<g>
		<g>
			<g>
				<path class="st32" d="M18.9,33.9c-1,1.9-1.3,4.1-0.9,6.3"/>
				<path class="st32" d="M31.7,29.7c-1.8-0.9-4-1.2-6.2-0.8c-2.5,0.5-4.5,1.9-5.9,3.8"/>
				<path class="st32" d="M37,36.4c-0.5-2.5-2-4.6-3.9-6"/>
			</g>
		</g>
		<g>
			<g>
				<path class="st32" d="M37.2,38.5c0-0.7,0-1.4-0.2-2.1"/>
				<path class="st32" d="M18,40.2c0,0.1,0.1,0.3,0.1,0.4"/>
			</g>
		</g>
		<path class="st32" d="M25,47.7c2.2-2.5,3.2-5.9,2.5-9.3"/>
		<path class="st32" d="M25.2,39.4c0.4,2.8-0.7,5.5-2.6,7.3"/>
		<path class="st32" d="M30.1,40.5c0-0.9-0.1-1.7-0.3-2.6l0,0c-0.3-1.3-1.5-2.2-2.9-1.9c-1,0.2-1.7,1-1.9,1.9"/>
		<path class="st32" d="M27.8,48c1.2-1.8,2-3.8,2.2-6"/>
		<path class="st32" d="M22.5,42.7c-0.4,1-1,1.8-1.8,2.5"/>
		<path class="st32" d="M32.3,43c0.3-1.8,0.3-3.7-0.1-5.7l0,0c-0.5-2.6-3.1-4.3-5.7-3.8c-2.6,0.5-4.3,3.1-3.8,5.7l0,0
			c0.1,0.6,0.2,1.2,0.1,1.8"/>
		<path class="st32" d="M31,47.4c0.4-0.9,0.8-1.8,1.1-2.8"/>
		<path class="st32" d="M20.3,38.6c0,0.4,0.1,0.8,0.1,1.1l0,0c0.3,1.3-0.2,2.7-1.2,3.5"/>
		<path class="st32" d="M34.8,37.8c0-0.3-0.1-0.6-0.2-0.9l0,0c-0.8-3.9-4.6-6.5-8.5-5.7c-3,0.6-5.2,3-5.7,5.9"/>
		<path class="st32" d="M34.4,45.1c0.5-1.8,0.7-3.8,0.6-5.8"/>
	</g>
</g>
</svg>
