<?xml version="1.0" encoding="utf-8"?>
<!-- Generator: Adobe Illustrator 22.1.0, SVG Export Plug-In . SVG Version: 6.00 Build 0)  -->
<svg version="1.1" id="Layer_1" xmlns="http://www.w3.org/2000/svg" xmlns:xlink="http://www.w3.org/1999/xlink" x="0px" y="0px"
	 viewBox="0 0 55 55" style="enable-background:new 0 0 55 55;" xml:space="preserve">
<style type="text/css">
	.st0{fill:none;stroke:#15CCBA;stroke-width:2.0312;stroke-miterlimit:10;}
	.st1{fill:none;stroke:#15CCBA;stroke-width:1.8202;stroke-miterlimit:10;}
	.st2{fill:#15CCBA;stroke:#15CCBA;stroke-width:2;stroke-miterlimit:10;}
	.st3{fill:#15CCBA;}
	.st4{fill:none;stroke:#15CCBA;stroke-width:2.2864;stroke-linecap:round;stroke-miterlimit:10;}
	.st5{fill:none;stroke:#000000;stroke-width:2.2864;stroke-linecap:round;stroke-miterlimit:10;}
	.st6{fill:none;stroke:#15CCBA;stroke-width:3;stroke-linecap:round;stroke-miterlimit:10;}
	.st7{fill:none;stroke:#000000;stroke-width:2.0312;stroke-miterlimit:10;}
	.st8{fill:none;stroke:#000000;stroke-width:1.8202;stroke-miterlimit:10;}
	.st9{stroke:#000000;stroke-width:2;stroke-miterlimit:10;}
	.st10{fill:none;stroke:#000000;stroke-width:3;stroke-linecap:round;stroke-miterlimit:10;}
	.st11{fill:none;stroke:#000000;stroke-width:2.5615;stroke-linejoin:round;stroke-miterlimit:10;}
	.st12{fill:none;stroke:#000000;stroke-width:2.5615;stroke-linecap:round;stroke-linejoin:round;stroke-miterlimit:10;}
	.st13{fill:none;stroke:#000000;stroke-width:1.9211;stroke-linecap:round;stroke-linejoin:round;stroke-miterlimit:10;}
	.st14{fill:none;stroke:#1A1A1A;stroke-width:2.5206;stroke-linecap:round;stroke-miterlimit:10;}
	.st15{fill:none;stroke:#000000;stroke-width:2.5283;stroke-linecap:round;stroke-linejoin:round;stroke-miterlimit:10;}
	.st16{fill:none;stroke:#15CCBA;stroke-width:2.5283;stroke-linecap:round;stroke-linejoin:round;stroke-miterlimit:10;}
	.st17{fill:none;stroke:#000000;stroke-width:1.6364;stroke-miterlimit:10;}
	.st18{stroke:#000000;stroke-width:1.6364;stroke-miterlimit:10;}
	.st19{fill:none;stroke:#000000;stroke-width:1.5;stroke-linecap:round;stroke-linejoin:round;stroke-miterlimit:10;}
	.st20{fill:none;stroke:#000000;stroke-width:1.636;stroke-linecap:round;stroke-linejoin:round;stroke-miterlimit:10;}
	.st21{fill:none;stroke:#000000;stroke-width:1.636;stroke-linecap:round;stroke-miterlimit:10;}
	.st22{fill:none;stroke:#000000;stroke-width:1.5434;stroke-miterlimit:10;}
	.st23{fill:none;stroke:#000000;stroke-width:4;stroke-linecap:round;stroke-linejoin:round;stroke-miterlimit:10;}
	.st24{fill:none;stroke:#000000;stroke-width:1.543;stroke-linecap:round;stroke-miterlimit:10;}
	.st25{fill:none;stroke:#000000;stroke-width:1.6;stroke-linecap:round;stroke-linejoin:round;stroke-miterlimit:10;}
	.st26{fill:none;stroke:#000000;stroke-width:1.2;stroke-linecap:round;stroke-linejoin:round;stroke-miterlimit:10;}
	.st27{fill:none;stroke:#000000;stroke-width:1.6811;stroke-linecap:round;stroke-linejoin:round;stroke-miterlimit:10;}
	.st28{fill:none;stroke:#000000;stroke-width:1.9874;stroke-linecap:round;stroke-linejoin:round;stroke-miterlimit:10;}
	.st29{fill:none;stroke:#000000;stroke-width:1.987;stroke-linecap:round;stroke-linejoin:round;stroke-miterlimit:10;}
	.st30{fill:none;stroke:#000000;stroke-width:1.7411;stroke-linecap:round;stroke-linejoin:round;stroke-miterlimit:10;}
	.st31{fill:none;stroke:#000000;stroke-width:1.6;stroke-linecap:round;stroke-linejoin:round;stroke-dasharray:0,4.9372;}
	.st32{fill:none;stroke:#000000;stroke-width:0.75;stroke-linecap:round;stroke-linejoin:round;stroke-miterlimit:10;}
	.st33{fill:none;stroke:#000000;stroke-width:0.6735;stroke-linecap:round;stroke-linejoin:round;stroke-miterlimit:10;}
	.st34{fill:none;stroke:#000000;stroke-width:0.6738;stroke-linecap:round;stroke-linejoin:round;stroke-miterlimit:10;}
	.st35{fill:none;stroke:#000000;stroke-width:0.4211;stroke-linecap:round;stroke-miterlimit:10;}
	.st36{fill:none;stroke:#000000;stroke-width:0.7499;stroke-linecap:round;stroke-linejoin:round;stroke-miterlimit:10;}
	.st37{fill:none;stroke:#000000;stroke-width:1.4138;stroke-linecap:round;stroke-miterlimit:10;}
	.st38{fill:#FFFFFF;}
</style>
<g>
	<g>
		<g>
			<g>
				<path class="st36" d="M16.7,22c-1.2,2.4-1.7,5.1-1.1,7.9"/>
				<path class="st36" d="M32.8,16.6c-2.3-1.1-5-1.6-7.8-1c-3.1,0.6-5.7,2.4-7.4,4.7"/>
				<path class="st36" d="M39.4,25.1c-0.6-3.2-2.5-5.8-4.9-7.5"/>
			</g>
		</g>
		<g>
			<g>
				<path class="st36" d="M39.7,27.7c0-0.9-0.1-1.8-0.2-2.6"/>
				<path class="st36" d="M15.6,29.9c0,0.2,0.1,0.3,0.1,0.5"/>
			</g>
		</g>
		<path class="st36" d="M24.4,39.3c2.7-3.1,4-7.4,3.1-11.7"/>
		<path class="st36" d="M24.6,28.8c0.5,3.5-0.8,6.9-3.3,9.2"/>
		<path class="st36" d="M30.8,30.2c0-1.1-0.1-2.2-0.3-3.3l0,0c-0.3-1.6-1.9-2.7-3.6-2.4c-1.2,0.2-2.1,1.2-2.4,2.4"/>
		<path class="st36" d="M27.9,39.7c1.5-2.2,2.5-4.8,2.8-7.6"/>
		<path class="st36" d="M21.2,33c-0.5,1.2-1.3,2.3-2.3,3.1"/>
		<path class="st36" d="M33.6,33.4c0.4-2.3,0.4-4.7-0.1-7.1l0,0c-0.7-3.3-3.9-5.4-7.2-4.8c-3.3,0.7-5.4,3.9-4.8,7.2l0,0
			c0.2,0.8,0.2,1.6,0.1,2.3"/>
		<path class="st36" d="M31.9,38.9c0.6-1.1,1-2.3,1.3-3.5"/>
		<path class="st36" d="M18.4,27.9c0,0.5,0.1,1,0.2,1.4l0,0c0.3,1.7-0.3,3.4-1.5,4.4"/>
		<path class="st36" d="M36.6,26.9c-0.1-0.4-0.1-0.8-0.2-1.2l0,0c-1-4.9-5.8-8.1-10.7-7.1c-3.8,0.8-6.6,3.8-7.2,7.4"/>
		<path class="st36" d="M36.1,36.1c0.6-2.3,0.9-4.8,0.7-7.3"/>
	</g>
</g>
<circle class="st25" cx="27.5" cy="27.5" r="20.7"/>
<line class="st25" x1="42.2" y1="13" x2="13" y2="42.2"/>
<circle class="st25" cx="27.5" cy="27.5" r="20.7"/>
<circle cx="20" cy="19.2" r="3.8"/>
<g>
	<path class="st38" d="M19.5,20.9c0-0.2,0.2-0.5,0.5-0.5c0.3,0,0.5,0.2,0.5,0.5c0,0.3-0.2,0.5-0.5,0.5
		C19.7,21.4,19.5,21.2,19.5,20.9z M19.6,20l-0.1-3h0.8l-0.1,3H19.6z"/>
</g>
</svg>
