<?xml version="1.0" encoding="utf-8"?>
<!-- Generator: Adobe Illustrator 22.1.0, SVG Export Plug-In . SVG Version: 6.00 Build 0)  -->
<svg version="1.1" id="Layer_1" xmlns="http://www.w3.org/2000/svg" xmlns:xlink="http://www.w3.org/1999/xlink" x="0px" y="0px"
	 viewBox="0 0 55 55" style="enable-background:new 0 0 55 55;" xml:space="preserve">
<style type="text/css">
	.st0{fill:none;stroke:#15CCBA;stroke-width:2.0312;stroke-miterlimit:10;}
	.st1{fill:none;stroke:#15CCBA;stroke-width:1.8202;stroke-miterlimit:10;}
	.st2{fill:#15CCBA;stroke:#15CCBA;stroke-width:2;stroke-miterlimit:10;}
	.st3{fill:#15CCBA;}
	.st4{fill:none;stroke:#15CCBA;stroke-width:2.2864;stroke-linecap:round;stroke-miterlimit:10;}
	.st5{fill:none;stroke:#000000;stroke-width:2.2864;stroke-linecap:round;stroke-miterlimit:10;}
	.st6{fill:none;stroke:#15CCBA;stroke-width:3;stroke-linecap:round;stroke-miterlimit:10;}
	.st7{fill:none;stroke:#000000;stroke-width:2.0312;stroke-miterlimit:10;}
	.st8{fill:none;stroke:#000000;stroke-width:1.8202;stroke-miterlimit:10;}
	.st9{stroke:#000000;stroke-width:2;stroke-miterlimit:10;}
	.st10{fill:none;stroke:#000000;stroke-width:3;stroke-linecap:round;stroke-miterlimit:10;}
	.st11{fill:none;stroke:#000000;stroke-width:2.5615;stroke-linejoin:round;stroke-miterlimit:10;}
	.st12{fill:none;stroke:#000000;stroke-width:2.5615;stroke-linecap:round;stroke-linejoin:round;stroke-miterlimit:10;}
	.st13{fill:none;stroke:#000000;stroke-width:1.9211;stroke-linecap:round;stroke-linejoin:round;stroke-miterlimit:10;}
	.st14{fill:none;stroke:#1A1A1A;stroke-width:2.5206;stroke-linecap:round;stroke-miterlimit:10;}
	.st15{fill:none;stroke:#000000;stroke-width:2.5283;stroke-linecap:round;stroke-linejoin:round;stroke-miterlimit:10;}
	.st16{fill:none;stroke:#15CCBA;stroke-width:2.5283;stroke-linecap:round;stroke-linejoin:round;stroke-miterlimit:10;}
	.st17{fill:none;stroke:#000000;stroke-width:1.6364;stroke-miterlimit:10;}
	.st18{stroke:#000000;stroke-width:1.6364;stroke-miterlimit:10;}
	.st19{fill:none;stroke:#000000;stroke-width:1.5;stroke-linecap:round;stroke-linejoin:round;stroke-miterlimit:10;}
	.st20{fill:none;stroke:#000000;stroke-width:1.636;stroke-linecap:round;stroke-linejoin:round;stroke-miterlimit:10;}
	.st21{fill:none;stroke:#000000;stroke-width:1.636;stroke-linecap:round;stroke-miterlimit:10;}
	.st22{fill:none;stroke:#000000;stroke-width:1.5434;stroke-miterlimit:10;}
	.st23{fill:none;stroke:#000000;stroke-width:4;stroke-linecap:round;stroke-linejoin:round;stroke-miterlimit:10;}
	.st24{fill:none;stroke:#000000;stroke-width:1.543;stroke-linecap:round;stroke-miterlimit:10;}
	.st25{fill:none;stroke:#000000;stroke-width:1.6;stroke-linecap:round;stroke-linejoin:round;stroke-miterlimit:10;}
	.st26{fill:none;stroke:#000000;stroke-width:1.2;stroke-linecap:round;stroke-linejoin:round;stroke-miterlimit:10;}
	.st27{fill:none;stroke:#000000;stroke-width:1.6811;stroke-linecap:round;stroke-linejoin:round;stroke-miterlimit:10;}
	.st28{fill:none;stroke:#000000;stroke-width:1.9874;stroke-linecap:round;stroke-linejoin:round;stroke-miterlimit:10;}
	.st29{fill:none;stroke:#000000;stroke-width:1.987;stroke-linecap:round;stroke-linejoin:round;stroke-miterlimit:10;}
	.st30{fill:none;stroke:#000000;stroke-width:1.7411;stroke-linecap:round;stroke-linejoin:round;stroke-miterlimit:10;}
	.st31{fill:none;stroke:#000000;stroke-width:1.6;stroke-linecap:round;stroke-linejoin:round;stroke-dasharray:0,4.9372;}
	.st32{fill:none;stroke:#000000;stroke-width:0.75;stroke-linecap:round;stroke-linejoin:round;stroke-miterlimit:10;}
	.st33{fill:none;stroke:#000000;stroke-width:0.6735;stroke-linecap:round;stroke-linejoin:round;stroke-miterlimit:10;}
	.st34{fill:none;stroke:#000000;stroke-width:0.6738;stroke-linecap:round;stroke-linejoin:round;stroke-miterlimit:10;}
	.st35{fill:none;stroke:#000000;stroke-width:0.4211;stroke-linecap:round;stroke-miterlimit:10;}
	.st36{fill:none;stroke:#000000;stroke-width:0.7499;stroke-linecap:round;stroke-linejoin:round;stroke-miterlimit:10;}
	.st37{fill:none;stroke:#000000;stroke-width:1.4138;stroke-linecap:round;stroke-miterlimit:10;}
	.st38{fill:#FFFFFF;}
</style>
<g>
	<g>
		<path class="st32" d="M31.5,31.8l-7.9,0c-0.4,0-0.8-0.3-0.8-0.8l0-7c0-0.4,0.3-0.8,0.8-0.8l7.9,0c0.4,0,0.8,0.3,0.8,0.8l0,7
			C32.2,31.5,31.9,31.8,31.5,31.8z"/>
		<path class="st32" d="M30.6,23.3v-3.9c0-1.7-1.4-3.1-3.1-3.1s-3.1,1.4-3.1,3.1v3.9"/>
		<path d="M27.8,27.5v1c0,0.2-0.1,0.3-0.3,0.3l0,0c-0.2,0-0.3-0.1-0.3-0.3v-1l0,0c-0.1-0.1-0.2-0.3-0.2-0.5c0-0.2,0.2-0.4,0.4-0.4
			c0.3-0.1,0.6,0.2,0.6,0.5C28,27.3,27.9,27.4,27.8,27.5L27.8,27.5z"/>
	</g>
	<path class="st25" d="M28.1,49.1C45.9,32,44.1,16.1,43.6,13c-0.1-0.3-0.3-0.6-0.6-0.7c-7.7-2.1-13.5-5.5-15-6.5
		c-0.3-0.2-0.6-0.2-0.9,0c-1.6,1-7.3,4.5-15,6.5c-0.3,0.1-0.6,0.3-0.6,0.7c-0.6,3.1-2.3,19,15.5,36.2C27.3,49.4,27.7,49.4,28.1,49.1
		z"/>
	<path class="st32" d="M28,44.7c14.6-14,13.1-27,12.7-29.5c0-0.3-0.2-0.5-0.5-0.5c-6.3-1.7-11-4.5-12.3-5.3c-0.2-0.1-0.5-0.1-0.7,0
		c-1.3,0.8-6,3.6-12.3,5.3c-0.3,0.1-0.5,0.3-0.5,0.5c-0.5,2.5-1.9,15.5,12.7,29.5C27.3,44.9,27.7,44.9,28,44.7z"/>
</g>
</svg>
