<svg width="670" height="205" xmlns="http://www.w3.org/2000/svg">
 <title>1</title>

 <g>
  <title>background</title>
  <rect fill="none" id="canvas_background" height="207" width="672" y="-1" x="-1"/>
 </g>
 <g>
  <title>Layer 1</title>
  <path id="svg_1" d="m2.81,3.11l0,198.78l198.79,0l0,-198.78l-198.79,0zm181.86,98l-11.4,0l0,-69.68l-69.67,0l0,-11.43l81.07,0l0,81.11zm-150.79,69.68l0,-136.58l136.62,0l0,136.58l-136.62,0zm67,-139.36l-69.77,0l0,69.68l-11.35,0l0,-81.11l81.07,0l0.05,11.43zm-81.12,72.46l11.35,0l0,69.68l69.68,0l0,11.43l-81,0l-0.03,-81.11zm83.84,69.68l69.67,0l0,-69.68l11.4,0l0,81.11l-81.07,0l0,-11.43zm81.88,-156.3l-166.54,0l-11.39,-11.39l189.32,0l-11.39,11.39zm-168.48,1.96l0,166.54l-11.4,11.39l0,-189.32l11.4,11.39zm2,168.5l166.48,0l11.39,11.39l-189.32,0l11.45,-11.39zm168.5,-2l0,-166.5l11.39,-11.39l0,189.32l-11.39,-11.43z"/>
  <path id="svg_2" d="m317,66.69a29.77,29.77 0 0 0 -10.85,-9a30.72,30.72 0 0 0 -26.23,0a29.9,29.9 0 0 0 -10.84,9a45.93,45.93 0 0 0 -7.18,14.93a75.12,75.12 0 0 0 -2.61,20.94a75.12,75.12 0 0 0 2.61,20.94a45.53,45.53 0 0 0 7.16,14.9a29.7,29.7 0 0 0 10.85,8.95a31,31 0 0 0 26.21,0a29.42,29.42 0 0 0 10.88,-8.94a45.38,45.38 0 0 0 7.18,-14.9a74.87,74.87 0 0 0 2.61,-20.95a75.12,75.12 0 0 0 -2.61,-20.94a45.66,45.66 0 0 0 -7.18,-14.93zm-24,78.31a24.88,24.88 0 0 1 -10.79,-2.43a24.29,24.29 0 0 1 -8.21,-6.57l40.45,-63.11a44.69,44.69 0 0 1 4.29,10.36a70.55,70.55 0 0 1 2.33,19.35a70.66,70.66 0 0 1 -2.33,19.36a40.23,40.23 0 0 1 -6.17,13.17a24.14,24.14 0 0 1 -8.83,7.46a24.7,24.7 0 0 1 -10.68,2.41l-0.06,0zm-25.89,-23.06a71.83,71.83 0 0 1 -2.32,-19.36a71.71,71.71 0 0 1 2.32,-19.35a40.45,40.45 0 0 1 6.2,-13.2a24.51,24.51 0 0 1 30.47,-7.51a23.7,23.7 0 0 1 7.59,6l-40.37,62.98a45.92,45.92 0 0 1 -3.85,-9.58l-0.04,0.02z"/>
  <path id="svg_3" d="m422.58,106.85a26.73,26.73 0 0 0 -8.43,-4.91c-0.71,-0.27 -1.44,-0.51 -2.19,-0.73l0.33,-0.17a25.42,25.42 0 0 0 7,-5.31a24.6,24.6 0 0 0 4.66,-7.24a21.53,21.53 0 0 0 1.72,-8.45c0,-7.81 -2.6,-13.9 -7.74,-18.1s-12.6,-6.18 -22.54,-6.18l-23.3,0a2,2 0 0 0 -2,2l0,89.6a2,2 0 0 0 2,2l26.75,0a47.25,47.25 0 0 0 12.8,-1.61a27.71,27.71 0 0 0 9.85,-4.87a21.2,21.2 0 0 0 6.28,-8.15a26.76,26.76 0 0 0 2.13,-10.92a23.35,23.35 0 0 0 -1.9,-9.51a21.27,21.27 0 0 0 -5.42,-7.45zm-23.69,37.23l-23.21,0l0,-39.52l23.38,0a38.54,38.54 0 0 1 10.74,1.44a23,23 0 0 1 8,3.91a16.93,16.93 0 0 1 6.69,13.91a21.68,21.68 0 0 1 -1.68,8.89a16,16 0 0 1 -4.82,6.21a22.45,22.45 0 0 1 -8,3.84a42.36,42.36 0 0 1 -11.1,1.32zm8.61,-46.64a31.35,31.35 0 0 1 -11.44,1.84l-20.4,0l0,-38.28l19.76,0c8.56,0 14.95,1.7 19,5s5.91,7.86 5.91,14a18.73,18.73 0 0 1 -1.28,6.62a17.21,17.21 0 0 1 -4.08,6.13a21.9,21.9 0 0 1 -7.47,4.65l0,0.04z"/>
  <path id="svg_4" d="m547.15,67.67a38.85,38.85 0 0 0 -13.8,-9.61a45.54,45.54 0 0 0 -17.6,-3.32a44.77,44.77 0 0 0 -17.51,3.36a39.27,39.27 0 0 0 -13.75,9.64a44.21,44.21 0 0 0 -8.92,15.11a58.22,58.22 0 0 0 -3.16,19.71a58.41,58.41 0 0 0 3.16,19.75a44,44 0 0 0 8.92,15.05a39.24,39.24 0 0 0 13.76,9.58a48,48 0 0 0 35.1,0a39.08,39.08 0 0 0 13.79,-9.58a43.46,43.46 0 0 0 8.92,-15.05a58.41,58.41 0 0 0 3.16,-19.75a58.58,58.58 0 0 0 -3.16,-19.78a44.19,44.19 0 0 0 -8.91,-15.11zm-31.4,77.33a39.39,39.39 0 0 1 -15.23,-2.89a33.53,33.53 0 0 1 -11.87,-8.27a39.27,39.27 0 0 1 -7.85,-13.32a53.21,53.21 0 0 1 -2.85,-18a53.46,53.46 0 0 1 2.85,-18a39.71,39.71 0 0 1 7.85,-13.34a33.39,33.39 0 0 1 11.87,-8.3a39.39,39.39 0 0 1 15.23,-2.88a40,40 0 0 1 15.4,2.89a32.75,32.75 0 0 1 11.91,8.35a38.62,38.62 0 0 1 7.7,13.29a54,54 0 0 1 2.8,18a53.7,53.7 0 0 1 -2.8,18a38.35,38.35 0 0 1 -7.7,13.32a33,33 0 0 1 -11.86,8.27a39.86,39.86 0 0 1 -15.45,2.88z"/>
  <path id="svg_5" d="m663.8,146.18l-32.74,-44.83l31.2,-42.35a2,2 0 0 0 -0.41,-2.8a2.07,2.07 0 0 0 -1.2,-0.39l-1.41,0a2.91,2.91 0 0 0 -2.08,0.87a5.39,5.39 0 0 0 -0.73,0.91l-28.93,39.64l-29,-39.73l-0.38,-0.53a2.8,2.8 0 0 0 -2.37,-1.17l-1.4,0a2,2 0 0 0 -2,2a2.07,2.07 0 0 0 0.39,1.2l31.26,42.5l-32.8,44.64a2,2 0 0 0 1.61,3.18l1.41,0a2.83,2.83 0 0 0 2.14,-1l0.63,-0.76l30.57,-42l30.44,41.89c0.09,0.15 0.24,0.36 0.43,0.62a2.86,2.86 0 0 0 2.39,1.17l1.41,0a2,2 0 0 0 1.61,-3.18l-0.04,0.12z"/>
 </g>
</svg>