<svg id="Layer_1" data-name="Layer 1" xmlns="http://www.w3.org/2000/svg" viewBox="0 0 731 253"><title>1</title><path d="M34.81,27.11V225.89H233.6V27.11Zm181.86,98h-11.4V55.43H135.6V44h81.07ZM65.88,194.79V58.21H202.5V194.79Zm67-139.36H63.11v69.68H51.76V44h81.07ZM51.76,127.89H63.11v69.68h69.68V209h-81Zm83.84,69.68h69.67V127.89h11.4V209H135.6Zm81.88-156.3H50.94L39.55,29.88H228.87ZM49,43.23V209.77l-11.4,11.39V31.84Zm2,168.5H217.48l11.39,11.39H39.55Zm168.5-2V43.23l11.39-11.39V221.16Z"/><path d="M349,90.69a29.77,29.77,0,0,0-10.85-9,30.72,30.72,0,0,0-26.23,0,29.9,29.9,0,0,0-10.84,9,45.93,45.93,0,0,0-7.18,14.93,75.12,75.12,0,0,0-2.61,20.94,75.12,75.12,0,0,0,2.61,20.94,45.53,45.53,0,0,0,7.16,14.9,29.7,29.7,0,0,0,10.85,8.95,31,31,0,0,0,26.21,0A29.42,29.42,0,0,0,349,162.41a45.38,45.38,0,0,0,7.18-14.9,74.87,74.87,0,0,0,2.61-20.95,75.12,75.12,0,0,0-2.61-20.94A45.66,45.66,0,0,0,349,90.69ZM325,169a24.88,24.88,0,0,1-10.79-2.43A24.29,24.29,0,0,1,306,160l40.45-63.11a44.69,44.69,0,0,1,4.29,10.36,70.55,70.55,0,0,1,2.33,19.35,70.66,70.66,0,0,1-2.33,19.36,40.23,40.23,0,0,1-6.17,13.17,24.14,24.14,0,0,1-8.83,7.46A24.7,24.7,0,0,1,325.06,169Zm-25.89-23.06a71.83,71.83,0,0,1-2.32-19.36,71.71,71.71,0,0,1,2.32-19.35,40.45,40.45,0,0,1,6.2-13.2,24.51,24.51,0,0,1,30.47-7.51,23.7,23.7,0,0,1,7.59,6L303,155.5a45.92,45.92,0,0,1-3.85-9.58Z"/><path d="M454.58,130.85a26.73,26.73,0,0,0-8.43-4.91c-.71-.27-1.44-.51-2.19-.73l.33-.17a25.42,25.42,0,0,0,7-5.31,24.6,24.6,0,0,0,4.66-7.24,21.53,21.53,0,0,0,1.72-8.45c0-7.81-2.6-13.9-7.74-18.1s-12.6-6.18-22.54-6.18h-23.3a2,2,0,0,0-2,2v89.6a2,2,0,0,0,2,2h26.75a47.25,47.25,0,0,0,12.8-1.61,27.71,27.71,0,0,0,9.85-4.87,21.2,21.2,0,0,0,6.28-8.15,26.76,26.76,0,0,0,2.13-10.92,23.35,23.35,0,0,0-1.9-9.51A21.27,21.27,0,0,0,454.58,130.85Zm-23.69,37.23H407.68V128.56h23.38A38.54,38.54,0,0,1,441.8,130a23,23,0,0,1,8,3.91,16.93,16.93,0,0,1,6.69,13.91,21.68,21.68,0,0,1-1.68,8.89,16,16,0,0,1-4.82,6.21,22.45,22.45,0,0,1-8,3.84A42.36,42.36,0,0,1,430.89,168.08Zm8.61-46.64a31.35,31.35,0,0,1-11.44,1.84h-20.4V85h19.76c8.56,0,14.95,1.7,19,5s5.91,7.86,5.91,14a18.73,18.73,0,0,1-1.28,6.62,17.21,17.21,0,0,1-4.08,6.13,21.9,21.9,0,0,1-7.47,4.65Z"/><path d="M579.15,91.67a38.85,38.85,0,0,0-13.8-9.61,45.54,45.54,0,0,0-17.6-3.32,44.77,44.77,0,0,0-17.51,3.36,39.27,39.27,0,0,0-13.75,9.64,44.21,44.21,0,0,0-8.92,15.11,58.22,58.22,0,0,0-3.16,19.71,58.41,58.41,0,0,0,3.16,19.75,44,44,0,0,0,8.92,15.05,39.24,39.24,0,0,0,13.76,9.58,48,48,0,0,0,35.1,0,39.08,39.08,0,0,0,13.79-9.58,43.46,43.46,0,0,0,8.92-15.05,58.41,58.41,0,0,0,3.16-19.75,58.58,58.58,0,0,0-3.16-19.78A44.19,44.19,0,0,0,579.15,91.67ZM547.75,169a39.39,39.39,0,0,1-15.23-2.89,33.53,33.53,0,0,1-11.87-8.27,39.27,39.27,0,0,1-7.85-13.32,53.21,53.21,0,0,1-2.85-18,53.46,53.46,0,0,1,2.85-18,39.71,39.71,0,0,1,7.85-13.34,33.39,33.39,0,0,1,11.87-8.3A39.39,39.39,0,0,1,547.75,84a40,40,0,0,1,15.4,2.89,32.75,32.75,0,0,1,11.91,8.35,38.62,38.62,0,0,1,7.7,13.29,54,54,0,0,1,2.8,18,53.7,53.7,0,0,1-2.8,18,38.35,38.35,0,0,1-7.7,13.32,33,33,0,0,1-11.86,8.27A39.86,39.86,0,0,1,547.75,169Z"/><path d="M695.8,170.18l-32.74-44.83L694.26,83a2,2,0,0,0-.41-2.8,2.07,2.07,0,0,0-1.2-.39h-1.41a2.91,2.91,0,0,0-2.08.87,5.39,5.39,0,0,0-.73.91L659.5,121.23l-29-39.73-.38-.53a2.8,2.8,0,0,0-2.37-1.17h-1.4a2,2,0,0,0-2,2,2.07,2.07,0,0,0,.39,1.2L656,125.5,623.2,170.14a2,2,0,0,0,1.61,3.18h1.41a2.83,2.83,0,0,0,2.14-1l.63-.76,30.57-42L690,171.45c.09.15.24.36.43.62a2.86,2.86,0,0,0,2.39,1.17h1.41a2,2,0,0,0,1.61-3.18Z"/></svg>