<?xml version="1.0" encoding="utf-8"?>
<!-- Generator: Adobe Illustrator 24.1.3, SVG Export Plug-In . SVG Version: 6.00 Build 0)  -->
<svg version="1.1" id="Layer_1" xmlns="http://www.w3.org/2000/svg" xmlns:xlink="http://www.w3.org/1999/xlink" x="0px" y="0px"
	 viewBox="0 0 545.8 163" style="enable-background:new 0 0 545.8 163;" xml:space="preserve">
<style type="text/css">
	.st0{fill:#FFFFFF;}
	.st1{fill:none;stroke:#19191D;stroke-width:5;stroke-linecap:round;stroke-linejoin:round;stroke-miterlimit:10;}
	.st2{fill:#19191D;}
	.st3{fill:none;stroke:#000000;stroke-width:3;stroke-miterlimit:10;}
	.st4{fill:none;stroke:#19191D;stroke-width:2.4717;stroke-linecap:round;stroke-linejoin:round;stroke-miterlimit:10;}
	.st5{fill:#19191D;stroke:#19191D;stroke-width:4;stroke-linecap:round;stroke-linejoin:round;stroke-miterlimit:10;}
	.st6{fill:none;stroke:#000000;stroke-width:3;stroke-linecap:round;stroke-linejoin:round;stroke-miterlimit:10;}
</style>
<g>
	<path class="st2" d="M86.4,45.6c-3.1-4-6.7-7-10.8-9c-4.1-2-8.5-2.9-13.1-2.9s-9,1-13.1,2.9c-4.1,2-7.8,5-10.8,9
		c-3,4-5.4,9-7.2,14.9c-1.7,5.9-2.6,12.9-2.6,20.9c0,8,0.9,15.1,2.6,20.9c1.7,5.9,4.2,11,7.2,14.9c3.1,4,6.7,7,10.8,8.9
		c4.1,1.9,8.5,2.9,13.1,2.9s9-1,13.1-2.9c4.1-1.9,7.8-5,10.9-8.9c3-3.9,5.4-8.9,7.2-14.9c1.7-5.9,2.6-12.9,2.6-20.9
		c0-8-0.9-15.1-2.6-20.9C91.8,54.6,89.4,49.6,86.4,45.6z M62.4,123.9c-3.8,0-7.4-0.8-10.8-2.4c-3.1-1.5-5.8-3.7-8.2-6.6l40.5-63.1
		c1.7,2.9,3.2,6.4,4.3,10.4c1.5,5.4,2.3,11.9,2.3,19.4c0,7.5-0.8,14-2.3,19.4c-1.5,5.3-3.6,9.8-6.2,13.2c-2.5,3.4-5.5,5.9-8.8,7.5
		C69.8,123.1,66.2,123.9,62.4,123.9z M36.5,100.9C35,95.5,34.2,89,34.2,81.5c0-7.5,0.8-14,2.3-19.4c1.5-5.3,3.6-9.8,6.2-13.2
		c2.5-3.4,5.5-5.9,8.9-7.5c3.4-1.6,7-2.5,10.8-2.5c3.8,0,7.4,0.8,10.7,2.5c2.8,1.4,5.4,3.4,7.6,6l-40.4,63
		C38.8,107.6,37.6,104.5,36.5,100.9z"/>
	<path class="st2" d="M179.7,84.4c-2.3-1.7-5-3.2-8-4.3c-2.8-1.1-5.8-2.1-8.7-3.1c-2.9-1-5.7-2-8.5-3c-2.6-1-5-2.2-7-3.7
		c-1.9-1.4-3.5-3.2-4.7-5.2c-1.2-2-1.7-4.5-1.7-7.6c0-2.4,0.5-4.8,1.4-7c0.9-2.2,2.2-4.2,3.9-5.8c1.7-1.7,3.9-3.1,6.5-4.1
		c2.6-1,5.6-1.6,9-1.6c3.3,0,6.1,0.4,8.3,1.2c2.2,0.8,4.1,1.7,5.4,2.6c1.4,0.9,2.4,1.8,3.1,2.5c0.9,1,2,2,3.2,2
		c0.8,0,1.6-0.4,2.2-1.1c0-0.1,0.1-0.1,0.1-0.2l0.3-0.4c0.5-0.8,0.4-1.8-0.2-2.5c-3.1-3.3-6.5-5.7-10.1-7.2
		c-3.6-1.5-7.7-2.3-12.3-2.3c-4.1,0-7.8,0.7-11.1,1.9c-3.2,1.3-6,3-8.2,5.2c-2.2,2.2-4,4.8-5.1,7.6c-1.2,2.9-1.7,5.9-1.7,9
		c0,3.2,0.5,6,1.5,8.4c1,2.4,2.3,4.5,4,6.2c1.6,1.7,3.5,3.2,5.7,4.3c2.1,1.1,4.3,2.1,6.6,3c2.3,0.9,4.7,1.7,7,2.4
		c2.3,0.7,4.6,1.5,6.8,2.3c2.2,0.8,4.2,1.7,6.1,2.7c1.8,0.9,3.4,2.1,4.7,3.4c1.3,1.3,2.3,2.8,3.1,4.6c0.8,1.8,1.2,4,1.2,6.5
		c0,3.1-0.5,6.1-1.6,8.8c-1.1,2.7-2.6,5.1-4.7,7.2c-2,2-4.6,3.7-7.5,4.9c-3,1.2-6.4,1.8-10.3,1.8c-2.6,0-5-0.3-7-0.7
		c-2-0.5-3.9-1.1-5.5-1.9c-1.6-0.8-2.9-1.6-4-2.4c-1.1-0.9-2.1-1.7-2.9-2.5c-0.8-0.8-1.5-1.5-1.9-2c-0.6-0.7-1.5-1.4-2.6-1.4
		c-0.7,0-1.2,0.2-1.6,0.5c-0.1,0.1-0.3,0.3-0.5,0.5l-0.3,0.3c-0.7,0.7-0.8,1.9-0.1,2.7c1.6,1.9,3.3,3.6,5,5.1
		c1.8,1.5,3.8,2.8,5.9,3.9c2.1,1.1,4.5,1.9,7,2.5c2.5,0.6,5.4,0.8,8.6,0.8c4.6,0,8.8-0.7,12.4-2.2c3.7-1.5,6.8-3.5,9.3-6
		c2.5-2.6,4.5-5.6,5.8-9c1.3-3.4,2-7.1,2-11c0-4-0.8-7.3-2.3-10C184.1,88.4,182.1,86.2,179.7,84.4z"/>
	<path class="st2" d="M290.5,34.7h-69.1c-1.1,0-2,0.9-2,2v1.4c0,1.1,0.9,2,2,2h31.9v86.2c0,1.1,0.9,2,2,2h1.5c1.1,0,2-0.9,2-2V40.1
		h31.7c1.1,0,2-0.9,2-2v-1.4C292.5,35.6,291.6,34.7,290.5,34.7z"/>
	<path class="st2" d="M393.1,46.6c-3.8-4.2-8.5-7.4-13.8-9.6c-5.3-2.2-11.2-3.3-17.6-3.3c-6.3,0-12.2,1.1-17.5,3.4
		c-5.3,2.2-9.9,5.5-13.8,9.6c-3.8,4.1-6.8,9.2-8.9,15.1c-2.1,5.8-3.2,12.5-3.2,19.7c0,7.3,1.1,13.9,3.2,19.7
		c2.1,5.9,5.1,10.9,8.9,15c3.8,4.1,8.5,7.4,13.8,9.6c5.3,2.2,11.2,3.3,17.5,3.3c6.4,0,12.3-1.1,17.6-3.3c5.3-2.2,10-5.4,13.8-9.6
		c3.8-4.1,6.8-9.2,8.9-15c2.1-5.8,3.2-12.5,3.2-19.7s-1.1-13.9-3.2-19.8C399.9,55.8,396.9,50.8,393.1,46.6z M361.7,123.9
		c-5.5,0-10.6-1-15.2-2.9c-4.6-1.9-8.6-4.7-11.9-8.3c-3.3-3.6-6-8.1-7.8-13.3c-1.9-5.2-2.9-11.3-2.9-18c0-6.7,1-12.8,2.9-18
		c1.9-5.2,4.5-9.7,7.8-13.3c3.3-3.6,7.3-6.4,11.9-8.3c4.6-1.9,9.7-2.9,15.2-2.9c5.6,0,10.8,1,15.4,2.9c4.6,1.9,8.6,4.7,11.9,8.3
		c3.3,3.6,5.9,8.1,7.8,13.3c1.9,5.3,2.8,11.3,2.8,18c0,6.7-0.9,12.7-2.8,18c-1.8,5.2-4.4,9.7-7.7,13.3c-3.3,3.6-7.3,6.4-11.9,8.3
		C372.4,122.9,367.3,123.9,361.7,123.9z"/>
	<path class="st2" d="M516.7,125l-33.9-40.3c2.7-0.3,5.2-0.9,7.6-1.6c3.8-1.2,7.1-3,9.8-5.1c2.8-2.2,5-5,6.5-8.1
		c1.5-3.2,2.3-6.8,2.3-10.7c0-8.3-2.8-14.6-8.3-18.6c-5.3-3.9-13-5.8-22.7-5.8h-20.7c-1.1,0-2,0.9-2,2v89.6c0,1.1,0.9,2,2,2h1.5
		c1.1,0,2-0.9,2-2V85h12c0.8,0,1.5,0,2,0.1c0.4,0,0.8,0.1,1.1,0.2c0.2,0.1,0.5,0.2,0.7,0.4c0.3,0.2,0.5,0.5,0.9,0.9l33.6,40.2
		c0.6,0.7,1.2,1.1,1.8,1.3c0.4,0.1,0.9,0.2,1.4,0.2h1c0.8,0,1.5-0.5,1.8-1.2C517.3,126.4,517.2,125.6,516.7,125z M460.8,40H478
		c8.4,0,14.9,1.6,19.3,4.7c4.2,3,6.3,7.7,6.3,14.4c0,3.2-0.6,6.1-1.8,8.6c-1.2,2.5-2.9,4.6-5.2,6.4c-2.3,1.8-5.1,3.2-8.4,4.1
		c-3.3,1-7.1,1.5-11.3,1.5h-16V40z"/>
</g>
</svg>
