<svg id="Layer_1" data-name="Layer 1" xmlns="http://www.w3.org/2000/svg" viewBox="0 0 1270 253"><defs><style>.cls-1{fill:#fff;}</style></defs><title>1</title><path class="cls-1" d="M496.09,158.16a2.46,2.46,0,0,0-1.72-.7,2.59,2.59,0,0,0-1.77.81,58.38,58.38,0,0,1-5.87,4.76,31.81,31.81,0,0,1-6.24,3.42,36.62,36.62,0,0,1-7.47,2.13,54,54,0,0,1-9.41.74,39.69,39.69,0,0,1-15.22-2.9,34.46,34.46,0,0,1-12.08-8.37,39.21,39.21,0,0,1-8-13.41,52.39,52.39,0,0,1-2.93-18.07,51.36,51.36,0,0,1,3-17.88,39.24,39.24,0,0,1,8.17-13.44,35.36,35.36,0,0,1,12.34-8.47,41.72,41.72,0,0,1,16-3,45.22,45.22,0,0,1,8.46.7,40.85,40.85,0,0,1,6.53,1.75,27,27,0,0,1,4.75,2.21c1.35.83,2.5,1.59,3.39,2.27s1.69,1.3,2.23,1.76a4.18,4.18,0,0,0,2.55,1.22,2.58,2.58,0,0,0,2-1l.33-.52-.33-2.39A65.42,65.42,0,0,0,488.43,85a36,36,0,0,0-6.79-3.48A38.55,38.55,0,0,0,474,79.49a57.45,57.45,0,0,0-9.08-.66,47.06,47.06,0,0,0-18.19,3.44,41.18,41.18,0,0,0-14.2,9.81,44.58,44.58,0,0,0-9.17,15.15,56,56,0,0,0-3.23,19.37,57.39,57.39,0,0,0,3.23,19.78,44.1,44.1,0,0,0,9.08,15.09,39.71,39.71,0,0,0,13.85,9.58,44.87,44.87,0,0,0,17.39,3.32,54.28,54.28,0,0,0,10.56-1A46.32,46.32,0,0,0,483,170.7a41.33,41.33,0,0,0,7.42-4.11,50.65,50.65,0,0,0,6.29-5.22l-.06-2.73Z"/><polygon class="cls-1" points="609.9 79.83 608.03 81.69 608.03 123.29 548.69 123.29 548.69 81.69 546.82 79.83 545.28 79.83 543.41 81.69 543.41 171.44 545.28 173.31 546.82 173.31 548.69 171.44 548.69 128.44 608.03 128.44 608.03 171.44 609.9 173.31 611.44 173.31 613.31 171.44 613.31 81.69 611.44 79.83 609.9 79.83"/><path class="cls-1" d="M692.49,80.16h-1.3l-1.7,1.15-37.44,89.75,1.72,2.59h1a2.69,2.69,0,0,0,2.65-1.86l34.4-82.63,34.42,82.62a2.61,2.61,0,0,0,2.52,1.86h1.15l1.73-2.59L694.2,81.31Z"/><polygon class="cls-1" points="774.79 79.83 772.92 81.69 772.92 171.44 774.79 173.31 776.33 173.31 778.2 171.44 778.2 81.69 776.33 79.83 774.79 79.83"/><path class="cls-1" d="M901.49,79.83h-1.3l-1.87,1.86v81.22L838.26,81.14a2.87,2.87,0,0,0-2.46-1.31h-.51l-1.87,1.86v89.75l1.87,1.87h1.29l1.86-1.87V89.91l60.4,82.17a2.69,2.69,0,0,0,2.23,1.23h.42l1.87-1.87V81.69Z"/><path class="cls-1" d="M373.32,90.69a29.62,29.62,0,0,0-10.84-9,30.65,30.65,0,0,0-26.23,0,29.57,29.57,0,0,0-10.85,9,45.56,45.56,0,0,0-7.17,14.92,74.8,74.8,0,0,0-2.61,21,75.12,75.12,0,0,0,2.61,20.94,45.19,45.19,0,0,0,7.18,14.9,29.42,29.42,0,0,0,10.85,8.94,31,31,0,0,0,26.21,0,29.67,29.67,0,0,0,10.85-8.94,45.78,45.78,0,0,0,7.18-14.9,75.12,75.12,0,0,0,2.61-20.94,75.54,75.54,0,0,0-2.61-21A45.88,45.88,0,0,0,373.32,90.69Zm-24,78.28a24.74,24.74,0,0,1-10.83-2.43,24.1,24.1,0,0,1-8.2-6.59l40.47-63.11a44.69,44.69,0,0,1,4.29,10.36,71.83,71.83,0,0,1,2.32,19.36,71.71,71.71,0,0,1-2.32,19.35,40.16,40.16,0,0,1-6.14,13.17A23.8,23.8,0,0,1,349.32,169Zm-25.83-23.06a70.93,70.93,0,0,1-2.33-19.35,71.05,71.05,0,0,1,2.33-19.36,40,40,0,0,1,6.2-13.2,24.47,24.47,0,0,1,30.42-7.53,23.85,23.85,0,0,1,7.6,6l-40.37,63A44.7,44.7,0,0,1,323.49,145.91Z"/><path class="cls-1" d="M1130.28,167.88h-48.86V128.56h41.07a2,2,0,0,0,2-2v-1.41a2,2,0,0,0-2-2h-41.06V85.24h48.73a2,2,0,0,0,2-2v-1.4a2,2,0,0,0-2-2h-52.27a2,2,0,0,0-2,2v89.44a2,2,0,0,0,2,2h52.26a2,2,0,0,0,2-1.82l.12-1.4a2,2,0,0,0-1.81-2.17h-.18Z"/><path class="cls-1" d="M1237.36,79.84h-69a2,2,0,0,0-2,2v1.4a2,2,0,0,0,2,2h31.87v86a2,2,0,0,0,2,2h1.53a2,2,0,0,0,2-2v-86h31.61a2,2,0,0,0,2-2v-1.4a2,2,0,0,0-2-2Z"/><path class="cls-1" d="M1025.8,79.83h-1.31l-1.87,1.86v81.22l-60-81.77a2.87,2.87,0,0,0-2.46-1.31h-.51l-1.87,1.86v89.75l1.87,1.87h1.29l1.86-1.87V89.91l60.4,82.17a2.69,2.69,0,0,0,2.23,1.23h.38l1.87-1.87V81.69Z"/><path class="cls-1" d="M130,27.16a99.34,99.34,0,1,0,99.34,99.34A99.35,99.35,0,0,0,130,27.16Zm67,30.19-8.15,8.16a84.59,84.59,0,0,0-117.75,0l-8.15-8.16a96.17,96.17,0,0,1,134.05,0ZM131.49,208.29V197.78A71.37,71.37,0,0,0,201.25,128h10.54A81.89,81.89,0,0,1,131.49,208.29ZM48.2,128H58.72a71.35,71.35,0,0,0,69.77,69.79v10.54A81.9,81.9,0,0,1,48.17,128ZM128.49,44.7V55.24A71.35,71.35,0,0,0,58.74,125H48.17A81.9,81.9,0,0,1,128.49,44.7ZM130,194.78a68.3,68.3,0,1,1,68.29-68.31v0A68.39,68.39,0,0,1,130,194.78ZM201.22,125a71.35,71.35,0,0,0-69.73-69.75V44.7a81.9,81.9,0,0,1,80.3,80.3Zm-167.6,1.5a96,96,0,0,1,27.21-67L69,67.64a84.61,84.61,0,0,0,0,117.75l-8.15,8.15a96,96,0,0,1-27.21-67Zm29.32,69.14,8.15-8.16a84.59,84.59,0,0,0,117.75,0l8.15,8.16a96.19,96.19,0,0,1-134,0Zm136.17-2.12L191,185.36a84.61,84.61,0,0,0,0-117.75l8.15-8.15A96.17,96.17,0,0,1,199.11,193.51Z"/></svg>