<?xml version="1.0" encoding="utf-8"?>
<!-- Generator: Adobe Illustrator 24.1.3, SVG Export Plug-In . SVG Version: 6.00 Build 0)  -->
<svg version="1.1" id="Layer_1" xmlns="http://www.w3.org/2000/svg" xmlns:xlink="http://www.w3.org/1999/xlink" x="0px" y="0px"
	 viewBox="0 0 910 380" style="enable-background:new 0 0 910 380;" xml:space="preserve">
<style type="text/css">
	.st0{fill:#19191D;}
</style>
<g>
	<g>
		<path class="st0" d="M407.1,151.9c-3.1-4-6.7-7-10.8-9c-4.1-2-8.5-2.9-13.1-2.9c-4.6,0-9,1-13.1,2.9c-4.1,2-7.8,5-10.8,9
			c-3,4-5.4,9-7.2,14.9c-1.7,5.9-2.6,12.9-2.6,20.9s0.9,15.1,2.6,20.9c1.7,5.9,4.2,11,7.2,14.9c3.1,4,6.7,7,10.8,8.9
			c4.1,1.9,8.5,2.9,13.1,2.9c4.6,0,9-1,13.1-2.9c4.1-1.9,7.8-5,10.8-8.9c3-3.9,5.4-8.9,7.2-14.9c1.7-5.9,2.6-12.9,2.6-20.9
			s-0.9-15.1-2.6-20.9C412.5,160.9,410.1,155.9,407.1,151.9z M383.1,230.2c-3.8,0-7.4-0.8-10.8-2.4c-3.1-1.5-5.8-3.7-8.2-6.6
			l40.5-63.1c1.7,2.9,3.2,6.4,4.3,10.4c1.5,5.4,2.3,11.9,2.3,19.4c0,7.5-0.8,14-2.3,19.4c-1.5,5.3-3.6,9.8-6.2,13.2
			c-2.5,3.4-5.5,5.9-8.8,7.5C390.5,229.4,386.9,230.2,383.1,230.2z M357.2,207.2c-1.5-5.4-2.3-11.9-2.3-19.4c0-7.5,0.8-14,2.3-19.4
			c1.5-5.3,3.6-9.8,6.2-13.2c2.5-3.4,5.5-5.9,8.9-7.5c3.4-1.6,7-2.5,10.8-2.5c3.8,0,7.4,0.8,10.7,2.5c2.8,1.4,5.4,3.4,7.6,6
			l-40.4,63C359.5,213.9,358.2,210.8,357.2,207.2z"/>
		<path class="st0" d="M509.4,229.2h-43.7V143c0-1.1-0.9-2-2-2h-1.5c-1.1,0-2,0.9-2,2v89.6c0,1.1,0.9,2,2,2h47.2c1.1,0,2-0.9,2-2
			v-1.4C511.4,230.1,510.5,229.2,509.4,229.2z"/>
		<path class="st0" d="M580.4,142.2c-0.3-0.7-1-1.2-1.8-1.2h-1.3c-0.8,0-1.5,0.5-1.8,1.2l-37.4,89.6c-0.3,0.6-0.2,1.3,0.2,1.9
			c0.4,0.6,1,0.9,1.7,0.9h1c1.3,0,2.4-0.7,2.8-1.9l11.9-28.6h44.6l11.9,28.6c0.4,1.2,1.4,1.9,2.6,1.9h1.2c0.7,0,1.3-0.3,1.7-0.9
			c0.4-0.6,0.4-1.3,0.2-1.9L580.4,142.2z M557.8,198.7l20.1-48.3l20.1,48.3H557.8z"/>
		<path class="st0" d="M678.1,187.5c-0.2-0.2-0.5-0.4-0.7-0.6c0.3-0.2,0.5-0.5,0.8-0.7l43.5-41.7c0.6-0.6,0.8-1.4,0.5-2.2
			c-0.3-0.8-1-1.3-1.9-1.3h-0.8c-0.8,0-1.5,0.1-2.1,0.4c-0.4,0.2-0.9,0.6-1.5,1c0,0-0.1,0.1-0.1,0.1l-41.7,40
			c-0.4,0.4-0.8,0.7-1.2,1c-0.3,0.2-0.5,0.3-0.8,0.4c-0.3,0.1-0.6,0.2-1,0.2c-0.5,0-1.1,0.1-1.9,0.1h-4v-41.4c0-1.1-0.9-2-2-2h-1.5
			c-1.1,0-2,0.9-2,2v89.7c0,1.1,0.9,2,2,2h1.5c1.1,0,2-0.9,2-2v-43.1h4c0.8,0,1.4,0,1.9,0.1c0.4,0,0.7,0.1,1,0.2
			c0.3,0.1,0.6,0.3,0.9,0.5c0.4,0.3,0.9,0.7,1.5,1.2l44,41.6c0.5,0.5,1,0.9,1.5,1.1c0.6,0.3,1.3,0.4,2.2,0.4h0.6
			c0.8,0,1.6-0.5,1.9-1.3c0.3-0.8,0.1-1.6-0.5-2.2L678.1,187.5z"/>
		<path class="st0" d="M821.9,229.8c-0.4-0.4-0.9-0.7-1.5-0.7h-48.9v-39.4h41.1c1.1,0,2-0.9,2-2v-1.4c0-1.1-0.9-2-2-2h-41.1v-38
			h48.8c1.1,0,2-0.9,2-2V143c0-1.1-0.9-2-2-2H768c-1.1,0-2,0.9-2,2v89.6c0,1.1,0.9,2,2,2h52.4c1,0,1.9-0.8,2-1.8l0.1-1.4
			C822.5,230.8,822.3,230.3,821.9,229.8z"/>
	</g>
	<g>
		<path d="M286.5,246.9c0-0.1,0-0.2,0-0.3c0,0,0,0,0-0.1V133.5c0-0.5-0.3-1-0.8-1.3l-98-56.6c0,0,0,0-0.1,0c-0.1,0-0.2-0.1-0.3-0.1
			c0,0-0.1,0-0.1,0c-0.1,0-0.2,0-0.3,0c0,0,0,0,0,0c-0.1,0-0.2,0-0.3,0c0,0-0.1,0-0.1,0c-0.1,0-0.2,0.1-0.3,0.1c0,0,0,0-0.1,0
			l-98,56.6c-0.5,0.3-0.8,0.8-0.8,1.3v113.2c0,0,0,0,0,0.1c0,0.1,0,0.2,0,0.3c0,0,0,0.1,0,0.1c0,0.1,0.1,0.2,0.1,0.3
			c0.1,0.1,0.1,0.2,0.2,0.3c0.1,0.1,0.1,0.1,0.2,0.2c0,0,0.1,0.1,0.1,0.1l0,0c0,0,0,0,0,0l98,56.6c0.2,0.1,0.5,0.2,0.8,0.2
			s0.5-0.1,0.8-0.2l98-56.6c0,0,0,0,0,0l0,0c0,0,0.1-0.1,0.1-0.1c0.1,0,0.1-0.1,0.2-0.2c0.1-0.1,0.2-0.2,0.2-0.3
			C286.4,247.3,286.4,247.2,286.5,246.9C286.5,247,286.5,247,286.5,246.9z M283.5,244l-11.3-6.5v-95.8c0,0,0,0,0-0.1
			c0-0.1,0-0.2,0-0.3c0,0,0-0.1,0-0.1c0-0.1-0.1-0.2-0.1-0.3c0,0,0,0,0,0c-0.1-0.1-0.1-0.2-0.2-0.3c0,0,0,0-0.1-0.1
			c-0.1-0.1-0.1-0.1-0.2-0.2c0,0,0,0,0,0l-82.9-47.9v-13l95,54.8V244z M104.8,237.5v-93.2l10.8,6.2v79.9c0,0.5,0.3,1,0.8,1.3
			l69.2,39.9v12.5L104.8,237.5z M187,95.1l80.7,46.6l-10.8,6.2L187.8,108c-0.5-0.3-1-0.3-1.5,0l-69.2,39.9l-10.8-6.2L187,95.1z
			 M187,269l-68.4-39.5v-79L187,111l68.4,39.5v79L187,269z M188.5,271.6l69.2-39.9c0.5-0.3,0.8-0.8,0.8-1.3v-79.9l10.8-6.2v93.2
			l-80.7,46.6V271.6z M185.5,79.5v13l-82.9,47.9c0,0,0,0,0,0c-0.1,0-0.1,0.1-0.2,0.2c0,0,0,0-0.1,0.1c-0.1,0.1-0.2,0.2-0.2,0.3
			c0,0,0,0,0,0c-0.1,0.1-0.1,0.2-0.1,0.3c0,0,0,0.1,0,0.1c0,0.1,0,0.2,0,0.3c0,0,0,0,0,0.1v95.8L90.5,244V134.3L185.5,79.5z
			 M187,301.5l-95-54.8l11.3-6.5l82.9,47.9c0,0,0,0,0.1,0c0.1,0,0.2,0.1,0.3,0.1c0,0,0.1,0,0.1,0c0.1,0,0.2,0,0.4,0s0.2,0,0.4,0
			c0,0,0.1,0,0.1,0c0.1,0,0.2-0.1,0.3-0.1c0,0,0,0,0.1,0l82.9-47.9l11.3,6.5L187,301.5z"/>
		<path d="M142,183.8c4.3,0,8.4-1.8,11.3-4.9l2.3-2.5l2.3,2.5c2.9,3.1,7,4.9,11.3,4.9s8.4-1.8,11.3-4.9l2.3-2.5l2.3,2.5
			c2.9,3.1,7,4.9,11.3,4.9s8.4-1.8,11.3-4.9l2.3-2.5l2.3,2.5c2.9,3.1,7,4.9,11.3,4.9c4.3,0,8.4-1.8,11.3-4.9l3.3-3.5
			c0.5-0.5,0.4-1.3-0.1-1.8s-1.3-0.4-1.8,0.1l-3.3,3.5c-2.5,2.7-5.8,4.1-9.5,4.1c-3.6,0-7-1.5-9.5-4.1l-3.3-3.5
			c-0.5-0.5-1.4-0.5-1.8,0l-3.3,3.5c-2.5,2.7-5.8,4.1-9.5,4.1s-7-1.5-9.5-4.1l-3.3-3.5c-0.5-0.5-1.4-0.5-1.8,0l-3.3,3.5
			c-2.5,2.7-5.8,4.1-9.5,4.1s-7-1.5-9.5-4.1l-3.3-3.5c-0.5-0.5-1.4-0.5-1.8,0l-3.3,3.5c-2.5,2.7-5.8,4.1-9.5,4.1
			c-3.6,0-7-1.5-9.5-4.1l-3.3-3.5c-0.5-0.5-1.3-0.5-1.8-0.1c-0.5,0.5-0.5,1.3-0.1,1.8l3.3,3.5C133.6,181.9,137.8,183.8,142,183.8
			C142,183.8,142,183.8,142,183.8z"/>
		<path d="M244.7,194.7l-3.3,3.5c-2.5,2.7-5.8,4.1-9.5,4.1s-7-1.5-9.5-4.1l-3.3-3.5c-0.5-0.5-1.4-0.5-1.8,0l-3.3,3.5
			c-2.5,2.7-5.8,4.1-9.5,4.1c-3.6,0-7-1.5-9.5-4.1l-3.3-3.5c-0.5-0.5-1.4-0.5-1.8,0l-3.3,3.5c-2.5,2.7-5.8,4.1-9.5,4.1
			c-3.6,0-7-1.5-9.5-4.1l-3.3-3.5c-0.5-0.5-1.3-0.5-1.8-0.1c-0.5,0.5-0.5,1.3-0.1,1.8l3.3,3.5c2.9,3.1,7,4.9,11.3,4.9c0,0,0,0,0,0
			c4.3,0,8.4-1.8,11.3-4.9l2.3-2.5l2.3,2.5c2.9,3.1,7,4.9,11.3,4.9c0,0,0,0,0,0c4.3,0,8.4-1.8,11.3-4.9l2.3-2.5l2.3,2.5
			c2.9,3.1,7,4.9,11.3,4.9s8.4-1.8,11.3-4.9l3.3-3.5c0.5-0.5,0.4-1.3-0.1-1.8C246,194.2,245.2,194.2,244.7,194.7z"/>
		<path d="M216.2,214.7l-3.3,3.5c-2.5,2.7-5.8,4.1-9.5,4.1c-3.6,0-7-1.5-9.5-4.1l-3.3-3.5c-0.5-0.5-1.4-0.5-1.8,0l-3.3,3.5
			c-2.5,2.7-5.8,4.1-9.5,4.1c-3.6,0-7-1.5-9.5-4.1l-3.3-3.5c-0.2-0.3-0.6-0.4-0.9-0.4c-0.3,0-0.7,0.1-0.9,0.4l-3.3,3.5
			c-2.5,2.7-5.8,4.1-9.5,4.1c-3.6,0-7-1.5-9.5-4.1l-3.3-3.5c-0.5-0.5-1.3-0.5-1.8-0.1c-0.5,0.5-0.5,1.3-0.1,1.8l3.3,3.5
			c2.9,3.1,7,4.9,11.3,4.9c4.3,0,8.4-1.8,11.3-4.9l2.3-2.5l2.3,2.5c2.9,3.1,7,4.9,11.3,4.9c0,0,0,0,0,0c4.3,0,8.4-1.8,11.3-4.9
			l2.3-2.5l2.3,2.5c2.9,3.1,7,4.9,11.3,4.9c0,0,0,0,0,0c4.3,0,8.4-1.8,11.3-4.9l3.3-3.5c0.5-0.5,0.4-1.3-0.1-1.8
			C217.5,214.2,216.7,214.2,216.2,214.7z"/>
	</g>
</g>
</svg>
