<?xml version="1.0" encoding="utf-8"?>
<!-- Generator: Adobe Illustrator 24.1.3, SVG Export Plug-In . SVG Version: 6.00 Build 0)  -->
<svg version="1.1" id="Layer_1" xmlns="http://www.w3.org/2000/svg" xmlns:xlink="http://www.w3.org/1999/xlink" x="0px" y="0px"
	 viewBox="0 0 450 450" style="enable-background:new 0 0 450 450;" xml:space="preserve">
<style type="text/css">
	.st0{fill:none;stroke:#90278E;stroke-width:3;stroke-linecap:round;stroke-miterlimit:10;}
	.st1{fill:none;stroke:#26A9E0;stroke-width:3;stroke-linecap:round;stroke-miterlimit:10;}
	.st2{fill:#333333;}
	.st3{fill:none;stroke:#F6921E;stroke-width:3;stroke-linecap:round;stroke-miterlimit:10;}
	.st4{fill:none;stroke:#333333;stroke-width:3;stroke-linecap:round;stroke-linejoin:round;}
</style>
<path class="st0" d="M108.5,302.5c0,0,48.8-45.7,222.4-209.8"/>
<path class="st1" d="M109.6,302.3c0,0,66.2-20,223.8-26.6"/>
<g>
	<path class="st2" d="M80.4,229.5v-4.8c0-1.3,0.3-2.3,0.9-3s1.5-1.1,2.6-1.1s2,0.4,2.7,1.1c0.6,0.7,0.9,1.7,0.9,3v3.4h5v1.4
		L80.4,229.5L80.4,229.5z M86.4,224.8c0-1.9-0.8-2.8-2.4-2.8s-2.4,0.9-2.4,2.8v3.3h4.8V224.8z"/>
	<path class="st2" d="M85.1,214l0.1,0.9c0.1,0.9,0.4,1.5,0.8,1.9c0.5,0.4,1,0.6,1.7,0.6h4.8v1.4h-8.4v-1.4h1.5
		c-1-0.5-1.5-1.4-1.6-2.8v-0.5L85.1,214z"/>
	<path class="st2" d="M80.5,212.8v-1.7H82v1.7H80.5z M92.5,212.7h-8.4v-1.4h8.4V212.7z"/>
	<path class="st2" d="M92.1,207.3c-0.4,0.6-0.9,1.1-1.5,1.4s-1.4,0.5-2.3,0.5s-1.6-0.2-2.3-0.5c-0.7-0.3-1.2-0.8-1.5-1.4
		c-0.4-0.6-0.6-1.3-0.6-2.2c0-0.6,0.1-1.1,0.3-1.7s0.5-1,0.8-1.3l1,0.5c-0.6,0.8-1,1.6-1,2.4c0,0.9,0.3,1.5,0.8,2s1.4,0.7,2.4,0.7
		s1.8-0.2,2.3-0.7s0.8-1.2,0.8-2s-0.3-1.6-1-2.4l1-0.5c0.3,0.4,0.6,0.8,0.8,1.3c0.2,0.5,0.3,1.1,0.3,1.7
		C92.6,205.9,92.4,206.7,92.1,207.3z"/>
	<path class="st2" d="M88.5,193.4v6.1c1,0,1.7-0.3,2.2-0.8s0.8-1.2,0.8-2.1c0-1-0.3-1.9-1-2.7l1-0.5c0.3,0.4,0.6,0.8,0.8,1.4
		c0.2,0.6,0.3,1.2,0.3,1.8c0,1.3-0.4,2.3-1.2,3.1s-1.8,1.1-3.2,1.1c-0.9,0-1.6-0.2-2.3-0.5c-0.7-0.3-1.2-0.8-1.5-1.4
		c-0.4-0.6-0.6-1.3-0.6-2.1c0-1.1,0.4-2,1.1-2.6s1.7-0.9,3-0.9L88.5,193.4L88.5,193.4z M85.7,198.7c0.5,0.4,1.1,0.7,1.9,0.8v-4.9
		c-0.9,0-1.5,0.2-2,0.6c-0.5,0.4-0.7,1-0.7,1.7C85,197.7,85.2,198.3,85.7,198.7z"/>
	<path class="st2" d="M92.5,177.1v1.6l-3.9,2.1c-0.5,0.3-0.8,0.5-1,0.9c-0.2,0.3-0.3,0.8-0.3,1.4v2.3h5.1v1.4h-12v-5
		c0-1.3,0.3-2.3,0.9-3s1.4-1,2.6-1c0.9,0,1.7,0.3,2.3,0.8c0.6,0.5,0.9,1.3,1.1,2.3c0.1-0.3,0.2-0.6,0.5-0.8c0.2-0.2,0.5-0.5,0.9-0.6
		L92.5,177.1z M86.2,181.8c0-0.9-0.2-1.6-0.6-2.1s-1-0.7-1.8-0.7s-1.4,0.2-1.7,0.7c-0.4,0.5-0.6,1.2-0.6,2.1v3.5h4.7V181.8z"/>
	<path class="st2" d="M84.7,169.3c0.5-0.5,1.4-0.8,2.5-0.8h5.3v1.4h-1.4c0.5,0.2,0.9,0.6,1.1,1c0.3,0.4,0.4,1,0.4,1.6
		c0,0.5-0.1,1-0.3,1.5c-0.2,0.5-0.5,0.8-0.9,1.1s-0.8,0.4-1.3,0.4c-0.6,0-1.1-0.2-1.5-0.5s-0.6-0.9-0.8-1.6
		c-0.2-0.7-0.2-1.8-0.2-3.1v-0.4H87c-0.7,0-1.2,0.1-1.5,0.4c-0.3,0.3-0.5,0.8-0.5,1.4c0,1,0.3,1.9,0.9,2.9l-1,0.5
		c-0.3-0.4-0.6-1-0.7-1.6c-0.2-0.6-0.3-1.2-0.3-1.8C83.9,170.6,84.2,169.8,84.7,169.3z M90.8,170.5c-0.5-0.4-1.1-0.7-1.8-0.7h-0.5
		v0.3c0,1,0,1.8,0.1,2.3s0.2,0.9,0.4,1.1c0.2,0.2,0.5,0.3,0.9,0.3s0.8-0.2,1.1-0.5c0.3-0.3,0.4-0.7,0.4-1.2
		C91.5,171.5,91.3,171,90.8,170.5z"/>
	<path class="st2" d="M87.2,158.7h5.3v1.4h-5.2c-0.8,0-1.4,0.2-1.7,0.5c-0.4,0.3-0.5,0.8-0.5,1.5c0,0.8,0.2,1.4,0.7,1.8
		c0.5,0.5,1.1,0.7,1.9,0.7h4.8v1.4h-8.4v-1.4h1.4c-0.5-0.3-0.9-0.7-1.2-1.2s-0.4-1.1-0.4-1.7C83.9,159.7,85,158.7,87.2,158.7z"/>
	<path class="st2" d="M84.1,148.6h7.8c1.3,0,2.2,0.3,2.8,1c0.6,0.6,1,1.6,1,2.9c0,1.5-0.4,2.7-1.1,3.7l-1-0.5
		c0.4-0.6,0.6-1.1,0.8-1.6c0.2-0.5,0.2-1,0.2-1.7c0-0.8-0.2-1.4-0.6-1.8c-0.4-0.4-1.1-0.6-1.9-0.6h-1.5c0.5,0.2,1,0.6,1.2,1.1
		c0.3,0.5,0.4,1.1,0.4,1.8s-0.2,1.4-0.5,2s-0.8,1-1.5,1.3c-0.6,0.3-1.4,0.5-2.2,0.5c-0.8,0-1.6-0.2-2.2-0.5s-1.1-0.8-1.5-1.3
		c-0.3-0.6-0.5-1.2-0.5-2c0-0.7,0.1-1.2,0.4-1.7s0.7-0.9,1.2-1.1H84L84.1,148.6L84.1,148.6z M90.3,150.7c-0.5-0.5-1.3-0.7-2.2-0.7
		c-0.9,0-1.7,0.2-2.2,0.7s-0.8,1.1-0.8,1.9c0,0.8,0.3,1.5,0.8,1.9c0.5,0.5,1.3,0.7,2.2,0.7c0.9,0,1.7-0.2,2.2-0.7s0.8-1.1,0.8-1.9
		C91.1,151.8,90.8,151.2,90.3,150.7z"/>
	<path class="st2" d="M88.5,139v6.1c1,0,1.7-0.3,2.2-0.8s0.8-1.2,0.8-2.1c0-1-0.3-1.9-1-2.7l1-0.5c0.3,0.4,0.6,0.8,0.8,1.4
		c0.2,0.6,0.3,1.2,0.3,1.8c0,1.3-0.4,2.3-1.2,3.1s-1.8,1.1-3.2,1.1c-0.9,0-1.6-0.2-2.3-0.5c-0.7-0.3-1.2-0.8-1.5-1.4
		c-0.4-0.6-0.6-1.3-0.6-2.1c0-1.1,0.4-2,1.1-2.6s1.7-0.9,3-0.9L88.5,139L88.5,139z M85.7,144.3c0.5,0.4,1.1,0.7,1.9,0.8v-4.9
		c-0.9,0-1.5,0.2-2,0.6c-0.5,0.4-0.7,1-0.7,1.7C85,143.3,85.2,143.9,85.7,144.3z"/>
</g>
<g>
	<path class="st2" d="M175.8,321.8h4.8c1.3,0,2.3,0.3,3,0.9s1.1,1.5,1.1,2.6s-0.4,2-1.1,2.7c-0.7,0.6-1.7,0.9-3,0.9h-3.4v5h-1.4
		L175.8,321.8L175.8,321.8z M180.5,327.8c1.9,0,2.8-0.8,2.8-2.4s-0.9-2.4-2.8-2.4h-3.3v4.8H180.5z"/>
	<path class="st2" d="M193.5,329.9h-6.1c0,1,0.3,1.7,0.8,2.2s1.2,0.8,2.1,0.8c1,0,1.9-0.3,2.7-1l0.5,1c-0.4,0.3-0.8,0.6-1.4,0.8
		c-0.6,0.2-1.2,0.3-1.8,0.3c-1.3,0-2.3-0.4-3.1-1.2c-0.8-0.8-1.1-1.8-1.1-3.2c0-0.9,0.2-1.6,0.5-2.3c0.3-0.7,0.8-1.2,1.4-1.5
		c0.6-0.4,1.3-0.6,2.1-0.6c1.1,0,2,0.4,2.6,1.1s0.9,1.7,0.9,3L193.5,329.9L193.5,329.9z M188.1,327.1c-0.4,0.5-0.7,1.1-0.8,1.9h4.9
		c0-0.8-0.2-1.5-0.6-2s-1-0.7-1.7-0.7C189.2,326.4,188.6,326.6,188.1,327.1z"/>
	<path class="st2" d="M200.3,326.5l-0.9,0.1c-0.9,0.1-1.5,0.4-1.9,0.8c-0.4,0.5-0.6,1-0.6,1.7v4.8h-1.4v-8.4h1.4v1.5
		c0.5-1,1.4-1.5,2.8-1.6h0.5L200.3,326.5z"/>
	<path class="st2" d="M204.1,325.5h2.4v1.1h-2.4v7.3h-1.4v-7.3h-1.6v-1.1h1.6v-0.3c0-1.1,0.3-2,0.8-2.5c0.6-0.6,1.4-0.9,2.6-1h0.7
		l0.1,1.1l-0.8,0.1c-0.7,0-1.2,0.2-1.5,0.6s-0.5,0.9-0.5,1.6L204.1,325.5L204.1,325.5z"/>
	<path class="st2" d="M209.2,333.5c-0.6-0.4-1.1-0.9-1.4-1.5c-0.3-0.7-0.5-1.4-0.5-2.3s0.2-1.6,0.5-2.3s0.8-1.2,1.4-1.5
		c0.6-0.4,1.3-0.5,2.1-0.5s1.5,0.2,2.1,0.5c0.6,0.4,1.1,0.9,1.4,1.5s0.5,1.4,0.5,2.3s-0.2,1.6-0.5,2.3c-0.3,0.7-0.8,1.2-1.4,1.5
		c-0.6,0.4-1.3,0.5-2.1,0.5S209.8,333.9,209.2,333.5z M213.2,332.1c0.4-0.5,0.7-1.3,0.7-2.4c0-1-0.2-1.8-0.7-2.4
		c-0.4-0.6-1.1-0.8-1.9-0.8s-1.4,0.3-1.9,0.8c-0.4,0.6-0.7,1.3-0.7,2.4c0,1,0.2,1.8,0.7,2.4c0.4,0.6,1.1,0.8,1.9,0.8
		C212.1,332.9,212.8,332.6,213.2,332.1z"/>
	<path class="st2" d="M222.2,326.5l-0.9,0.1c-0.9,0.1-1.5,0.4-1.9,0.8c-0.4,0.5-0.6,1-0.6,1.7v4.8h-1.4v-8.4h1.4v1.5
		c0.5-1,1.4-1.5,2.8-1.6h0.5L222.2,326.5z"/>
	<path class="st2" d="M235.6,328.6v5.3h-1.4v-5.2c0-0.8-0.1-1.3-0.4-1.7c-0.3-0.4-0.7-0.5-1.3-0.5c-0.7,0-1.3,0.2-1.7,0.7
		s-0.6,1.1-0.6,1.9v4.8h-1.4v-5.2c0-0.8-0.1-1.3-0.4-1.7c-0.3-0.4-0.7-0.5-1.3-0.5c-0.7,0-1.3,0.2-1.7,0.7s-0.6,1.1-0.6,1.9v4.8
		h-1.4v-8.4h1.4v1.3c0.3-0.5,0.6-0.9,1.1-1.1c0.4-0.3,1-0.4,1.6-0.4c1.3,0,2.2,0.6,2.6,1.7c0.2-0.5,0.6-0.9,1.1-1.2s1.1-0.4,1.7-0.4
		C234.7,325.3,235.6,326.4,235.6,328.6z"/>
	<path class="st2" d="M244,326.1c0.5,0.5,0.8,1.4,0.8,2.5v5.3h-1.4v-1.4c-0.2,0.5-0.6,0.9-1,1.1c-0.4,0.3-1,0.4-1.6,0.4
		c-0.5,0-1-0.1-1.5-0.3c-0.5-0.2-0.8-0.5-1.1-0.9s-0.4-0.8-0.4-1.3c0-0.6,0.2-1.1,0.5-1.5c0.3-0.3,0.9-0.6,1.6-0.8s1.8-0.2,3.1-0.2
		h0.4v-0.6c0-0.7-0.1-1.2-0.4-1.5s-0.8-0.5-1.4-0.5c-1,0-1.9,0.3-2.9,0.9l-0.5-1c0.4-0.3,1-0.6,1.6-0.8s1.2-0.3,1.8-0.3
		C242.7,325.3,243.5,325.6,244,326.1z M242.7,332.2c0.4-0.5,0.7-1.1,0.7-1.8v-0.5h-0.3c-1,0-1.8,0-2.3,0.1s-0.9,0.2-1.1,0.4
		s-0.3,0.5-0.3,0.9s0.2,0.8,0.5,1.1s0.7,0.4,1.2,0.4C241.7,332.9,242.3,332.7,242.7,332.2z"/>
	<path class="st2" d="M254.6,328.6v5.3h-1.4v-5.2c0-0.8-0.2-1.4-0.5-1.7c-0.3-0.4-0.8-0.5-1.5-0.5c-0.8,0-1.4,0.2-1.8,0.7
		c-0.5,0.5-0.7,1.1-0.7,1.9v4.8h-1.4v-8.4h1.4v1.4c0.3-0.5,0.7-0.9,1.2-1.2c0.5-0.3,1.1-0.4,1.7-0.4
		C253.5,325.3,254.6,326.4,254.6,328.6z"/>
	<path class="st2" d="M258.5,333.5c-0.6-0.4-1.1-0.9-1.4-1.5s-0.5-1.4-0.5-2.3s0.2-1.6,0.5-2.3c0.3-0.7,0.8-1.2,1.4-1.5
		c0.6-0.4,1.3-0.6,2.2-0.6c0.6,0,1.1,0.1,1.7,0.3c0.5,0.2,1,0.5,1.3,0.8l-0.5,1c-0.8-0.6-1.6-1-2.4-1c-0.9,0-1.5,0.3-2,0.8
		c-0.5,0.6-0.7,1.4-0.7,2.4s0.2,1.8,0.7,2.3c0.5,0.6,1.2,0.8,2,0.8s1.6-0.3,2.4-1l0.5,1c-0.4,0.3-0.8,0.6-1.3,0.8
		c-0.5,0.2-1.1,0.3-1.7,0.3C259.8,334,259.1,333.9,258.5,333.5z"/>
	<path class="st2" d="M272.4,329.9h-6.1c0,1,0.3,1.7,0.8,2.2s1.2,0.8,2.1,0.8c1,0,1.9-0.3,2.7-1l0.5,1c-0.4,0.3-0.8,0.6-1.4,0.8
		c-0.6,0.2-1.2,0.3-1.8,0.3c-1.3,0-2.3-0.4-3.1-1.2s-1.1-1.8-1.1-3.2c0-0.9,0.2-1.6,0.5-2.3c0.3-0.7,0.8-1.2,1.4-1.5
		c0.6-0.4,1.3-0.6,2.1-0.6c1.1,0,2,0.4,2.6,1.1s0.9,1.7,0.9,3v0.6H272.4z M267.1,327.1c-0.4,0.5-0.7,1.1-0.8,1.9h4.9
		c0-0.8-0.2-1.5-0.6-2s-1-0.7-1.7-0.7C268.1,326.4,267.5,326.6,267.1,327.1z"/>
</g>
<path class="st3" d="M330.9,70.9c0,0-222.4-11.9-221.3,231.4"/>
<g>
	<g>
		<polyline class="st4" points="352.4,302.5 108.5,302.5 108.5,58.5 		"/>
		<g>
			<path class="st2" d="M337,291.7c-0.3,0.5-0.2,1.2,0.3,1.6l14.5,9.2l-14.5,9.2c-0.5,0.3-0.7,1-0.3,1.6s1,0.7,1.6,0.3l16-10.2
				c0.3-0.2,0.5-0.6,0.5-0.9s-0.2-0.7-0.5-0.9l-16-10.2c-0.2-0.1-0.4-0.2-0.6-0.2C337.6,291.2,337.2,291.3,337,291.7z"/>
		</g>
		<g>
			<path class="st2" d="M119.3,73.9c-0.5,0.3-1.2,0.2-1.6-0.3L108.5,59l-9.2,14.5c-0.3,0.5-1,0.7-1.6,0.3c-0.5-0.3-0.7-1-0.3-1.6
				l10.2-16c0.2-0.3,0.6-0.5,0.9-0.5s0.7,0.2,0.9,0.5l10.2,16c0.1,0.2,0.2,0.4,0.2,0.6C119.8,73.3,119.6,73.7,119.3,73.9z"/>
		</g>
	</g>
</g>
<g>
	<g>
		<path class="st2" d="M342.5,411.6l0.6-1.1c0.6,0.5,1.2,0.9,1.8,1.1c0.6,0.2,1.4,0.3,2.2,0.3c1,0,1.7-0.2,2.3-0.6
			c0.5-0.4,0.8-0.9,0.8-1.6c0-0.4-0.1-0.7-0.4-1c-0.3-0.3-0.6-0.5-1-0.6s-1-0.3-1.7-0.5c-0.9-0.2-1.7-0.4-2.3-0.7
			c-0.6-0.2-1.1-0.6-1.5-1s-0.6-1-0.6-1.8c0-0.7,0.2-1.3,0.5-1.8c0.4-0.5,0.9-0.9,1.6-1.2c0.7-0.3,1.5-0.4,2.3-0.4
			c0.8,0,1.6,0.1,2.4,0.4c0.7,0.3,1.3,0.6,1.9,1.1l-0.5,1.1c-0.6-0.5-1.2-0.9-1.7-1.1c-0.6-0.2-1.2-0.3-1.9-0.3
			c-0.9,0-1.7,0.2-2.2,0.6s-0.8,1-0.8,1.7c0,0.6,0.2,1.1,0.7,1.4s1.2,0.6,2.1,0.8c1,0.3,1.9,0.5,2.5,0.7c0.6,0.2,1.1,0.5,1.5,1
			c0.4,0.5,0.6,1,0.6,1.7s-0.2,1.3-0.5,1.8c-0.4,0.5-0.9,0.9-1.6,1.2c-0.7,0.3-1.5,0.4-2.4,0.4C345.2,413.2,343.7,412.7,342.5,411.6
			z"/>
		<path class="st2" d="M353.9,400.9h4.1c1.9,0,3.4,0.5,4.5,1.6c1.1,1.1,1.6,2.5,1.6,4.5s-0.5,3.4-1.6,4.5c-1.1,1.1-2.6,1.6-4.5,1.6
			h-4.1V400.9z M357.9,411.8c3.1,0,4.7-1.6,4.7-4.9c0-3.2-1.6-4.9-4.7-4.9h-2.6v9.7L357.9,411.8L357.9,411.8z"/>
		<path class="st2" d="M366.6,400.9h4.1c1.9,0,3.4,0.5,4.5,1.6s1.6,2.5,1.6,4.5s-0.5,3.4-1.6,4.5s-2.6,1.6-4.5,1.6h-4.1V400.9z
			 M370.6,411.8c3.1,0,4.7-1.6,4.7-4.9c0-3.2-1.6-4.9-4.7-4.9H368v9.7L370.6,411.8L370.6,411.8z"/>
	</g>
	<g>
		<path class="st2" d="M76.7,413v-10.9h-4.2v-1.2h9.9v1.2h-4.2V413H76.7z"/>
		<path class="st2" d="M88.3,405.3c0.5,0.5,0.8,1.4,0.8,2.5v5.3h-1.4v-1.4c-0.2,0.5-0.6,0.9-1,1.1c-0.4,0.3-1,0.4-1.6,0.4
			c-0.5,0-1-0.1-1.5-0.3c-0.5-0.2-0.8-0.5-1.1-0.9s-0.4-0.8-0.4-1.3c0-0.6,0.2-1.1,0.5-1.5c0.3-0.3,0.9-0.6,1.6-0.8s1.8-0.2,3.1-0.2
			h0.4v-0.6c0-0.7-0.1-1.2-0.4-1.5s-0.8-0.5-1.4-0.5c-1,0-1.9,0.3-2.9,0.9l-0.5-1c0.4-0.3,1-0.6,1.6-0.8c0.6-0.2,1.2-0.3,1.8-0.3
			C87,404.4,87.8,404.7,88.3,405.3z M87.1,411.4c0.4-0.5,0.7-1.1,0.7-1.8v-0.5h-0.3c-1,0-1.8,0-2.3,0.1s-0.9,0.2-1.1,0.4
			c-0.2,0.2-0.3,0.5-0.3,0.9s0.2,0.8,0.5,1.1c0.3,0.3,0.7,0.4,1.2,0.4C86.1,412.1,86.6,411.8,87.1,411.4z"/>
		<path class="st2" d="M97.8,405c0.6,0.4,1,0.9,1.3,1.5c0.3,0.7,0.5,1.4,0.5,2.3s-0.2,1.6-0.5,2.3c-0.3,0.6-0.7,1.2-1.3,1.5
			c-0.6,0.4-1.2,0.5-2,0.5c-0.7,0-1.2-0.1-1.7-0.4s-0.9-0.7-1.1-1.2v4.6h-1.4v-11.5H93v1.4c0.3-0.5,0.6-0.9,1.1-1.2s1.1-0.4,1.7-0.4
			C96.6,404.4,97.3,404.6,97.8,405z M97.5,411.2c0.4-0.6,0.7-1.3,0.7-2.3s-0.2-1.8-0.7-2.4c-0.4-0.6-1.1-0.9-1.9-0.9
			s-1.4,0.3-1.9,0.8s-0.7,1.3-0.7,2.4c0,1,0.2,1.8,0.7,2.4s1.1,0.8,1.9,0.8S97.1,411.7,97.5,411.2z"/>
		<path class="st2" d="M108.7,409.1h-6.1c0,1,0.3,1.7,0.8,2.2s1.2,0.8,2.1,0.8c1,0,1.9-0.3,2.7-1l0.5,1c-0.4,0.3-0.8,0.6-1.4,0.8
			c-0.6,0.2-1.2,0.3-1.8,0.3c-1.3,0-2.3-0.4-3.1-1.2c-0.8-0.8-1.1-1.8-1.1-3.2c0-0.9,0.2-1.6,0.5-2.3c0.3-0.7,0.8-1.2,1.4-1.5
			c0.6-0.4,1.3-0.6,2.1-0.6c1.1,0,2,0.4,2.6,1.1s0.9,1.7,0.9,3v0.6H108.7z M103.4,406.2c-0.4,0.5-0.7,1.1-0.8,1.9h4.9
			c0-0.8-0.2-1.5-0.6-2s-1-0.7-1.7-0.7C104.4,405.5,103.9,405.8,103.4,406.2z"/>
		<path class="st2" d="M114.7,411.6l0.6-1.1c0.6,0.5,1.2,0.9,1.8,1.1c0.6,0.2,1.4,0.3,2.2,0.3c1,0,1.7-0.2,2.3-0.6
			c0.5-0.4,0.8-0.9,0.8-1.6c0-0.4-0.1-0.7-0.4-1s-0.6-0.5-1-0.6s-1-0.3-1.7-0.5c-0.9-0.2-1.7-0.4-2.3-0.7s-1.1-0.6-1.5-1
			s-0.6-1-0.6-1.8c0-0.7,0.2-1.3,0.5-1.8s0.9-0.9,1.6-1.2c0.7-0.3,1.5-0.4,2.3-0.4s1.6,0.1,2.4,0.4s1.3,0.6,1.9,1.1l-0.5,1.1
			c-0.6-0.5-1.2-0.9-1.7-1.1c-0.6-0.2-1.2-0.3-1.9-0.3c-0.9,0-1.7,0.2-2.2,0.6s-0.8,1-0.8,1.7c0,0.6,0.2,1.1,0.7,1.4
			s1.2,0.6,2.1,0.8c1,0.3,1.9,0.5,2.5,0.7s1.1,0.5,1.5,1s0.6,1,0.6,1.7s-0.2,1.3-0.5,1.8c-0.4,0.5-0.9,0.9-1.6,1.2
			c-0.7,0.3-1.5,0.4-2.4,0.4C117.4,413.2,115.9,412.7,114.7,411.6z"/>
		<path class="st2" d="M130.3,412l-0.1,1.1c-0.3,0-0.6,0.1-0.9,0.1c-1,0-1.8-0.3-2.3-0.8s-0.8-1.3-0.8-2.2v-4.4h-1.6v-1.1h1.6v-2.6
			h1.4v2.6h2.4v1.1h-2.4v4.3c0,1.3,0.6,2,1.8,2C129.8,412,130,412,130.3,412z"/>
		<path class="st2" d="M133.1,412.6c-0.6-0.4-1.1-0.9-1.4-1.5c-0.3-0.7-0.5-1.4-0.5-2.3s0.2-1.6,0.5-2.3c0.3-0.7,0.8-1.2,1.4-1.5
			c0.6-0.4,1.3-0.5,2.1-0.5s1.5,0.2,2.1,0.5s1.1,0.9,1.4,1.5c0.3,0.7,0.5,1.4,0.5,2.3s-0.2,1.6-0.5,2.3c-0.3,0.7-0.8,1.2-1.4,1.5
			c-0.6,0.4-1.3,0.5-2.1,0.5S133.7,413,133.1,412.6z M137.1,411.2c0.4-0.5,0.7-1.3,0.7-2.4c0-1-0.2-1.8-0.7-2.4
			c-0.4-0.6-1.1-0.8-1.9-0.8s-1.4,0.3-1.9,0.8c-0.4,0.6-0.7,1.3-0.7,2.4c0,1,0.2,1.8,0.7,2.4c0.4,0.6,1.1,0.8,1.9,0.8
			S136.6,411.7,137.1,411.2z"/>
		<path class="st2" d="M146,405.7l-0.9,0.1c-0.9,0.1-1.5,0.4-1.9,0.8c-0.4,0.5-0.6,1-0.6,1.7v4.8h-1.4v-8.4h1.4v1.5
			c0.5-1,1.4-1.5,2.8-1.6h0.5L146,405.7z"/>
		<path class="st2" d="M153.1,405.3c0.5,0.5,0.8,1.4,0.8,2.5v5.3h-1.4v-1.4c-0.2,0.5-0.6,0.9-1,1.1c-0.4,0.3-1,0.4-1.6,0.4
			c-0.5,0-1-0.1-1.5-0.3c-0.5-0.2-0.8-0.5-1.1-0.9s-0.4-0.8-0.4-1.3c0-0.6,0.2-1.1,0.5-1.5c0.3-0.3,0.9-0.6,1.6-0.8s1.8-0.2,3.1-0.2
			h0.4v-0.6c0-0.7-0.1-1.2-0.4-1.5s-0.8-0.5-1.4-0.5c-1,0-1.9,0.3-2.9,0.9l-0.5-1c0.4-0.3,1-0.6,1.6-0.8c0.6-0.2,1.2-0.3,1.8-0.3
			C151.7,404.4,152.5,404.7,153.1,405.3z M151.8,411.4c0.4-0.5,0.7-1.1,0.7-1.8v-0.5h-0.3c-1,0-1.8,0-2.3,0.1s-0.9,0.2-1.1,0.4
			c-0.2,0.2-0.3,0.5-0.3,0.9s0.2,0.8,0.5,1.1c0.3,0.3,0.7,0.4,1.2,0.4C150.8,412.1,151.4,411.8,151.8,411.4z"/>
		<path class="st2" d="M163.9,404.7v7.8c0,1.3-0.3,2.2-1,2.8s-1.6,1-2.9,1c-1.5,0-2.7-0.4-3.7-1.1l0.5-1c0.6,0.4,1.1,0.6,1.6,0.8
			c0.5,0.2,1,0.2,1.7,0.2c0.8,0,1.4-0.2,1.8-0.6s0.6-1.1,0.6-1.9v-1.5c-0.2,0.5-0.6,1-1.1,1.2s-1.1,0.4-1.8,0.4
			c-0.7,0-1.4-0.2-2-0.5s-1-0.8-1.3-1.5c-0.3-0.6-0.5-1.4-0.5-2.2c0-0.8,0.2-1.6,0.5-2.2s0.8-1.1,1.3-1.5c0.6-0.3,1.2-0.5,2-0.5
			c0.7,0,1.2,0.1,1.7,0.4s0.9,0.7,1.1,1.2v-1.4h1.5V404.7z M161.8,410.8c0.5-0.5,0.7-1.3,0.7-2.2c0-0.9-0.2-1.7-0.7-2.2
			s-1.1-0.8-1.9-0.8s-1.5,0.3-1.9,0.8c-0.5,0.5-0.7,1.3-0.7,2.2c0,0.9,0.2,1.7,0.7,2.2s1.1,0.8,1.9,0.8
			C160.7,411.6,161.4,411.4,161.8,410.8z"/>
		<path class="st2" d="M173.5,409.1h-6.1c0,1,0.3,1.7,0.8,2.2s1.2,0.8,2.1,0.8c1,0,1.9-0.3,2.7-1l0.5,1c-0.4,0.3-0.8,0.6-1.4,0.8
			c-0.6,0.2-1.2,0.3-1.8,0.3c-1.3,0-2.3-0.4-3.1-1.2s-1.1-1.8-1.1-3.2c0-0.9,0.2-1.6,0.5-2.3c0.3-0.7,0.8-1.2,1.4-1.5
			c0.6-0.4,1.3-0.6,2.1-0.6c1.1,0,2,0.4,2.6,1.1s0.9,1.7,0.9,3v0.6H173.5z M168.2,406.2c-0.4,0.5-0.7,1.1-0.8,1.9h4.9
			c0-0.8-0.2-1.5-0.6-2s-1-0.7-1.7-0.7C169.2,405.5,168.6,405.8,168.2,406.2z"/>
	</g>
	<line class="st3" x1="345.1" y1="387.9" x2="371.7" y2="387.9"/>
	<g>
		<path class="st2" d="M236.4,400.9h1.4V413h-1.4v-5.6h-7.3v5.6h-1.4v-12.2h1.4v5.4h7.3V400.9z"/>
		<path class="st2" d="M240.8,400.9h4.1c1.9,0,3.4,0.5,4.5,1.6s1.6,2.5,1.6,4.5s-0.5,3.4-1.6,4.5s-2.6,1.6-4.5,1.6h-4.1V400.9z
			 M244.8,411.8c3.1,0,4.7-1.6,4.7-4.9c0-3.2-1.6-4.9-4.7-4.9h-2.5v9.7L244.8,411.8L244.8,411.8z"/>
		<path class="st2" d="M253.6,400.9h4.1c1.9,0,3.4,0.5,4.5,1.6s1.6,2.5,1.6,4.5s-0.5,3.4-1.6,4.5s-2.6,1.6-4.5,1.6h-4.1V400.9z
			 M257.6,411.8c3.1,0,4.7-1.6,4.7-4.9c0-3.2-1.6-4.9-4.7-4.9H255v9.7L257.6,411.8L257.6,411.8z"/>
	</g>
	<line class="st0" x1="231.2" y1="387.9" x2="257.8" y2="387.9"/>
	<line class="st1" x1="106.5" y1="387.9" x2="133.1" y2="387.9"/>
</g>
</svg>
