<?xml version="1.0" encoding="utf-8"?>
<!-- Generator: Adobe Illustrator 24.1.3, SVG Export Plug-In . SVG Version: 6.00 Build 0)  -->
<svg version="1.1" id="Layer_1" xmlns="http://www.w3.org/2000/svg" xmlns:xlink="http://www.w3.org/1999/xlink" x="0px" y="0px"
	 viewBox="0 0 450 450" style="enable-background:new 0 0 450 450;" xml:space="preserve">
<style type="text/css">
	.st0{fill:#231F20;}
	.st1{fill:none;stroke:#333333;stroke-width:1.9157;stroke-linecap:round;stroke-linejoin:round;stroke-miterlimit:10;}
	.st2{fill:none;stroke:#333333;stroke-width:2.1505;stroke-linecap:round;stroke-linejoin:round;stroke-miterlimit:10;}
	.st3{fill:none;stroke:#333333;stroke-width:5;stroke-linecap:round;stroke-linejoin:round;stroke-miterlimit:10;}
	.st4{fill:none;stroke:#333333;stroke-width:2;stroke-linecap:round;stroke-linejoin:round;stroke-miterlimit:10;}
	.st5{fill:none;stroke:#333333;stroke-width:4;stroke-linecap:round;stroke-linejoin:round;stroke-miterlimit:10;}
	.st6{fill:none;stroke:#333333;stroke-width:3.268;stroke-linecap:round;stroke-linejoin:round;stroke-miterlimit:10;}
	.st7{fill:#333333;}
	.st8{fill:none;stroke:#333333;stroke-width:1.0893;stroke-linecap:round;stroke-linejoin:round;stroke-miterlimit:10;}
	.st9{fill:#3EBDB2;}
	.st10{fill:none;stroke:#333333;stroke-width:3.7744;stroke-linecap:round;stroke-linejoin:round;stroke-miterlimit:10;}
	.st11{fill:none;stroke:#90278E;stroke-width:3;stroke-linecap:round;stroke-miterlimit:10;}
	.st12{fill:none;stroke:#26A9E0;stroke-width:3;stroke-linecap:round;stroke-miterlimit:10;}
	.st13{fill:none;stroke:#F6921E;stroke-width:3;stroke-linecap:round;stroke-miterlimit:10;}
	.st14{fill:none;stroke:#333333;stroke-width:3;stroke-linecap:round;stroke-linejoin:round;}
	.st15{fill:#FFFFFF;stroke:#3EBDB2;stroke-width:2.0575;stroke-linecap:round;stroke-linejoin:round;stroke-miterlimit:10;}
	.st16{fill:none;stroke:#EB2027;stroke-width:1.1956;stroke-linecap:round;stroke-linejoin:round;stroke-miterlimit:10;}
	.st17{fill:none;stroke:#EB2027;stroke-width:1.4834;stroke-linecap:round;stroke-linejoin:round;}
	.st18{fill:#EB2027;}
	.st19{fill:#CBCBCA;}
	.st20{fill:none;stroke:#333333;stroke-width:2.3569;stroke-linecap:round;stroke-linejoin:round;stroke-miterlimit:10;}
	.st21{fill:none;stroke:#333333;stroke-width:2.6075;stroke-linecap:round;stroke-linejoin:round;stroke-miterlimit:10;}
	.st22{fill:none;stroke:#3EBDB2;stroke-width:2.6075;stroke-linecap:round;stroke-linejoin:round;stroke-miterlimit:10;}
	.st23{fill:#FFFFFF;stroke:#EC1C24;stroke-width:3.268;stroke-linecap:round;stroke-linejoin:round;stroke-miterlimit:10;}
	.st24{fill:#EC1C24;}
	.st25{fill:none;stroke:#29B473;stroke-width:2.623;stroke-linecap:round;stroke-linejoin:round;stroke-miterlimit:10;}
	.st26{fill:none;stroke:#EC1C24;stroke-width:2.8163;stroke-linecap:round;stroke-linejoin:round;stroke-miterlimit:10;}
	.st27{fill:none;stroke:#333333;stroke-width:3.5103;stroke-linecap:round;stroke-linejoin:round;stroke-miterlimit:10;}
	.st28{fill:none;stroke:#333333;stroke-width:1.6455;stroke-linecap:round;stroke-linejoin:round;stroke-miterlimit:10;}
	.st29{fill:none;stroke:#3EBDB2;stroke-width:4;stroke-linecap:round;stroke-linejoin:round;stroke-miterlimit:10;}
	.st30{fill:none;stroke:#A6A8AB;stroke-width:5;stroke-linecap:round;stroke-linejoin:round;stroke-miterlimit:10;}
	.st31{fill:none;stroke:#333333;stroke-width:1.1395;stroke-linecap:round;stroke-linejoin:round;stroke-miterlimit:10;}
	.st32{fill:none;stroke:#333333;stroke-width:1.8763;stroke-linecap:round;stroke-linejoin:round;stroke-miterlimit:10;}
	.st33{fill:#FFFFFF;stroke:#3EBDB2;stroke-width:4;stroke-linecap:round;stroke-linejoin:round;stroke-miterlimit:10;}
	.st34{fill:#FFFFFF;stroke:#90278E;stroke-width:4;stroke-linecap:round;stroke-linejoin:round;stroke-miterlimit:10;}
	.st35{fill:#FFFFFF;stroke:#F6921E;stroke-width:4;stroke-linecap:round;stroke-linejoin:round;stroke-miterlimit:10;}
	.st36{fill:#FFFFFF;stroke:#90278E;stroke-width:2.0575;stroke-linecap:round;stroke-linejoin:round;stroke-miterlimit:10;}
	.st37{fill:#FFFFFF;stroke:#F6921E;stroke-width:2.0575;stroke-linecap:round;stroke-linejoin:round;stroke-miterlimit:10;}
	.st38{fill:none;stroke:#333333;stroke-width:2.0158;stroke-linecap:round;stroke-linejoin:round;stroke-miterlimit:10;}
	.st39{fill:none;stroke:#333333;stroke-width:3;stroke-linecap:round;stroke-linejoin:round;stroke-miterlimit:10;}
	.st40{fill:none;stroke:#333333;stroke-linecap:round;stroke-linejoin:round;stroke-miterlimit:10;}
	.st41{opacity:0.5;}
	.st42{fill:#312A91;}
	.st43{opacity:0.9;}
	.st44{fill:url(#SVGID_5_);}
	.st45{fill:url(#SVGID_6_);}
	.st46{fill:url(#SVGID_7_);}
	.st47{opacity:0.7;fill:url(#SVGID_8_);}
	.st48{fill:url(#SVGID_9_);}
	.st49{opacity:0.7;fill:url(#SVGID_10_);}
	.st50{opacity:0.7;fill:url(#SVGID_11_);}
	.st51{opacity:0.3;fill:#42E8E0;}
	.st52{fill:#42E8E0;}
	.st53{fill:url(#SVGID_12_);}
	.st54{opacity:0.7;fill:url(#SVGID_13_);}
	.st55{opacity:0.5;fill:#5CFFF3;}
	.st56{fill:url(#SVGID_14_);}
	.st57{opacity:0.5;fill:#42E8E0;}
	.st58{opacity:0.7;fill:url(#SVGID_15_);}
	.st59{opacity:0.9;fill:#42E8E0;}
	.st60{opacity:0.2;fill:#42E8E0;}
	.st61{opacity:0.7;fill:url(#SVGID_16_);}
	.st62{fill:url(#SVGID_17_);}
	.st63{fill:url(#SVGID_18_);}
	.st64{fill:url(#SVGID_19_);}
	.st65{opacity:0.7;fill:url(#SVGID_20_);}
	.st66{fill:url(#SVGID_21_);}
	.st67{opacity:0.7;fill:url(#SVGID_22_);}
	.st68{opacity:0.7;fill:url(#SVGID_23_);}
	.st69{fill:url(#SVGID_24_);}
	.st70{opacity:0.7;fill:url(#SVGID_25_);}
	.st71{fill:url(#SVGID_26_);}
	.st72{opacity:0.7;fill:url(#SVGID_27_);}
	.st73{opacity:0.7;fill:url(#SVGID_28_);}
	.st74{fill:url(#SVGID_29_);}
	.st75{fill:url(#SVGID_30_);}
	.st76{fill:url(#SVGID_31_);}
	.st77{opacity:0.7;fill:url(#SVGID_32_);}
	.st78{fill:url(#SVGID_33_);}
	.st79{fill:url(#SVGID_34_);}
	.st80{opacity:0.7;fill:url(#SVGID_35_);}
	.st81{opacity:0.7;fill:url(#SVGID_36_);}
	.st82{fill:url(#SVGID_37_);}
	.st83{fill:url(#SVGID_38_);}
	.st84{fill:url(#SVGID_39_);}
	.st85{opacity:0.7;fill:url(#SVGID_40_);}
	.st86{fill:url(#SVGID_41_);}
	.st87{fill:url(#SVGID_42_);}
	.st88{opacity:0.7;fill:url(#SVGID_43_);}
	.st89{opacity:0.2;}
	.st90{fill:url(#SVGID_44_);}
	.st91{opacity:0.6;fill:#0F054C;}
	.st92{fill:url(#SVGID_45_);}
	.st93{fill:url(#SVGID_46_);}
	.st94{fill:#251C72;}
	.st95{opacity:0.4;fill:#42E8E0;}
	.st96{fill:url(#SVGID_47_);}
	.st97{fill:url(#SVGID_48_);}
	.st98{fill:url(#SVGID_49_);}
	.st99{fill:#2FD3C7;}
	.st100{fill:#FFFFFF;}
	.st101{opacity:0.7;fill:#18B2A3;}
	.st102{fill:url(#SVGID_50_);}
	.st103{fill:url(#SVGID_51_);}
	.st104{fill:url(#SVGID_52_);}
	.st105{opacity:0.7;fill:#42E8E0;}
	.st106{fill:url(#SVGID_53_);}
	.st107{fill:url(#SVGID_54_);}
	.st108{opacity:0.75;fill:#0F054C;}
	.st109{fill:url(#SVGID_55_);}
	.st110{fill:url(#SVGID_56_);}
	.st111{fill:url(#SVGID_57_);}
	.st112{fill:url(#SVGID_58_);}
	.st113{fill:url(#SVGID_59_);}
	.st114{fill:url(#SVGID_60_);}
	.st115{fill:url(#SVGID_61_);}
	.st116{fill:url(#SVGID_62_);}
	.st117{fill:url(#SVGID_63_);}
	.st118{fill:url(#SVGID_64_);}
	.st119{fill:url(#SVGID_65_);}
	.st120{fill:url(#SVGID_66_);}
	.st121{fill:url(#SVGID_67_);}
	.st122{fill:url(#SVGID_68_);}
	.st123{fill:url(#SVGID_69_);}
	.st124{fill:url(#SVGID_70_);}
	.st125{fill:url(#SVGID_71_);}
	.st126{fill:none;stroke:#3EBDB2;stroke-width:2.0575;stroke-linecap:round;stroke-linejoin:round;stroke-miterlimit:10;}
	.st127{fill:none;stroke:#333333;stroke-width:1.8806;stroke-linecap:round;stroke-linejoin:round;stroke-miterlimit:10;}
	.st128{fill:#FFFFFF;stroke:#333333;stroke-width:1.8806;stroke-linecap:round;stroke-linejoin:round;stroke-miterlimit:10;}
	.st129{fill:#15CCBA;}
	.st130{fill:none;stroke:#15CCBA;stroke-width:1.8806;stroke-linecap:round;stroke-linejoin:round;stroke-miterlimit:10;}
	.st131{fill:#FFFFFF;stroke:#15CCBA;stroke-width:1.8806;stroke-linecap:round;stroke-linejoin:round;stroke-miterlimit:10;}
	.st132{fill:none;stroke:#15CCBA;stroke-width:2;stroke-linecap:round;stroke-linejoin:round;}
</style>
<g>
	<g>
		<g>
			<rect x="312.3" y="108.1" class="st19" width="35.6" height="5.4"/>
			<rect x="312.3" y="124.8" class="st19" width="35.6" height="5.4"/>
			<rect x="305.2" y="96.9" class="st20" width="49.7" height="11.3"/>
			<rect x="305.2" y="113.5" class="st20" width="49.7" height="11.3"/>
			<rect x="305.2" y="130.2" class="st20" width="49.7" height="11.3"/>
			<circle class="st9" cx="311.8" cy="102.5" r="1.8"/>
			<circle class="st9" cx="311.8" cy="119.1" r="1.8"/>
			<circle class="st9" cx="311.8" cy="135.8" r="1.8"/>
		</g>
		<g>
			<rect x="243.2" y="108.1" class="st19" width="35.6" height="5.4"/>
			<rect x="243.2" y="124.8" class="st19" width="35.6" height="5.4"/>
			<rect x="236.1" y="96.9" class="st20" width="49.7" height="11.3"/>
			<rect x="236.1" y="113.5" class="st20" width="49.7" height="11.3"/>
			<rect x="236.1" y="130.2" class="st20" width="49.7" height="11.3"/>
			<circle class="st9" cx="242.8" cy="102.5" r="1.8"/>
			<circle class="st9" cx="242.8" cy="119.1" r="1.8"/>
			<circle class="st9" cx="242.8" cy="135.8" r="1.8"/>
		</g>
		<g>
			<rect x="174.1" y="108.1" class="st19" width="35.6" height="5.4"/>
			<rect x="174.1" y="124.8" class="st19" width="35.6" height="5.4"/>
			<rect x="167.1" y="96.9" class="st20" width="49.7" height="11.3"/>
			<rect x="167.1" y="113.5" class="st20" width="49.7" height="11.3"/>
			<rect x="167.1" y="130.2" class="st20" width="49.7" height="11.3"/>
			<circle class="st9" cx="173.7" cy="102.5" r="1.8"/>
			<circle class="st9" cx="173.7" cy="119.1" r="1.8"/>
			<circle class="st9" cx="173.7" cy="135.8" r="1.8"/>
		</g>
		<g>
			<rect x="105.1" y="108.1" class="st19" width="35.6" height="5.4"/>
			<rect x="105.1" y="124.8" class="st19" width="35.6" height="5.4"/>
			<rect x="98" y="96.9" class="st20" width="49.7" height="11.3"/>
			<rect x="98" y="113.5" class="st20" width="49.7" height="11.3"/>
			<rect x="98" y="130.2" class="st20" width="49.7" height="11.3"/>
			<circle class="st9" cx="104.7" cy="102.5" r="1.8"/>
			<circle class="st9" cx="104.7" cy="119.1" r="1.8"/>
			<circle class="st9" cx="104.7" cy="135.8" r="1.8"/>
		</g>
		<g>
			<rect x="312.3" y="179" class="st19" width="35.6" height="5.4"/>
			<rect x="312.3" y="195.7" class="st19" width="35.6" height="5.4"/>
			<rect x="305.2" y="167.7" class="st20" width="49.7" height="11.3"/>
			<rect x="305.2" y="184.4" class="st20" width="49.7" height="11.3"/>
			<rect x="305.2" y="201" class="st20" width="49.7" height="11.3"/>
			<circle class="st9" cx="311.8" cy="173.4" r="1.8"/>
			<circle class="st9" cx="311.8" cy="190" r="1.8"/>
			<circle class="st9" cx="311.8" cy="206.7" r="1.8"/>
		</g>
		<g>
			<rect x="243.2" y="179" class="st19" width="35.6" height="5.4"/>
			<rect x="243.2" y="195.7" class="st19" width="35.6" height="5.4"/>
			<rect x="236.1" y="167.7" class="st20" width="49.7" height="11.3"/>
			<rect x="236.1" y="184.4" class="st20" width="49.7" height="11.3"/>
			<rect x="236.1" y="201" class="st20" width="49.7" height="11.3"/>
			<circle class="st9" cx="242.8" cy="173.4" r="1.8"/>
			<circle class="st9" cx="242.8" cy="190" r="1.8"/>
			<circle class="st9" cx="242.8" cy="206.7" r="1.8"/>
		</g>
		<g>
			<rect x="174.1" y="179" class="st19" width="35.6" height="5.4"/>
			<rect x="174.1" y="195.7" class="st19" width="35.6" height="5.4"/>
			<rect x="167.1" y="167.7" class="st20" width="49.7" height="11.3"/>
			<rect x="167.1" y="184.4" class="st20" width="49.7" height="11.3"/>
			<rect x="167.1" y="201" class="st20" width="49.7" height="11.3"/>
			<circle class="st9" cx="173.7" cy="173.4" r="1.8"/>
			<circle class="st9" cx="173.7" cy="190" r="1.8"/>
			<circle class="st9" cx="173.7" cy="206.7" r="1.8"/>
		</g>
		<g>
			<rect x="105.1" y="179" class="st19" width="35.6" height="5.4"/>
			<rect x="105.1" y="195.7" class="st19" width="35.6" height="5.4"/>
			<rect x="98" y="167.7" class="st20" width="49.7" height="11.3"/>
			<rect x="98" y="184.4" class="st20" width="49.7" height="11.3"/>
			<rect x="98" y="201" class="st20" width="49.7" height="11.3"/>
			<circle class="st9" cx="104.7" cy="173.4" r="1.8"/>
			<circle class="st9" cx="104.7" cy="190" r="1.8"/>
			<circle class="st9" cx="104.7" cy="206.7" r="1.8"/>
		</g>
		<g>
			<rect x="312.3" y="249.9" class="st19" width="35.6" height="5.4"/>
			<rect x="312.3" y="266.5" class="st19" width="35.6" height="5.4"/>
			<rect x="305.2" y="238.6" class="st20" width="49.7" height="11.3"/>
			<rect x="305.2" y="255.3" class="st20" width="49.7" height="11.3"/>
			<rect x="305.2" y="271.9" class="st20" width="49.7" height="11.3"/>
			<circle class="st9" cx="311.8" cy="244.2" r="1.8"/>
			<circle class="st9" cx="311.8" cy="260.9" r="1.8"/>
			<circle class="st9" cx="311.8" cy="277.5" r="1.8"/>
		</g>
		<g>
			<rect x="243.2" y="249.9" class="st19" width="35.6" height="5.4"/>
			<rect x="243.2" y="266.5" class="st19" width="35.6" height="5.4"/>
			<rect x="236.1" y="238.6" class="st20" width="49.7" height="11.3"/>
			<rect x="236.1" y="255.3" class="st20" width="49.7" height="11.3"/>
			<rect x="236.1" y="271.9" class="st20" width="49.7" height="11.3"/>
			<circle class="st9" cx="242.8" cy="244.2" r="1.8"/>
			<circle class="st9" cx="242.8" cy="260.9" r="1.8"/>
			<circle class="st9" cx="242.8" cy="277.5" r="1.8"/>
		</g>
		<g>
			<rect x="174.1" y="249.9" class="st19" width="35.6" height="5.4"/>
			<rect x="174.1" y="266.5" class="st19" width="35.6" height="5.4"/>
			<rect x="167.1" y="238.6" class="st20" width="49.7" height="11.3"/>
			<rect x="167.1" y="255.3" class="st20" width="49.7" height="11.3"/>
			<rect x="167.1" y="271.9" class="st20" width="49.7" height="11.3"/>
			<circle class="st9" cx="173.7" cy="244.2" r="1.8"/>
			<circle class="st9" cx="173.7" cy="260.9" r="1.8"/>
			<circle class="st9" cx="173.7" cy="277.5" r="1.8"/>
		</g>
		<g>
			<rect x="105.1" y="249.9" class="st19" width="35.6" height="5.4"/>
			<rect x="105.1" y="266.5" class="st19" width="35.6" height="5.4"/>
			<rect x="98" y="238.6" class="st20" width="49.7" height="11.3"/>
			<rect x="98" y="255.3" class="st20" width="49.7" height="11.3"/>
			<rect x="98" y="271.9" class="st20" width="49.7" height="11.3"/>
			<circle class="st9" cx="104.7" cy="244.2" r="1.8"/>
			<circle class="st9" cx="104.7" cy="260.9" r="1.8"/>
			<circle class="st9" cx="104.7" cy="277.5" r="1.8"/>
		</g>
		<g>
			<rect x="312.3" y="320.5" class="st19" width="35.6" height="5.4"/>
			<rect x="312.3" y="337.2" class="st19" width="35.6" height="5.4"/>
			<rect x="305.2" y="309.2" class="st20" width="49.7" height="11.3"/>
			<rect x="305.2" y="325.9" class="st20" width="49.7" height="11.3"/>
			<rect x="305.2" y="342.5" class="st20" width="49.7" height="11.3"/>
			<circle class="st9" cx="311.8" cy="314.9" r="1.8"/>
			<circle class="st9" cx="311.8" cy="331.5" r="1.8"/>
			<circle class="st9" cx="311.8" cy="348.2" r="1.8"/>
		</g>
		<g>
			<rect x="243.2" y="320.5" class="st19" width="35.6" height="5.4"/>
			<rect x="243.2" y="337.2" class="st19" width="35.6" height="5.4"/>
			<rect x="236.1" y="309.2" class="st20" width="49.7" height="11.3"/>
			<rect x="236.1" y="325.9" class="st20" width="49.7" height="11.3"/>
			<rect x="236.1" y="342.5" class="st20" width="49.7" height="11.3"/>
			<circle class="st9" cx="242.8" cy="314.9" r="1.8"/>
			<circle class="st9" cx="242.8" cy="331.5" r="1.8"/>
			<circle class="st9" cx="242.8" cy="348.2" r="1.8"/>
		</g>
		<g>
			<rect x="174.1" y="320.5" class="st19" width="35.6" height="5.4"/>
			<rect x="174.1" y="337.2" class="st19" width="35.6" height="5.4"/>
			<rect x="167.1" y="309.2" class="st20" width="49.7" height="11.3"/>
			<rect x="167.1" y="325.9" class="st20" width="49.7" height="11.3"/>
			<rect x="167.1" y="342.5" class="st20" width="49.7" height="11.3"/>
			<circle class="st9" cx="173.7" cy="314.9" r="1.8"/>
			<circle class="st9" cx="173.7" cy="331.5" r="1.8"/>
			<circle class="st9" cx="173.7" cy="348.2" r="1.8"/>
		</g>
		<g>
			<rect x="105.1" y="320.5" class="st19" width="35.6" height="5.4"/>
			<rect x="105.1" y="337.2" class="st19" width="35.6" height="5.4"/>
			<rect x="98" y="309.2" class="st20" width="49.7" height="11.3"/>
			<rect x="98" y="325.9" class="st20" width="49.7" height="11.3"/>
			<rect x="98" y="342.5" class="st20" width="49.7" height="11.3"/>
			<circle class="st9" cx="104.7" cy="314.9" r="1.8"/>
			<circle class="st9" cx="104.7" cy="331.5" r="1.8"/>
			<circle class="st9" cx="104.7" cy="348.2" r="1.8"/>
		</g>
	</g>
	<line class="st20" x1="161.1" y1="86.5" x2="216.8" y2="150.5"/>
	<line class="st20" x1="95.1" y1="228.9" x2="150.7" y2="292.9"/>
	<line class="st20" x1="233.2" y1="228.9" x2="288.9" y2="292.9"/>
	<line class="st20" x1="233.2" y1="299.5" x2="288.9" y2="363.5"/>
	<line class="st20" x1="299.3" y1="156.2" x2="354.9" y2="220.2"/>
</g>
</svg>
