<?xml version="1.0" encoding="utf-8"?>
<!-- Generator: Adobe Illustrator 24.1.3, SVG Export Plug-In . SVG Version: 6.00 Build 0)  -->
<svg version="1.1" id="Layer_1" xmlns="http://www.w3.org/2000/svg" xmlns:xlink="http://www.w3.org/1999/xlink" x="0px" y="0px"
	 viewBox="0 0 350 350" style="enable-background:new 0 0 350 350;" xml:space="preserve">
<style type="text/css">
	.st0{fill:none;stroke:#333333;stroke-width:2.0158;stroke-linecap:round;stroke-linejoin:round;stroke-miterlimit:10;}
	.st1{fill:#333333;}
	.st2{fill:none;stroke:#333333;stroke-width:5;stroke-linecap:round;stroke-linejoin:round;stroke-miterlimit:10;}
	.st3{fill:none;stroke:#333333;stroke-width:3;stroke-linecap:round;stroke-linejoin:round;stroke-miterlimit:10;}
	.st4{fill:none;stroke:#333333;stroke-linecap:round;stroke-linejoin:round;stroke-miterlimit:10;}
	.st5{fill:none;stroke:#15CCBA;stroke-width:2;stroke-linecap:round;stroke-miterlimit:10;}
</style>
<g>
	<g>
		<path class="st0" d="M186.5,182.2h-22.9c-0.4,0-0.8-0.3-0.8-0.8v-20.6c0-0.4,0.3-0.8,0.8-0.8h22.9c0.4,0,0.8,0.3,0.8,0.8v20.6
			C187.2,181.9,186.9,182.2,186.5,182.2z"/>
		<path class="st0" d="M183.1,160.2v-10.1c0-4.5-3.6-8.1-8.1-8.1s-8.1,3.6-8.1,8.1v10.1"/>
		<path class="st1" d="M175.8,171v2.7c0,0.4-0.4,0.8-0.8,0.8l0,0c-0.4,0-0.8-0.4-0.8-0.8V171l0,0c-0.3-0.3-0.5-0.7-0.4-1.2
			s0.5-1,1-1c0.8-0.1,1.5,0.5,1.5,1.3C176.3,170.5,176.1,170.8,175.8,171L175.8,171z"/>
	</g>
	<path class="st2" d="M176.4,227.2c46.4-44.5,41.8-85.9,40.4-94c-0.2-0.8-0.8-1.5-1.6-1.7c-20.1-5.4-35-14.4-39.1-17
		c-0.7-0.4-1.5-0.4-2.2,0c-4.1,2.6-18.9,11.6-39.1,17c-0.8,0.2-1.5,0.9-1.6,1.7c-1.4,8-6.1,49.5,40.4,94
		C174.4,228,175.6,228,176.4,227.2z"/>
	<path class="st3" d="M176.8,243.8c59.3-56.8,53.4-108.7,51.5-119c-0.2-1.1-1-1.9-2-2.2c-25.7-6.9-44.7-18.3-49.9-21.7
		c-0.9-0.6-2-0.6-2.9,0c-5.2,3.3-24.2,14.8-49.9,21.7c-1.1,0.3-1.9,1.1-2,2.2c-1.8,10.2-7.8,62.2,51.5,119
		C174.2,244.8,175.8,244.8,176.8,243.8z"/>
	<path class="st4" d="M177.2,260.3c71.3-68.3,64.2-130,62-142.3c-0.2-1.3-1.2-2.3-2.5-2.7c-30.9-8.3-53.7-22-60-26.1
		c-1.1-0.7-2.4-0.7-3.4,0c-6.3,4-29.1,17.8-60,26.1c-1.3,0.3-2.2,1.4-2.5,2.7c-2.2,12.3-9.4,74,62,142.3
		C174,261.5,176,261.5,177.2,260.3z"/>
</g>
<line class="st5" x1="235.2" y1="76.4" x2="235.2" y2="106.4"/>
<line class="st5" x1="250.2" y1="91.4" x2="220.3" y2="91.4"/>
</svg>
