<?xml version="1.0" encoding="utf-8"?>
<!-- Generator: Adobe Illustrator 24.1.3, SVG Export Plug-In . SVG Version: 6.00 Build 0)  -->
<svg version="1.1" id="Layer_1" xmlns="http://www.w3.org/2000/svg" xmlns:xlink="http://www.w3.org/1999/xlink" x="0px" y="0px"
	 viewBox="0 0 350 350" style="enable-background:new 0 0 350 350;" xml:space="preserve">
<style type="text/css">
	.st0{fill:none;stroke:#333333;stroke-width:4;stroke-linecap:round;stroke-linejoin:round;stroke-miterlimit:10;}
	.st1{fill:#333333;}
	.st2{fill:none;stroke:#333333;stroke-width:2;stroke-linecap:round;stroke-linejoin:round;stroke-miterlimit:10;}
</style>
<g>
	<g>
		<g>
			<g>
				<g>
					<g>
						<path class="st0" d="M210.4,112.9c-4.1,8-5.7,17.5-3.7,27.1"/>
						<path class="st0" d="M265.6,94.5c-7.9-3.9-17.1-5.3-26.5-3.4c-10.6,2.1-19.4,8.1-25.4,16.2"/>
						<path class="st0" d="M288,123.5c-2.2-10.9-8.5-19.9-16.8-25.8"/>
					</g>
				</g>
				<g>
					<g>
						<path class="st0" d="M288.9,132.6c0.1-3-0.2-6-0.8-9"/>
						<path class="st0" d="M206.7,140c0.1,0.6,0.2,1.2,0.4,1.8"/>
					</g>
				</g>
				<path class="st0" d="M236.6,171.9c9.3-10.6,13.7-25.2,10.7-40.1"/>
				<path class="st0" d="M237.6,136.1c1.6,12-2.8,23.6-11.2,31.4"/>
				<path class="st0" d="M258.7,140.9c0-3.7-0.4-7.4-1.2-11.2l0,0c-1.2-5.6-6.6-9.3-12.3-8.2c-4.2,0.9-7.3,4.1-8.2,8.1"/>
				<path class="st0" d="M248.7,173.2c5.2-7.6,8.6-16.4,9.6-25.8"/>
				<path class="st0" d="M225.8,150.4c-1.6,4.2-4.3,7.9-7.8,10.8"/>
				<path class="st0" d="M268.2,151.9c1.3-7.8,1.2-16-0.5-24.3l0,0c-2.3-11.2-13.3-18.5-24.5-16.3c-11.2,2.3-18.5,13.3-16.3,24.5
					l0,0c0.5,2.7,0.6,5.3,0.3,7.9"/>
				<path class="st0" d="M262.2,170.5c1.9-3.9,3.4-7.9,4.5-12.1"/>
				<path class="st0" d="M216.2,133c0.1,1.6,0.3,3.3,0.6,4.9l0,0c1.2,5.8-1,11.5-5.2,15"/>
				<path class="st0" d="M278.6,129.7c-0.2-1.3-0.5-2.7-0.7-4.1l0,0c-3.4-16.8-19.9-27.8-36.7-24.4c-13,2.6-22.4,12.9-24.5,25.2"/>
				<path class="st0" d="M276.8,161c2.1-7.9,3-16.3,2.5-24.8"/>
			</g>
		</g>
		<g>
			<g>
				<path class="st0" d="M123.4,169.7l-38.4,0c-4.4,0-7.9-3.5-7.9-7.9l0-33.2c0-4.4,3.5-7.9,7.9-7.9l38.4,0c4.4,0,7.9,3.5,7.9,7.9
					l0,33.2C131.3,166.2,127.8,169.7,123.4,169.7z"/>
				<path class="st0" d="M122.3,120.2l0-14.6c0-10-8.1-18.1-18-18.1s-18.1,8.1-18.1,18l0,14.3"/>
				<path class="st1" d="M106,144.9l0,6c0,1-0.8,1.8-1.8,1.8h0c-1,0-1.8-0.8-1.8-1.8l0-6l0,0c-0.7-0.6-1.2-1.6-1-2.7
					c0.2-1.2,1.1-2.1,2.3-2.3c1.8-0.3,3.4,1.1,3.3,2.8C107.1,143.6,106.7,144.3,106,144.9L106,144.9z"/>
			</g>
		</g>
	</g>
	<g>
		<path class="st0" d="M187.9,262.5H163c-5.6,0-10.1-4.5-10.1-10.1v-24.9c0-5.6,4.5-10.1,10.1-10.1h24.9c5.6,0,10.1,4.5,10.1,10.1
			v24.9C198,258,193.5,262.5,187.9,262.5z"/>
		<path class="st0" d="M108.2,262.5H83.3c-5.6,0-10.1-4.5-10.1-10.1v-24.9c0-5.6,4.5-10.1,10.1-10.1h24.9c5.6,0,10.1,4.5,10.1,10.1
			v24.9C118.3,258,113.7,262.5,108.2,262.5z"/>
		<line class="st0" x1="152.9" y1="239.9" x2="118.3" y2="239.9"/>
		<path class="st0" d="M267.6,262.5h-24.9c-5.6,0-10.1-4.5-10.1-10.1v-24.9c0-5.6,4.5-10.1,10.1-10.1h24.9c5.6,0,10.1,4.5,10.1,10.1
			v24.9C277.7,258,273.2,262.5,267.6,262.5z"/>
		<line class="st0" x1="232.6" y1="239.9" x2="198" y2="239.9"/>
		<line class="st0" x1="72.3" y1="239.9" x2="49.1" y2="239.9"/>
		<line class="st0" x1="300.9" y1="239.9" x2="277.7" y2="239.9"/>
	</g>
	<g>
		<line class="st2" x1="172" y1="123.6" x2="172" y2="151.9"/>
		<line class="st2" x1="186.2" y1="137.8" x2="157.8" y2="137.8"/>
	</g>
</g>
</svg>
