<?xml version="1.0" encoding="utf-8"?>
<!-- Generator: Adobe Illustrator 23.0.2, SVG Export Plug-In . SVG Version: 6.00 Build 0)  -->
<svg version="1.1" id="Layer_1" xmlns="http://www.w3.org/2000/svg" xmlns:xlink="http://www.w3.org/1999/xlink" x="0px" y="0px"
	 viewBox="0 0 500 200" style="enable-background:new 0 0 500 200;" xml:space="preserve">
<style type="text/css">
	.st0{fill:#FFFFFF;}
</style>
<g>
	<path class="st0" d="M105.12,155.6V32.64h44.4c28.86,0,40.31,12.47,40.31,30.91c0,17.08-9.74,24.76-19.64,26.47v0.35
		c16.91,2.56,25.28,14.35,25.28,30.57c0,25.61-16.74,34.67-40.14,34.67L105.12,155.6L105.12,155.6z M116.74,86.95h29.37
		c24.25,0,32.1-8.54,32.1-23.4c0-15.37-9.22-21-34.67-21h-26.81V86.95z M116.74,145.69h29.54c25.61,0,37.58-3.41,37.58-24.76
		c0-20.32-14.35-24.08-36.2-24.08h-30.91L116.74,145.69L116.74,145.69z"/>
	<path class="st0" d="M211.69,111.37c0-25.78,13.66-46.62,40.99-46.62c27.66,0,40.99,20.67,40.99,46.62
		c0,28.01-16.23,46.63-40.99,46.63C230.13,157.65,211.69,142.28,211.69,111.37z M252.67,73.97c-21.52,0-30.06,18.27-30.06,37.4
		c0,22.03,10.42,37.4,30.06,37.4c21.52,0,30.06-18.44,30.06-37.4C282.56,90.54,274.36,73.97,252.67,73.97z"/>
	<path class="st0" d="M343.18,117.35l-27.49,38.26h-12.47l33.98-45.77l-31.25-42.69h12.63l24.42,35.18l25.11-35.18h12.98
		l-31.94,42.69l33.13,45.77h-12.3L343.18,117.35z"/>
	<path class="st0" d="M43.82,35.2C9.14,35.2,3,65.94,3,96.34c0,33.3,7.52,61.65,40.82,61.65c33.13,0,40.64-28.52,40.64-60.46
		C84.46,69.52,79.51,35.2,43.82,35.2z M43.47,44.42c7.81,0,13.65,2.46,18,6.61L19.94,134.1c-4.36-8.92-6.01-21.46-6.01-36.57
		C13.93,70.89,19.56,44.42,43.47,44.42z M43.82,148.77c-7.82,0-13.74-2.39-18.2-6.68l41.56-83.12c5.02,9.9,6.35,23.62,6.35,37.38
		C73.53,120.59,69.77,148.77,43.82,148.77z"/>
</g>
</svg>
