<?xml version="1.0" encoding="utf-8"?>
<!-- Generator: Adobe Illustrator 23.0.2, SVG Export Plug-In . SVG Version: 6.00 Build 0)  -->
<svg version="1.1" id="_x2014_ÎÓÈ_x5F_1" xmlns="http://www.w3.org/2000/svg" xmlns:xlink="http://www.w3.org/1999/xlink"
	 x="0px" y="0px" viewBox="0 0 600 450" style="enable-background:new 0 0 600 450;" xml:space="preserve">
<style type="text/css">
	.st0{fill:#4553C7;}
	.st1{opacity:0.5;fill:#081175;}
	.st2{fill:#242993;}
	.st3{fill:url(#SVGID_1_);}
	.st4{fill:#3947BA;}
	.st5{fill:#CAE7FF;}
	.st6{opacity:0.51;fill:#4553C7;}
	.st7{fill:#BCD5FF;}
	.st8{fill:url(#SVGID_2_);}
	.st9{fill:url(#SVGID_3_);}
	.st10{fill:url(#SVGID_4_);}
	.st11{fill:#3F38FC;}
	.st12{fill:url(#SVGID_5_);}
	.st13{fill:url(#SVGID_6_);}
	.st14{fill:url(#SVGID_7_);}
	.st15{fill:url(#SVGID_8_);}
	.st16{fill:url(#SVGID_9_);}
	.st17{fill:url(#SVGID_10_);}
	.st18{fill:url(#SVGID_11_);}
	.st19{fill:url(#SVGID_12_);}
	.st20{fill:url(#SVGID_13_);}
	.st21{fill:url(#SVGID_14_);}
	.st22{fill:url(#SVGID_15_);}
	.st23{fill:url(#SVGID_16_);}
	.st24{fill:url(#SVGID_17_);}
	.st25{fill:url(#SVGID_18_);}
	.st26{fill:url(#SVGID_19_);}
	.st27{fill:url(#SVGID_20_);}
	.st28{fill:url(#SVGID_21_);}
	.st29{fill:url(#SVGID_22_);}
	.st30{fill:url(#SVGID_23_);}
	.st31{fill:url(#SVGID_24_);}
	.st32{fill:url(#SVGID_25_);}
	.st33{fill:url(#SVGID_26_);}
	.st34{fill:url(#SVGID_27_);}
	.st35{fill:url(#SVGID_28_);}
	.st36{filter:url(#Adobe_OpacityMaskFilter);}
	.st37{filter:url(#Adobe_OpacityMaskFilter_1_);}
	.st38{mask:url(#SVGID_29_);fill:url(#SVGID_30_);}
	.st39{opacity:0.78;fill:url(#SVGID_31_);}
	.st40{fill:url(#SVGID_32_);}
	.st41{fill:url(#SVGID_33_);}
	.st42{opacity:0.6;fill:#242993;}
	.st43{opacity:0.96;fill:url(#SVGID_34_);}
	.st44{opacity:0.8;fill:#4553C7;}
	.st45{opacity:0.32;}
	.st46{opacity:0.5;fill:#42FFFF;}
	.st47{fill:#42FFFF;}
	.st48{fill:url(#SVGID_35_);}
	.st49{fill:url(#SVGID_36_);}
	.st50{fill:url(#SVGID_37_);}
	.st51{opacity:0.4;fill:#42FFFF;}
	.st52{fill:url(#SVGID_38_);}
	.st53{fill:url(#SVGID_39_);}
	.st54{fill:url(#SVGID_40_);}
	.st55{fill:url(#SVGID_41_);}
	.st56{fill:url(#SVGID_42_);}
	.st57{fill:url(#SVGID_43_);}
</style>
<rect x="201.38" y="153.2" transform="matrix(0.5 -0.866 0.866 0.5 -80.0338 279.2803)" class="st0" width="0.93" height="111.5"/>
<path class="st0" d="M166.73,361.21l-38.82-22.42c-1.05-0.61-1.68-1.7-1.68-2.91c0-1.21,0.63-2.3,1.68-2.91l314.4-181.52l0.46,0.81
	l-314.4,181.52c-0.76,0.44-1.21,1.23-1.21,2.11c0,0.88,0.45,1.67,1.21,2.1l38.82,22.42L166.73,361.21z"/>
<polygon class="st1" points="269.28,223.75 141.69,295.69 199.1,327.37 325.42,256.16 "/>
<g>
	<g>
		<g>
			<g>
				<g>
					<path class="st2" d="M266.71,118.19h-9.74c1.44-3.28,2.34-5.3,2.34-5.3l97.07-37.88l-0.01,162.12c0,0.02,0,0.04,0,0.05v0.15
						l-0.01,0c-0.04,0.29-0.22,0.57-0.59,0.78l-88.51,51.1c-0.16,0.1-0.36,0.16-0.56,0.22V118.19z"/>
				</g>
				
					<linearGradient id="SVGID_1_" gradientUnits="userSpaceOnUse" x1="-1189.4534" y1="289.5663" x2="-1189.4534" y2="94.9933" gradientTransform="matrix(-1 0 0 1 -951.7842 0)">
					<stop  offset="0" style="stop-color:#C0D6FF"/>
					<stop  offset="0.2978" style="stop-color:#C5DBFF"/>
					<stop  offset="0.6488" style="stop-color:#D3E9FF"/>
					<stop  offset="1" style="stop-color:#E9FFFF"/>
				</linearGradient>
				<path class="st3" d="M209.72,94.99l55.86,31.87v97.58l0.04-0.02v65.14c-0.01,0-0.02,0-0.04,0v0l0,0
					c-0.63-0.03-1.28-0.19-1.8-0.49l-53.21-30.72c-0.55-0.32-0.83-0.72-0.85-1.1l-0.01-0.01L209.72,94.99z"/>
				<path class="st4" d="M269.59,78.1v144.03v42.01v23.75l-2.32,1.34c-0.44,0.25-1.04,0.37-1.66,0.35c-0.64-0.02-0.68-0.39-1.2-0.69
					l-0.48-0.2l0.52-24.89v-39L263.29,78.1H269.59z"/>
				<path class="st5" d="M263.29,264.14v-38.37V125.56l2.29,1.31v97.58l0.04-0.02v65.14c-0.01,0-0.02,0-0.04,0l0,0h0
					c-0.13-0.01-0.27-0.02-0.4-0.04c-0.03,0-0.05,0-0.08-0.01c-0.3-0.04-0.58-0.12-0.86-0.23c-0.02-0.01-0.04-0.01-0.06-0.02
					c-0.14-0.06-0.28-0.12-0.41-0.2l-0.5-0.29V264.14z"/>
				<polygon class="st6" points="352.01,83.93 274,128.97 274,280.68 352.01,235.64 				"/>
				<polygon class="st6" points="356.39,213.75 269.59,155.64 269.59,125.68 356.39,75.01 				"/>
				<path class="st7" d="M267.27,127.02l88.51-51.1c0.89-0.52,0.78-1.42-0.25-2.01l-53.21-30.72c-1.03-0.6-2.59-0.66-3.49-0.14
					l-88.51,51.1c-0.89,0.52-0.78,1.42,0.25,2.01l53.21,30.72C264.82,127.47,266.38,127.54,267.27,127.02z"/>
				
					<linearGradient id="SVGID_2_" gradientUnits="userSpaceOnUse" x1="-1298.1501" y1="85.029" x2="-1177.6842" y2="85.029" gradientTransform="matrix(-1 0 0 1 -951.7842 0)">
					<stop  offset="0" style="stop-color:#5778FF"/>
					<stop  offset="0.1779" style="stop-color:#5C7DFF"/>
					<stop  offset="0.3876" style="stop-color:#6A8AFF"/>
					<stop  offset="0.6134" style="stop-color:#82A0FF"/>
					<stop  offset="0.849" style="stop-color:#A3BEFF"/>
					<stop  offset="1" style="stop-color:#BCD5FF"/>
				</linearGradient>
				<polygon class="st8" points="299.72,48.48 342.24,73.03 346.37,72.26 346.37,75.41 266.39,121.58 225.9,94.05 				"/>
				
					<linearGradient id="SVGID_3_" gradientUnits="userSpaceOnUse" x1="-1218.1768" y1="106.5412" x2="-1171.5271" y2="106.5412" gradientTransform="matrix(-1 0 0 1 -951.7842 0)">
					<stop  offset="0" style="stop-color:#C0D6FF"/>
					<stop  offset="0.2978" style="stop-color:#C5DBFF"/>
					<stop  offset="0.6488" style="stop-color:#D3E9FF"/>
					<stop  offset="1" style="stop-color:#E9FFFF"/>
				</linearGradient>
				<polygon class="st9" points="219.74,91.5 219.74,94.65 266.39,121.58 266.39,118.43 				"/>
				
					<linearGradient id="SVGID_4_" gradientUnits="userSpaceOnUse" x1="-1298.1501" y1="81.8808" x2="-1171.5271" y2="81.8808" gradientTransform="matrix(-1 0 0 1 -951.7842 0)">
					<stop  offset="0" style="stop-color:#C0D6FF"/>
					<stop  offset="0.2978" style="stop-color:#C5DBFF"/>
					<stop  offset="0.6488" style="stop-color:#D3E9FF"/>
					<stop  offset="1" style="stop-color:#E9FFFF"/>
				</linearGradient>
				<polygon class="st10" points="266.39,118.43 346.37,72.26 299.72,45.33 219.74,91.5 				"/>
				<g>
					<g>
						<g>
							<polygon class="st11" points="316.51,68.89 317.79,68.16 317.68,67.56 305.86,60.68 304.22,61.47 304.53,61.98 							"/>
							
								<linearGradient id="SVGID_5_" gradientUnits="userSpaceOnUse" x1="-1270.3918" y1="64.2268" x2="-1255.4933" y2="64.2268" gradientTransform="matrix(-1 0 0 1 -951.7842 0)">
								<stop  offset="0" style="stop-color:#5778FF"/>
								<stop  offset="0.1779" style="stop-color:#5C7DFF"/>
								<stop  offset="0.3876" style="stop-color:#6A8AFF"/>
								<stop  offset="0.6134" style="stop-color:#82A0FF"/>
								<stop  offset="0.849" style="stop-color:#A3BEFF"/>
								<stop  offset="1" style="stop-color:#BCD5FF"/>
							</linearGradient>
							<polygon class="st12" points="305.8,61.24 304.53,61.98 303.71,61.5 305.8,60.29 318.61,67.69 317.79,68.16 							"/>
						</g>
						<g>
							<polygon class="st11" points="312.65,71.12 313.92,70.38 313.82,69.79 302,62.91 300.36,63.69 300.66,64.2 							"/>
							
								<linearGradient id="SVGID_6_" gradientUnits="userSpaceOnUse" x1="-1266.5247" y1="66.4526" x2="-1251.6259" y2="66.4526" gradientTransform="matrix(-1 0 0 1 -951.7842 0)">
								<stop  offset="0" style="stop-color:#5778FF"/>
								<stop  offset="0.1779" style="stop-color:#5C7DFF"/>
								<stop  offset="0.3876" style="stop-color:#6A8AFF"/>
								<stop  offset="0.6134" style="stop-color:#82A0FF"/>
								<stop  offset="0.849" style="stop-color:#A3BEFF"/>
								<stop  offset="1" style="stop-color:#BCD5FF"/>
							</linearGradient>
							<polygon class="st13" points="301.93,63.47 300.66,64.2 299.84,63.73 301.93,62.52 314.74,69.91 313.92,70.39 							"/>
						</g>
						<g>
							<polygon class="st11" points="308.78,73.35 310.05,72.61 309.95,72.01 298.13,65.14 296.49,65.92 296.8,66.43 							"/>
							
								<linearGradient id="SVGID_7_" gradientUnits="userSpaceOnUse" x1="-1262.6573" y1="68.6785" x2="-1247.7585" y2="68.6785" gradientTransform="matrix(-1 0 0 1 -951.7842 0)">
								<stop  offset="0" style="stop-color:#5778FF"/>
								<stop  offset="0.1779" style="stop-color:#5C7DFF"/>
								<stop  offset="0.3876" style="stop-color:#6A8AFF"/>
								<stop  offset="0.6134" style="stop-color:#82A0FF"/>
								<stop  offset="0.849" style="stop-color:#A3BEFF"/>
								<stop  offset="1" style="stop-color:#BCD5FF"/>
							</linearGradient>
							<polygon class="st14" points="298.07,65.69 296.8,66.43 295.97,65.95 298.07,64.74 310.87,72.14 310.05,72.61 							"/>
						</g>
						<g>
							<polygon class="st11" points="304.91,75.57 306.19,74.84 306.08,74.24 294.26,67.36 292.62,68.14 292.93,68.65 							"/>
							
								<linearGradient id="SVGID_8_" gradientUnits="userSpaceOnUse" x1="-1258.7899" y1="70.9043" x2="-1243.8914" y2="70.9043" gradientTransform="matrix(-1 0 0 1 -951.7842 0)">
								<stop  offset="0" style="stop-color:#5778FF"/>
								<stop  offset="0.1779" style="stop-color:#5C7DFF"/>
								<stop  offset="0.3876" style="stop-color:#6A8AFF"/>
								<stop  offset="0.6134" style="stop-color:#82A0FF"/>
								<stop  offset="0.849" style="stop-color:#A3BEFF"/>
								<stop  offset="1" style="stop-color:#BCD5FF"/>
							</linearGradient>
							<polygon class="st15" points="294.2,67.92 292.93,68.65 292.11,68.18 294.2,66.97 307.01,74.36 306.18,74.84 							"/>
						</g>
					</g>
					<g>
						<g>
							<polygon class="st11" points="293.6,82.14 294.88,81.41 294.77,80.81 282.95,73.93 281.31,74.71 281.62,75.22 							"/>
							
								<linearGradient id="SVGID_9_" gradientUnits="userSpaceOnUse" x1="-1247.4805" y1="77.4752" x2="-1232.5818" y2="77.4752" gradientTransform="matrix(-1 0 0 1 -951.7842 0)">
								<stop  offset="0" style="stop-color:#5778FF"/>
								<stop  offset="0.1779" style="stop-color:#5C7DFF"/>
								<stop  offset="0.3876" style="stop-color:#6A8AFF"/>
								<stop  offset="0.6134" style="stop-color:#82A0FF"/>
								<stop  offset="0.849" style="stop-color:#A3BEFF"/>
								<stop  offset="1" style="stop-color:#BCD5FF"/>
							</linearGradient>
							<polygon class="st16" points="282.89,74.49 281.62,75.22 280.8,74.75 282.89,73.54 295.7,80.93 294.88,81.41 							"/>
						</g>
						<g>
							<polygon class="st11" points="289.74,84.37 291.01,83.63 290.9,83.04 279.09,76.16 277.45,76.94 277.75,77.45 							"/>
							
								<linearGradient id="SVGID_10_" gradientUnits="userSpaceOnUse" x1="-1243.6132" y1="79.701" x2="-1228.7145" y2="79.701" gradientTransform="matrix(-1 0 0 1 -951.7842 0)">
								<stop  offset="0" style="stop-color:#5778FF"/>
								<stop  offset="0.1779" style="stop-color:#5C7DFF"/>
								<stop  offset="0.3876" style="stop-color:#6A8AFF"/>
								<stop  offset="0.6134" style="stop-color:#82A0FF"/>
								<stop  offset="0.849" style="stop-color:#A3BEFF"/>
								<stop  offset="1" style="stop-color:#BCD5FF"/>
							</linearGradient>
							<polygon class="st17" points="279.02,76.72 277.75,77.45 276.93,76.98 279.02,75.77 291.83,83.16 291.01,83.63 							"/>
						</g>
						<g>
							<polygon class="st11" points="285.87,86.6 287.14,85.86 287.04,85.26 275.22,78.38 273.58,79.17 273.88,79.68 							"/>
							
								<linearGradient id="SVGID_11_" gradientUnits="userSpaceOnUse" x1="-1239.7458" y1="81.9268" x2="-1224.8472" y2="81.9268" gradientTransform="matrix(-1 0 0 1 -951.7842 0)">
								<stop  offset="0" style="stop-color:#5778FF"/>
								<stop  offset="0.1779" style="stop-color:#5C7DFF"/>
								<stop  offset="0.3876" style="stop-color:#6A8AFF"/>
								<stop  offset="0.6134" style="stop-color:#82A0FF"/>
								<stop  offset="0.849" style="stop-color:#A3BEFF"/>
								<stop  offset="1" style="stop-color:#BCD5FF"/>
							</linearGradient>
							<polygon class="st18" points="275.16,78.94 273.88,79.68 273.06,79.2 275.16,77.99 287.96,85.39 287.14,85.86 							"/>
						</g>
						<g>
							<polygon class="st11" points="282,88.82 283.28,88.08 283.17,87.49 271.35,80.61 269.71,81.39 270.02,81.9 							"/>
							
								<linearGradient id="SVGID_12_" gradientUnits="userSpaceOnUse" x1="-1235.8785" y1="84.1526" x2="-1220.9799" y2="84.1526" gradientTransform="matrix(-1 0 0 1 -951.7842 0)">
								<stop  offset="0" style="stop-color:#5778FF"/>
								<stop  offset="0.1779" style="stop-color:#5C7DFF"/>
								<stop  offset="0.3876" style="stop-color:#6A8AFF"/>
								<stop  offset="0.6134" style="stop-color:#82A0FF"/>
								<stop  offset="0.849" style="stop-color:#A3BEFF"/>
								<stop  offset="1" style="stop-color:#BCD5FF"/>
							</linearGradient>
							<polygon class="st19" points="271.29,81.17 270.02,81.9 269.2,81.43 271.29,80.22 284.09,87.61 283.27,88.09 							"/>
						</g>
					</g>
					<g>
						<g>
							<polygon class="st11" points="270.69,95.39 271.97,94.66 271.86,94.06 260.04,87.18 258.4,87.96 258.71,88.47 							"/>
							
								<linearGradient id="SVGID_13_" gradientUnits="userSpaceOnUse" x1="-1224.5691" y1="90.7235" x2="-1209.6704" y2="90.7235" gradientTransform="matrix(-1 0 0 1 -951.7842 0)">
								<stop  offset="0" style="stop-color:#5778FF"/>
								<stop  offset="0.1779" style="stop-color:#5C7DFF"/>
								<stop  offset="0.3876" style="stop-color:#6A8AFF"/>
								<stop  offset="0.6134" style="stop-color:#82A0FF"/>
								<stop  offset="0.849" style="stop-color:#A3BEFF"/>
								<stop  offset="1" style="stop-color:#BCD5FF"/>
							</linearGradient>
							<polygon class="st20" points="259.98,87.74 258.71,88.47 257.89,88 259.98,86.79 272.78,94.18 271.96,94.66 							"/>
						</g>
						<g>
							<polygon class="st11" points="266.82,97.62 268.1,96.88 267.99,96.28 256.17,89.41 254.53,90.19 254.84,90.7 							"/>
							
								<linearGradient id="SVGID_14_" gradientUnits="userSpaceOnUse" x1="-1220.7017" y1="92.9494" x2="-1205.8031" y2="92.9494" gradientTransform="matrix(-1 0 0 1 -951.7842 0)">
								<stop  offset="0" style="stop-color:#5778FF"/>
								<stop  offset="0.1779" style="stop-color:#5C7DFF"/>
								<stop  offset="0.3876" style="stop-color:#6A8AFF"/>
								<stop  offset="0.6134" style="stop-color:#82A0FF"/>
								<stop  offset="0.849" style="stop-color:#A3BEFF"/>
								<stop  offset="1" style="stop-color:#BCD5FF"/>
							</linearGradient>
							<polygon class="st21" points="256.11,89.96 254.84,90.7 254.02,90.22 256.11,89.02 268.92,96.41 268.1,96.88 							"/>
						</g>
						<g>
							<polygon class="st11" points="262.96,99.84 264.23,99.11 264.13,98.51 252.31,91.63 250.67,92.41 250.97,92.92 							"/>
							
								<linearGradient id="SVGID_15_" gradientUnits="userSpaceOnUse" x1="-1216.8344" y1="95.1752" x2="-1201.9358" y2="95.1752" gradientTransform="matrix(-1 0 0 1 -951.7842 0)">
								<stop  offset="0" style="stop-color:#5778FF"/>
								<stop  offset="0.1779" style="stop-color:#5C7DFF"/>
								<stop  offset="0.3876" style="stop-color:#6A8AFF"/>
								<stop  offset="0.6134" style="stop-color:#82A0FF"/>
								<stop  offset="0.849" style="stop-color:#A3BEFF"/>
								<stop  offset="1" style="stop-color:#BCD5FF"/>
							</linearGradient>
							<polygon class="st22" points="252.24,92.19 250.97,92.92 250.15,92.45 252.24,91.24 265.05,98.63 264.23,99.11 							"/>
						</g>
						<g>
							<polygon class="st11" points="259.09,102.07 260.36,101.33 260.26,100.74 248.44,93.86 246.8,94.64 247.11,95.15 							"/>
							
								<linearGradient id="SVGID_16_" gradientUnits="userSpaceOnUse" x1="-1212.967" y1="97.401" x2="-1198.0685" y2="97.401" gradientTransform="matrix(-1 0 0 1 -951.7842 0)">
								<stop  offset="0" style="stop-color:#5778FF"/>
								<stop  offset="0.1779" style="stop-color:#5C7DFF"/>
								<stop  offset="0.3876" style="stop-color:#6A8AFF"/>
								<stop  offset="0.6134" style="stop-color:#82A0FF"/>
								<stop  offset="0.849" style="stop-color:#A3BEFF"/>
								<stop  offset="1" style="stop-color:#BCD5FF"/>
							</linearGradient>
							<polygon class="st23" points="248.38,94.42 247.11,95.15 246.28,94.68 248.38,93.47 261.18,100.86 260.36,101.33 							"/>
						</g>
					</g>
				</g>
			</g>
			<path class="st6" d="M254.96,225.97c-0.26,0-0.51-0.07-0.75-0.2L217.9,204.8c-0.99-0.57-1.6-1.63-1.6-2.77v-50.26
				c0-0.54,0.28-1.02,0.75-1.29c0.47-0.27,1.03-0.27,1.49,0l36.31,20.96c0.99,0.57,1.6,1.63,1.6,2.77v50.26
				c0,0.54-0.28,1.02-0.75,1.29C255.47,225.9,255.22,225.97,254.96,225.97z M218.33,204.06l36.31,20.96c0.2,0.12,0.44,0.12,0.64,0
				c0.2-0.12,0.32-0.32,0.32-0.55v-50.26c0-0.84-0.45-1.62-1.17-2.04l-36.31-20.96c-0.2-0.12-0.44-0.12-0.64,0
				c-0.2,0.12-0.32,0.32-0.32,0.56v50.26C217.15,202.87,217.6,203.65,218.33,204.06L218.33,204.06z"/>
		</g>
		<g>
			
				<linearGradient id="SVGID_17_" gradientUnits="userSpaceOnUse" x1="-1227.4581" y1="128.8773" x2="-1223.6429" y2="128.8773" gradientTransform="matrix(-1 0 0 1 -951.7842 0)">
				<stop  offset="0" style="stop-color:#C0D6FF"/>
				<stop  offset="0.2978" style="stop-color:#C5DBFF"/>
				<stop  offset="0.6488" style="stop-color:#D3E9FF"/>
				<stop  offset="1" style="stop-color:#E9FFFF"/>
			</linearGradient>
			<path class="st24" d="M271.86,129.52c0-1.01,0.71-2.23,1.58-2.73c0.44-0.25,0.83-0.28,1.12-0.11l0,0l1.12,0.65l-0.69,0.02
				c0.02,0.1,0.03,0.22,0.03,0.34c0,1.01-0.71,2.23-1.58,2.73c-0.12,0.07-0.23,0.12-0.34,0.15l0.32,0.6l-1.09-0.64l0,0
				C272.04,130.38,271.86,130.03,271.86,129.52z"/>
			
				<linearGradient id="SVGID_18_" gradientUnits="userSpaceOnUse" x1="-1227.9225" y1="129.2661" x2="-1224.7675" y2="129.2661" gradientTransform="matrix(-1 0 0 1 -951.7842 0)">
				<stop  offset="0" style="stop-color:#5778FF"/>
				<stop  offset="0.1779" style="stop-color:#5C7DFF"/>
				<stop  offset="0.3876" style="stop-color:#6A8AFF"/>
				<stop  offset="0.6134" style="stop-color:#82A0FF"/>
				<stop  offset="0.849" style="stop-color:#A3BEFF"/>
				<stop  offset="1" style="stop-color:#BCD5FF"/>
			</linearGradient>
			<path class="st25" d="M272.98,130.18c0,1.01,0.71,1.41,1.58,0.91c0.87-0.5,1.58-1.73,1.58-2.73c0-1.01-0.71-1.41-1.58-0.91
				C273.69,127.95,272.98,129.17,272.98,130.18z"/>
			<path class="st11" d="M273.65,129.79c0,0.58,0.41,0.81,0.91,0.52c0.5-0.29,0.91-0.99,0.91-1.57c0-0.58-0.41-0.81-0.91-0.52
				C274.06,128.51,273.65,129.21,273.65,129.79z"/>
		</g>
		<g>
			
				<linearGradient id="SVGID_19_" gradientUnits="userSpaceOnUse" x1="-1305.4696" y1="84.0928" x2="-1301.6545" y2="84.0928" gradientTransform="matrix(-1 0 0 1 -951.7842 0)">
				<stop  offset="0" style="stop-color:#C0D6FF"/>
				<stop  offset="0.2978" style="stop-color:#C5DBFF"/>
				<stop  offset="0.6488" style="stop-color:#D3E9FF"/>
				<stop  offset="1" style="stop-color:#E9FFFF"/>
			</linearGradient>
			<path class="st26" d="M349.87,84.73c0-1.01,0.71-2.23,1.58-2.73c0.44-0.25,0.83-0.28,1.12-0.11l0,0l1.12,0.65l-0.69,0.02
				c0.02,0.1,0.03,0.22,0.03,0.34c0,1.01-0.71,2.23-1.58,2.73c-0.12,0.07-0.23,0.12-0.34,0.15l0.32,0.6l-1.09-0.64l0,0
				C350.05,85.6,349.87,85.24,349.87,84.73z"/>
			
				<linearGradient id="SVGID_20_" gradientUnits="userSpaceOnUse" x1="-1305.934" y1="84.4814" x2="-1302.7789" y2="84.4814" gradientTransform="matrix(-1 0 0 1 -951.7842 0)">
				<stop  offset="0" style="stop-color:#5778FF"/>
				<stop  offset="0.1779" style="stop-color:#5C7DFF"/>
				<stop  offset="0.3876" style="stop-color:#6A8AFF"/>
				<stop  offset="0.6134" style="stop-color:#82A0FF"/>
				<stop  offset="0.849" style="stop-color:#A3BEFF"/>
				<stop  offset="1" style="stop-color:#BCD5FF"/>
			</linearGradient>
			<path class="st27" d="M350.99,85.39c0,1.01,0.71,1.41,1.58,0.91c0.87-0.5,1.58-1.73,1.58-2.73c0-1.01-0.71-1.41-1.58-0.91
				C351.7,83.16,350.99,84.39,350.99,85.39z"/>
			<path class="st11" d="M351.66,85.01c0,0.58,0.41,0.81,0.91,0.52c0.5-0.29,0.91-0.99,0.91-1.57c0-0.58-0.41-0.81-0.91-0.52
				C352.07,83.72,351.66,84.43,351.66,85.01z"/>
		</g>
		<g>
			
				<linearGradient id="SVGID_21_" gradientUnits="userSpaceOnUse" x1="-1227.4581" y1="280.5487" x2="-1223.6429" y2="280.5487" gradientTransform="matrix(-1 0 0 1 -951.7842 0)">
				<stop  offset="0" style="stop-color:#C0D6FF"/>
				<stop  offset="0.2978" style="stop-color:#C5DBFF"/>
				<stop  offset="0.6488" style="stop-color:#D3E9FF"/>
				<stop  offset="1" style="stop-color:#E9FFFF"/>
			</linearGradient>
			<path class="st28" d="M271.86,281.19c0-1.01,0.71-2.23,1.58-2.73c0.44-0.25,0.83-0.28,1.12-0.11l0,0l1.12,0.65h0
				c-0.29-0.16-0.68-0.14-1.11,0.11c-0.87,0.5-1.58,1.73-1.58,2.73c0,0.48,0.17,0.82,0.43,1l0.01,0.01l-1.09-0.64l0,0
				C272.04,282.05,271.86,281.7,271.86,281.19z"/>
			
				<linearGradient id="SVGID_22_" gradientUnits="userSpaceOnUse" x1="-1227.9225" y1="280.9879" x2="-1224.7675" y2="280.9879" gradientTransform="matrix(-1 0 0 1 -951.7842 0)">
				<stop  offset="0" style="stop-color:#5778FF"/>
				<stop  offset="0.1779" style="stop-color:#5C7DFF"/>
				<stop  offset="0.3876" style="stop-color:#6A8AFF"/>
				<stop  offset="0.6134" style="stop-color:#82A0FF"/>
				<stop  offset="0.849" style="stop-color:#A3BEFF"/>
				<stop  offset="1" style="stop-color:#BCD5FF"/>
			</linearGradient>
			<path class="st29" d="M273.44,282.1c0.11-0.06,0.22-0.14,0.32-0.22c0.15,0.25,0.45,0.31,0.8,0.11c0.5-0.29,0.91-0.99,0.91-1.57
				c0-0.4-0.2-0.63-0.49-0.64c0.02-0.14,0.04-0.27,0.04-0.4c0-0.12-0.01-0.24-0.03-0.34l0.69-0.02c0.29,0.16,0.47,0.52,0.47,1.02
				c0,1.01-0.71,2.23-1.58,2.73c-0.45,0.26-0.86,0.27-1.15,0.09l-0.32-0.59C273.21,282.22,273.32,282.17,273.44,282.1z"/>
			
				<linearGradient id="SVGID_23_" gradientUnits="userSpaceOnUse" x1="-1227.457" y1="280.8729" x2="-1223.6418" y2="280.8729" gradientTransform="matrix(-1 0 0 1 -951.7842 0)">
				<stop  offset="0" style="stop-color:#C0D6FF"/>
				<stop  offset="0.2978" style="stop-color:#C5DBFF"/>
				<stop  offset="0.6488" style="stop-color:#D3E9FF"/>
				<stop  offset="1" style="stop-color:#E9FFFF"/>
			</linearGradient>
			<path class="st30" d="M272.98,281.85c0-1.01,0.71-2.23,1.58-2.73c0.43-0.25,0.83-0.27,1.11-0.11l-0.69,0.02
				c0.02,0.1,0.03,0.22,0.03,0.34c0,0.13-0.01,0.27-0.04,0.4c-0.13,0-0.27,0.03-0.42,0.12c-0.5,0.29-0.91,0.99-0.91,1.57
				c0,0.17,0.04,0.31,0.1,0.42c-0.1,0.08-0.21,0.16-0.32,0.22c-0.12,0.07-0.23,0.12-0.34,0.15l0.32,0.59
				C273.15,282.67,272.98,282.33,272.98,281.85z"/>
			
				<linearGradient id="SVGID_24_" gradientUnits="userSpaceOnUse" x1="-1227.9225" y1="280.8729" x2="-1224.7675" y2="280.8729" gradientTransform="matrix(-1 0 0 1 -951.7842 0)">
				<stop  offset="0" style="stop-color:#5778FF"/>
				<stop  offset="0.1779" style="stop-color:#5C7DFF"/>
				<stop  offset="0.3876" style="stop-color:#6A8AFF"/>
				<stop  offset="0.6134" style="stop-color:#82A0FF"/>
				<stop  offset="0.849" style="stop-color:#A3BEFF"/>
				<stop  offset="1" style="stop-color:#BCD5FF"/>
			</linearGradient>
			<path class="st31" d="M272.98,281.85c0-1.01,0.71-2.23,1.58-2.73c0.43-0.25,0.83-0.27,1.11-0.11l-0.69,0.02
				c0.02,0.1,0.03,0.22,0.03,0.34c0,0.13-0.01,0.27-0.04,0.4c-0.13,0-0.27,0.03-0.42,0.12c-0.5,0.29-0.91,0.99-0.91,1.57
				c0,0.17,0.04,0.31,0.1,0.42c-0.1,0.08-0.21,0.16-0.32,0.22c-0.12,0.07-0.23,0.12-0.34,0.15l0.32,0.59
				C273.15,282.67,272.98,282.33,272.98,281.85z"/>
			<path class="st11" d="M275.47,280.41c0,0.58-0.41,1.28-0.91,1.57c-0.35,0.2-0.65,0.14-0.8-0.11c0.61-0.5,1.09-1.33,1.22-2.11
				C275.27,279.78,275.47,280.01,275.47,280.41z"/>
			<path class="st11" d="M273.76,281.88c-0.06-0.11-0.1-0.24-0.1-0.42c0-0.58,0.41-1.28,0.91-1.57c0.15-0.09,0.29-0.12,0.42-0.12
				C274.85,280.55,274.37,281.38,273.76,281.88z"/>
			
				<linearGradient id="SVGID_25_" gradientUnits="userSpaceOnUse" x1="-1305.4696" y1="235.7641" x2="-1301.6545" y2="235.7641" gradientTransform="matrix(-1 0 0 1 -951.7842 0)">
				<stop  offset="0" style="stop-color:#C0D6FF"/>
				<stop  offset="0.2978" style="stop-color:#C5DBFF"/>
				<stop  offset="0.6488" style="stop-color:#D3E9FF"/>
				<stop  offset="1" style="stop-color:#E9FFFF"/>
			</linearGradient>
			<path class="st32" d="M351.45,233.67c0.44-0.25,0.83-0.28,1.12-0.11l0,0l1.12,0.65h0c-0.29-0.16-0.68-0.14-1.11,0.11
				c-0.87,0.5-1.58,1.73-1.58,2.73c0,0.48,0.17,0.82,0.43,1l0.01,0.01l-1.09-0.64l0,0c-0.29-0.16-0.47-0.52-0.47-1.02
				C349.87,235.4,350.58,234.18,351.45,233.67z"/>
			
				<linearGradient id="SVGID_26_" gradientUnits="userSpaceOnUse" x1="-1305.934" y1="236.2032" x2="-1302.7789" y2="236.2032" gradientTransform="matrix(-1 0 0 1 -951.7842 0)">
				<stop  offset="0" style="stop-color:#5778FF"/>
				<stop  offset="0.1779" style="stop-color:#5C7DFF"/>
				<stop  offset="0.3876" style="stop-color:#6A8AFF"/>
				<stop  offset="0.6134" style="stop-color:#82A0FF"/>
				<stop  offset="0.849" style="stop-color:#A3BEFF"/>
				<stop  offset="1" style="stop-color:#BCD5FF"/>
			</linearGradient>
			<path class="st33" d="M351.45,237.32c0.11-0.06,0.22-0.14,0.32-0.22c0.15,0.25,0.45,0.31,0.8,0.11c0.5-0.29,0.91-0.99,0.91-1.57
				c0-0.4-0.2-0.63-0.49-0.64c0.02-0.14,0.04-0.27,0.04-0.4c0-0.12-0.01-0.24-0.03-0.34l0.69-0.02c0.29,0.16,0.47,0.52,0.47,1.02
				c0,1.01-0.71,2.23-1.58,2.73c-0.45,0.26-0.86,0.27-1.15,0.09l-0.32-0.59C351.22,237.43,351.33,237.38,351.45,237.32z"/>
			
				<linearGradient id="SVGID_27_" gradientUnits="userSpaceOnUse" x1="-1305.4685" y1="236.0882" x2="-1301.6533" y2="236.0882" gradientTransform="matrix(-1 0 0 1 -951.7842 0)">
				<stop  offset="0" style="stop-color:#C0D6FF"/>
				<stop  offset="0.2978" style="stop-color:#C5DBFF"/>
				<stop  offset="0.6488" style="stop-color:#D3E9FF"/>
				<stop  offset="1" style="stop-color:#E9FFFF"/>
			</linearGradient>
			<path class="st34" d="M350.99,237.06c0-1.01,0.71-2.23,1.58-2.73c0.43-0.25,0.83-0.27,1.11-0.11l-0.69,0.02
				c0.02,0.1,0.03,0.22,0.03,0.34c0,0.13-0.01,0.27-0.04,0.4c-0.13,0-0.27,0.03-0.42,0.12c-0.5,0.29-0.91,0.99-0.91,1.57
				c0,0.17,0.04,0.31,0.1,0.42c-0.1,0.08-0.21,0.16-0.32,0.22c-0.12,0.07-0.23,0.12-0.34,0.15l0.32,0.59
				C351.16,237.89,350.99,237.55,350.99,237.06z"/>
			
				<linearGradient id="SVGID_28_" gradientUnits="userSpaceOnUse" x1="-1305.934" y1="236.0882" x2="-1302.7789" y2="236.0882" gradientTransform="matrix(-1 0 0 1 -951.7842 0)">
				<stop  offset="0" style="stop-color:#5778FF"/>
				<stop  offset="0.1779" style="stop-color:#5C7DFF"/>
				<stop  offset="0.3876" style="stop-color:#6A8AFF"/>
				<stop  offset="0.6134" style="stop-color:#82A0FF"/>
				<stop  offset="0.849" style="stop-color:#A3BEFF"/>
				<stop  offset="1" style="stop-color:#BCD5FF"/>
			</linearGradient>
			<path class="st35" d="M350.99,237.06c0-1.01,0.71-2.23,1.58-2.73c0.43-0.25,0.83-0.27,1.11-0.11l-0.69,0.02
				c0.02,0.1,0.03,0.22,0.03,0.34c0,0.13-0.01,0.27-0.04,0.4c-0.13,0-0.27,0.03-0.42,0.12c-0.5,0.29-0.91,0.99-0.91,1.57
				c0,0.17,0.04,0.31,0.1,0.42c-0.1,0.08-0.21,0.16-0.32,0.22c-0.12,0.07-0.23,0.12-0.34,0.15l0.32,0.59
				C351.16,237.89,350.99,237.55,350.99,237.06z"/>
			<path class="st11" d="M353.48,235.63c0,0.58-0.41,1.28-0.91,1.57c-0.35,0.2-0.65,0.14-0.8-0.11c0.61-0.5,1.09-1.33,1.22-2.11
				C353.28,234.99,353.48,235.22,353.48,235.63z"/>
			<path class="st11" d="M351.77,237.09c-0.06-0.11-0.1-0.24-0.1-0.42c0-0.58,0.41-1.28,0.91-1.57c0.15-0.09,0.29-0.12,0.42-0.12
				C352.86,235.76,352.38,236.6,351.77,237.09z"/>
		</g>
		<defs>
			<filter id="Adobe_OpacityMaskFilter" filterUnits="userSpaceOnUse" x="213.71" y="94.65" width="52.68" height="30.25">
				<feFlood  style="flood-color:white;flood-opacity:1" result="back"/>
				<feBlend  in="SourceGraphic" in2="back" mode="normal"/>
			</filter>
		</defs>
		<mask maskUnits="userSpaceOnUse" x="213.71" y="94.65" width="52.68" height="30.25" id="SVGID_29_">
			<g class="st36">
				<defs>
					<filter id="Adobe_OpacityMaskFilter_1_" filterUnits="userSpaceOnUse" x="213.71" y="94.65" width="52.68" height="30.25">
						<feFlood  style="flood-color:white;flood-opacity:1" result="back"/>
						<feBlend  in="SourceGraphic" in2="back" mode="normal"/>
					</filter>
				</defs>
				<mask maskUnits="userSpaceOnUse" x="213.71" y="94.65" width="52.68" height="30.25" id="SVGID_29_">
					<g class="st37">
					</g>
				</mask>
				<linearGradient id="SVGID_30_" gradientUnits="userSpaceOnUse" x1="235.9458" y1="115.764" x2="252.2059" y2="92.0322">
					<stop  offset="0" style="stop-color:#000000"/>
					<stop  offset="0.0469" style="stop-color:#2F2F2F"/>
					<stop  offset="0.0981" style="stop-color:#5A5A5A"/>
					<stop  offset="0.155" style="stop-color:#828282"/>
					<stop  offset="0.2161" style="stop-color:#A4A4A4"/>
					<stop  offset="0.2828" style="stop-color:#C0C0C0"/>
					<stop  offset="0.3571" style="stop-color:#D7D7D7"/>
					<stop  offset="0.442" style="stop-color:#E9E9E9"/>
					<stop  offset="0.5443" style="stop-color:#F6F6F6"/>
					<stop  offset="0.6813" style="stop-color:#FDFDFD"/>
					<stop  offset="1" style="stop-color:#FFFFFF"/>
				</linearGradient>
				<polygon class="st38" points="219.74,94.65 213.71,97.96 260.36,124.9 266.39,121.58 				"/>
			</g>
		</mask>
		<linearGradient id="SVGID_31_" gradientUnits="userSpaceOnUse" x1="235.9458" y1="115.764" x2="252.2059" y2="92.0322">
			<stop  offset="0" style="stop-color:#E9FFFF"/>
			<stop  offset="0.0374" style="stop-color:#D3EBFF"/>
			<stop  offset="0.1056" style="stop-color:#B2CCFF"/>
			<stop  offset="0.1817" style="stop-color:#96B2FF"/>
			<stop  offset="0.2663" style="stop-color:#7F9DFF"/>
			<stop  offset="0.3632" style="stop-color:#6D8CFF"/>
			<stop  offset="0.4798" style="stop-color:#6081FF"/>
			<stop  offset="0.6363" style="stop-color:#597AFF"/>
			<stop  offset="1" style="stop-color:#5778FF"/>
		</linearGradient>
		<polygon class="st39" points="219.74,94.65 213.71,97.96 260.36,124.9 266.39,121.58 		"/>
	</g>
	<g>
		<g>
			
				<linearGradient id="SVGID_32_" gradientUnits="userSpaceOnUse" x1="-1476.6771" y1="273.3218" x2="-1438.8369" y2="205.1851" gradientTransform="matrix(1 0 0 1 1768.3066 0)">
				<stop  offset="0" style="stop-color:#5778FF"/>
				<stop  offset="0.0398" style="stop-color:#5C7DFF"/>
				<stop  offset="0.0867" style="stop-color:#6A8AFF"/>
				<stop  offset="0.1372" style="stop-color:#82A0FF"/>
				<stop  offset="0.1899" style="stop-color:#A3BEFF"/>
				<stop  offset="0.2237" style="stop-color:#BCD5FF"/>
			</linearGradient>
			<path class="st40" d="M355.41,208.97l-5.71-3.29v0c-0.08-0.05-0.17-0.05-0.29,0.01l-71.52,41.29c-0.23,0.13-0.42,0.5-0.42,0.81
				v13.5c0,0.15,0.05,0.26,0.12,0.32l0,0l0,0c0.01,0,0.01,0.01,0.02,0.01l5.77,3.32l0.05-6.52l66-38.1c0.23-0.13,0.42-0.5,0.42-0.81
				v-4.63L355.41,208.97z"/>
			
				<linearGradient id="SVGID_33_" gradientUnits="userSpaceOnUse" x1="-1430.1908" y1="273.5635" x2="-1455.3773" y2="224.3268" gradientTransform="matrix(1 0 0 1 1768.3066 0)">
				<stop  offset="0" style="stop-color:#C0D6FF"/>
				<stop  offset="0.2978" style="stop-color:#C5DBFF"/>
				<stop  offset="0.6488" style="stop-color:#D3E9FF"/>
				<stop  offset="1" style="stop-color:#E9FFFF"/>
			</linearGradient>
			<path class="st41" d="M355.16,223.63l-71.52,41.29c-0.23,0.13-0.42-0.01-0.42-0.32v-13.5c0-0.31,0.19-0.67,0.42-0.81L355.16,209
				c0.23-0.13,0.42,0.01,0.42,0.32v13.5C355.58,223.13,355.39,223.5,355.16,223.63z"/>
			<path class="st42" d="M345.29,220.9l-55.69,32.75c1.72,1.48,3.35,3.18,4.85,5.04l56.1-32.39
				C348.93,224.28,347.16,222.46,345.29,220.9z"/>
			<path class="st2" d="M353.11,219.58l-67.44,38.94c-0.16,0.09-0.29-0.01-0.29-0.22v-3.39c0-0.21,0.13-0.46,0.29-0.55l67.44-38.94
				c0.16-0.09,0.29,0.01,0.29,0.22v3.39C353.4,219.24,353.27,219.48,353.11,219.58z"/>
			<path class="st0" d="M353.11,215.41l-1.37,0.79v1.83c0,0.21-0.13,0.46-0.29,0.55l-66.07,38.15v1.56c0,0.21,0.13,0.31,0.29,0.22
				l67.44-38.94c0.16-0.09,0.29-0.34,0.29-0.55v-3.39C353.4,215.42,353.27,215.32,353.11,215.41z"/>
		</g>
		
			<linearGradient id="SVGID_34_" gradientUnits="userSpaceOnUse" x1="-1382.3729" y1="329.7614" x2="-1442.5872" y2="223.0672" gradientTransform="matrix(1 0 0 1 1768.3066 0)">
			<stop  offset="0" style="stop-color:#C0D6FF"/>
			<stop  offset="0.1212" style="stop-color:#D6ECFF"/>
			<stop  offset="0.2117" style="stop-color:#E9FFFF"/>
			<stop  offset="0.2475" style="stop-color:#E3F9FF"/>
			<stop  offset="0.4139" style="stop-color:#C9DFFF"/>
			<stop  offset="0.5143" style="stop-color:#C0D6FF"/>
			<stop  offset="0.6239" style="stop-color:#D0E6FF"/>
			<stop  offset="0.755" style="stop-color:#E9FFFF"/>
			<stop  offset="1" style="stop-color:#C0D6FF"/>
		</linearGradient>
		<path class="st43" d="M425.84,302.77l-42.4-24.48c-11.81-6.82-19.46-19.09-20.27-32.7c-0.68-11.49-9.37-22.8-16.11-26.69v0
			l-56.11,32.39l0,0c6.64,3.84,13.96,14.56,14.79,25.85c1,13.61,8.41,25.93,20.23,32.75l43.76,25.26L425.84,302.77z"/>
		<path class="st44" d="M347.07,218.9l-56.11,32.39c0.45,0.26,0.89,0.54,1.34,0.83l0,0l56.1-32.39
			C347.96,219.44,347.52,219.16,347.07,218.9z"/>
	</g>
	<g class="st45">
		<polygon class="st0" points="324.84,256.53 313.8,262.93 313.71,261.66 324.73,255.28 		"/>
		<polygon class="st0" points="330.41,253.3 326.51,255.56 326.4,254.32 330.29,252.07 		"/>
		<polygon class="st0" points="334.68,250.82 332.06,252.35 331.94,251.12 334.56,249.6 		"/>
		<polygon class="st0" points="320.08,262.32 314,265.86 313.91,264.57 319.98,261.05 		"/>
		<polygon class="st0" points="329.08,257.07 321.77,261.33 321.66,260.07 328.97,255.82 		"/>
		<polygon class="st0" points="333.38,254.56 330.74,256.1 330.62,254.86 333.26,253.32 		"/>
		<polygon class="st0" points="337.44,252.2 334.82,253.73 334.7,252.49 337.31,250.97 		"/>
		<polygon class="st0" points="318.63,266.22 314.21,268.81 314.12,267.51 318.53,264.94 		"/>
		<polygon class="st0" points="321.83,264.35 320.33,265.22 320.23,263.94 321.72,263.07 		"/>
		<polygon class="st0" points="326.21,261.78 323.52,263.36 323.41,262.08 326.1,260.51 		"/>
		<polygon class="st0" points="330.6,262.26 314.42,271.79 314.33,270.48 330.48,260.99 		"/>
		<polygon class="st0" points="336.18,258.97 332.27,261.27 332.15,260.01 336.05,257.72 		"/>
		<polygon class="st0" points="319.08,272.15 314.63,274.79 314.54,273.47 318.98,270.84 		"/>
		<polygon class="st0" points="329.38,266.05 320.8,271.14 320.7,269.83 329.27,264.77 		"/>
		<polygon class="st0" points="333.74,263.47 331.06,265.06 330.94,263.78 333.62,262.2 		"/>
		<polygon class="st0" points="323.95,272.39 314.84,277.82 314.75,276.49 323.84,271.09 		"/>
		<polygon class="st0" points="332.12,267.53 325.66,271.38 325.55,270.08 331.99,266.25 		"/>
		<polygon class="st0" points="338.1,263.97 333.8,266.53 333.67,265.25 337.97,262.7 		"/>
		<polygon class="st0" points="318.16,279.01 315.06,280.87 314.96,279.53 318.07,277.68 		"/>
		<polygon class="st0" points="323.96,275.54 319.9,277.97 319.8,276.65 323.85,274.22 		"/>
		<polygon class="st0" points="332.13,270.65 325.68,274.52 325.56,273.2 332.01,269.35 		"/>
		<polygon class="st0" points="324.77,278.24 315.27,283.95 315.18,282.6 324.66,276.91 		"/>
		<polygon class="st0" points="335.19,271.96 326.49,277.2 326.38,275.88 335.06,270.66 		"/>
		<polygon class="st0" points="339.56,269.34 336.88,270.95 336.74,269.65 339.42,268.05 		"/>
		<polygon class="st0" points="343.71,266.84 341.05,268.44 340.91,267.15 343.56,265.56 		"/>
		<polygon class="st0" points="321.23,283.59 315.49,287.06 315.4,285.7 321.12,282.24 		"/>
		<polygon class="st0" points="346.5,243.98 353.69,239.81 353.53,238.63 346.36,242.78 		"/>
		<polygon class="st0" points="348.39,245.82 354.04,242.53 353.89,241.33 348.24,244.62 		"/>
		<polygon class="st0" points="350.3,247.66 354.41,245.26 354.25,244.06 350.15,246.45 		"/>
		<polygon class="st0" points="348.77,251.55 354.77,248.02 354.61,246.81 348.62,250.33 		"/>
		<polygon class="st0" points="351.01,253.25 355.14,250.8 354.98,249.58 350.85,252.02 		"/>
		<polygon class="st0" points="350.24,256.74 355.51,253.61 355.35,252.38 350.09,255.5 		"/>
		<polygon class="st0" points="353.01,258.15 355.88,256.43 355.72,255.19 352.85,256.91 		"/>
		<polygon class="st0" points="350.66,262.66 356.26,259.29 356.09,258.03 350.5,261.39 		"/>
		<polygon class="st0" points="351.31,265.38 356.64,262.16 356.47,260.9 351.16,264.11 		"/>
		<polygon class="st0" points="325.38,281.08 322.97,282.54 322.86,281.19 325.26,279.74 		"/>
		<polygon class="st0" points="332.47,276.79 327.1,280.04 326.99,278.7 332.34,275.47 		"/>
	</g>
	<g>
		<polygon class="st46" points="338.01,103.03 347.7,97.44 347.7,95.31 338.01,100.9 		"/>
		<polygon class="st46" points="333.04,105.9 336.53,103.89 336.53,101.76 333.04,103.77 		"/>
		<polygon class="st46" points="329.19,108.12 331.56,106.76 331.56,104.63 329.19,106 		"/>
		<polygon class="st46" points="342.42,105.35 347.7,102.3 347.7,100.17 342.42,103.22 		"/>
		<polygon class="st46" points="334.47,109.94 340.94,106.2 340.94,104.07 334.47,107.81 		"/>
		<polygon class="st46" points="330.62,112.16 332.99,110.79 332.99,108.66 330.62,110.03 		"/>
		<polygon class="st46" points="326.96,114.27 329.33,112.91 329.33,110.78 326.96,112.15 		"/>
		<polygon class="st47" points="343.88,109.36 347.7,107.16 347.7,105.03 343.88,107.24 		"/>
		<polygon class="st47" points="341.09,110.97 342.4,110.22 342.4,108.09 341.09,108.84 		"/>
		<polygon class="st46" points="337.24,113.2 339.61,111.83 339.61,109.7 337.24,111.07 		"/>
		<polygon class="st46" points="333.6,120.16 347.7,112.02 347.7,109.89 333.6,118.03 		"/>
		<polygon class="st46" points="328.63,123.03 332.12,121.01 332.12,118.88 328.63,120.9 		"/>
		<polygon class="st46" points="343.88,119.08 347.7,116.88 347.7,114.75 343.88,116.96 		"/>
		<polygon class="st46" points="334.91,124.26 342.4,119.94 342.4,117.81 334.91,122.13 		"/>
		<polygon class="st46" points="331.06,126.48 333.43,125.11 333.43,122.99 331.06,124.35 		"/>
		<polygon class="st46" points="339.88,126.25 347.7,121.74 347.7,119.61 339.88,124.12 		"/>
		<polygon class="st47" points="332.75,130.37 338.4,127.1 338.4,124.98 332.75,128.24 		"/>
		<polygon class="st46" points="327.45,133.43 331.27,131.22 331.27,129.09 327.45,131.3 		"/>
		<polygon class="st46" points="345.06,128.12 347.7,126.6 347.7,124.47 345.06,125.99 		"/>
		<polygon class="st46" points="340.09,130.99 343.58,128.98 343.58,126.85 340.09,128.86 		"/>
		<polygon class="st46" points="332.99,135.09 338.61,131.85 338.61,129.72 332.99,132.96 		"/>
		<polygon class="st46" points="339.61,136.13 347.7,131.46 347.7,129.33 339.61,134 		"/>
		<polygon class="st46" points="330.56,141.35 338.13,136.98 338.13,134.85 330.56,139.23 		"/>
		<polygon class="st47" points="326.71,143.58 329.08,142.21 329.08,140.08 326.71,141.45 		"/>
		<polygon class="st46" points="323.01,145.71 325.38,144.34 325.38,142.21 323.01,143.58 		"/>
		<polygon class="st46" points="342.85,139.11 347.7,136.32 347.7,134.19 342.85,136.99 		"/>
		<polygon class="st47" points="322.6,111.93 315.88,115.81 315.88,113.68 322.6,109.8 		"/>
		<polygon class="st46" points="321.16,117.62 315.88,120.67 315.88,118.54 321.16,115.49 		"/>
		<polygon class="st46" points="319.7,123.32 315.88,125.53 315.88,123.4 319.7,121.2 		"/>
		<polygon class="st46" points="321.43,127.18 315.88,130.39 315.88,128.26 321.43,125.05 		"/>
		<polygon class="st46" points="319.7,133.04 315.88,135.25 315.88,133.12 319.7,130.92 		"/>
		<polygon class="st46" points="320.72,137.31 315.88,140.11 315.88,137.98 320.72,135.19 		"/>
		<polygon class="st46" points="318.52,143.45 315.88,144.97 315.88,142.84 318.52,141.32 		"/>
		<polygon class="st46" points="320.99,146.88 315.88,149.83 315.88,147.7 320.99,144.75 		"/>
		<polygon class="st46" points="320.72,151.89 315.88,154.69 315.88,152.56 320.72,149.76 		"/>
		<polygon class="st46" points="339.31,141.16 341.37,139.97 341.37,137.84 339.31,139.03 		"/>
		<polygon class="st46" points="333.2,144.69 337.83,142.01 337.83,139.89 333.2,142.56 		"/>
		<polygon class="st46" points="300.44,124.64 310.13,119.04 310.13,116.92 300.44,122.51 		"/>
		<polygon class="st46" points="295.47,127.51 298.96,125.49 298.96,123.37 295.47,125.38 		"/>
		<polygon class="st47" points="291.62,129.73 293.99,128.36 293.99,126.23 291.62,127.6 		"/>
		<polygon class="st46" points="304.85,126.95 310.13,123.9 310.13,121.78 304.85,124.82 		"/>
		<polygon class="st46" points="296.9,131.54 303.37,127.81 303.37,125.68 296.9,129.41 		"/>
		<polygon class="st47" points="293.05,133.76 295.42,132.4 295.42,130.27 293.05,131.64 		"/>
		<polygon class="st46" points="289.39,135.88 291.76,134.51 291.76,132.38 289.39,133.75 		"/>
		<polygon class="st46" points="306.31,130.97 310.13,128.76 310.13,126.64 306.31,128.84 		"/>
		<polygon class="st46" points="303.53,132.58 304.83,131.82 304.83,129.7 303.53,130.45 		"/>
		<polygon class="st46" points="299.68,134.8 302.05,133.43 302.05,131.3 299.68,132.67 		"/>
		<polygon class="st46" points="296.03,141.76 310.13,133.62 310.13,131.5 296.03,139.64 		"/>
		<polygon class="st46" points="291.07,144.63 294.55,142.62 294.55,140.49 291.07,142.5 		"/>
		<polygon class="st46" points="306.31,140.69 310.13,138.48 310.13,136.36 306.31,138.56 		"/>
		<polygon class="st46" points="297.35,145.86 304.83,141.54 304.83,139.42 297.35,143.74 		"/>
		<polygon class="st46" points="293.5,148.09 295.87,146.72 295.87,144.59 293.5,145.96 		"/>
		<polygon class="st47" points="302.32,147.86 310.13,143.34 310.13,141.22 302.32,145.73 		"/>
		<polygon class="st46" points="295.18,151.97 300.84,148.71 300.84,146.58 295.18,149.85 		"/>
		<polygon class="st46" points="289.89,155.03 293.7,152.83 293.7,150.7 289.89,152.9 		"/>
		<polygon class="st46" points="307.49,149.73 310.13,148.2 310.13,146.08 307.49,147.6 		"/>
		<polygon class="st46" points="302.52,152.6 306.01,150.58 306.01,148.46 302.52,150.47 		"/>
		<polygon class="st47" points="295.42,156.7 301.04,153.45 301.04,151.32 295.42,154.57 		"/>
		<polygon class="st46" points="302.05,157.73 310.13,153.06 310.13,150.94 302.05,155.6 		"/>
		<polygon class="st46" points="292.99,162.96 300.57,158.59 300.57,156.46 292.99,160.83 		"/>
		<polygon class="st46" points="289.14,165.18 291.51,163.81 291.51,161.69 289.14,163.05 		"/>
		<polygon class="st46" points="285.45,167.32 287.82,165.95 287.82,163.82 285.45,165.19 		"/>
		<polygon class="st46" points="305.29,160.72 310.13,157.92 310.13,155.8 305.29,158.59 		"/>
		<polygon class="st47" points="285.03,133.54 278.31,137.42 278.31,135.29 285.03,131.41 		"/>
		<polygon class="st46" points="283.59,139.23 278.31,142.28 278.31,140.15 283.59,137.1 		"/>
		<polygon class="st46" points="282.13,144.93 278.31,147.14 278.31,145.01 282.13,142.8 		"/>
		<polygon class="st46" points="283.87,148.79 278.31,151.99 278.31,149.87 283.87,146.66 		"/>
		<polygon class="st46" points="282.13,154.65 278.31,156.85 278.31,154.73 282.13,152.52 		"/>
		<polygon class="st46" points="283.16,158.92 278.31,161.71 278.31,159.59 283.16,156.79 		"/>
		<polygon class="st46" points="280.95,165.05 278.31,166.57 278.31,164.45 280.95,162.92 		"/>
		<polygon class="st46" points="283.43,168.48 278.31,171.43 278.31,169.31 283.43,166.35 		"/>
		<polygon class="st46" points="283.16,173.5 278.31,176.29 278.31,174.17 283.16,171.37 		"/>
		<polygon class="st47" points="301.75,162.76 303.81,161.57 303.81,159.45 301.75,160.64 		"/>
		<polygon class="st46" points="295.63,166.3 300.27,163.62 300.27,161.49 295.63,164.17 		"/>
		<polygon class="st46" points="338.01,146.8 347.7,141.21 347.7,139.08 338.01,144.67 		"/>
		<polygon class="st46" points="333.04,149.67 336.53,147.65 336.53,145.53 333.04,147.54 		"/>
		<polygon class="st46" points="329.19,151.89 331.56,150.52 331.56,148.39 329.19,149.76 		"/>
		<polygon class="st46" points="342.42,149.11 347.7,146.07 347.7,143.94 342.42,146.99 		"/>
		<polygon class="st46" points="334.47,153.7 340.94,149.97 340.94,147.84 334.47,151.58 		"/>
		<polygon class="st46" points="330.62,155.93 332.99,154.56 332.99,152.43 330.62,153.8 		"/>
		<polygon class="st46" points="326.96,158.04 329.33,156.67 329.33,154.55 326.96,155.91 		"/>
		<polygon class="st46" points="343.88,153.13 347.7,150.93 347.7,148.8 343.88,151 		"/>
		<polygon class="st46" points="341.09,154.74 342.4,153.99 342.4,151.86 341.09,152.61 		"/>
		<polygon class="st46" points="337.24,156.96 339.61,155.59 339.61,153.47 337.24,154.83 		"/>
		<polygon class="st46" points="333.6,163.92 347.7,155.79 347.7,153.66 333.6,161.8 		"/>
		<polygon class="st46" points="328.63,166.79 332.12,164.78 332.12,162.65 328.63,164.67 		"/>
		<polygon class="st46" points="343.88,162.85 347.7,160.65 347.7,158.52 343.88,160.72 		"/>
		<polygon class="st46" points="334.91,168.03 342.4,163.71 342.4,161.58 334.91,165.9 		"/>
		<polygon class="st46" points="331.06,170.25 333.43,168.88 333.43,166.75 331.06,168.12 		"/>
		<polygon class="st46" points="339.88,170.02 347.7,165.51 347.7,163.38 339.88,167.89 		"/>
		<polygon class="st46" points="332.75,174.13 338.4,170.87 338.4,168.74 332.75,172.01 		"/>
		<polygon class="st46" points="327.45,177.19 331.27,174.99 331.27,172.86 327.45,175.07 		"/>
		<polygon class="st46" points="345.06,171.89 347.7,170.37 347.7,168.24 345.06,169.76 		"/>
		<polygon class="st46" points="340.09,174.76 343.58,172.74 343.58,170.62 340.09,172.63 		"/>
		<polygon class="st46" points="332.99,178.86 338.61,175.61 338.61,173.48 332.99,176.73 		"/>
		<polygon class="st46" points="339.61,179.89 347.7,175.23 347.7,173.1 339.61,177.77 		"/>
		<polygon class="st46" points="330.56,185.12 338.13,180.75 338.13,178.62 330.56,182.99 		"/>
		<polygon class="st46" points="326.71,187.34 329.08,185.98 329.08,183.85 326.71,185.22 		"/>
		<polygon class="st46" points="323.01,189.48 325.38,188.11 325.38,185.98 323.01,187.35 		"/>
		<polygon class="st46" points="342.85,182.88 347.7,180.09 347.7,177.96 342.85,180.75 		"/>
		<polygon class="st46" points="322.6,155.7 315.88,159.58 315.88,157.45 322.6,153.57 		"/>
		<polygon class="st46" points="321.16,161.39 315.88,164.44 315.88,162.31 321.16,159.26 		"/>
		<polygon class="st46" points="319.7,167.09 315.88,169.3 315.88,167.17 319.7,164.96 		"/>
		<polygon class="st46" points="321.43,170.95 315.88,174.16 315.88,172.03 321.43,168.82 		"/>
		<polygon class="st46" points="319.7,176.81 315.88,179.02 315.88,176.89 319.7,174.68 		"/>
		<polygon class="st46" points="320.72,181.08 315.88,183.88 315.88,181.75 320.72,178.95 		"/>
		<polygon class="st46" points="318.52,187.21 315.88,188.74 315.88,186.61 318.52,185.08 		"/>
		<polygon class="st46" points="320.99,190.64 315.88,193.6 315.88,191.47 320.99,188.52 		"/>
		<polygon class="st46" points="320.72,195.66 315.88,198.46 315.88,196.33 320.72,193.53 		"/>
		<polygon class="st46" points="339.31,184.93 341.37,183.74 341.37,181.61 339.31,182.8 		"/>
		<polygon class="st46" points="333.2,188.46 337.83,185.78 337.83,183.65 333.2,186.33 		"/>
		<polygon class="st46" points="329.36,204.8 337.19,200.29 337.19,198.16 329.36,202.68 		"/>
		<polygon class="st46" points="324,207.9 327.08,206.12 327.08,203.99 324,205.77 		"/>
		<polygon class="st46" points="300.44,168.41 310.13,162.81 310.13,160.68 300.44,166.28 		"/>
		<polygon class="st46" points="295.47,171.27 298.96,169.26 298.96,167.13 295.47,169.15 		"/>
		<polygon class="st46" points="291.62,173.5 293.99,172.13 293.99,170 291.62,171.37 		"/>
		<polygon class="st46" points="304.85,170.72 310.13,167.67 310.13,165.54 304.85,168.59 		"/>
		<polygon class="st46" points="296.9,175.31 303.37,171.57 303.37,169.45 296.9,173.18 		"/>
		<polygon class="st46" points="293.05,177.53 295.42,176.16 295.42,174.04 293.05,175.4 		"/>
		<polygon class="st46" points="289.39,179.65 291.76,178.28 291.76,176.15 289.39,177.52 		"/>
		<polygon class="st46" points="306.31,174.74 310.13,172.53 310.13,170.4 306.31,172.61 		"/>
		<polygon class="st46" points="303.53,176.34 304.83,175.59 304.83,173.46 303.53,174.22 		"/>
		<polygon class="st46" points="299.68,178.57 302.05,177.2 302.05,175.07 299.68,176.44 		"/>
		<polygon class="st46" points="296.03,185.53 310.13,177.39 310.13,175.26 296.03,183.4 		"/>
		<polygon class="st46" points="291.07,188.4 294.55,186.38 294.55,184.26 291.07,186.27 		"/>
		<polygon class="st46" points="306.31,184.46 310.13,182.25 310.13,180.12 306.31,182.33 		"/>
		<polygon class="st46" points="297.35,189.63 304.83,185.31 304.83,183.18 297.35,187.5 		"/>
		<polygon class="st46" points="293.5,191.85 295.87,190.49 295.87,188.36 293.5,189.73 		"/>
		<polygon class="st46" points="302.32,191.62 310.13,187.11 310.13,184.98 302.32,189.5 		"/>
		<polygon class="st46" points="295.18,195.74 300.84,192.48 300.84,190.35 295.18,193.61 		"/>
		<polygon class="st46" points="289.89,198.8 293.7,196.59 293.7,194.47 289.89,196.67 		"/>
		<polygon class="st46" points="307.49,193.49 310.13,191.97 310.13,189.84 307.49,191.37 		"/>
		<polygon class="st46" points="302.52,196.36 306.01,194.35 306.01,192.22 302.52,194.24 		"/>
		<polygon class="st46" points="295.42,200.46 301.04,197.22 301.04,195.09 295.42,198.33 		"/>
		<polygon class="st46" points="302.05,201.5 310.13,196.83 310.13,194.7 302.05,199.37 		"/>
		<polygon class="st46" points="292.99,206.73 300.57,202.35 300.57,200.23 292.99,204.6 		"/>
		<polygon class="st46" points="289.14,208.95 291.51,207.58 291.51,205.45 289.14,206.82 		"/>
		<polygon class="st46" points="285.45,211.08 287.82,209.71 287.82,207.59 285.45,208.96 		"/>
		<polygon class="st46" points="305.29,204.49 310.13,201.69 310.13,199.56 305.29,202.36 		"/>
		<polygon class="st46" points="285.03,177.3 278.31,181.18 278.31,179.05 285.03,175.18 		"/>
		<polygon class="st46" points="283.59,182.99 278.31,186.04 278.31,183.91 283.59,180.87 		"/>
		<polygon class="st46" points="282.13,188.7 278.31,190.9 278.31,188.77 282.13,186.57 		"/>
		<polygon class="st46" points="283.87,192.55 278.31,195.76 278.31,193.63 283.87,190.43 		"/>
		<polygon class="st46" points="282.13,198.42 278.31,200.62 278.31,198.49 282.13,196.29 		"/>
		<polygon class="st46" points="283.16,202.69 278.31,205.48 278.31,203.35 283.16,200.56 		"/>
		<polygon class="st46" points="280.95,208.82 278.31,210.34 278.31,208.21 280.95,206.69 		"/>
		<polygon class="st46" points="283.43,212.25 278.31,215.2 278.31,213.07 283.43,210.12 		"/>
		<polygon class="st46" points="283.16,217.26 278.31,220.06 278.31,217.93 283.16,215.14 		"/>
		<polygon class="st46" points="301.75,206.53 303.81,205.34 303.81,203.21 301.75,204.4 		"/>
		<polygon class="st46" points="295.63,210.06 300.27,207.39 300.27,205.26 295.63,207.94 		"/>
		<polygon class="st46" points="291.79,226.41 299.62,221.89 299.62,219.77 291.79,224.28 		"/>
		<polygon class="st46" points="286.44,229.5 289.52,227.72 289.52,225.6 286.44,227.38 		"/>
	</g>
</g>
<g>
	<path class="st1" d="M423.81,186.72l-41.82-24.15c-0.91-0.52-0.79-1.44,0.25-2.04l22.73-13.26l45.11,26.04l-22.73,13.26
		C426.3,187.18,424.71,187.25,423.81,186.72z"/>
	<g>
		<linearGradient id="SVGID_35_" gradientUnits="userSpaceOnUse" x1="474.4619" y1="123.0617" x2="404.2841" y2="179.3363">
			<stop  offset="0" style="stop-color:#BCD5FF"/>
			<stop  offset="0.151" style="stop-color:#A3BEFF"/>
			<stop  offset="0.3866" style="stop-color:#82A0FF"/>
			<stop  offset="0.6124" style="stop-color:#6A8AFF"/>
			<stop  offset="0.8221" style="stop-color:#5C7DFF"/>
			<stop  offset="1" style="stop-color:#5778FF"/>
		</linearGradient>
		<path class="st48" d="M493.7,147.7v-8.33l-13.57,0.01l-30.11-17.39c-0.74-0.43-2.03-0.37-2.88,0.12l-29.98,17.31l-13.51,0.01
			l0,8.35h0.01c0.01,0.26,0.17,0.51,0.49,0.69l43.2,24.94c0.74,0.43,2.03,0.37,2.88-0.12l42.78-24.7
			C493.45,148.33,493.68,148.01,493.7,147.7z"/>
		
			<linearGradient id="SVGID_36_" gradientUnits="userSpaceOnUse" x1="121.1888" y1="454.203" x2="57.3956" y2="505.358" gradientTransform="matrix(0.866 0.5 -1 0.5774 836.9784 -182.622)">
			<stop  offset="0" style="stop-color:#C0D6FF"/>
			<stop  offset="0.2978" style="stop-color:#C5DBFF"/>
			<stop  offset="0.6488" style="stop-color:#D3E9FF"/>
			<stop  offset="1" style="stop-color:#E9FFFF"/>
		</linearGradient>
		<path class="st49" d="M447.34,165.07l-43.2-24.94c-0.74-0.43-0.65-1.17,0.21-1.66l42.78-24.7c0.85-0.49,2.14-0.55,2.88-0.12
			l43.2,24.94c0.74,0.43,0.65,1.17-0.21,1.66l-42.78,24.7C449.37,165.45,448.08,165.5,447.34,165.07z"/>
		
			<linearGradient id="SVGID_37_" gradientUnits="userSpaceOnUse" x1="121.1888" y1="454.203" x2="57.3956" y2="505.358" gradientTransform="matrix(0.866 0.5 -1 0.5774 836.9784 -182.622)">
			<stop  offset="0" style="stop-color:#C0D6FF"/>
			<stop  offset="0.2978" style="stop-color:#C5DBFF"/>
			<stop  offset="0.6488" style="stop-color:#D3E9FF"/>
			<stop  offset="1" style="stop-color:#E9FFFF"/>
		</linearGradient>
		<path class="st50" d="M447.34,165.07l-43.2-24.94c-0.74-0.43-0.65-1.17,0.21-1.66l42.78-24.7c0.85-0.49,2.14-0.55,2.88-0.12
			l43.2,24.94c0.74,0.43,0.65,1.17-0.21,1.66l-42.78,24.7C449.37,165.45,448.08,165.5,447.34,165.07z"/>
		<path class="st2" d="M447.49,162.15l-38.29-22.11c-0.65-0.38-0.57-1.04,0.18-1.48l37.92-21.89c0.76-0.44,1.9-0.48,2.56-0.11
			l38.29,22.11c0.65,0.38,0.57,1.04-0.18,1.48l-37.92,21.89C449.29,162.48,448.15,162.53,447.49,162.15z"/>
		<path class="st0" d="M447.59,160.3l-35.18-20.31c-0.6-0.35-0.53-0.95,0.17-1.36l34.84-20.11c0.69-0.4,1.75-0.44,2.35-0.1
			l35.18,20.31c0.6,0.35,0.53,0.95-0.17,1.36l-34.84,20.11C449.24,160.61,448.19,160.65,447.59,160.3z"/>
		<g>
			<polygon class="st47" points="447.87,138.04 443.75,135.67 446,134.37 450.11,136.74 			"/>
			<polygon class="st47" points="455.51,137.7 451.4,140.08 449.15,138.78 453.27,136.41 			"/>
			<polygon class="st47" points="446.93,138.58 444.69,139.88 442.44,138.58 444.69,137.28 			"/>
			<polygon class="st47" points="454.7,143.06 452.45,144.36 445.97,140.62 448.22,139.32 			"/>
		</g>
	</g>
	<path class="st51" d="M493.71,128.16l-18.38,0.11l-25.32-14.62c-0.74-0.43-2.03-0.37-2.88,0.12l-25.67,14.82l-17.82,0.11v10.82
		l0.01,0.01c0.04,0.23,0.2,0.44,0.49,0.61l43.2,24.94c0.74,0.43,2.03,0.37,2.88-0.12l42.78-24.7c0.39-0.22,0.61-0.5,0.68-0.78
		l0.03-0.02V128.16z"/>
	<g>
		<linearGradient id="SVGID_38_" gradientUnits="userSpaceOnUse" x1="474.4619" y1="104.5983" x2="404.2842" y2="160.8729">
			<stop  offset="0" style="stop-color:#BCD5FF"/>
			<stop  offset="0.151" style="stop-color:#A3BEFF"/>
			<stop  offset="0.3866" style="stop-color:#82A0FF"/>
			<stop  offset="0.6124" style="stop-color:#6A8AFF"/>
			<stop  offset="0.8221" style="stop-color:#5C7DFF"/>
			<stop  offset="1" style="stop-color:#5778FF"/>
		</linearGradient>
		<path class="st52" d="M493.7,129.23v-8.33l-13.57,0.01l-30.11-17.39c-0.74-0.43-2.03-0.37-2.88,0.12l-29.98,17.31l-13.51,0.01
			l0,8.35h0.01c0.01,0.26,0.17,0.51,0.49,0.69l43.2,24.94c0.74,0.43,2.03,0.37,2.88-0.12l42.78-24.7
			C493.45,129.87,493.68,129.54,493.7,129.23z"/>
		
			<linearGradient id="SVGID_39_" gradientUnits="userSpaceOnUse" x1="102.726" y1="438.2142" x2="38.9328" y2="489.3692" gradientTransform="matrix(0.866 0.5 -1 0.5774 836.9784 -182.622)">
			<stop  offset="0" style="stop-color:#C0D6FF"/>
			<stop  offset="0.2978" style="stop-color:#C5DBFF"/>
			<stop  offset="0.6488" style="stop-color:#D3E9FF"/>
			<stop  offset="1" style="stop-color:#E9FFFF"/>
		</linearGradient>
		<path class="st53" d="M447.34,146.61l-43.2-24.94c-0.74-0.43-0.65-1.17,0.21-1.66l42.78-24.7c0.85-0.49,2.14-0.55,2.88-0.12
			l43.2,24.94c0.74,0.43,0.65,1.17-0.21,1.66l-42.78,24.7C449.37,146.98,448.08,147.04,447.34,146.61z"/>
		<path class="st2" d="M447.49,143.69l-38.29-22.11c-0.65-0.38-0.57-1.04,0.18-1.48l37.92-21.89c0.76-0.44,1.9-0.48,2.56-0.11
			l38.29,22.11c0.65,0.38,0.57,1.04-0.18,1.48l-37.92,21.89C449.29,144.02,448.15,144.07,447.49,143.69z"/>
		<path class="st0" d="M447.59,141.84l-35.18-20.31c-0.6-0.35-0.53-0.95,0.17-1.36l34.84-20.11c0.69-0.4,1.75-0.44,2.35-0.1
			l35.18,20.31c0.6,0.35,0.53,0.95-0.17,1.36l-34.84,20.11C449.24,142.14,448.19,142.19,447.59,141.84z"/>
		<g>
			<polygon class="st47" points="447.87,119.58 443.75,117.2 446,115.91 450.11,118.28 			"/>
			<polygon class="st47" points="455.51,119.24 451.4,121.62 449.15,120.32 453.27,117.94 			"/>
			<polygon class="st47" points="446.93,120.12 444.69,121.41 442.44,120.12 444.69,118.82 			"/>
			<polygon class="st47" points="454.7,124.6 452.45,125.89 445.97,122.15 448.22,120.86 			"/>
		</g>
	</g>
</g>
<g>
	<path class="st1" d="M149.29,400.12l-41.82-24.15c-0.91-0.52-0.79-1.44,0.25-2.04l12.29-7.09l45.11,26.04l-12.29,7.09
		C151.78,400.58,150.2,400.65,149.29,400.12z"/>
	<g>
		<linearGradient id="SVGID_40_" gradientUnits="userSpaceOnUse" x1="189.4988" y1="342.6264" x2="119.3212" y2="398.901">
			<stop  offset="0" style="stop-color:#BCD5FF"/>
			<stop  offset="0.151" style="stop-color:#A3BEFF"/>
			<stop  offset="0.3866" style="stop-color:#82A0FF"/>
			<stop  offset="0.6124" style="stop-color:#6A8AFF"/>
			<stop  offset="0.8221" style="stop-color:#5C7DFF"/>
			<stop  offset="1" style="stop-color:#5778FF"/>
		</linearGradient>
		<path class="st54" d="M208.74,367.26v-8.33l-13.57,0.01l-30.11-17.39c-0.74-0.43-2.03-0.37-2.88,0.12l-29.98,17.31l-13.51,0.01
			l0,8.35h0.01c0.01,0.26,0.17,0.51,0.49,0.69l43.2,24.94c0.74,0.43,2.03,0.37,2.88-0.12l42.78-24.7
			C208.48,367.9,208.72,367.57,208.74,367.26z"/>
		
			<linearGradient id="SVGID_41_" gradientUnits="userSpaceOnUse" x1="176.2144" y1="786.8182" x2="112.4212" y2="837.9732" gradientTransform="matrix(0.866 0.5 -1 0.5774 836.9784 -182.622)">
			<stop  offset="0" style="stop-color:#C0D6FF"/>
			<stop  offset="0.2978" style="stop-color:#C5DBFF"/>
			<stop  offset="0.6488" style="stop-color:#D3E9FF"/>
			<stop  offset="1" style="stop-color:#E9FFFF"/>
		</linearGradient>
		<path class="st55" d="M162.38,384.64l-43.2-24.94c-0.74-0.43-0.65-1.17,0.21-1.66l42.78-24.7c0.85-0.49,2.14-0.55,2.88-0.12
			l43.2,24.94c0.74,0.43,0.65,1.17-0.21,1.66l-42.78,24.7C164.4,385.01,163.11,385.07,162.38,384.64z"/>
		<path class="st2" d="M162.53,381.72l-38.29-22.11c-0.65-0.38-0.57-1.04,0.18-1.48l37.92-21.89c0.76-0.44,1.9-0.48,2.56-0.11
			l38.29,22.11c0.65,0.38,0.57,1.04-0.18,1.48l-37.92,21.89C164.33,382.05,163.18,382.1,162.53,381.72z"/>
		<path class="st0" d="M162.62,379.87l-35.18-20.31c-0.6-0.35-0.53-0.95,0.17-1.36l34.84-20.11c0.69-0.4,1.75-0.44,2.35-0.1
			l35.18,20.31c0.6,0.35,0.53,0.95-0.17,1.36l-34.84,20.11C164.28,380.17,163.23,380.21,162.62,379.87z"/>
	</g>
	<g>
		<polygon class="st47" points="162.9,357.61 158.79,355.23 161.04,353.93 165.15,356.31 		"/>
		<polygon class="st47" points="170.55,357.27 166.44,359.64 164.19,358.35 168.3,355.97 		"/>
		<polygon class="st47" points="161.97,358.14 159.72,359.44 157.48,358.14 159.72,356.85 		"/>
		<polygon class="st47" points="169.73,362.63 167.49,363.92 161.01,360.18 163.26,358.89 		"/>
	</g>
</g>
<g>
	<path class="st1" d="M120.16,204.04l-41.82-24.15c-0.91-0.52-0.79-1.44,0.25-2.04l12.29-7.09l45.11,26.04l-12.29,7.09
		C122.65,204.49,121.07,204.56,120.16,204.04z"/>
	<g>
		<linearGradient id="SVGID_42_" gradientUnits="userSpaceOnUse" x1="160.3694" y1="146.5401" x2="90.1918" y2="202.8148">
			<stop  offset="0" style="stop-color:#BCD5FF"/>
			<stop  offset="0.151" style="stop-color:#A3BEFF"/>
			<stop  offset="0.3866" style="stop-color:#82A0FF"/>
			<stop  offset="0.6124" style="stop-color:#6A8AFF"/>
			<stop  offset="0.8221" style="stop-color:#5C7DFF"/>
			<stop  offset="1" style="stop-color:#5778FF"/>
		</linearGradient>
		<path class="st56" d="M179.61,171.17v-8.33l-13.57,0.01l-30.11-17.39c-0.74-0.43-2.03-0.37-2.88,0.12l-29.98,17.31l-13.51,0.01
			l0,8.35h0.01c0.01,0.26,0.17,0.51,0.49,0.69l43.2,24.94c0.74,0.43,2.03,0.37,2.88-0.12l42.78-24.7
			C179.35,171.81,179.59,171.49,179.61,171.17z"/>
		
			<linearGradient id="SVGID_43_" gradientUnits="userSpaceOnUse" x1="-36.6851" y1="631.5765" x2="-100.4783" y2="682.7315" gradientTransform="matrix(0.866 0.5 -1 0.5774 836.9784 -182.622)">
			<stop  offset="0" style="stop-color:#C0D6FF"/>
			<stop  offset="0.2978" style="stop-color:#C5DBFF"/>
			<stop  offset="0.6488" style="stop-color:#D3E9FF"/>
			<stop  offset="1" style="stop-color:#E9FFFF"/>
		</linearGradient>
		<path class="st57" d="M133.25,188.55l-43.2-24.94c-0.74-0.43-0.65-1.17,0.21-1.66l42.78-24.7c0.85-0.49,2.14-0.55,2.88-0.12
			l43.2,24.94c0.74,0.43,0.65,1.17-0.21,1.66l-42.78,24.7C135.28,188.93,133.99,188.98,133.25,188.55z"/>
		<path class="st2" d="M133.4,185.63l-38.29-22.11c-0.65-0.38-0.57-1.04,0.18-1.48l37.92-21.89c0.76-0.44,1.9-0.48,2.56-0.11
			l38.29,22.11c0.65,0.38,0.57,1.04-0.18,1.48l-37.92,21.89C135.2,185.96,134.05,186.01,133.4,185.63z"/>
		<path class="st0" d="M133.49,183.78l-35.18-20.31c-0.6-0.35-0.53-0.95,0.17-1.36L133.32,142c0.69-0.4,1.75-0.44,2.35-0.1
			l35.18,20.31c0.6,0.35,0.53,0.95-0.17,1.36l-34.84,20.11C135.15,184.08,134.1,184.13,133.49,183.78z"/>
	</g>
	<g>
		<polygon class="st47" points="133.77,161.52 129.66,159.14 131.91,157.85 136.02,160.22 		"/>
		<polygon class="st47" points="141.42,161.18 137.31,163.56 135.06,162.26 139.17,159.89 		"/>
		<polygon class="st47" points="132.84,162.06 130.59,163.35 128.35,162.06 130.59,160.76 		"/>
		<polygon class="st47" points="140.6,166.54 138.36,167.84 131.88,164.1 134.13,162.8 		"/>
	</g>
</g>
</svg>
