<svg id="Layer_1" data-name="Layer 1" xmlns="http://www.w3.org/2000/svg" viewBox="0 0 432.53 127.43"><defs><style>.cls-1{fill:#1a1a1a;}</style></defs><title>0Box Text Logo Black</title><path class="cls-1" d="M71.52,27.91a29.6,29.6,0,0,0-10.84-9,30.63,30.63,0,0,0-26.23,0,29.63,29.63,0,0,0-10.85,9,45.65,45.65,0,0,0-7.17,14.92,75.12,75.12,0,0,0-2.61,21,75,75,0,0,0,2.61,20.94,45.25,45.25,0,0,0,7.18,14.9,29.44,29.44,0,0,0,10.85,8.94,31,31,0,0,0,26.21,0,29.6,29.6,0,0,0,10.85-8.94,45.55,45.55,0,0,0,7.18-14.9,75.09,75.09,0,0,0,2.61-20.94,75.12,75.12,0,0,0-2.61-21A45.66,45.66,0,0,0,71.52,27.91Zm-24,78.28a24.75,24.75,0,0,1-10.79-2.43,24.17,24.17,0,0,1-8.2-6.59L69,34.06a44.7,44.7,0,0,1,4.29,10.36,71.35,71.35,0,0,1,2.32,19.36,71.22,71.22,0,0,1-2.32,19.35A40.09,40.09,0,0,1,67.15,96.3a24.22,24.22,0,0,1-8.84,7.46A24.49,24.49,0,0,1,47.56,106.19ZM21.68,83.13a71.24,71.24,0,0,1-2.33-19.35,71.32,71.32,0,0,1,2.33-19.36,40.18,40.18,0,0,1,6.2-13.2A24.47,24.47,0,0,1,58.3,23.69a23.73,23.73,0,0,1,7.6,6l-40.37,63A45.09,45.09,0,0,1,21.68,83.13Z"/><path class="cls-1" d="M177.11,68.07a26.73,26.73,0,0,0-8.44-4.92c-.71-.26-1.44-.51-2.18-.73l.33-.16a25.47,25.47,0,0,0,7-5.32,25,25,0,0,0,4.66-7.23,21.56,21.56,0,0,0,1.73-8.46c0-7.81-2.61-13.89-7.74-18.09S159.9,17,150,17H126.67a2,2,0,0,0-2,2v89.6a2,2,0,0,0,2,2h26.75a47.06,47.06,0,0,0,12.8-1.62,28,28,0,0,0,9.85-4.87,21.26,21.26,0,0,0,6.28-8.15A26.83,26.83,0,0,0,184.47,85a23.37,23.37,0,0,0-1.9-9.51A21.4,21.4,0,0,0,177.11,68.07ZM153.42,105.3H130.2V65.78h23.34a38.93,38.93,0,0,1,10.74,1.39,23.47,23.47,0,0,1,8,3.91A17.12,17.12,0,0,1,178.94,85a21.89,21.89,0,0,1-1.69,8.89,16,16,0,0,1-4.81,6.21,22.33,22.33,0,0,1-8,3.84A41.76,41.76,0,0,1,153.42,105.3ZM162,58.65A31,31,0,0,1,150.6,60.5H130.2V22.26H150c8.57,0,14.95,1.69,19,5s5.9,7.86,5.9,14a18.84,18.84,0,0,1-1.28,6.62A17,17,0,0,1,169.48,54,22,22,0,0,1,162,58.65Z"/><path class="cls-1" d="M301.67,28.89a38.89,38.89,0,0,0-13.79-9.62A45.68,45.68,0,0,0,270.28,16a44.76,44.76,0,0,0-17.51,3.36A39.4,39.4,0,0,0,239,29a44.2,44.2,0,0,0-8.92,15.11,58.56,58.56,0,0,0-3.16,19.72,58.49,58.49,0,0,0,3.16,19.75,43.65,43.65,0,0,0,8.93,15,39,39,0,0,0,13.75,9.58,48.07,48.07,0,0,0,35.11,0,39,39,0,0,0,13.79-9.58,43.78,43.78,0,0,0,8.92-15,58.24,58.24,0,0,0,3.16-19.75A58.46,58.46,0,0,0,310.59,44,44.11,44.11,0,0,0,301.67,28.89Zm-31.39,77.3a39.47,39.47,0,0,1-15.23-2.88A33.61,33.61,0,0,1,243.17,95a38.86,38.86,0,0,1-7.84-13.28,52.73,52.73,0,0,1-2.86-18,53,53,0,0,1,2.86-18,39.14,39.14,0,0,1,7.85-13.35,33.37,33.37,0,0,1,11.87-8.3,39.28,39.28,0,0,1,15.23-2.89,39.92,39.92,0,0,1,15.39,2.89,33.11,33.11,0,0,1,11.87,8.3,38.7,38.7,0,0,1,7.75,13.33,54.21,54.21,0,0,1,2.8,18,53.82,53.82,0,0,1-2.8,18A38.33,38.33,0,0,1,297.54,95a33.07,33.07,0,0,1-11.87,8.27A39.92,39.92,0,0,1,270.28,106.19Z"/><path class="cls-1" d="M418.33,107.4,385.59,62.57l31.2-42.41A2,2,0,0,0,415.17,17h-1.4a3,3,0,0,0-2.09.87,5.64,5.64,0,0,0-.73.9L382,58.44,353,18.67c-.12-.15-.24-.33-.38-.53A2.8,2.8,0,0,0,350.28,17h-1.41a2,2,0,0,0-1.61,3.18l31.26,42.59-32.8,44.64a2,2,0,0,0,1.61,3.19h1.41a2.8,2.8,0,0,0,2.14-1c.19-.22.39-.44.63-.75l30.58-42,30.39,41.89c.1.15.24.36.44.62a2.85,2.85,0,0,0,2.38,1.18h1.41a2,2,0,0,0,1.62-3.18Z"/></svg>