<svg id="Layer_1" data-name="Layer 1" xmlns="http://www.w3.org/2000/svg" viewBox="0 0 700 250"><defs><style>.cls-1{fill:#dcddde;}</style></defs><title>0Box Logo White</title><path class="cls-1" d="M10.37,17.42V232.58H225.54V17.42ZM207.21,123.5H194.87V48.08H119.46V35.75h87.75ZM44,198.92V51.08H191.87V198.92ZM116.46,48.08H41V123.5H28.71V35.75h87.75ZM28.71,126.5H41v75.42h75.42v12.33H28.71Zm90.75,75.42h75.41V126.5h12.34v87.75H119.46ZM208.09,32.75H27.83L15.5,20.42H220.42ZM25.71,34.87V215.13L13.37,227.46V22.54Zm2.12,182.38H208.09l12.33,12.33H15.5Zm182.38-2.12V34.87l12.33-12.33V227.46Z"/><path class="cls-1" d="M340.94,89.19a29.83,29.83,0,0,0-10.85-9,30.72,30.72,0,0,0-26.23,0,29.8,29.8,0,0,0-10.84,9,45.82,45.82,0,0,0-7.18,14.93,75,75,0,0,0-2.61,20.94A75.12,75.12,0,0,0,285.84,146,45.3,45.3,0,0,0,293,160.9a29.54,29.54,0,0,0,10.85,8.95,31,31,0,0,0,26.21,0,29.44,29.44,0,0,0,10.85-8.94,45.45,45.45,0,0,0,7.18-14.9,75.12,75.12,0,0,0,2.61-20.95,75.09,75.09,0,0,0-2.61-20.94A45.81,45.81,0,0,0,340.94,89.19Zm-24,78.29a24.9,24.9,0,0,1-10.79-2.43,24.07,24.07,0,0,1-8.2-6.59l40.45-63.11a44.7,44.7,0,0,1,4.29,10.36,70.8,70.8,0,0,1,2.33,19.35,70.93,70.93,0,0,1-2.33,19.36,40.29,40.29,0,0,1-6.17,13.17,24.19,24.19,0,0,1-8.83,7.46A24.69,24.69,0,0,1,317,167.48Zm-25.89-23.06a71.35,71.35,0,0,1-2.32-19.36,71.27,71.27,0,0,1,2.32-19.35,40.28,40.28,0,0,1,6.2-13.2A24.51,24.51,0,0,1,327.72,85a23.73,23.73,0,0,1,7.59,6l-40.37,63A45.31,45.31,0,0,1,291.09,144.42Z"/><path class="cls-1" d="M446.52,129.35a26.77,26.77,0,0,0-8.43-4.91c-.71-.27-1.44-.51-2.19-.73l.33-.17a25.64,25.64,0,0,0,7-5.31,24.87,24.87,0,0,0,4.66-7.24,21.68,21.68,0,0,0,1.72-8.45c0-7.81-2.6-13.9-7.74-18.1s-12.6-6.18-22.54-6.18h-23.3a2,2,0,0,0-2,2v89.6a2,2,0,0,0,2,2h26.75a47,47,0,0,0,12.8-1.61,27.89,27.89,0,0,0,9.85-4.87,21.24,21.24,0,0,0,6.28-8.15,26.86,26.86,0,0,0,2.13-10.92,23.37,23.37,0,0,0-1.9-9.51A21.46,21.46,0,0,0,446.52,129.35Zm-23.69,37.23H399.62V127.06H423a38.59,38.59,0,0,1,10.74,1.4,23.14,23.14,0,0,1,8,3.91,17.51,17.51,0,0,1,4.95,6,17.71,17.71,0,0,1,1.74,7.91,21.89,21.89,0,0,1-1.68,8.89,16,16,0,0,1-4.82,6.21,22.54,22.54,0,0,1-8,3.84A42.33,42.33,0,0,1,422.83,166.58Zm8.61-46.64A31.26,31.26,0,0,1,420,121.78h-20.4V83.54h19.76c8.56,0,14.95,1.7,19,5s5.91,7.86,5.91,14a18.84,18.84,0,0,1-1.28,6.62,17.37,17.37,0,0,1-4.08,6.13A22,22,0,0,1,431.44,119.94Z"/><path class="cls-1" d="M571.09,90.17a39,39,0,0,0-13.8-9.61,45.64,45.64,0,0,0-17.6-3.32,44.76,44.76,0,0,0-17.51,3.36,39.14,39.14,0,0,0-13.75,9.64,44,44,0,0,0-8.92,15.11,58.25,58.25,0,0,0-3.16,19.71,58.2,58.2,0,0,0,3.16,19.75,43.83,43.83,0,0,0,8.92,15.05,39.24,39.24,0,0,0,13.76,9.58,48,48,0,0,0,35.1,0,39.09,39.09,0,0,0,13.79-9.58A43.6,43.6,0,0,0,580,144.81a58.45,58.45,0,0,0,3.16-19.75A58.79,58.79,0,0,0,580,105.28,44.2,44.2,0,0,0,571.09,90.17Zm-31.4,77.31a39.32,39.32,0,0,1-15.23-2.89,33.54,33.54,0,0,1-11.87-8.27A39.13,39.13,0,0,1,504.74,143a53,53,0,0,1-2.85-18,53.3,53.3,0,0,1,2.85-18,39.51,39.51,0,0,1,7.85-13.34,33.33,33.33,0,0,1,11.87-8.3,39.32,39.32,0,0,1,15.23-2.89,39.93,39.93,0,0,1,15.4,2.89A32.86,32.86,0,0,1,567,93.71,38.7,38.7,0,0,1,574.7,107a54.15,54.15,0,0,1,2.8,18,53.84,53.84,0,0,1-2.8,18A38.33,38.33,0,0,1,567,156.32a33,33,0,0,1-11.86,8.27A39.93,39.93,0,0,1,539.69,167.48Z"/><path class="cls-1" d="M687.74,168.68,655,123.85l31.2-42.4a2,2,0,0,0-1.61-3.19h-1.41a2.93,2.93,0,0,0-2.08.87,5.2,5.2,0,0,0-.73.91l-28.93,39.69L622.44,80l-.38-.53a2.81,2.81,0,0,0-2.37-1.17h-1.4a2,2,0,0,0-1.62,3.19L647.93,124l-32.79,44.64a2,2,0,0,0-.17,2.09,2,2,0,0,0,1.78,1.09h1.41a2.84,2.84,0,0,0,2.14-1l.63-.76,30.57-42,30.4,41.89c.09.15.24.36.43.62a2.86,2.86,0,0,0,2.39,1.17h1.41a2,2,0,0,0,1.61-3.18Z"/></svg>