<svg id="Layer_1" data-name="Layer 1" xmlns="http://www.w3.org/2000/svg" viewBox="0 0 959 127.43"><defs><style>.cls-1{fill:#fff;}</style></defs><title>0chainNet Text Logo White</title><path class="cls-1" d="M194.29,95.38a2.42,2.42,0,0,0-1.72-.7,2.59,2.59,0,0,0-1.77.81,58.38,58.38,0,0,1-5.87,4.76,31.81,31.81,0,0,1-6.24,3.42,36.62,36.62,0,0,1-7.47,2.13,54,54,0,0,1-9.41.74,39.69,39.69,0,0,1-15.22-2.9,34.46,34.46,0,0,1-12.08-8.37,39.21,39.21,0,0,1-8-13.41,52.39,52.39,0,0,1-2.93-18.07,51.36,51.36,0,0,1,3-17.88,39.24,39.24,0,0,1,8.17-13.44A35.36,35.36,0,0,1,147.09,24a41.76,41.76,0,0,1,16-3,45.22,45.22,0,0,1,8.46.7,40.85,40.85,0,0,1,6.53,1.75,27,27,0,0,1,4.75,2.21c1.35.83,2.5,1.59,3.39,2.27s1.69,1.3,2.23,1.76A4.23,4.23,0,0,0,191,30.91a2.58,2.58,0,0,0,2-1l.33-.52L193,27a64.23,64.23,0,0,0-6.37-4.75,36,36,0,0,0-6.79-3.48,38.55,38.55,0,0,0-7.68-2.06,57.45,57.45,0,0,0-9.08-.66,47.06,47.06,0,0,0-18.19,3.44,41.11,41.11,0,0,0-14.24,9.81,44.58,44.58,0,0,0-9.17,15.15,56,56,0,0,0-3.23,19.37,57.39,57.39,0,0,0,3.23,19.78,44.1,44.1,0,0,0,9.08,15.09,39.71,39.71,0,0,0,13.85,9.58,44.87,44.87,0,0,0,17.39,3.32,54.28,54.28,0,0,0,10.56-1,46.1,46.1,0,0,0,8.83-2.67,41,41,0,0,0,7.42-4.11,49.92,49.92,0,0,0,6.29-5.22l-.06-2.73Z"/><polygon class="cls-1" points="308.1 17.05 306.23 18.91 306.23 60.51 246.89 60.51 246.89 18.91 245.02 17.05 243.48 17.05 241.61 18.91 241.61 108.66 243.48 110.53 245.02 110.53 246.89 108.66 246.89 65.66 306.23 65.66 306.23 108.66 308.1 110.53 309.64 110.53 311.51 108.66 311.51 18.91 309.64 17.05 308.1 17.05"/><path class="cls-1" d="M390.68,17.38h-1.29l-1.72,1.15-37.44,89.75,1.72,2.59h1A2.69,2.69,0,0,0,355.6,109L390,26.38,424.44,109a2.61,2.61,0,0,0,2.52,1.86h1.15l1.73-2.59L392.4,18.53Z"/><polygon class="cls-1" points="472.99 17.05 471.12 18.91 471.12 108.66 472.99 110.53 474.53 110.53 476.4 108.66 476.4 18.91 474.53 17.05 472.99 17.05"/><path class="cls-1" d="M599.67,17.05h-1.28l-1.87,1.86v81.22L536.46,18.36A2.87,2.87,0,0,0,534,17.05h-.51l-1.87,1.86v89.75l1.87,1.87h1.29l1.86-1.87V27.13L597,109.3a2.69,2.69,0,0,0,2.23,1.23h.38l1.87-1.87V18.91Z"/><path class="cls-1" d="M71.52,27.91a29.54,29.54,0,0,0-10.84-9,30.65,30.65,0,0,0-26.23,0,29.57,29.57,0,0,0-10.85,9,45.56,45.56,0,0,0-7.17,14.92,74.8,74.8,0,0,0-2.61,21,75.12,75.12,0,0,0,2.61,20.94,45.19,45.19,0,0,0,7.18,14.9,29.42,29.42,0,0,0,10.85,8.94,31,31,0,0,0,26.21,0,29.67,29.67,0,0,0,10.85-8.94,45.58,45.58,0,0,0,7.18-14.9,75.12,75.12,0,0,0,2.61-20.94,74.8,74.8,0,0,0-2.61-21A45.58,45.58,0,0,0,71.52,27.91Zm-24,78.28a24.88,24.88,0,0,1-10.79-2.43,24.29,24.29,0,0,1-8.2-6.59L69,34.06a44.69,44.69,0,0,1,4.29,10.36,71,71,0,0,1,2.32,19.36,70.92,70.92,0,0,1-2.32,19.35A40.16,40.16,0,0,1,67.15,96.3a23.82,23.82,0,0,1-19.59,9.89ZM21.68,83.13a71.32,71.32,0,0,1-2.33-19.35,71.44,71.44,0,0,1,2.33-19.36,40.15,40.15,0,0,1,6.2-13.2A24.47,24.47,0,0,1,58.3,23.69a23.74,23.74,0,0,1,7.6,6l-40.37,63A45.22,45.22,0,0,1,21.68,83.13Z"/><path class="cls-1" d="M828.48,105.1H779.62V65.78h41.06a2,2,0,0,0,2-2V62.37a2,2,0,0,0-2-2H779.62V22.46h48.73a2,2,0,0,0,2-2v-1.4a2,2,0,0,0-2-2H776.09a2,2,0,0,0-2,2V108.5a2,2,0,0,0,2,2h52.26a2,2,0,0,0,2-1.82l.13-1.4a2,2,0,0,0-2-2.18Z"/><path class="cls-1" d="M935.56,17.06h-69a2,2,0,0,0-2,2v1.4a2,2,0,0,0,2,2h31.86v86a2,2,0,0,0,2,2H902a2,2,0,0,0,2-2v-86h31.61a2,2,0,0,0,2-2v-1.4A2,2,0,0,0,935.56,17.06Z"/><path class="cls-1" d="M724,17.05h-1.28l-1.87,1.86v81.22L660.79,18.36a2.87,2.87,0,0,0-2.46-1.31h-.51L656,18.91v89.75l1.87,1.87h1.29l1.86-1.87V27.13l60.4,82.17a2.69,2.69,0,0,0,2.23,1.23H724l1.87-1.87V18.91Z"/></svg>