<?xml version="1.0" encoding="utf-8"?>
<!-- Generator: Adobe Illustrator 22.1.0, SVG Export Plug-In . SVG Version: 6.00 Build 0)  -->
<svg version="1.1" id="Layer_1" xmlns="http://www.w3.org/2000/svg" xmlns:xlink="http://www.w3.org/1999/xlink" x="0px" y="0px"
	 viewBox="0 0 840.5 253" style="enable-background:new 0 0 840.5 253;" xml:space="preserve">
<style type="text/css">
	.st0{fill:#FFFFFF;}
</style>
<g>
	<g>
		<path class="st0" d="M233.4,113.3c-3.1-1.6-6.7-2.5-10.7-2.5c-4.1,0-7.6,0.7-10.6,2.2c-2.9,1.5-5.4,3.5-7.4,6
			c-2,2.6-3.5,5.7-4.5,9.2c-1,3.6-1.5,7.6-1.5,11.7c0,9.9,1.9,17.3,5.6,21.9c3.6,4.6,8.9,6.8,16,6.8c4.2,0,8.2-1.2,11.9-3.6
			c3.6-2.3,6.8-5.6,9.4-9.7v-34.1C239.1,117.6,236.3,114.9,233.4,113.3z"/>
		<path class="st0" d="M253.7,53H101.2c-6.8,0-12.3,5.5-12.3,12.3v115.5c0,6.8,5.5,12.3,12.3,12.3h152.5c6.8,0,12.3-5.5,12.3-12.3
			V65.3C265.9,58.5,260.5,53,253.7,53z M247.1,171.3c0,1.1-0.9,2-2,2h-0.4c-1.7,0-2.9-1.2-2.9-3l-0.1-6.4c-2.2,2.4-4.6,4.5-7.3,6.1
			c-4.3,2.7-9.1,4-14.1,4c-8.7,0-15.5-2.9-20.2-8.6c-4.6-5.6-6.9-14.1-6.9-25.4c0-4.7,0.6-9.2,1.8-13.3c1.2-4.2,3.1-7.9,5.5-11
			c2.5-3.1,5.6-5.7,9.3-7.5c3.7-1.8,8-2.7,12.9-2.7c4.9,0,9.3,1,13,3c2.1,1.1,4.1,2.6,5.8,4.4V79.1c0-1.1,0.9-2,2-2h1.5
			c1.1,0,2,0.9,2,2V171.3z"/>
	</g>
</g>
<path class="st0" d="M329.5,136c-1.5-2.6-3.4-4.9-5.8-6.7c-2.3-1.7-5-3.2-8-4.3c-2.8-1.1-5.7-2.1-8.7-3.1c-2.9-0.9-5.7-2-8.5-3
	c-2.6-1-5-2.2-7-3.7c-1.9-1.4-3.5-3.2-4.7-5.2c-1.2-2-1.7-4.6-1.7-7.6c0-2.4,0.5-4.8,1.4-7c0.9-2.2,2.2-4.2,3.9-5.8
	c1.7-1.7,3.9-3.1,6.5-4.1c2.6-1,5.6-1.6,9-1.6c3.3,0,6.1,0.4,8.3,1.2c2.2,0.8,4.1,1.7,5.4,2.6c1.4,0.9,2.4,1.8,3.1,2.5
	c0.9,1,2,2,3.2,2c0.8,0,1.6-0.4,2.2-1.1c0-0.1,0.1-0.1,0.1-0.2l0.3-0.4c0.5-0.8,0.4-1.8-0.2-2.5c-3.1-3.3-6.5-5.7-10.1-7.2
	c-3.6-1.5-7.7-2.3-12.3-2.3c-4.1,0-7.8,0.7-11.1,1.9c-3.2,1.3-6,3-8.2,5.2c-2.2,2.2-4,4.8-5.1,7.6c-1.2,2.9-1.7,5.9-1.7,9
	c0,3.2,0.5,6,1.5,8.4c1,2.4,2.3,4.5,4,6.2c1.6,1.7,3.5,3.2,5.7,4.3c2.1,1.1,4.3,2.1,6.6,3c2.3,0.9,4.7,1.7,7,2.4
	c2.3,0.7,4.6,1.5,6.8,2.3c2.2,0.8,4.2,1.7,6.1,2.7c1.8,1,3.4,2.1,4.7,3.4c1.3,1.3,2.3,2.8,3.1,4.6c0.8,1.8,1.2,4,1.2,6.5
	c0,3.1-0.5,6.1-1.6,8.8c-1.1,2.7-2.6,5.1-4.7,7.2c-2,2-4.6,3.7-7.5,4.9c-3,1.2-6.4,1.8-10.3,1.8c-2.6,0-5-0.3-7-0.7
	c-2-0.5-3.9-1.1-5.5-1.9c-1.6-0.8-2.9-1.6-4-2.4c-1.1-0.9-2.1-1.7-2.9-2.5c-0.8-0.8-1.5-1.5-1.9-2c-0.6-0.7-1.5-1.4-2.6-1.4
	c-0.7,0-1.2,0.2-1.6,0.5c-0.1,0.1-0.3,0.3-0.5,0.5l-0.3,0.3c-0.7,0.7-0.8,1.9-0.1,2.7c1.6,1.9,3.3,3.6,5,5.1
	c1.8,1.5,3.8,2.8,5.9,3.9c2.1,1.1,4.5,1.9,7,2.5c2.5,0.6,5.4,0.8,8.6,0.8c4.6,0,8.8-0.7,12.4-2.2c3.7-1.5,6.8-3.5,9.3-6
	c2.5-2.6,4.5-5.6,5.8-9c1.3-3.4,2-7.1,2-11C331.7,142.1,331,138.7,329.5,136z"/>
<path class="st0" d="M389.5,164.9l-0.3-0.3c-0.7-0.7-1.4-0.8-1.9-0.8c-1,0-1.9,0.7-2.6,1.4c-0.5,0.5-1.2,1-2,1.6
	c-0.8,0.6-1.9,1.1-3.1,1.6c-1.1,0.5-2.4,0.7-3.9,0.7c-1.2,0-2.3-0.2-3.3-0.5c-1-0.3-1.8-0.8-2.5-1.6c-0.7-0.7-1.3-1.7-1.7-2.8
	c-0.5-1.2-0.7-2.8-0.7-4.7v-44.8h19.4c1.1,0,2-0.9,2-2v-1.3c0-1.1-0.9-2-2-2h-19.4V85.1c0-1.1-0.9-2-2-2h-0.4
	c-0.9,0-1.8,0.5-2.2,1.3c-0.3,0.5-0.4,1-0.4,1.5l-0.5,23.3l-9.3,0.2c-1.1,0-2,0.9-2,2v0.4c0,1.3,0.9,2.6,2.9,2.6h8.4v44.8
	c0,5.2,1.3,9,3.8,11.4c2.5,2.4,5.8,3.6,10,3.6c1.3,0,2.7-0.2,4.1-0.5c1.4-0.3,2.7-0.8,3.9-1.4c1.2-0.6,2.4-1.3,3.4-2.2
	c1-0.8,1.9-1.8,2.7-2.8C390.3,166.7,390.2,165.6,389.5,164.9z"/>
<path class="st0" d="M466.8,126.1c-1.3-4.2-3.2-7.9-5.7-10.9c-2.5-3-5.6-5.4-9.3-7.1c-3.7-1.7-7.9-2.5-12.5-2.5
	c-4.7,0-8.9,0.8-12.6,2.5c-3.7,1.7-6.8,4.1-9.3,7.1c-2.5,3-4.4,6.7-5.7,10.9c-1.2,4.2-1.9,8.8-1.9,13.9c0,5,0.6,9.7,1.9,13.8
	c1.3,4.2,3.2,7.8,5.7,10.8c2.5,3,5.6,5.4,9.3,7c3.6,1.6,7.9,2.4,12.6,2.4c4.7,0,8.9-0.8,12.5-2.4c3.7-1.6,6.8-4,9.3-7.1
	c2.5-3,4.4-6.7,5.7-10.8c1.2-4.1,1.9-8.8,1.9-13.8C468.7,134.9,468.1,130.2,466.8,126.1z M439.3,110.8c4,0,7.5,0.7,10.4,2.1
	c2.9,1.4,5.4,3.3,7.4,5.8c2,2.5,3.5,5.6,4.5,9.1c1,3.6,1.6,7.7,1.6,12.1c0,4.4-0.5,8.5-1.6,12.1c-1,3.5-2.5,6.6-4.5,9
	c-2,2.4-4.4,4.4-7.4,5.7c-3,1.4-6.5,2.1-10.4,2.1c-4,0-7.5-0.7-10.5-2.1c-2.9-1.4-5.4-3.3-7.3-5.7c-2-2.5-3.5-5.5-4.5-9
	c-1-3.6-1.6-7.7-1.6-12.1c0-4.4,0.5-8.5,1.6-12.1c1-3.5,2.5-6.6,4.5-9.1c2-2.5,4.4-4.4,7.3-5.8C431.8,111.5,435.3,110.8,439.3,110.8
	z"/>
<path class="st0" d="M533.1,109.3c-0.2-0.5-0.5-0.9-1-1.2c-1.7-0.8-3.6-1.5-5.4-1.9c-1.9-0.5-4-0.7-6.2-0.7c-3.1,0-5.9,0.5-8.4,1.4
	c-2.5,0.9-4.8,2.3-6.8,4.2c-1.8,1.7-3.4,3.7-4.7,6.1l-0.1-7.6c0-1.8-1.2-3-2.9-3h-0.4c-1.1,0-2,0.9-2,2v62.7c0,1.1,0.9,2,2,2h1.5
	c1.1,0,2-0.9,2-2v-40.9c1.9-6.3,4.5-11.2,7.6-14.5c3.1-3.3,7.1-4.9,12.1-4.9c1.4,0,2.6,0.1,3.6,0.3c1,0.2,1.9,0.4,2.6,0.6
	c0.7,0.2,1.3,0.5,1.7,0.6c0.8,0.3,1.3,0.5,1.9,0.5c1.3,0,1.9-0.8,2.1-1.1c0.1-0.1,0.1-0.2,0.2-0.3c0-0.1,0.1-0.1,0.1-0.2l0.3-0.5
	C533.2,110.4,533.3,109.8,533.1,109.3z"/>
<path class="st0" d="M596.3,120c-0.8-3-2.1-5.6-3.8-7.7c-1.7-2.2-3.9-3.8-6.5-5c-2.6-1.1-5.6-1.7-9.1-1.7c-4.7,0-8.8,0.9-12.4,2.8
	c-3.5,1.8-6.9,4.4-10.1,7.8c-0.7,0.8-0.7,2,0,2.8l0.3,0.3c0.6,0.6,1.3,1,2.1,1c1,0,1.8-0.7,2.4-1.3c0.4-0.4,1-1,1.8-1.6
	c0.7-0.7,1.6-1.4,2.6-2.2c0.9-0.7,2-1.4,3.3-2c1.3-0.6,2.8-1.2,4.4-1.6c1.6-0.4,3.5-0.6,5.5-0.6c2.5,0,4.7,0.4,6.6,1.3
	c1.8,0.8,3.4,2,4.6,3.5c1.2,1.6,2.2,3.6,2.8,5.9c0.7,2.4,1,5.2,1,8.3v6.1c-6.3,0.2-12,0.8-16.7,1.6c-5.3,0.9-9.8,2.3-13.3,3.9
	c-3.7,1.7-6.5,3.9-8.3,6.4c-1.9,2.6-2.9,5.5-2.9,8.8c0,3.1,0.6,5.9,1.6,8.1c1.1,2.2,2.5,4.1,4.3,5.5c1.7,1.4,3.7,2.5,5.8,3.1
	c2.1,0.6,4.2,1,6.2,1c3,0,5.7-0.3,8.2-0.9c2.5-0.6,4.8-1.5,6.9-2.6c2.1-1.1,4.2-2.5,6.1-4.1c0.8-0.6,1.5-1.3,2.3-2l0.2,5.6
	c0,1.8,1.2,3,2.9,3h0.3c1.1,0,2-0.9,2-2v-41.5C597.5,126.2,597.1,122.9,596.3,120z M591.9,141.2v16.4c-1.4,1.4-2.9,2.8-4.3,4.1
	c-1.6,1.4-3.4,2.7-5.3,3.8c-1.9,1.1-3.9,1.9-6.1,2.6c-2.2,0.6-4.7,0.9-7.5,0.9c-1.6,0-3.2-0.3-4.7-0.8c-1.5-0.5-2.8-1.2-3.9-2.2
	c-1.1-1-2.1-2.3-2.8-3.8c-0.7-1.5-1.1-3.4-1.1-5.7c0-4.5,2.8-8,8.6-10.6C570.7,143.3,579.8,141.7,591.9,141.2z"/>
<path class="st0" d="M678.1,109.6h-14.6c-1.8-1.2-3.9-2.2-6.1-2.9c-2.5-0.8-5.2-1.2-8.2-1.2c-3.5,0-6.7,0.5-9.5,1.6
	c-2.8,1.1-5.3,2.6-7.4,4.5c-2.1,1.9-3.7,4.3-4.7,7c-1.1,2.7-1.6,5.6-1.6,8.8c0,4.1,0.9,7.8,2.6,11c1.2,2.3,2.9,4.3,4.9,5.9
	c-0.3,0.2-0.6,0.5-0.9,0.8c-1,0.9-1.9,1.9-2.6,3c-0.7,1-1.3,2.1-1.7,3.2c-0.5,1.2-0.7,2.3-0.7,3.4c0,3,0.9,5.4,2.8,7.1
	c0.6,0.5,1.2,1,1.9,1.4c-2.4,1.3-4.5,2.8-6.1,4.6c-2.8,3-4.2,6.5-4.2,10.6c0,2.6,0.7,5.2,1.9,7.5c1.3,2.3,3.2,4.3,5.6,6.1
	c2.4,1.7,5.4,3,8.8,3.9c3.4,0.9,7.3,1.4,11.7,1.4c4.3,0,8.3-0.6,11.8-1.7c3.5-1.1,6.6-2.6,9.2-4.5c2.6-1.9,4.6-4.2,6-6.7
	c1.5-2.6,2.2-5.3,2.2-8.2c0-3.2-0.8-5.8-2.4-7.8c-1.5-1.9-3.6-3.3-6-4.3c-2.3-0.9-5-1.6-8-1.9c-2.8-0.3-5.7-0.5-8.6-0.7
	c-2.9-0.1-5.7-0.3-8.5-0.4c-2.6-0.1-5-0.5-7-1c-1.9-0.5-3.4-1.2-4.4-2.1c-0.9-0.7-1.3-1.8-1.3-3.4c0-0.5,0.1-1.2,0.4-1.8
	c0.3-0.7,0.7-1.5,1.2-2.2c0.6-0.7,1.2-1.4,2-2.1c0.5-0.5,1.1-0.9,1.8-1.3c3.2,1.4,6.9,2.1,10.9,2.1c3.5,0,6.6-0.5,9.5-1.6
	c2.8-1.1,5.3-2.6,7.4-4.5c2.1-1.9,3.7-4.3,4.8-7c1.1-2.7,1.7-5.7,1.7-8.9c0-3.2-0.6-6.2-1.7-8.9c-0.5-1.3-1.2-2.5-2-3.7l8.3-0.2
	c0.7,0,1.4-0.2,2-0.7c0.7-0.6,1.1-1.3,1.1-2.2v-0.3C680.1,110.5,679.2,109.6,678.1,109.6z M677.1,110.8L677.1,110.8L677.1,110.8
	C677.1,110.8,677.1,110.8,677.1,110.8z M649.2,144.2c-2.8,0-5.3-0.4-7.5-1.2c-2.2-0.8-4-1.9-5.5-3.4c-1.5-1.4-2.7-3.2-3.5-5.2
	c-0.8-2.1-1.2-4.4-1.2-6.9c0-2.5,0.4-4.8,1.2-6.9c0.8-2,2-3.8,3.5-5.2c1.5-1.4,3.3-2.6,5.5-3.4c2.2-0.8,4.7-1.2,7.5-1.2
	c2.8,0,5.3,0.4,7.5,1.2c2.2,0.8,4,1.9,5.5,3.4c1.5,1.4,2.7,3.2,3.5,5.2c0.8,2.1,1.2,4.4,1.2,6.9c0,2.5-0.4,4.8-1.2,6.9
	c-0.8,2-1.9,3.8-3.4,5.2c-1.5,1.4-3.3,2.6-5.5,3.4C654.6,143.8,652.1,144.2,649.2,144.2z M650,192.1c-3.6,0-6.9-0.4-9.7-1.1
	c-2.8-0.8-5.2-1.8-7.1-3.1c-1.9-1.2-3.3-2.7-4.3-4.3c-1-1.6-1.4-3.3-1.4-5.1c0-1.5,0.3-2.9,0.8-4.1c0.6-1.3,1.4-2.5,2.5-3.5
	c1.1-1.1,2.4-2.1,3.9-2.9c1.5-0.8,3.1-1.5,4.8-2.2c2.2,0.4,4.6,0.6,7.1,0.8c2.7,0.1,5.4,0.3,8.1,0.4c2.7,0.1,5.3,0.4,7.7,0.7
	c2.3,0.3,4.4,0.8,6.2,1.5c1.6,0.7,3,1.6,3.9,2.7c0.9,1.1,1.3,2.5,1.3,4.5c0,2.3-0.6,4.3-1.8,6.1c-1.3,1.9-3,3.6-5.1,5
	c-2.2,1.4-4.8,2.6-7.7,3.4C656.2,191.6,653.1,192.1,650,192.1z"/>
<path class="st0" d="M751.7,122.3c-1.3-3.6-3.1-6.7-5.4-9.2c-2.3-2.5-5-4.4-8.2-5.7c-3.1-1.3-6.4-1.9-10-1.9
	c-4.6,0-8.7,0.8-12.4,2.4c-3.7,1.6-6.8,3.9-9.3,6.9c-2.5,2.9-4.4,6.5-5.8,10.5c-1.3,4-2,8.5-2,13.3c0,5.4,0.7,10.4,2,14.7
	c1.4,4.4,3.3,8.1,5.8,11.2c2.6,3.1,5.7,5.5,9.4,7.1c3.7,1.6,7.8,2.4,12.4,2.4c2.6,0,5.1-0.3,7.5-0.8c2.4-0.5,4.7-1.2,6.7-2.1
	c2.1-0.9,3.9-1.8,5.4-2.8c1.6-1.1,2.8-2.1,3.7-3.2c0.6-0.8,0.6-1.9-0.1-2.7l-0.3-0.3c-0.7-0.7-1.4-0.8-1.9-0.8c-0.9,0-1.6,0.4-3,1.6
	c-0.8,0.7-1.9,1.5-3.5,2.3c-1.6,0.9-3.6,1.7-5.9,2.4c-2.3,0.7-5.2,1.1-8.5,1.1c-3.6,0-7-0.7-9.9-1.9c-2.9-1.3-5.5-3.2-7.5-5.6
	c-2.1-2.5-3.7-5.6-4.9-9.4c-1.2-3.8-1.8-8.2-1.8-13.2v-1.5h46.5c0.6,0,1.2-0.2,1.7-0.5c0.7-0.5,1.1-1.2,1.1-2.1
	C753.6,130,753,125.9,751.7,122.3z M728.2,110.8c2.8,0,5.5,0.5,7.9,1.5c2.4,1,4.5,2.5,6.3,4.4c1.8,1.9,3.2,4.3,4.2,7.2
	c0.8,2.4,1.3,5.1,1.5,8.1h-43.4c0.4-2.7,1.1-5.2,2.1-7.5c1.2-2.9,2.8-5.3,4.8-7.3c2-2,4.4-3.6,7.1-4.7
	C721.5,111.4,724.7,110.8,728.2,110.8z"/>
</svg>
