<?xml version="1.0" encoding="utf-8"?>
<!-- Generator: Adobe Illustrator 24.1.3, SVG Export Plug-In . SVG Version: 6.00 Build 0)  -->
<svg version="1.1" id="Layer_1" xmlns="http://www.w3.org/2000/svg" xmlns:xlink="http://www.w3.org/1999/xlink" x="0px" y="0px"
	 viewBox="0 0 450 450" style="enable-background:new 0 0 450 450;" xml:space="preserve">
<style type="text/css">
	.st0{fill:none;stroke:#333333;stroke-width:4;stroke-linecap:round;stroke-linejoin:round;stroke-miterlimit:10;}
	.st1{fill:#FFFFFF;stroke:#3EBDB2;stroke-width:2.0575;stroke-linecap:round;stroke-linejoin:round;stroke-miterlimit:10;}
	.st2{fill:none;stroke:#EB2027;stroke-width:1.1956;stroke-linecap:round;stroke-linejoin:round;stroke-miterlimit:10;}
	.st3{fill:none;stroke:#EB2027;stroke-width:1.4834;stroke-linecap:round;stroke-linejoin:round;}
	.st4{fill:#EB2027;}
</style>
<g>
	<line class="st0" x1="98.2" y1="225" x2="238.9" y2="225"/>
	<line class="st0" x1="294.8" y1="225" x2="403.5" y2="225"/>
	<line class="st0" x1="294.8" y1="378.8" x2="403.5" y2="378.8"/>
	<line class="st0" x1="294.8" y1="340.3" x2="403.5" y2="340.3"/>
	<line class="st0" x1="294.8" y1="301.9" x2="403.5" y2="301.9"/>
	<line class="st0" x1="294.8" y1="263.4" x2="403.5" y2="263.4"/>
	<polyline class="st0" points="238.9,225 294.8,71.2 403.5,71.2 	"/>
	<polyline class="st0" points="403.5,109.7 294.8,109.7 238.9,225 	"/>
	<polyline class="st0" points="238.9,225 294.8,148.1 403.5,148.1 	"/>
	<polyline class="st0" points="238.9,225 294.8,186.6 403.5,186.6 	"/>
	<line class="st0" x1="294.8" y1="378.8" x2="238.9" y2="225"/>
	<line class="st0" x1="294.8" y1="340.3" x2="238.9" y2="225"/>
	<line class="st0" x1="294.8" y1="301.9" x2="238.9" y2="225"/>
	<line class="st0" x1="294.8" y1="263.4" x2="238.9" y2="225"/>
	<line class="st0" x1="294.8" y1="225" x2="238.9" y2="225"/>
	<polygon class="st1" points="122.9,236.4 115.5,225.2 122.3,213.6 129.6,224.8 	"/>
	<polygon class="st1" points="205.3,236.4 198,225.2 204.8,213.6 212.1,224.8 	"/>
	<polygon class="st1" points="384.7,82.6 377.4,71.4 384.1,59.8 391.5,71.1 	"/>
	<polygon class="st1" points="317.7,121.1 310.4,109.8 317.2,98.3 324.5,109.5 	"/>
	<polygon class="st1" points="347.3,159.5 340,148.3 346.8,136.7 354.1,148 	"/>
	<polygon class="st1" points="336.4,198 329.1,186.7 335.9,175.2 343.2,186.4 	"/>
	<polygon class="st1" points="367,236.4 359.7,225.2 366.4,213.6 373.8,224.8 	"/>
	<polygon class="st1" points="317.7,274.8 310.4,263.6 317.2,252 324.5,263.3 	"/>
	<polygon class="st1" points="392.7,313.3 385.4,302 392.2,290.5 399.5,301.7 	"/>
	<polygon class="st1" points="357.5,351.7 350.2,340.5 356.9,328.9 364.3,340.2 	"/>
	<polygon class="st1" points="317.7,390.2 310.4,378.9 317.2,367.4 324.5,378.6 	"/>
	<g>
		<path class="st2" d="M89,363.7L89,363.7c1-0.6,1.3-1.9,0.7-2.8L72,332.8l-3.6,2.2l17.7,28.1C86.8,364,88.1,364.3,89,363.7z"/>
		<polyline class="st2" points="62.5,329.2 66.8,335.9 73.6,331.7 69.4,325 		"/>
		<path class="st2" d="M63.9,331.3c-1.7-2.7-17.4,10.4-17.4,10.4c15.1-23.2,41.6-25.1,41.6-25.1s-19.2,7.7-17.4,10.5"/>
		<polyline class="st2" points="62.5,325.5 61.1,323.2 64.6,321.1 66.1,323.3 		"/>
	</g>
	<g>
		<g>
			<line class="st3" x1="107.5" y1="340.1" x2="252" y2="340.3"/>
			<g>
				<polygon class="st4" points="247,346.4 246,345.2 251.4,340.3 246.1,335.3 247.1,334.2 253.6,340.2 				"/>
			</g>
		</g>
	</g>
	<g>
		<path class="st2" d="M89,286.8L89,286.8c1-0.6,1.3-1.9,0.7-2.8L72,255.9l-3.6,2.2l17.7,28.1C86.8,287.1,88.1,287.4,89,286.8z"/>
		<polyline class="st2" points="62.5,252.3 66.8,259 73.6,254.8 69.4,248.1 		"/>
		<path class="st2" d="M63.9,254.4c-1.7-2.7-17.4,10.4-17.4,10.4c15.1-23.2,41.6-25.1,41.6-25.1s-19.2,7.7-17.4,10.5"/>
		<polyline class="st2" points="62.5,248.6 61.1,246.3 64.6,244.2 66.1,246.4 		"/>
	</g>
	<g>
		<g>
			<line class="st3" x1="107.5" y1="263.2" x2="222" y2="263.4"/>
			<g>
				<polygon class="st4" points="217,269.5 216,268.4 221.4,263.4 216.1,258.4 217.1,257.4 223.6,263.4 				"/>
			</g>
		</g>
	</g>
	<g>
		<path class="st2" d="M89,171.5L89,171.5c1-0.6,1.3-1.9,0.7-2.8L72,140.6l-3.6,2.2l17.7,28.1C86.8,171.8,88.1,172.1,89,171.5z"/>
		<polyline class="st2" points="62.5,137 66.8,143.7 73.6,139.5 69.4,132.8 		"/>
		<path class="st2" d="M63.9,139.1c-1.7-2.7-17.4,10.4-17.4,10.4c15.1-23.2,41.6-25.1,41.6-25.1s-19.2,7.7-17.4,10.5"/>
		<polyline class="st2" points="62.5,133.3 61.1,131 64.6,128.9 66.1,131.1 		"/>
	</g>
	<g>
		<g>
			<line class="st3" x1="107.5" y1="147.9" x2="252" y2="148.1"/>
			<g>
				<polygon class="st4" points="247,154.2 246,153 251.4,148.1 246.1,143.1 247.1,142 253.6,148 				"/>
			</g>
		</g>
	</g>
</g>
</svg>
