<?xml version="1.0" encoding="utf-8"?>
<!-- Generator: Adobe Illustrator 24.1.3, SVG Export Plug-In . SVG Version: 6.00 Build 0)  -->
<svg version="1.1" id="Layer_1" xmlns="http://www.w3.org/2000/svg" xmlns:xlink="http://www.w3.org/1999/xlink" x="0px" y="0px"
	 viewBox="0 0 450 450" style="enable-background:new 0 0 450 450;" xml:space="preserve">
<style type="text/css">
	.st0{fill:#FFFFFF;stroke:#15CCBA;stroke-width:1.8116;stroke-linecap:round;stroke-linejoin:round;stroke-miterlimit:10;}
	.st1{fill:#15CCBA;}
	.st2{fill:none;stroke:#333333;stroke-width:4;stroke-linecap:round;stroke-linejoin:round;stroke-miterlimit:10;}
	.st3{fill:none;stroke:#333333;stroke-width:2.5857;stroke-linecap:round;stroke-linejoin:round;stroke-miterlimit:10;}
	.st4{fill:none;stroke:#EC1C24;stroke-width:2;stroke-linecap:round;stroke-linejoin:round;}
	.st5{fill:#EC1C24;}
	.st6{fill:none;stroke:#15CCBA;stroke-width:2;stroke-linecap:round;stroke-linejoin:round;}
	.st7{font-family:'Nunito-Regular';}
	.st8{font-size:8px;}
	.st9{fill:none;stroke:#EC1C24;stroke-width:2.5857;stroke-linecap:round;stroke-linejoin:round;stroke-miterlimit:10;}
	.st10{fill:none;stroke:#EC1C24;stroke-width:2;stroke-linecap:round;stroke-linejoin:round;stroke-miterlimit:10;}
</style>
<g>
	<circle class="st0" cx="279.2" cy="219.6" r="14.1"/>
	<g>
		<path class="st1" d="M278.3,219.9l-2.7-10.3l4.4,9.6c0.2,0.4,0,1-0.4,1.2c-0.4,0.2-1,0-1.2-0.4C278.3,220,278.3,219.9,278.3,219.9
			z"/>
	</g>
	<g>
		<path class="st2" d="M197.8,170.4h-24.9c-5.6,0-10.1-4.5-10.1-10.1v-24.9c0-5.6,4.5-10.1,10.1-10.1h24.9c5.6,0,10.1,4.5,10.1,10.1
			v24.9C207.9,165.9,203.4,170.4,197.8,170.4z"/>
		<path class="st2" d="M118.1,170.4H93.2c-5.6,0-10.1-4.5-10.1-10.1v-24.9c0-5.6,4.5-10.1,10.1-10.1h24.9c5.6,0,10.1,4.5,10.1,10.1
			v24.9C128.2,165.9,123.6,170.4,118.1,170.4z"/>
		<line class="st2" x1="162.8" y1="147.8" x2="128.2" y2="147.8"/>
		<path class="st2" d="M277.5,170.4h-24.9c-5.6,0-10.1-4.5-10.1-10.1v-24.9c0-5.6,4.5-10.1,10.1-10.1h24.9c5.6,0,10.1,4.5,10.1,10.1
			v24.9C287.6,165.9,283.1,170.4,277.5,170.4z"/>
		<line class="st2" x1="242.5" y1="147.8" x2="207.9" y2="147.8"/>
		<line class="st2" x1="322.2" y1="147.8" x2="287.6" y2="147.8"/>
		<line class="st2" x1="82.2" y1="147.8" x2="59" y2="147.8"/>
		<path class="st2" d="M357.7,170.4h-24.9c-5.6,0-10.1-4.5-10.1-10.1v-24.9c0-5.6,4.5-10.1,10.1-10.1h24.9c5.6,0,10.1,4.5,10.1,10.1
			v24.9C367.8,165.9,363.3,170.4,357.7,170.4z"/>
		<line class="st2" x1="391" y1="147.8" x2="367.8" y2="147.8"/>
	</g>
	<g>
		<g>
			<path class="st3" d="M289,292.8v11.6c0,1.7-10.5,3.1-23.4,3.1c-12.9,0-23.4-1.4-23.4-3.1v-11.6"/>
			<circle class="st1" cx="247.2" cy="299.7" r="1.5"/>
		</g>
		<g>
			<path class="st3" d="M289,310v11.6c0,1.7-10.5,3.1-23.4,3.1c-12.9,0-23.4-1.4-23.4-3.1V310"/>
			<circle class="st1" cx="247.2" cy="316.9" r="1.5"/>
		</g>
		<g>
			<path class="st3" d="M289,274.7v12.5c0,1.7-10.5,3.1-23.4,3.1c-12.9,0-23.4-1.4-23.4-3.1v-12.5"/>
			<ellipse class="st3" cx="265.7" cy="274.7" rx="23.4" ry="3.1"/>
			<circle class="st1" cx="247.2" cy="282.5" r="1.5"/>
		</g>
	</g>
	<g>
		<g>
			<line class="st4" x1="252.5" y1="182.2" x2="252.5" y2="258.8"/>
			<g>
				<polygon class="st5" points="246.8,254.2 247.8,253.2 252.5,258.3 257.2,253.2 258.3,254.2 252.6,260.3 				"/>
			</g>
		</g>
	</g>
	<g>
		<g>
			<line class="st6" x1="279.1" y1="255" x2="279.1" y2="258.8"/>
		</g>
	</g>
	<g>
		<g>
			<line class="st6" x1="279.1" y1="247.1" x2="279.1" y2="250.9"/>
		</g>
	</g>
	<g>
		<g>
			<line class="st6" x1="279.1" y1="239.2" x2="279.1" y2="242.9"/>
		</g>
	</g>
	<text transform="matrix(6.123234e-17 -1 1 6.123234e-17 245.6927 235.9678)" class="st7 st8">Challenge</text>
	<text transform="matrix(6.123234e-17 1 -1 6.123234e-17 297.7305 202.261)" class="st7 st8">Respond</text>
	<g>
		<g>
			<path class="st9" d="M128.9,292.8v11.6c0,1.7-10.5,3.1-23.4,3.1s-23.4-1.4-23.4-3.1v-11.6"/>
			<circle class="st1" cx="87.1" cy="299.7" r="1.5"/>
		</g>
		<g>
			<path class="st9" d="M128.9,310v11.6c0,1.7-10.5,3.1-23.4,3.1s-23.4-1.4-23.4-3.1V310"/>
			<circle class="st1" cx="87.1" cy="316.9" r="1.5"/>
		</g>
		<g>
			<path class="st9" d="M128.9,274.7v12.5c0,1.7-10.5,3.1-23.4,3.1s-23.4-1.4-23.4-3.1v-12.5"/>
			<ellipse class="st9" cx="105.5" cy="274.7" rx="23.4" ry="3.1"/>
			<circle class="st1" cx="87.1" cy="282.5" r="1.5"/>
		</g>
	</g>
	<g>
		<g>
			<line class="st4" x1="92.4" y1="182.2" x2="92.4" y2="258.8"/>
			<g>
				<polygon class="st5" points="86.7,254.2 87.7,253.2 92.4,258.3 97.1,253.2 98.2,254.2 92.4,260.3 				"/>
			</g>
		</g>
	</g>
	<g>
		<g>
			<line class="st4" x1="119" y1="232.8" x2="119" y2="258.8"/>
		</g>
	</g>
	<text transform="matrix(6.123234e-17 -1 1 6.123234e-17 85.5632 235.9678)" class="st7 st8">Challenge</text>
	<text transform="matrix(6.123234e-17 1 -1 6.123234e-17 137.6006 202.261)" class="st7 st8">Respond</text>
	<line class="st10" x1="110" y1="210.8" x2="127.9" y2="228.6"/>
	<line class="st10" x1="110" y1="228.6" x2="127.9" y2="210.8"/>
</g>
</svg>
