<?xml version="1.0" encoding="utf-8"?>
<!-- Generator: Adobe Illustrator 23.0.2, SVG Export Plug-In . SVG Version: 6.00 Build 0)  -->
<svg version="1.1" id="_x2014_ÎÓÈ_x5F_1" xmlns="http://www.w3.org/2000/svg" xmlns:xlink="http://www.w3.org/1999/xlink"
	 x="0px" y="0px" viewBox="0 0 600 450" style="enable-background:new 0 0 600 450;" xml:space="preserve">
<style type="text/css">
	.st0{opacity:0.3;fill:#0B0244;enable-background:new    ;}
	.st1{fill:#312A91;}
	.st2{opacity:0.5;fill:url(#SVGID_1_);enable-background:new    ;}
	.st3{fill:url(#SVGID_2_);}
	.st4{opacity:0.7;fill:url(#SVGID_3_);enable-background:new    ;}
	.st5{opacity:0.4;}
	.st6{opacity:0.5;fill:url(#SVGID_4_);enable-background:new    ;}
	.st7{opacity:0.7;fill:url(#SVGID_5_);enable-background:new    ;}
	.st8{fill:#180D5B;}
	.st9{opacity:0.5;fill:url(#SVGID_6_);enable-background:new    ;}
	.st10{opacity:0.5;fill:url(#SVGID_7_);enable-background:new    ;}
	.st11{opacity:0.9;fill:url(#SVGID_8_);enable-background:new    ;}
	.st12{opacity:0.2;fill:#FCCC6B;enable-background:new    ;}
	.st13{opacity:0.6;fill:#FCCC6B;enable-background:new    ;}
	.st14{fill:#FCCC6B;}
	.st15{fill:#42E8E0;}
	.st16{opacity:0.67;}
	.st17{fill:#0F054C;}
	.st18{fill:url(#SVGID_9_);}
	.st19{opacity:0.9;}
	.st20{fill:#080344;}
	.st21{fill:url(#SVGID_10_);}
	.st22{fill:#BCBEFF;}
	.st23{fill:url(#SVGID_11_);}
	.st24{fill:#5351AF;}
	.st25{fill:url(#SVGID_12_);}
	.st26{fill:url(#SVGID_13_);}
	.st27{fill:url(#SVGID_14_);}
	.st28{fill:url(#SVGID_15_);}
	.st29{fill:#453C9E;}
	.st30{fill:#24126A;}
	.st31{fill:#FFFFFF;}
	.st32{fill:#050037;}
	.st33{fill:url(#SVGID_16_);}
	.st34{fill:url(#SVGID_17_);}
	.st35{fill:url(#SVGID_18_);}
	.st36{fill:url(#SVGID_19_);}
	.st37{opacity:0.5;fill:url(#SVGID_20_);enable-background:new    ;}
	.st38{fill:url(#SVGID_21_);}
	.st39{opacity:0.7;fill:url(#SVGID_22_);enable-background:new    ;}
	.st40{opacity:0.5;fill:url(#SVGID_23_);enable-background:new    ;}
	.st41{opacity:0.7;fill:url(#SVGID_24_);enable-background:new    ;}
	.st42{opacity:0.5;fill:url(#SVGID_25_);enable-background:new    ;}
	.st43{opacity:0.5;fill:url(#SVGID_26_);enable-background:new    ;}
	.st44{opacity:0.9;fill:url(#SVGID_27_);enable-background:new    ;}
	.st45{fill:url(#SVGID_28_);}
	.st46{fill:url(#SVGID_29_);}
	.st47{opacity:0.51;}
	.st48{fill:url(#SVGID_30_);}
	.st49{fill:url(#SVGID_31_);}
	.st50{fill:#2842A2;}
	.st51{fill:#ADB1F2;}
	.st52{fill:#9198DB;}
	.st53{fill:url(#SVGID_32_);}
	.st54{opacity:0.11;}
	.st55{clip-path:url(#SVGID_34_);}
	.st56{fill:url(#SVGID_35_);}
	.st57{fill:url(#SVGID_36_);}
</style>
<g>
	<path class="st0" d="M75.17,428.64L31.7,403.54c-1.62-0.94-1.41-2.58,0.46-3.66l83.32-48.11c1.87-1.08,4.71-1.21,6.33-0.27
		l43.47,25.09c1.62,0.94,1.41,2.58-0.46,3.66l-83.32,48.11C79.64,429.45,76.8,429.56,75.17,428.64z"/>
	<g>
		<path class="st1" d="M166.37,355.7l-5.78,1.02l-40.71-23.49c-1.69-0.99-4.66-0.86-6.61,0.28l-78.35,45.24l-10.17,1.78v3.31l0,0
			c-0.01,0.63,0.36,1.24,1.14,1.69l45.34,26.17c1.69,0.99,4.66,0.86,6.61-0.28l86.91-50.18c1.07-0.61,1.61-1.4,1.61-2.15l0,0V355.7
			L166.37,355.7z"/>
		
			<radialGradient id="SVGID_1_" cx="3.4688" cy="723.5937" r="111.432" gradientTransform="matrix(1 0 0 1 0 -340)" gradientUnits="userSpaceOnUse">
			<stop  offset="0" style="stop-color:#42E8E0"/>
			<stop  offset="0.0157" style="stop-color:#40D8D7"/>
			<stop  offset="0.0607" style="stop-color:#3AAFC0"/>
			<stop  offset="0.1112" style="stop-color:#3589AC"/>
			<stop  offset="0.1662" style="stop-color:#30699A"/>
			<stop  offset="0.227" style="stop-color:#2C4D8B"/>
			<stop  offset="0.2957" style="stop-color:#29377F"/>
			<stop  offset="0.3758" style="stop-color:#272675"/>
			<stop  offset="0.475" style="stop-color:#251B6F"/>
			<stop  offset="0.614" style="stop-color:#24146B"/>
			<stop  offset="1" style="stop-color:#24126A"/>
		</radialGradient>
		<path class="st2" d="M166.37,355.7l-5.78,1.02l-40.71-23.49c-1.69-0.99-4.66-0.86-6.61,0.28l-78.35,45.24l-10.17,1.78v3.31l0,0
			c-0.01,0.63,0.36,1.24,1.14,1.69l45.34,26.17c1.69,0.99,4.66,0.86,6.61-0.28l86.91-50.18c1.07-0.61,1.61-1.4,1.61-2.15l0,0V355.7
			L166.37,355.7z"/>
		
			<radialGradient id="SVGID_2_" cx="74.5738" cy="756.0201" r="197.4691" gradientTransform="matrix(1 0 0 1 0 -340)" gradientUnits="userSpaceOnUse">
			<stop  offset="0" style="stop-color:#42E8E0"/>
			<stop  offset="0.1022" style="stop-color:#3CCACE"/>
			<stop  offset="0.3445" style="stop-color:#2F87A5"/>
			<stop  offset="0.564" style="stop-color:#255385"/>
			<stop  offset="0.7534" style="stop-color:#1E2D6E"/>
			<stop  offset="0.905" style="stop-color:#1A1660"/>
			<stop  offset="1" style="stop-color:#180D5B"/>
		</radialGradient>
		<path class="st3" d="M164.76,359.19l-86.91,50.18c-1.95,1.12-4.92,1.24-6.61,0.28L25.9,383.47c-0.79-0.46-1.16-1.07-1.14-1.69l0,0
			v0.88l0,0c-0.01,0.63,0.36,1.24,1.14,1.69l45.34,26.17c1.69,0.99,4.66,0.86,6.61-0.28l86.91-50.18c1.07-0.61,1.61-1.4,1.61-2.15
			l0,0v-0.88l0,0C166.37,357.8,165.83,358.58,164.76,359.19z"/>
		<path class="st1" d="M71.25,408.3l-45.34-26.17c-1.69-0.99-1.49-2.69,0.47-3.81l86.91-50.18c1.95-1.12,4.92-1.24,6.61-0.28
			l45.34,26.17c1.69,0.99,1.49,2.69-0.47,3.81l-86.91,50.18C75.91,409.16,72.94,409.29,71.25,408.3z"/>
		
			<linearGradient id="SVGID_3_" gradientUnits="userSpaceOnUse" x1="24.7701" y1="708.0934" x2="166.3868" y2="708.0934" gradientTransform="matrix(1 0 0 1 0 -340)">
			<stop  offset="0" style="stop-color:#180D5B"/>
			<stop  offset="0.095" style="stop-color:#1A1660"/>
			<stop  offset="0.2466" style="stop-color:#1E2D6E"/>
			<stop  offset="0.436" style="stop-color:#255385"/>
			<stop  offset="0.6555" style="stop-color:#2F87A5"/>
			<stop  offset="0.8978" style="stop-color:#3CCACE"/>
			<stop  offset="1" style="stop-color:#42E8E0"/>
		</linearGradient>
		<path class="st4" d="M71.25,408.3l-45.34-26.17c-1.69-0.99-1.49-2.69,0.47-3.81l86.91-50.18c1.95-1.12,4.92-1.24,6.61-0.28
			l45.34,26.17c1.69,0.99,1.49,2.69-0.47,3.81l-86.91,50.18C75.91,409.16,72.94,409.29,71.25,408.3z"/>
	</g>
	<g class="st5">
		
			<radialGradient id="SVGID_4_" cx="23.3639" cy="722.2033" r="57.0081" gradientTransform="matrix(1 0 0 1 0 -340)" gradientUnits="userSpaceOnUse">
			<stop  offset="0" style="stop-color:#42E8E0"/>
			<stop  offset="0.1022" style="stop-color:#3CCACE"/>
			<stop  offset="0.3445" style="stop-color:#2F87A5"/>
			<stop  offset="0.564" style="stop-color:#255385"/>
			<stop  offset="0.7534" style="stop-color:#1E2D6E"/>
			<stop  offset="0.905" style="stop-color:#1A1660"/>
			<stop  offset="1" style="stop-color:#180D5B"/>
		</radialGradient>
		<path class="st6" d="M166.37,355l-5.78,1.02l-40.71-23.49c-1.69-0.99-4.66-0.86-6.61,0.28l-78.35,45.24l-10.17,1.78v0.62l0,0
			c-0.01,0.63,0.36,1.24,1.14,1.69l45.34,26.17c1.69,0.99,4.66,0.86,6.61-0.28l86.91-50.18c1.07-0.61,1.61-1.4,1.61-2.15l0,0V355
			L166.37,355z"/>
		
			<radialGradient id="SVGID_5_" cx="26.5568" cy="708.1341" r="117.6514" gradientTransform="matrix(1 0 0 1 0 -340)" gradientUnits="userSpaceOnUse">
			<stop  offset="0" style="stop-color:#42E8E0"/>
			<stop  offset="0.1022" style="stop-color:#3CCACE"/>
			<stop  offset="0.3445" style="stop-color:#2F87A5"/>
			<stop  offset="0.564" style="stop-color:#255385"/>
			<stop  offset="0.7534" style="stop-color:#1E2D6E"/>
			<stop  offset="0.905" style="stop-color:#1A1660"/>
			<stop  offset="1" style="stop-color:#180D5B"/>
		</radialGradient>
		<path class="st7" d="M71.25,407.62l-45.34-26.17c-1.69-0.99-1.49-2.69,0.47-3.81l86.91-50.18c1.95-1.12,4.92-1.24,6.61-0.28
			l45.34,26.17c1.69,0.99,1.49,2.69-0.47,3.81l-86.91,50.18C75.91,408.48,72.94,408.59,71.25,407.62z"/>
		<path class="st1" d="M71.25,407.62l-45.34-26.17c-1.69-0.99-1.49-2.69,0.47-3.81l86.91-50.18c1.95-1.12,4.92-1.24,6.61-0.28
			l45.34,26.17c1.69,0.99,1.49,2.69-0.47,3.81l-86.91,50.18C75.91,408.48,72.94,408.59,71.25,407.62z"/>
	</g>
	<g>
		<g>
			<g>
				<path class="st8" d="M60.17,403.67c0,0.32-0.22,0.46-0.51,0.29c-0.28-0.17-0.51-0.56-0.51-0.89c0-0.32,0.22-0.46,0.51-0.29
					C59.96,402.95,60.17,403.33,60.17,403.67z"/>
				<path class="st8" d="M62.19,404.81c0,0.32-0.22,0.46-0.51,0.29c-0.28-0.17-0.51-0.56-0.51-0.89c0-0.32,0.22-0.46,0.51-0.29
					C61.95,404.09,62.19,404.49,62.19,404.81z"/>
				<path class="st8" d="M64.18,405.98c0,0.32-0.22,0.46-0.51,0.29c-0.28-0.17-0.51-0.56-0.51-0.89c0-0.32,0.22-0.46,0.51-0.29
					C63.97,405.26,64.18,405.65,64.18,405.98z"/>
			</g>
			<g>
				<path class="st8" d="M32.58,387.73c0,0.32-0.22,0.46-0.51,0.29c-0.28-0.17-0.51-0.56-0.51-0.89c0-0.32,0.22-0.46,0.51-0.29
					C32.34,387,32.58,387.4,32.58,387.73z"/>
				<path class="st8" d="M34.58,388.87c0,0.32-0.22,0.46-0.51,0.29c-0.28-0.17-0.51-0.56-0.51-0.89c0-0.32,0.22-0.46,0.51-0.29
					C34.35,388.17,34.58,388.55,34.58,388.87z"/>
				<path class="st8" d="M36.59,390.04c0,0.32-0.22,0.46-0.51,0.29c-0.28-0.17-0.51-0.56-0.51-0.89c0-0.32,0.22-0.46,0.51-0.29
					C36.36,389.31,36.59,389.72,36.59,390.04z"/>
			</g>
		</g>
	</g>
	
		<radialGradient id="SVGID_6_" cx="35.8902" cy="713.7834" r="96.2829" gradientTransform="matrix(1 0 0 1 0 -340)" gradientUnits="userSpaceOnUse">
		<stop  offset="0" style="stop-color:#42E8E0"/>
		<stop  offset="0.1022" style="stop-color:#3CCACE"/>
		<stop  offset="0.3445" style="stop-color:#2F87A5"/>
		<stop  offset="0.564" style="stop-color:#255385"/>
		<stop  offset="0.7534" style="stop-color:#1E2D6E"/>
		<stop  offset="0.905" style="stop-color:#1A1660"/>
		<stop  offset="1" style="stop-color:#180D5B"/>
	</radialGradient>
	<path class="st9" d="M71.25,407.62l-45.34-26.17c-1.69-0.99-1.49-2.69,0.47-3.81l86.91-50.18c1.95-1.12,4.92-1.24,6.61-0.28
		l45.34,26.17c1.69,0.99,1.49,2.69-0.47,3.81l-86.91,50.18C75.91,408.48,72.94,408.59,71.25,407.62z"/>
	
		<radialGradient id="SVGID_7_" cx="23.3637" cy="714.2746" r="136.0984" gradientTransform="matrix(1 0 0 1 0 -340)" gradientUnits="userSpaceOnUse">
		<stop  offset="0" style="stop-color:#42E8E0"/>
		<stop  offset="0.1022" style="stop-color:#3CCACE"/>
		<stop  offset="0.3445" style="stop-color:#2F87A5"/>
		<stop  offset="0.564" style="stop-color:#255385"/>
		<stop  offset="0.7534" style="stop-color:#1E2D6E"/>
		<stop  offset="0.905" style="stop-color:#1A1660"/>
		<stop  offset="1" style="stop-color:#180D5B"/>
	</radialGradient>
	<path class="st10" d="M71.25,407.62l-45.34-26.17c-1.69-0.99-1.49-2.69,0.47-3.81l86.91-50.18c1.95-1.12,4.92-1.24,6.61-0.28
		l45.34,26.17c1.69,0.99,1.49,2.69-0.47,3.81l-86.91,50.18C75.91,408.48,72.94,408.59,71.25,407.62z"/>
	
		<radialGradient id="SVGID_8_" cx="23.3631" cy="713.7827" r="181.8312" gradientTransform="matrix(1 0 0 1 0 -340)" gradientUnits="userSpaceOnUse">
		<stop  offset="0" style="stop-color:#42E8E0"/>
		<stop  offset="0.1022" style="stop-color:#3CCACE"/>
		<stop  offset="0.3445" style="stop-color:#2F87A5"/>
		<stop  offset="0.564" style="stop-color:#255385"/>
		<stop  offset="0.7534" style="stop-color:#1E2D6E"/>
		<stop  offset="0.905" style="stop-color:#1A1660"/>
		<stop  offset="1" style="stop-color:#180D5B"/>
	</radialGradient>
	<path class="st11" d="M72.04,407.59L26.7,381.42c-1.84-1.1-2.16-2.28,0.47-3.81l86.91-50.18c0.89-0.51,1.97-0.8,3.05-0.9
		c-1.33-0.01-2.73,0.3-3.82,0.93L26.4,377.64c-1.95,1.12-2.16,2.84-0.47,3.81l45.34,26.17c0.93,0.55,2.25,0.74,3.57,0.62
		C73.78,408.24,72.78,408.01,72.04,407.59z"/>
	<path class="st8" d="M50.19,397.89L50.19,397.89c0,0.41-0.25,0.58-0.55,0.42l-3.57-2.06c-0.3-0.18-0.55-0.63-0.55-1.04l0,0
		c0-0.41,0.25-0.58,0.55-0.42l3.57,2.06C49.94,397.02,50.19,397.5,50.19,397.89z"/>
	<g>
		<path class="st12" d="M153.16,359.32c0.51,0.29,0.51,0.77,0,1.08c-0.51,0.29-1.35,0.29-1.85,0c-0.51-0.29-0.51-0.77,0-1.08
			C151.81,359.03,152.64,359.03,153.16,359.32z"/>
		<path class="st13" d="M156.05,357.64c0.51,0.29,0.51,0.77,0,1.08c-0.51,0.29-1.35,0.29-1.85,0c-0.51-0.29-0.51-0.77,0-1.08
			C154.71,357.35,155.53,357.35,156.05,357.64z"/>
		<path class="st14" d="M158.95,355.98c0.51,0.29,0.51,0.77,0,1.08c-0.51,0.29-1.35,0.29-1.85,0c-0.51-0.29-0.51-0.77,0-1.08
			C157.6,355.66,158.44,355.66,158.95,355.98z"/>
	</g>
</g>
<path class="st15" d="M477.03,192.39c-4.8,0-9.61-1.05-13.26-3.16c-3.67-2.12-5.7-4.98-5.7-8.06c0-3.07,2.02-5.93,5.7-8.06
	c7.32-4.23,19.22-4.23,26.52,0c3.67,2.12,5.7,4.98,5.7,8.06c0,3.07-2.02,5.93-5.7,8.06C486.64,191.34,481.85,192.39,477.03,192.39z
	 M477.03,171.32c-4.54,0-9.11,1-12.58,3c-3.22,1.85-5,4.3-5,6.87c0,2.56,1.78,4.99,5,6.87c6.93,4,18.2,4,25.13,0
	c3.22-1.85,5-4.3,5-6.87c0-2.56-1.78-4.99-5-6.87C486.14,172.33,481.58,171.32,477.03,171.32z"/>
<g>
	<g>
		<g class="st16">
			<polygon class="st17" points="175.71,287.36 47.87,213.54 175.71,139.73 303.57,213.54 			"/>
		</g>
		<g class="st16">
			<polygon class="st17" points="175.71,275.92 67.69,213.54 175.71,151.19 283.74,213.54 			"/>
		</g>
		<g>
			
				<linearGradient id="SVGID_9_" gradientUnits="userSpaceOnUse" x1="66.6004" y1="553.5425" x2="284.7928" y2="553.5425" gradientTransform="matrix(1 0 0 1 0 -340)">
				<stop  offset="0" style="stop-color:#5761D7"/>
				<stop  offset="0.0726" style="stop-color:#5472D8"/>
				<stop  offset="0.2791" style="stop-color:#4E9CDB"/>
				<stop  offset="0.4801" style="stop-color:#49BDDD"/>
				<stop  offset="0.6715" style="stop-color:#45D5DF"/>
				<stop  offset="0.8493" style="stop-color:#43E3E0"/>
				<stop  offset="1" style="stop-color:#42E8E0"/>
			</linearGradient>
			<path class="st18" d="M175.71,276.54l-0.27-0.17L66.6,213.54l109.1-63l0.27,0.17l108.83,62.84L175.71,276.54z M68.78,213.54
				l106.94,61.74l106.94-61.74L175.72,151.8L68.78,213.54z"/>
		</g>
		<g class="st19">
			<polygon class="st20" points="175.71,262.61 90.73,213.54 175.71,164.48 260.69,213.54 			"/>
		</g>
	</g>
	<g>
		<g>
			<g>
				
					<linearGradient id="SVGID_10_" gradientUnits="userSpaceOnUse" x1="109.2869" y1="553.7123" x2="235.4805" y2="553.7123" gradientTransform="matrix(1 0 0 1 0 -340)">
					<stop  offset="0" style="stop-color:#42E8E0"/>
					<stop  offset="0.5071" style="stop-color:#5761D7"/>
					<stop  offset="0.5429" style="stop-color:#5472D8"/>
					<stop  offset="0.6446" style="stop-color:#4E9CDB"/>
					<stop  offset="0.7437" style="stop-color:#49BDDD"/>
					<stop  offset="0.8381" style="stop-color:#45D5DF"/>
					<stop  offset="0.9257" style="stop-color:#43E3E0"/>
					<stop  offset="1" style="stop-color:#42E8E0"/>
				</linearGradient>
				<path class="st21" d="M172.38,250.4c-0.46,0-0.94-0.11-1.35-0.36l-61.03-35.24c-0.44-0.25-0.72-0.72-0.72-1.26
					c0-0.52,0.27-1,0.72-1.26l60-34.64c1.47-0.85,3.29-0.85,4.75,0l60,34.64c0.44,0.27,0.72,0.72,0.72,1.26c0,0.52-0.27,1-0.72,1.26
					l-61.03,35.24C173.3,250.29,172.84,250.4,172.38,250.4z M172.37,178.1c-0.63,0-1.27,0.17-1.83,0.5l-59.99,34.64
					c-0.18,0.1-0.18,0.25-0.18,0.32c0,0.06,0.03,0.23,0.18,0.32l61.03,35.24c0.5,0.29,1.12,0.29,1.61,0l61.03-35.24
					c0.18-0.1,0.18-0.25,0.18-0.32c0-0.06-0.03-0.23-0.18-0.32l-60-34.64C173.64,178.26,173.02,178.1,172.37,178.1z"/>
				<g>
					<polygon class="st22" points="172.38,226.9 125.39,199.77 172.37,172.65 219.36,199.77 					"/>
				</g>
				<g>
					
						<linearGradient id="SVGID_11_" gradientUnits="userSpaceOnUse" x1="90.1089" y1="548.7764" x2="231.1879" y2="548.7764" gradientTransform="matrix(1 0 0 1 0 -340)">
						<stop  offset="0" style="stop-color:#5761D7"/>
						<stop  offset="0.1645" style="stop-color:#5E67DA"/>
						<stop  offset="0.4051" style="stop-color:#727AE2"/>
						<stop  offset="0.6924" style="stop-color:#9297EE"/>
						<stop  offset="1" style="stop-color:#BCBEFF"/>
					</linearGradient>
					<polygon class="st23" points="227.42,185.76 227.42,200.01 172.38,231.8 117.32,200.01 117.32,185.76 					"/>
					<polygon class="st22" points="172.38,217.54 117.32,185.76 172.37,153.97 227.42,185.76 					"/>
				</g>
				<g>
					<polygon class="st22" points="172.38,199.99 125.39,172.85 172.37,145.72 219.36,172.85 					"/>
					<polygon class="st24" points="219.36,172.85 219.36,186.42 172.38,213.54 125.39,186.42 125.39,172.85 					"/>
				</g>
				<g>
					
						<linearGradient id="SVGID_12_" gradientUnits="userSpaceOnUse" x1="90.1089" y1="521.8672" x2="231.1879" y2="521.8672" gradientTransform="matrix(1 0 0 1 0 -340)">
						<stop  offset="0" style="stop-color:#5761D7"/>
						<stop  offset="0.1645" style="stop-color:#5E67DA"/>
						<stop  offset="0.4051" style="stop-color:#727AE2"/>
						<stop  offset="0.6924" style="stop-color:#9297EE"/>
						<stop  offset="1" style="stop-color:#BCBEFF"/>
					</linearGradient>
					<polygon class="st25" points="227.42,158.85 227.42,173.1 172.38,204.89 117.32,173.1 117.32,158.85 					"/>
					<polygon class="st22" points="172.38,190.63 117.32,158.85 172.37,127.07 227.42,158.85 					"/>
				</g>
				<g>
					<polygon class="st22" points="172.38,173.06 125.39,145.94 172.37,118.81 219.36,145.94 					"/>
					<polygon class="st24" points="219.36,145.94 219.36,159.51 172.38,186.63 125.39,159.5 125.39,145.94 					"/>
				</g>
				<g>
					
						<linearGradient id="SVGID_13_" gradientUnits="userSpaceOnUse" x1="90.1089" y1="494.9454" x2="231.1879" y2="494.9454" gradientTransform="matrix(1 0 0 1 0 -340)">
						<stop  offset="0" style="stop-color:#5761D7"/>
						<stop  offset="0.1645" style="stop-color:#5E67DA"/>
						<stop  offset="0.4051" style="stop-color:#727AE2"/>
						<stop  offset="0.6924" style="stop-color:#9297EE"/>
						<stop  offset="1" style="stop-color:#BCBEFF"/>
					</linearGradient>
					<polygon class="st26" points="227.42,131.93 227.42,146.18 172.38,177.96 117.32,146.18 117.32,131.93 					"/>
					<polygon class="st22" points="172.38,163.71 117.32,131.93 172.37,100.14 227.42,131.93 					"/>
				</g>
				<g>
					<polygon class="st22" points="172.38,146.16 125.39,119.02 172.37,91.89 219.36,119.02 					"/>
					<polygon class="st24" points="219.36,119.02 219.36,132.59 172.38,159.71 125.39,132.59 125.39,119.02 					"/>
				</g>
				<g>
					
						<linearGradient id="SVGID_14_" gradientUnits="userSpaceOnUse" x1="90.1089" y1="468.0363" x2="231.1879" y2="468.0363" gradientTransform="matrix(1 0 0 1 0 -340)">
						<stop  offset="0" style="stop-color:#5761D7"/>
						<stop  offset="0.1645" style="stop-color:#5E67DA"/>
						<stop  offset="0.4051" style="stop-color:#727AE2"/>
						<stop  offset="0.6924" style="stop-color:#9297EE"/>
						<stop  offset="1" style="stop-color:#BCBEFF"/>
					</linearGradient>
					<polygon class="st27" points="227.42,105.02 227.42,119.27 172.38,151.05 117.32,119.27 117.32,105.02 					"/>
					<polygon class="st22" points="172.38,136.8 117.32,105.02 172.37,73.23 227.42,105.02 					"/>
				</g>
				<g>
					<polygon class="st22" points="172.38,119.23 125.39,92.11 172.37,64.98 219.36,92.11 					"/>
					<polygon class="st24" points="219.36,92.11 219.36,105.68 172.38,132.8 125.39,105.68 125.39,92.11 					"/>
				</g>
				<g>
					
						<linearGradient id="SVGID_15_" gradientUnits="userSpaceOnUse" x1="90.1089" y1="441.1144" x2="231.1879" y2="441.1144" gradientTransform="matrix(1 0 0 1 0 -340)">
						<stop  offset="0" style="stop-color:#5761D7"/>
						<stop  offset="0.1645" style="stop-color:#5E67DA"/>
						<stop  offset="0.4051" style="stop-color:#727AE2"/>
						<stop  offset="0.6924" style="stop-color:#9297EE"/>
						<stop  offset="1" style="stop-color:#BCBEFF"/>
					</linearGradient>
					<polygon class="st28" points="227.42,78.1 227.42,92.35 172.38,124.13 117.32,92.35 117.32,78.1 					"/>
					<polygon class="st22" points="172.38,109.88 117.32,78.1 172.37,46.31 227.42,78.1 					"/>
				</g>
				<polygon class="st29" points="170.02,122.78 165.07,128.59 125.39,105.68 125.39,97.01 				"/>
				<polygon class="st29" points="170.02,149.68 165.07,155.5 125.39,132.59 125.39,123.92 				"/>
				<polygon class="st29" points="170.02,176.59 165.07,182.42 125.39,159.5 125.39,150.84 				"/>
				<polygon class="st29" points="170.02,203.52 165.07,209.33 125.39,186.42 125.39,177.75 				"/>
				<polygon class="st30" points="125.39,103.15 125.39,105.68 172.38,132.8 219.36,105.68 219.36,103.15 172.38,130.28 				"/>
				<polygon class="st30" points="125.39,130.06 125.39,132.59 172.38,159.71 219.36,132.59 219.36,130.06 172.38,157.2 				"/>
				<polygon class="st30" points="125.39,156.98 125.39,159.51 172.38,186.63 219.36,159.51 219.36,156.98 172.38,184.11 				"/>
				<polygon class="st30" points="125.39,183.89 125.39,186.42 172.38,213.54 219.36,186.42 219.36,183.89 172.38,211.03 				"/>
				<polygon class="st31" points="172.38,109.13 117.97,77.73 117.32,78.1 172.38,109.88 227.42,78.1 226.79,77.73 				"/>
				<g>
					<polygon class="st32" points="172.38,109.88 117.32,78.1 172.37,46.31 227.42,78.1 					"/>
				</g>
			</g>
		</g>
	</g>
</g>
<g>
	<g>
		
			<linearGradient id="SVGID_16_" gradientUnits="userSpaceOnUse" x1="-19.0334" y1="10.3721" x2="90.5718" y2="10.3721" gradientTransform="matrix(0.866 -0.5 0 1.1547 138.4501 50.1707)">
			<stop  offset="0" style="stop-color:#5761D7"/>
			<stop  offset="0.1779" style="stop-color:#5C66D9"/>
			<stop  offset="0.3876" style="stop-color:#6A73DF"/>
			<stop  offset="0.6134" style="stop-color:#8289E8"/>
			<stop  offset="0.849" style="stop-color:#A3A7F5"/>
			<stop  offset="1" style="stop-color:#BCBEFF"/>
		</linearGradient>
		<path class="st33" d="M201.56,16.34c-2.4,1.38-4.67,3.35-6.7,5.65c-2.81-9.02-11.37-11.82-21.5-5.97
			c-8.38,4.84-15.69,14.36-19.55,24.45c-1.28,0.04-2.7,0.46-4.21,1.33c-5.47,3.15-9.9,10.83-9.9,17.15c0,0.14,0.01,0.25,0.03,0.39
			c-1.56,0.1-3.29,0.66-5.09,1.7c-6.99,4.05-12.67,13.86-12.67,21.95c0,8.07,5.67,11.35,12.67,7.31l66.96-38.65
			c8.44-4.87,15.3-16.73,15.3-26.48S210.02,11.48,201.56,16.34z"/>
		
			<radialGradient id="SVGID_17_" cx="144.251" cy="383.1848" r="45.2754" fx="101.5544" fy="368.1229" gradientTransform="matrix(1 0 0 1 0 -340)" gradientUnits="userSpaceOnUse">
			<stop  offset="0" style="stop-color:#2B237C"/>
			<stop  offset="1" style="stop-color:#180D5B"/>
		</radialGradient>
		<path class="st34" d="M201.56,16.34c-1.4,0.8-2.73,1.8-4.02,2.94l-7.49-4.33l0,0c-4.11-2.89-10.07-2.77-16.69,1.07
			c-8.38,4.84-15.69,14.36-19.55,24.45c-1.28,0.04-2.7,0.46-4.21,1.33c-5.47,3.15-9.9,10.83-9.9,17.15c0,0.14,0.01,0.25,0.03,0.39
			c-1.56,0.1-3.29,0.66-5.09,1.7c-6.99,4.05-12.67,13.86-12.67,21.95c0,4,1.4,6.82,3.66,8.16h-0.01l0.05,0.04c0,0,0.01,0,0.01,0.01
			l18.34,10.65l4-19.27l53.56-30.92c8.44-4.87,15.3-16.73,15.3-26.48C216.86,15.42,210.02,11.48,201.56,16.34z"/>
		
			<linearGradient id="SVGID_18_" gradientUnits="userSpaceOnUse" x1="121.9545" y1="397.3914" x2="231.038" y2="397.3914" gradientTransform="matrix(1 0 0 1 0 -340)">
			<stop  offset="0" style="stop-color:#5761D7"/>
			<stop  offset="0.1779" style="stop-color:#5C66D9"/>
			<stop  offset="0.3876" style="stop-color:#6A73DF"/>
			<stop  offset="0.6134" style="stop-color:#8289E8"/>
			<stop  offset="0.849" style="stop-color:#A3A7F5"/>
			<stop  offset="1" style="stop-color:#BCBEFF"/>
		</linearGradient>
		<path class="st35" d="M231.04,26.12l-18.58-10.8l0,0c-2.78-1.65-6.63-1.45-10.9,1.02c-1.4,0.8-2.73,1.8-4.02,2.94l-7.49-4.33l0,0
			c-4.11-2.89-10.07-2.77-16.69,1.07c-8.38,4.84-15.69,14.36-19.55,24.45c-1.28,0.04-2.7,0.46-4.21,1.33
			c-5.47,3.15-9.9,10.83-9.9,17.15c0,0.14,0.01,0.25,0.03,0.39c-1.56,0.1-3.29,0.66-5.09,1.7c-6.99,4.05-12.67,13.86-12.67,21.95
			c0,4,1.4,6.82,3.66,8.16h-0.01l0.05,0.04c0,0,0.01,0,0.01,0.01L144,101.84l4-19.27l53.56-30.92c6.84-3.95,12.63-12.49,14.58-20.78
			L231.04,26.12z"/>
		
			<linearGradient id="SVGID_19_" gradientUnits="userSpaceOnUse" x1="2.2193" y1="28.8305" x2="111.8245" y2="28.8305" gradientTransform="matrix(0.866 -0.5 0 1.1547 138.4501 50.1707)">
			<stop  offset="0" style="stop-color:#C0BFF6"/>
			<stop  offset="0.2938" style="stop-color:#C5C4F7"/>
			<stop  offset="0.6399" style="stop-color:#D3D2F9"/>
			<stop  offset="1" style="stop-color:#E9E9FD"/>
		</linearGradient>
		<path class="st36" d="M219.97,27.03c-2.4,1.38-4.67,3.35-6.7,5.65c-2.81-9.02-11.37-11.82-21.5-5.97
			c-8.38,4.84-15.69,14.36-19.55,24.45c-1.28,0.04-2.7,0.46-4.21,1.33c-5.47,3.15-9.9,10.83-9.9,17.15c0,0.14,0.01,0.25,0.03,0.39
			c-1.56,0.1-3.29,0.66-5.09,1.7c-6.99,4.05-12.67,13.86-12.67,21.95c0,8.07,5.67,11.35,12.67,7.31L220,62.34
			c8.44-4.87,15.3-16.73,15.3-26.48S228.41,22.15,219.97,27.03z"/>
	</g>
</g>
<g>
	<path class="st0" d="M498.14,267.69l-139.75-80.71c-1.62-0.94-1.41-2.58,0.46-3.66l83.32-48.11c1.87-1.08,4.71-1.21,6.33-0.27
		l139.74,80.71c1.62,0.94,1.42,2.58-0.46,3.66l-83.32,48.11C502.61,268.51,499.77,268.63,498.14,267.69z"/>
	<g>
		<path class="st1" d="M589.34,194.75l-5.78,1.02l-136.98-79.12c-1.69-0.99-4.66-0.86-6.61,0.28l-78.35,45.24l-10.17,1.78v3.31l0,0
			c-0.01,0.63,0.36,1.24,1.14,1.69l141.6,81.79c1.69,0.99,4.66,0.86,6.61-0.28l86.91-50.18c1.07-0.61,1.61-1.4,1.61-2.15l0,0v-3.38
			h0.01V194.75z"/>
		
			<radialGradient id="SVGID_20_" cx="315.6812" cy="542.6191" r="187.2461" gradientTransform="matrix(1 0 0 1 0 -340)" gradientUnits="userSpaceOnUse">
			<stop  offset="0" style="stop-color:#42E8E0"/>
			<stop  offset="0.0157" style="stop-color:#40D8D7"/>
			<stop  offset="0.0607" style="stop-color:#3AAFC0"/>
			<stop  offset="0.1112" style="stop-color:#3589AC"/>
			<stop  offset="0.1662" style="stop-color:#30699A"/>
			<stop  offset="0.227" style="stop-color:#2C4D8B"/>
			<stop  offset="0.2957" style="stop-color:#29377F"/>
			<stop  offset="0.3758" style="stop-color:#272675"/>
			<stop  offset="0.475" style="stop-color:#251B6F"/>
			<stop  offset="0.614" style="stop-color:#24146B"/>
			<stop  offset="1" style="stop-color:#24126A"/>
		</radialGradient>
		<path class="st37" d="M589.34,194.75l-5.78,1.02l-136.98-79.12c-1.69-0.99-4.66-0.86-6.61,0.28l-78.35,45.24l-10.17,1.78v3.31l0,0
			c-0.01,0.63,0.36,1.24,1.14,1.69l141.6,81.79c1.69,0.99,4.66,0.86,6.61-0.28l86.91-50.18c1.07-0.61,1.61-1.4,1.61-2.15l0,0v-3.38
			h0.01V194.75z"/>
		
			<radialGradient id="SVGID_21_" cx="435.1269" cy="597.8528" r="331.6593" gradientTransform="matrix(1 0 0 1 0 -340)" gradientUnits="userSpaceOnUse">
			<stop  offset="0" style="stop-color:#42E8E0"/>
			<stop  offset="0.1022" style="stop-color:#3CCACE"/>
			<stop  offset="0.3445" style="stop-color:#2F87A5"/>
			<stop  offset="0.564" style="stop-color:#255385"/>
			<stop  offset="0.7534" style="stop-color:#1E2D6E"/>
			<stop  offset="0.905" style="stop-color:#1A1660"/>
			<stop  offset="1" style="stop-color:#180D5B"/>
		</radialGradient>
		<path class="st38" d="M587.73,198.27l-86.91,50.18c-1.95,1.12-4.92,1.24-6.61,0.28l-141.6-81.79c-0.79-0.46-1.16-1.07-1.14-1.69
			l0,0v0.88l0,0c-0.01,0.63,0.36,1.24,1.14,1.69l141.6,81.79c1.69,0.99,4.66,0.86,6.61-0.28l86.91-50.18
			c1.07-0.61,1.61-1.4,1.61-2.15l0,0v-0.88l0,0C589.34,196.85,588.8,197.64,587.73,198.27z"/>
		<path class="st1" d="M494.22,247.37l-141.6-81.79c-1.69-0.99-1.49-2.69,0.47-3.81L440,111.59c1.95-1.12,4.92-1.24,6.61-0.28
			l141.6,81.79c1.69,0.99,1.49,2.69-0.47,3.81l-86.91,50.18C498.88,248.23,495.91,248.36,494.22,247.37z"/>
		
			<linearGradient id="SVGID_22_" gradientUnits="userSpaceOnUse" x1="351.4748" y1="519.3488" x2="589.3551" y2="519.3488" gradientTransform="matrix(1 0 0 1 0 -340)">
			<stop  offset="0" style="stop-color:#180D5B"/>
			<stop  offset="0.095" style="stop-color:#1A1660"/>
			<stop  offset="0.2466" style="stop-color:#1E2D6E"/>
			<stop  offset="0.436" style="stop-color:#255385"/>
			<stop  offset="0.6555" style="stop-color:#2F87A5"/>
			<stop  offset="0.8978" style="stop-color:#3CCACE"/>
			<stop  offset="1" style="stop-color:#42E8E0"/>
		</linearGradient>
		<path class="st39" d="M494.22,247.37l-141.6-81.79c-1.69-0.99-1.49-2.69,0.47-3.81L440,111.59c1.95-1.12,4.92-1.24,6.61-0.28
			l141.6,81.79c1.69,0.99,1.49,2.69-0.47,3.81l-86.91,50.18C498.88,248.23,495.91,248.36,494.22,247.37z"/>
	</g>
	<g class="st5">
		
			<radialGradient id="SVGID_23_" cx="349.1021" cy="541.9632" r="95.8455" gradientTransform="matrix(1 0 0 1 0 -340)" gradientUnits="userSpaceOnUse">
			<stop  offset="0" style="stop-color:#42E8E0"/>
			<stop  offset="0.1022" style="stop-color:#3CCACE"/>
			<stop  offset="0.3445" style="stop-color:#2F87A5"/>
			<stop  offset="0.564" style="stop-color:#255385"/>
			<stop  offset="0.7534" style="stop-color:#1E2D6E"/>
			<stop  offset="0.905" style="stop-color:#1A1660"/>
			<stop  offset="1" style="stop-color:#180D5B"/>
		</radialGradient>
		<path class="st40" d="M589.34,194.07l-5.78,1.02l-136.98-79.12c-1.69-0.99-4.66-0.86-6.61,0.28l-78.35,45.24l-10.17,1.78v0.62l0,0
			c-0.01,0.63,0.36,1.24,1.14,1.69l141.6,81.79c1.69,0.99,4.66,0.86,6.61-0.28l86.91-50.18c1.07-0.61,1.61-1.4,1.61-2.15l0,0v-0.7
			H589.34z"/>
		
			<radialGradient id="SVGID_24_" cx="354.4664" cy="519.8922" r="197.6382" gradientTransform="matrix(1 0 0 1 0 -340)" gradientUnits="userSpaceOnUse">
			<stop  offset="0" style="stop-color:#42E8E0"/>
			<stop  offset="0.1022" style="stop-color:#3CCACE"/>
			<stop  offset="0.3445" style="stop-color:#2F87A5"/>
			<stop  offset="0.564" style="stop-color:#255385"/>
			<stop  offset="0.7534" style="stop-color:#1E2D6E"/>
			<stop  offset="0.905" style="stop-color:#1A1660"/>
			<stop  offset="1" style="stop-color:#180D5B"/>
		</radialGradient>
		<path class="st41" d="M494.22,246.67l-141.6-81.79c-1.69-0.99-1.49-2.69,0.47-3.81L440,110.89c1.95-1.12,4.92-1.24,6.61-0.28
			l141.6,81.79c1.69,0.99,1.49,2.69-0.47,3.81l-86.91,50.18C498.88,247.53,495.91,247.66,494.22,246.67z"/>
		<path class="st1" d="M494.22,246.67l-141.6-81.79c-1.69-0.99-1.49-2.69,0.47-3.81L440,110.89c1.95-1.12,4.92-1.24,6.61-0.28
			l141.6,81.79c1.69,0.99,1.49,2.69-0.47,3.81l-86.91,50.18C498.88,247.53,495.91,247.66,494.22,246.67z"/>
	</g>
	
		<radialGradient id="SVGID_25_" cx="370.145" cy="529.384" r="161.7415" gradientTransform="matrix(1 0 0 1 0 -340)" gradientUnits="userSpaceOnUse">
		<stop  offset="0" style="stop-color:#42E8E0"/>
		<stop  offset="0.1022" style="stop-color:#3CCACE"/>
		<stop  offset="0.3445" style="stop-color:#2F87A5"/>
		<stop  offset="0.564" style="stop-color:#255385"/>
		<stop  offset="0.7534" style="stop-color:#1E2D6E"/>
		<stop  offset="0.905" style="stop-color:#1A1660"/>
		<stop  offset="1" style="stop-color:#180D5B"/>
	</radialGradient>
	<path class="st42" d="M494.22,246.67l-141.6-81.79c-1.69-0.99-1.49-2.69,0.47-3.81L440,110.89c1.95-1.12,4.92-1.24,6.61-0.28
		l141.6,81.79c1.69,0.99,1.49,2.69-0.47,3.81l-86.91,50.18C498.88,247.53,495.91,247.66,494.22,246.67z"/>
	
		<radialGradient id="SVGID_26_" cx="349.1028" cy="530.2095" r="228.6252" gradientTransform="matrix(1 0 0 1 0 -340)" gradientUnits="userSpaceOnUse">
		<stop  offset="0" style="stop-color:#42E8E0"/>
		<stop  offset="0.1022" style="stop-color:#3CCACE"/>
		<stop  offset="0.3445" style="stop-color:#2F87A5"/>
		<stop  offset="0.564" style="stop-color:#255385"/>
		<stop  offset="0.7534" style="stop-color:#1E2D6E"/>
		<stop  offset="0.905" style="stop-color:#1A1660"/>
		<stop  offset="1" style="stop-color:#180D5B"/>
	</radialGradient>
	<path class="st43" d="M494.22,246.67l-141.6-81.79c-1.69-0.99-1.49-2.69,0.47-3.81L440,110.89c1.95-1.12,4.92-1.24,6.61-0.28
		l141.6,81.79c1.69,0.99,1.49,2.69-0.47,3.81l-86.91,50.18C498.88,247.53,495.91,247.66,494.22,246.67z"/>
	
		<radialGradient id="SVGID_27_" cx="349.2357" cy="529.3831" r="290.2427" gradientTransform="matrix(1 0 0 1 0 -340)" gradientUnits="userSpaceOnUse">
		<stop  offset="0" style="stop-color:#42E8E0"/>
		<stop  offset="0.1022" style="stop-color:#3CCACE"/>
		<stop  offset="0.3445" style="stop-color:#2F87A5"/>
		<stop  offset="0.564" style="stop-color:#255385"/>
		<stop  offset="0.7534" style="stop-color:#1E2D6E"/>
		<stop  offset="0.905" style="stop-color:#1A1660"/>
		<stop  offset="1" style="stop-color:#180D5B"/>
	</radialGradient>
	<path class="st44" d="M495.01,246.64l-141.6-81.79c-1.84-1.1-2.16-2.28,0.47-3.81l86.91-50.18c0.89-0.51,1.97-0.8,3.05-0.9
		c-1.33-0.01-2.73,0.3-3.82,0.93l-86.91,50.18c-1.95,1.12-2.16,2.84-0.47,3.81l141.6,81.79c0.93,0.55,2.25,0.74,3.57,0.62
		C496.75,247.29,495.74,247.08,495.01,246.64z"/>
	<g>
		<path class="st12" d="M576.13,198.37c0.51,0.29,0.51,0.77,0,1.08s-1.35,0.29-1.85,0s-0.51-0.77,0-1.08
			C574.78,198.07,575.61,198.08,576.13,198.37z"/>
		<path class="st13" d="M579.02,196.71c0.51,0.29,0.51,0.77,0,1.08c-0.51,0.29-1.35,0.29-1.85,0s-0.51-0.77,0-1.08
			S578.5,196.41,579.02,196.71z"/>
		<ellipse class="st14" cx="580.99" cy="195.58" rx="1.32" ry="0.76"/>
	</g>
	<g>
		<g>
			<g>
				<g>
					<path class="st8" d="M532.36,230.69c0,0.36,0.25,0.5,0.56,0.32s0.56-0.61,0.56-0.95c0-0.36-0.25-0.5-0.56-0.32
						S532.36,230.35,532.36,230.69z"/>
					<path class="st8" d="M530.17,231.95c0,0.36,0.25,0.5,0.56,0.32s0.56-0.61,0.56-0.95c0-0.36-0.25-0.5-0.56-0.32
						C530.42,231.17,530.17,231.6,530.17,231.95z"/>
					<path class="st8" d="M527.97,233.23c0,0.36,0.25,0.5,0.56,0.32s0.56-0.61,0.56-0.95c0-0.36-0.25-0.5-0.56-0.32
						C528.23,232.44,527.97,232.87,527.97,233.23z"/>
				</g>
				<g>
					<path class="st8" d="M562.46,213.31c0,0.36,0.25,0.5,0.56,0.32c0.3-0.18,0.56-0.61,0.56-0.95c0-0.36-0.25-0.5-0.56-0.32
						C562.7,212.53,562.46,212.96,562.46,213.31z"/>
					<path class="st8" d="M560.28,214.58c0,0.36,0.25,0.5,0.56,0.32c0.3-0.18,0.56-0.61,0.56-0.95c0-0.36-0.25-0.5-0.56-0.32
						C560.52,213.79,560.28,214.23,560.28,214.58z"/>
					<path class="st8" d="M558.09,215.84c0,0.36,0.25,0.5,0.56,0.32c0.3-0.18,0.56-0.61,0.56-0.95c0-0.36-0.25-0.5-0.56-0.32
						C558.33,215.05,558.09,215.48,558.09,215.84z"/>
				</g>
			</g>
		</g>
		<path class="st8" d="M543.24,224.41L543.24,224.41c0,0.44,0.27,0.63,0.6,0.44l3.88-2.25c0.33-0.19,0.6-0.7,0.6-1.14l0,0
			c0-0.44-0.27-0.63-0.6-0.44l-3.88,2.25C543.51,223.47,543.24,223.96,543.24,224.41z"/>
	</g>
</g>
<g>
	<g>
		<g>
			<g>
				<g>
					<g>
						<g>
							
								<linearGradient id="SVGID_28_" gradientUnits="userSpaceOnUse" x1="2478.9119" y1="574.0386" x2="2640.8672" y2="574.0386" gradientTransform="matrix(1 0 0 1 -2278.6904 -340)">
								<stop  offset="0" style="stop-color:#C0BFF6"/>
								<stop  offset="0.2938" style="stop-color:#C5C4F7"/>
								<stop  offset="0.6399" style="stop-color:#D3D2F9"/>
								<stop  offset="1" style="stop-color:#E9E9FD"/>
							</linearGradient>
							<path class="st45" d="M362.15,244.12l-17.54-104.07l1.41-0.6l-2.12-1.22v0.01c-0.42-0.28-1-0.27-1.64,0.11L202.07,219.3
								c-1.16,0.66-2.02,2.37-1.82,3.57l17.68,104.89c0.1,0.55,0.36,0.91,0.74,1.07l0,0l2.08,1.19l0.36-1.94l-0.13,0.04
								l139.34-80.45C361.49,247.02,362.34,245.31,362.15,244.12z"/>
							
								<linearGradient id="SVGID_29_" gradientUnits="userSpaceOnUse" x1="2478.9194" y1="615.5648" x2="2506.7393" y2="615.5648" gradientTransform="matrix(1 0 0 1 -2278.6904 -340)">
								<stop  offset="0" style="stop-color:#5761D7"/>
								<stop  offset="0.1779" style="stop-color:#5C66D9"/>
								<stop  offset="0.3876" style="stop-color:#6A73DF"/>
								<stop  offset="0.6134" style="stop-color:#8289E8"/>
								<stop  offset="0.849" style="stop-color:#A3A7F5"/>
								<stop  offset="1" style="stop-color:#BCBEFF"/>
							</linearGradient>
							<path class="st46" d="M202.85,222.15l-2.3-1.03c-0.27,0.6-0.39,1.21-0.29,1.74l17.68,104.89c0.1,0.55,0.36,0.91,0.74,1.07
								l0,0l2.08,1.19l0.36-1.94l-0.13,0.04l7.06-4.07L202.85,222.15z"/>
							<path class="st30" d="M362.53,248.94l-140.19,80.94c-1.08,0.62-2.01,0.27-2.21-0.86l-17.68-104.89
								c-0.2-1.19,0.66-2.89,1.82-3.57l140.19-80.94c1.08-0.62,2.01-0.27,2.21,0.86l17.68,104.89
								C364.55,246.58,363.67,248.28,362.53,248.94z"/>
							<g class="st47">
								<polygon class="st29" points="342.63,146.32 207.5,224.34 224.25,323.14 359.29,245.17 								"/>
							</g>
						</g>
						<g>
							
								<linearGradient id="SVGID_30_" gradientUnits="userSpaceOnUse" x1="2500.5957" y1="662.2941" x2="2729.3362" y2="662.2941" gradientTransform="matrix(1 0 0 1 -2278.6904 -340)">
								<stop  offset="0" style="stop-color:#5761D7"/>
								<stop  offset="0.1779" style="stop-color:#5C66D9"/>
								<stop  offset="0.3876" style="stop-color:#6A73DF"/>
								<stop  offset="0.6134" style="stop-color:#8289E8"/>
								<stop  offset="0.849" style="stop-color:#A3A7F5"/>
								<stop  offset="1" style="stop-color:#BCBEFF"/>
							</linearGradient>
							<path class="st48" d="M450.65,298.61l-7.65,4l-76.72-44.27c-1.29-0.74-3.52-0.65-5,0.2l-132.32,76.4
								c-1.26-0.71-7.04-3.48-7.04-3.48l2.81,7.29l0.01-0.01c0.11,0.32,0.36,0.62,0.77,0.88l80.8,46.65c1.29,0.74,3.52,0.65,5-0.2
								l135.41-78.19c0.61-0.34,0.99-0.77,1.14-1.21h0.01L450.65,298.61z"/>
							
								<linearGradient id="SVGID_31_" gradientUnits="userSpaceOnUse" x1="2577.4656" y1="654.6339" x2="2806.3293" y2="654.6339" gradientTransform="matrix(1 0 0 1 -2278.6904 -340)">
								<stop  offset="0" style="stop-color:#C0BFF6"/>
								<stop  offset="0.2938" style="stop-color:#C5C4F7"/>
								<stop  offset="0.6399" style="stop-color:#D3D2F9"/>
								<stop  offset="1" style="stop-color:#E9E9FD"/>
							</linearGradient>
							<path class="st49" d="M449.48,299.87l-138.77,80.12c-1.52,0.88-3.81,0.96-5.13,0.2l-82.82-47.81
								c-1.32-0.76-1.16-2.08,0.37-2.97l138.77-80.12c1.52-0.88,3.81-0.96,5.13-0.2l82.82,47.81
								C451.15,297.66,450.99,298.99,449.48,299.87z"/>
							<path class="st31" d="M449.48,299.07l-138.77,80.12c-1.52,0.88-3.81,0.96-5.13,0.2l-82.82-47.81c-0.43-0.25-0.7-0.56-0.8-0.9
								c-0.2,0.62,0.04,1.24,0.8,1.69l82.82,47.81c1.32,0.76,3.62,0.66,5.13-0.2l138.77-80.12c1.03-0.6,1.41-1.38,1.18-2.07
								C450.49,298.25,450.11,298.7,449.48,299.07z"/>
							<path class="st50" d="M268.84,362.65v-1.52c0-0.14,0.09-0.2,0.19-0.15l5.37,3.11c0.11,0.06,0.19,0.24,0.19,0.37v1.52
								c0,0.14-0.09,0.2-0.19,0.15l-5.37-3.11C268.93,362.96,268.84,362.8,268.84,362.65z"/>
							<path class="st50" d="M276.87,367.29v-1.52c0-0.14,0.09-0.2,0.19-0.15l5.37,3.11c0.11,0.06,0.19,0.24,0.19,0.37v1.52
								c0,0.14-0.09,0.2-0.19,0.15l-5.37-3.11C276.97,367.6,276.87,367.43,276.87,367.29z"/>
							<path class="st51" d="M244.35,327.9l115.33-66.59c0.76-0.44,1.71-0.44,2.48,0l41.06,23.76c0.6,0.34,0.6,1.19,0,1.54
								l-115.26,66.54c-0.76,0.44-1.71,0.44-2.48,0l-41.11-23.74C243.76,329.1,243.76,328.26,244.35,327.9z"/>
							<path class="st52" d="M244.35,329.45l0.42,0.24l114.91-66.35c0.76-0.44,1.71-0.44,2.48,0l40.64,23.52l0.42-0.24
								c0.6-0.34,0.6-1.19,0-1.54l-41.06-23.76c-0.76-0.44-1.71-0.44-2.48,0l-115.33,66.59
								C243.76,328.26,243.76,329.1,244.35,329.45z"/>
							<g>
								<polygon class="st30" points="365.26,267.36 265.09,325.18 260.62,322.61 360.79,264.78 								"/>
								<polygon class="st30" points="376.16,273.65 282.22,327.89 277.75,325.33 371.72,271.09 								"/>
								<polygon class="st30" points="383.27,277.77 272.65,341.64 268.2,339.06 378.83,275.19 								"/>
								<polygon class="st30" points="390.39,281.87 279.76,345.74 275.32,343.16 385.94,279.29 								"/>
								<polygon class="st30" points="397.5,285.98 286.88,349.84 282.43,347.27 393.04,283.39 								"/>
								<polygon class="st30" points="259.02,328.67 254.58,331.26 250.12,328.67 254.58,326.1 								"/>
								<polygon class="st30" points="274.73,332.22 265.49,337.56 261.04,334.97 270.28,329.64 								"/>
							</g>
							
								<linearGradient id="SVGID_32_" gradientUnits="userSpaceOnUse" x1="2616.229" y1="667.6331" x2="2674.8071" y2="667.6331" gradientTransform="matrix(1 0 0 1 -2278.6904 -340)">
								<stop  offset="0" style="stop-color:#C0BFF6"/>
								<stop  offset="0.2938" style="stop-color:#C5C4F7"/>
								<stop  offset="0.6399" style="stop-color:#D3D2F9"/>
								<stop  offset="1" style="stop-color:#E9E9FD"/>
							</linearGradient>
							<path class="st53" d="M364.1,344.02l31.1-17.95c1.22-0.71,1.22-1.84,0-2.54l-21.26-12.29c-1.22-0.71-3.19-0.71-4.39,0
								l-31.1,17.95c-1.22,0.71-1.22,1.84,0,2.54l21.26,12.29C360.92,344.72,362.89,344.72,364.1,344.02z"/>
							<path class="st52" d="M338.44,330.25l31.1-17.95c1.22-0.71,3.19-0.71,4.39,0l21.26,12.29c0.37,0.22,0.62,0.47,0.76,0.75
								c0.32-0.61,0.09-1.31-0.76-1.79l-21.26-12.29c-1.22-0.71-3.19-0.71-4.39,0l-31.1,17.95c-0.85,0.48-1.08,1.18-0.76,1.79
								C337.82,330.72,338.07,330.46,338.44,330.25z"/>
						</g>
					</g>
					<g class="st54">
						<g>
							<g>
								<defs>
									<polygon id="SVGID_33_" points="342.63,146.32 207.5,224.34 224.25,323.14 359.29,245.17 									"/>
								</defs>
								<clipPath id="SVGID_34_">
									<use xlink:href="#SVGID_33_"  style="overflow:visible;"/>
								</clipPath>
								<g class="st55">
									
										<linearGradient id="SVGID_35_" gradientUnits="userSpaceOnUse" x1="2490.0291" y1="603.9127" x2="2718.8674" y2="603.9127" gradientTransform="matrix(1 0 0 1 -2278.6904 -340)">
										<stop  offset="0" style="stop-color:#C0BFF6"/>
										<stop  offset="0.2938" style="stop-color:#C5C4F7"/>
										<stop  offset="0.6399" style="stop-color:#D3D2F9"/>
										<stop  offset="1" style="stop-color:#E9E9FD"/>
									</linearGradient>
									<path class="st56" d="M362.04,249.14l-138.77,80.12c-1.52,0.88-3.81,0.96-5.13,0.2l-82.8-47.81
										c-1.32-0.76-1.16-2.08,0.37-2.97l138.77-80.12c1.52-0.88,3.81-0.96,5.13-0.2l82.8,47.81
										C363.71,246.94,363.55,248.27,362.04,249.14z"/>
									
										<linearGradient id="SVGID_36_" gradientUnits="userSpaceOnUse" x1="2474.9688" y1="587.1135" x2="2533.5596" y2="587.1135" gradientTransform="matrix(1 0 0 1 -2278.6904 -340)">
										<stop  offset="0" style="stop-color:#C0BFF6"/>
										<stop  offset="0.2938" style="stop-color:#C5C4F7"/>
										<stop  offset="0.6399" style="stop-color:#D3D2F9"/>
										<stop  offset="1" style="stop-color:#E9E9FD"/>
									</linearGradient>
									<path class="st57" d="M222.86,263.5l31.1-17.95c1.22-0.71,1.22-1.84,0-2.54l-21.27-12.29c-1.22-0.71-3.19-0.71-4.39,0
										l-31.1,17.95c-1.22,0.71-1.22,1.84,0,2.54l21.26,12.29C219.67,264.21,221.64,264.21,222.86,263.5z"/>
									<path class="st52" d="M197.18,249.73l31.1-17.95c1.22-0.71,3.19-0.71,4.39,0l21.26,12.29c0.37,0.22,0.62,0.47,0.76,0.75
										c0.32-0.61,0.09-1.31-0.76-1.79l-21.26-12.29c-1.22-0.71-3.19-0.71-4.39,0l-31.1,17.95c-0.85,0.48-1.08,1.18-0.76,1.79
										C196.57,250.21,196.81,249.94,197.18,249.73z"/>
									<g>
										<path class="st51" d="M183.51,291.56l115.33-66.59c0.76-0.44,1.71-0.44,2.48,0l41.06,23.76c0.6,0.34,0.6,1.19,0,1.54
											l-115.26,66.54c-0.76,0.44-1.71,0.44-2.48,0l-41.11-23.74C182.94,292.76,182.94,291.91,183.51,291.56z"/>
										<path class="st52" d="M183.51,293.1l0.42,0.24L298.84,227c0.76-0.44,1.71-0.44,2.48,0l40.64,23.52l0.42-0.24
											c0.6-0.34,0.6-1.19,0-1.54l-41.06-23.76c-0.76-0.44-1.71-0.44-2.48,0l-115.33,66.59
											C182.94,291.91,182.94,292.76,183.51,293.1z"/>
										<g>
											<polygon class="st30" points="331.64,247.11 231.17,305.12 235.16,307.42 335.62,249.42 											"/>
											<polygon class="st30" points="321.05,241.01 225.56,296.13 229.53,298.43 325.04,243.31 											"/>
											<polygon class="st30" points="218.44,300.26 209.52,305.41 213.5,307.7 222.41,302.56 											"/>
											<polygon class="st30" points="226.31,307.94 220.1,311.52 224.08,313.82 230.28,310.24 											"/>
											<polygon class="st30" points="314.42,237.17 202.88,301.57 206.86,303.88 318.4,239.49 											"/>
											<polygon class="st30" points="307.8,233.35 196.25,297.75 200.24,300.04 311.77,235.65 											"/>
											<polygon class="st30" points="301.16,229.52 189.61,293.91 193.59,296.22 305.13,231.83 											"/>
										</g>
									</g>
								</g>
							</g>
						</g>
					</g>
				</g>
			</g>
		</g>
		<g>
			<polygon class="st15" points="258.39,285.47 269.31,279.15 269.63,281.05 258.7,287.38 			"/>
			<polygon class="st15" points="271.08,278.15 277.03,274.71 277.35,276.6 271.4,280.04 			"/>
			<polygon class="st15" points="286.3,269.35 290.6,266.86 290.93,268.76 286.63,271.26 			"/>
			<polygon class="st15" points="283.16,271.17 284.63,270.3 284.95,272.21 283.48,273.07 			"/>
			<polygon class="st15" points="278.81,273.68 281.49,272.14 281.8,274.02 279.13,275.58 			"/>
			<polygon class="st15" points="267.04,270.95 271.33,268.46 271.66,270.37 267.36,272.84 			"/>
			<polygon class="st15" points="256.91,276.8 265.37,271.92 265.68,273.82 257.24,278.69 			"/>
			<g>
				<polygon class="st15" points="269.02,246.02 277.46,241.15 277.79,243.04 269.34,247.93 				"/>
				<polygon class="st15" points="264.68,248.55 267.36,246.99 267.68,248.89 265,250.44 				"/>
			</g>
			<polygon class="st15" points="270.43,254.72 278.87,249.83 279.2,251.73 270.75,256.61 			"/>
			<polygon class="st15" points="266.09,257.22 268.76,255.68 269.09,257.59 266.42,259.12 			"/>
			<polygon class="st15" points="262.8,208.55 246.89,217.74 246.57,215.84 262.46,206.65 			"/>
			<polygon class="st15" points="268.4,205.3 264.46,207.57 264.13,205.68 268.08,203.41 			"/>
			<polygon class="st15" points="296.36,203.46 280.45,212.65 280.13,210.76 296.05,201.56 			"/>
			<polygon class="st15" points="301.96,200.23 298.03,202.5 297.71,200.59 301.64,198.32 			"/>
			<polygon class="st15" points="251.92,219.58 247.62,222.08 247.29,220.18 251.61,217.69 			"/>
			<polygon class="st15" points="278.15,213.96 273.85,216.45 273.52,214.56 277.82,212.06 			"/>
			<polygon class="st15" points="262.03,213.73 253.59,218.62 253.27,216.71 261.71,211.84 			"/>
			<polygon class="st15" points="266.38,211.23 263.72,212.78 263.39,210.88 266.06,209.33 			"/>
			<polygon class="st15" points="276.57,205.35 268.13,210.23 267.82,208.32 276.26,203.45 			"/>
			<polygon class="st15" points="280.93,202.84 278.25,204.38 277.93,202.48 280.6,200.94 			"/>
			<polygon class="st15" points="277.42,209.62 273.11,212.12 272.79,210.21 277.09,207.71 			"/>
			<polygon class="st15" points="287.53,203.78 279.09,208.67 278.77,206.76 287.21,201.89 			"/>
			<polygon class="st15" points="291.88,201.25 289.2,202.81 288.89,200.91 291.56,199.36 			"/>
			<polygon class="st15" points="257.17,221.32 248.34,226.42 248.03,224.52 256.85,219.42 			"/>
			<polygon class="st15" points="265.21,216.66 258.83,220.34 258.51,218.45 264.88,214.76 			"/>
			<polygon class="st15" points="271.19,213.21 266.89,215.7 266.57,213.81 270.87,211.31 			"/>
			<polygon class="st15" points="312.99,193.85 304.18,198.96 303.85,197.07 312.67,191.96 			"/>
			<polygon class="st15" points="321.05,189.21 314.67,192.9 314.35,191 320.73,187.32 			"/>
			<polygon class="st15" points="327.02,185.76 322.71,188.24 322.4,186.34 326.7,183.86 			"/>
			<polygon class="st15" points="309.55,251.16 318.37,246.06 318.69,247.96 309.87,253.07 			"/>
			<polygon class="st15" points="301.5,255.82 307.87,252.14 308.19,254.03 301.82,257.72 			"/>
			<polygon class="st15" points="295.52,259.27 299.84,256.79 300.16,258.68 295.84,261.18 			"/>
			<polygon class="st15" points="306.63,257.64 315.45,252.53 315.77,254.44 306.95,259.54 			"/>
			<polygon class="st15" points="298.57,262.28 304.96,258.6 305.27,260.49 298.9,264.19 			"/>
			<polygon class="st15" points="292.61,265.75 296.91,263.26 297.23,265.15 292.92,267.65 			"/>
			<polygon class="st15" points="271.01,249.61 274,247.89 274.31,249.79 271.33,251.52 			"/>
			<polygon class="st15" points="265.4,252.85 269.34,250.58 269.66,252.48 265.73,254.75 			"/>
			<polygon class="st15" points="257.95,225.62 249.14,230.73 248.81,228.84 257.64,223.73 			"/>
			<polygon class="st15" points="266,220.97 259.62,224.66 259.3,222.76 265.68,219.07 			"/>
			<polygon class="st15" points="271.99,217.53 267.68,220.01 267.36,218.11 271.66,215.62 			"/>
			<polygon class="st15" points="252.84,233.34 249.87,235.06 249.54,233.15 252.52,231.44 			"/>
			<polygon class="st15" points="258.46,230.09 254.51,232.38 254.2,230.49 258.14,228.21 			"/>
			<polygon class="st15" points="266.47,225.46 260.12,229.14 259.81,227.24 266.15,223.57 			"/>
			<polygon class="st15" points="275.06,261.57 278.05,259.86 278.36,261.75 275.38,263.47 			"/>
			<polygon class="st15" points="269.47,264.82 273.4,262.54 273.72,264.43 269.78,266.71 			"/>
			<polygon class="st15" points="261.46,269.45 267.79,265.77 268.11,267.68 261.77,271.34 			"/>
			<polygon class="st15" points="279.59,254.54 285.94,250.86 286.27,252.76 279.93,256.43 			"/>
			<polygon class="st15" points="269.22,260.19 277.78,255.24 278.1,257.14 269.54,262.09 			"/>
			<polygon class="st15" points="264.88,262.7 267.56,261.15 267.88,263.04 265.21,264.6 			"/>
			<polygon class="st15" points="260.72,265.11 263.39,263.56 263.72,265.45 261.04,267.02 			"/>
			<g>
				<polygon class="st15" points="261.28,240.6 269.73,235.73 270.06,237.62 261.61,242.51 				"/>
				<polygon class="st15" points="256.95,243.12 259.62,241.57 259.95,243.47 257.27,245.01 				"/>
				<polygon class="st15" points="261.86,235.5 264.85,233.79 265.16,235.68 262.18,237.4 				"/>
				<polygon class="st15" points="272.39,238.98 275.37,237.26 275.69,239.16 272.7,240.88 				"/>
				<polygon class="st15" points="276.62,236.53 283.78,232.39 284.1,234.29 276.95,238.43 				"/>
				<polygon class="st15" points="285.04,231.68 289.31,229.2 289.62,231.11 285.37,233.57 				"/>
				<polygon class="st15" points="256.27,238.75 260.2,236.48 260.52,238.37 256.58,240.64 				"/>
				<g>
					<polygon class="st15" points="255.9,234.29 258.87,232.57 259.2,234.46 256.21,236.18 					"/>
					<polygon class="st15" points="250.27,237.53 254.21,235.25 254.55,237.15 250.6,239.42 					"/>
				</g>
				<polygon class="st15" points="268.07,241.48 270.74,239.92 271.05,241.82 268.39,243.37 				"/>
				<polygon class="st15" points="263.89,243.89 266.57,242.34 266.89,244.23 264.21,245.78 				"/>
			</g>
			<polygon class="st15" points="284.43,265.68 293.56,260.42 293.89,262.31 284.75,267.57 			"/>
			<polygon class="st15" points="274.21,271.59 282.77,266.65 283.09,268.55 274.54,273.49 			"/>
			<polygon class="st15" points="269.88,274.1 272.55,272.55 272.88,274.45 270.2,275.99 			"/>
			<polygon class="st15" points="265.71,276.51 268.39,274.96 268.7,276.85 266.03,278.4 			"/>
			<polygon class="st15" points="263.42,277.82 257.65,281.17 257.97,283.06 263.74,279.72 			"/>
		</g>
	</g>
</g>
</svg>
