<svg id="Layer_1" data-name="Layer 1" xmlns="http://www.w3.org/2000/svg" viewBox="0 0 800 425"><defs><style>.cls-1{fill:#fff;}.cls-2{fill:#15cbb9;}.cls-3{fill:#bec0c2;}.cls-4{fill:#727272;}.cls-5{fill:#afafaf;}</style></defs><title>blobber concept</title><path class="cls-1" d="M43.84,126.32c-5,0-8.83-7.23-8.83-11.91a8.83,8.83,0,1,1,17.66,0C52.67,119.09,48.88,126.32,43.84,126.32Zm0-19.11a7.22,7.22,0,0,0-7.21,7.2c0,4,3.3,10.28,7.21,10.28s7.2-6.31,7.2-10.28A7.21,7.21,0,0,0,43.84,107.21Z"/><path class="cls-1" d="M56.57,147.26h-26a3.3,3.3,0,0,1-3.29-3.3v-3.09a13.51,13.51,0,0,1,12.31-13.52,4.76,4.76,0,0,1,2.26.33,5.36,5.36,0,0,0,1.86.43,3.8,3.8,0,0,0,1.49-.36,5,5,0,0,1,2.43-.39,13.52,13.52,0,0,1,12.24,13.51V144A3.29,3.29,0,0,1,56.57,147.26ZM40.05,129l-.32,0A11.88,11.88,0,0,0,28.9,140.87V144a1.66,1.66,0,0,0,1.66,1.67h26A1.66,1.66,0,0,0,58.23,144v-3.09A11.9,11.9,0,0,0,47.46,129a3.31,3.31,0,0,0-1.62.27,5.5,5.5,0,0,1-2.14.49,6.63,6.63,0,0,1-2.48-.56A3.2,3.2,0,0,0,40.05,129Z"/><path class="cls-1" d="M755.69,126.32c-5,0-8.83-7.23-8.83-11.91a8.83,8.83,0,1,1,17.66,0C764.52,119.09,760.73,126.32,755.69,126.32Zm0-19.11a7.21,7.21,0,0,0-7.2,7.2c0,4,3.3,10.28,7.2,10.28s7.2-6.31,7.2-10.28A7.21,7.21,0,0,0,755.69,107.21Z"/><path class="cls-1" d="M768.42,147.26h-26a3.3,3.3,0,0,1-3.3-3.3v-3.09a13.52,13.52,0,0,1,12.32-13.52,4.76,4.76,0,0,1,2.26.33,5.25,5.25,0,0,0,1.86.43,3.84,3.84,0,0,0,1.49-.36,5,5,0,0,1,2.43-.39,13.52,13.52,0,0,1,12.24,13.51V144A3.3,3.3,0,0,1,768.42,147.26ZM751.91,129l-.32,0a11.88,11.88,0,0,0-10.84,11.89V144a1.67,1.67,0,0,0,1.67,1.67h26a1.67,1.67,0,0,0,1.67-1.67v-3.09A11.9,11.9,0,0,0,759.32,129a3.34,3.34,0,0,0-1.63.27,5.5,5.5,0,0,1-2.13.49,6.73,6.73,0,0,1-2.49-.56A3.15,3.15,0,0,0,751.91,129Z"/><path class="cls-1" d="M136.08,107.39h-6.65a.8.8,0,0,0-.77.56l-.9,2.72v-.2H108.11a5.49,5.49,0,0,0-5.73,5.19V119h-1.9a.82.82,0,0,0-.81.82V136a7.59,7.59,0,0,0,7.58,7.59h28.83a7.59,7.59,0,0,0,7.59-7.59V115A7.59,7.59,0,0,0,136.08,107.39ZM104,115.66a3.87,3.87,0,0,1,4.1-3.56h19.17L125,119H104ZM142,136a6,6,0,0,1-6,6H107.25a6,6,0,0,1-6-6V120.66h24.28a.8.8,0,0,0,.77-.56L130,109h6.06a6,6,0,0,1,6,6Z"/><path class="cls-1" d="M266.15,57.78h-3.69a.45.45,0,0,0-.43.31l-.5,1.52V59.5H250.61a3,3,0,0,0-3.19,2.88v1.87h-1a.46.46,0,0,0-.45.46v9a4.22,4.22,0,0,0,4.21,4.22h16a4.22,4.22,0,0,0,4.22-4.22V62A4.22,4.22,0,0,0,266.15,57.78Zm-17.82,4.6a2.15,2.15,0,0,1,2.28-2h10.65L260,64.25H248.33ZM269.46,73.7A3.31,3.31,0,0,1,266.15,77h-16a3.31,3.31,0,0,1-3.31-3.31V65.16h13.49a.45.45,0,0,0,.43-.31l2-6.16h3.37A3.31,3.31,0,0,1,269.46,62Z"/><path class="cls-1" d="M266.15,171.89h-3.69a.45.45,0,0,0-.43.31l-.5,1.51v-.11H250.61a3.06,3.06,0,0,0-3.19,2.89v1.87h-1a.45.45,0,0,0-.45.45v9a4.22,4.22,0,0,0,4.21,4.22h16a4.22,4.22,0,0,0,4.22-4.22v-11.7A4.22,4.22,0,0,0,266.15,171.89Zm-17.82,4.6a2.15,2.15,0,0,1,2.28-2h10.65L260,178.36H248.33Zm21.13,11.32a3.31,3.31,0,0,1-3.31,3.31h-16a3.31,3.31,0,0,1-3.31-3.31v-8.54h13.49a.45.45,0,0,0,.43-.31l2-6.16h3.37a3.31,3.31,0,0,1,3.31,3.31Z"/><circle class="cls-2" cx="467.03" cy="76.69" r="0.94"/><circle class="cls-2" cx="467.03" cy="68.82" r="0.94"/><path class="cls-1" d="M478.64,53.75c-.61,0-15.05,0-15.05,2.3V79.66c0,2.27,14.44,2.3,15.05,2.3s15.06,0,15.06-2.3V56.05C493.7,53.77,479.26,53.75,478.64,53.75Zm14.34,18c-.33.65-5.62,1.61-14.34,1.61s-14-1-14.33-1.58V64.72c2.92,1.48,13.8,1.5,14.33,1.5s11.42,0,14.34-1.5Zm0-7.87c-.33.65-5.62,1.61-14.34,1.61s-14-1-14.33-1.58V56.85c2.92,1.48,13.8,1.5,14.33,1.5s11.42,0,14.34-1.5Zm-14.34-9.42c8.58,0,13.85.92,14.32,1.58-.48.66-5.74,1.58-14.32,1.58s-14-1-14.33-1.55h0C464.67,55.41,470,54.47,478.64,54.47Zm0,26.77c-8.71,0-14-1-14.33-1.58V72.59c2.92,1.48,13.8,1.5,14.33,1.5s11.42,0,14.34-1.5v7C492.65,80.28,487.36,81.24,478.64,81.24Z"/><circle class="cls-2" cx="467.03" cy="60.95" r="0.94"/><circle class="cls-2" cx="467.03" cy="190.8" r="0.94"/><circle class="cls-2" cx="467.03" cy="182.93" r="0.94"/><path class="cls-1" d="M478.64,167.85c-.61,0-15.05,0-15.05,2.31v23.6c0,2.28,14.44,2.3,15.05,2.3s15.06,0,15.06-2.3v-23.6C493.7,167.88,479.26,167.85,478.64,167.85Zm14.34,18c-.33.66-5.62,1.61-14.34,1.61s-14-.95-14.33-1.58v-7.07c2.92,1.48,13.8,1.5,14.33,1.5s11.42,0,14.34-1.5Zm0-7.87c-.33.66-5.62,1.61-14.34,1.61s-14-.95-14.33-1.58V171c2.92,1.48,13.8,1.5,14.33,1.5s11.42,0,14.34-1.5Zm-14.34-9.42c8.58,0,13.85.93,14.32,1.59-.47.65-5.74,1.58-14.32,1.58s-14-1-14.33-1.55h0C464.67,169.52,470,168.57,478.64,168.57Zm0,26.77c-8.71,0-14-1-14.33-1.58v-7.07c2.92,1.48,13.8,1.5,14.33,1.5s11.42,0,14.34-1.5v7C492.65,194.39,487.36,195.34,478.64,195.34Z"/><circle class="cls-2" cx="467.03" cy="175.06" r="0.94"/><path class="cls-3" d="M156.1,109.57a.58.58,0,0,1-.54-.37.57.57,0,0,1,.34-.74L240,77.1a.57.57,0,1,1,.39,1.07l-84.1,31.36A.48.48,0,0,1,156.1,109.57Z"/><path class="cls-3" d="M156.1,120.79a.57.57,0,0,1-.08-1.14l84.1-12a.56.56,0,0,1,.65.48.57.57,0,0,1-.48.65l-84.11,12Z"/><path class="cls-3" d="M240.21,176.09a.64.64,0,0,1-.2,0L155.9,144.69a.57.57,0,0,1-.34-.73.57.57,0,0,1,.74-.34L240.4,175a.57.57,0,0,1,.34.73A.56.56,0,0,1,240.21,176.09Z"/><path class="cls-3" d="M643.42,142.85l-.14,1.13,5.77.72L517,175a.56.56,0,0,0-.43.68.58.58,0,0,0,.56.44h.13L649.3,145.81,644.42,149l.62,1,8.92-5.77Z"/><path class="cls-3" d="M645,103.23l-.62,1,4.88,3.16L517.23,77.08a.57.57,0,1,0-.26,1.11l132.08,30.27-5.77.72.14,1.13L654,109Z"/><path class="cls-3" d="M240.21,141.1h-.06L156,132.62a.57.57,0,0,1,.12-1.14l84.1,8.48a.57.57,0,0,1,0,1.14Z"/><circle class="cls-1" cx="258.14" cy="98.37" r="1.8"/><circle class="cls-1" cx="258.14" cy="111.28" r="1.8"/><circle class="cls-1" cx="258.14" cy="124.19" r="1.8"/><circle class="cls-1" cx="258.14" cy="137.11" r="1.8"/><circle class="cls-1" cx="258.14" cy="150.02" r="1.8"/><circle class="cls-1" cx="478.64" cy="115.02" r="1.8"/><circle class="cls-1" cx="478.64" cy="127.93" r="1.8"/><circle class="cls-1" cx="478.64" cy="140.84" r="1.8"/><circle class="cls-1" cx="478.64" cy="153.76" r="1.8"/><circle class="cls-1" cx="570.98" cy="127.38" r="1.01"/><circle class="cls-1" cx="570.98" cy="116.95" r="1.01"/><path class="cls-4" d="M419.87,62.4,419.28,64l8.2,3H299a.86.86,0,0,0,0,1.72H427.47l-8.19,3,.59,1.61,15-5.45Z"/><path class="cls-4" d="M419.87,118.74l-.59,1.62,8.19,3H299a.86.86,0,1,0,0,1.71H427.48l-8.2,3,.59,1.62,15-5.46Z"/><path class="cls-4" d="M419.87,175.09l-.59,1.61,8.2,3H299a.86.86,0,1,0,0,1.72H427.47l-8.19,3,.59,1.61,15-5.45Z"/><path class="cls-5" d="M15.64,162.76h1.27v8c0,3.33,1.2,4.71,3.94,4.71,2.9,0,3.95-1.53,3.95-4.71v-8h1.27v8.39c0,3.5-1.74,5.42-5.22,5.42s-5.21-2-5.21-5.42Z"/><path class="cls-5" d="M30.07,173.19a2.52,2.52,0,0,0,2.9,2.28c1.62,0,2.39-.86,2.39-1.79,0-2.81-6.21-.83-6.21-4.64,0-1.61,1.26-2.77,3.41-2.77s3.46.86,3.74,3H35.16c-.21-1.5-1.22-2-2.62-2s-2.19.68-2.19,1.67c0,2.63,6.21,1,6.21,4.71,0,1.85-1.67,2.82-4,2.82a3.4,3.4,0,0,1-3.68-3.29Z"/><path class="cls-5" d="M39.92,171.64c0,2.09,1.1,3.83,3.25,3.83a2.84,2.84,0,0,0,2.94-2.22h1.25a4,4,0,0,1-4.19,3.23c-3.1,0-4.45-2.2-4.45-5.07s1.69-5.14,4.45-5.14,4.29,1.89,4.27,5.37Zm6.32-.94c0-1.89-1.05-3.42-3.07-3.42s-3,1.59-3.25,3.42Z"/><path class="cls-5" d="M51.27,176.22H50.15v-9.69h1.12v1.82h0a2.92,2.92,0,0,1,3.16-2.08v1.22c-2.53-.06-3.2,1.81-3.2,4Z"/><path class="cls-5" d="M61.38,176.22l5.29-13.46h1.44l5.16,13.46H72L70.41,172H64.28l-1.59,4.23Zm3.33-5.31H70l-2.63-7.07Z"/><path class="cls-5" d="M727.49,162.76h1.27v8c0,3.33,1.2,4.71,4,4.71s3.94-1.53,3.94-4.71v-8h1.28v8.39c0,3.5-1.74,5.42-5.22,5.42s-5.22-2-5.22-5.42Z"/><path class="cls-5" d="M741.92,173.19a2.53,2.53,0,0,0,2.9,2.28c1.63,0,2.4-.86,2.4-1.79,0-2.81-6.21-.83-6.21-4.64,0-1.61,1.25-2.77,3.4-2.77s3.46.86,3.74,3H747c-.21-1.5-1.22-2-2.62-2s-2.19.68-2.19,1.67c0,2.63,6.21,1,6.21,4.71,0,1.85-1.66,2.82-3.94,2.82a3.41,3.41,0,0,1-3.69-3.29Z"/><path class="cls-5" d="M751.78,171.64c0,2.09,1.1,3.83,3.25,3.83a2.84,2.84,0,0,0,2.94-2.22h1.25a4,4,0,0,1-4.19,3.23c-3.1,0-4.45-2.2-4.45-5.07s1.68-5.14,4.45-5.14,4.28,1.89,4.26,5.37Zm6.32-.94c0-1.89-1.05-3.42-3.07-3.42s-3,1.59-3.25,3.42Z"/><path class="cls-5" d="M763.12,176.22H762v-9.69h1.12v1.82h0a2.93,2.93,0,0,1,3.16-2.08v1.22c-2.52-.06-3.2,1.81-3.2,4Z"/><path class="cls-5" d="M774.47,176.22V162.76h4.86c3.16,0,4.42,1.36,4.42,3.38a2.64,2.64,0,0,1-2.15,2.9v0a3.08,3.08,0,0,1,2.76,3.34c0,2.81-1.83,3.8-4.39,3.8Zm1.27-7.52H779c2.65,0,3.52-.93,3.52-2.56s-1-2.3-3.8-2.3h-2.94Zm0,6.44H779c2.8,0,4.11-.38,4.11-2.72s-1.57-2.63-4-2.63h-3.39Z"/><path class="cls-5" d="M98.51,176.22V162.76h8.67v1.08h-7.4v4.86h6.73v1.09H99.78v6.43Z"/><path class="cls-5" d="M109.44,164.42v-1.66h1.24v1.66Zm.06,11.8v-9.69h1.12v9.69Z"/><path class="cls-5" d="M114.12,176.22V162.76h1.12v13.46Z"/><path class="cls-5" d="M119.26,171.64c0,2.09,1.1,3.83,3.25,3.83a2.84,2.84,0,0,0,2.94-2.22h1.25a4,4,0,0,1-4.19,3.23c-3.1,0-4.45-2.2-4.45-5.07s1.68-5.14,4.45-5.14,4.28,1.89,4.27,5.37Zm6.32-.94c0-1.89-1-3.42-3.07-3.42s-3,1.59-3.25,3.42Z"/><path class="cls-5" d="M134,176.22l5.29-13.46h1.44l5.16,13.46h-1.31L143.06,172h-6.13l-1.59,4.23Zm3.33-5.31h5.27L140,163.84Z"/><path class="cls-1" d="M700.07,107.39h-6.65a.81.81,0,0,0-.78.56l-.9,2.72v-.2H672.09a5.49,5.49,0,0,0-5.73,5.19V119h-1.9a.82.82,0,0,0-.81.82V136a7.59,7.59,0,0,0,7.59,7.59h28.83a7.59,7.59,0,0,0,7.58-7.59V115A7.59,7.59,0,0,0,700.07,107.39ZM668,115.66a3.87,3.87,0,0,1,4.1-3.56h19.18L689,119H668ZM706,136a6,6,0,0,1-5.95,6H671.24a6,6,0,0,1-6-6V120.66h24.28a.8.8,0,0,0,.77-.56L694,109h6.07a6,6,0,0,1,5.95,6Z"/><path class="cls-1" d="M575.12,98.08h-1.91a.25.25,0,0,0-.23.16l-.25.78V99h-5.65a1.58,1.58,0,0,0-1.65,1.5v1h-.54a.23.23,0,0,0-.24.23v4.65a2.18,2.18,0,0,0,2.18,2.18h8.29a2.18,2.18,0,0,0,2.18-2.18v-6A2.19,2.19,0,0,0,575.12,98.08Zm-9.22,2.38a1.11,1.11,0,0,1,1.18-1h5.51l-.66,2h-6Zm10.93,5.85a1.72,1.72,0,0,1-1.71,1.72h-8.29a1.72,1.72,0,0,1-1.71-1.72V101.9h7a.23.23,0,0,0,.22-.17l1.06-3.18h1.74a1.72,1.72,0,0,1,1.71,1.71Z"/><path class="cls-1" d="M575.12,137.71h-1.91a.25.25,0,0,0-.23.16l-.25.78v-.05h-5.65a1.58,1.58,0,0,0-1.65,1.49v1h-.54a.23.23,0,0,0-.24.23v4.65a2.19,2.19,0,0,0,2.18,2.19h8.29a2.19,2.19,0,0,0,2.18-2.19v-6.05A2.19,2.19,0,0,0,575.12,137.71Zm-9.22,2.38a1.11,1.11,0,0,1,1.18-1h5.51l-.66,2h-6Zm10.93,5.85a1.72,1.72,0,0,1-1.71,1.72h-8.29a1.72,1.72,0,0,1-1.71-1.72v-4.41h7a.24.24,0,0,0,.22-.16l1.06-3.19h1.74a1.72,1.72,0,0,1,1.71,1.71Z"/><path class="cls-5" d="M662.49,176.22V162.76h8.68v1.08h-7.41v4.86h6.73v1.09h-6.73v6.43Z"/><path class="cls-5" d="M673.43,164.42v-1.66h1.23v1.66Zm.05,11.8v-9.69h1.12v9.69Z"/><path class="cls-5" d="M678.1,176.22V162.76h1.12v13.46Z"/><path class="cls-5" d="M683.24,171.64c0,2.09,1.1,3.83,3.25,3.83a2.84,2.84,0,0,0,2.94-2.22h1.25a4,4,0,0,1-4.19,3.23c-3.1,0-4.45-2.2-4.45-5.07s1.69-5.14,4.45-5.14,4.29,1.89,4.27,5.37Zm6.32-.94c0-1.89-1-3.42-3.07-3.42s-3,1.59-3.25,3.42Z"/><path class="cls-5" d="M698,176.22l5.29-13.46h1.44l5.16,13.46h-1.31L707,172h-6.13l-1.59,4.23Zm3.33-5.31h5.27L704,163.84Z"/><path class="cls-5" d="M437.25,102.52V89.05h4.87c3.16,0,4.41,1.37,4.41,3.39a2.64,2.64,0,0,1-2.15,2.9v0a3.1,3.1,0,0,1,2.77,3.35c0,2.81-1.84,3.8-4.4,3.8ZM438.53,95h3.21c2.66,0,3.52-.93,3.52-2.56s-1-2.3-3.8-2.3h-2.93Zm0,6.43h3.23c2.81,0,4.12-.37,4.12-2.71s-1.57-2.64-4-2.64h-3.38Z"/><path class="cls-5" d="M450.19,102.52V89.05h1.12v13.47Z"/><path class="cls-5" d="M454,97.68c0-2.83,1.5-5.11,4.49-5.11S463,94.83,463,97.68c0,3.06-1.78,5.1-4.49,5.1C456,102.74,454,101.06,454,97.68Zm4.49-4.1c-2.35,0-3.29,2-3.29,4.1,0,2.41,1.14,4.09,3.29,4.09,2.36,0,3.29-2,3.29-4.09C461.76,95.39,460.87,93.58,458.49,93.58Z"/><path class="cls-5" d="M466.76,102.52h-1.13V89.05h1.13v5.33a4,4,0,0,1,3.45-1.81c3,0,4.32,2.41,4.32,5.12,0,2.86-1.25,5.09-4.37,5.09a3.9,3.9,0,0,1-3.37-2h0Zm3.27-.75c1.89,0,3.29-1.37,3.31-3.8s-1-4.39-3.31-4.39c-2,0-3.27,1.87-3.27,4.06S467.91,101.77,470,101.77Z"/><path class="cls-5" d="M478.64,102.52h-1.12V89.05h1.12v5.33a4.06,4.06,0,0,1,3.46-1.81c3,0,4.32,2.41,4.32,5.12,0,2.86-1.25,5.09-4.37,5.09a3.9,3.9,0,0,1-3.37-2h0Zm3.28-.75c1.89,0,3.29-1.37,3.31-3.8s-1-4.39-3.31-4.39c-2,0-3.28,1.87-3.28,4.06S479.8,101.77,481.92,101.77Z"/><path class="cls-5" d="M490,97.94c0,2.09,1.11,3.83,3.26,3.83a2.82,2.82,0,0,0,2.93-2.23h1.26a4,4,0,0,1-4.19,3.24c-3.11,0-4.45-2.21-4.45-5.07s1.68-5.14,4.45-5.14,4.28,1.89,4.26,5.37Zm6.32-.94c0-1.89-1-3.42-3.06-3.42s-3,1.59-3.26,3.42Z"/><path class="cls-5" d="M501.32,102.52H500.2V92.83h1.12v1.82h0a2.92,2.92,0,0,1,3.16-2.08v1.22c-2.53-.06-3.2,1.81-3.2,4Z"/><path class="cls-5" d="M516.8,92.72h-3.4v-.79c2-.13,3.25-.33,3.65-2.59h1v13.18h-1.2Z"/><path class="cls-5" d="M435.7,232.21V218.75h4.86c3.16,0,4.42,1.36,4.42,3.38a2.64,2.64,0,0,1-2.15,2.9v0a3.08,3.08,0,0,1,2.76,3.35c0,2.8-1.83,3.79-4.39,3.79ZM437,224.7h3.21c2.66,0,3.52-.94,3.52-2.57s-1-2.3-3.8-2.3H437Zm0,6.43h3.23c2.8,0,4.11-.38,4.11-2.71s-1.57-2.64-4-2.64H437Z"/><path class="cls-5" d="M448.64,232.21V218.75h1.12v13.46Z"/><path class="cls-5" d="M452.45,227.37c0-2.82,1.5-5.11,4.49-5.11s4.49,2.27,4.49,5.11c0,3.07-1.78,5.1-4.49,5.1C454.47,232.44,452.45,230.75,452.45,227.37Zm4.49-4.1c-2.35,0-3.29,2-3.29,4.1,0,2.41,1.14,4.09,3.29,4.09,2.36,0,3.29-2,3.29-4.09C460.21,225.09,459.32,223.27,456.94,223.27Z"/><path class="cls-5" d="M465.2,232.21h-1.12V218.75h1.12v5.33a4,4,0,0,1,3.46-1.82c3,0,4.32,2.42,4.32,5.13,0,2.86-1.25,5.08-4.37,5.08a3.9,3.9,0,0,1-3.37-2h0Zm3.28-.75c1.88,0,3.29-1.36,3.31-3.79s-1-4.4-3.31-4.4c-2,0-3.28,1.87-3.28,4.06S466.36,231.46,468.48,231.46Z"/><path class="cls-5" d="M477.09,232.21H476V218.75h1.12v5.33a4,4,0,0,1,3.46-1.82c3,0,4.32,2.42,4.32,5.13,0,2.86-1.25,5.08-4.37,5.08a3.89,3.89,0,0,1-3.37-2h0Zm3.28-.75c1.88,0,3.29-1.36,3.31-3.79s-1-4.4-3.31-4.4c-2,0-3.28,1.87-3.28,4.06S478.25,231.46,480.37,231.46Z"/><path class="cls-5" d="M488.42,227.63c0,2.1,1.11,3.83,3.26,3.83a2.84,2.84,0,0,0,2.93-2.22h1.25a4,4,0,0,1-4.18,3.23c-3.11,0-4.46-2.2-4.46-5.06s1.69-5.15,4.46-5.15,4.28,1.89,4.26,5.37Zm6.32-.93c0-1.89-1.05-3.43-3.06-3.43s-3,1.59-3.26,3.43Z"/><path class="cls-5" d="M499.77,232.21h-1.12v-9.68h1.12v1.81h0a2.92,2.92,0,0,1,3.16-2.08v1.22c-2.53-.06-3.2,1.81-3.2,4Z"/><path class="cls-5" d="M512.39,220.47h0v11.74h-1.27V218.75h1.44l7.78,11.76h0V218.75h1.28v13.46h-1.48Z"/><path class="cls-5" d="M197,228.19c.2,2.41,1.81,3.29,3.87,3.29,2.41,0,3.42-1.31,3.42-2.78,0-4.17-8.21-1.41-8.21-6.7,0-1.87,1.55-3.61,4.56-3.61s4.55,1.84,4.53,4H203.9c0-2-1.59-2.93-3.31-2.93-2.58,0-3.51,1.59-3.29,3,.58,3.48,8.21,1,8.21,6.19,0,2.47-1.81,3.93-4.92,3.93-2.8,0-4.88-1.46-4.88-4.38Z"/><path class="cls-5" d="M209.4,236h-1.13v-13.5h1.13v1.7h0a3.93,3.93,0,0,1,3.37-2c3.12,0,4.38,2.23,4.38,5.09s-1.37,5.12-4.32,5.12a4,4,0,0,1-3.46-1.81Zm3.27-4.57c2.32,0,3.4-2,3.31-4.39s-1.42-3.8-3.31-3.8c-2.11,0-3.27,1.8-3.27,4.14C209.4,229.59,210.63,231.46,212.67,231.46Z"/><path class="cls-5" d="M220.2,232.21V218.75h1.12v13.46Z"/><path class="cls-5" d="M224.76,220.41v-1.66H226v1.66Zm.06,11.8v-9.68h1.12v9.68Z"/><path class="cls-5" d="M232.67,232.25a5.27,5.27,0,0,1-1.29.22c-1.1,0-1.72-.48-1.72-1.92v-7.09H228.3v-.93h1.36v-2.7h1.12v2.7h1.82v.93h-1.82v6.64c0,1,0,1.36,1,1.36a3.65,3.65,0,0,0,.92-.13Z"/><path class="cls-5" d="M240.71,220.41v-1.66h1.23v1.66Zm.06,11.8v-9.68h1.12v9.68Z"/><path class="cls-5" d="M246.34,232.21h-1.13v-9.68h1.13v1.34a4.09,4.09,0,0,1,3.12-1.61,3.37,3.37,0,0,1,2.95,1.39,3.66,3.66,0,0,1,.49,2.22v6.34h-1.12v-6.32c0-1.74-.71-2.62-2.51-2.62a2.82,2.82,0,0,0-2.69,1.89,4.91,4.91,0,0,0-.24,1.84Z"/><path class="cls-5" d="M259.48,232.25a5.27,5.27,0,0,1-1.29.22c-1.1,0-1.72-.48-1.72-1.92v-7.09H255.1v-.93h1.37v-2.7h1.12v2.7h1.81v.93h-1.81v6.64c0,1,0,1.36,1,1.36a3.65,3.65,0,0,0,.92-.13Z"/><path class="cls-5" d="M261.1,227.37c0-2.82,1.5-5.11,4.49-5.11s4.49,2.27,4.49,5.11c0,3.07-1.78,5.1-4.49,5.1C263.12,232.44,261.1,230.75,261.1,227.37Zm4.49-4.1c-2.35,0-3.29,2-3.29,4.1,0,2.41,1.14,4.09,3.29,4.09,2.36,0,3.29-2,3.29-4.09C268.86,225.09,268,223.27,265.59,223.27Z"/><path class="cls-5" d="M279.52,236H278.4v-13.5h1.12v1.7h0a3.9,3.9,0,0,1,3.36-2c3.12,0,4.38,2.23,4.38,5.09s-1.37,5.12-4.32,5.12a4,4,0,0,1-3.46-1.81Zm3.27-4.57c2.32,0,3.4-2,3.31-4.39s-1.42-3.8-3.31-3.8c-2.11,0-3.27,1.8-3.27,4.14C279.52,229.59,280.75,231.46,282.79,231.46Z"/><path class="cls-5" d="M294.61,226.57a5.59,5.59,0,0,0,1.47-.32c.38-.17.42-.68.42-1,0-1.14-.68-2-2.42-2-1.55,0-2.61.51-2.82,2.19h-1.14c.17-2.28,1.87-3.2,4-3.2s3.52.77,3.52,3v5.28c0,.88.22,1.08,1.18.75v.87a3,3,0,0,1-.88.19,2.76,2.76,0,0,1-.51-.05c-.75-.12-.88-.77-.89-1.44a4.78,4.78,0,0,1-3.61,1.6c-1.71,0-3.24-.91-3.24-2.78,0-1.63,1.12-2.62,3.39-2.92Zm1.89.56a9.52,9.52,0,0,1-2.9.54c-1.7.13-2.73.75-2.73,2.06s1,1.73,2.09,1.73c1.78,0,3.54-.86,3.54-2.82Z"/><path class="cls-5" d="M302.2,232.21h-1.13v-9.68h1.13v1.81h0a2.93,2.93,0,0,1,3.16-2.08v1.22c-2.52-.06-3.19,1.81-3.19,4Z"/><path class="cls-5" d="M311.11,232.25a5.18,5.18,0,0,1-1.29.22c-1.1,0-1.72-.48-1.72-1.92v-7.09h-1.36v-.93h1.36v-2.7h1.13v2.7H311v.93h-1.81v6.64c0,1,0,1.36,1,1.36a3.57,3.57,0,0,0,.91-.13Z"/><path class="cls-5" d="M314,229.18a2.53,2.53,0,0,0,2.9,2.28c1.63,0,2.39-.86,2.39-1.79,0-2.81-6.21-.82-6.21-4.64,0-1.61,1.26-2.77,3.41-2.77s3.46.86,3.74,3.05h-1.14c-.21-1.49-1.22-2-2.62-2s-2.19.68-2.19,1.67c0,2.63,6.21,1,6.21,4.71,0,1.85-1.67,2.82-3.95,2.82a3.39,3.39,0,0,1-3.68-3.29Z"/><path class="cls-5" d="M317.58,32.75l2.55-8.19h1.14l-3.15,9.68h-1.19l-2.12-8.13h0l-2.15,8.13h-1.35l-2.95-9.68h1.12l2.5,8.26,2.25-8.26h1.25Z"/><path class="cls-5" d="M324.53,34.24h-1.12V24.56h1.12v1.81h0a2.93,2.93,0,0,1,3.16-2.08v1.22c-2.52-.06-3.2,1.81-3.2,4Z"/><path class="cls-5" d="M330.16,22.44V20.78h1.24v1.66Zm.06,11.8V24.56h1.12v9.68Z"/><path class="cls-5" d="M338.07,34.28a5.8,5.8,0,0,1-1.29.22c-1.1,0-1.72-.48-1.72-1.92V25.49h-1.37v-.93h1.37v-2.7h1.12v2.7H338v.93h-1.82v6.64c0,.95,0,1.36,1,1.36a3.65,3.65,0,0,0,.92-.13Z"/><path class="cls-5" d="M341,29.66c0,2.09,1.11,3.83,3.26,3.83a2.82,2.82,0,0,0,2.93-2.22h1.26a4.06,4.06,0,0,1-4.19,3.23c-3.11,0-4.45-2.2-4.45-5.06s1.68-5.15,4.45-5.15,4.28,1.89,4.26,5.37Zm6.32-.93c0-1.89-1-3.43-3.06-3.43s-3,1.59-3.26,3.43Z"/><path class="cls-5" d="M357.83,34.24h-1.12V24.56h1.12V26h0a3.32,3.32,0,0,1,3-1.72,2.65,2.65,0,0,1,2.84,1.87,3.37,3.37,0,0,1,3.16-1.87c2.64,0,3,1.89,3,3.84v6.11h-1.12V27.55c0-1.39-.49-2.25-2.08-2.25a2.68,2.68,0,0,0-2.18,1.11,4.76,4.76,0,0,0-.64,2.61v5.22h-1.12V27.55c0-1.39-.49-2.25-2.08-2.25a2.68,2.68,0,0,0-2.18,1.11,4.76,4.76,0,0,0-.64,2.61Z"/><path class="cls-5" d="M377.35,28.59a5.74,5.74,0,0,0,1.48-.31c.37-.17.41-.68.41-1,0-1.14-.68-2-2.41-2-1.56,0-2.62.51-2.83,2.19h-1.14c.17-2.28,1.87-3.2,4-3.2s3.52.77,3.52,3v5.28c0,.88.22,1.08,1.18.74v.88a3,3,0,0,1-.88.19,2.1,2.1,0,0,1-.51-.06c-.75-.11-.88-.76-.89-1.44a4.76,4.76,0,0,1-3.61,1.61c-1.7,0-3.24-.91-3.24-2.78,0-1.63,1.12-2.62,3.39-2.92Zm1.89.57a9.52,9.52,0,0,1-2.9.54c-1.7.13-2.73.75-2.73,2.05s1,1.74,2.09,1.74c1.78,0,3.54-.86,3.54-2.82Z"/><path class="cls-5" d="M384.94,34.24h-1.12V24.56h1.12v1.81h0a2.93,2.93,0,0,1,3.16-2.08v1.22c-2.52-.06-3.19,1.81-3.19,4Z"/><path class="cls-5" d="M390.38,34.24V20.78h1.12v8.38l4.75-4.6h1.53l-3.63,3.49,4.06,6.19H397l-3.63-5.4-1.83,1.74v3.66Z"/><path class="cls-5" d="M401,29.66c0,2.09,1.1,3.83,3.25,3.83a2.84,2.84,0,0,0,2.94-2.22h1.25a4,4,0,0,1-4.19,3.23c-3.1,0-4.45-2.2-4.45-5.06s1.68-5.15,4.45-5.15,4.28,1.89,4.27,5.37Zm6.32-.93c0-1.89-1-3.43-3.07-3.43s-3,1.59-3.25,3.43Z"/><path class="cls-5" d="M412.31,34.24h-1.13V24.56h1.13v1.81h0a2.93,2.93,0,0,1,3.16-2.08v1.22c-2.52-.06-3.19,1.81-3.19,4Z"/><path class="cls-5" d="M418.48,31.21a2.52,2.52,0,0,0,2.89,2.28c1.63,0,2.4-.86,2.4-1.79,0-2.81-6.21-.82-6.21-4.64,0-1.61,1.25-2.77,3.4-2.77s3.46.86,3.74,3.05h-1.14c-.2-1.49-1.21-2-2.62-2s-2.18.68-2.18,1.67c0,2.63,6.2,1,6.2,4.71,0,1.85-1.66,2.82-3.94,2.82a3.41,3.41,0,0,1-3.69-3.29Z"/><path class="cls-5" d="M568.73,60h-1V51.3h1v1.63h0a2.64,2.64,0,0,1,2.85-1.87v1.1c-2.27,0-2.88,1.63-2.88,3.58Z"/><path class="cls-5" d="M574.32,55.89c0,1.89,1,3.45,2.92,3.45a2.56,2.56,0,0,0,2.65-2H581a3.63,3.63,0,0,1-3.77,2.91c-2.79,0-4-2-4-4.56s1.51-4.63,4-4.63,3.86,1.7,3.84,4.83Zm5.69-.84c0-1.7-1-3.08-2.77-3.08s-2.72,1.43-2.92,3.08Z"/><path class="cls-5" d="M587.47,54.94a5.35,5.35,0,0,0,1.33-.29c.34-.15.37-.61.37-.91,0-1-.6-1.77-2.17-1.77-1.39,0-2.35.46-2.54,2h-1c.15-2,1.68-2.88,3.58-2.88s3.16.69,3.16,2.71v4.75c0,.79.21,1,1.06.67V60a2.76,2.76,0,0,1-.79.17,1.68,1.68,0,0,1-.45,0c-.67-.1-.79-.69-.81-1.29a4.27,4.27,0,0,1-3.25,1.44c-1.53,0-2.91-.82-2.91-2.5,0-1.47,1-2.36,3.05-2.63Zm1.7.5a8.43,8.43,0,0,1-2.61.49c-1.53.12-2.45.67-2.45,1.85s.92,1.56,1.88,1.56c1.6,0,3.18-.77,3.18-2.54Z"/><path class="cls-5" d="M600,47.9h1V60h-1V58.49h0a3.51,3.51,0,0,1-3,1.76c-2.81,0-3.94-2-3.94-4.57s1.23-4.62,3.89-4.62A3.64,3.64,0,0,1,600,52.7ZM597,52c-2.09,0-3.06,1.77-3,4s1.28,3.41,3,3.41c1.9,0,3-1.61,3-3.71S598.86,52,597,52Z"/><path class="cls-5" d="M554.83,77.78h-1V69.06h1v1.31h0a3,3,0,0,1,2.69-1.55,2.4,2.4,0,0,1,2.56,1.69A3,3,0,0,1,563,68.82c2.37,0,2.71,1.7,2.71,3.45v5.51h-1v-6c0-1.24-.44-2-1.87-2a2.42,2.42,0,0,0-2,1,4.38,4.38,0,0,0-.57,2.35v4.7h-1v-6c0-1.24-.44-2-1.87-2a2.42,2.42,0,0,0-2,1,4.38,4.38,0,0,0-.57,2.35Z"/><path class="cls-5" d="M572.4,72.7a5.45,5.45,0,0,0,1.33-.29c.33-.15.37-.61.37-.91,0-1-.61-1.77-2.17-1.77-1.4,0-2.36.46-2.54,2h-1c.15-2,1.68-2.88,3.58-2.88s3.17.69,3.17,2.71v4.75c0,.79.2,1,1.06.67v.79a2.84,2.84,0,0,1-.79.17,1.71,1.71,0,0,1-.46,0c-.67-.1-.79-.69-.8-1.29A4.3,4.3,0,0,1,570.87,78c-1.53,0-2.91-.82-2.91-2.5,0-1.47,1-2.36,3-2.63Zm1.7.5a8.54,8.54,0,0,1-2.61.49c-1.53.12-2.46.67-2.46,1.85s.93,1.56,1.89,1.56c1.6,0,3.18-.77,3.18-2.54Z"/><path class="cls-5" d="M579.23,77.78h-1V69.06h1v1.63h0a2.64,2.64,0,0,1,2.85-1.87v1.1c-2.27,0-2.88,1.63-2.88,3.58Z"/><path class="cls-5" d="M584.12,77.78V65.66h1V73.2l4.28-4.14h1.38l-3.27,3.15,3.66,5.57h-1.13l-3.27-4.87-1.65,1.57v3.3Z"/><path class="cls-5" d="M593.65,73.65c0,1.89,1,3.45,2.93,3.45a2.55,2.55,0,0,0,2.64-2h1.13A3.65,3.65,0,0,1,596.58,78c-2.8,0-4-2-4-4.56s1.51-4.63,4-4.63,3.85,1.7,3.83,4.83Zm5.69-.84c0-1.7-1-3.08-2.76-3.08s-2.73,1.43-2.93,3.08Z"/><path class="cls-5" d="M603.86,77.78h-1V69.06h1v1.63h0a2.64,2.64,0,0,1,2.85-1.87v1.1c-2.27,0-2.88,1.63-2.88,3.58Z"/><path class="cls-5" d="M609.41,75.05a2.28,2.28,0,0,0,2.61,2c1.47,0,2.16-.77,2.16-1.61,0-2.53-5.59-.74-5.59-4.17,0-1.45,1.13-2.5,3.06-2.5s3.11.78,3.37,2.75h-1c-.18-1.35-1.09-1.84-2.36-1.84s-2,.61-2,1.5c0,2.37,5.59.89,5.59,4.24,0,1.67-1.5,2.54-3.55,2.54a3.05,3.05,0,0,1-3.31-3Z"/><path class="cls-5" d="M550.36,179.06a2.57,2.57,0,0,0-2.59-2.08c-2.07,0-2.93,1.89-2.93,3.71s.84,3.67,2.93,3.67a2.55,2.55,0,0,0,2.67-2.34h1.08a3.59,3.59,0,0,1-3.75,3.25c-2.78,0-4-2-4-4.58s1.4-4.61,4-4.61a3.26,3.26,0,0,1,3.61,3Z"/><path class="cls-5" d="M553.38,180.67c0-2.54,1.35-4.59,4-4.59s4,2,4,4.59c0,2.76-1.6,4.6-4,4.6C555.2,185.23,553.38,183.72,553.38,180.67Zm4-3.69c-2.12,0-3,1.81-3,3.69,0,2.17,1,3.69,3,3.69,2.12,0,3-1.82,3-3.69C560.37,178.62,559.56,177,557.42,177Z"/><path class="cls-5" d="M564.61,185h-1v-8.72h1v1.31h0a3,3,0,0,1,2.69-1.54,2.38,2.38,0,0,1,2.56,1.68,3,3,0,0,1,2.85-1.68c2.37,0,2.71,1.7,2.71,3.45V185h-1v-6c0-1.24-.44-2-1.87-2a2.41,2.41,0,0,0-2,1,4.3,4.3,0,0,0-.57,2.35V185h-1v-6c0-1.24-.44-2-1.87-2a2.41,2.41,0,0,0-2,1,4.3,4.3,0,0,0-.57,2.35Z"/><path class="cls-5" d="M579.29,185h-1V172.91h1v4.8a3.63,3.63,0,0,1,3.12-1.63c2.66,0,3.89,2.17,3.89,4.61s-1.13,4.58-3.94,4.58a3.52,3.52,0,0,1-3-1.77h0Zm3-.67c1.7,0,3-1.23,3-3.42s-.89-4-3-4c-1.83,0-3,1.69-3,3.66S580.34,184.36,582.24,184.36Z"/><path class="cls-5" d="M589,174.41v-1.5h1.11v1.5ZM589,185v-8.72h1V185Z"/><path class="cls-5" d="M594,185h-1v-8.72h1v1.21a3.72,3.72,0,0,1,2.82-1.44,3,3,0,0,1,2.65,1.24,3.32,3.32,0,0,1,.44,2V185h-1v-5.69c0-1.56-.64-2.36-2.25-2.36a2.55,2.55,0,0,0-2.43,1.7,4.58,4.58,0,0,0-.22,1.65Z"/><path class="cls-5" d="M602.9,174.41v-1.5H604v1.5ZM603,185v-8.72h1V185Z"/><path class="cls-5" d="M608,185h-1v-8.72h1v1.21a3.68,3.68,0,0,1,2.81-1.44,3,3,0,0,1,2.65,1.24,3.25,3.25,0,0,1,.44,2V185h-1v-5.69c0-1.56-.64-2.36-2.25-2.36a2.55,2.55,0,0,0-2.43,1.7,4.57,4.57,0,0,0-.21,1.65Z"/><path class="cls-5" d="M623.46,176.31h1v7.88c0,2.34-.77,4.41-4.09,4.41-2.56,0-3.62-1.47-3.68-2.51h1.07c.31,1.31,1.42,1.6,2.61,1.6,2.76,0,3.13-2.05,3.08-4.06a3.62,3.62,0,0,1-3.11,1.64c-2.66,0-3.89-2.18-3.89-4.62s1.13-4.57,3.94-4.57a3.51,3.51,0,0,1,3,1.76h0Zm-2.94.67c-1.7,0-3,1.23-3,3.42s.89,4,3,4c1.83,0,2.94-1.69,2.94-3.66S622.42,177,620.52,177Z"/><path class="cls-5" d="M550.67,194.91v-.84H552v-1.38c0-1.38.5-2.25,1.85-2.25a4.55,4.55,0,0,1,.84.06v.93a2.65,2.65,0,0,0-.61-.09c-1,0-1.07.86-1.07,1.65v1.08h1.64v.84H553v7.88h-1v-7.88Zm7.1-2.74h-1.11v-1.5h1.11Zm-1.06,10.62v-8.72h1v8.72Z"/><path class="cls-5" d="M560.64,202.79V190.67h1v12.12Z"/><path class="cls-5" d="M565.27,198.67c0,1.88,1,3.45,2.93,3.45a2.56,2.56,0,0,0,2.64-2H572A3.66,3.66,0,0,1,568.2,203c-2.79,0-4-2-4-4.57s1.52-4.62,4-4.62,3.85,1.7,3.84,4.83Zm5.69-.85c0-1.69-.94-3.08-2.76-3.08s-2.73,1.44-2.93,3.08Z"/><path class="cls-5" d="M580.65,206.22h-1V194.07h1v1.53h0a3.51,3.51,0,0,1,3-1.76c2.81,0,3.94,2,3.94,4.57s-1.23,4.62-3.89,4.62a3.62,3.62,0,0,1-3.11-1.64Zm2.94-4.1c2.09,0,3.07-1.77,3-4s-1.28-3.42-3-3.42c-1.9,0-2.94,1.62-2.94,3.72S581.76,202.12,583.59,202.12Z"/><path class="cls-5" d="M594.23,197.71a5.45,5.45,0,0,0,1.33-.29c.33-.15.37-.6.37-.91,0-1-.61-1.77-2.17-1.77-1.4,0-2.36.46-2.54,2h-1c.15-2.05,1.68-2.87,3.58-2.87s3.17.69,3.17,2.71v4.74c0,.79.2,1,1.06.68v.79a2.87,2.87,0,0,1-.79.16,1.71,1.71,0,0,1-.46,0c-.67-.1-.79-.69-.8-1.29A4.31,4.31,0,0,1,592.7,203c-1.53,0-2.91-.83-2.91-2.51,0-1.47,1-2.36,3-2.63Zm1.7.5a8.2,8.2,0,0,1-2.61.49c-1.53.12-2.46.67-2.46,1.85s.93,1.57,1.89,1.57c1.6,0,3.18-.78,3.18-2.55Z"/><path class="cls-5" d="M601.06,202.79h-1v-8.72h1v1.63h0a2.64,2.64,0,0,1,2.85-1.86v1.09c-2.28-.05-2.88,1.63-2.88,3.58Z"/><path class="cls-5" d="M609.08,202.82a4.75,4.75,0,0,1-1.16.21c-1,0-1.54-.44-1.54-1.74v-6.38h-1.23v-.84h1.23v-2.42h1v2.42H609v.84h-1.64v6c0,.86,0,1.23.88,1.23a3.25,3.25,0,0,0,.82-.12Z"/><path class="cls-5" d="M611.71,200.06a2.28,2.28,0,0,0,2.61,2.06c1.46,0,2.15-.78,2.15-1.62,0-2.52-5.59-.74-5.59-4.17,0-1.45,1.13-2.49,3.07-2.49s3.11.77,3.36,2.74h-1a2.06,2.06,0,0,0-2.36-1.84c-1.28,0-2,.61-2,1.5,0,2.38,5.59.89,5.59,4.24,0,1.67-1.5,2.55-3.55,2.55a3.07,3.07,0,0,1-3.32-3Z"/><path class="cls-5" d="M272.85,87.6l5.29-13.46h1.44l5.16,13.46h-1.31l-1.55-4.22h-6.13l-1.59,4.22Zm3.33-5.31h5.27l-2.63-7.07Z"/><path class="cls-5" d="M288.8,88.12h-2v-.46c1.16-.08,1.89-.2,2.12-1.51h.56v7.68h-.7Z"/><path class="cls-5" d="M578.49,111.36l2.65-6.73h.71l2.58,6.73h-.65l-.78-2.12h-3.06l-.79,2.12Zm1.66-2.66h2.64l-1.32-3.53Z"/><path class="cls-5" d="M586.47,111.61h-1v-.23c.59,0,.95-.09,1.07-.75h.27v3.84h-.34Z"/><path class="cls-5" d="M578,150.67l2.64-6.72h.72l2.58,6.72h-.65l-.78-2.11h-3.06l-.8,2.11ZM579.7,148h2.64L581,144.49Z"/><path class="cls-5" d="M585.18,150.36h0v3.43h-.37v-3.93h.42l2.26,3.43h0v-3.43h.37v3.93h-.43Z"/><path class="cls-5" d="M272,199.57l5.29-13.46h1.44l5.16,13.46h-1.31L281,195.35h-6.14l-1.58,4.22Zm3.32-5.31h5.28l-2.64-7.07Z"/><path class="cls-5" d="M286.23,199h0v6.85h-.74V198h.84l4.54,6.86h0V198h.74v7.85h-.86Z"/><polygon class="cls-5" points="571.24 122.35 571.24 121.47 571 121.47 571 122.35 570.13 122.35 570.13 122.58 571 122.58 571 123.46 571.24 123.46 571.24 122.58 572.11 122.58 572.11 122.35 571.24 122.35"/><polygon class="cls-5" points="571.24 112.51 571.24 111.64 571 111.64 571 112.51 570.13 112.51 570.13 112.75 571 112.75 571 113.62 571.24 113.62 571.24 112.75 572.11 112.75 572.11 112.51 571.24 112.51"/><polygon class="cls-5" points="571.24 133.42 571.24 132.54 571 132.54 571 133.42 570.13 133.42 570.13 133.65 571 133.65 571 134.53 571.24 134.53 571.24 133.65 572.11 133.65 572.11 133.42 571.24 133.42"/><path class="cls-1" d="M735.79,384.32H701.84V372.1a5.44,5.44,0,0,0-5.43-5.43H670.48a5.44,5.44,0,0,0-5.43,5.43v12.22H631.84V372.1a5.44,5.44,0,0,0-5.43-5.43H600.48a5.44,5.44,0,0,0-5.43,5.43v12.22h-33.2V372.1a5.44,5.44,0,0,0-5.44-5.43H530.48a5.44,5.44,0,0,0-5.43,5.43v12.22h-33.2V372.1a5.44,5.44,0,0,0-5.44-5.43H460.48a5.44,5.44,0,0,0-5.43,5.43v12.22h-33.2V372.1a5.44,5.44,0,0,0-5.44-5.43H390.48a5.44,5.44,0,0,0-5.43,5.43V398a5.44,5.44,0,0,0,5.43,5.44h25.93a5.45,5.45,0,0,0,5.44-5.44V385.81h33.2V398a5.44,5.44,0,0,0,5.43,5.44h25.93a5.45,5.45,0,0,0,5.44-5.44V385.81h33.2V398a5.44,5.44,0,0,0,5.43,5.44h25.93a5.45,5.45,0,0,0,5.44-5.44V385.81h33.2V398a5.44,5.44,0,0,0,5.43,5.44h25.93a5.44,5.44,0,0,0,5.43-5.44V385.81h33.21V398a5.44,5.44,0,0,0,5.43,5.44h25.93a5.44,5.44,0,0,0,5.43-5.44V385.81h33.95a.75.75,0,0,0,.75-.74A.76.76,0,0,0,735.79,384.32ZM420.36,398a4,4,0,0,1-3.95,4H390.48a4,4,0,0,1-3.94-4V372.1a4,4,0,0,1,3.94-3.94h25.93a4,4,0,0,1,3.95,3.94Zm70,0a4,4,0,0,1-3.95,4H460.48a4,4,0,0,1-3.94-4V372.1a4,4,0,0,1,3.94-3.94h25.93a4,4,0,0,1,3.95,3.94Zm70,0a4,4,0,0,1-4,4H530.48a4,4,0,0,1-3.94-4V372.1a4,4,0,0,1,3.94-3.94h25.93a4,4,0,0,1,4,3.94Zm70,0a4,4,0,0,1-4,4H600.48a4,4,0,0,1-3.94-4V372.1a4,4,0,0,1,3.94-3.94h25.93a4,4,0,0,1,4,3.94Zm70,0a3.94,3.94,0,0,1-3.94,4H670.48a4,4,0,0,1-3.94-4V372.1a4,4,0,0,1,3.94-3.94h25.93a3.94,3.94,0,0,1,3.94,3.94Z"/><path class="cls-4" d="M451.92,327.48l-5.45-15-5.45,15,1.61.59,3-8.19V354a.86.86,0,1,0,1.71,0V319.87l3,8.2Z"/><path class="cls-4" d="M468,338.46l-3,8.2V312.51a.86.86,0,1,0-1.71,0v34.15l-3-8.2-1.61.59,5.45,15,5.45-15Z"/><path class="cls-5" d="M359.59,339.24V328.47h3.94c2.8,0,3.51,1.39,3.51,3,0,2.41-2.14,3-4.13,3h-2.3v4.75Zm3.35-5.62c1.91,0,3.09-.39,3.09-2.22,0-1.34-.87-2.06-2.79-2.06h-2.63v4.28Z"/><path class="cls-5" d="M372.58,334.72a4.68,4.68,0,0,0,1.18-.25c.3-.13.33-.54.33-.81,0-.91-.54-1.57-1.93-1.57s-2.1.41-2.26,1.75H369c.14-1.82,1.5-2.56,3.19-2.56s2.81.62,2.81,2.41v4.22c0,.7.18.87.95.6v.7a2.37,2.37,0,0,1-.71.15,1.7,1.7,0,0,1-.4,0c-.6-.09-.7-.62-.72-1.15a3.82,3.82,0,0,1-2.89,1.28,2.29,2.29,0,0,1-2.58-2.23c0-1.3.89-2.09,2.7-2.33Zm1.51.45a7.27,7.27,0,0,1-2.32.44c-1.36.1-2.19.6-2.19,1.64s.83,1.39,1.68,1.39c1.42,0,2.83-.68,2.83-2.26Z"/><path class="cls-5" d="M377.64,341.35a3.75,3.75,0,0,0,.75.09c1,0,1.17-1.46,1.51-2.14l-3-7.81h1l2.48,6.66,2.49-6.66h1L381,339.14c-.73,1.94-1.21,3.16-2.45,3.16a3.6,3.6,0,0,1-.86-.11Z"/><path class="cls-5" d="M386.33,339.24h-.89v-7.75h.89v1.17h0a2.68,2.68,0,0,1,2.4-1.38,2.13,2.13,0,0,1,2.27,1.5,2.69,2.69,0,0,1,2.53-1.5c2.11,0,2.41,1.51,2.41,3.07v4.89h-.9v-5.35c0-1.11-.39-1.8-1.66-1.8a2.17,2.17,0,0,0-1.75.88,3.85,3.85,0,0,0-.51,2.1v4.17h-.9v-5.35c0-1.11-.38-1.8-1.66-1.8a2.19,2.19,0,0,0-1.75.88,3.94,3.94,0,0,0-.51,2.1Z"/><path class="cls-5" d="M398.94,335.58c0,1.67.88,3.06,2.61,3.06a2.26,2.26,0,0,0,2.34-1.78h1a3.24,3.24,0,0,1-3.35,2.59c-2.49,0-3.57-1.76-3.57-4.05s1.35-4.12,3.57-4.12,3.42,1.51,3.41,4.3Zm5.06-.75a2.45,2.45,0,0,0-2.45-2.74c-1.59,0-2.43,1.27-2.61,2.74Z"/><path class="cls-5" d="M408,339.24h-.9v-7.75h.9v1.08a3.28,3.28,0,0,1,2.49-1.29,2.71,2.71,0,0,1,2.37,1.11,3,3,0,0,1,.39,1.78v5.07h-.9v-5.05c0-1.4-.57-2.1-2-2.1a2.26,2.26,0,0,0-2.15,1.51,4,4,0,0,0-.19,1.47Z"/><path class="cls-5" d="M418.49,339.27a4.11,4.11,0,0,1-1,.18c-.88,0-1.38-.39-1.38-1.54v-5.67H415v-.75h1.09v-2.15h.9v2.15h1.45v.75H417v5.31c0,.77,0,1.09.78,1.09a3.06,3.06,0,0,0,.73-.1Z"/><path class="cls-5" d="M420.82,336.82a2,2,0,0,0,2.32,1.82c1.3,0,1.92-.68,1.92-1.43,0-2.25-5-.66-5-3.71,0-1.29,1-2.22,2.72-2.22s2.77.69,3,2.44h-.92a1.82,1.82,0,0,0-2.09-1.63c-1.14,0-1.75.54-1.75,1.33,0,2.11,5,.8,5,3.77,0,1.48-1.33,2.26-3.15,2.26a2.72,2.72,0,0,1-2.95-2.63Z"/><path class="cls-5" d="M243.36,380.38V368h4.45c2.9,0,4.05,1.25,4.05,3.1a2.43,2.43,0,0,1-2,2.66v0a2.83,2.83,0,0,1,2.54,3.07c0,2.57-1.68,3.48-4,3.48Zm1.16-6.89h2.95c2.44,0,3.22-.86,3.22-2.35s-.92-2.11-3.48-2.11h-2.69Zm0,5.9h3c2.57,0,3.77-.35,3.77-2.49s-1.44-2.42-3.63-2.42h-3.11Z"/><path class="cls-5" d="M255.22,380.38V368h1v12.34Z"/><path class="cls-5" d="M258.71,375.94c0-2.59,1.37-4.68,4.12-4.68s4.11,2.07,4.11,4.68c0,2.81-1.63,4.68-4.11,4.68C260.56,380.59,258.71,379,258.71,375.94Zm4.12-3.75c-2.16,0-3,1.83-3,3.75,0,2.21,1.05,3.75,3,3.75,2.16,0,3-1.85,3-3.75C265.83,373.85,265,372.19,262.83,372.19Z"/><path class="cls-5" d="M275.55,374.29a2.59,2.59,0,0,0-2.64-2.1c-2.11,0-3,1.91-3,3.77s.86,3.73,3,3.73a2.6,2.6,0,0,0,2.72-2.38h1.1a3.65,3.65,0,0,1-3.82,3.31c-2.83,0-4.08-2-4.08-4.66,0-2.47,1.42-4.7,4.08-4.7a3.33,3.33,0,0,1,3.68,3Z"/><path class="cls-5" d="M279.14,380.38V368h1v7.68l4.36-4.22h1.4l-3.32,3.2,3.72,5.68h-1.15l-3.33-5-1.68,1.6v3.36Z"/><path class="cls-5" d="M294.5,374.29a2.59,2.59,0,0,0-2.64-2.1c-2.1,0-3,1.91-3,3.77s.86,3.73,3,3.73a2.6,2.6,0,0,0,2.73-2.38h1.1a3.66,3.66,0,0,1-3.83,3.31c-2.82,0-4.08-2-4.08-4.66,0-2.47,1.43-4.7,4.08-4.7a3.34,3.34,0,0,1,3.69,3Z"/><path class="cls-5" d="M298.17,380.38V368h1v4.69a3.77,3.77,0,0,1,2.86-1.47,3.08,3.08,0,0,1,2.71,1.27,3.36,3.36,0,0,1,.45,2v5.81h-1v-5.79c0-1.6-.65-2.4-2.3-2.4a2.59,2.59,0,0,0-2.47,1.73,4.68,4.68,0,0,0-.22,1.68v4.78Z"/><path class="cls-5" d="M312.21,375.2a4.72,4.72,0,0,0,1.35-.29c.35-.15.38-.62.38-.92,0-1.05-.62-1.8-2.21-1.8-1.42,0-2.4.46-2.59,2h-1c.15-2.09,1.71-2.93,3.65-2.93S315,372,315,374v4.83c0,.81.21,1,1.08.69v.81a2.83,2.83,0,0,1-.81.17,2.31,2.31,0,0,1-.46,0c-.68-.11-.8-.71-.82-1.32a4.35,4.35,0,0,1-3.31,1.47c-1.56,0-3-.84-3-2.55,0-1.5,1-2.41,3.11-2.68Zm1.73.52a8.17,8.17,0,0,1-2.66.49c-1.56.12-2.5.69-2.5,1.89s.94,1.59,1.92,1.59c1.63,0,3.24-.78,3.24-2.58Z"/><path class="cls-5" d="M318.19,369.56V368h1.13v1.52Zm.05,10.82V371.5h1v8.88Z"/><path class="cls-5" d="M323.35,380.38h-1V371.5h1v1.23a3.77,3.77,0,0,1,2.86-1.47,3.08,3.08,0,0,1,2.71,1.27,3.36,3.36,0,0,1,.45,2v5.81h-1v-5.79c0-1.6-.65-2.4-2.3-2.4a2.59,2.59,0,0,0-2.47,1.73,4.68,4.68,0,0,0-.22,1.68Z"/><path class="cls-5" d="M213.86,388.28a13.43,13.43,0,0,0,0,15.94H213c-1.89-2.6-2.94-4.75-2.94-8a12.46,12.46,0,0,1,2.94-7.94Z"/><path class="cls-5" d="M216.58,401V388.6h1.79l4,10.89h0l4-10.89h1.77V401H227v-11h0l-4.05,11h-1.09l-4.07-11h0v11Z"/><path class="cls-5" d="M231.29,390.13V388.6h1.13v1.53Zm.05,10.82v-8.88h1V401Z"/><path class="cls-5" d="M236.45,401h-1v-8.88h1v1.23a3.77,3.77,0,0,1,2.86-1.47A3.08,3.08,0,0,1,242,393.1a3.36,3.36,0,0,1,.45,2V401h-1v-5.8c0-1.59-.65-2.4-2.3-2.4a2.61,2.61,0,0,0-2.47,1.73,4.74,4.74,0,0,0-.22,1.68Z"/><path class="cls-5" d="M246,396.75c0,1.92,1,3.51,3,3.51a2.61,2.61,0,0,0,2.69-2h1.15a3.72,3.72,0,0,1-3.84,3c-2.85,0-4.08-2-4.08-4.65s1.54-4.71,4.08-4.71,3.92,1.73,3.91,4.92Zm5.8-.86c0-1.73-1-3.14-2.81-3.14s-2.78,1.46-3,3.14Z"/><path class="cls-5" d="M256.42,401h-1v-8.88h1v1.66h0a2.69,2.69,0,0,1,2.9-1.9v1.11c-2.32-.05-2.93,1.66-2.93,3.65Z"/><path class="cls-5" d="M262.07,398.17a2.32,2.32,0,0,0,2.66,2.09c1.49,0,2.2-.79,2.2-1.64,0-2.58-5.7-.76-5.7-4.26,0-1.47,1.15-2.53,3.12-2.53s3.18.79,3.43,2.79h-1a2.09,2.09,0,0,0-2.4-1.87c-1.31,0-2,.62-2,1.53,0,2.42,5.69.91,5.69,4.32,0,1.7-1.52,2.59-3.61,2.59a3.12,3.12,0,0,1-3.38-3Z"/><path class="cls-5" d="M275.34,402.49h-1l4-14.21h1Z"/><path class="cls-5" d="M286.69,397.26c.19,2.21,1.66,3,3.55,3,2.21,0,3.13-1.2,3.13-2.56,0-3.82-7.52-1.28-7.52-6.13,0-1.72,1.42-3.31,4.18-3.31s4.17,1.68,4.15,3.68h-1.12c0-1.88-1.45-2.69-3-2.69-2.37,0-3.22,1.46-3,2.73.53,3.19,7.53.89,7.53,5.67,0,2.27-1.66,3.6-4.51,3.6-2.57,0-4.47-1.33-4.47-4Z"/><path class="cls-5" d="M297,401V388.6h1v4.7a3.79,3.79,0,0,1,2.87-1.47,3.07,3.07,0,0,1,2.7,1.27,3.36,3.36,0,0,1,.45,2V401h-1v-5.8c0-1.59-.65-2.4-2.3-2.4a2.62,2.62,0,0,0-2.47,1.73,4.74,4.74,0,0,0-.22,1.68V401Z"/><path class="cls-5" d="M311,395.77a5.24,5.24,0,0,0,1.36-.29c.34-.16.37-.62.37-.93,0-1-.61-1.8-2.21-1.8-1.42,0-2.4.47-2.59,2h-1c.15-2.09,1.71-2.93,3.65-2.93s3.22.7,3.22,2.76v4.83c0,.81.21,1,1.08.69v.8a2.52,2.52,0,0,1-.8.17,1.83,1.83,0,0,1-.47-.05c-.68-.1-.8-.7-.82-1.32a4.36,4.36,0,0,1-3.31,1.48c-1.56,0-3-.84-3-2.56,0-1.49,1-2.4,3.1-2.67Zm1.73.51a8.45,8.45,0,0,1-2.65.5c-1.56.12-2.51.69-2.51,1.89s.95,1.59,1.92,1.59c1.63,0,3.24-.79,3.24-2.59Z"/><path class="cls-5" d="M318,401h-1v-8.88h1v1.66h0a2.69,2.69,0,0,1,2.9-1.9v1.11c-2.31-.05-2.93,1.66-2.93,3.65Z"/><path class="cls-5" d="M329.86,388.6h1V401h-1v-1.56h0a3.58,3.58,0,0,1-3.09,1.8c-2.86,0-4-2-4-4.67,0-2.48,1.25-4.69,4-4.69a3.69,3.69,0,0,1,3.17,1.66Zm-3,4.15c-2.12,0-3.12,1.8-3,4s1.3,3.48,3,3.48c1.94,0,3-1.64,3-3.79S328.73,392.75,326.86,392.75Z"/><path class="cls-5" d="M334.54,396.75c0,1.92,1,3.51,3,3.51a2.61,2.61,0,0,0,2.7-2h1.15a3.73,3.73,0,0,1-3.85,3c-2.84,0-4.08-2-4.08-4.65s1.55-4.71,4.08-4.71,3.93,1.73,3.91,4.92Zm5.8-.86c0-1.73-1-3.14-2.82-3.14s-2.77,1.46-3,3.14Z"/><path class="cls-5" d="M345,401h-1v-8.88h1v1.66h0a2.69,2.69,0,0,1,2.9-1.9v1.11c-2.32-.05-2.93,1.66-2.93,3.65Z"/><path class="cls-5" d="M350.6,398.17a2.32,2.32,0,0,0,2.66,2.09c1.49,0,2.19-.79,2.19-1.64,0-2.58-5.69-.76-5.69-4.26,0-1.47,1.15-2.53,3.12-2.53s3.17.79,3.43,2.79h-1a2.09,2.09,0,0,0-2.4-1.87c-1.31,0-2,.62-2,1.53,0,2.42,5.69.91,5.69,4.32,0,1.7-1.52,2.59-3.62,2.59a3.11,3.11,0,0,1-3.37-3Z"/><path class="cls-5" d="M358.73,404.22a14.19,14.19,0,0,0,2.62-8,14.39,14.39,0,0,0-2.62-7.92h.87c1.89,2.6,2.93,4.75,2.93,8a12.5,12.5,0,0,1-2.93,7.94Z"/><path class="cls-5" d="M484,339.24V328.47h1.56l3.53,9.5h0l3.47-9.5h1.54v10.77h-1v-9.6h0l-3.53,9.6h-1l-3.54-9.6h0v9.6Z"/><path class="cls-5" d="M500.34,334.72a4.76,4.76,0,0,0,1.19-.25c.29-.13.32-.54.32-.81,0-.91-.53-1.57-1.93-1.57-1.24,0-2.09.41-2.26,1.75h-.91c.14-1.82,1.5-2.56,3.19-2.56s2.81.62,2.81,2.41v4.22c0,.7.18.87.94.6v.7a2.29,2.29,0,0,1-.7.15,1.7,1.7,0,0,1-.4,0c-.6-.09-.71-.62-.72-1.15a3.84,3.84,0,0,1-2.89,1.28,2.3,2.3,0,0,1-2.59-2.23c0-1.3.9-2.09,2.71-2.33Zm1.51.45a7.21,7.21,0,0,1-2.31.44c-1.37.1-2.19.6-2.19,1.64s.82,1.39,1.68,1.39c1.42,0,2.82-.68,2.82-2.26Z"/><path class="cls-5" d="M506.41,339.24h-.89v-7.75h.89v1.45h0a2.35,2.35,0,0,1,2.53-1.66v1c-2-.05-2.56,1.45-2.56,3.18Z"/><path class="cls-5" d="M510.77,339.24V328.47h.89v6.7l3.8-3.68h1.23l-2.9,2.8,3.24,4.95h-1l-2.9-4.32-1.47,1.39v2.93Z"/><path class="cls-5" d="M519.23,335.58c0,1.67.88,3.06,2.6,3.06a2.27,2.27,0,0,0,2.35-1.78h1a3.25,3.25,0,0,1-3.36,2.59c-2.48,0-3.56-1.76-3.56-4.05s1.35-4.12,3.56-4.12,3.43,1.51,3.42,4.3Zm5.06-.75a2.46,2.46,0,0,0-2.46-2.74c-1.58,0-2.42,1.27-2.6,2.74Z"/><path class="cls-5" d="M528.31,339.24h-.9v-7.75h.9v1.45h0a2.34,2.34,0,0,1,2.53-1.66v1c-2-.05-2.56,1.45-2.56,3.18Z"/><path class="cls-5" d="M533.24,336.82a2,2,0,0,0,2.32,1.82c1.3,0,1.92-.68,1.92-1.43,0-2.25-5-.66-5-3.71,0-1.29,1-2.22,2.72-2.22s2.77.69,3,2.44h-.92a1.82,1.82,0,0,0-2.09-1.63c-1.14,0-1.75.54-1.75,1.33,0,2.11,5,.8,5,3.77,0,1.48-1.33,2.26-3.16,2.26a2.72,2.72,0,0,1-2.95-2.63Z"/><path class="cls-4" d="M674.29,318.53l-5.46-15-5.45,15,1.61.59,3-8.2v34.15a.86.86,0,1,0,1.71,0V310.92l3,8.2Z"/><path class="cls-4" d="M690.38,329.51l-3,8.2V303.56a.86.86,0,0,0-1.72,0v34.15l-3-8.2-1.61.59,5.45,15,5.45-15Z"/><path class="cls-5" d="M582.81,331.6c-.42-1.84-1.56-2.55-3.4-2.55-2.6,0-3.73,2.23-3.73,4.78s.89,4.83,3.82,4.83a3.46,3.46,0,0,0,3.41-3H584a4.45,4.45,0,0,1-4.67,3.83c-3.32,0-4.63-2.62-4.63-5.67,0-4.12,2.15-5.67,5-5.67a3.87,3.87,0,0,1,4.17,3.41Z"/><path class="cls-5" d="M586.2,339.24V328.47h.9v4.1a3.28,3.28,0,0,1,2.49-1.29,2.71,2.71,0,0,1,2.37,1.11,3,3,0,0,1,.39,1.78v5.07h-.9v-5.05c0-1.4-.57-2.1-2-2.1a2.26,2.26,0,0,0-2.15,1.51,4,4,0,0,0-.19,1.47v4.17Z"/><path class="cls-5" d="M598.45,334.72a4.68,4.68,0,0,0,1.18-.25c.3-.13.33-.54.33-.81,0-.91-.54-1.57-1.93-1.57s-2.1.41-2.26,1.75h-.91c.13-1.82,1.49-2.56,3.18-2.56s2.82.62,2.82,2.41v4.22c0,.7.18.87.94.6v.7a2.36,2.36,0,0,1-.7.15,1.84,1.84,0,0,1-.41,0c-.6-.09-.7-.62-.72-1.15a3.8,3.8,0,0,1-2.88,1.28,2.3,2.3,0,0,1-2.59-2.23c0-1.3.9-2.09,2.71-2.33Zm1.51.45a7.22,7.22,0,0,1-2.32.44c-1.36.1-2.18.6-2.18,1.64s.82,1.39,1.67,1.39c1.42,0,2.83-.68,2.83-2.26Z"/><path class="cls-5" d="M603.71,339.24V328.47h.9v10.77Z"/><path class="cls-5" d="M607.4,339.24V328.47h.9v10.77Z"/><path class="cls-5" d="M611.52,335.58c0,1.67.88,3.06,2.6,3.06a2.27,2.27,0,0,0,2.35-1.78h1a3.24,3.24,0,0,1-3.35,2.59c-2.48,0-3.56-1.76-3.56-4.05s1.35-4.12,3.56-4.12,3.43,1.51,3.41,4.3Zm5.06-.75a2.46,2.46,0,0,0-2.46-2.74c-1.59,0-2.42,1.27-2.6,2.74Z"/><path class="cls-5" d="M620.55,339.24h-.9v-7.75h.9v1.08a3.3,3.3,0,0,1,2.5-1.29,2.69,2.69,0,0,1,2.36,1.11,2.91,2.91,0,0,1,.39,1.78v5.07h-.9v-5.05c0-1.4-.56-2.1-2-2.1a2.28,2.28,0,0,0-2.16,1.51,4.25,4.25,0,0,0-.19,1.47Z"/><path class="cls-5" d="M634.33,331.49h.89v7c0,2.08-.68,3.92-3.63,3.92-2.28,0-3.22-1.3-3.28-2.22h1c.27,1.16,1.26,1.42,2.32,1.42,2.45,0,2.78-1.83,2.74-3.61a3.24,3.24,0,0,1-2.77,1.45c-2.37,0-3.46-1.93-3.46-4.1s1-4.07,3.5-4.07a3.15,3.15,0,0,1,2.7,1.57h0Zm-2.62.6c-1.51,0-2.63,1.09-2.65,3s.79,3.51,2.65,3.51c1.63,0,2.62-1.49,2.62-3.24S633.4,332.09,631.71,332.09Z"/><path class="cls-5" d="M638.41,335.58c0,1.67.88,3.06,2.6,3.06a2.27,2.27,0,0,0,2.35-1.78h1a3.23,3.23,0,0,1-3.35,2.59c-2.48,0-3.56-1.76-3.56-4.05s1.35-4.12,3.56-4.12,3.43,1.51,3.41,4.3Zm5.06-.75a2.46,2.46,0,0,0-2.46-2.74c-1.58,0-2.42,1.27-2.6,2.74Z"/><path class="cls-5" d="M647.07,336.82a2,2,0,0,0,2.32,1.82c1.3,0,1.91-.68,1.91-1.43,0-2.25-5-.66-5-3.71,0-1.29,1-2.22,2.73-2.22s2.77.69,3,2.44h-.91a1.83,1.83,0,0,0-2.1-1.63c-1.13,0-1.75.54-1.75,1.33,0,2.11,5,.8,5,3.77,0,1.48-1.33,2.26-3.16,2.26a2.73,2.73,0,0,1-3-2.63Z"/><path class="cls-5" d="M707,334.35v4.89h-1V328.47h4.22c2.36,0,3.66.84,3.66,2.83a2.52,2.52,0,0,1-1.75,2.63c1.27.44,1.35,1.78,1.38,2.92,0,1.63.18,2.08.45,2.29v.1h-1.12c-.42-.73-.32-2.75-.48-3.57-.24-1.17-1.12-1.32-2.14-1.32Zm3.17-.87c1.51,0,2.68-.63,2.68-2.14s-1.26-2-2.62-2H707v4.14Z"/><path class="cls-5" d="M716.79,335.58c0,1.67.89,3.06,2.6,3.06a2.27,2.27,0,0,0,2.35-1.78h1a3.25,3.25,0,0,1-3.36,2.59c-2.48,0-3.56-1.76-3.56-4.05s1.35-4.12,3.56-4.12,3.43,1.51,3.42,4.3Zm5.06-.75a2.46,2.46,0,0,0-2.46-2.74c-1.58,0-2.42,1.27-2.6,2.74Z"/><path class="cls-5" d="M725.45,336.82a2,2,0,0,0,2.32,1.82c1.3,0,1.91-.68,1.91-1.43,0-2.25-5-.66-5-3.71,0-1.29,1-2.22,2.72-2.22s2.77.69,3,2.44h-.91a1.82,1.82,0,0,0-2.09-1.63c-1.14,0-1.75.54-1.75,1.33,0,2.11,5,.8,5,3.77,0,1.48-1.33,2.26-3.15,2.26a2.71,2.71,0,0,1-3-2.63Z"/><path class="cls-5" d="M733.78,342.3h-.9V331.49h.9v1.36h0a3.13,3.13,0,0,1,2.69-1.57c2.5,0,3.5,1.78,3.5,4.07s-1.09,4.1-3.45,4.1a3.24,3.24,0,0,1-2.77-1.45Zm2.62-3.66c1.85,0,2.72-1.57,2.65-3.51s-1.14-3-2.65-3c-1.69,0-2.62,1.44-2.62,3.31S734.77,338.64,736.4,338.64Z"/><path class="cls-5" d="M741.78,335.37c0-2.26,1.2-4.09,3.59-4.09s3.59,1.81,3.59,4.09c0,2.45-1.42,4.08-3.59,4.08C743.4,339.42,741.78,338.08,741.78,335.37Zm3.59-3.28c-1.88,0-2.63,1.6-2.63,3.28,0,1.93.91,3.27,2.63,3.27,1.89,0,2.63-1.61,2.63-3.27C748,333.54,747.27,332.09,745.37,332.09Z"/><path class="cls-5" d="M751.88,339.24H751v-7.75h.9v1.08a3.3,3.3,0,0,1,2.5-1.29,2.69,2.69,0,0,1,2.36,1.11,3,3,0,0,1,.39,1.78v5.07h-.9v-5.05c0-1.4-.57-2.1-2-2.1a2.28,2.28,0,0,0-2.16,1.51,4,4,0,0,0-.19,1.47Z"/><path class="cls-5" d="M760.19,336.82a2,2,0,0,0,2.32,1.82c1.3,0,1.92-.68,1.92-1.43,0-2.25-5-.66-5-3.71,0-1.29,1-2.22,2.72-2.22s2.77.69,3,2.44h-.92a1.82,1.82,0,0,0-2.09-1.63c-1.14,0-1.75.54-1.75,1.33,0,2.11,5,.8,5,3.77,0,1.48-1.34,2.26-3.16,2.26a2.72,2.72,0,0,1-3-2.63Z"/><path class="cls-5" d="M768.07,335.58c0,1.67.89,3.06,2.61,3.06a2.27,2.27,0,0,0,2.35-1.78h1a3.24,3.24,0,0,1-3.35,2.59c-2.49,0-3.56-1.76-3.56-4.05s1.34-4.12,3.56-4.12,3.42,1.51,3.41,4.3Zm5.06-.75a2.45,2.45,0,0,0-2.45-2.74c-1.59,0-2.43,1.27-2.61,2.74Z"/><path class="cls-5" d="M776.73,336.82a2,2,0,0,0,2.32,1.82c1.3,0,1.92-.68,1.92-1.43,0-2.25-5-.66-5-3.71,0-1.29,1-2.22,2.72-2.22s2.77.69,3,2.44h-.92a1.82,1.82,0,0,0-2.09-1.63c-1.14,0-1.75.54-1.75,1.33,0,2.11,5,.8,5,3.77,0,1.48-1.34,2.26-3.16,2.26a2.72,2.72,0,0,1-2.95-2.63Z"/></svg>