<?xml version="1.0" encoding="utf-8"?>
<!-- Generator: Adobe Illustrator 23.0.2, SVG Export Plug-In . SVG Version: 6.00 Build 0)  -->
<svg version="1.1" id="_x2014_ÎÓÈ_x5F_1" xmlns="http://www.w3.org/2000/svg" xmlns:xlink="http://www.w3.org/1999/xlink"
	 x="0px" y="0px" viewBox="0 0 600 450" style="enable-background:new 0 0 600 450;" xml:space="preserve">
<style type="text/css">
	.st0{opacity:0.2;}
	.st1{fill:#312A91;}
	.st2{opacity:0.5;fill:url(#SVGID_1_);enable-background:new    ;}
	.st3{fill:url(#SVGID_2_);}
	.st4{opacity:0.5;fill:url(#SVGID_3_);enable-background:new    ;}
	.st5{fill:#5CFFF3;}
	.st6{fill:#42E8E0;}
	.st7{opacity:0.5;fill:url(#SVGID_4_);enable-background:new    ;}
	.st8{opacity:0.8;fill:url(#SVGID_5_);enable-background:new    ;}
	.st9{fill:#FCCC6B;}
	.st10{opacity:0.5;fill:#5CFFF3;enable-background:new    ;}
	.st11{opacity:0.4;fill:#5CFFF3;enable-background:new    ;}
	.st12{opacity:0.3;fill:#5CFFF3;enable-background:new    ;}
	.st13{opacity:0.2;fill:#5CFFF3;enable-background:new    ;}
	.st14{opacity:0.1;fill:#5CFFF3;enable-background:new    ;}
	.st15{opacity:0.8;fill:#5CFFF3;enable-background:new    ;}
	.st16{fill:url(#SVGID_6_);}
	.st17{opacity:0.7;fill:url(#SVGID_7_);enable-background:new    ;}
	.st18{fill:url(#SVGID_8_);}
</style>
<g>
	<g>
		<g class="st0">
			<g>
				<g>
					<path class="st1" d="M444.48,338.21v-22.16h-57.16l-67.58-39.02c-9.02-5.21-24.77-4.55-35.19,1.46l-65.06,37.56h-57.2v23.41
						h0.05c-0.26,3.52,1.71,6.93,6.04,9.43l118.7,68.53c9.02,5.21,24.77,4.55,35.19-1.46l113.64-65.61
						C441.92,346.89,444.82,342.4,444.48,338.21z"/>
					
						<linearGradient id="SVGID_1_" gradientUnits="userSpaceOnUse" x1="99.9038" y1="104.775" x2="382.1206" y2="104.775" gradientTransform="matrix(1 0 0 -1 0 452)">
						<stop  offset="0" style="stop-color:#42E8E0"/>
						<stop  offset="0.1022" style="stop-color:#3CCACE"/>
						<stop  offset="0.3445" style="stop-color:#2F87A5"/>
						<stop  offset="0.564" style="stop-color:#255385"/>
						<stop  offset="0.7534" style="stop-color:#1E2D6E"/>
						<stop  offset="0.905" style="stop-color:#1A1660"/>
						<stop  offset="1" style="stop-color:#180D5B"/>
					</linearGradient>
					<path class="st2" d="M444.48,338.21v-22.16h-57.16l-67.58-39.02c-9.02-5.21-24.77-4.55-35.19,1.46l-65.06,37.56h-57.2v23.41
						h0.05c-0.26,3.52,1.71,6.93,6.04,9.43l118.7,68.53c9.02,5.21,24.77,4.55,35.19-1.46l113.64-65.61
						C441.92,346.89,444.82,342.4,444.48,338.21z"/>
					
						<linearGradient id="SVGID_2_" gradientUnits="userSpaceOnUse" x1="303.4" y1="104.7715" x2="444.5067" y2="104.7715" gradientTransform="matrix(1 0 0 -1 0 452)">
						<stop  offset="0" style="stop-color:#2B237C"/>
						<stop  offset="1" style="stop-color:#180D5B"/>
					</linearGradient>
					<path class="st3" d="M319.74,277.04c-4.34-2.5-10.23-3.64-16.34-3.49v147.37c6.6-0.16,13.46-1.82,18.87-4.95l113.64-65.61
						c6.01-3.47,8.91-7.96,8.57-12.14v-22.16h-57.16L319.74,277.04z"/>
					<path class="st1" d="M287.08,394.02l-118.7-68.53c-9.02-5.21-7.89-14.3,2.53-20.32l113.64-65.61
						c10.41-6.01,26.17-6.67,35.19-1.46l118.7,68.53c9.02,5.21,7.89,14.3-2.53,20.32l-113.64,65.61
						C311.85,398.57,296.1,399.22,287.08,394.02z"/>
					
						<linearGradient id="SVGID_3_" gradientUnits="userSpaceOnUse" x1="162.2905" y1="135.942" x2="444.5295" y2="135.942" gradientTransform="matrix(1 0 0 -1 0 452)">
						<stop  offset="0" style="stop-color:#42E8E0"/>
						<stop  offset="0.1022" style="stop-color:#3CCACE"/>
						<stop  offset="0.3445" style="stop-color:#2F87A5"/>
						<stop  offset="0.564" style="stop-color:#255385"/>
						<stop  offset="0.7534" style="stop-color:#1E2D6E"/>
						<stop  offset="0.905" style="stop-color:#1A1660"/>
						<stop  offset="1" style="stop-color:#180D5B"/>
					</linearGradient>
					<path class="st4" d="M287.08,394.02l-118.7-68.53c-9.02-5.21-7.89-14.3,2.53-20.32l113.64-65.61
						c10.41-6.01,26.17-6.67,35.19-1.46l118.7,68.53c9.02,5.21,7.89,14.3-2.53,20.32l-113.64,65.61
						C311.85,398.57,296.1,399.22,287.08,394.02z"/>
					<path class="st5" d="M290.25,378.87l-95.64-55.22c-7.27-4.2-6.36-11.52,2.04-16.37l91.56-52.86
						c8.39-4.84,21.08-5.37,28.35-1.18l95.64,55.22c7.27,4.2,6.36,11.52-2.04,16.37l-91.56,52.86
						C310.21,382.54,297.52,383.06,290.25,378.87z"/>
					<path class="st6" d="M196.65,314.45l91.56-52.86c8.39-4.84,21.09-5.37,28.35-1.18l95.64,55.22c1.79,1.04,3.09,2.26,3.89,3.6
						c2.11-3.88,0.89-8-3.89-10.76l-95.64-55.22c-7.27-4.2-19.96-3.67-28.35,1.18l-91.56,52.86c-6.32,3.65-8.39,8.7-5.93,12.77
						C191.81,318.05,193.78,316.1,196.65,314.45z"/>
					
						<linearGradient id="SVGID_4_" gradientUnits="userSpaceOnUse" x1="162.2805" y1="135.9365" x2="306.33" y2="135.9365" gradientTransform="matrix(1 0 0 -1 0 452)">
						<stop  offset="0" style="stop-color:#42E8E0"/>
						<stop  offset="0.1022" style="stop-color:#3CCACE"/>
						<stop  offset="0.3445" style="stop-color:#2F87A5"/>
						<stop  offset="0.564" style="stop-color:#255385"/>
						<stop  offset="0.7534" style="stop-color:#1E2D6E"/>
						<stop  offset="0.905" style="stop-color:#1A1660"/>
						<stop  offset="1" style="stop-color:#180D5B"/>
					</linearGradient>
					<path class="st7" d="M291.06,394.02l-118.7-68.53c-9.02-5.21-11.18-12.86,2.53-20.32l113.64-65.61
						c5.12-2.96,11.53-4.61,17.8-4.92c-7.46-0.34-15.57,1.33-21.79,4.92L170.9,305.17c-10.42,6.01-11.55,15.11-2.53,20.32
						l118.7,68.53c4.58,2.65,10.91,3.77,17.39,3.46C299.43,397.25,294.7,396.11,291.06,394.02z"/>
					
						<linearGradient id="SVGID_5_" gradientUnits="userSpaceOnUse" x1="200.6729" y1="53.8195" x2="436.9071" y2="208.228" gradientTransform="matrix(1 0 0 -1 0 452)">
						<stop  offset="0" style="stop-color:#42E8E0"/>
						<stop  offset="0.1022" style="stop-color:#3CCACE"/>
						<stop  offset="0.3445" style="stop-color:#2F87A5"/>
						<stop  offset="0.564" style="stop-color:#255385"/>
						<stop  offset="0.7534" style="stop-color:#1E2D6E"/>
						<stop  offset="0.905" style="stop-color:#1A1660"/>
						<stop  offset="1" style="stop-color:#180D5B"/>
					</linearGradient>
					<path class="st8" d="M435.91,336.84l-113.64,65.61c-10.42,6.01-26.17,6.67-35.19,1.46l-118.7-68.53
						c-4.33-2.5-6.3-5.9-6.04-9.43h-0.05v4.85h0.05c-0.26,3.52,1.71,6.93,6.04,9.43l118.7,68.53c9.02,5.21,24.77,4.55,35.19-1.46
						l113.64-65.61c6.01-3.47,8.91-7.96,8.57-12.14v-4.85C444.82,328.88,441.92,333.37,435.91,336.84z"/>
				</g>
				<g>
					<path class="st9" d="M415.3,330.38c1.3,0.75,1.3,1.96,0,2.71s-3.4,0.75-4.69,0c-1.3-0.75-1.3-1.96,0-2.71
						C411.91,329.63,414.01,329.63,415.3,330.38z"/>
					<path class="st9" d="M422.61,326.16c1.3,0.75,1.3,1.96,0,2.71s-3.4,0.75-4.69,0c-1.3-0.75-1.3-1.96,0-2.71
						C419.21,325.41,421.31,325.41,422.61,326.16z"/>
					<path class="st9" d="M429.91,321.94c1.3,0.75,1.3,1.96,0,2.71s-3.4,0.75-4.69,0c-1.3-0.75-1.3-1.96,0-2.71
						S428.62,321.2,429.91,321.94z"/>
				</g>
			</g>
		</g>
	</g>
	<g>
		<g>
			<rect x="102.11" y="60.51" class="st10" width="31.29" height="4.6"/>
			<rect x="116.37" y="75.15" class="st10" width="17.03" height="4.6"/>
			<rect x="116.37" y="89.79" class="st10" width="17.03" height="4.6"/>
			<rect x="116.37" y="104.43" class="st10" width="17.03" height="4.6"/>
			<rect x="116.37" y="119.06" class="st10" width="17.03" height="4.6"/>
			<rect x="116.37" y="133.7" class="st10" width="17.03" height="4.6"/>
			<rect x="116.37" y="148.34" class="st10" width="17.03" height="4.6"/>
			<rect x="116.37" y="162.98" class="st10" width="17.03" height="4.6"/>
			<rect x="116.37" y="177.61" class="st10" width="17.03" height="4.6"/>
			<rect x="102.11" y="192.25" class="st10" width="31.29" height="4.6"/>
			<rect x="116.37" y="206.89" class="st10" width="17.03" height="4.6"/>
			<rect x="116.37" y="221.53" class="st11" width="17.03" height="4.6"/>
			<rect x="116.37" y="236.17" class="st12" width="17.03" height="4.6"/>
			<rect x="116.37" y="250.8" class="st13" width="17.03" height="4.6"/>
			<rect x="116.37" y="265.44" class="st14" width="17.03" height="4.6"/>
		</g>
		<rect x="116.37" y="75.15" class="st15" width="17.03" height="4.6"/>
		<rect x="116.37" y="148.34" class="st15" width="17.03" height="4.6"/>
	</g>
	<g>
		<g>
			<g>
				<rect x="462.1" y="18.9" class="st11" width="11.94" height="11.94"/>
				<rect x="462.1" y="37.87" class="st11" width="11.94" height="11.94"/>
				<rect x="462.1" y="56.84" class="st11" width="11.94" height="11.94"/>
				<rect x="462.1" y="75.81" class="st11" width="11.94" height="11.94"/>
				<rect x="462.1" y="94.78" class="st11" width="11.94" height="11.94"/>
				<rect x="480.72" y="18.9" class="st11" width="11.94" height="11.94"/>
				<rect x="480.72" y="37.87" class="st11" width="11.94" height="11.94"/>
				<rect x="480.72" y="56.84" class="st11" width="11.94" height="11.94"/>
				<rect x="480.72" y="75.81" class="st11" width="11.94" height="11.94"/>
				<rect x="480.72" y="94.78" class="st11" width="11.94" height="11.94"/>
				<rect x="499.35" y="18.9" class="st11" width="11.94" height="11.94"/>
				<rect x="499.35" y="37.87" class="st11" width="11.94" height="11.94"/>
				<rect x="499.35" y="56.84" class="st11" width="11.94" height="11.94"/>
				<rect x="499.35" y="75.81" class="st11" width="11.94" height="11.94"/>
				<rect x="499.35" y="94.78" class="st11" width="11.94" height="11.94"/>
			</g>
			<rect x="480.72" y="18.9" class="st15" width="11.94" height="11.94"/>
			<rect x="480.72" y="75.81" class="st15" width="11.94" height="11.94"/>
			<rect x="499.35" y="37.87" class="st15" width="11.94" height="11.94"/>
		</g>
		<path class="st5" d="M531.49,232.05h-26.17c-0.6,0-1.08-0.48-1.08-1.08s0.48-1.08,1.08-1.08h25.09V82.86h-25.09
			c-0.6,0-1.08-0.48-1.08-1.08s0.48-1.08,1.08-1.08h26.17c0.6,0,1.08,0.48,1.08,1.08v149.19
			C532.57,231.57,532.09,232.05,531.49,232.05z"/>
		<g>
			<rect x="462.1" y="187.06" class="st11" width="11.94" height="11.94"/>
			<rect x="462.1" y="206.03" class="st11" width="11.94" height="11.94"/>
			<rect x="462.1" y="225" class="st11" width="11.94" height="11.94"/>
			<rect x="480.72" y="187.06" class="st11" width="11.94" height="11.94"/>
			<rect x="480.72" y="206.03" class="st11" width="11.94" height="11.94"/>
			<rect x="480.72" y="225" class="st11" width="11.94" height="11.94"/>
			<rect x="499.35" y="187.06" class="st11" width="11.94" height="11.94"/>
			<rect x="499.35" y="206.03" class="st11" width="11.94" height="11.94"/>
			<rect x="499.35" y="225" class="st11" width="11.94" height="11.94"/>
			<rect x="480.72" y="187.06" class="st15" width="11.94" height="11.94"/>
			<rect x="499.35" y="206.03" class="st15" width="11.94" height="11.94"/>
		</g>
	</g>
</g>
<linearGradient id="SVGID_6_" gradientUnits="userSpaceOnUse" x1="3251.2441" y1="-85.2" x2="3251.2441" y2="-85.2" gradientTransform="matrix(-1 0 0 -1 3559.1941 112)">
	<stop  offset="0" style="stop-color:#180D5B"/>
	<stop  offset="0.095" style="stop-color:#1A1660"/>
	<stop  offset="0.2466" style="stop-color:#1E2D6E"/>
	<stop  offset="0.436" style="stop-color:#255385"/>
	<stop  offset="0.6555" style="stop-color:#2F87A5"/>
	<stop  offset="0.8978" style="stop-color:#3CCACE"/>
	<stop  offset="1" style="stop-color:#42E8E0"/>
</linearGradient>
<path class="st16" d="M307.95,197.2"/>
<linearGradient id="SVGID_7_" gradientUnits="userSpaceOnUse" x1="2945.2393" y1="-152.6037" x2="3385.4075" y2="27.3753" gradientTransform="matrix(-1 0 0 -1 3559.1941 112)">
	<stop  offset="0" style="stop-color:#180D5B"/>
	<stop  offset="0.1734" style="stop-color:#22427B"/>
	<stop  offset="0.3875" style="stop-color:#2D7D9F"/>
	<stop  offset="0.585" style="stop-color:#36ABBB"/>
	<stop  offset="0.7592" style="stop-color:#3DCCCF"/>
	<stop  offset="0.9034" style="stop-color:#41E1DC"/>
	<stop  offset="1" style="stop-color:#42E8E0"/>
</linearGradient>
<path class="st17" d="M199.46,87.91l43.28-25.13l0,0c6.45-3.85,15.42-3.38,25.37,2.37c3.22,1.86,6.37,4.2,9.36,6.88l17.44-10.06l0,0
	c9.6-6.72,23.42-6.45,38.85,2.49c19.5,11.27,36.52,33.45,45.53,56.91c2.99,0.08,6.29,1.09,9.83,3.11
	c12.74,7.34,23.07,25.25,23.07,39.93c0,0.31-0.04,0.62-0.04,0.93c3.65,0.23,7.65,1.55,11.89,3.96c16.28,9.4,29.48,32.28,29.48,51.08
	c0,9.32-3.26,15.89-8.51,19l0,0l-0.12,0.08c0,0,0,0-0.04,0l-42.69,24.78l-9.32-44.87l-124.7-71.98
	c-15.93-9.21-29.41-29.1-33.95-48.36L199.46,87.91z"/>
<linearGradient id="SVGID_8_" gradientUnits="userSpaceOnUse" x1="3317.1462" y1="-1176.5182" x2="3722.1836" y2="-1174.9896" gradientTransform="matrix(-0.866 -0.5 0 -1.1547 3421.4138 595.8941)">
	<stop  offset="0" style="stop-color:#180D5B"/>
	<stop  offset="0.095" style="stop-color:#1A1660"/>
	<stop  offset="0.2466" style="stop-color:#1E2D6E"/>
	<stop  offset="0.436" style="stop-color:#255385"/>
	<stop  offset="0.6555" style="stop-color:#2F87A5"/>
	<stop  offset="0.8978" style="stop-color:#3CCACE"/>
	<stop  offset="1" style="stop-color:#42E8E0"/>
</linearGradient>
<path class="st18" d="M193.71,108.72c0-22.69,15.89-31.89,35.54-20.55c5.59,3.22,10.88,7.77,15.58,13.17
	c6.53-21.02,26.49-27.5,50.07-13.91c19.5,11.27,36.52,33.45,45.53,56.91c2.99,0.08,6.29,1.09,9.83,3.11
	c12.74,7.34,23.07,25.25,23.07,39.93c0,0.31-0.04,0.62-0.04,0.93c3.65,0.23,7.65,1.55,11.89,3.96c16.28,9.4,29.48,32.28,29.48,51.08
	s-13.21,26.42-29.48,17.01l-155.89-90.01C209.63,159.02,193.71,131.4,193.71,108.72"/>
</svg>
