<svg id="Layer_1" data-name="Layer 1" xmlns="http://www.w3.org/2000/svg" viewBox="0 0 400 141.33"><defs><style>.cls-1{fill:#afafaf;}.cls-2{fill:#15ccba;}.cls-3{fill:#727272;}.cls-4{fill:#efa52e;}</style></defs><title>fast</title><path class="cls-1" d="M86.63,35.55H83.21v-.79c2-.13,3.27-.34,3.67-2.62h1V45.42H86.63Z"/><path class="cls-1" d="M93.9,42.37a2.55,2.55,0,0,0,2.92,2.29c1.64,0,2.41-.86,2.41-1.8C99.23,40,93,42,93,38.19c0-1.62,1.26-2.79,3.42-2.79s3.49.87,3.77,3.07H99c-.21-1.51-1.22-2-2.63-2s-2.21.68-2.21,1.67c0,2.66,6.25,1,6.25,4.75,0,1.86-1.67,2.84-4,2.84a3.43,3.43,0,0,1-3.71-3.31Z"/><path class="cls-1" d="M101.25,74.14a4.07,4.07,0,0,1,4.31-4.35c2.67,0,4.09,1.63,4.09,3.67,0,3.52-3.81,4.4-5.78,5.91A3.55,3.55,0,0,0,102.13,82h7.4v1h-8.68a4.57,4.57,0,0,1,1-3.24c2.77-3.2,6.44-3.16,6.44-6.29a2.68,2.68,0,0,0-2.92-2.73,3,3,0,0,0-2.88,3.34Z"/><path class="cls-1" d="M116.53,73.65h1.13v4.14h4.15v1.13h-4.15v4.14h-1.13V78.92h-4.14V77.79h4.14Z"/><path class="cls-1" d="M131.82,83.06h-1.13V73.31h1.13v1.47h0a3.34,3.34,0,0,1,3-1.74,2.67,2.67,0,0,1,2.86,1.89A3.39,3.39,0,0,1,140.91,73c2.66,0,3,1.91,3,3.86v6.16h-1.13V76.32c0-1.39-.49-2.26-2.09-2.26a2.7,2.7,0,0,0-2.2,1.11,4.86,4.86,0,0,0-.64,2.64v5.25h-1.13V76.32c0-1.39-.49-2.26-2.09-2.26a2.7,2.7,0,0,0-2.2,1.11,4.86,4.86,0,0,0-.64,2.64Z"/><path class="cls-1" d="M147.1,71.18V69.5h1.24v1.68Zm.06,11.88V73.31h1.13v9.75Z"/><path class="cls-1" d="M152.77,83.06h-1.13V73.31h1.13v1.35A4.13,4.13,0,0,1,155.91,73a3.41,3.41,0,0,1,3,1.4,3.71,3.71,0,0,1,.49,2.24v6.38h-1.13V76.7c0-1.75-.72-2.64-2.53-2.64A2.85,2.85,0,0,0,153,76a5.18,5.18,0,0,0-.24,1.85Z"/><path class="cls-1" d="M309.78,113.81h-3.43V113c2-.13,3.28-.34,3.68-2.61h1v13.27h-1.21Z"/><path class="cls-1" d="M320.68,114.27h1.13v4.14H326v1.13h-4.14v4.14h-1.13v-4.14h-4.14v-1.13h4.14Z"/><path class="cls-1" d="M335,123.68V110.12h1.13v5.16a4.15,4.15,0,0,1,3.15-1.62,3.39,3.39,0,0,1,3,1.4,3.71,3.71,0,0,1,.49,2.24v6.38h-1.13v-6.36c0-1.76-.71-2.64-2.52-2.64a2.85,2.85,0,0,0-2.71,1.9,5,5,0,0,0-.25,1.85v5.25Z"/><path class="cls-1" d="M345.28,118.8c0-2.84,1.51-5.14,4.52-5.14s4.52,2.28,4.52,5.14c0,3.09-1.79,5.14-4.52,5.14C347.31,123.91,345.28,122.21,345.28,118.8Zm4.52-4.12c-2.37,0-3.31,2-3.31,4.12,0,2.43,1.14,4.13,3.31,4.13,2.37,0,3.31-2,3.31-4.13C353.09,116.51,352.19,114.68,349.8,114.68Z"/><path class="cls-1" d="M363.47,113.93h1.13v9.75h-1.13v-1.36a3.92,3.92,0,0,1-3.15,1.62c-2.6,0-3.46-1.56-3.46-3.59v-6.42H358v6.4c0,1.67.73,2.6,2.5,2.6s3-1.55,3-3.69Z"/><path class="cls-1" d="M369,123.68h-1.13v-9.75H369v1.82h0a2.94,2.94,0,0,1,3.18-2.09v1.23c-2.54-.06-3.22,1.82-3.22,4Z"/><path class="cls-1" d="M375.19,120.63a2.56,2.56,0,0,0,2.92,2.3c1.64,0,2.41-.87,2.41-1.81,0-2.82-6.25-.83-6.25-4.67,0-1.62,1.26-2.79,3.43-2.79s3.48.87,3.76,3.07h-1.15c-.2-1.5-1.22-2-2.63-2s-2.21.68-2.21,1.68c0,2.65,6.25,1,6.25,4.74,0,1.86-1.67,2.84-4,2.84a3.43,3.43,0,0,1-3.71-3.31Z"/><path class="cls-2" d="M72,46.36a.94.94,0,0,1-.94-.94V22.83a.94.94,0,0,1,.94-.94h6.86a.94.94,0,1,1,0,1.88H73V45.42A.94.94,0,0,1,72,46.36Z"/><rect class="cls-2" x="77.95" y="16.71" width="1.88" height="12.24"/><path class="cls-3" d="M72,85.49a.94.94,0,0,1-.94-.94V62A.94.94,0,0,1,72,61H159.2a.94.94,0,0,1,0,1.88H73V84.55A.94.94,0,0,1,72,85.49Z"/><rect class="cls-3" x="158.26" y="55.84" width="1.88" height="12.24"/><path class="cls-4" d="M72,124.62a.94.94,0,0,1-.94-.94V101.09a.94.94,0,0,1,.94-.94H382a.94.94,0,0,1,0,1.88H73v21.65A.94.94,0,0,1,72,124.62Z"/><rect class="cls-4" x="381.08" y="94.97" width="1.88" height="12.24"/><path class="cls-2" d="M17,40.72V39.64l8.68-11.39H17.77V27.16H27.3v1.07L18.62,39.62h8.74v1.1Z"/><path class="cls-2" d="M39.57,31.09c-.52-2.31-2-3.2-4.27-3.2-3.28,0-4.69,2.81-4.69,6,0,3,1.11,6.08,4.8,6.08,2.34,0,3.79-1.58,4.29-3.73H41c-.6,2.62-2.24,4.82-5.87,4.82-4.18,0-5.84-3.29-5.84-7.13,0-5.18,2.71-7.14,6.31-7.14,2.78,0,4.82,1.49,5.25,4.29Z"/><path class="cls-2" d="M45.29,28.89h0V40.72H44V27.16h1.46L53.26,39h0V27.16h1.29V40.72H53.09Z"/><path class="cls-3" d="M18,80.25V66.69h9v1.09H19.26v4.9h7v1.09h-7v5.38h7.93v1.1Z"/><path class="cls-3" d="M28.73,66.69h9.86v1.09H34.3V80.25H33V67.78H28.73Z"/><path class="cls-3" d="M40.87,80.25V66.69h1.28v5.82h8V66.69h1.28V80.25H50.17V73.6h-8v6.65Z"/><path class="cls-4" d="M18,118.83V105.28h4.9c3.18,0,4.44,1.37,4.44,3.41a2.63,2.63,0,0,1-2.17,2.91v0A3.11,3.11,0,0,1,27.94,115c0,2.83-1.84,3.82-4.42,3.82Zm1.28-7.56H22.5c2.67,0,3.54-1,3.54-2.58s-1-2.32-3.82-2.32h-3Zm0,6.47h3.26c2.82,0,4.14-.37,4.14-2.73s-1.58-2.65-4-2.65H19.26Z"/><path class="cls-4" d="M29.78,105.28h9.87v1.09H35.36v12.46H34.08V106.37h-4.3Z"/><path class="cls-4" d="M51.56,109.21c-.52-2.31-2-3.2-4.27-3.2-3.28,0-4.69,2.81-4.69,6,0,3,1.11,6.08,4.8,6.08,2.34,0,3.79-1.58,4.3-3.73H53c-.6,2.62-2.24,4.82-5.87,4.82-4.18,0-5.84-3.29-5.84-7.13,0-5.18,2.71-7.14,6.31-7.14,2.79,0,4.82,1.49,5.25,4.29Z"/></svg>