<svg id="Layer_1" data-name="Layer 1" xmlns="http://www.w3.org/2000/svg" viewBox="0 0 400 174"><defs><style>.cls-1{fill:#15ccba;}.cls-2{fill:#b6cc17;}.cls-3{fill:#727272;}</style></defs><title>self forked</title><path class="cls-1" d="M299.1,9.38H277.32a4.57,4.57,0,0,0-4.57,4.56V24.21H244.86V13.94a4.57,4.57,0,0,0-4.57-4.56H218.51A4.56,4.56,0,0,0,214,13.94V24.21h-27.9V13.94a4.56,4.56,0,0,0-4.56-4.56H159.71a4.57,4.57,0,0,0-4.57,4.56V24.21H141.19a.63.63,0,0,0-.62.63V87a.63.63,0,1,0,1.25,0V25.46h13.32V35.73a4.57,4.57,0,0,0,4.57,4.56h21.78a4.56,4.56,0,0,0,4.56-4.56V25.46H214V35.73a4.56,4.56,0,0,0,4.56,4.56h21.78a4.57,4.57,0,0,0,4.57-4.56V25.46h27.89V35.73a4.57,4.57,0,0,0,4.57,4.56H299.1a4.57,4.57,0,0,0,4.57-4.56V13.94A4.57,4.57,0,0,0,299.1,9.38ZM184.8,35.73A3.31,3.31,0,0,1,181.49,39H159.71a3.32,3.32,0,0,1-3.32-3.31V13.94a3.32,3.32,0,0,1,3.32-3.31h21.78a3.31,3.31,0,0,1,3.31,3.31Zm58.81,0A3.32,3.32,0,0,1,240.29,39H218.51a3.31,3.31,0,0,1-3.31-3.31V13.94a3.31,3.31,0,0,1,3.31-3.31h21.78a3.32,3.32,0,0,1,3.32,3.31Zm58.8,0A3.31,3.31,0,0,1,299.1,39H277.32A3.32,3.32,0,0,1,274,35.73V13.94a3.32,3.32,0,0,1,3.32-3.31H299.1a3.31,3.31,0,0,1,3.31,3.31Z"/><path class="cls-2" d="M357.91,133.71H336.12a4.56,4.56,0,0,0-4.56,4.56v10.27H303.67V138.27a4.57,4.57,0,0,0-4.57-4.56H277.32a4.57,4.57,0,0,0-4.57,4.56v10.27H259.44V87a.63.63,0,0,0-1.25,0v62.17a.62.62,0,0,0,.62.62h13.94v10.26a4.58,4.58,0,0,0,4.57,4.57H299.1a4.58,4.58,0,0,0,4.57-4.57V149.79h27.89v10.26a4.57,4.57,0,0,0,4.56,4.57h21.79a4.57,4.57,0,0,0,4.56-4.57V138.27A4.56,4.56,0,0,0,357.91,133.71Zm-55.5,26.34a3.32,3.32,0,0,1-3.31,3.32H277.32a3.32,3.32,0,0,1-3.32-3.32V149.2s0,0,0,0,0,0,0,0V138.27a3.32,3.32,0,0,1,3.32-3.31H299.1a3.31,3.31,0,0,1,3.31,3.31Zm58.81,0a3.32,3.32,0,0,1-3.31,3.32H336.12a3.32,3.32,0,0,1-3.31-3.32V138.27a3.31,3.31,0,0,1,3.31-3.31h21.79a3.31,3.31,0,0,1,3.31,3.31Z"/><path class="cls-3" d="M357.91,71.54H336.12a4.57,4.57,0,0,0-4.56,4.57V86.37H303.67V76.11a4.58,4.58,0,0,0-4.57-4.57H277.32a4.58,4.58,0,0,0-4.57,4.57V86.37H244.86V76.11a4.58,4.58,0,0,0-4.57-4.57H218.51A4.57,4.57,0,0,0,214,76.11V86.37h-27.9V76.11a4.57,4.57,0,0,0-4.56-4.57H159.71a4.58,4.58,0,0,0-4.57,4.57V86.37H127.25V76.11a4.58,4.58,0,0,0-4.57-4.57H100.9a4.58,4.58,0,0,0-4.57,4.57V86.37H68.44V76.11a4.57,4.57,0,0,0-4.56-4.57H42.09a4.57,4.57,0,0,0-4.56,4.57V97.89a4.57,4.57,0,0,0,4.56,4.57H63.88a4.57,4.57,0,0,0,4.56-4.57V87.63H96.33V97.89a4.58,4.58,0,0,0,4.57,4.57h21.78a4.58,4.58,0,0,0,4.57-4.57V87.63h27.89V97.89a4.58,4.58,0,0,0,4.57,4.57h21.78a4.57,4.57,0,0,0,4.56-4.57V87.63H214V97.89a4.57,4.57,0,0,0,4.56,4.57h21.78a4.58,4.58,0,0,0,4.57-4.57V87.63h27.89V97.89a4.58,4.58,0,0,0,4.57,4.57H299.1a4.58,4.58,0,0,0,4.57-4.57V87.63h27.89V97.89a4.57,4.57,0,0,0,4.56,4.57h21.79a4.57,4.57,0,0,0,4.56-4.57V76.11A4.57,4.57,0,0,0,357.91,71.54ZM67.19,97.89a3.32,3.32,0,0,1-3.31,3.32H42.09a3.32,3.32,0,0,1-3.31-3.32V76.11a3.32,3.32,0,0,1,3.31-3.32H63.88a3.32,3.32,0,0,1,3.31,3.32Zm58.81,0a3.32,3.32,0,0,1-3.32,3.32H100.9a3.32,3.32,0,0,1-3.31-3.32V76.11a3.32,3.32,0,0,1,3.31-3.32h21.78A3.32,3.32,0,0,1,126,76.11Zm58.8,0a3.32,3.32,0,0,1-3.31,3.32H159.71a3.32,3.32,0,0,1-3.32-3.32V76.11a3.32,3.32,0,0,1,3.32-3.32h21.78a3.32,3.32,0,0,1,3.31,3.32Zm58.81,0a3.32,3.32,0,0,1-3.32,3.32H218.51a3.32,3.32,0,0,1-3.31-3.32V76.11a3.32,3.32,0,0,1,3.31-3.32h21.78a3.32,3.32,0,0,1,3.32,3.32Zm58.8,0a3.32,3.32,0,0,1-3.31,3.32H277.32A3.32,3.32,0,0,1,274,97.89V76.11a3.32,3.32,0,0,1,3.32-3.32H299.1a3.32,3.32,0,0,1,3.31,3.32Zm58.81,0a3.32,3.32,0,0,1-3.31,3.32H336.12a3.32,3.32,0,0,1-3.31-3.32V76.11a3.32,3.32,0,0,1,3.31-3.32h21.79a3.32,3.32,0,0,1,3.31,3.32Z"/></svg>