<svg id="Layer_1" data-name="Layer 1" xmlns="http://www.w3.org/2000/svg" viewBox="0 0 400 208.23"><defs><style>.cls-1{fill:#515151;}.cls-2{fill:#15ccba;}</style></defs><title>decentralized</title><path class="cls-1" d="M244.88,145.22l0,.56a4,4,0,0,0-.66-.17c.08,2.72-.74,4.61-1.53,6.76-.63,1.7-.91,4.2-3.23,4.27a2.08,2.08,0,0,1-1.84-2c0-.48.09-.68.05-.93-.47-.33-.48-.93-.5-1.49,0-.14.67-.76.75-.77s.71-1.62.71-1.69c0-.41-.61-1.33-.63-1.93-.05-1.82,1.32-1.75,2.41-2.41a16.63,16.63,0,0,0,2.59-2.58c.19-.19,0-.82.2-1.12C244.52,141.83,244.47,144.26,244.88,145.22Zm31.06-25a1,1,0,0,0,1,1c.72,0,1.19-.89,1.17-1.57,0-1.19-1.14-1.61-1.7-2.48C276.42,118.26,275.91,119.1,275.94,120.18Zm28.58,12.2c0-.37-.21-.89.17-1l0-1.61c0-.37-.56-.46-.79-.68-.43-.4-.89-.61-.91-1.4-.42,0-.73-.09-.74-.57l.14-.38c-.08-.15-.2-.33-.35-.33h-.3s.06-.15.06-.18c0-.56-.66-.73-1.24-.9a4.87,4.87,0,0,1-2.25-1.47c-.39-.37-.67-.81-1.24-1-.16,0-.35,0-.42-.18a2.32,2.32,0,0,0-1.45-1.38l-1.25,0c-.32-.15-.4-.33-.78-.32h-.23v.3c.13.37.76,1.4,1.07,1.46s.72,0,.88.31.37.66.6,1.1,1.16.35,1.45,1.2a3.65,3.65,0,0,0,.57,1.29c.11.07.57.09.61.17s0,.33.12.33.59.73.67.91a7.34,7.34,0,0,0,1.55,2.24c.7.65,1.4.93,2.14,1.62,0,0,.75,1,.94,1S304.53,132.79,304.52,132.38Zm3.36-6.66c0,.18.42,1.51.61,1.55s.42,0,.51.21c0,0,0,.15,0,.18.52.74-.06,2.06,1.35,2,.31,0,.49-.24.8-.21,0,.15,0,.56.09.56s.19.18.31.18c.45,0,.63-.43.93-.44.65,0,1.09.42,1.7.55a.47.47,0,0,0,.5.51c.5,0,.56-.46,1.17-.63,0-.41.43-1,.42-1.28s-.2-.26-.2-.51a1.16,1.16,0,0,1,.81-.89c0-.63.28-.86.45-1.69l.18-.38a1.23,1.23,0,0,1,.38-.08c.41,0,.72.16.82-.4-.68,0-1.76-1.81-1.78-2.38,0-.11.15-.22.26-.26s-.12-.22-.16-.34a6.55,6.55,0,0,0,1.09-.55c-.07,0-.15-.1-.16-.18,0-.33.84-.14.83-.47,0-.75-1.6-.26-1.63-1,0-.56.05-.93-.6-.91s-1.4,1.45-1.69,2.06c-.14.3-1,.14-1.36.48-.07.08-.11.27-.22.31s-.14.15-.37.27c0,0-.41.31-.25.46-.3.3-.29.68-.86.8a2,2,0,0,0-1.06.36c-.51.54-.33,1.7-1.51,1.73C308.67,125.32,307.87,125.08,307.88,125.72Zm13.4.07c.65,0,.91-.17,1.45-.18s.84.23,1.33.22c.77,0,1-.66,1.11-1.22.12,0,.15-.19.18-.31h-.22a9.33,9.33,0,0,0-1.2.89h-.3l-2.68-.38c-1,0-1.41,1.28-1.38,2.17,0,.22-.3.42-.33.57-.24.86-.65,1.21-.63,2,0,.45.54.43.77.46l.05,1.79a.62.62,0,0,0,.62.47c.43,0,.54-1.32.54-1.5,0-.49-.36-.74-.38-1.23,0-.26.29-.45.56-.46a.76.76,0,0,0,.3,0l-.13.79c0,.48.63.65.64,1.14a.74.74,0,0,1,0,.33h.49c0-.41.83-.39.82-.8a1.14,1.14,0,0,1-.55-.66c0-.08.11-.15.14-.23a6.16,6.16,0,0,1-1-1.54c1.06,0,1.12-.85,2-1.14v-.29a9.45,9.45,0,0,0-2.27.73l.08-.15c-.15.19-.18.37-.41.38-.57,0-.82-.69-.83-1.24C320,125.68,320.64,125.81,321.28,125.79Zm-7,9.64c.46,0,.43.25.81.24a1.16,1.16,0,0,0,.4-.42c-.27-.1-.27-.22-.61-.33s-.65.22-.92,0c-.08-.07-.08-.33-.32-.33a2.07,2.07,0,0,1-1.6-.44c.07,0,1.37-.11,1.4-.3h-.31L312,134c-.69,0-1-.64-1.74-.62-.45,0-.55.57-1.12.59-1.26,0-1.79-1.15-2.93-1.12-.23,0-.37.24-.6.25s-.19-.15-.31-.15-.89.7-.93.82c.57,0,.89.42,1.28.78s.95,0,1.53.15a7.29,7.29,0,0,0,2.1.2c.38,0,.51.47,1,.46a10.51,10.51,0,0,1,4.05.45C314.21,135.69,314.13,135.43,314.24,135.43Zm8,.26a1.49,1.49,0,0,0,1.07-.77,2,2,0,0,1-1.09.4c-.57,0-.84-.23-1.53-.22-.26,0-.69,0-.68.28s.59.36.85.35Zm-4.13-.48c0,.12,0,.19,0,.3a1.91,1.91,0,0,0-.73-.13c-.34,0-.65,0-.64.39,0,.15.47.25.77.24s.53-.24.91-.39l.3.13h.35c-.08-.06,0-.26,0-.56Zm2.2,1h-.39c-.26,0-.72-.06-.71.25s.62.39,1,.38c0,.11,0,.48.24.47h.15a.37.37,0,0,0,.3-.27C320.9,136.59,320.33,136.72,320.32,136.2Zm-4.15-1h-.34v.37c0,.12.2.26.32.25a.41.41,0,0,0,.37-.38C316.37,135.41,316.37,135.22,316.17,135.23Zm9.44.9a3.3,3.3,0,0,0,2.22-.93,3.52,3.52,0,0,0-2.39.37c-.08.08-.07.3-.18.34-.57.2-1.29.22-1.27,1,0,.16.13.34.28.33a2.41,2.41,0,0,0,1.23-.67C325.62,136.5,325.41,136.13,325.61,136.13Zm10.39-4c0-.25-.08-.1-.16-.4-.27,0-.22.38-.21.65s-.38.26-.37.63c0,.12.12.3.24.3.3,0,.22-.42.21-.8C335.9,132.48,336,132.34,336,132.1Zm-9.47-2.57a.93.93,0,0,0,.7.69c.12,0,.37-.42.37-.49C327.59,129.35,326.52,129.08,326.53,129.53Zm2-.06a5.18,5.18,0,0,0,.68.14l.88,0c.53,0,.81.36,1.34.34.08,0,.23,0,.23-.08,0-.3-.43-.36-.48-.66l-.11,0c-.23,0-.49.12-.57-.14l-1.72,0C328.69,129.21,328.5,129.29,328.51,129.47Zm-.32-5.92a.73.73,0,0,0-.32.76c0,.49.32.62.33,1v.49c0,.22.14.7.52.69-.2-.25-.28-.4-.44-.62v-.26a5.52,5.52,0,0,0,.87-.1c-.05-.3-.32-.36-.32-.55s.37-.27.36-.5A1.07,1.07,0,0,1,328.19,123.55Zm22.87,7.73c.11.43.67.37,1,.62l0,0,.08.07-.07-.06a1.62,1.62,0,0,0,.57.24c.8,0,1.13-.44,1.81-.61,0-.67.79-.54.76-1.33,0-.22-.13-.55-.35-.55-.54,0-.29.83-.81,1.11-.34.15-.91.13-1.48.34,0,0-.34.15-.41.12Zm-1.9.39c-.92-.42-.91-1.43-2.14-1.77-.19,0-.5-.06-.51-.36-.45,0-.69-.5-1.15-.49a5.41,5.41,0,0,1-2.61-.71v0l-.08,0-.11-.09.09.08A1.53,1.53,0,0,1,342,128l-1,0c-.23-.11-.55-.55-1-.68-.11,0-.42,0-.45-.18-.46.08-.9.77-1.24.89a1.6,1.6,0,0,0-.9.51c-.07.08-.4.64-.66.65s-.78-.57-.79-.72c-.34,0-.57-.13-.58-.32l0-1.34c-.68-.13-1.2-.71-1.84-.7s-.93.66-1.39.68c-.23,0-.53.12-.53.34,0,.53.93.28,1.21.8,0,.1.12.29.24.32a1.91,1.91,0,0,0,.53.1,3.83,3.83,0,0,0,1.1-.18h.26c-.25.46-1.39.41-1.92.69.09.3.5.13.7.42s0,.46.21.82c0,.12.27.11.39.11.3,0,.44-.39.55-.69v.34c.6-.21.86.75,1.43.74a6.71,6.71,0,0,1,2.06.31c.39.18,1.47.56,1.62,1s0,1.09.55,1.59c-.23.12-.95.33-.93.78,0,.29.35.29.61.28l.8,0c0-.19.41-.24.57-.24,1,0,1.28,1.12,2.27,1.09l1.45,0c0-.26.33-.42.16-.9.53-.28.43-.94,1.39-1,1.25,0,2,1,2.75,1.71.07.08.38.14.38.29,0,.41.9.8,1.48.89l1,0a4.34,4.34,0,0,0,.73.43h.22c0-.26.26-.46.49-.61-.11,0-.69.05-.76-.13s-.17-.37-.4-.44-.37.13-.46-.06-.2-.4-.32-.4a1.24,1.24,0,0,1-.84-.35c-.32-.44-.25-.7-.64-1.07-.08-.07-.74-.68-.75-.87,0-.34.72-.21.71-.62C350.34,131.41,349.55,131.85,349.16,131.67Zm6.29-2.6a3.46,3.46,0,0,0-1.51-1c.12.29.38.25.69.43.5.28.44.7.94.9-.06.38-.06.64.4.7.08.07.15,0,.23,0s0-.19,0-.27C356.18,129.28,355.76,129.36,355.45,129.07ZM358,131a.63.63,0,0,0,.56.8v.3a.28.28,0,0,0,.24.26A.37.37,0,0,0,359,132,5,5,0,0,0,358,131Zm7.48,4.79c0,.23.26.78.64.77,0-.08,0-.15,0-.22C366.07,136,365.77,136,365.45,135.77Zm-1.68-.54c0,.44.62.57,1.08.56,0,0,.15-.08.19-.08A1.37,1.37,0,0,0,363.77,135.23Zm.15-1.47c.05.3.75,1.17,1.13,1.16A2.14,2.14,0,0,0,363.92,133.76Zm-2.27-.72h-.07c0,.41.89.69,1.19.68a.63.63,0,0,0,.3-.08c-.23-.33-1-.54-1.35-.71Zm-1.82-1,.19.1s-.15,0-.18,0l.58.36h.34C360.52,132.21,360.26,132.33,359.83,132.05Zm-9.91,39.64s-2.1-.54-2.09.06c0,.78,1.36,3.5,2.49,3.47.77,0,1.74-2,1.72-2.84,0-.45-.32-.66-.45-1.1A7.26,7.26,0,0,1,349.92,171.69Zm1.89-.8a2,2,0,0,0,.09-.63,1.12,1.12,0,0,1-.49,0C351.42,170.57,351.46,170.79,351.81,170.89Zm-12.9-5.13a1.1,1.1,0,0,0,1.33,0C339.7,165.48,339.62,165.41,338.91,165.76Zm-6.73-27.17h.38l0-.56a5.19,5.19,0,0,0-1.51.23A2,2,0,0,0,332.18,138.59Zm23.91,13.86c-.74-.69-2.2-1.29-2.24-2.77-.5,0-1.1,0-1.27-.45a3.69,3.69,0,0,0-.73-1.66c-.66-.62-2.31-.91-2.64-1.79s-.65-1.4-1-2.4c-.21-.6-.24-1.79-.71-2.07-.15-.07-.88-.28-1.26-.38-.43-.29-.26-1-.42-1.48a10.22,10.22,0,0,1-.9-2.37c-.64.36-.44.84-1,1.3l.1,3.36c-.16.86-.34,3.07-1.52,3.1-.72,0-.93-.79-1.47-1-1-.34-1.53-.51-2.58-.86-.14,0-.16-.59-.39-.73s-.77-.06-.78-.35l.41-1.88c.3-.23.86-.29.85-.77,0-.3-.55-.66-.78-.66-.41,0-.56.32-1.05.34a8.55,8.55,0,0,1-3.46-1c.09.4.47.5.71.83a1.84,1.84,0,0,1-.67.28c-.65,0-2.17.4-2.15.92s-.55.81-.53,1.32c0,.34.13.6-.09.94-.08,0-.39-.29-.58-.28a1,1,0,0,0-.82.43c-.1-.67-.51-1.4-1.18-1.39s-1,.78-2,.8c-.06.87-.81,1-.78,2.08a1.75,1.75,0,0,1-.81-.28c-.18.42,0,1-.38,1.24-.16-.25-.39-.39-.6-.72a1,1,0,0,0-.47.94l0,.63c0,1.27-3.05,2.4-4.42,2.66-.72.13-2.09.25-2.53.71s-1.26,1.37-2,1.47a1.57,1.57,0,0,0-.05-.37c-.16.08-.42.16-.41.46l.06,2.16c0,.93.5,1.37.51,1.93,0,.18.12.33,0,.48a1.58,1.58,0,0,1-.36-.47,4.76,4.76,0,0,0-.22.49c-.17.56.6.73.8,1.28.54,1.45.67,2,1.16,3.59a6.44,6.44,0,0,1,.83,2.33c0,.86-.84,1.14-.83,1.7s1.87,1.25,2.51,1.24c1.71,0,2.25-1.29,3.58-1.33.46,0,.45-.31,1.07,0a20.67,20.67,0,0,0,2.27-.33c.25-1.91,2.67-1.3,4.59-2,.83-.28,1.08-.88,2.45-.92s3.51.27,4.14,1c.31.4,1.2,2.21,1.47,2.2,0,0-.13.68.32.66.8,0,1.7-2,2.37-2.68,0,.56-.09,2.51-1,2.72a.41.41,0,0,0,.4.36c.57,0,.59-.68.93-.84,0-.12.07-.27.06-.38a.89.89,0,0,1,.4.74,1.66,1.66,0,0,1-.24.82h.45a2.59,2.59,0,0,0,.75-.28l.05.19c0,.48.56.91.57,1.47.05,1.53,2.51,2.43,4,2.39.95,0,.63-.76,1.5-.86a5.77,5.77,0,0,0,1.93,1.07c.26-1.8,3.4-1.1,3.77-2.83v.07c0-1.3.74-2.48,1-3.39.36-1.2,1-1.59,1.68-2.65.19-.3.07-.45.25-.75l0-1.05a4.2,4.2,0,0,0,.5-2.33,8.21,8.21,0,0,0-1.09-3.89Zm23.21,18.62c-.19.08-.37.34-.64.35s-.2-.26-.21-.52c-.11,0-.26-.1-.27-.36a1.6,1.6,0,0,0-.88,1.25,1.81,1.81,0,0,1,0,.23.77.77,0,0,0-.67.43,1.41,1.41,0,0,0,0,.37,4.66,4.66,0,0,1-.7.92c-.64.31-1.18,1.26-2.1,1.29-.26,0-.45.23-.59.5-.37.57-1.49,1.12-1.47,2.09a.22.22,0,0,0,.2.15c0,.18,1.5.7,1.73.69s.69.17.84.16a3,3,0,0,0,1.43-.93s1-2.19,1.1-2.64c.3,0,1.21-.22,1.4-.23.06-.45-.13-.59,0-1.15.62,0,1.34-1.42,1.44-1.91-.15-.07-.23-.26-.24-.55C379.45,171.21,379.34,171.18,379.3,171.07Zm4.75-4.5c-.61,0-.56.39-1.28.41-.92,0-1.43-.52-1.46-1.49h-.22a.34.34,0,0,0-.33.39h-.23a3.55,3.55,0,0,1-.68-1.17c0-.11.11-.15.14-.27-.23-.1-.23-.36-.47-.58-.39-.37-1-.38-1.48-1,.26.88.82,2.1,1.7,2.23a1.7,1.7,0,0,0-.1.37c0,.3.31.4.44.7v0a3.25,3.25,0,0,1,.17.73,1.93,1.93,0,0,1-.42,1.47c-.18.19-.53.24-.51.61,0,.67,1.41.33,1.43,1.08,0,.45-.43.65-.42,1.09a.5.5,0,0,0,.58.47c.8,0,1-.77,1.37-1.35.07-.11.52-.49.51-.75,0-.11-.15-.26-.16-.37,0-.3.37-.42.75-.51,0,0,.07-.11.11-.11l.16.18c.36-.57.19-1.35.71-1.88A.44.44,0,0,0,384.05,166.57Zm-.51-22.68,0-.44a.65.65,0,0,1-.46-.32c-.34.12-.87.24-.86.72,0,.16.5.22.81.21S383.31,144.12,383.54,143.89Zm.15-1.38c0,.11.12.33.24.33.38,0,.48-.39.93-.51V142C384.62,142,383.68,142.06,383.69,142.51ZM325.5,115.58a3.84,3.84,0,0,1-.1.78c-.1.2-.72.07-.72.52a.39.39,0,0,0-.31.43h-.21c-.24,0-.18-.51-.63-.51-.62,0-.45.72-1.17.73a3.21,3.21,0,0,0-.2.84c0,.1.14.23.14.32s-.27.76,0,.75.31-1.07.65-1.4a1.66,1.66,0,0,0,.35.29,1.59,1.59,0,0,0,.11-.16.39.39,0,0,0,.34.15.94.94,0,0,1,0-.29h.49c0,.09.1.22.14.32a.41.41,0,0,0-.17.39,1.06,1.06,0,0,0,.91,1.13,1,1,0,0,0,.35,0c0,.09.07.26.18.25s.38-.2.37-.46-.42-.45-.42-.68.17-.26.31-.46a2.18,2.18,0,0,1,.21.26l0-.07c.06.17.32.72.44.75,0-.55.41-.75.41-1.11a9,9,0,0,0-.89-2.46A.89.89,0,0,0,325.5,115.58Zm-8.08,1.51h.25a2.33,2.33,0,0,0,1.2-1.44c.28,0,.52-.07.59-.36.17,0,.2-.1.34-.2-.14-.13-.31-.19-.32-.52-.1.1-.1.26-.17.42C318.94,115.71,317.76,116.12,317.42,117.09Zm1.74-6.89c0,.19.63.57.77.57s.17-.13.24-.23h.21v.32a.49.49,0,0,0-.2.36.6.6,0,0,0,.52.45c.21,0,.35-.2.56-.2.48,0,.52.71,1,.7-.11-.26-.21-.39,0-.61.21.28,1,.57,1.26,1,0,.09.07.26.18.26s.13-.14.13-.2v-.26c-.24,0-.46-.12-.46-.39-.06,0-.24.07-.24,0s.17-.2.21-.39c-.07,0-.14-.07-.21-.07s-.18.23-.31.23-.32-.74-.74-.74c-.21,0-.38.14-.38.27v.16a2.08,2.08,0,0,1-.88-1.45c0-.68.62-.75.61-1.47,0-.55-.46-1-.46-1.45,0-.07-.08-.17-.08-.23s-.07-.13-.07-.16-.24.32-.44.33-.25-.58-.64-.58-.34.33-.33.65.17.65.17,1a2.26,2.26,0,0,1-.19,1C319,109,319.16,109.67,319.16,110.2Zm5.89,2.76c-.27,0-.48-.13-.76-.13-.1,0-.2.1-.31.14.07.26.84.47.84.93,0,.07-.1.19-.17.19h-.45v.2c0,.09.29.42.53.41v.2c-.14.19-.07.45.18.45h.31v-.2a1,1,0,0,1-.31-.64h.52c0-.13.1-.23.14-.42,0,0-.28-.29-.28-.29a3.17,3.17,0,0,0,0-.52h-.21A.86.86,0,0,0,325.05,113Zm-3,.71s-.1-.1-.15-.1-.21.1-.21.16c0,.3.15.91.15,1.47.31-.2,1.11-.5,1.1-1.06C323,113.9,322.36,113.8,322.09,113.67Zm1.07.93c-.17,0-.34.85-.34.94s-.31.1-.31.2a1.78,1.78,0,0,0,.78.84c.06,0,.21-.1.2-.17s-.17-.13-.18-.42.38-.65.38-1A.39.39,0,0,0,323.16,114.6Zm.37,1.26h.16c0-.49.45-.66.45-1.24h-.32A3.77,3.77,0,0,1,323.53,115.86Zm1.06-.43c-.1.13-.27.06-.44,0-.11.2-.32.3-.32.49a.27.27,0,0,0,.21.16A.59.59,0,0,0,324.59,115.43Zm-.78-1.78c0-.42-.45-.51-.56-.8h-.31v.48a2.67,2.67,0,0,1,.49,0C323.43,113.49,323.82,113.81,323.81,113.65Zm-2.78-.52c.14,0,.31-.4.24-.65s-.49-.32-.91-.58H320S320.82,113.13,321,113.13Zm.34-1c.07.07.27,0,.34,0S321.44,112.05,321.37,112.08Zm-.87-13.47c-.53,0-1.29,1.49-1.27,2.27,0,.56-.09,1.05.6,1C320.7,101.89,321.45,98.58,320.5,98.61Zm-11.05,6.65c0-.22-.28-.55-.47-.55-.5,0-1.77,1-2.07,1s0,.34,0,.56c0,.49.29.74.87.72A2.64,2.64,0,0,0,309.45,105.26Zm-4.75,23.8c0,.1.2.51.28.51s.27.21.5.2h.27a1.18,1.18,0,0,1-.05-.37c-.54,0-.78-.69-1-1.24-.27,0-.79.32-.78.5S304.54,128.76,304.7,129.06Zm2.31.9c.23,0,.37-.24.41-.46-.12,0-.24-.18-.36-.18h-.37s0,.15,0,.19S306.78,130,307,130Zm-9.72-2H297v.14a1.52,1.52,0,0,0,.71.88,1.11,1.11,0,0,0-.4-.85Zm-1.56-2.23-.18.08h0c0,.22.55.8.7.79C296.6,126.59,296,125.86,295.73,125.72ZM329.3,89.3a.43.43,0,0,0,.39.4c.12,0,.26-.16.45-.16-.08-.11,0-.23,0-.34.05.19.09.41.32.48l-.13.52a4.22,4.22,0,0,0-.37.62c0,.14.24.58.55.57v-.22c0,.11,0,.33.13.33.53,0,.8-1.18.9-1.85.11.07.22,0,.34,0-.08-.11,0-.26,0-.37L331.5,89c-.11,0-.05-.27-.05-.37-.46,0-.69-.28-1-.28C330.34,88.34,329.29,89.08,329.3,89.3Zm3.51.2c.49,0,.56-.61.89-1,.11,0,.27.26.57.25s.81-1.33,0-1.31c-.52,0-.62.66-1.28.48a7.55,7.55,0,0,1-.7.59c0,.18.08.25.31.39C332.53,89.14,332.62,89.5,332.81,89.5Zm4-4.66c-.34,0-.54,1.17-1.18,1.18l-2.36.07c-1,0-1.31,1-2.1,1.52-.14.07-.48.16-.48.27s.27.14.54.13a4.73,4.73,0,0,0,2-.57c.3-.16.53,0,.83-.14.11,0,.15-.3.38-.3.46,0,.69.2,1.15.3a6.25,6.25,0,0,0-.1.64c0,.11-.11.3,0,.3s.24.28.54.35c.18-.37.62-1,.89-1a1.73,1.73,0,0,0,.38,0,1.45,1.45,0,0,1-.4-.59c0-.11.1-.3.22-.3.34,0,.33.63,1.12.6a1.18,1.18,0,0,0,.75-.47h.38a.23.23,0,0,0,.19.18c.14-.52.48-.57,1-.92,0,.26-.19.3,0,.6.45-.16.44-.53.89-.78a1.61,1.61,0,0,1-.21-.7c0-.48.4-.72.39-1s-.16-1.56.21-1.69c.12,0,.24,0,.35-.08v-.22c0-.49.51-.58.49-1.18s-.55-.76-.56-1.28a1.77,1.77,0,0,0-.1-.75c0-.11-.2-.18-.46-.17s0,.34.08.33.08,0,.11,0c-.44.38-.41-.1-.49-.1-.5,0-.85.95-.84,1.4,0,.19.16.18.16.44a4,4,0,0,1-2,3.08c-.45.17-.52.54-1.09.55a.22.22,0,0,1-.2-.18.64.64,0,0,1,.18-.41C337.3,83.93,336.83,84.84,336.79,84.84Zm4.07-8.44c-.07.27-.67.55-.66,1,0,.14.2.21.2.36l0,.86h.22c.3-.31.61-.16.9-.58-.15-.15-.73-.13-.74-.5,0-.64.64-.28,1.14-.29,0-.12.14-.27.25-.31.67.39,1.05.45,1.66.81.3-.45.54-1.32,1.34-1.34a1.78,1.78,0,0,0,1.17-.37c-.15,0-.47-.25-.47-.47s.15-.27.22-.46c-.24-.14-.5.09-.8.1-1.48,0-2-1.14-3-1.78a.73.73,0,0,0-.22.49c0,.15.2.22.21.37,0,.48-.22,1.94-.87,2a1.2,1.2,0,0,1-.38,0l.08.07a2.12,2.12,0,0,1-.27-.17Zm5.45-1.27c-.08.12-.1.34,0,.34.34,0,.78-.58.92-.81l-.13-.1A1.52,1.52,0,0,0,346.31,75.13Zm.74-.61.06,0h.06Zm2.1-1.41c-.46,0-.82.85-.82.85s0,.19,0,.18c.53,0,.51-.76,1.38-.78V73.1A2.61,2.61,0,0,1,349.15,73.11Zm1.77-.38c.31,0,.6-.54.63-.76-.08,0-.53,0-.6.24s.08.29,0,.3S350.85,72.73,350.92,72.73Zm-7.51-10.21a4.75,4.75,0,0,1-.51-1.7h-.26l0,.79c0,.18-.15.26-.14.48-.56.13-.77,1.14-.75,1.93,0,.55.6.76.62,1.32l.06,2.21c0,.44-.18.59-.17,1.16s.25.51.27,1-.13,1-.11,1.69c0,.18-.09,1.08,0,1.08.46,0,.43-.84.89-.85h.38c0,.15.24.4.39.36a.32.32,0,0,0,.11,0c-.32-.63-1.13-1-1.16-1.87s.06-2.17,1.09-2.19a1,1,0,0,1,.81.46c-.25-.89-.77-1.62-1.1-2.54-.08-.23-.36-.63-.29-1l0-.9C343.28,63.42,343.57,63,343.41,62.52ZM243.67,35.16a10,10,0,0,1,1.14,0c.65.17.33.77.61,1.29.08.18.68,0,1,0,.11,0,.19.22.27.26l3-.08a.64.64,0,0,0-.13-.18c-.86-.72-2.11-1-2.15-2.38-.06-2.38,2.49-4.95,4.42-5.53.68-.2.84-1,1.8-1.06.45,0,.58-.76.81-.88,1.24-.63,2.19-.36,3.51-1,.94-.47,3.86-.78,3.83-2,0-.41-1.1-.91-1.55-.89-1.9.05-3.63,2.22-5.65,2.28-.46,0-.7-.43-1.15-.42-.73,0-.72.47-1.21.49-1.4,0-2.42,1.85-3.37,1.88-.57,0-.94.29-1.51.3a.39.39,0,0,0-.38.39c0,.22.28.36.29.66,0,1.05-1.93,1.66-1.92,2.29,0,.3.55.36.59.81-.6.16-1.81.46-1.79,1.09v.56c0,.67-1.12.63-1.1,1.52C243,34.88,243.67,35.16,243.67,35.16Zm5.78,1.19,0,0,.13.1Zm144.07,4.49c-1,.36-1.62.31-2.26,1.07-.4.5-.51,1.88-1.27,1.9-1.72,0-3.78-3.07-6.18-3-.75,0-.35.94-.53,1.32-.43.91-2.65.71-2.6,2.31,0,.6,4.58,2.57-1.07,2.83-3,.14-5.24,4.44-8.63,4.53-1.14,0-4.06-3.35-7,3.18-.35.78,0,1.23,0,1.68,0,.67-1.3,1-1.26,2.27,0,.78-1.69,1-1.47,2.09-1.55.42-2,2.48-2.76,3.63-1.09-.8-1.67-5.3-1.71-6.68,0-1.6,1.27-2.49,2.21-3,1.12-.67,1.8-2.1,2.57-3.25.66-1,1.61-.69,2.63-1.37,2.93-2,.91-2.72.5-2.63-4,5.13-3.84,1.9-3.2,1.39a8.84,8.84,0,0,0-2.28.07c-2.63.07-3.73,1.56-4.27,4l-2.1.06c-.94,0-1.69-.7-3.25-.65a50.06,50.06,0,0,0-7.21.94c-1.62.5-3.12,2.47-4.27,3.66-.78.81-2.8,2-2.77,3.07,0,.22,1.24,2.75,3.45,1,.75-.58,2.45,1.34,2.48,2.34a4.5,4.5,0,0,1-.61,2.07c-.57,1-.1,1.74-.34,2.83a6.87,6.87,0,0,1-1.6,2.82c-1.48,1.54-3.4,6.09-5.57,6.15a13.28,13.28,0,0,1-2.68-.31h0a5.46,5.46,0,0,0-1.64,2.36c-.15.3-.82.7-1.08,1a1.71,1.71,0,0,1-1.13.6,1.46,1.46,0,0,0,.69,1.28,4,4,0,0,1,1.49,3.1c0,.85-.19,1.27-.72,1.44-.23.08-1.18.14-1.17.47-.45.13-.53.13-.75.36l-.57,0c0-.19.18-.31.22-.5-.2,0-.2-.21-.21-.36s.32-.76.32-.87-.2-.4-.21-.63a.54.54,0,0,1-.38-.25v-.37c.3,0,.6-.24.59-.5,0-.45-.59-.73-1.05-.71-.26,0-.41.19-.53.19s-.39-.44-.39-.62c0-.45.41-.43.4-.8s-.2-.44,0-.82c-.57,0-.77-.39-1.23-.37-1.22,0-2.06,1.17-3.12,1.2,0-.67.7-.95.68-1.55a1,1,0,0,0-.74-.68c-.38,0-.52.38-.6.5a7.27,7.27,0,0,1-1.6,1.42c-.52.39-1.63.16-1.61.94,0,.37.66.5.82.61.46.33.32.7.79,1a1.76,1.76,0,0,0,1,0c.22,0,.2-.83.5-.84s.59.28.85.42c.55.33,1.11-.1,1.42.3-.74.77-2.37.82-2.69,1.83-.14.45-.79.5-.77,1s.74.88,1.05.91l.06.71h.08l0,0c.35.18.36.63.48.81a4.66,4.66,0,0,1,1.15,3.18c0,1.08-.53,1.47-.51,2.29-.56.13-1.55,1.64-1.76,2.1-.33.72-.56,2.1-1.47,2.13a.86.86,0,0,1-.55.69c-1.05.63-1.44,1.68-3.19,1.73-.38,0-.58-.29-1-.28a3.83,3.83,0,0,0-.44.73c-.44.46-1.17.33-1.88.68-.3.16-1.06.29-1.32.56s-.05.78-.47.8-.25-.74-.22-.93c-.73-.31-1.18-.08-1.84-.36-.72,1.18-2.58,1.49-2.54,3.1,0,.33.2.4.36.54.9.84,1.31,1.8,2.28,2.37A4.62,4.62,0,0,1,308,112.5c0,.86-.43,1.21-.41,1.88-1.21.33-1.31.74-2.29,1.25-.45.25-.36.84-.81.85-.12,0-.13-.22-.13-.33v.41c0,.37-.73,1-.88,1s-.32-.51-.33-.74,0-.45.14-.53c-.16-.07-.24-.36-.28-.55-.57,0-1.34-.15-1.35-.71-.84,0-.44-.54-.91-1a3.33,3.33,0,0,0-1.69-.7c-.08,0-.21-.48-.21-.48-.12-.41-.58-.47-1-.45s-.22.23-.21.41c0,.34.16.4.17.7,0,1.12-1.07,1.45-1,2.46s1.31.67,1.34,1.75H298c.16.26.21.93.49,1.18,1.05,1,3.3,1.14,3.35,3,0,.37-.14.38-.13.71,0,.67.6.88.76,1.32a9.68,9.68,0,0,0,.37,1.08l-.49,0c-.12,0-.15.15-.27.15-.37,0-.42-.25-.65-.31a4.46,4.46,0,0,1-2.74-2.65,19.79,19.79,0,0,0-.91-2.7c-.28-.52-.58-1.85-1.19-1.83-.38,0-.14.23-.5,0-.07,0,0-.15,0-.23a5.64,5.64,0,0,1,.15-1.41h.19c-.31-.15,0-1,0-1.42-.05-1.64-1.06-2.58-1.1-3.78-.49,0,.13-1.12-.27-1.67-.12-.18-.42-.1-.5-.17-.23-.22-.12-.37-.35-.59-.63.65-.87,1.74-1.94,1.77-.57,0-.62-.43-.63-.91s.17-.72.16-1.13c0-.18-.2-.29-.25-.47a8.36,8.36,0,0,0-1.15-2,4.73,4.73,0,0,1-1.29-1.16c-.32-.44-.26-1-.42-1.48s-.82-.73-1.4-.82c0,1.12-1,1.37-2,1.4-.61,0-.62-.17-.93-.35-.25.57-1,.63-1.15,1-.14.53-.09.94-.42,1.29-.67.69-1.76.9-2.36,1.51-.74.77-1.4,1.54-2.1,2.26a4,4,0,0,1-1,.86c-.68.24-1.48.37-1.45,1.16s.29,1,.31,1.63c0,.93-.42,1.54-.4,2.25l.22,1-.19,0c0,.11-.26.11-.37.15-.53.17-.39,1.13-.7,1.29s-.52.09-.71.47-.16.75-.47.76a.47.47,0,0,1-.58-.36c-.19,0-.31-.25-.35-.36-.33-.89-.77-1.63-1.06-2.4-.16-.51-.71-.87-.87-1.17-.32-.59-.14-1.08-.46-1.51a4.28,4.28,0,0,1-.49-1.19c-.2-.55-.92-1.76-1.21-2.58a8,8,0,0,1-.71-2.14c0-.11-.07-.42-.07-.53l0,0c0-.5.16-.61.15-1.07s-.41-1-.42-1.52c0-.11.21-.38.21-.53h-.3c-.48.5-.49,1.77-1.47,1.79-1.18,0-1.68-1.11-2.26-1.65.34-.24.61-.05.95-.18s.33-.41.48-.57a3.28,3.28,0,0,0-.88-.05,3.46,3.46,0,0,1-2.28-1.24c-.32-.48-.57-1.33-1-1.47a4,4,0,0,0-1.14,0c-.46,0-.56.31-.95.32l-1-.23a1.19,1.19,0,0,0-.33.27l-1.33.11s-.16,0-.2,0c-.72,0-2.41-.39-3.43-.36a8,8,0,0,1-1.35-.3c-.39-.36-.42-1.48-1.21-1.46-.42,0-.57.36-.78.59l-1.91,0a3.29,3.29,0,0,1-1.32-1c-.47-.44-1.07-.19-1.5-.59-.23-.22-.13-.52-.21-.67-.44-.8-1.31-1.94-2.38-1.91-.53,0-.74.69-.73,1.21a2.81,2.81,0,0,0,.11.86c.25.89,1.36,2.46,2.24,2.62,0,.41.24.52.29.85.45-.12.36-.6.74-.69a1.44,1.44,0,0,1,0,.41c0,.45-.24.75-.23,1.2s1,.76,1.58.74c2.55-.07,2.69-1.6,4-2.65l0,1.38c.57,1.07,1.29,1.23,2.41,1.54.42.1.47.73.74.88v0c.2.33.73.24.74.58,0,.85-1.07,1.18-1.05,2.08-.57,0-.94.17-1.08.62s-.08,1.09-.54,1.1-.5,1.1-1.08,1.11a1.49,1.49,0,0,0-1,1.11c-1,.22-3.33.69-3.31,1.51a.57.57,0,0,0,.16.33,16.36,16.36,0,0,1-2.94,1c-.45.12-1.95,1.21-2.43,1.45l-1.18,0c-.64.47-.73.78-1.53.8l-.24.15c-.11,0-1.09-.44-1.2-.48s.2-.06-.06-.42a3.37,3.37,0,0,1-.72-1.89c-.41,0-.14-.74-.07-1.07.17-.83-.49-1.15-.91-1.55a5.07,5.07,0,0,1-1.59-2.59c-1.33-.26-1.67-1-1.71-2.43,0-.86-.52-1-.7-1.73-.19-.15-.39-.37-.51-.48s-.64,0-.76-.16-.17-.78-.26-1a3.18,3.18,0,0,0-.56-.88c-.47-.66-.87-1.21-1.3-1.83a8.61,8.61,0,0,1-.67-.88,11.4,11.4,0,0,1,.16-1.19c-.14.55-.53,1.51-.64,1.88-.8-.09-1.5-1.75-2.16-2.37l0,.63,3.79,6.17c-.17.78,1,2.4,1.6,2.83l.05,2c.41,1,1.17,1,1.76,1.7s.32,1.86,1,2.51a10.37,10.37,0,0,0,1.75,1.07c.62.43,1,2,2.24,1.94,0,.63.38.72,0,1.17.5.36,1,1.54,1.68,1.52s.63-.5,1.12-.66,1,0,1.53,0c1.44-.27,2.79-.86,4.15-1.24.12.22.28.33.28.55.06,2.13-1.57,4.93-2.49,6.23-1.1,1.52-1.56,2.88-2.94,4-2.45,2-5.14,2.68-6,6-.24.93-1.22,1.22-1.19,2.27s.35,1.67.38,2.79,1.46,1.86,1.48,2.56c0,.23-.22.5-.25.57l0,.93c0,.6-.08,1.31,0,2.36a.92.92,0,0,1,.33.74c.08,2.9-4.95,2.71-5.3,5.18a1.5,1.5,0,0,0-1.11,1.15c0,.82,1.1,1.35,1.13,2.47a6,6,0,0,1-.24,2.17c-.22.3-.87.17-1.14.29a3.48,3.48,0,0,0-1.85,1.81.92.92,0,0,1,.59.76c0,1.05-1,1.9-1.45,2.36-.82.84-.87,1.71-1.46,2.47-.92,1.21-1.31,2.27-2.85,3.06-.64.32-1.6,0-1.69.72-.5,0-.79.28-1.14.29s-.65-.35-1.07-.34c-1.6,0-2.52,1.19-4,1.23a1.29,1.29,0,0,1-1.24-.72,1,1,0,0,0-.38.2,3.1,3.1,0,0,0-.73-1.85,1.37,1.37,0,0,0,.46-1c0-.59-1.11-1.69-1.31-2-1.43-2.24-3.24-4.39-3.33-7.67l0-1c0-.52-.48-.7-.79-1.21-1.12-1.72-2.3-3.11-2.37-5.53-.07-2.61,2.31-3.31,2.26-5.29a12.49,12.49,0,0,0-.55-2.11,11.73,11.73,0,0,0-1-3.07c-.33-.73-.2-1.6-.71-2.22-1-1.2-3.23-2.45-3.28-4.2a2.86,2.86,0,0,1,.83-1.52c-.16-.33,0-.41,0-.55,0-.46,0-1.57.33-1.88a2.55,2.55,0,0,0-2.44-1.5l-1.6,0c-1.14,0-1.46-2.12-3-2.07-1.89,0-3.28.94-4.71,1.43-.57.2-.75.69-1.32.71s-1.54-.52-2.29-.5c-1.49,0-2.11.8-3.6.84a2.37,2.37,0,0,1-1.15-.26c-1.09-.76-3.33-2-4.16-3.14s-1-2-2-2.66a20.87,20.87,0,0,1-2.35-2c-.19-.22-.31-.28-.51-.51h.12c0-.56-.22-.85-.22-1.19,0-.52-.33-.7-.61-1.21.83-.43,1.53-2.47,1.5-3.4,0-1.64-.83-2.67-.87-4.16,0-.74.84-1.22,1-1.82a19.76,19.76,0,0,1,2.42-4.73c.51-.72,1.5-.67,2.18-1.07A4.28,4.28,0,0,0,179,97.78c.42-1.4-.17-2,.57-2.93.95-1.26,2.21-2.45,3.14-3.63h-.08c.29-.38.36-.72.73-1a5.19,5.19,0,0,0,3.26.84c.8,0,.94-.47,1.39-.7a17.73,17.73,0,0,1,6-1.92c.53,0,1,.34,1.34.33s1-.58,1.59-.6.72.24,1.15.23c.76,0,.78-.58,1.5-.6s.55.66,1.16.64c.23,0,.34-.2.56-.24,0,.56-.56.5-.54,1s.51.47.52.81c0,.56-.48.87-.46,1.43a1.93,1.93,0,0,0,1.76,1.71l1.07,0c2.47-.07,3.43,2.89,6.24,2.81a.93.93,0,0,0,.75-.58l0-.75c0-1.19.88-1.22,2-1.62l.12.07.83,0c0,.52.44.62.6.84.35.44,1.22.12,1.83.32a13.68,13.68,0,0,0,4.29.89c1.21,0,1.58-.6,2.76-.63.72,0,1.16.45,2,.43.56,0,.55-.21,1.05-.33,0,.09.09.17.14.26l-.22-.48c0-.26.26-.27.29-.42.25-.83.35-1.24.55-2s1-1,.94-1.81c0-.64-.22-1.15-.23-1.6,0-.22.18-.31.26-.38V87.7c-.3.12-.41.34-.72.35a1.06,1.06,0,0,1-.77-.27c-.59.46-.77,1-1.87,1-.8,0-1.13-.9-1.93-.88s-.63.88-1.31.89-1.13-1-1.84-.62h-.42a.53.53,0,0,0,.29-.23c-.23-.21-1.35-.74-1-1.13-.35-.47-.77-.42-1.31-.67.37-.38.79-.32.77-1,0-.26-.08-.26,0-.45-.27,0-.65.06-.65-.17,0-1.15,2.71-1,3.38-1.36-.08-.29-.3-.18-.31-.44s.72-.2.91-.21l1.18,0a4.27,4.27,0,0,0,1.54-.79,5.31,5.31,0,0,1,2.19-.4c1,0,1,.54,1.89.52,0,.44,1.49.66,1.92.68l2.16-.06c.79,0,1.22-.61,1.89-.91l-.05,0-.15,0c-.08-2.94-4.44-2.45-5.46-4.62,2.2-.61,1.18-1.6,1.1-1.82a3.67,3.67,0,0,0,.66-.65c-1,.4-3.76,1.48-3.75,1.78,0,.45.51.54.66.54l1.07.12a6.55,6.55,0,0,1-2.64,1.23c-.53,0-2.35-2.73-3-2.71s-.89,1-1.72,1.24c.05.19,0,.37.06.56-.38.08-.78.27-.77.65-.13.61-.12.31-.23.53l0,1c-.37.39-1,1.15-1,1.67,0,.75,1.06,1.24,1.3,1.57-.15.15-.3.12-.49.16-.34.12-.61,0-1,.14-.49.24-.59.72-1.08.74s-.94-.72-1.62-.7-.75.35-1.24.52a1.49,1.49,0,0,1,0,.81c-.57,0-.66-.54-1-.53a.49.49,0,0,0-.41.43l.74.8c0,.22-.14.34-.14.45a3.65,3.65,0,0,0,1.37,1,.52.52,0,0,0,.16.33c-.19.11-.58,0-.65.24h-.07a2,2,0,0,1-1-.53v.3a1.19,1.19,0,0,1,.25.63c0,.22-.37.68,0,.85l-.53,0a1.23,1.23,0,0,1-1.17-1.2c0-.26.37-.38.48-.57h-.66c-.15,0-.23-.32-.23-.4a2.66,2.66,0,0,0-.83-1.17c-.48-.43-1.09-.76-1.11-1.54l0-1c0-.52-.87-1.28-1.41-1.52s-1.15-.27-1.17-.79h-.53c-.84,0-1.82-1.22-1.84-2.08l-1.14,0c-.5,0-.3-.78-.53-1-.41.28-1.25.3-1.24.71,0,.07.12.22.2.21a2.1,2.1,0,0,0-.13.68c0,.56.36.77.82.91a1.79,1.79,0,0,1,1,1.13c.17.52.45,1.11.76,1.25.58.25.95,0,1.52,0a.43.43,0,0,1-.06.3c-.15.45.77.62,1,.72.77.35,1.69.62,1.6,1.41-.39-.06-.63-.54-1.24-.53-.46,0-.83.25-.82.63s.7.57.72,1.06c0,.18-.49.2-.49.2-.34.34-.24,1.12-.77,1.14-.27,0-.42-.1-.43-.25.46,0,.63-.58.62-1s-.32-.69-.41-1a3.72,3.72,0,0,1-1.09-1.08c-.15,0-.73-.14-.74-.36A3.4,3.4,0,0,1,201.79,82c-.28-.25-.85-.38-.94-.64-.7-.84-1-2.36-2.42-2.32-.68,0-.71.5-1.05.66-.71.36-1.19,1-2,1.06s-1.38-.37-2.15-.35c-.57,0-1.16.41-1.15,1l.25.81c-.2.75-1,1-1.83,1.25A3.51,3.51,0,0,0,188.76,86a.5.5,0,0,0,.39.47,3.4,3.4,0,0,1-1.47,1.61c-.45.23-.5,1.17-1.27,1v0a3.75,3.75,0,0,0-1.18.11c-.91,0-1.38.78-2.22.81-.57,0-.65-1.36-1.52-1.34-.65,0-1.06.29-1.63.3a.28.28,0,0,1-.31-.29l0-1.49a.58.58,0,0,1-.63-.5c0-.49.41-.61.4-.87,0-.93.29-1.91.26-2.88,0-.56-.45-1.07-.46-1.41s1.27-1,1.5-1,.35.22.57.14l1.71,0a1.42,1.42,0,0,0,.66.21l1.82,0c.46-.13.69.12,1.07.11a7.4,7.4,0,0,0,1-.21c0-.75.46-1,.44-1.69,0-.15-.06-.8-.06-1l-.08.06a1.29,1.29,0,0,0,.14-.56c0-.34-.23-.25-.24-.55-.76,0-1-.65-1-1.24-.23,0-.27-.22-.46-.25-.61-.17-2.3-.42-2.31-1,0,0,0-.1,0-.14,0-.33,1.05-.59,1.42-.71.13.22.74.35,1,.34a3.57,3.57,0,0,0,.87-.21v-.26c-.26-.07-.16-.63-.21-.74v-.3h.38a1.58,1.58,0,0,0,1.16.45.72.72,0,0,0,.63-.57c1.14,0,1.42-.86,1.63-1.76a2.08,2.08,0,0,0,.53-.1,12.43,12.43,0,0,0,1.88-.87c.29-.3.17-.75.15-1.2,0-.14.33-.38.37-.42a2.86,2.86,0,0,1,1.91-1.17c.5,0,.27.11.53,0,.12.11.23-.19.3-.27.26-.27.61-.06,1-.07s.83-.35.82-.65a7,7,0,0,0-.29-.93c-.18-1-.8-1.28-.82-2.18,0-1.56,1.43-1.72,2.37-2.41v.45a1.79,1.79,0,0,0-.2,1c0,.38.43.4.74.39v.3c0,.18-.33.27-.44.39-.37.38-.82.73-.8,1.4a.63.63,0,0,0,.43.66c0,.22.05.29,0,.41.42,0,.58.13.92.12.08.18.17.44.28.44,1,0,1.73-.9,2.61-.82,0,.19-.22.31-.22.42a4.1,4.1,0,0,0,.66.5c.42,0,.45-.27.64-.35.63-.32,1.14-.22,1.69-.5.34-.15.94-.73,1.4-.74a4,4,0,0,1,1.29.11,1.45,1.45,0,0,0-.14.42c.46,0,.93-.07,1.37-.13,0-1.3,1.26-1.14,1.22-2.6,0-.89.77-2.63,1.45-2.65s.79.91,1.55.89c.46,0,1.45-.72-.52-2.42-.6-.52,1.29-1.33,2.13-1.35s1.26.22,1.91.21a6,6,0,0,0,2.07-.88,4.21,4.21,0,0,0-1-1.28c-.36.75-2.11.91-2.83.82a9.63,9.63,0,0,1-2.27.63c-.49,0-.84-.06-.85-.47-.8,0-1.65-.47-1.67-1.25,0-.38.4-.65.51-.84-.39-.14-.75-1-.76-1.4a2.61,2.61,0,0,0,0-.74c1.59-.05,2.38-2.12,3.35-2.71.52-.31,1.43-.52,1.41-1.16,0-.93-1.28-1.08-2.24-1.06-1.25,0-2.26.51-2.24,1.56,0,.45.14.62,0,.86,0,.85-1.71,1.65-2.5,2.12-.63.39-1.31.56-1.67,1.24s.11,1.23-.45,1.5l0,.75a.84.84,0,0,1,.31.66c.69.1,1.74.74,1.76,1.45S207.18,58,206.8,58c-.76,0-1,1.11-1,1.89a.63.63,0,0,0,.6.62c-.09,1-1,1.11-1.1,1.82l-1,0c-.65,0-.85,1.22-1.8,1.25-.3,0-.88-1.55-.88-1.73s.06-.27.06-.38c-.66-.62-.6-1.14-.89-1.95-.2-.55-.78-.69-.8-1.36a1.24,1.24,0,0,1,.18-.54c-.43-.21-.53-.52-.79-.86-.76,1.14-2,2.59-3.54,2.63a5.68,5.68,0,0,1-1.75-1c0-.3.49-.5.64-.58l0-.56a1.86,1.86,0,0,0-1,.21c0-.26.4-.72.58-1a4,4,0,0,1-.72-2.63c0-.56.59-.54.81-.88A2.9,2.9,0,0,1,196,51.66c.68-.2.81-1.1,2.18-1-.42-.1-.58-.17-.92-.23,1.66-.46,2.27-1.78,3.39-2.71.44-.35.34-1.5.64-1.51,0,0,.36-.83.36-.87a3.55,3.55,0,0,1,1.74-1.62,4.31,4.31,0,0,0,2-2.4c-.94.21-1.31.71-2.23.73a2.27,2.27,0,0,1,.75-.54,3.41,3.41,0,0,1-.57-.1c.06-.37.25-.6.55-.61.12,0,.2.11.31.1a1.88,1.88,0,0,1,.33-.49.57.57,0,0,1,.14.67c.6,0,.77.35,1.26.33.19,0,.58-.91.66-1a1.1,1.1,0,0,0-.61,0,1.09,1.09,0,0,1,.86-.62,1.31,1.31,0,0,0,.75-.1l-.3-.29c.37-.38,1.05-.37,1.62-.49v.44c.49-.12.58-1,1.38-1l0,.63c.47-.9,1.12-.7,1.79-1.09-.3-.1-.57-.17-.58-.43s.68-.36.78-.58c.24.25.48.54.82.53.57,0,2-1,2-.5s-.62.69-.76,1.22c.76,0,1-.81,1.6-1.17a1.72,1.72,0,0,1,.21.67,6.58,6.58,0,0,1,1.41-1.09c.06.49,0,.82.41.85.11-.3.25-.57.56-.57a6.65,6.65,0,0,1,1.34.56c-.32.9-.63.61-1.49.94.39.28.65.31.66.53.34,0,1.14.12,1.26.12a1.74,1.74,0,0,1,1,0c1.25,0,5.42,1.88,7.3,2.41,6.54,1.86,2.36,4.57.23,4.08a13.89,13.89,0,0,0-4.12-.24c.79,1.06.58,3.34,2.76,3.47l0-1.49c4.45,1.72,3.83-1.83,4.89-2.19s3.05.47,3-.83c0-.67-.7-.78-.6-1.1,1.5-5,2.44-1.77,1.89-.24-.15.42.52.73,1,.72,1.4,0,7-5.2,7.9-3,1.76.77,4.13-.86,5.31-.89.69,0,2,2.26,2.08-.62,0-.26-1.72-1.95,3.52-.77,1.9.43,7.06,3.91,4.85.72a4.92,4.92,0,0,1-1.81-3.68c0-1.41,3-4.13,4.65-3.86,3.27.55,1.17,1.13,1.21,2.39s.61,6.78,2.21,6.74c1.24,0-1.19-2.75-.41-3.61,1.13-1.26-.52-2.3-.86-3.34,1-.55,1.76-1.09,1.92-2.29.55.66.44,4.07,2.62,1.05,2.66-.08,3,.44,3.8-.11-.16-.59-.6-1-.61-1.47C274,28.65,278.75,29,280,28.93c.87,0,1-1.57,1.58-2.09,2.71-2.52,8.06-3,9.3-3.43-.38,1.76,4.49-.31,5.23-.89,1-.82,1.77-2.29,3.75-2.35a2.87,2.87,0,0,1,2.9,2l4-.11c9.5,2-1.91,5.31-3,6.8,0,0-1,2.53,3.84-1.6.87,1.32,7.48,1.88,8.74,2.18l4.18-.11c0-1.16.5-1.59,1.49-1.53,7.84.42,4.83,2.4,4.83,2.66,0,1,.77,3,2.36,2.92.61,0,.81-1.18.91-1.7,1.26,0,1.43.89,2.5.86l6.08-.17c.19-1.46.57-3,3.53-3.08A24.93,24.93,0,0,1,350,30.36c1.11.3,1.18,1.2,2,1.81s3,.11,4.39.07c2.58-.07,3.89.56,4.44,2.49l8.75-.06c.73-.06,3.76,3.52,2.48-.07-.17-.49.67-.76,1.88-.79,4.41-.12,8.46,1.59,11.51,3.22C387.63,38.2,392.11,39.09,393.52,40.84ZM226.88,96.2l0,0s0,0,0,.08A.06.06,0,0,1,226.88,96.2Zm14.26-11.62c-.14.22.32.24.52.53s0,.75.22,1.19.69.17,1.11.23.43.44.67.65,1.26.19,1.75.18a7.73,7.73,0,0,0,1.78-.28l0-.66a1.62,1.62,0,0,1-.39-.78c0-.33.25-.45.24-.86a1.59,1.59,0,0,0-1.38-1.53c.07-.57.4-.94.74-1l1.14,0c0-.55-.63-.84-.69-1.4a8.49,8.49,0,0,0-1.28.6c0-1.45-1.08-1.91-1.83-3.12-.24-.41-.85-.35-.91-1.1a9.5,9.5,0,0,1,2.64-1c.69,0,1.45.37,2-.09-.8-1.1-1.16-2.06-3.22-2a6.82,6.82,0,0,0-2.83.72c-.12,0-1.24.7-1.43.6a8.49,8.49,0,0,0-.87,1.81c0,.56.87,1.09.88,1.47a6.42,6.42,0,0,0,2.7,4c-.6.32-.58,1.21-1,1.82C241.68,84.55,241.28,84.35,241.14,84.58Zm55.47,31.13c-.05.12-.09.23-.15.36h0C296.52,115.94,296.56,115.83,296.61,115.71Zm.56-1.42c-.21.47-.32.81-.46,1.16C296.85,115.1,297,114.76,297.17,114.29Zm.29-.41a4.71,4.71,0,0,0-.23-.88,4.71,4.71,0,0,1,.23.88.25.25,0,0,1-.09.19A.25.25,0,0,0,297.46,113.88Zm83.75-81.77c.42,0,3.42-.28,3.41-.77s-1.47-.89-2-.87-1.77.72-1.76,1.28A.37.37,0,0,0,381.21,32.11Zm-10.7,2.61a.41.41,0,0,0,.37-.38c0-.23-.24-.29-.28-.44l-1.26,0A1.32,1.32,0,0,0,370.51,34.72ZM334,23.9c.27,0,.32-.28.35-.5h0a.13.13,0,0,0,0-.06h-.07L334,23a.89.89,0,0,0-.3.57C333.66,23.83,333.78,23.9,334,23.9Zm-25,2.55c-.38,0-.83.21-.82.59s.43.43.85.42a1.6,1.6,0,0,0,.78-.25.33.33,0,0,0,.08-.22C309.87,26.54,309.52,26.44,309,26.45Zm.89.73-.08,0a2.57,2.57,0,0,1-.21.24Zm-15.37-8.09c0,.37.13.56.58.54l2-.61s1.18-.22,1.33-.23c.69.1,2.66-.1,2.64-1,0-.52-1.6-1.45-2.14-1.43-.26,0-.41.31-.67.39.3-.31.1-.3.09-.83l-.5,0c-1.52,0-1.82,1.43-2.67,2.31C295,18.48,294.49,18.49,294.51,19.09Zm-9.33-4.22c0,.34.56.92.78.91.46,0,1.71-.12,1.77-.79-.27-.07-1.35-.53-1.54-.52S285.17,14.5,285.18,14.87Zm5.2-.26c-1.2.41-1.57.83-2.81,1.28.57.28,1.59,1.29,2.05,1.28,1.37,0,2.6.6,4.28.56.35,0,.75-.25.74-.58s-.31-.37-.58-.44c.23-.08.76-.13.75-.5s-.09-.45.28-.75c-.51-.48-.51-.73-1.27-.71l-.77,0c-.45,0-.69-.36-1.15-.34-.3,0-.42-.11-.8,0,.31-.16.72-.47.71-.7a4,4,0,0,0,0-.74c.15,0,.07.11.46,0-.63-.43-1.26-1.42-2.33-1.39-1.83,0-2.34,1.82-3.93,2.31a5.85,5.85,0,0,0,2.8.71C289,14.58,290,14.62,290.38,14.61Zm.14,7.58c.46,0,.68-.25.74-.77l-.57,0a3.88,3.88,0,0,1-.56.38A.44.44,0,0,0,290.52,22.19Zm-4.84-10-.13-.3-1.41,0C284.38,12.39,285.11,12.26,285.68,12.17Zm17.4,7c.26,0,.44-.31.47-.57-.33.16-.45,0-1.25.15A.84.84,0,0,0,303.08,19.15Zm-62-4a1.08,1.08,0,0,1-.26.16v.15Zm-4-.63c.34,0,.53.21.88.31-.19.15-.38.23-.56.35a3.2,3.2,0,0,0,.68.06,3.28,3.28,0,0,0-.79.32c.13.33.51.43,1.08.42h0c.12.14.24.33.43.36.35,0,.4-.65.74-.84.51-.3.85,0,1.33-.19v-.22a.7.7,0,0,0,.38,0c.45-.35.95,0,1-.7a3.41,3.41,0,0,0-1.15-.35c-.57,0-.82.51-1.39.53-.73,0-1.28-.45-2.23-.43-.79,0-2.58.19-2.91.79a6.24,6.24,0,0,0,.85.13C236,15,236.67,14.53,237.09,14.52Zm18.06-.69a7.44,7.44,0,0,0,2-.54l-.56-1.17c-.57,0-2.12.65-2.1,1.17S254.69,13.85,255.15,13.83Zm-2.07,1-.2-.44c.34,0,.73.13,1-.21a4.22,4.22,0,0,0,0-.56,4.63,4.63,0,0,1-1.22,0,.54.54,0,0,0,.38-.31l-1.26,0a1.92,1.92,0,0,0,0,.48,1,1,0,0,0-.73,1C251,15.07,252.86,14.94,253.08,14.82Zm-4,0c-.39,0-1.9.28-1.89.8,0,.15.2.25.39.25.34,0,.5,0,.56-.39.23,0,.55.36.77.35.54,0,.48-.57,1.24-.59A1.27,1.27,0,0,0,249.09,14.86Zm-.22-.74a1.92,1.92,0,0,0,1.14-.18,7.07,7.07,0,0,0-2.18-.5,11.32,11.32,0,0,1,1.72-1,.72.72,0,0,1,.33-.49c0-.12,0-.45-.13-.45a.69.69,0,0,0-.62.65c-1.11,0-1.13.78-2.26.81v.49c.37-.24.22-.08.64.05l-1.59,0c-.19.15-.26.23-.48.42a13.32,13.32,0,0,0,1.92.66C247.82,14.59,248.42,14.13,248.87,14.12Zm-49.53,5.47c.12,0,.2.1.31.14-.14.6.45.88,1.1,1.2a1,1,0,0,0-.3.09,1.28,1.28,0,0,0,1.23.56c.8,0,.78-.85,1.11-1h.31a2.5,2.5,0,0,0,.58.32l1,0a7.44,7.44,0,0,1-1.92,1c-.19,0-1.06.07-1.05.4,0,.9,1,.46,1.46.45a6.09,6.09,0,0,1,1.71.14c-.45.12-.87,0-1.24.33a6.8,6.8,0,0,0-1.41,0c0,1.27,2.1,1.7,3,2.27.52-.54.41-1.58,1.05-2.08.18-.16.49-.09.56-.32.36-1,.73-2.63,2-2.67a1.35,1.35,0,0,0,.93.54,2,2,0,0,0-.53.09c.16.29.52.95.79,1-.06.56-.48.39-.54,1.06.49,0,1.29,0,1.75,0a.77.77,0,0,0,0,.67c.94-.33,1.34-1,2.36-1.33-.35-.48-1.45-.15-1.48-1.31l-1.22,0a.59.59,0,0,0,0-.56,1.59,1.59,0,0,1-.69,0,1.65,1.65,0,0,0,.38-.05,7.52,7.52,0,0,0-3.09-1.48l-.38,0c.07-.3.13-.9-.48-.88-.3,0-.37.34-.67.5,0-.26.1-.49.09-.75s-1-.71-1.54-.7-.76,0-.74.58a3.89,3.89,0,0,0,.5,1.63c-1-.32-.73-1.63-1.76-1.6a.67.67,0,0,0-.63.65.54.54,0,0,0,.28.48c-.27-.25-.65-.24-1-.53a4.37,4.37,0,0,1,.44-.53,8.91,8.91,0,0,0-1.91-.1c-.38,0-1.16.74-1.3.93C198.64,19,199.07,19.6,199.34,19.59Zm7.48-2.22c0,.86.7.39,1.34.37l1.79.07c-.18.07-.61.09-.94.21a6.67,6.67,0,0,0-.76.05.63.63,0,0,0,.51.59l2.16-.06a1.37,1.37,0,0,0,1.35.63c1.11,0,3-1.39,3.87-2a2.11,2.11,0,0,0-1.74-1l-1.25,0c-.57,0-.79.39-1.13.4a3.21,3.21,0,0,1,0-.93h-.46c-.18.16-.47.88-.92.89a5.42,5.42,0,0,1-1.55-.71L208,16l.2.37-.64,0v.18a.83.83,0,0,1-.77-.09l-.57,0A1.3,1.3,0,0,0,206.82,17.37Zm-7.08,4.26c-.28-.79-.79-.94-1.29-1.52C197.89,20.48,199,21.47,199.74,21.63Zm-1.22-1.57s0,0-.07.05l.07.06Zm-.12,0,0,.05h0ZM177.64,69.15a1,1,0,0,0,1,.83,1.55,1.55,0,0,0,.72-.16c.3-.2.74-.84,1.35-.86.38,0,.76,0,1-.22s0-.74,0-1l0-1.27c0-.3.67-.28.67-.58,0-.63-.47-1.52-1.34-1.49l-.65,0c-.38,0-1.13.47-1.12.74s.08.25.24.47a2.16,2.16,0,0,1-1.09.44c-.11,0-.42-.06-.41.43s.36.58.75.76C178.56,68.12,177.61,68.22,177.64,69.15Zm3.18-8.67a.81.81,0,0,0,.7-.87c-.3,0-.94.21-.93.43S180.71,60.48,180.82,60.48Zm1.25,1.05v.3s-.26.3-.25.49.35.25.57.28v.34a.27.27,0,0,0-.14.26l0,.6h.3a.42.42,0,0,1,0-.56,1.18,1.18,0,0,0,.65.17c-.11.3,0,.38,0,.71s-.37.5-.36.79.27.29.62.28.49-.2.87-.21c.11,0,.22,0,.34,0-.07.15-.26.23-.25.53s.54.44.92.38l0,.56a2.22,2.22,0,0,1-1.7.76c0,.41.33.59.34,1.08s-1.05.62-1,1.18a.24.24,0,0,0,.19.18c.19,0,.15-.19.38-.2.41,0,.58.44,1.07.42a.84.84,0,0,0,.68-.39c0,.07.08.18.08.26,0,.52-.75.36-1.28.52a11.14,11.14,0,0,0-1.29,1.42v.22h.27a.73.73,0,0,1,.53-.31h.53a.62.62,0,0,1,.59-.66c.26,0,.42.22.69.21.57,0,1.59-.38,2-.39l1.52,0a1.44,1.44,0,0,0,1.05-.59v-.26a2.7,2.7,0,0,1-.76-.13c.29-.49,1.19-.86,1.18-1.53a.77.77,0,0,0-.82-.68c-.31,0-.24,0-.5.16l.19-.15c-.15.07-.18.19-.45.27v-.26a.29.29,0,0,0,.19-.27c0-.29-.43-.47-.44-.77,0-.89-1-1.13-1.65-1.71-.47-.43-.38-1.33-1.11-1.54-.3-.06-.49.09-.88,0a.45.45,0,0,1,.3-.31c0-.78,1.15-1.26,1-2.3l-2.25.06a.6.6,0,0,1-.12-.29c.1-.53.94-.48.93-1,0-.08-.24-.34-.4-.33l-1.1,0c-.23,0-.6.31-.59.5s-.15.34-.14.64a.47.47,0,0,0-.52.46c0,.07.12.18.2.22s-.07.22-.15.22a.32.32,0,0,1-.27-.32l-.61,0C181.19,61.33,181.5,61.43,182.07,61.53Zm1.41,4.18a.42.42,0,0,0-.25.45h.42c0-.19,0-.34,0-.45ZM337.62,25.29c.38,0,.56-.35.82-.58a.81.81,0,0,0,.7.35c.38,0,.6-.31.83-.32s.45-.28.75-.28.43.36.7.35c.45,0,.63-.39.94-.4l1,0c0-.29.51-.72.64-1.24a26.43,26.43,0,0,0-3.75-.91c-.45,0-.63.47-.62,1-1,0-1.14-1.17-2.32-1.13a1.69,1.69,0,0,0-1.67,1.53A1.87,1.87,0,0,0,337.62,25.29ZM205.32,86.92c-.58-.1-.8.26-1.29.28s-.9-.47-1.68-.07v.26c.12.18.43.14.54.17.62.17,1.13.79,1.78.92,0,.11.2.15.31.15a.3.3,0,0,0,.22-.27c0-.3-.2-.33-.21-.6a1.14,1.14,0,0,1,.18-.41Zm-6.55-4a14.58,14.58,0,0,0,.3-1.5c-.12,0-.16-.22-.17-.41-.18,0-.33.38-.59.39-.08,0-.19.08-.27.08C198.24,81.79,198.38,82.88,198.77,82.94Zm-.53,1.55c0,.25-.18.44-.21.75s0,.78.4.76a1.29,1.29,0,0,0,1-1.07,2.5,2.5,0,0,0-.28-1.52c-.11,0-.23-.21-.5-.21s-.37.39-.78.51C197.88,84,198.23,84.18,198.24,84.49Zm-5.68,1c0-.11-.21-.33-.21-.4a2.1,2.1,0,0,0-.6.27s.35.33.51.32S192.56,85.57,192.56,85.46ZM200,64.13c0-.37-.28-.29-.29-.74l-.72,0v.37c0,.38.43.48.89.47v.29C200,64.35,200.05,64.43,200,64.13Zm.46.36-.07-.15a.92.92,0,0,0-.19.2.9.9,0,0,0,.54.2c.84,0,.5-1.32,1.14-1.52-.21-.63-.26-1-1-.94-.26,0-.7,1-.69,1.14s.43.51.81.57C201,64.18,200.77,64.45,200.5,64.49Zm8.05-5.15a1,1,0,0,0-.85,1c0,.18-.11.34,0,.48.26-.34.56-.53.55-.94C208.25,59.65,208.47,59.49,208.55,59.34Zm3.42-.28c.15,0,.64-.28.63-.39v-.45a.91.91,0,0,0,.29-.49,1.24,1.24,0,0,1-.43-.36s-.33.2-.33.38.16.3.28.44c-.3.05-.53.28-.83.32C211.58,58.74,211.62,59.07,212,59.06Zm5.23,31.13a5.54,5.54,0,0,0-2.4-.16,3.75,3.75,0,0,0,1.45.26C216.52,90.28,216.72,90.47,217.2,90.19Zm9-.92a10.73,10.73,0,0,0-2.18.81.25.25,0,0,0,.19.18c0,.11.16.18.28.18.34,0,1.06-.22,1.17-.44s-.06-.34.06-.38S226.1,89.65,226.16,89.27Zm21.51,26.17a.94.94,0,0,0,.67-.47,2.81,2.81,0,0,0-1.09.22C247.29,115.37,247.56,115.44,247.67,115.44Zm-7.89-76.36a2.32,2.32,0,0,0-.47.87c0,.37.24.44.7.42a3.45,3.45,0,0,0,1.58-.67l0-.49c-.53-.06-.81-.54-1.35-.52C240,38.69,240,39.07,239.78,39.08Zm10.87-1.87c0,.45.87.91,1.36.9,0,0,.5,0,.49-.21C252.48,37.16,250.63,36.46,250.65,37.21Zm13.83-6.39c-.38-.29-.51-.7-1-.69s-.56.43-.55.77c0,.11-.1.37,0,.37A3.86,3.86,0,0,0,264.48,30.82Zm77.11-2.47,1.14,0a1.66,1.66,0,0,0-1.83-1.44,2.26,2.26,0,0,0-1.8,1.17l.19-.19A15.92,15.92,0,0,1,341.59,28.35ZM349,24.86c.61,0,1.71-.19,1.7-.6a.39.39,0,0,0-.39-.37,31.24,31.24,0,0,1-4.51-.61l.38.28C346.24,24.49,348,24.89,349,24.86Zm-9,1.56c0-.52-1-.57-1,0,0,.34,0,.48.47.47A.54.54,0,0,0,340,26.42ZM173.16,48.9l.07-.08c0-1-1.43-.74-1.46-1.82a.52.52,0,0,1,.22-.35c-.34,0-.57.21-.91.22s-.68,0-.69-.47c-.15.12-.15.08-.42,0a1,1,0,0,0-.14.57c-.35-.33-.8.13-1.29.14-.34,0-.65-.09-1.22-.08a1.2,1.2,0,0,0,0,.38,1.71,1.71,0,0,0-.54-.25l-.91.25c-.22,0-.35-.18-.5-.32-.11.15-.07.22,0,.48-.19.05-.41.24-.68.25s-.62-.47-.59-.74-.2-.32-.24-.55h-.3c-.31,0-.37.42-.68.43v.3a.89.89,0,0,0-.76-.06c.08.41,1.5.78,2,.77a.37.37,0,0,0,.16.3,8,8,0,0,1-2,.39c.39.36,1,0,1.64.1a5.39,5.39,0,0,0-.16,1.12c-.11,0-.22.12-.33.2.83,0,1.15.49,1.69.63a10.22,10.22,0,0,0,3.44.57c1.29,0,2-.69,2.9-1A3.92,3.92,0,0,0,173.16,48.9Zm-64,61.88c-.27-.1-.47-.62-.89-.72l-.57,0c0-.07,0-.18,0-.26a3.59,3.59,0,0,1-2.39-.87c-.07-.07-.39-.43-.66-.43-1.25,0-2.08-.87-3.75-.82a3.17,3.17,0,0,0-3.07,1.72h.34a3.83,3.83,0,0,1,2.1-1c.19,0,.38,0,.54.1-.11.11-.15.26.09.41l1.1,0c.53,0,.81.53,1.35.52.3,0,.49-.13.8,0,.15.07.12.33.43.33.12.55.73.5,1.31.74a.4.4,0,0,1-.37.35v.23c.72,0,1.34.22,2.21.19C108.22,111.26,108.94,111.24,109.19,110.78Zm-9.45-1.67v.26a.33.33,0,0,0-.33.34c0,.07.49,0,.53,0a.89.89,0,0,0,0-.56l-.11,0Zm5.44,3.84a.61.61,0,0,0,.62.54,7.69,7.69,0,0,0,1.25-.25.43.43,0,0,0-.35-.33l.08.07a4.11,4.11,0,0,0-1.23-.27C105.4,112.72,105.17,112.8,105.18,113Zm12-.4c0,.37.51.39,1,.38.23,0,.5,0,.61-.24-.13-.22-1-.39-1.16-.38S117.15,112.35,117.16,112.55Zm-7.84.06a.67.67,0,0,0,.47.58c0-.1,0-.18,0-.29.2.11.19,0,.46,0A4.2,4.2,0,0,1,112,113c.2.11.13.48.47.47s.37-.68.86-.69c.19,0,.16.18.39.17s.41-.16.67-.32l1.41,0a4.48,4.48,0,0,0-1.05-.8l.19.15c-.69-.32-.94-1-2.15-.91-.42,0-.65.16-1.14.18s-.58-.25-.92-.24c-.12,0-.3.16-.3.27a.51.51,0,0,0,.51.4,1,1,0,0,0,.28.77c-.45.24-.83.06-1.7.08C109.47,112.5,109.4,112.61,109.32,112.61Zm14,8.91c0,.11.23,0,.34,0s.37-.35.44-.5v-.26h-.34C123.52,120.77,123.3,121.15,123.31,121.52Zm12.88,10.17c-.46,0-.75.39-.73.95,0,.34,1,1,1.58,1s1-.88,1-1.22c0-.07-.13-.33-.28-.32s-.52.42-.61-.06a1.48,1.48,0,0,1-.81-.32S136.23,131.69,136.19,131.69ZM111.9,182.52h.34l0-1.12c0-.12.14-.2.14-.42s-.13-.59-.48-.58-.42,1.13-.42,1.13V182A.66.66,0,0,0,111.9,182.52ZM55.3,77Zm97.75,61.56c.08,2.76-1.45,3.54-2.43,5.09-.22.34-.38.44-.6.78-.37.57-.78.66-1.15,1-.55.57,0,1.77.06,2.66,0,.67-.22,1.3-.21,1.79,0,.18-.14.34-.17.44s-.48.58-.47.88a5.06,5.06,0,0,1-.16,1.27c-.55.88-.73,1.26-1.28,2-.14.22-.09.67-.17.82a2.16,2.16,0,0,1-1.64,1,4.4,4.4,0,0,0-1.86.27c-.22.12-.26.31-.37.42-.88.92-1.85.43-2.51,1.49-.29.5-.78.51-1.08.81-.48.5-.39,1-.37,1.74l.05,1.75a3.34,3.34,0,0,0-1.47,1.83v0c-.26.49-.21.75-.5,1.25-.66,1-1.42,1.15-2,2.14-.73,1.14-1,3-2.72,3.06a13.13,13.13,0,0,1-1.74-.36c-.53,0-1-.42-1.61-.41-.11,0-.3.09-.29.2,0,.34.58.5.7.61.31.29.32.7.49,1.15s.73.39.74.79a1.63,1.63,0,0,1-.16,1,6.07,6.07,0,0,1-1,1.17c-.63.65-1.43.49-2.34.81-.6.2-1.87-.18-2.2.17-.48.5-.07,1.61-.32,2.14v.37c0,.18-.6.46-.86.47-.8,0-1-.49-1.73-.47a.4.4,0,0,0-.37.45c0,.53.5,1.48.84,1.47.19,0,.41-.24.53-.27.15.14.34.18.35.36a.66.66,0,0,1-.37.5c-.45,0-.62-.32-1-.31a.52.52,0,0,0,.43.55,3.9,3.9,0,0,0-.85,2.3c-.07.41-.75.47-1,.51a1.43,1.43,0,0,0-1.1,1.34c0,1.45,1.73.88,1.77,2s-.92,1.18-1.44,1.72c-.29.3-.17.78-.38,1.28s-.87.32-1.2.66a2.15,2.15,0,0,0-.6,1.7,1,1,0,0,0,.59.84c.7.36.7,2.07,1.21,2.54A9.82,9.82,0,0,0,122,198c-.15.22-.38.12-.61.12-.57,0-1.5.75-1.84.76h-.42c-.11,0-.26.16-.38.17l-1.06,0c-.88,0-.6-1-1.21-1.17s-1.42-.14-1.43-.81l-.73,0c-.3,0-.39-.29-.43-.48a2.26,2.26,0,0,1-1.89-.95c-.12-.11-.35-.3-.35-.37,0-.33.67-.32.7-.65a2,2,0,0,1-.31-.18,1.31,1.31,0,0,0,.25-.64c0-.9-1-.72-1.07-1.5v-.53c0-.81-.63-2.11-.65-2.74s.85-1,.84-1.55c0-.3-.49-.89-.57-1.29v-.38h0a.39.39,0,0,1,.33-.42c.69,0,.44.67,1,.65l1.1-5.55V180a1.93,1.93,0,0,0-.34,0c-.27.12-.3.42-.56.43s-.56-.84-.57-1.25a8.57,8.57,0,0,1,.33-1.69c.27,0,.38-.12.38-.24a.65.65,0,0,0-.24-.4c-.15,0-.22-1-.23-1.3a4.43,4.43,0,0,1,.82-2.26c.14-.26.2-.79.38-1.06s.31-.12.34-.27c.24-.87.23-1.5.43-2.4l-.12-2.79c-.24-.67.16-1.2.14-1.8,0-1.41.82-2.37.78-3.64V161a12.18,12.18,0,0,1,.23-1.31l0-1.64c0-.52.3-1.54.28-2.14a26.31,26.31,0,0,0-.39-3,3.16,3.16,0,0,0-1.68-1.74c-.58-.25-1-.16-1.43-.56a2.3,2.3,0,0,0-1.23-.71,5.24,5.24,0,0,1-2.33-1.47c-.31-.29-.17-.71-.18-1.15,0-.6-.6-.88-.76-1.4-.33-.89-1.11-1.54-1.4-2.35a12.16,12.16,0,0,0-.9-2c-.11-.22-.38-.15-.5-.25a3.23,3.23,0,0,1-.48-1c-.12-.22-.43-.13-.58-.28a2.92,2.92,0,0,1-1-1.8,2,2,0,0,1,.38-1.13c.33-.57,1-.73,1.15-1.34-.35-.21-.31,0-.57,0-.54,0-.63-.73-.65-1.25,0-.86.94-.73.74-2.37,1,0,1.26-1,1.55-1.65.4-.83,1.39-.6,1.59-1.61-.19-.07-.38-.25-.39-.36l.15-.3v-.19c0-.3-.24-.52-.25-.82s.18-.6.17-1c0-.79-.71-.67-.73-1.33a.61.61,0,0,1,.06-.24s-.08.05-.09,0-.44-.17-.44-.28.15-.22.22-.38c-.42-.17-.55-.65-1-.64-.27,0-1.31.78-1.31,1s.24.3.32.33c-.07.38-.25.57-.56.58-.6,0-1-.68-1.32-1s-.87,0-1.14,0c-.07,0-.19-.14-.2-.22-.53-.1-.54-.47-.7-.76a8,8,0,0,0-1.47-1,.27.27,0,0,0,0,.34H97.6c-.58-.36-.21-.89-.42-1.44-.12-.37-.32-.45-.51-.63-.63-.58-1.28-.9-1.53-1.78h-.23c-.27,0-.45.2-.72.21a3.4,3.4,0,0,1-1.61-.59c-.74-.31-1.26-.11-2-.46-1.19-.54-1.36-1.39-2.41-1.84h-.22a1.6,1.6,0,0,0-.85-.27c-.69,0-.78.77-1.43.79a2,2,0,0,1-.77-.32,1.72,1.72,0,0,0-.87,0,9.7,9.7,0,0,1-2.16-1c-.43-.18-.69.05-1.11,0s-.66-.57-1.2-.82-.77-.13-1.27-.34a1.4,1.4,0,0,1-.42-.25c-.47-.44-1.66-.67-1.78-1.15-.35,0-.59-.39-.6-.72s.37-.65.36-1.06-.33-.59-.41-.85a9.19,9.19,0,0,0-2.67-3.17c-.4-.36-1-.5-1.4-.86s-.06-.67-.26-1.07c-.36-.66-1.54-.71-1.57-1.6-.34-.07-.3-.11-.41,0-.51-.47-.9-.87-1.33-1.27s-.25-1-.61-1.29-.3-1.15-.61-1.29c-.65-.28-1.26-.22-1.77-.69-.11.14-.06.37-.06.48a4.08,4.08,0,0,0,.73,1.88c.29.55.79.54,1.18.91a2.87,2.87,0,0,1,.84,1.5c.29.85,1.06,1.24,1.35,2s.58,1.85,1.28,2.28c.3-.31.77.31.77.61s-.13.56-.25.57a2.87,2.87,0,0,1-.64-.78c-.68,0-1.07-.86-1.5-1.11-.23-.14-.27-.14-.39-.32l0-1c-.42-.4-.74-.8-1.13-1.16-.55-.51-1.38-.38-1.78-.92.19,0,1.09.1.75-.36a7.72,7.72,0,0,0-1.91-2c-.46-.27-.46-1.31-.7-1.75a7.87,7.87,0,0,1-1-1.73v-.26h.08c-.61-1.1-2.57-1.83-4-2.31-.31-.11-.21-.52-.33-.82-.57-1.29-1.64-1.71-1.5-3.24-.8-.09-1.67-1.72-2.36-2.81-.2-.32.14-.56.36-.72-.44-.8-.07-2.19-.46-3.12s.56-3,.52-4.2c0-.81-1-1.13-1-1.94,0-.23.41-.28.56-.28a1.21,1.21,0,0,1,1.13.6,2,2,0,0,0,.5-1c0-.37-.35-.47-.52-.84h0a1.62,1.62,0,0,1-.42-.22c-.39-.36-1.34-.41-1.47-.78-.33-1-1.65-.43-1.86-1.18-1.29,0-1.4-1-1.69-1.82a7.38,7.38,0,0,0-1-.68c-.46-.28-.05-.78-.41-1.11a1.71,1.71,0,0,0-.84-.27c-.54-.14-.41-1.14-.43-1.63,0-.22-.23-.33-.24-.52s.53-.34.51-.76c0-.71-.56-.92-.92-1.19.36.27.9.48.92,1.19,0,.41-.51.5-.51.76-.19,0-.19,0-.38,0-.64,0-1.62-.66-1.63-1.07v-.56c0-.56-.48-.55-1.16-.53s-.69-.32-.7-.54.56-.35.55-.65V65c-.72.06-.52.51-1,.52-.16,0-.58-.32-.59-.55,0-.44.25-.6.36-.79-.2-.18-.55-.51-.69-.24a1.49,1.49,0,0,1-1.16-.53c-.11.3-.25.68-.55.69-.8,0-1.36-1-1.83-1.37-1-.68-2.3-.61-3.46-1.21l-2.09.06c-1.27-.38-2.94-.48-3.63-1.77-.45.2-1.2.4-1.54.6a1.17,1.17,0,0,0,.39.52A7.68,7.68,0,0,1,24,63.13c-.16,0-.39-.1-.39-.25s.22-.27.29-.31c-.19-.25,0-.26-.05-.45,0-.81.53-1.47,1.63-1.83,0-.11,0-.26,0-.38l-.46,0c-.92,0-3.37,2.14-3.33,3.38v.55c0,.86-.81,1.18-1.67,1.54-.49.2-.63.58-.92,1-.56.72-1.84,1.13-2.43,1.75a6.33,6.33,0,0,1-3,1.2c-1.37.26-2.09,1.85-3.69,1.44.43-.72,1.17-.44,1.8-.83.45-.27.77-1,1.18-1.26.64-.4,1.37,0,1.82-.61.62-.84,2.08-1.51,3-2.14s.83-1.7,1.73-2.28H19c-.56.24-.82.51-1.39.52a2.61,2.61,0,0,1-1-.27,3,3,0,0,0-.25.68,5.65,5.65,0,0,1-1.86-1,1.55,1.55,0,0,0,0,.56l-.45,0c-.23,0-.42.3-.57.31s-.39-.63-.4-.92l0-.75c0-.11,0-.56-.32-.55s-.6.65-.75.65A7.66,7.66,0,0,1,9.3,61.26c.19,0,.38-.12.56-.13-.32-.81-1.54-1-1.56-1.56,0-1.12,2-2.11,2.79-2.13.35,0,2.91-1.09,2.89-1.57,0-.27-.63-.77-.67-.88.38-.24.3-.2.57-.05v-.56a3.42,3.42,0,0,0-.58,0c-.6,0-.82.66-1.61.68s-1-.34-1.61-.22l-2,.06c-.06-.56-.52-.69-.53-1a1.47,1.47,0,0,1,.11-.38,1.13,1.13,0,0,1-1.16-.56c.93-.59,2.48-1.11,3.38-1.73l.68,0c0,1.19.63.84,1.43.81A3.43,3.43,0,0,0,13,52c-.41-1.19-1.22-1.24-2.33-1.74-.31-.13-.8-1.24-1.19-1.45s-2-.51-2-.77c0,0,.5-.94.54-1.06l2.09-.05a10.18,10.18,0,0,1,4.77-3.68c.53-.16.88.09,1.4-.12S17.26,42,17.9,42s.7.39,1.2.53a2.66,2.66,0,0,0-.33.5,1,1,0,0,0,.94-.51c.42.13.54.24.88.35l1.9-.06a7.91,7.91,0,0,0,1.17.71l2.93-.08c.78.73,3.14.85,4.32.82.68,0,1.1-.29,1.78-.31,1.1,0,1.46.41,2.42.68v0c.38.07.19.15.45,0,0,.11.48.43.55.47a8.46,8.46,0,0,0,4.25,1c.34,0-1.39-.84,1.08-1,.36,0,.15-1.18,1.17-.29.34.29,1.32-.45,1.74-.54A15.06,15.06,0,0,1,47,43.43a.75.75,0,0,0,.7.49c.8,0,.5-1.09,1.26-1.11.23,0,1.3,1.64,2,1.62s.74-.84,1.45-1c.09.3.53,1,1,1,.6,0,.9-.51,1.62-.53,2.32-.06,3.52,1.76,5.83,1.52s2-.45,3.07,1c-.22.24-1.39.13-1.38.46,0,.12,0,.66,1.52.55.84-.06,1.32-.38,2.09-.4l2.43-.06.58.25c.65.27.83,1.2,1.59,1.18.19,0-.25-.85-.26-1.11,0-1.27,1.93-.32,1.75-1.54a4.66,4.66,0,0,1-2,.64c-.31,0-.49-.13-.5-.39,0-.82,2.26-.92,2.94-1.12.54,1.51,3,2.16,5,2.1s2.59-.15,3.23-.09c0-.78.24-1.2.92-1.22a3.51,3.51,0,0,1,1.73.4c.31.4-.64,1.65.6,1.29,0-1.83,2.48-1.15,2-2.67-.3.16-.53.24-.79.4a7,7,0,0,0,.27-1.13c0-1.27-2.6-.45-2.63-1.68,0-.52.48-.5.47-.87s-.32-.55-.33-.93c0-.56.59-.46,1-.59,0-.37-.37-.82.35-.83,1.49,0,2.35.72,2.41,1.88,0,.55,1.16.49,1.18,1.2,0,.48-.66.76-.93.92.48.55,1.3.15,1.92.51a1.44,1.44,0,0,0-.37.45,1.32,1.32,0,0,1,.92,1.43c1.18,0,.37-1.61,1.48-1.64A3.13,3.13,0,0,1,92.49,45c0,.55-.63.46-.62.94s1.19,2.12,2,1c.53-.71.41-1.2.7-1.85.18-.38,1-.4,1-.77s-.58-.51-.6-1,.48-.77.94-.78.61.21,1,.24c1.56,0,1.29.9,2.5.87,0,.63.17.59,0,.92-1.18.6-.65,1.18-.65,1.44s.89.58.9.91c0,.49-1.9,2.18-2.16,1.81-.48-.68-.65,0-.45.2-.68,0-.9.33-1.24.34-.54,0-.86-.73-1.7-.7-.3,0,.29.66.29.81,0,.45-1.07,1.26-1.68,1.28s-1.23-.53-1.73-.81h-.69c.6,1.11,1.89.89,3.19,1.15l0,.56c-.6.46-1.07,1.41-2,1.43l-.84,0c-.45,0,.06,1-.75.81-3.11-.84-1.94-.11-2.28-.21.53.28,2,.28,2,.84,0,.9-1.13.56-1.77.8-.3.12-.91,1.59-1.2,1.9a4.1,4.1,0,0,0-1.25,3.28c0,1.08.19,1.23.05,1.68.38-.09.56-.39.94-.4.84,0,1.5,2,1.53,2.94.57,0,.82-.58,1.39-.6a6.17,6.17,0,0,1,1.73.7,19.9,19.9,0,0,1,4.74,2.11l2.48-.07c1.08.64.88,1.58.91,2.77s1.4,2.21,2.37,2.93c.36.27.67-.47,1.13-.48,0-.41.51-.69.66-.92-.55-.61-.09-2.66-1.43-3.28.76-.17,3-1.91,3-2.58-.07-2.46-1.41-2.9-2.32-4.34.49-.2,1.56-.51,1.39-1.61-.08-.55-1.28-1.34-.81-1.66,1.21-.79-.15-1.3-.16-1.67,0-.67.55-1,1.12-1,1.06,0,1.77.58,2.87.55.57,0,.56-.38,1-.4,1.07,0,1.33,1.23,2.4,1.35,0,1.38,2.07.58,2.26,1.62.13.78.45,2.6,1.09,2.58.46,0,.6.8,1.28.79a2.89,2.89,0,0,0,2.12-2c0-.52.58-.87.84-1.07a2.33,2.33,0,0,0,.66.47c.14,1,1.77,1.16,1.39,2-.3.69.95,1.43,1.3,1.53-.06.38.29.67.3,1s-.37.57-.56.69a3,3,0,0,0,1.85.84v.11c0,1.27,2,1.63,2.89,1.49,0,.18.37.23.34.42-.21.71-2.31,1-3.06,1.48,0,.08.27.14.38.14a10,10,0,0,0,3.58-1.22l0,.45c.44.18,0,.56.32.55a2.9,2.9,0,0,1,.69,1.78c0,1.19-3,1.43-3.55,2.15-1.09,1.46-2.15.88-4,.93a10.39,10.39,0,0,0-3.72.29c-.8.28-.41.61-.92,1.14-.82.84-1.63.53-2.09,1.55,1.13-.18,1.86-1.35,3.54-1.4.79,0,2-.2,2,.5s-1.34,1-1.57,1.28c.35,0,.77.09,1,.08-.07.38-.36.69-.36.91,0,.93,1.81,1.93,2.91,1.9.23,0,1.22,0,1.23.41s-2.57,1.35-2.76,1.39c-.75.25-1.43,1.27-1.73,1.28a1.33,1.33,0,0,1-.79-.92c0-.82,1.33-1.45,2.2-1.55-.6,0-.57,0-.58-.54-.57,0-.56.53-.9.77s-1.28.1-1.51.11-.31,0-.39,0v.11l0,.09a1.21,1.21,0,0,0,.18.28,1.4,1.4,0,0,1-1.2.67c-.46,0-.5-.17-.88,0-.59.62-1.87,1.07-1.83,2.48,0,.11,0,.3.16.33,0,.19.17.67.4.66a1.82,1.82,0,0,0,.41-.27v.26c-.46.13-1.1.29-1.25.15-.75.58-2.05.39-2.8.9h.38c.34,0,.68-.21,1,0a4,4,0,0,1-1.44.23c-.11,0-.23,0-.34,0a.32.32,0,0,0-.22.26c0,.19.35.44.35.44-.07.3-.75,1.63-1,1.64-.11,0-.19-.22-.27-.29l-.19.18c.09.3.36.41.37.71a5,5,0,0,1-.84,1.55c-.07,0-.16-.14-.16-.22v-.41c0-.26-.36-.85-.45-1.22a1.14,1.14,0,0,0,0,.48c0,.26.21.93.22,1.31s-.22.34,0,.55h.26v.37a.5.5,0,0,1-.49.47.62.62,0,0,0,.53.31c-.06.41-.23.38-.58.39v.3l.46.25c-.11.15-.23.37-.44.42-.45.1-.64.39-.94.48-.45.15-.41.27-.63.5l.11.07c-1.76,1-4,1.8-3.94,4.51,0,1.23,1.1,1.57,1.14,2.77v.19a4.49,4.49,0,0,1,.5,1.48c0,.78-.15,1.49-.79,1.51s-.56-.58-.79-.91c-.47-.59-.86-.76-1.18-1.35-.64-1.17-.25-3.46-1.92-3.42-.34,0-.48.5-.82.51-.69,0-1.13-.83-2-.8-.54,0-.64.32-1,.32-.11,0-.27-.17-.27-.29-.6.17-1.41.12-2,.36.38.1.31.1.53,0,0,.57-.35.91.12,1.19-1.06.55-2-.69-2.77-.67-.23,0-.33.31-.56.32-.42,0-.66-.36-1.07-.35-1.11,0-1.61,1-2.06,1.44-.3.31-.65,0-1,.22a2.44,2.44,0,0,0-1.26,2.46c0,.11.19.25.2.36h-.1l0,.09a1.88,1.88,0,0,1,.17.59,5.67,5.67,0,0,1-.34,1.51l.06,2.08c-.07.3.24.6.32.74.17.33,0,.56.14.89a5.84,5.84,0,0,0,1,1.06c.7.65.71,1.29,1.72,1.56.34.1.35.44.65.43.73,0,1.32-.57,2.08-.59.42,0,.58.21.73.21.3,0,.48-.46.52-.61.13-.45.77-1,.75-1.52,0-1.08,1.22-1.49,2.25-1.51a1.88,1.88,0,0,1,.76.09,7.48,7.48,0,0,0,.88,0v.34c0,.52-.62,1.21-.6,1.92a2,2,0,0,1-.42,1.24v-.26h-.3l0,1.79c0,.37-.45.53-.67.76v.19a.42.42,0,0,0,.47.39c1.25,0,2.27-.29,3.6-.32.92,0,1.16.61,1.85.73l0,.56a4.59,4.59,0,0,1-.22,1.65l.06,2.28c0,.82.83,1.13,1.45,1.41.42.18.44.88,1.09.87,1,0,1.46-.79,2.37-.81,1.06,0,1.56.7,2.18,1.13l-.25.3a1,1,0,0,0,.27-.27c.31.07.2.08.46,0v-.22c0-.07.15-.19.23-.19,0-.38.36-.5.59-.65s.25-.65.32-1c.17-.6.51-.72,1-.88.9-.32,1.51-.49,2.45-.82.49-.16.59-.72,1.08-.73.19,0,.36.4.36.43a.42.42,0,0,1-.37.46,12.3,12.3,0,0,0-.3,1.54c0,.41.24,1.12.66,1.11.15,0,.35-.46.35-.62,0-.44-.48-.69-.49-1.14s.59-.5.93-.73l.91,0c-.17-.44-.73-.24-.74-.69h.66c.17.6,1,.78,1.61.89a.64.64,0,0,0,.47.65l2.06-.06c0,.34.47.4.77.39.57-.09,1-.1,1.17-.55,0-.12.83-.14.94-.22a8.56,8.56,0,0,1,1.07.09.64.64,0,0,1-.57.09v.3c.28.51,1.08.6,1.66.77s.4.7.56,1.18l1.07,0c.74.69,1.08.57,1.56,1.49.08.14.39.21.58.21.29,1,1.89.88,2.92,1l1,0a4.3,4.3,0,0,0,1.27.38v.07H133c.61,0,1.44,1.19,2.09,1.33a8.28,8.28,0,0,0,.74,2c.2.36.7.35.71.72-.59.77-1.68,1.17-1.65,2.29,0,.38.35.33.54.39a1.15,1.15,0,0,1,.67.85l.91,0c0,.11.09.41.2.4s.3-.27.41-.45c.36-.61.8-1.41,1.41-1.42a7.44,7.44,0,0,1,2.58.93c.3.18.65.09.73.39a2.71,2.71,0,0,1,.1.93h.27c.33-.15.48-.42.82-.43.8,0,1,.58,1.73.55l1.44-.23a10.19,10.19,0,0,1,1.81.55,5.75,5.75,0,0,0,2.18,1.74c.53.13.87-.1,1.4,0C152.82,137,153,137.79,153.05,138.57Zm-50.7-55.14c0,.13.14.2.21.31l-.14-.23c.27,0,.27-.05.46-.06,1.1,0,3.54.27,3.51-1.13l.08-.07-.08.07a15.9,15.9,0,0,0-3.56.8C102.72,83.16,102.34,83.25,102.35,83.43Zm-.11,1.27.59-.31h0Zm-.93-.12a2.12,2.12,0,0,0-1.44.34c-.15.15-.18.38-.52.39s-.46-.25-.58-.44c0,.37.18.94.56.93a8.89,8.89,0,0,0,2.9-1.09C102,84.82,101.81,84.57,101.31,84.58Zm-9.65-7.37a7.68,7.68,0,0,0-2.79,2.23l.57,0a3,3,0,0,1,.68-.28c.16.34.28.37.58.36.65,0,.67-.5,1-.51s1.08-.74,1.65-.87c0,.52-.25.64-.4.95l.76,0a.66.66,0,0,0,.66.43c.5,0,.64-.39,1.06-.4.91,0,1.38.45,2.18.43v.44a5,5,0,0,1-1.71,0c-.84,0-2.33,1.11-2.39,1.86.38-.23.52-.54.91-.55A7.34,7.34,0,0,0,93.6,85a.86.86,0,0,0,.89.72c.57,0,.73-1.14.72-1.62l0-1.2c0-.47-.06-1.59.36-1.63,1.39-.12.72-1,1.35-1,.3,0,1.73.63,1.74,1.07s-.28.87-.38,1.39c.46,0,.38-.15.76-.28.17.6.17.86.56,1.14h0c.53,0,.83-1.81,1-2.41.16.15.63.62,1.08.6.23,0,.38-.19.37-.46,0-.55-.59-.91-1.06-1.2l-1,0c-1-.57-2.14-.35-3-1.18-.31-.29-.09-.67-.33-1.12a9.63,9.63,0,0,0-1.94-1.36h-.31a1.17,1.17,0,0,1,0,.52c-.16-.14-.48-.81-.94-.79s-.21.6-.58.8A2.33,2.33,0,0,1,91.66,77.21ZM40.33,62c-.24.29-.33.73-.73.74a1.57,1.57,0,0,1-1-.39,1.57,1.57,0,0,0,1,.39C40,62.69,40.09,62.25,40.33,62Zm3,1.4c-.59-.65-1.12-1.08-1.92-1.83h0C42.16,62.28,42.69,62.71,43.28,63.36Zm2.17,3a.4.4,0,0,0,.18.1.4.4,0,0,1-.18-.1,3.5,3.5,0,0,1-.8-1.4c-.1-.29-.36-.38-.47-.5.11.12.36.21.47.5A3.5,3.5,0,0,0,45.45,66.38Zm.18.11a2.85,2.85,0,0,1,.63.19A2.85,2.85,0,0,0,45.63,66.49Zm59,39c0,.3,0,.71.4.7.07,0,.19-.12.19-.19a.49.49,0,0,0-.44-.52S104.63,105.46,104.63,105.5Zm-.1-2.12a.68.68,0,0,0-.52.31,9.11,9.11,0,0,0,1,0A.53.53,0,0,0,104.53,103.38Zm1.2.41c0,.11.08.34.19.29Zm4.76,5.8v-.33a.73.73,0,0,1-.75.35v.23s.11,0,.15,0A.88.88,0,0,0,110.49,109.59ZM45,69.27c.19,0,.3-.12.29-.39,0-.82-1-.9-1-1.91-.81-.13-1-.12-1,.78.45-.32.22-.12.83,0-.1.19,0,.49,0,.75C44.22,68.51,44.66,69.28,45,69.27Zm-2.84-3.66c-.08,0-.38.12-.38,0-.21-.59,0-.6-.05-1.56-.52.31-.19,0-.87,0-.15,0-.45.09-.45.39a1.18,1.18,0,0,0,1.06,1.09A1.9,1.9,0,0,0,42.12,67C42.49,66.65,42.1,66.14,42.16,65.61ZM76.76,43.2c.68,0,.84.12,1.51-.34-.74-.54-4-1.27-4-2.46,0-1-1.08-1.81-1.11-3.15,0-.33.81-.69.8-1.25s-.67-.8-1.36-.78-1.13.29-1.12.66a1.14,1.14,0,0,0,.05.37c-.6.32-.38,0-1.07,0-.3,0-.68.21-.67.51a10.36,10.36,0,0,0,1,2.55c-.19.15-.18.3-.49.31-.68,0-.44-.92-.68-1.36a2.16,2.16,0,0,0-1.29-1l-.83,0a2.57,2.57,0,0,1,.21.66c-.42.13-.72.21-1.14.3a1.57,1.57,0,0,0-1.74-1.07c-.61,0-.86.51-1.16.7-.16-.22-.15-1.3-.69-1.29-1.37,0-4.79,1.48-4.74,3.31a1.66,1.66,0,0,0,1.16.71,4.28,4.28,0,0,1,1.34,0c-.42.27-1.53,0-1.51.83,0,1,2.12.61,3,.59l2-.06a2,2,0,0,1,1,.35c-.46.05-.68.09-1.25.11a6,6,0,0,0-3.67,1A2.45,2.45,0,0,0,62,44.65c.53,0,1.67-.16,2.09.13s.07.93.71.91l3.42-.09C69,45,70,45.29,71,44.78c.57-.28.29-.68,1-.7,1.11,0,1.67,1.07,3.16,1,1,0,1.82,0,2.15-.73a.74.74,0,0,1-.4-.51c-.15,0-.57,0-.58-.28S76.45,43.21,76.76,43.2Zm-24.07-3c.12.19.4.74.59.74s.31.36.58.35,2.9-1,2.9-1.31c0-.86,1.6-2.47,2.77-2.88.38-.12,2.39-.47,2.38-.88,0-.86-1.91-1.55-2.71-1.53-.49,0-.94.47-1.29.15-.84-.06-1.23-.49-2.07-.69s-1.06.29-1.52.3c-.91,0-1.34-.34-2.28.06.05.41.59,1,.6,1.29,0,1.35-1.83,2.44-1.8,3.71C50.85,40,52.37,39.84,52.69,40.24Zm8.73-10.43a4.56,4.56,0,0,1,1.26,0,.66.66,0,0,1,.66.54l.88,0c1.14,0,2,1.36,3.65,1.32.49,0,.68-.17.82-.51a1.85,1.85,0,0,1-.76-.09.56.56,0,0,1,.38-.16l0-.49c-.27,0-1-.2-1-.53,0-.6,1-.92,1.33-1.23a1.32,1.32,0,0,0,.73.24,1.37,1.37,0,0,0,0,.48,1.63,1.63,0,0,0,1.48,1.34c.34,0,.52-.46,1-.47a1,1,0,0,1,.9.91,3,3,0,0,1-1.2,1.78c-.23.08-2.48-.11-2.48,0s-2.42.67-2.53.71a6.5,6.5,0,0,1-2.45.63c-.46,0-1.08-.31-1.09-.53,0-.56.56-.46,1.06-.48-.24-.29-.59-.47-.67-.84a.52.52,0,0,0-.41.5c-.64.09-1.13.29-1.59.3s-1.07-.23-1.34-.22a.57.57,0,0,1-.58-.55c0-.37.14-.29,0-.55.38-.09.56-.39.94-.4a1.84,1.84,0,0,1,.42,0l-.42-.15,0-.55a3,3,0,0,1,.65,0l.21,0a1.42,1.42,0,0,1-.4-.17,1,1,0,0,1,.74-.43h.1A.44.44,0,0,1,61.42,29.81Zm.78,1.09.59.07Zm-4.61.81c0,.26.36.44.66.43.5,0,1-.81,1.11-1.34C59,30.78,57.58,31.12,57.59,31.71Zm5.27-2.38.84,0,0-.48-1.33,0A.5.5,0,0,0,62.86,29.33Zm-8.07,1.6c.38,0,.62.21,1.07,0,.08.15.35.55.66.54a.93.93,0,0,0,.78-.84,1.27,1.27,0,0,0,1.26-1.19c.34.17.33,1,1,1l1.6-1.24c0-.3-.27-.37-.32-.74a.67.67,0,0,0,.47-.61c0-.67-2.28,0-2.28,0a4.29,4.29,0,0,0-.69-.06c-1.06,0-1.23,1-1.94,1.44s-1.2.48-1.8.79a4,4,0,0,0-.82.7c0,.11.31.29.39.55C54.46,31.2,54.56,30.94,54.79,30.93ZM65.5,25.71l1.64-.05a2.05,2.05,0,0,0,1-.4,1.64,1.64,0,0,0-1.62-.89c-.5,0-2.75.9-2.74,1.39.3-.05.45-.31.75-.32S65,25.72,65.5,25.71Zm1.53.14c-.8,0-3.12.16-3.1,1a1.43,1.43,0,0,0,1.25,1c.83,0,2.08-.39,2-1.17l-1.06,0a2.77,2.77,0,0,0,1.62-.49A.76.76,0,0,0,67,25.85Zm-4.16,1.31c.27,0,.38-.23.52-.46-.23-.11-1.32-1-1.29-.08C62.1,26.81,62.53,27.17,62.87,27.16ZM82.08,37.38c0-.37.11,0,.1-.56s-1.11,0-1.41,0c.25-.34,1.2-.67,1.18-1.41,0-.19-.28-.37-.39-.37l-1.52,0c-.84,0-1.68-.1-2.28.52,0,.11-.26.19-.25.3,0,.49.73.39,1.23.45l0,1-.57,0c-.64,0-1.23-.42-1.72-.4l0,.63c1.13,1,2.31.87,3.4,1.88.24.22.32.63.85.61.34,0,.41-.45.75-.58,1.2-.48,1.34.06,1.47-2C82.73,37.47,82.23,37.41,82.08,37.38Zm-7.73-8.3-.46,0a.85.85,0,0,0,.15.44L74,29.47l0,.67c.31.22.58.47,1,.35l.12.36h.57a.46.46,0,0,0,.47.43c.76,0,2.08-.43,2.77-.45a.9.9,0,0,1,.46.11c-.22.23-.95.25-.94.58a.67.67,0,0,0,0,.37.44.44,0,0,0-.25.38c0,.34,1,.16,1.22.16a5.74,5.74,0,0,0,1.52-.23c-.19-1,.26-1.51.24-2.36,0-.56-.11-.93-.79-.91-.3,0-.45.31-.75.32-.72,0-1.12-.34-1.72-.33a1.47,1.47,0,0,0-.69.06c.17.52.7.5,1.35.48l0,.82c-.95,0-1.28-.78-2.12-.76l0,.45a3.18,3.18,0,0,0,.77.61C76.07,30.94,75.45,29.05,74.35,29.08Zm6.32,15.13c-.15,0-.84-.09-.83.21a15.52,15.52,0,0,0,3.33,1c.42,0,.57-.39.94-.62A5,5,0,0,0,81.7,43C80.94,43,81.12,44.05,80.67,44.21Zm4.86-10.1a1,1,0,0,0-1,.59c0,.11-.06.34,0,.37l-.87,0,0,.63c.29.74,0,1.19.66,1.78a9.23,9.23,0,0,0,0,1.11l.76,0c.44-.45.75-.58.84-1.25h-.49c.2-.75.22-.26,1.06-.29,1.14,0,1.65-.86,2.12-1.55,0,0,.68-.5.67-.58a1.92,1.92,0,0,1,0-.48C87.9,34.5,86.82,34.08,85.53,34.11ZM73.37,28a.54.54,0,0,0,.52-.46c-.81-.24-.91-1-1.9-1C72,27,73,28,73.37,28Zm-.07,4.56a5,5,0,0,1,.76,0c.23,0,.57-.06.56-.51,0-.26-.2-.36-.28-.55C73.81,31.71,73.43,31.91,73.3,32.55Zm-.24-8.92a.7.7,0,0,1-.26.38c.31.22.49,0,1.33,0a.51.51,0,0,0,0,.45c-.45.16-.79.13-1.12.48.35.32.5.28,1,.26s1.06-.21,1.26.12a15.34,15.34,0,0,1,1.79.1c.88,0,.83.91,1.74.88.3,0,.68-.13.67-.5s-.78-.69-1.09-1c.07-.11.22-.27.29-.38-.19-.18-.63-.84-1.16-.83-.23,0-.34.31-.56.32-.42,0-.41-.85-1.17-.83-.3,0-.45.31-.75.32-.46,0-.67-.65-1.47-.63a7.66,7.66,0,0,0-1.2.33C72.41,23.54,72.52,23.65,73.06,23.63Zm3.22,2.23c-.15,0-1,.59-.33.57s1,0,1.21-.3C76.82,26,76.7,25.85,76.28,25.86Zm14.46,6.8h.46c-.06.64,1.12.71,1.92.51l3-.09c.34-.23.41-.42.94-.51a.72.72,0,0,0,.77.54c1.34,0,3-.08,3.13-1.39a1.31,1.31,0,0,1-.5,0,1,1,0,0,1,.18-.35,1,1,0,0,0,.3-.07c-.56-1-1.55-1-3.07-1-2,.06-2.64,1-4.73,1.06A10.26,10.26,0,0,1,90.54,31c-.14.11-.6.35-.61-.17,0-.11.19-.12.26-.2-.54-.39-1.48.2-1.73-.8L90,29.77c-.36-.47-2.1-.2-1.82-1.07l-.69,0c-.14.23-.37.31-.75.32-1.29,0-1.63-1.26-3.35-1.21-.45,0-1.14,0-1.12.59,0,.33,2.36,1.24,2.77,1.23a1.09,1.09,0,0,0,.75-.39c.67.61.87,1.2,1.58,1.85-.15.08-.45.35-.44.61,0,.75,2,1.63,2.78,1.61A2,2,0,0,0,90.74,32.66Zm-4.89-.61c0-.48-.94-1.2-1.63-1.18-.87,0-.7.87-1.12.88a.66.66,0,0,0-.48.58,25.88,25.88,0,0,0,2.5.94C85.66,33.25,85.87,32.68,85.85,32.05Zm0-5.41,0-.48c-.37.08-.07,0-.49,0a5,5,0,0,0-2.46.51s2.22.35,2.41.35S85.82,26.83,85.82,26.64Zm-4-1.19c-.12,0-.38.19-.37.38,0,.45,1.34.26,2.66-.07a2.78,2.78,0,0,1,0-.94c0-.78-1.33.08-1.35-.82-.42,0-1.23-.23-1.35-.52-.38.05-.87.21-.86.58C80.52,24.81,81.32,25,81.79,25.45Zm-2-3.68.65,0,0-.74c-.27,0-.84,0-1.34,0C79.09,21.49,79.55,21.55,79.78,21.77Zm4.81-.88a2.6,2.6,0,0,1-1.15-.34l-.57,0c.14,1.07.95,1.16,2.24,1.13-.22.3-.49.35-.86.51,0,.22,0,.37.31.36s.42-.16.79-.32c.12.22.17.48.55.47s.56-.31,1.13-.33a5.43,5.43,0,0,1,1.57.26c-.53.12-2.89.11-2.87.82s1.09.9,1.74.89a.79.79,0,0,1-.49.27c.09.52.93.65,1.54.63s.91-.21.89-.88c.35.21,1,.68,1.39.63l0-.49h.69c-.12-.3-.28-.37-.52-.74.19-.19.26-.38.45-.57.12.41.13.75.62.73s1-1.15,1.76-1.24c.3-.05.72,0,.87-.21s0-.3,0-.56c-.5,0-1.5-.45-1.88-.44-.07,0-.63.36-.64,0s.26-.31.25-.56-.47-.29-.47-.55c0-.45,0-.64-.52-.62H91l.2.26,0,.48h-.46c-.36-.32-.14-.81-.72-1s-.94.17-1.52,0-.49-1.29-1.26-1.57a8.74,8.74,0,0,0-2.41-.34c.05.52.7.54,1.16.75l-.64,0a1.7,1.7,0,0,0-1.44.38s.36.58.51.58.68-.24,1.07,0c-.11.12-.18.38-.41.38s-.5-.24-1-.23c-.34,0-.87,0-.86.4s1.2.64,1.7.77C84.93,20.58,84.74,20.89,84.59,20.89ZM99.36,52.58c-.19-.15-.08-.41-.28-.66-.71-.88-1.92-.47-2.74-1.42a1,1,0,0,0-.34.31,5.74,5.74,0,0,1-.6-1c-1.06.14-1.21,1.63-1.19,2.27v.56c0,.22-.18.34-.36.49s-.53.13-.55.76a4.67,4.67,0,0,1,1.63,0c-.06.37-.17.75.29.74.19,0,.19-.12.29-.31.54.21,1.78-.61,1.76-1.43.22.07,1.47.89,1.47.89l1,0a2.26,2.26,0,0,0,1.25-.45C100.67,52.8,100,53,99.36,52.58Zm7.06-6.35c0-1.23-2.4-1.43-2.36.06a.89.89,0,0,0,1,.8C105.49,47.07,106.44,46.71,106.42,46.23Zm-8.33,8.51c0,.22-.52.57-.81.95v.49a3.85,3.85,0,0,0,1.87-1.32C98.69,54.69,98.85,54.68,98.09,54.74Zm3.61-18.09c.65,0,1-.4,1.4-.41s.65.24,1.15.23a.76.76,0,0,0,.67-.62c-.7-.31-1.59-1.11-2.62-1.08-.8,0-1.07-.27-1.91-.25a.59.59,0,0,0-.63.58c0,.41.43.59.78.77C100.29,36.5,100.94,36.67,101.7,36.65Zm-.32,20.16c.38,0,.45-.53.67-.84-.4-.43-1.27-.37-1.25.3A4.39,4.39,0,0,0,101.38,56.81Zm6.67-10.89c-.12-.14-.44-.59-.78-.58-.08,0-.49.28-.48.39s.23.29.5.28A1.83,1.83,0,0,0,108.05,45.92Zm-5.4-2.61c-.46,0-1.31.89-.86.88A1,1,0,0,0,102.65,43.31Zm8.08-3.66c.1-.64-.86-.72-1.27-.71l-1,0c-1.25,0-1.55-1.22-2.4-1.79a7.49,7.49,0,0,0-2.87-.48c-.69,0-.85,1-1.5,1-.34,0-.47-.36-.89-.35s-.52.39-.75.39,0-.59,0-.74c0-.82-.59-2.11-1.57-2.08-1.53,0-4.07.56-4,2,0,.37.4.63.41,1s-.51.76-.74.77c-.45,0-.39-.33-.39-.63a1.76,1.76,0,0,1,0-.67c-.19,0-.31-.14-.32-.36,0-1.09,1.22-1.2,1.58-2,0,0-1.26-.34-1.26-.34a4.33,4.33,0,0,0-3,1.47c-.15.15.06.82-.24,1-.55.42-.74.65-.71,1.7,0,.33.6,1,.6,1a9,9,0,0,1,2.1.32l0,.48a3.93,3.93,0,0,0-1.72-.07c.09.52.66.58.87,1.1l1.82-.05a2.28,2.28,0,0,0,1.16.72c1.72-.05,4.61-.25,5.79-.16,0,.25-.17.86.32.84.69,0,1.26-1.45,1.76-1.46a12.9,12.9,0,0,1,2.87,2c-.23,0-.91.14-.9.51,0,.07.16.44.31.44.5,0,.71-.47,1.21-.48.8,0,3.28,1.74,3.31,2.71,0,.52-.76,1.36-1.09,1.7s-1,0-.94.59c0,.3.51.66.71.76a4.16,4.16,0,0,1-1.7.57l-1.64.05c-.53,0-1.5.68-1.49,1,0,.52,1.24,1,1.66,1s.67-.58,1.13-.59.27.25.65.24.57-.32.75-.58a22.84,22.84,0,0,0,3,1.78c-.62,1.21,1.66,1.12,2.59,1.61s1.69.29,2.8.78c.12,0,.2.44.4.44a.45.45,0,0,0,.36-.46c0-1-2.18-1.77-2.85-2.53l.58,0a9.68,9.68,0,0,0,3.58,1.4,7.33,7.33,0,0,0,.52-1.51c0-.41-.7-.58-.71-.84a2.1,2.1,0,0,1,0-.75l-.64,0c-.1-.63-.35-.18-1.08-.42a2.37,2.37,0,0,1-.88-1.39h-.49l0-.56a.61.61,0,0,0,.57,0V48.6a.82.82,0,0,1-.76-.05s.52-.43.75-.43c1.82-.06,2,2.48,3.87,2.43.42,0,.48-.65.47-1.06.72,0,.83-.36.82-.47a1.57,1.57,0,0,0,0-.49c.49,0,1.14-.18,1.12-.66s-.32-.85-1-.83a1,1,0,0,1-.69-.17c-.32-.7-.49-.17-1.33-.15-.58,0-.78-.61-.88-1.28-.8,0-1.83-.4-1.94-1.26a1.89,1.89,0,0,1-1.07-.26c.33-.57.63-.58,1.23-.9a.63.63,0,0,0-.58-.31,9,9,0,0,1-1.14-.05c.29-.46.79-.43,1.32-.56-.25-.51-.56-.88-1.09-.86h-.65l0-.63C112.36,40.54,111.77,40,110.73,39.65ZM103,53.93c.38.29.5.29.87,0C103.43,53.7,103.38,53.44,103,53.93Zm-6.48-4.37c0,.26.28.55.78.57C97,49.81,97,49.32,96.54,49.56ZM88.66,16.67l1.14,0a2.34,2.34,0,0,0-1,.66,2,2,0,0,0,.69.28c.72,0,.74-.69,1.5-.71a2.6,2.6,0,0,1,.77.06c-1,.32-1.94.24-2.33,1.22.3,0,1.06,0,1.79,0a1.89,1.89,0,0,0-1,.43,3.46,3.46,0,0,0,2.12.73,1.39,1.39,0,0,0,.82-.4h.5c-.22.49.78.73,1.54.7.31,0,.44-.38.75-.39s.62.28,1.34.26a4.35,4.35,0,0,0,2.83-.93l.57,0a4.17,4.17,0,0,1-1.8,1.09l-1.9.06c-.07.11-.26.23-.26.38s1.25.93,1.44,1.11c-1.06.15-1.43-.92-2.39-1.2a6.51,6.51,0,0,0-2,0,1.56,1.56,0,0,0-.57,0c.09.3.16.44.58.43-.38,0-.95,0-.94.33,0,.67,2.61.59,2.64,1.79,0,1-1.12.74-2.07,1.06-.56.2-.82.62-1.1,1.27v.44h.57a.87.87,0,0,1,.37-.27l.58,0c0,.89,1.21,1.31,1.76,1.82h-.69c-.73-.39-1.17-1-2.38-1-.38,0-1-.13-.95.4s.82.76,1.29,1.08c-.78.58-2.78.08-2.73,1.57a.35.35,0,0,0,.38.29c.19,0,.34-.2.45-.39a12.05,12.05,0,0,0,3.63.65c.58,0,.79-.4,1.13-.41l2.86-.08c.76,0,.4.55,1.27.53s3-.76,3-1.39c0-.34-.47-.29-.58-.28l-1,0c0-1.27,1.58-.6,1.55-1.79,0-.23-.2-.3-.29-.56l1.91-.05c.63-.46.87-1.37,1.66-1.76-.24-.52-.66-.66-1.13-.87.73.06,1.19.12,1.09-.7l-1.07,0a7.8,7.8,0,0,1,2.38-.89c.6-.2,1.45.22,2-.16,1.12-.85,2-2.37,3.46-2.89s3.48-1.07,4.33-1.95c-1,0-2.47.32-2.86,0,2-1,3.87-.4,5.36-1.57.27-.19,1-.09.94-.58,0-.67-2-.43-2.5-.87-.23-.21-.24-.51-.66-.61a2.93,2.93,0,0,1-.7-.28l-3,.94a1.18,1.18,0,0,0,.68-.43c-.78-.72-4.05-.52-5-.49l-1.06,0c-.35,0-.58-.24-1.15-.22s-.67.65-1.2.66-.77-.42-1.46-.4a.52.52,0,0,0-.45.27l-4.37.12a.87.87,0,0,0-.86.51c-.49.42-.12.08-.76.09-1.1,0-1.54.83-1.86,1.73a10.76,10.76,0,0,0-2.57-.74c-.8,0-.28.82-1.5.86a.32.32,0,0,1-.29.31l-.84,0c-1.1,0-3.56.54-3.77,1.48l.84,0A2.63,2.63,0,0,1,88.66,16.67Zm75,23.24c-.81-.24-4.19,0-4.22-1.12.19,0,.83-.17.82-.51s-.39-.4-.4-.92c.19.11.38,0,.57,0,1.56,0,1.23,1.84,3,1.79.41,0,1-.07,1-.48-.06-2.13-2.51-2.69-3.92-4V34.1a2.3,2.3,0,0,0,.49,0,3,3,0,0,0,2.14,1.62c.46,0,.56-.61.54-1.06,0-1-1.73-.62-2.14-1.62h.58a3.57,3.57,0,0,0,1.16.83c.28-.8,1.82-.35,2-1.48a.62.62,0,0,1-.39-.55,2,2,0,0,0,1.68-1c-.46-.14-1.52-.08-1.54-.71s.59-.5,1.2-.52c-.19-.21,0-.52,0-.82,0-.55-.59-.76-.61-1.58-.54,0-1.22,0-1.24-.61,0-.26.33-.57.75-.58.68,0,2.67.26,2.65-.63s-1.51-.67-1.68-1.26a1.5,1.5,0,0,0,.68-.24,2.66,2.66,0,0,0-1.54-.67c-.42,0-.72.21-1.14,0,.22-.38.15-1.27.6-1.62.71-.54,1.5-.82,1.48-1.61a2.9,2.9,0,0,0,0-.55c.72-.21,1.7-.39,1.69-1,0-.37.27,0,0-.48.69-.17,1.71-.2,1.68-1.24-.29.23-.33.23-.79,0,1.71-.05,2.48-1.15,3.72-1.59.23-.09.94-.44.93-.89S171.6,13,171.1,13s-.65,0-.75.5l-1.82,0a12.29,12.29,0,0,1-1.39.79,4.68,4.68,0,0,1-.88-.09l-2.55.07c-.59.47-2.45,3-3.43,3.27.1-.38,2.49-3,2.48-3.31,0-.57-.3-1.11-1-1.1-1.26,0-3.47,2.23-4.42,2.25-.3,0,1.31-1.6,1.38-1.9-.69-.24-7.05.67-7.71.21l8.34-.68c1-.4,3.61-.28,3.77-1.6-1-.19-2.28.1-3.32-.27-1.81-.7-3.52-2.07-5.77-2l-5.51.15c-1.94,0-3.4,1.14-5.22,1.19a11.13,11.13,0,0,0-1.53,0l0,.45-.76,0a6.26,6.26,0,0,0-2.37-.2,7.18,7.18,0,0,0-3.21.84c.2.26.5.29.77.54-.34.08-1.52-.07-1.51.48,0,.71,1.6,1.16,2.21,1.44l-1.71,0c-1-.41-1.9-1.25-3.46-1.2-.38,0-1,.06-.93.51,0,.3.2.51.32.81h-.57c-.77-.27-1.41-.18-1.85-.88l-.37.39c0,.26.2.47.21.74-.72,0-1-1.1-1.63-1.08-1,0-1.77.65-2.83.94a24.55,24.55,0,0,0-3.52.65c-1.21.19-.14,1.88-1.47,1.91a1.53,1.53,0,0,1-1-.27,11.09,11.09,0,0,1-3.71,2.15c-.19.05-.75.25-.74.59,0,.7,2.18.61,2.87.67a2.19,2.19,0,0,1-1,2c-.82.51-2.21,0-3.23.35-.72.24-1.12.66-1.8.91s-2.18-.09-2.14,1.06c0,.6,3.69,1.5,3.84,1.5l1.34,0c.19,0,.3-.19.37-.38l1.52,0c-.1.41-.1.56-.47.83l-2.17.06c-.18.27-.3.31-.68.32l-1,0c-.3,0-1.06.25-1.12.77.73.25.49,0,1.33,0,.46,0,.93.38,1.54.59-.14.34-.41.38-.74.62a3.67,3.67,0,0,0,2.49.82c.31,0,.27.11.5-.12a1.23,1.23,0,0,1-.39-.29,1.65,1.65,0,0,1,.75-.17c.46,0,.81.28,1.15.27.5,0,.71-.51,1.21-.52l1.14,0c4.26-.12,7,3,8.17,6.23v.56c.35,0,.95,0,1,.61,0,.85-.81.8-.79,1.62,0,.56.36.63,1,.61.5,0,.59-.65.93-.66,1.26,0,1.65,1.7,2.84,2,0,.23,0,.57-.36.58-.92,0-1.5-.52-2.3-.5-.35,0-.31-.14-.69,0,.18,1,3,1.15,4.16,1.49-.32,1-.88,1.44-1.07,2.56-.55-.2-.54-.17-1.07.11V44A8.47,8.47,0,0,0,129.45,46l0,.86a.61.61,0,0,1,.76,0c-.1.37-.36.56-.35.94,0,1,1.07,1.39,1.31,2.09a5.5,5.5,0,0,0,.42,1.22c.65.31.82-.62,1.41.07-.26.27-.57.24-.55.72,0,1.09,1.52,2.73,2.3,3.3.11.07,0,.6.28.74.62.43,1,.16,1.29,1,.45,0,1-.52,1.58-.53,1,0,.92,1.66,1.88,1.63.22,0,.29-.23.75-.28a.46.46,0,0,0,.47.36c1,0,.51-2,1.38-2.39a17.93,17.93,0,0,1-.06-2c0-1.09,1.76-.73,1.73-2,0-.41-.47-.59-.48-.85s.15-.3.25-.45-.08-.26-.08-.37c0-1.23,2-.95,2.81-1.76.33-.34.17-.72.73-.95l0,.74h.57c.79-.58,2.08-.44,2.82-1.2.56-.57.58-1.32,1.28-1.9l.94-.7c0-.3.37-.42.74-.65l1.79,0c1.43-.64,2.53-.56,3.89-1,1.1-.37,1.45-1.43,2.69-1.87A4.29,4.29,0,0,0,163.66,39.91ZM129.09,42.5l.83,0c.65,0,1.44-.15,1.5-.79-1-.27-1.33-1.27-2.32-1.24a.76.76,0,0,0-.81.77C128.3,41.66,128.74,42.47,129.09,42.5Zm-.8,29.21c0-.15-.12-.37-.27-.37-.61,0-.83.66-1.11,1.15-.55.88-.93,2.57-2,3.12a.33.33,0,0,0,.3.18V76s-.67.58-.66.72.2.38.39.37c.45,0,.6-.24,1.17-.25.42,0,.65.24,1.15.22a1.91,1.91,0,0,0,.75-.2c.2.36.69.13,1.07.12-.1.22-.41.23-.4.6,0,.08.15,0,.23,0,.45,0,.78-.58,1.08-1,.31.29.1,1,.4,1,.12,0,.2.07.31.06,0,.15.09.45.36.44s.59-.46.58-.91-.28-.33-.29-.78c-.22.15-.11.23-.49.24,0-.26-.28-.4-.28-.59s.33-.23.36-.57a.69.69,0,0,0-.41.12c0-.56,0-.89,0-1.23a1.78,1.78,0,0,1-1.1,0l-.45.16v-.18l-.68,0V74l.18-.19a.79.79,0,0,0-.61-.17c-.27,0-.26.23-.56.31v-.33C127.53,73,128.32,72.53,128.29,71.71ZM100.81,70.6s.19,0,.19,0c0-.53-.66-.62-1.31-.6a.3.3,0,0,1,0,.26A1.83,1.83,0,0,0,100.81,70.6ZM51.53,76.74c.62.36,2,1.32,2.85,1.3h.34v-.34a8.4,8.4,0,0,0-3.6-2.28c-.27-.07-.62-.51-1-.5a1.36,1.36,0,0,0-.53.2h.15s.39.1.58.13a.75.75,0,0,1-.37.35c.16.44,1.24.79,2,.76C51.79,76.47,51.6,76.48,51.53,76.74Zm-5.85-4.91c0-.19-.2-.26-.2-.45a3,3,0,0,0,0-.82c-.07.19-.22.49-.48.5s.21-.42.21-.45c-.34,0-.54-.25-.88-.24v.3c.17.22.33.66.48.65s.32.41.63.47c0,.08-.15.2-.15.42s.25.7.55.69-.32-.55-.32-.7S45.68,72,45.68,71.83ZM20.92,65.94v.45a8.25,8.25,0,0,1,.82.46,7.54,7.54,0,0,1,1.45-1.09v-.44h-.46A6.45,6.45,0,0,0,20.92,65.94Zm100.76,9c-.81-.42-1.56-1.11-2.73-.81a5.46,5.46,0,0,0,2.2,1.05C121.46,75.14,121.57,75.1,121.68,74.91Zm-2.27,3.2a.31.31,0,0,0-.15.27c0,.26,1.44.93,1.7.92.08,0,.45-.2.45-.42v-.23l-1.14,0A1,1,0,0,1,119.41,78.11Zm4.41,1.11V79c-.88,0-.31-.21-.32-.55,0-.15-.2-.22-.28-.37a2.37,2.37,0,0,0-.84,1.3c0,.22.24.4.62.39S123.82,79.48,123.82,79.22ZM8.36,61.81c-.3,0-.42-.06-.56.27l-.57,0c.08.14.31.25.46.36l1.26,0C8.86,62.05,8.82,61.8,8.36,61.81Z"/><path class="cls-2" d="M149.89,138l-11.73-3.46.36,0h0a.2.2,0,0,0,.2-.18.2.2,0,0,0-.18-.22l-1.76-.18-10.43-7.76h0l0,0L116,121.71a.19.19,0,0,0-.21,0l-.9.84-16.55-.37s0,0,0,0l-.65-.17L92.11,110.5a.25.25,0,0,0-.18-.12l-9.49-.09,12.9-9.49h0l0,0L105,91.93l9.35-10s0,0,0-.08l5.88-19.63A.2.2,0,0,0,120,62l-.27.1a.27.27,0,0,0-.07-.08l-14.82-7h0s0,0-.07,0h-.07l-.06.06s0,0,0,0,0,0,0,0v0l-4.1,13.27v0l-16.93-8.6-4.28-9.24h0a0,0,0,0,1,0,0l-.06,0s0,0,0,0l-17.8-5.79h-.05L14.53,41.92a.19.19,0,0,0-.2.12l-.29.71,0,0a.21.21,0,0,0-.29,0,.2.2,0,0,0,0,.28l.15.16-5.75,14h0l-.29.7a.23.23,0,0,0,0,.18.21.21,0,0,0,.14.1l26.36,5.17,11.1,7.63a.21.21,0,0,0,0,.24.22.22,0,0,0,.13,0,.2.2,0,0,0,.15-.06l.34.24,6,13.32h0l6.62,12.6,0,0,14.87,15h0l-.22,0a.2.2,0,0,0-.16.23.2.2,0,0,0,.2.17h0l.76-.15,15.32,7,.75.87,0,0,.05,0,1.23.32,9.08,15.86a.19.19,0,0,0,.17.1H101l4.1,11.38a.16.16,0,0,0,.07.09l7.72,5.91.21,7.59a.2.2,0,0,0-.12.2.2.2,0,0,0,.13.14v.21l-.6,6.61L110,177.27s0,0,0,.06v.76a.2.2,0,0,0-.2,0,.2.2,0,0,0-.05.28l.26.4.14,15.29h0l-.69.51a.22.22,0,0,0,0,.29.23.23,0,0,0,.17.08.19.19,0,0,0,.12,0l7.42-5.48,11.49-13.12,8.64-13.82,10.41-12.67,0,0a0,0,0,0,0,0,0h0s0,0,0,0L150,138.19A.21.21,0,0,0,149.89,138Zm-36.64,16.18,3.58-10.52,9.06,15.81h0l-12.43,2.27Zm13-27.56,9.79,7.29-21.55-2.17ZM114,131.9a.14.14,0,0,0,0,.06l-.06,0Zm22.66,2.43.08.07-7.06,8.1-15.5-10.43Zm-7,8.8a.19.19,0,0,0-.1.13L126,158.77l-8.86-15.45,12.44-.35Zm-2.77,16.11-.59.11,3.57-15.66,7,18.65-.13.2L127,159.59a.21.21,0,0,0,.09-.19A.2.2,0,0,0,126.85,159.24Zm3.2-16.12,17.11,6.66-10,12.18Zm.11-.39-.12,0,7.06-8.09,11.5,3.4-18.31,4.56A.2.2,0,0,0,130.16,142.73Zm-14.23-20.6,9.82,4.21-11.92,5.19,2.28-8.66a.23.23,0,0,0,0-.18.28.28,0,0,0-.15-.08h-.49ZM101.1,136,115,123h.65l-2.29,8.72-12.16,4.56Zm-.21-.36-2.88-13,16.42.37Zm-10.2-15.51.29.13-.3-.08Zm1,.07a.27.27,0,0,0-.1-.08l-.88-.41,1.35-8.32,5,10.47-5.2-1.36Zm.07-9.43.07.16a.19.19,0,0,0-.13.14l-1.37,8.47-.58-.27-7.49-8.57h0a0,0,0,0,0,0,0Zm-9.87-.63-7-18.9,19.9,9.4ZM59,97l-6.3-12,.06,0L74.29,91ZM41.14,52.68,23.69,51.56l34.75-6.18Zm.75.25a.14.14,0,0,0,0-.11l18-7.58-6.1,15.67-12-7.79A.2.2,0,0,0,41.89,52.93ZM63.41,71.35l-9.2-10L69.59,58Zm6.52-13.08,7,17.36-13.16-4Zm-6.4,13.67,13.58,4.17.22.56-24.6,7.85-.1,0Zm48.62,8.73L79.26,76.41l21.59-7.36Zm-7,10.54L78.76,76.75l33.84,4.38.94,1,0,0Zm-30.68-.59-21-5.9L77.33,77.1Zm.72,0-.29.12,0,0,3-13.9h0l16.81,23.26L75.33,91a.19.19,0,0,0,.08-.22A.2.2,0,0,0,75.15,90.66Zm20.11,9.66L78.42,77l26.4,14.49-.12.13ZM114,81.67l-.17.18s0,0,0,0l-.59-.6.39,0h0a.2.2,0,0,0,.2-.18.2.2,0,0,0-.18-.22l-.89-.12L101.27,68.9l18.49-6.44ZM100.86,68.46l4-13,14.36,6.81-18.32,6.37-.12,0S100.85,68.49,100.86,68.46ZM83.29,60.1l17.09,8.68-21.69,7.4-.6-.19,5.25-15.53a.2.2,0,0,0-.13-.25.19.19,0,0,0-.25.13L77.7,75.87l-.29-.09-7.22-18L79,50.93,83.2,60A.22.22,0,0,0,83.29,60.1Zm-4.63-9.41-8.81,6.88L54.14,60.93l6.21-16,.89.06Zm-64-8.36,44.2,2.57L22.08,51.44l-7.74-8.36Zm7.16,9.42L8.67,56.86l5.5-13.37ZM34.46,62.9,8.3,57.77l.16-.39L22.18,52,34.27,62.82a.24.24,0,0,0,.14,0,.23.23,0,0,0,.15-.07.22.22,0,0,0,0-.29L22.63,51.9l18.12,1.16-5.42,9.48a.2.2,0,0,0,.08.27.17.17,0,0,0,.1,0,.21.21,0,0,0,.17-.1l5.44-9.52,12.4,8L45.69,70.6,34.53,62.93Zm11.92,8.18L46,70.83l7.81-9.31L63.2,71.71,52.32,84.23,46.45,71.16A.27.27,0,0,0,46.38,71.08ZM73.87,112,59.25,97.28l15.29-6,7.1,19.22s0,0,0,.06,0,0,0,0l.09,0H82l-7.68,1.49Zm1,.48,7.16-1.39,6.83,7.8Zm22.42,9.89.06.13a.21.21,0,0,0,.18.11h0l2.84,12.83L92.18,121Zm16.18,9.75,15.56,10.47-12.3.34,0,0h0s0,0,0,0a.13.13,0,0,0,0,.06h0l-2.86-10.67h0s0,0,0-.06,0-.05,0-.06h0s0,0-.08,0a.08.08,0,0,0-.07,0,.22.22,0,0,0-.12.09h0l-8.23,14.9-3.81-10.55ZM105.42,148l-.13-.36a.2.2,0,0,0,.12-.08L113.48,133l2.8,10.44a.2.2,0,0,0,.15.13l-3.49,10.24Zm8,14.34v-.25l12.41-2.27v.1l-13,8.67h0ZM127.24,177a.17.17,0,0,0,.1,0,.16.16,0,0,0,.09,0l-10.33,11.8-6.7-10.18v-.21l16.35-1.68Zm-.4-.68-13.53-7.53,12.62-8.43,1.49,15.9Zm-14-7.21.1-.06,13.21,7.34L110.39,178v-.67Zm-2.29,24.64-.13-14.39,6.37,9.69s0,0,.07,0h0Zm17.74-17.71-.76.87a.2.2,0,0,0-.07-.25l.21,0a.13.13,0,0,0,.09,0l0,0s0,0,0-.06a.32.32,0,0,0,0-.09l-1.52-16.32.33-.23,9.86,3Zm19.06-26.65-16.75-6.52,18.77-4.68.24.07Z"/><path class="cls-2" d="M53.1,35.37h0l.45-.09,0,0a.18.18,0,0,0,.13.05.2.2,0,0,0,.16-.07l.07-.09L65.4,32.77a.21.21,0,0,0,.14-.1.23.23,0,0,0,0-.18l-.13-.31,13.12-3.07,0,0,.06,0s0,0,0-.05,0,0,0,0l4.5-11.7,13.49,5.15L79,28.7a.2.2,0,0,0-.12.26.2.2,0,0,0,.19.14l.06,0,18-6.38,0,.23a.19.19,0,0,0,.15.24h0a.2.2,0,0,0,.2-.16l.1-.45,7.58-1.83a.19.19,0,0,0,.12-.07l6.65-9.15a.22.22,0,0,0,0-.21.21.21,0,0,0-.18-.11L99.92,11h-.67L83,16.09,62.74,24.81a.27.27,0,0,0-.08.07,2.51,2.51,0,0,0-.4,0,.18.18,0,0,0-.16,0,0,0,0,0,0,0,0c-.07,0-.09,0-.1.07a0,0,0,0,0,0,0l-8.23,9.88-.69.15a.21.21,0,0,0-.16.24A.21.21,0,0,0,53.1,35.37Zm51.87-15-7.33,1.76,2.28-10.35,4.33,8.34a.21.21,0,0,0,.18.11l.09,0a.2.2,0,0,0,.09-.27l-4.42-8.52,11.15.17Zm-21.88-3.9,16.25-5.06h.25l-2.38,10.8L83.12,16.83a.2.2,0,0,0-.26.12l-4.5,11.72C69,26.29,65,25.34,63.32,25ZM77.63,28.9,65.25,31.81l-2.76-6.58C64.07,25.5,71.91,27.45,77.63,28.9ZM62.12,25.4l3,7L54.39,34.69Z"/><path class="cls-2" d="M109.87,38.51l-12.24-.73-7.51,1.28a.2.2,0,0,0-.16.2.2.2,0,0,0,.17.2L102,41l7.32,8,0,0v0l6.33,4.19a.2.2,0,0,0,.11,0,.2.2,0,0,0,.17-.09.2.2,0,0,0-.06-.28l-6.24-4.12-.27-9.87.3,0,6.56,14.21a.2.2,0,0,0,.37-.17L110,38.63A.19.19,0,0,0,109.87,38.51Zm-7.7,2.08L99,38.26l9.23.55Zm7.11,7.73-6.78-7.41L109,39ZM97.65,38.18l.59,0,3.14,2.3-9.87-1.28Z"/><path class="cls-2" d="M95.18,29.72a.21.21,0,0,0-.24-.16l-8.39,1.69a.21.21,0,0,0-.16.24.21.21,0,0,0,.2.16h0L95,30A.21.21,0,0,0,95.18,29.72Z"/><path class="cls-2" d="M82.28,38.89s0,0,0-.06l-2.82-4.49a.21.21,0,0,0-.25-.08L72.38,37h0a.1.1,0,0,0,0,.05l0,.06v0s0,0,0,0a.43.43,0,0,0,0,.05l-.1-.16a.2.2,0,0,0-.28,0,.19.19,0,0,0,0,.28l3.56,5.39a.2.2,0,0,0,.17.09l.1,0,.35-.2a.18.18,0,0,0,.13.19h.06a.2.2,0,0,0,.19-.14l.11-.34,5.7-3.2v0a.24.24,0,0,0,.06-.08s0,0,0,0h0S82.28,38.92,82.28,38.89Zm-.6-.23L77.9,38l.94-2.92a.21.21,0,0,0-.06-.2l.41-.16Zm-4.18-.75-4.32-.77L78.43,35Zm-1.88,4.44-3.29-5,.08,0h0l4.94.89-1.2,3.75Zm2.15-4,3.74.67-4.83,2.71Z"/><path class="cls-2" d="M148.59,24.73l-14-2.45a.21.21,0,0,0-.24.17.21.21,0,0,0,.17.23l14,2.45h0a.2.2,0,0,0,0-.4Z"/><path class="cls-2" d="M164.41,29.25h0l-5.57-17a.21.21,0,0,0-.17-.14L138.83,9.51l0,0s0,0-.05,0,0,0,0,0h-.19l0,0L138,9.4H138l-14.87,3.36a.26.26,0,0,0-.11.07h0a.37.37,0,0,0,0,.11l-1.69,15.55h0s0,0,0,.05,0,0,0,0h0v0s0,0,0,.07v.05h0s0,0,0,0,0,0,0,0h0l0,.31a.2.2,0,0,0,.18.22.19.19,0,0,0,.2-.11L131,40.63l2.1,13.2a.19.19,0,0,0,.11.15.15.15,0,0,0,.09,0,.13.13,0,0,0,.09,0l12.7-6.48,10.65-5.07c3.75,2,9.72,5.3,10,5.86a.25.25,0,0,0,.27.12c.2-.07.44-.15-2.62-19.15Zm-33.3,10.89-9.06-11,16.22,7.14Zm-7.83-26.77,10.3,9.08-11.92,5.83ZM164,29.28l-.1.17-14.29-4.63.16-.17a.23.23,0,0,0,0-.15l8.87-11.43Zm-25.61,6.65-16.56-7.29,12-5.86ZM134.16,22.5,138.69,10,149,24.92,138.75,35.75Zm15,2.83,7.23,16.54-17.44-5.72Zm.39-.12,14.17,4.6-6.93,12Zm9-12.73,0,.13-9.31,12L139.14,10ZM138,9.81l.33,0-4.48,12.3-10.3-9.08Zm-6.64,30.65,7-3.75-5,16.09-2-12.28A.14.14,0,0,0,131.36,40.46Zm14.54,6.68-12.34,6.3,5.24-16.67L145.4,47a.21.21,0,0,0,.17.09.2.2,0,0,0,.17-.31l-6.53-10.07,17,5.57Zm11.11-5L164.1,29.9c1.06,6.55,2.48,15.75,2.66,17.85C165.15,46.46,158.78,43.06,157,42.12Z"/><path class="cls-2" d="M380,34.1a.23.23,0,0,0-.15-.1l-36.31-5.5-.15-.11a.21.21,0,0,0-.24,0s0,0,0,0l-.44-.06h0l-31.43-.05-22.39-5.41h0a.25.25,0,0,0-.12,0h0L256.64,37.41,229.87,46.8l-.49.13-5.77-7.61,0,0a.22.22,0,0,0-.11,0h0l-17.58.9a.26.26,0,0,0-.13.06h0l-.16-.36a.2.2,0,0,0-.37.17l.23.49-7.93,8-.57.08a.2.2,0,0,0-.17.23.2.2,0,0,0,.2.18H197l-.23.23-4.4,6.93a.29.29,0,0,0,0,.09l0,0a.2.2,0,0,0-.08.27.21.21,0,0,0,.18.11.19.19,0,0,0,.1,0l.31-.18,12.65-1.29a.24.24,0,0,0,.17-.12l3.43-7.4h0l.15-.34,6.3,3.12-5.76,11.33L204,64.69l-6.24-4.39a.21.21,0,0,0-.32.15l-.54,4.66-5.14,2.61h0l-6.52,5.92a.18.18,0,0,0-.06.17l.63,6.49-.06.09-6.87.19a.19.19,0,0,0-.18.13l-1.23,3.35h0s0,0,0,0a.19.19,0,0,0,0,.08l1.25,5.33s0,0,0,0,0,0,0,.06h.06l.07,0h0l7.78-2.26.09-.05,5.33-5.77,7.15.47a.2.2,0,0,0,.2-.12l2-4.23,6.72,8.12a.16.16,0,0,0,.08.06l4.62,1.8a.21.21,0,0,0,.19,0,.26.26,0,0,0,.09-.16l.12-3.62a.11.11,0,0,0,.08,0,.2.2,0,0,0,.07-.28l-.13-.22V83.3l9.08-5.84,5.39,2.39-2.11,3.73-10.38,2.88a.22.22,0,0,0-.14.14.19.19,0,0,0,0,.19,43.2,43.2,0,0,0,4.16,3.94c.35.09,4.61-.71,6.34-1l-.81,3.47a.15.15,0,0,0-.12-.07.2.2,0,0,0-.22.18l0,.32-5.54,1.49-8.08-1a.2.2,0,0,0-.22.18v.06l-16.13-5.44h0l.65-.15a.21.21,0,0,0-.09-.4l-13.36,3.2a.16.16,0,0,0-.05-.1.21.21,0,0,0-.29,0l-7.48,9.45-.62.36a.19.19,0,0,0-.09.15l-1.36,18.26a.21.21,0,0,0,.13.2l15.66,5.88,10.32,4.54.3.55a.12.12,0,0,0,.05,0v0h0a.19.19,0,0,0,.1,0,.16.16,0,0,0,.1,0s0,0,0,0,0,0,0,0l.14-.19,3.92,9.54-.75.39a.21.21,0,0,0-.08.27.19.19,0,0,0,.18.11.15.15,0,0,0,.09,0l.72-.37.09.21L204.34,154s0,0,0,.05l5.48,14.49a.19.19,0,0,0,.25.12.2.2,0,0,0,.12-.26l-5.46-14.47-1.45-13.06s.05.05.09.05h0a.2.2,0,0,0,.2-.17l.11-.68,13.52-7v21.66l-11.88-.32a.22.22,0,0,0-.21.19.2.2,0,0,0,.19.21l11.9.32v.34a.2.2,0,0,0,.2.2.19.19,0,0,0,.2-.19l5.6,6.25-13.3,7.48a.2.2,0,0,0-.08.27.2.2,0,0,0,.18.1.18.18,0,0,0,.1,0l13.38-7.52.29.33a.23.23,0,0,0,.15.07.2.2,0,0,0,.14-.06.19.19,0,0,0,0-.28l-.23-.26.16-.09a.22.22,0,0,0,.09-.1L229,150.09l3.71-4.24a.22.22,0,0,0,.05-.17l-1.56-8.4,3.78-6.74,4.2-2.61a.39.39,0,0,0,.08-.1l4.19-11.37a.18.18,0,0,0,0-.2.19.19,0,0,0-.2-.06l-5.69,1.58-7-5.85h.06a.21.21,0,0,0,.16-.24.21.21,0,0,0-.24-.15l-.38.07L224.34,100l3.49,2.61,5.16,8.47a.22.22,0,0,0,.12.09l6.68,1.51a.26.26,0,0,0,.15,0l12.59-7.51a.2.2,0,0,0,.09-.16.18.18,0,0,0-.06-.17l-4.44-4a.22.22,0,0,0-.19,0l-5.57,1.39-2.17-5.49L242.71,98l14.63,4.2,8.28,2,.52,3.92a.19.19,0,0,0,0,.07l6.49,12.12a.18.18,0,0,0,.18.11.19.19,0,0,0,.17-.1l7.1-12.46,5.38-3.39,6.64,5.23a.21.21,0,0,0,.15.15h0l.13.1,3.2,6.3a.24.24,0,0,0,.19.11l8.32-.11a.2.2,0,0,0,.15-.06.24.24,0,0,0,.05-.16l-.77-10.62,8.63-2a.19.19,0,0,0,.11-.07l7.37-9.52a.18.18,0,0,0,0-.14L319,85.08a.25.25,0,0,0-.11-.17l-3.51-1.75,4.09-1.73L337,72.32a.19.19,0,0,0,.11-.12l2.84-9.5a.25.25,0,0,0,0-.15.19.19,0,0,0-.12-.1l-4.59-1.28L343,53.43l29.87-3.49.33.24a.2.2,0,0,0,.28,0,.2.2,0,0,0,0-.26l.5,0a.21.21,0,0,0,.16-.13l6-15.41A.23.23,0,0,0,380,34.1ZM240.25,96l-5.19-.29,23.48-17.23.13.28v.09Zm-41.67,34.1-.36-.16-8.39-15.39,16.9,2.87.17.4v.07Zm-11.05-4.84L173,119.83l16.23-5.22Zm-13.37-24.08,20-11.75L189.32,114l-15.61-12.18Zm33.4,15.92,3.38-21.79,7.6,18.52Zm-.41,0-.14,0L194.81,89.4l15.81,5.33Zm-.61-.11-16.85-2.86,4.82-24.42Zm1.11.51,11-3.26-1.31,17.81s0,0,0,0l-9.63-14.59Zm10,15.4,10.9,17-10.92,4.75V132.92ZM219,114.21l9.87-1.95L217.72,132Zm-.06-.4-7.59-18.48,18,16.11s0,0,0,0l-.2.35Zm-7.59-19,12.26,4.67,5.72,11.42Zm12.88,4.55,9.16-3.59.27.07,0,.13h0l.13.32L228,102.15l-.15-.05-3.61-2.7Zm9.1-38.22-17-10.19,12.8-3.51v0ZM257.8,37.33l30.52-13.78L269.65,55l-.63-.08L256.89,38.4a.16.16,0,0,0-.08-.06ZM234.54,95.62l-.52-.44-.19-.14-5.35-15.11,29.78-1.71ZM251.26,53.3l2.61,15.14-19.3-6.79,0,0ZM254,68.89s0,.06,0,.08l3.87,8L235.76,62.5Zm.37-.08s0,0,0,0,0,0,0-.05l-2.67-15.48,17.14,2,.38.52-10.34,21.9-.37-.24Zm-2.62-16,5.09-13.88,11.68,15.88Zm24,13.36c.86-2.06,9-16.14,14.65-25.77L300.9,64.16l-.63.48Zm24-1.1L277.13,82l-1.48-15.39Zm1.43-.57.05.08H301Zm.17-.5L290.57,39.89a.21.21,0,0,0-.18-.12.19.19,0,0,0-.18.1c-2.37,4-13.62,23.23-14.87,26.18-.78-1.22-3.59-6.89-5.4-10.65l.33,0h0a.2.2,0,0,0,.2-.18.2.2,0,0,0-.18-.22l-.22,0,18.58-31.27,1.5,15.71a.18.18,0,0,0,.1.16.21.21,0,0,0,.19,0l20.43-10.7L301.8,64Zm-31.91-8.65,0,0h0Zm.22.49.07-.11c3.68,7.64,4.95,9.95,5.45,10.63l-15.68,11Zm7.16,26.37-12.54,6.07,11.08-21.2ZM300.41,65l.6,0h0a.18.18,0,0,0,.15.07h0l3.49,18.68-27.14-1.59Zm4.67,18.72L301.61,65.2,314.54,83Zm6.19-54.71,10.47,18.57L302.29,63.7Zm.28-.33,30.62.05L322.05,47.35Zm-21,10.4L289,23.37l21.6,5.21ZM251.26,52.85,234.2,61.33,256.45,38.7Zm6.9,24.87,0,.1-29.87,1.71-.12-.31,6.26-17.08ZM233.25,94.6l-6.58-4.93,1.48-9.44Zm.77,2.08,3.67,9-9.28-3.41Zm4.11,9-3.8-9.35.22-.21,7.38,6.26Zm3.79-2.76-1.83,8.56-1.8-5.4ZM274.86,67l-11,21a.21.21,0,0,0-.26,0,.21.21,0,0,0,0,.29l.08.09,0,0-4.47-10.45ZM264.37,88.66l12.49-6,7.93,20.78L265.07,89.46Zm40.09-4.51L293.93,95,277.61,82.58Zm-9.67,11.28v-.12a.2.2,0,1,0-.39-.06h0l-.09,0L305,84.17l9.66-.8-3.06,19.29Zm7.11-30.51,0,0s0,0,0,0,0,0,0,0l.12-.44,0,0,21.85-2-9.12,20.37Zm.79-1,19.17-15.84L324.1,62Zm20.16-16.72,19.9-18.39.43.07,3.76,10Zm24-7.91-4.17,12.82-20-4.45Zm-90.1-1.47-23,23.39-4.26-13.83ZM216.26,50.53l7-10.77.13-.06L229,47.05ZM206,40.54l16.58-.85L208.8,46.86h0l-2.9-6.26Zm-.36.37L208.41,47l-10.27,1.47Zm-8.5,8.59.58-.58,10-1.43-14.64,8.38Zm8.25,5.28L193.7,56l14.92-8.54.06.14Zm4.37-7.7s0-.06,0-.09a.17.17,0,0,0-.07-.13l12.88-6.72L216,50.22a.27.27,0,0,0-.07-.08Zm6,4h0l.06,0L233.53,61.7v0l-11.9,15.07-4.49-8h0s0,0,0,0h0a.1.1,0,0,0-.06,0h0l-6.87-6.89ZM205.46,70.38l11.24-1.22-3.83,13.56Zm-13.55-2.27,11.74,2-.27.15-17,2.85Zm24.6.67L206,69.91s0,0,0,0L210,62.24Zm-18.71-8,6.06,4.26a.22.22,0,0,0,.21,0l5.41-2.74-3.78,7.32a.2.2,0,0,0,.08.26l-.48,0,.12-.27s0,0,0,0a.11.11,0,0,0,0-.08.14.14,0,0,0,0-.06.06.06,0,0,1,0,0l0,0,0,0h0a.11.11,0,0,0-.08,0,.09.09,0,0,0-.06,0h0l-.28.26h0v0a.21.21,0,0,0-.19-.09l-7.12-4.69a.23.23,0,0,0-.18,0Zm-.63,4.59a.24.24,0,0,0,.11-.15l6.9,4.55-11.7-2Zm-11.34,8.21,16.53-2.77-16.22,9.2-.6-6.16ZM179,81l6.39-.18-3.46,4.42-4-1.22Zm0,8-1.07-4.58,3.76,1.14Zm3.1-3.32,4.45,1.35-7.11,2.06Zm10-4.52a.17.17,0,0,0-.16.06l-5.1,5.52a.14.14,0,0,0-.1-.08l-4.35-1.32,3.57-4.57h.1a.21.21,0,0,0,.14-.07.17.17,0,0,0,.05-.15V80.5l17.34-9.83.35-.06L192.35,81.12a.2.2,0,0,0,0,.09Zm20.69,6-4.3-1.68-6.89-8.32a.23.23,0,0,0-.18-.08.22.22,0,0,0-.16.12l-2,4.4-6.34-.42L204.6,70.49h.06l-2.83,6.62a.2.2,0,0,0,.1.27H202a.2.2,0,0,0,.19-.12l2.88-6.73,7.78,13ZM222.42,77a.23.23,0,0,0-.2,0l-9,5.76L217,69.45l4.4,7.82s0,0,0,0a.13.13,0,0,0,0,0,.19.19,0,0,0,.12,0,.17.17,0,0,0,.1,0s0,0,0,0l0,0,12.12-15.35.11-.06.13,0-6.31,17.22s0,0,0,.06,0,.05,0,.07l.07.19Zm3.65,12.25a.21.21,0,0,0-.18-.06c-2.33.45-6.15,1.15-6.46,1.11a47,47,0,0,1-3.74-3.58L225.82,84a.19.19,0,0,0,.12-.09l1.71-3-1.39,8.91a.22.22,0,0,0,.07.19l7.16,5.37-.1,0-8-2.24a.28.28,0,0,0-.13,0l.84-3.61A.19.19,0,0,0,226.07,89.29Zm-.93,4.43.07-.32s0,.06.09.07l7.47,2.1-8.47,3.31.55-5,.14,0A.23.23,0,0,0,225.14,93.72Zm-1.27,5.33h0l-4.2-3.75L224.43,94Zm-4.94-3.56H219l.17,0,3.72,3.31-10.8-4.12Zm-37.42-3.56a.19.19,0,0,0,.08,0h0l12.63-3-19.42,11.4Zm-8,10.21,15.5,12.1-16.28,5.23a.21.21,0,0,0-.13.23l-.38-.15Zm14.38,23.31,1.65-10.52,8.05,14.78ZM199,130.39s-.06-.06-.09-.09l7.79-11.44-3.38,21L203,140Zm4.19,10.2-.08-.2.13-.06Zm4-22.35h0l0,0a.13.13,0,0,0,.06-.07.09.09,0,0,0,0-.05s0,0,0,0l0-.15,9.72,14.74L203.8,139.6Zm16.53,43.21-.18.1L217.76,155l10.72-4.66Zm8.6-15.8-3.49,4L218.1,132.86l16.39-2.21-3.63,6.5a.16.16,0,0,0,0,.13Zm5.18-27.45,5.42-1.51-4,10.93L235,130.08l-4.07-17.31,6.45,5.39A.23.23,0,0,0,237.56,118.2Zm-7.15-5.86,4.21,17.89-16.74,2.25,11.53-20.32.64-.13Zm2.88-1.56-4.9-8,9.5,3.48,2,6-.09,0Zm18.79-5.86-11.66,7,2-9.3,5.52-1.38Zm-10.32-3.18-6.6-5.59,4.49.25Zm1.1-4.12-2.38-1.25,18.15-16.9-1.29,22a.2.2,0,0,0,.19.22.21.21,0,0,0,.21-.19l1.32-22.4,0,0,0,0s0,0,0,0l4.45,10.41a.13.13,0,0,0,.06.07l1.92,14.3-8.12-2Zm37,9.92-.07.07-6.94,12.18L266.53,108l-.53-4h0l-2-14.8.79.56,15,17.16a.19.19,0,0,0,.15.07.19.19,0,0,0,.13,0,.19.19,0,0,0,0-.28L266.19,90.75l18.91,13.36a.19.19,0,0,0,.12,0Zm5.55-3.5a.18.18,0,0,0,0-.16l-8-20.95,16.9,12.9-2.14,13.38-6.55-5.16A.21.21,0,0,0,285.39,104Zm18.54,11.8-8,.1-3.17-6.23,0-.06-.2-.16L294.7,96s.06,0,.08,0,0,0,0-.07l16.85,7.25L303.32,105a.21.21,0,0,0-.16.21Zm14.69-30.62.7,8.41L312.05,103l-.13,0s0,0,.05-.08l3.1-19.53ZM342.84,53a.24.24,0,0,0-.11.06l-8.07,8a.18.18,0,0,0-.06.19.18.18,0,0,0,.14.14l4.73,1.32L336.71,72,319.3,81.07l-4,1.69,9.08-20.3.54-.06,10.72,9.92a.16.16,0,0,0,.13.06.18.18,0,0,0,.15-.07.19.19,0,0,0,0-.28l-10.45-9.68,8.75-.86a.2.2,0,0,0,.18-.22.2.2,0,0,0-.22-.18l-9.05.89a.17.17,0,0,0-.17-.1l-.51-.47h0l-2.17-13.47,20.55,4.58a.21.21,0,0,0,.24-.13L347.39,39a.2.2,0,0,0,0-.11v0h0l-3.68-9.77,28.63,20.49Zm30.9-3.6-.8.09L344.28,29l35.28,5.36Z"/><path class="cls-2" d="M316.36,128.15a.23.23,0,0,0-.21-.2l-18.89.52a.21.21,0,0,0,0,.41h0l18.88-.52A.22.22,0,0,0,316.36,128.15Z"/><path class="cls-2" d="M336.5,140.79l.24-.42a.2.2,0,0,0,0-.24.18.18,0,0,0-.24,0l-.54.32-.34-.22a.2.2,0,0,0-.28.06.19.19,0,0,0,.06.27l.18.12-21.66,13.11-1.41,0a.19.19,0,0,0-.21.19.2.2,0,0,0,.18.2.19.19,0,0,0-.16.18.21.21,0,0,0,.18.21l.13,0-.21.12a.21.21,0,0,0-.06.28.19.19,0,0,0,.27.07l.43-.26c2.27,1.22,10.42,6.66,16,10.44a.27.27,0,0,0,.12,0,.19.19,0,0,0,.1,0,.21.21,0,0,0,.1-.19v0l16.76,6.1.07,0a.21.21,0,0,0,.19-.14.21.21,0,0,0-.12-.26l-16.94-6.16-.87-9.54.23-.41h.11l18.36,16.35a.24.24,0,0,0,.13.05l.1,0a.19.19,0,0,0,.1-.21l-1.35-9.48h0l.36.14h.07a.21.21,0,0,0,.19-.12.21.21,0,0,0-.12-.27l-.29-.11,5.31-9.3a.19.19,0,0,0-.2-.3l-22.53,2.86,7.45-13,16.09,10.45a.19.19,0,0,0,.11,0,.19.19,0,0,0,.17-.1.18.18,0,0,0-.05-.27ZM313,154.3a3.17,3.17,0,0,0-.42-.18l.68,0Zm15.84,10.08-.69-.26c-3.47-2.35-11.86-8-14.74-9.6l.59-.36,14.17.41-.16.27a.17.17,0,0,0,0,.12Zm18.11,5.89L329.77,155l15.91,6.15h0a.19.19,0,0,0,0,.13Zm-1.06-9.5-16.26-6.28L351,151.77Zm-17.5-6.6-13.75-.39,21.29-12.88,0,0Z"/><path class="cls-2" d="M197.33,17.5h0a.23.23,0,0,0,.07.07c.3.21,3.1,3.79,4.8,6a.18.18,0,0,0,.15.08h0a.18.18,0,0,0,.15-.08L206,19.21l6.17-3.83a.2.2,0,0,0,.08-.24.2.2,0,0,0-.22-.13l-14.6,2.18s0,0-.05,0h0a.17.17,0,0,0-.08.13A.18.18,0,0,0,197.33,17.5Zm5,5.62c-1.16-1.51-3.31-4.28-4.29-5.41l7.45,1.48Zm3.49-4.28-7.18-1.42,12.48-1.87Z"/></svg>