<svg id="Layer_1" data-name="Layer 1" xmlns="http://www.w3.org/2000/svg" viewBox="0 0 400 281.55"><defs><style>.cls-1{fill:#afafaf;}.cls-2{fill:#efa52e;}.cls-3{fill:#727272;}.cls-4{fill:#15ccba;}</style></defs><title>scalable</title><path class="cls-1" d="M13.87,104.6c2.24,0,3.8-.5,3.8-2.54,0-1.63-1.3-2.33-2.82-2.33A2.71,2.71,0,0,0,12,102.57H10.8a3.86,3.86,0,0,1,1.28-3,4.29,4.29,0,0,1,3-.89c2.09,0,3.78,1.06,3.78,3.28a3,3,0,0,1-1.88,3,3.15,3.15,0,0,1,2.35,3.28c0,2.18-1.54,4-4.27,4-3.06,0-4.44-1-4.72-4.1h1.2c0,2,1.34,3.09,3.3,3.09a3.1,3.1,0,0,0,3.29-3c-.08-2.14-1.94-2.82-4.27-2.65Z"/><path class="cls-1" d="M26.16,106.5v1.17H21.4V106.5Z"/><path class="cls-1" d="M35.6,102a2.46,2.46,0,0,0-2.52-2.24c-3.25,0-3.53,3.5-3.72,6a4,4,0,0,1,3.48-2.07,3.89,3.89,0,0,1,4.21,4.27c0,2.68-1.56,4.31-4.25,4.31s-4.65-1.65-4.65-6.34c0-3.14.93-7.19,4.82-7.19A3.57,3.57,0,0,1,36.85,102Zm-5.79,6a3,3,0,0,0,3,3.26c2.24,0,3-1.73,3-3.33,0-2.05-1-3.22-3.05-3.22A3,3,0,0,0,29.81,108Z"/><path class="cls-1" d="M48.8,112a6,6,0,0,1-1.3.22c-1.11,0-1.73-.49-1.73-1.94v-7.13H44.39v-.94h1.38V99.52H46.9v2.71h1.82v.94H46.9v6.68c0,1,0,1.38,1,1.38a3.66,3.66,0,0,0,.92-.14Z"/><path class="cls-1" d="M52.34,115.82H51.21V102.23h1.13v1.71h0a4,4,0,0,1,3.39-2c3.14,0,4.4,2.24,4.4,5.12,0,2.73-1.37,5.15-4.34,5.15a4,4,0,0,1-3.48-1.82Zm3.29-4.59c2.33,0,3.42-2,3.33-4.43S57.53,103,55.63,103c-2.13,0-3.29,1.8-3.29,4.15S53.58,111.23,55.63,111.23Z"/><path class="cls-1" d="M63.7,108.93a2.55,2.55,0,0,0,2.92,2.3c1.64,0,2.41-.87,2.41-1.81,0-2.82-6.25-.83-6.25-4.67,0-1.61,1.26-2.78,3.43-2.78s3.48.87,3.76,3.07H68.82c-.21-1.51-1.22-2.05-2.63-2.05s-2.2.67-2.2,1.67c0,2.65,6.24,1,6.24,4.74,0,1.86-1.67,2.84-4,2.84a3.42,3.42,0,0,1-3.7-3.31Z"/><path class="cls-1" d="M99.36,89.18H95.93v-.79c2-.13,3.28-.34,3.67-2.61h1V99h-1.2Z"/><path class="cls-1" d="M106.47,95.6a3,3,0,0,0,3.28,2.69,3.38,3.38,0,0,0-.12-6.76,3.42,3.42,0,0,0-2.88,1.38l-1-.13,1.07-6.87h6.58v1h-5.56L107,91.38a4.57,4.57,0,0,1,2.91-.86,4,4,0,0,1,4.2,4.38,4.16,4.16,0,0,1-4.2,4.4c-2.5,0-4.46-1-4.66-3.7Z"/><path class="cls-1" d="M126,99.08a6,6,0,0,1-1.3.22c-1.11,0-1.73-.49-1.73-1.93V90.24h-1.38v-.95H123v-2.7h1.12v2.7H126v.95h-1.83v6.67c0,1,0,1.38,1,1.38a4.34,4.34,0,0,0,.93-.13Z"/><path class="cls-1" d="M129.56,102.88h-1.13V89.29h1.13V91h0A3.94,3.94,0,0,1,133,89c3.14,0,4.4,2.24,4.4,5.12,0,2.73-1.37,5.15-4.35,5.15a4.07,4.07,0,0,1-3.48-1.82Zm3.3-4.59c2.33,0,3.42-2,3.33-4.42s-1.43-3.82-3.33-3.82c-2.13,0-3.3,1.8-3.3,4.15S130.81,98.29,132.86,98.29Z"/><path class="cls-1" d="M140.93,96a2.55,2.55,0,0,0,2.92,2.3c1.63,0,2.41-.87,2.41-1.81,0-2.82-6.25-.83-6.25-4.66,0-1.62,1.26-2.79,3.42-2.79s3.48.87,3.77,3.07h-1.15c-.21-1.51-1.22-2-2.64-2s-2.2.67-2.2,1.67c0,2.65,6.25,1,6.25,4.74,0,1.87-1.67,2.84-4,2.84A3.42,3.42,0,0,1,139.78,96Z"/><path class="cls-1" d="M243.7,24V10.46H245V24Z"/><path class="cls-1" d="M249.91,24h-1.13V14.26h1.13v1.35A4.14,4.14,0,0,1,253.05,14a3.41,3.41,0,0,1,3,1.4,3.71,3.71,0,0,1,.49,2.24V24h-1.13V17.64c0-1.75-.72-2.63-2.52-2.63a2.84,2.84,0,0,0-2.71,1.9,4.94,4.94,0,0,0-.25,1.84Z"/><path class="cls-1" d="M258.61,15.2v-.94h1.48V12.72c0-1.55.57-2.53,2.07-2.53a4.7,4.7,0,0,1,.94.08v1a3.25,3.25,0,0,0-.67-.09c-1.17,0-1.21,1-1.21,1.84v1.21h1.85v.94h-1.85V24h-1.13V15.2Zm7.94-3.07h-1.24V10.46h1.24ZM265.36,24V14.26h1.13V24Z"/><path class="cls-1" d="M270.73,24H269.6V14.26h1.13v1.35A4.13,4.13,0,0,1,273.87,14a3.38,3.38,0,0,1,3,1.4,3.71,3.71,0,0,1,.49,2.24V24H276.2V17.64c0-1.75-.71-2.63-2.52-2.63a2.85,2.85,0,0,0-2.71,1.9,5.15,5.15,0,0,0-.24,1.84Z"/><path class="cls-1" d="M280.65,12.13V10.46h1.24v1.67ZM280.7,24V14.26h1.13V24Z"/><path class="cls-1" d="M288.6,24a5.19,5.19,0,0,1-1.29.23c-1.11,0-1.73-.49-1.73-1.94V15.2H284.2v-.94h1.38V11.55h1.13v2.71h1.82v.94h-1.82v6.68c0,1,0,1.37,1,1.37a4.16,4.16,0,0,0,.92-.13Z"/><path class="cls-1" d="M291.58,19.39c0,2.11,1.11,3.86,3.27,3.86a2.86,2.86,0,0,0,3-2.24h1.26a4.08,4.08,0,0,1-4.22,3.26c-3.12,0-4.47-2.22-4.47-5.1S292.07,14,294.85,14s4.31,1.9,4.29,5.4Zm6.36-.94c0-1.9-1.05-3.44-3.09-3.44s-3,1.6-3.27,3.44Z"/><path class="cls-1" d="M310.94,24a5.19,5.19,0,0,1-1.29.23c-1.11,0-1.73-.49-1.73-1.94V15.2h-1.38v-.94h1.38V11.55H309v2.71h1.83v.94H309v6.68c0,1,0,1.37,1,1.37a4.16,4.16,0,0,0,.92-.13Z"/><path class="cls-1" d="M314.48,27.84h-1.13V14.26h1.13V16h0a3.94,3.94,0,0,1,3.39-2c3.14,0,4.4,2.24,4.4,5.12s-1.37,5.16-4.35,5.16a4.05,4.05,0,0,1-3.48-1.83Zm3.3-4.59c2.33,0,3.42-2,3.33-4.42S319.68,15,317.78,15c-2.13,0-3.3,1.81-3.3,4.16C314.48,21.37,315.72,23.25,317.78,23.25Z"/><path class="cls-1" d="M325.85,21a2.55,2.55,0,0,0,2.92,2.29c1.63,0,2.41-.86,2.41-1.81,0-2.82-6.25-.82-6.25-4.66,0-1.62,1.26-2.79,3.42-2.79s3.48.87,3.77,3.07H331c-.21-1.5-1.23-2-2.64-2s-2.2.68-2.2,1.67c0,2.66,6.25,1,6.25,4.75,0,1.86-1.68,2.84-4,2.84A3.43,3.43,0,0,1,324.7,21Z"/><path class="cls-2" d="M40.4,160.55a.9.9,0,0,1-.66-.28l-16.8-16.79a1,1,0,0,1-.27-.67.94.94,0,0,1,.27-.66l16.8-16.8a1,1,0,0,1,1.33,0l16.8,16.8a.94.94,0,0,1,.27.66,1,1,0,0,1-.27.67l-16.8,16.79A.91.91,0,0,1,40.4,160.55ZM24.94,142.81,40.4,158.28l15.47-15.47L40.4,127.35Z"/><path class="cls-3" d="M121,173.83a.93.93,0,0,1-.66-.27L90.66,143.89a1,1,0,0,1,0-1.34l29.68-29.67a1,1,0,0,1,1.33,0l29.67,29.67a1,1,0,0,1,0,1.34l-29.67,29.67A1,1,0,0,1,121,173.83ZM92.66,143.22,121,171.56l28.34-28.34L121,114.88Z"/><path class="cls-4" d="M287.49,243.71a1,1,0,0,1-.67-.28L185.6,142.21a.92.92,0,0,1-.28-.66,1,1,0,0,1,.28-.67L286.82,39.66a.94.94,0,0,1,1.33,0L389.37,140.88a.94.94,0,0,1,0,1.33L288.15,243.43A.91.91,0,0,1,287.49,243.71Zm-99.9-102.16,99.9,99.89,99.89-99.89-99.89-99.9Z"/><path class="cls-3" d="M105.31,201.12V187.58h9v1.09h-7.73v4.89h7v1.09h-7V200h7.92v1.09Z"/><path class="cls-3" d="M116.06,187.58h9.86v1.09h-4.29v12.45h-1.28V188.67h-4.29Z"/><path class="cls-3" d="M128.2,201.12V187.58h1.27v5.81h8v-5.81h1.28v13.54h-1.28v-6.64h-8v6.64Z"/><path class="cls-4" d="M270.45,271v-1.07l8.68-11.39h-7.94v-1.09h9.52v1.08L272,269.91h8.73V271Z"/><path class="cls-4" d="M293,261.38c-.53-2.31-2-3.19-4.27-3.19-3.28,0-4.69,2.8-4.69,6,0,3,1.11,6.08,4.8,6.08,2.33,0,3.78-1.59,4.29-3.73h1.34c-.61,2.61-2.24,4.82-5.87,4.82-4.18,0-5.84-3.3-5.84-7.13,0-5.18,2.71-7.13,6.31-7.13,2.78,0,4.81,1.48,5.25,4.28Z"/><path class="cls-4" d="M298.7,259.18h0V271h-1.27V257.45h1.44l7.83,11.84h0V257.45H308V271h-1.49Z"/><path class="cls-2" d="M23.91,188.18V174.64h4.9c3.18,0,4.44,1.37,4.44,3.4A2.66,2.66,0,0,1,31.08,181v0a3.1,3.1,0,0,1,2.79,3.36c0,2.83-1.85,3.82-4.42,3.82Zm1.28-7.56h3.24c2.67,0,3.54-.94,3.54-2.58s-1-2.31-3.82-2.31h-3Zm0,6.47h3.26c2.82,0,4.14-.37,4.14-2.73s-1.58-2.65-4-2.65H25.19Z"/><path class="cls-2" d="M35.72,174.64h9.85v1.09H41.28v12.45H40V175.73H35.72Z"/><path class="cls-2" d="M57.49,178.57c-.53-2.31-2-3.2-4.27-3.2-3.28,0-4.69,2.8-4.69,6,0,3,1.11,6.08,4.8,6.08,2.33,0,3.78-1.58,4.29-3.73H59c-.6,2.62-2.24,4.82-5.87,4.82-4.17,0-5.83-3.29-5.83-7.13,0-5.17,2.71-7.13,6.3-7.13,2.79,0,4.82,1.49,5.25,4.29Z"/><path class="cls-4" d="M287.49,215.48a.94.94,0,0,1-.67-.28l-73-73a.92.92,0,0,1-.28-.66,1,1,0,0,1,.28-.67l73-73a.94.94,0,0,1,1.33,0l73,73a1,1,0,0,1,.28.67.92.92,0,0,1-.28.66l-73,73A.9.9,0,0,1,287.49,215.48Zm-71.67-73.93,71.67,71.66,71.66-71.66L287.49,69.88Z"/><path class="cls-4" d="M287.49,188.19a.94.94,0,0,1-.67-.28l-45.7-45.7a.92.92,0,0,1-.28-.66,1,1,0,0,1,.28-.67l45.7-45.7a.94.94,0,0,1,1.33,0l45.71,45.7a1,1,0,0,1,.27.67,1,1,0,0,1-.27.66l-45.71,45.7A.9.9,0,0,1,287.49,188.19Zm-44.38-46.64,44.38,44.37,44.37-44.37L287.49,97.17Z"/><path class="cls-4" d="M287.49,164.6a1,1,0,0,1-.67-.28l-22.11-22.11a1,1,0,0,1-.27-.66,1,1,0,0,1,.27-.67l22.11-22.11a.94.94,0,0,1,1.33,0l22.11,22.11a1,1,0,0,1,.28.67.92.92,0,0,1-.28.66l-22.11,22.11A.94.94,0,0,1,287.49,164.6Zm-20.78-23,20.78,20.77,20.77-20.77-20.77-20.78Z"/><path class="cls-4" d="M287.49,150.48a1,1,0,0,1-.67-.28l-8-8a.94.94,0,0,1,0-1.33l8-8a1,1,0,0,1,1.33,0l8,8a.94.94,0,0,1,0,1.33l-8,8A.91.91,0,0,1,287.49,150.48Zm-6.67-8.93,6.67,6.66,6.66-6.66-6.66-6.67Z"/></svg>