<?xml version="1.0" encoding="utf-8"?>
<!-- Generator: Adobe Illustrator 23.0.2, SVG Export Plug-In . SVG Version: 6.00 Build 0)  -->
<svg version="1.1" id="content" xmlns="http://www.w3.org/2000/svg" xmlns:xlink="http://www.w3.org/1999/xlink" x="0px" y="0px"
	 viewBox="0 0 670 450" style="enable-background:new 0 0 670 450;" xml:space="preserve">
<style type="text/css">
	.st0{fill:url(#SVGID_1_);}
	.st1{fill:url(#XMLID_2_);}
	.st2{fill:url(#XMLID_3_);}
	.st3{fill:url(#XMLID_4_);}
	.st4{fill:url(#XMLID_5_);}
	.st5{fill:url(#XMLID_6_);}
	.st6{fill:url(#XMLID_7_);}
	.st7{fill:url(#XMLID_8_);}
	.st8{fill:url(#XMLID_9_);}
	.st9{fill:url(#XMLID_10_);}
	.st10{fill:url(#XMLID_11_);}
	.st11{fill:url(#XMLID_12_);}
	.st12{fill:url(#XMLID_13_);}
	.st13{fill:url(#XMLID_14_);}
	.st14{fill:url(#XMLID_15_);}
	.st15{fill:url(#XMLID_16_);}
	.st16{fill:url(#XMLID_17_);}
	.st17{fill:url(#XMLID_18_);}
	.st18{fill:url(#XMLID_19_);}
	.st19{fill:url(#XMLID_20_);}
	.st20{fill:url(#XMLID_21_);}
	.st21{fill:url(#XMLID_22_);}
	.st22{fill:url(#XMLID_23_);}
	.st23{fill:url(#XMLID_24_);}
	.st24{fill:url(#XMLID_25_);}
	.st25{fill:url(#XMLID_26_);}
	.st26{fill:url(#XMLID_27_);}
	.st27{fill:url(#XMLID_28_);}
	.st28{fill:url(#XMLID_29_);}
	.st29{fill:url(#XMLID_30_);}
	.st30{fill:url(#XMLID_31_);}
	.st31{fill:url(#XMLID_32_);}
	.st32{fill:url(#XMLID_33_);}
	.st33{fill:url(#XMLID_34_);}
	.st34{fill:url(#XMLID_35_);}
	.st35{fill:url(#XMLID_36_);}
	.st36{fill:url(#XMLID_37_);}
	.st37{fill:none;}
</style>
<g id="_x31__1_">
	
		<radialGradient id="SVGID_1_" cx="341.36" cy="-9.7887" r="221.7008" gradientTransform="matrix(1 0 0 -0.4689 0 277.7103)" gradientUnits="userSpaceOnUse">
		<stop  offset="0" style="stop-color:#00FFFF"/>
		<stop  offset="0.6027" style="stop-color:#1971C0;stop-opacity:0.3973"/>
		<stop  offset="1" style="stop-color:#291898;stop-opacity:0"/>
	</radialGradient>
	<path class="st0" d="M99.47,282.39C99.47,348.87,207.76,403,341.39,403c133.58,0,241.85-54.13,241.85-120.61
		c0-66.77-108.26-120.79-241.85-120.79C207.75,161.6,99.47,215.62,99.47,282.39z"/>
	<g id="XMLID_1768_">
		<g id="XMLID_1937_">
			
				<linearGradient id="XMLID_2_" gradientUnits="userSpaceOnUse" x1="401.118" y1="208.945" x2="300.2705" y2="208.945" gradientTransform="matrix(1 0 0 -1 0 452)">
				<stop  offset="0" style="stop-color:#BA83FF"/>
				<stop  offset="1" style="stop-color:#B0A4E2"/>
			</linearGradient>
			<path id="XMLID_1939_" class="st1" d="M520.15,244.83l-0.13-24.11l-23.55-0.12l-123.76-71.74c-18.47-10.71-50.77-9.42-72.14,2.86
				l-114.15,65.64c-0.94,0.54-1.82,1.09-2.68,1.65l-15.02-0.08v22.34h0.01c0.14,6.64,4.23,12.96,12.44,17.72l135,78.26
				c18.47,10.71,50.77,9.42,72.14-2.86l114.15-65.64C514.33,261.92,520.33,253.13,520.15,244.83L520.15,244.83z"/>
			
				<linearGradient id="XMLID_3_" gradientUnits="userSpaceOnUse" x1="931.609" y1="-111.1117" x2="78.4458" y2="386.3946" gradientTransform="matrix(1 0 0 -1 0 452)">
				<stop  offset="0" style="stop-color:#9C74FF"/>
				<stop  offset="1" style="stop-color:#FFF6E2"/>
			</linearGradient>
			<path id="XMLID_1938_" class="st2" d="M316.17,314.92l-135-78.26c-18.47-10.71-16.12-29.35,5.25-41.64l114.15-65.64
				c21.37-12.29,53.67-13.57,72.14-2.86l135,78.25c18.47,10.71,16.12,29.35-5.25,41.64L388.3,312.06
				C366.93,324.34,334.64,325.63,316.17,314.92z"/>
		</g>
		<g id="XMLID_2200_">
			<g id="XMLID_45_">
				
					<linearGradient id="XMLID_4_" gradientUnits="userSpaceOnUse" x1="315.0361" y1="238.7092" x2="377.2739" y2="228.9205" gradientTransform="matrix(1 0 0 -1 0 452)">
					<stop  offset="0" style="stop-color:#2918DD"/>
					<stop  offset="1" style="stop-color:#13CEE2"/>
				</linearGradient>
				<path id="XMLID_2284_" class="st3" d="M319.59,233.55c-8.08-4.66-8.43-12.04-0.79-16.46l25.41-14.7
					c7.64-4.42,20.43-4.23,28.51,0.43c8.08,4.66,8.43,12.04,0.79,16.46l-25.41,14.7C340.45,238.4,327.67,238.21,319.59,233.55z
					 M369.76,204.54c-6.35-3.66-16.41-3.81-22.41-0.34l-25.41,14.7c-6.01,3.47-5.73,9.28,0.62,12.94s16.41,3.81,22.41,0.34
					l25.41-14.7C376.38,214.01,376.11,208.2,369.76,204.54z"/>
			</g>
			<g id="XMLID_46_">
				
					<linearGradient id="XMLID_5_" gradientUnits="userSpaceOnUse" x1="314.9464" y1="238.6509" x2="377.1842" y2="228.8623" gradientTransform="matrix(1 0 0 -1 0 452)">
					<stop  offset="0" style="stop-color:#2918DD"/>
					<stop  offset="1" style="stop-color:#13CEE2"/>
				</linearGradient>
				<path id="XMLID_2278_" class="st4" d="M319.5,233.61c-8.08-4.66-8.43-12.04-0.79-16.46l25.41-14.7
					c7.64-4.42,20.43-4.23,28.51,0.43c8.08,4.66,8.43,12.04,0.79,16.46L348,234.04C340.36,238.46,327.57,238.26,319.5,233.61z
					 M369.66,204.6c-6.35-3.66-16.41-3.81-22.41-0.34l-25.41,14.7c-6.01,3.47-5.73,9.28,0.62,12.94s16.41,3.81,22.41,0.34
					l25.41-14.7C376.29,214.06,376.01,208.26,369.66,204.6z"/>
			</g>
			<g id="XMLID_94_">
				
					<linearGradient id="XMLID_6_" gradientUnits="userSpaceOnUse" x1="332.0014" y1="235.8963" x2="359.9287" y2="231.504" gradientTransform="matrix(1 0 0 -1 0 452)">
					<stop  offset="0" style="stop-color:#2918DD"/>
					<stop  offset="1" style="stop-color:#13CEE2"/>
				</linearGradient>
				<path id="XMLID_2417_" class="st5" d="M331.62,226.6L331.62,226.6c-1.51-0.87-1.32-2.4,0.42-3.41l22.37-12.94
					c1.75-1.01,4.39-1.12,5.9-0.25l0,0c1.51,0.87,1.32,2.4-0.42,3.41l-22.37,12.94C335.78,227.36,333.13,227.47,331.62,226.6z"/>
			</g>
			<g id="XMLID_2202_">
				
					<linearGradient id="XMLID_7_" gradientUnits="userSpaceOnUse" x1="298.6043" y1="241.4877" x2="394.2657" y2="226.4423" gradientTransform="matrix(1 0 0 -1 0 452)">
					<stop  offset="0" style="stop-color:#2918DD"/>
					<stop  offset="1" style="stop-color:#13CEE2"/>
				</linearGradient>
				<path id="XMLID_2272_" class="st6" d="M308.05,240.23c-14.74-8.49-15.38-21.96-1.44-30.02l26.2-15.15
					c13.94-8.06,37.27-7.71,52.01,0.78c14.74,8.49,15.38,21.96,1.44,30.02l-26.2,15.15C346.12,249.07,322.79,248.72,308.05,240.23z
					 M381.85,197.55c-13.01-7.5-33.61-7.81-45.91-0.69l-26.2,15.15c-12.31,7.12-11.74,19.01,1.27,26.51
					c13.01,7.5,33.61,7.81,45.91,0.69l26.2-15.15C395.43,216.94,394.86,205.05,381.85,197.55z"/>
			</g>
			<g id="XMLID_2206_">
				
					<linearGradient id="XMLID_8_" gradientUnits="userSpaceOnUse" x1="243.3859" y1="212.639" x2="345.747" y2="196.5398" gradientTransform="matrix(1 0 0 -1 0 452)">
					<stop  offset="0" style="stop-color:#2918DD"/>
					<stop  offset="1" style="stop-color:#13CEE2"/>
				</linearGradient>
				<path id="XMLID_2265_" class="st7" d="M289.22,250.47c-7.87-4.54-10.86-8.39-13.52-11.81c-2.14-2.76-4.17-5.36-8.56-8.05
					c-9.97-6.06-20.89-8.74-21-8.76l1.46-2.29c0.49,0.11,12.08,2.93,22.6,9.4c4.93,3.02,7.11,5.82,9.42,8.79
					c2.67,3.44,5.5,7.05,13.11,11.32c7.28,4.1,13.64,5.9,19.79,7.65c5.92,1.68,11.51,3.26,17.38,6.64c0.03,0.02,0.06,0.03,0.09,0.05
					c11.99,6.94,12.68,10.92,12.72,11.36h-4.3c0-0.01-0.68-3.44-11.38-9.64c-5.51-3.13-10.63-4.6-16.22-6.18
					c-6.17-1.75-13.17-3.73-20.98-8.13C289.61,250.69,289.41,250.58,289.22,250.47z"/>
			</g>
			<g id="XMLID_2211_">
				
					<linearGradient id="XMLID_9_" gradientUnits="userSpaceOnUse" x1="239.5137" y1="205.2918" x2="328.157" y2="191.3502" gradientTransform="matrix(1 0 0 -1 0 452)">
					<stop  offset="0" style="stop-color:#2918DD"/>
					<stop  offset="1" style="stop-color:#13CEE2"/>
				</linearGradient>
				<path id="XMLID_2263_" class="st8" d="M277.2,257.5c-8.52-4.91-14.38-11.13-18.66-15.68c-1.68-1.79-3.13-3.33-4.42-4.46
					c-4.81-4.22-12.18-5.56-12.26-5.57l1.05-2.37c0.36,0.06,9.05,1.64,14.77,6.66c1.4,1.23,2.89,2.81,4.62,4.65
					c4.14,4.4,9.82,10.43,17.86,15.06c8.64,4.98,18.04,7.86,26.32,10.39c2.59,0.79,5.1,1.56,7.49,2.36
					c8.54,2.85,11.53,8.02,11.65,8.24l-4.09,0.65c-0.03-0.04-2.61-4.44-9.56-6.76c-2.35-0.78-4.81-1.54-7.35-2.31
					C296.05,265.74,286.33,262.77,277.2,257.5z"/>
			</g>
			<g id="XMLID_2214_">
				
					<linearGradient id="XMLID_10_" gradientUnits="userSpaceOnUse" x1="236.7314" y1="197.9944" x2="310.8881" y2="186.3312" gradientTransform="matrix(1 0 0 -1 0 452)">
					<stop  offset="0" style="stop-color:#2918DD"/>
					<stop  offset="1" style="stop-color:#13CEE2"/>
				</linearGradient>
				<path id="XMLID_2261_" class="st9" d="M264.12,263.96c-10.5-6.05-17.6-14.75-21.5-19.52c-1.4-1.71-3.93-2.76-3.95-2.76
					l2.32-2.02c0.15,0.06,3.57,1.45,5.5,3.82c3.95,4.84,11.35,13.86,22,19.55c12.23,6.53,23.19,9.37,29.75,11.07
					c2.45,0.64,4.22,1.09,5.49,1.58c3.32,1.28,5.06,2.75,5.14,2.82l-3.54,1.31c-0.01-0.01-1.33-1.11-3.85-2.08
					c-0.94-0.36-2.65-0.81-4.82-1.37c-6.81-1.76-18.21-4.72-30.99-11.55C265.14,264.54,264.62,264.25,264.12,263.96z"/>
			</g>
			<g id="XMLID_2213_">
				
					<linearGradient id="XMLID_11_" gradientUnits="userSpaceOnUse" x1="238.8213" y1="190.4923" x2="292.6736" y2="182.0224" gradientTransform="matrix(1 0 0 -1 0 452)">
					<stop  offset="0" style="stop-color:#2918DD"/>
					<stop  offset="1" style="stop-color:#13CEE2"/>
				</linearGradient>
				<path id="XMLID_2260_" class="st10" d="M259.47,268.41c-10.44-6.02-18.96-14.96-19.32-15.35l3.76-1.1
					c0.09,0.09,8.74,9.18,19.03,15.02c10.14,5.71,28.34,10.6,28.53,10.65l-1.63,2.25c-0.77-0.21-19.1-5.13-29.82-11.17
					C259.83,268.61,259.65,268.51,259.47,268.41z"/>
			</g>
			<g id="XMLID_2221_">
				
					<linearGradient id="XMLID_12_" gradientUnits="userSpaceOnUse" x1="280.0074" y1="250.1023" x2="420.1469" y2="228.0613" gradientTransform="matrix(1 0 0 -1 0 452)">
					<stop  offset="0" style="stop-color:#2918DD"/>
					<stop  offset="1" style="stop-color:#13CEE2"/>
				</linearGradient>
				<path id="XMLID_2403_" class="st11" d="M282.56,207.58c1.75-1.45,3.69-2.85,5.92-4.15l30.25-17.49
					c21.68-12.54,57.97-11.99,80.89,1.22c22.92,13.21,23.93,34.16,2.24,46.7l-30.25,17.49c-2.24,1.29-4.66,2.41-7.17,3.43l3.16,1.82
					c2.49-1.03,4.91-2.15,7.14-3.45L405,235.66c23.31-13.48,22.23-36.01-2.41-50.21c-24.65-14.21-63.66-14.79-86.98-1.31
					l-30.25,17.49c-2.23,1.29-4.17,2.69-5.96,4.13L282.56,207.58z"/>
			</g>
			<g id="XMLID_2215_">
				
					<linearGradient id="XMLID_13_" gradientUnits="userSpaceOnUse" x1="330.5971" y1="191.3662" x2="362.6242" y2="186.329" gradientTransform="matrix(1 0 0 -1 0 452)">
					<stop  offset="0" style="stop-color:#2918DD"/>
					<stop  offset="1" style="stop-color:#13CEE2"/>
				</linearGradient>
				<path id="XMLID_2257_" class="st12" d="M345.94,271.65l-1.12-1.19c-0.01-0.03-1.01-2.94-4.28-4.94c-3.46-2.11-8.45-3.8-8.5-3.82
					l-0.87-0.29l-0.5-1.24l0.89-0.6l0.85-0.46l1.4,0.18c1.77,0.3,10.85,1.69,17.09,0.38c5.93-1.25,8.63-2.34,9.44-2.71
					c0.21-0.1,0.35-0.17,0.39-0.19l3,1.87c-0.06,0.04-0.24,0.13-0.55,0.28c-1.87,0.94-9.31,4.81-11.37,7.63
					c-1.27,1.74-1.88,2.91-2.17,3.59c-0.15,0.37-0.57,1.35-2.25,1.44L345.94,271.65z M342.95,263.47c0.22,0.13,0.44,0.26,0.65,0.39
					c1.46,0.89,2.55,1.9,3.36,2.84c0.26-0.4,0.55-0.8,0.86-1.23c0.76-1.04,2.07-2.17,3.57-3.25c-3.24,0.53-6.83,0.56-10.03,0.38
					C341.9,262.88,342.43,263.17,342.95,263.47z"/>
			</g>
			<g id="XMLID_2216_">
				
					<linearGradient id="XMLID_14_" gradientUnits="userSpaceOnUse" x1="354.6949" y1="187.6866" x2="366.406" y2="185.8447" gradientTransform="matrix(1 0 0 -1 0 452)">
					<stop  offset="0" style="stop-color:#2918DD"/>
					<stop  offset="1" style="stop-color:#13CEE2"/>
				</linearGradient>
				<path id="XMLID_2256_" class="st13" d="M353.92,269.24c0.03-0.11,0.88-2.68,4.32-5.04c3.23-2.22,5.85-3.39,5.96-3.44l2.74,2
					c-0.02,0.01-2.41,1.08-5.34,3.09c-2.72,1.87-3.43,3.94-3.43,3.96L353.92,269.24z"/>
			</g>
			<g id="XMLID_2218_">
				
					<linearGradient id="XMLID_15_" gradientUnits="userSpaceOnUse" x1="255.0465" y1="236.9695" x2="278.9489" y2="233.2101" gradientTransform="matrix(1 0 0 -1 0 452)">
					<stop  offset="0" style="stop-color:#2918DD"/>
					<stop  offset="1" style="stop-color:#13CEE2"/>
				</linearGradient>
				<path id="XMLID_2253_" class="st14" d="M254.51,218.98l0.06-0.92c0.17-0.97,1.87-1.2,2.51-1.29c1.18-0.16,3.23-0.51,6.26-1.23
					c4.38-1.05,10.62-4.83,13.15-6.53c0.28-0.2,0.46-0.31,0.53-0.35l3.25,1.73c-0.04,0.02-0.16,0.11-0.35,0.24
					c-0.64,0.48-2.5,2.04-4.59,5.47c-2.22,3.63,0.34,8.94,0.87,9.97l0.36,0.68l-1.64,1.13l-2.37-0.27l-0.5-0.49
					c-0.03-0.03-3.05-2.95-6.8-5c-3.56-1.93-8.69-2.54-8.74-2.55l-0.68-0.15L254.51,218.98z M270.92,215.74
					c-1.91,0.89-3.91,1.67-5.75,2.11c-0.74,0.17-1.45,0.34-2.14,0.49c1.67,0.48,3.47,1.13,5.07,2c0.79,0.42,1.53,0.88,2.23,1.33
					C269.98,219.77,269.98,217.64,270.92,215.74z"/>
			</g>
			<g id="XMLID_2217_">
				
					<linearGradient id="XMLID_16_" gradientUnits="userSpaceOnUse" x1="257.8889" y1="242.4716" x2="272.6855" y2="240.1444" gradientTransform="matrix(1 0 0 -1 0 452)">
					<stop  offset="0" style="stop-color:#2918DD"/>
					<stop  offset="1" style="stop-color:#13CEE2"/>
				</linearGradient>
				<path id="XMLID_2252_" class="st15" d="M258.5,214.26l-0.97-2.45c0.04,0,3.65-0.4,6.88-1.97c3.48-1.69,5.33-3.07,5.35-3.08
					l3.48,1.57c-0.08,0.06-2.1,1.58-5.95,3.45C263.19,213.76,258.69,214.24,258.5,214.26z"/>
			</g>
			<g id="XMLID_2219_">
				
					<linearGradient id="XMLID_17_" gradientUnits="userSpaceOnUse" x1="347.8949" y1="269.921" x2="442.0069" y2="255.1191" gradientTransform="matrix(1 0 0 -1 0 452)">
					<stop  offset="0" style="stop-color:#2918DD"/>
					<stop  offset="1" style="stop-color:#13CEE2"/>
				</linearGradient>
				<path id="XMLID_2251_" class="st16" d="M434.52,216.34c0.06-0.19,5.56-19.19-21.54-35.48c-27.06-16.3-61.16-13.55-61.51-13.52
					l-0.87-2.46c1.48-0.13,36.63-2.93,65.4,14.31c28.76,17.29,23.01,36.89,22.75,37.72L434.52,216.34z"/>
			</g>
			<g id="XMLID_2223_">
				
					<linearGradient id="XMLID_18_" gradientUnits="userSpaceOnUse" x1="408.8886" y1="281.6147" x2="440.3876" y2="276.6606" gradientTransform="matrix(1 0 0 -1 0 452)">
					<stop  offset="0" style="stop-color:#2918DD"/>
					<stop  offset="1" style="stop-color:#13CEE2"/>
				</linearGradient>
				<path id="XMLID_2249_" class="st17" d="M409.55,166.18l2.05-2.12c0.33,0.11,8.08,2.78,15.73,7.19
					c7.66,4.41,12.11,8.78,12.29,8.97l-3.69,1.17c-0.04-0.04-4.35-4.26-11.56-8.42C417.15,168.8,409.63,166.21,409.55,166.18z"/>
			</g>
			
				<linearGradient id="XMLID_19_" gradientUnits="userSpaceOnUse" x1="306.7053" y1="240.083" x2="385.7589" y2="227.6495" gradientTransform="matrix(1 0 0 -1 0 452)">
				<stop  offset="0" style="stop-color:#2918DD"/>
				<stop  offset="1" style="stop-color:#13CEE2"/>
			</linearGradient>
			<path id="XMLID_2204_" class="st18" d="M374.12,222.23l-23.43,13.55c-9.13,5.28-24.41,5.05-34.06-0.51s-10.08-14.38-0.95-19.66
				l26.12-15.11c9.13-5.28,24.41-5.05,34.06,0.51c9.29,5.36,10,13.72,1.9,19.05l3.13,1.8c9.73-6.28,8.95-16.22-2.07-22.57
				c-11.38-6.56-29.39-6.83-40.15-0.6l-26.12,15.11c-10.76,6.22-10.26,16.62,1.11,23.18c11.38,6.56,29.39,6.83,40.15,0.6
				l23.43-13.55L374.12,222.23z"/>
			<g id="XMLID_47_">
				
					<linearGradient id="XMLID_20_" gradientUnits="userSpaceOnUse" x1="291.2003" y1="246.9714" x2="401.7846" y2="229.5789" gradientTransform="matrix(1 0 0 -1 0 452)">
					<stop  offset="0" style="stop-color:#2918DD"/>
					<stop  offset="1" style="stop-color:#13CEE2"/>
				</linearGradient>
				<path id="XMLID_55_" class="st19" d="M297.65,235.8c-8.23-8.92-6.3-19.96,6.09-27.13l26.5-15.32
					c15.38-8.89,41.12-8.51,57.38,0.86c6.74,3.88,10.76,8.71,12.12,13.66l4.33,0.02c-1.43-5.58-5.91-11.03-13.49-15.4
					c-17.98-10.37-46.46-10.79-63.47-0.96l-26.5,15.32c-14.02,8.11-15.92,20.68-6.11,30.66L297.65,235.8z"/>
				
					<linearGradient id="XMLID_21_" gradientUnits="userSpaceOnUse" x1="300.6213" y1="231.1509" x2="400.8734" y2="215.3834" gradientTransform="matrix(1 0 0 -1 0 452)">
					<stop  offset="0" style="stop-color:#2918DD"/>
					<stop  offset="1" style="stop-color:#13CEE2"/>
				</linearGradient>
				<path id="XMLID_2266_" class="st20" d="M404.58,211.01l-4.3-0.02c0.27,5.99-3.39,11.91-11.07,16.35l-26.5,15.32
					c-15.38,8.89-41.12,8.51-57.38-0.86c-1.76-1.01-3.3-2.1-4.7-3.23l-3.06,1.68c1.45,1.14,3.01,2.24,4.8,3.27
					c17.98,10.37,46.46,10.79,63.47,0.96l26.5-15.32C400.85,224.22,404.91,217.65,404.58,211.01z"/>
			</g>
			<g id="XMLID_2248_">
				
					<linearGradient id="XMLID_22_" gradientUnits="userSpaceOnUse" x1="306.4803" y1="266.9459" x2="369.7275" y2="256.9985" gradientTransform="matrix(1 0 0 -1 0 452)">
					<stop  offset="0" style="stop-color:#2918DD"/>
					<stop  offset="1" style="stop-color:#13CEE2"/>
				</linearGradient>
				<path id="XMLID_2250_" class="st21" d="M307.56,199.9l17.7-10.23c12.11-7.01,29.61-9.15,45.68-6.61l1.04-2.38
					c-17.53-2.8-36.63-0.46-49.85,7.18l-17.7,10.23L307.56,199.9z"/>
				
					<linearGradient id="XMLID_23_" gradientUnits="userSpaceOnUse" x1="335.1003" y1="235.7693" x2="410.7386" y2="223.8731" gradientTransform="matrix(1 0 0 -1 0 452)">
					<stop  offset="0" style="stop-color:#2918DD"/>
					<stop  offset="1" style="stop-color:#13CEE2"/>
				</linearGradient>
				<path id="XMLID_2298_" class="st22" d="M396.66,188.98c-5.75-3.32-12.43-5.73-19.49-7.31l-1.04,2.38
					c6.36,1.45,12.37,3.65,17.57,6.64c19.39,11.18,20.24,28.9,1.9,39.51l-28.23,16.33c-10.26,5.93-24.37,8.4-38.21,7.47l0.04,2.48
					c14.98,0.95,30.21-1.73,41.3-8.15L398.73,232C418.7,220.46,417.78,201.16,396.66,188.98z"/>
				
					<linearGradient id="XMLID_24_" gradientUnits="userSpaceOnUse" x1="279.5308" y1="228.9971" x2="327.7958" y2="221.4061" gradientTransform="matrix(1 0 0 -1 0 452)">
					<stop  offset="0" style="stop-color:#2918DD"/>
					<stop  offset="1" style="stop-color:#13CEE2"/>
				</linearGradient>
				<path id="XMLID_2301_" class="st23" d="M323.75,253.47c-9.02-1.19-17.7-3.84-24.83-7.96c-19.39-11.18-20.24-28.9-1.9-39.51
					l6.84-3.95l-3.13-1.8l-6.84,3.95c-19.98,11.55-19.05,30.86,2.07,43.03c7.98,4.6,17.73,7.53,27.84,8.77L323.75,253.47z"/>
			</g>
			<g id="XMLID_2210_">
				
					<linearGradient id="XMLID_25_" gradientUnits="userSpaceOnUse" x1="238.1437" y1="207.2233" x2="277.2456" y2="201.0734" gradientTransform="matrix(1 0 0 -1 0 452)">
					<stop  offset="0" style="stop-color:#2918DD"/>
					<stop  offset="1" style="stop-color:#13CEE2"/>
				</linearGradient>
				<path id="XMLID_2264_" class="st24" d="M275.85,259.8c-0.32-0.17-0.61-0.31-0.94-0.48c-9.13-4.87-15.8-12.14-20.26-16.96
					c-2.15-2.33-3.71-4.02-4.98-4.85c-3.92-2.57-8.8-3.54-9.01-3.58l-1.18,2.35c0.04,0.01,4,0.83,7.02,2.81
					c0.92,0.6,2.52,2.34,4.37,4.34c4.35,4.71,10.81,11.71,19.68,16.82c0.5,0.29,1.01,0.57,1.52,0.85c0.25,0.13,0.48,0.24,0.73,0.37
					L275.85,259.8z"/>
				
					<linearGradient id="XMLID_26_" gradientUnits="userSpaceOnUse" x1="276.4082" y1="184.8819" x2="317.2966" y2="178.451" gradientTransform="matrix(1 0 0 -1 0 452)">
					<stop  offset="0" style="stop-color:#2918DD"/>
					<stop  offset="1" style="stop-color:#13CEE2"/>
				</linearGradient>
				<path id="XMLID_2269_" class="st25" d="M309.22,272.42c-1.93-0.83-4.23-1.47-6.89-2.2c-5.3-1.47-12.31-3.42-22.31-8.29
					l-3.06,1.68c10.73,5.25,18.39,7.38,23.69,8.84c2.55,0.71,4.56,1.26,6.13,1.94c3.95,1.7,5.95,4.17,5.97,4.2l3.9-0.93
					C316.55,277.52,314.18,274.53,309.22,272.42z"/>
			</g>
			<g id="XMLID_2220_">
				
					<linearGradient id="XMLID_27_" gradientUnits="userSpaceOnUse" x1="243.9653" y1="223.6616" x2="266.243" y2="220.1577" gradientTransform="matrix(1 0 0 -1 0 452)">
					<stop  offset="0" style="stop-color:#2918DD"/>
					<stop  offset="1" style="stop-color:#13CEE2"/>
				</linearGradient>
				<path id="XMLID_2222_" class="st26" d="M265.88,234.15c-1.11-0.96-2.25-1.85-3.53-2.58c-9.39-5.41-16.6-6.94-16.9-7l-1.26,2.34
					c0.06,0.01,6.62,1.43,15.2,6.38c0.92,0.53,1.78,1.18,2.63,1.89L265.88,234.15z"/>
				
					<linearGradient id="XMLID_28_" gradientUnits="userSpaceOnUse" x1="262.8542" y1="200.9557" x2="336.1761" y2="189.4238" gradientTransform="matrix(1 0 0 -1 0 452)">
					<stop  offset="0" style="stop-color:#2918DD"/>
					<stop  offset="1" style="stop-color:#13CEE2"/>
				</linearGradient>
				<path id="XMLID_2268_" class="st27" d="M325.37,267.92c-5.83-3.52-11.59-5.13-17.64-6.82c-6.12-1.71-12.44-3.48-19.63-7.53
					c-8.18-4.62-12.83-9.65-16.9-14.08c-0.84-0.91-1.64-1.77-2.44-2.6l-3.84,1.02c0.81,0.84,1.64,1.72,2.5,2.66
					c3.93,4.28,8.8,9.59,17.21,14.43c0.18,0.1,0.37,0.21,0.55,0.31c7.73,4.35,14.7,6.3,20.85,8.03c5.67,1.58,11.06,3.09,16.32,6.27
					c4.49,2.69,7.76,7.06,7.79,7.1l3.95-0.87C333.93,275.62,330.46,270.97,325.37,267.92z"/>
			</g>
			<g id="XMLID_2303_">
				
					<linearGradient id="XMLID_29_" gradientUnits="userSpaceOnUse" x1="383.6" y1="285.7817" x2="418.2648" y2="280.3297" gradientTransform="matrix(1 0 0 -1 0 452)">
					<stop  offset="0" style="stop-color:#2918DD"/>
					<stop  offset="1" style="stop-color:#13CEE2"/>
				</linearGradient>
				<path id="XMLID_2304_" class="st28" d="M418.01,173.29c-16.51-8.72-32.88-10.64-33.62-10.72l-0.6,2.44
					c0.17,0.02,15.69,1.86,31.17,9.95L418.01,173.29z"/>
				
					<linearGradient id="XMLID_30_" gradientUnits="userSpaceOnUse" x1="417.8942" y1="268.2245" x2="444.3624" y2="264.0616" gradientTransform="matrix(1 0 0 -1 0 452)">
					<stop  offset="0" style="stop-color:#2918DD"/>
					<stop  offset="1" style="stop-color:#13CEE2"/>
				</linearGradient>
				<path id="XMLID_2305_" class="st29" d="M421.97,175.52l-3.04,1.67c15.92,9.51,20.02,18.71,20.06,18.8l4.18-0.47
					C443,195.11,438.79,185.57,421.97,175.52z"/>
			</g>
			<g id="XMLID_2292_">
				
					<linearGradient id="XMLID_31_" gradientUnits="userSpaceOnUse" x1="272.6577" y1="262.4392" x2="311.4323" y2="256.3408" gradientTransform="matrix(1 0 0 -1 0 452)">
					<stop  offset="0" style="stop-color:#2918DD"/>
					<stop  offset="1" style="stop-color:#13CEE2"/>
				</linearGradient>
				<path id="XMLID_2293_" class="st30" d="M312.76,182.37c0.26-0.15,0.56-0.28,0.83-0.43l-3.13-1.8c-0.27,0.15-0.56,0.28-0.83,0.43
					l-37.9,21.92c-0.44,0.25-0.8,0.53-1.23,0.79l3.13,1.8c0.42-0.26,0.79-0.54,1.23-0.79L312.76,182.37z"/>
				
					<linearGradient id="XMLID_32_" gradientUnits="userSpaceOnUse" x1="394.076" y1="216.5452" x2="422.631" y2="212.0541" gradientTransform="matrix(1 0 0 -1 0 452)">
					<stop  offset="0" style="stop-color:#2918DD"/>
					<stop  offset="1" style="stop-color:#13CEE2"/>
				</linearGradient>
				<path id="XMLID_2307_" class="st31" d="M420.68,226.89c-2.96,3.83-7.05,7.41-12.43,10.52l-15.93,9.21l3.13,1.8l15.93-9.21
					c5.65-3.27,9.96-7.01,13.1-11.02L420.68,226.89z"/>
				
					<linearGradient id="XMLID_33_" gradientUnits="userSpaceOnUse" x1="315.5491" y1="281.4505" x2="418.7943" y2="265.2123" gradientTransform="matrix(1 0 0 -1 0 452)">
					<stop  offset="0" style="stop-color:#2918DD"/>
					<stop  offset="1" style="stop-color:#13CEE2"/>
				</linearGradient>
				<path id="XMLID_2308_" class="st32" d="M418.44,189.04c-2.8-2.46-6.04-4.81-9.8-6.99c-26.45-15.25-67.43-16.7-94.28-3.94
					l3.13,1.8c25.2-11.81,63.46-10.4,88.19,3.85c3.51,2.02,6.54,4.21,9.15,6.5L418.44,189.04z"/>
				
					<linearGradient id="XMLID_34_" gradientUnits="userSpaceOnUse" x1="415.4503" y1="244.7697" x2="431.1252" y2="242.3044" gradientTransform="matrix(1 0 0 -1 0 452)">
					<stop  offset="0" style="stop-color:#2918DD"/>
					<stop  offset="1" style="stop-color:#13CEE2"/>
				</linearGradient>
				<path id="XMLID_2309_" class="st33" d="M426.5,225.36c6.68-10.76,4.91-23.07-5.19-33.6l-3.62,1.23
					c9.27,9.73,10.93,21.07,4.96,31.04L426.5,225.36z"/>
				
					<linearGradient id="XMLID_35_" gradientUnits="userSpaceOnUse" x1="369.9823" y1="198.333" x2="390.7477" y2="195.0671" gradientTransform="matrix(1 0 0 -1 0 452)">
					<stop  offset="0" style="stop-color:#2918DD"/>
					<stop  offset="1" style="stop-color:#13CEE2"/>
				</linearGradient>
				<path id="XMLID_2310_" class="st34" d="M388.62,248.76l-18.27,10.57c-0.44,0.25-0.92,0.47-1.37,0.71l3.13,1.8
					c0.45-0.24,0.93-0.46,1.37-0.71l18.27-10.57L388.62,248.76z"/>
			</g>
			
				<linearGradient id="XMLID_36_" gradientUnits="userSpaceOnUse" x1="323.4587" y1="237.3155" x2="368.6715" y2="230.2045" gradientTransform="matrix(1 0 0 -1 0 452)">
				<stop  offset="0" style="stop-color:#2918DD"/>
				<stop  offset="1" style="stop-color:#13CEE2"/>
			</linearGradient>
			<path id="XMLID_2287_" class="st35" d="M366.55,206.4c-4.75-2.74-12.26-2.85-16.75-0.25l-20.3,11.74l1.93,1.11l1.2,0.69
				l20.3-11.74c2.86-1.65,7.64-1.58,10.66,0.16s3.15,4.5,0.3,6.16l-24.68,14.27c-2.86,1.65-7.64,1.58-10.66-0.16s-3.15-4.5-0.3-6.16
				l0.67-0.39l-0.62-0.37l-2.5-1.44l-0.68,0.39c-4.49,2.6-4.28,6.94,0.46,9.67c4.75,2.74,12.26,2.85,16.75,0.25l24.68-14.27
				C371.5,213.47,371.29,209.14,366.55,206.4z"/>
		</g>
	</g>
	<g id="_x31_">
		<g id="XMLID_2016_">
			
				<linearGradient id="XMLID_37_" gradientUnits="userSpaceOnUse" x1="660.1801" y1="164.7152" x2="660.1801" y2="164.7152" gradientTransform="matrix(1 0 0 -1 0 452)">
				<stop  offset="0" style="stop-color:#BA83FF"/>
				<stop  offset="1" style="stop-color:#B0A4E2"/>
			</linearGradient>
			<polygon id="XMLID_2017_" class="st36" points="660.18,287.29 660.18,287.28 660.18,287.28 			"/>
		</g>
	</g>
</g>
<line class="st37" x1="234.08" y1="454" x2="234.08" y2="450"/>
</svg>
