<?xml version="1.0" encoding="utf-8"?>
<!-- Generator: Adobe Illustrator 23.0.2, SVG Export Plug-In . SVG Version: 6.00 Build 0)  -->
<svg version="1.1" id="_x2014_ÎÓÈ_x5F_1" xmlns="http://www.w3.org/2000/svg" xmlns:xlink="http://www.w3.org/1999/xlink"
	 x="0px" y="0px" viewBox="0 0 600 450" style="enable-background:new 0 0 600 450;" xml:space="preserve">
<style type="text/css">
	.st0{opacity:0.2;}
	.st1{fill:#312A91;}
	.st2{opacity:0.5;fill:url(#SVGID_1_);enable-background:new    ;}
	.st3{fill:url(#SVGID_2_);}
	.st4{opacity:0.5;fill:url(#SVGID_3_);enable-background:new    ;}
	.st5{fill:#5CFFF3;}
	.st6{fill:#42E8E0;}
	.st7{opacity:0.5;fill:url(#SVGID_4_);enable-background:new    ;}
	.st8{opacity:0.8;fill:url(#SVGID_5_);enable-background:new    ;}
	.st9{fill:#FCCC6B;}
	.st10{opacity:0.5;fill:url(#SVGID_6_);enable-background:new    ;}
	.st11{fill:url(#SVGID_7_);}
	.st12{opacity:0.5;fill:url(#SVGID_8_);enable-background:new    ;}
	.st13{opacity:0.5;fill:url(#SVGID_9_);enable-background:new    ;}
	.st14{opacity:0.5;fill:url(#SVGID_10_);enable-background:new    ;}
	.st15{opacity:0.5;fill:url(#SVGID_11_);enable-background:new    ;}
	.st16{fill:url(#SVGID_12_);}
	.st17{opacity:0.5;fill:url(#SVGID_13_);enable-background:new    ;}
	.st18{opacity:0.5;fill:url(#SVGID_14_);enable-background:new    ;}
	.st19{opacity:0.5;fill:url(#SVGID_15_);enable-background:new    ;}
	.st20{opacity:0.5;fill:url(#SVGID_16_);enable-background:new    ;}
	.st21{fill:url(#SVGID_17_);}
	.st22{opacity:0.5;fill:url(#SVGID_18_);enable-background:new    ;}
	.st23{opacity:0.5;fill:url(#SVGID_19_);enable-background:new    ;}
	.st24{opacity:0.5;fill:url(#SVGID_20_);enable-background:new    ;}
</style>
<g>
	<g class="st0">
		<g>
			<g>
				<path class="st1" d="M430.47,363.34v-20.03h-51.66l-61.08-35.27c-8.15-4.71-22.39-4.11-31.81,1.32l-58.8,33.95h-51.7v21.16h0.05
					c-0.23,3.18,1.55,6.26,5.46,8.52l107.28,61.94c8.15,4.71,22.39,4.11,31.81-1.32l102.71-59.3
					C428.16,371.19,430.78,367.13,430.47,363.34z"/>
				
					<linearGradient id="SVGID_1_" gradientUnits="userSpaceOnUse" x1="119.0365" y1="80.5114" x2="374.1084" y2="80.5114" gradientTransform="matrix(1 0 0 -1 0 452)">
					<stop  offset="0" style="stop-color:#42E8E0"/>
					<stop  offset="0.1022" style="stop-color:#3CCACE"/>
					<stop  offset="0.3445" style="stop-color:#2F87A5"/>
					<stop  offset="0.564" style="stop-color:#255385"/>
					<stop  offset="0.7534" style="stop-color:#1E2D6E"/>
					<stop  offset="0.905" style="stop-color:#1A1660"/>
					<stop  offset="1" style="stop-color:#180D5B"/>
				</linearGradient>
				<path class="st2" d="M430.47,363.34v-20.03h-51.66l-61.08-35.27c-8.15-4.71-22.39-4.11-31.81,1.32l-58.8,33.95h-51.7v21.16h0.05
					c-0.23,3.18,1.55,6.26,5.46,8.52l107.28,61.94c8.15,4.71,22.39,4.11,31.81-1.32l102.71-59.3
					C428.16,371.19,430.78,367.13,430.47,363.34z"/>
				
					<linearGradient id="SVGID_2_" gradientUnits="userSpaceOnUse" x1="302.9595" y1="80.5083" x2="430.494" y2="80.5083" gradientTransform="matrix(1 0 0 -1 0 452)">
					<stop  offset="0" style="stop-color:#2B237C"/>
					<stop  offset="1" style="stop-color:#180D5B"/>
				</linearGradient>
				<path class="st3" d="M317.73,308.05c-3.92-2.26-9.25-3.29-14.77-3.15v133.2c5.97-0.14,12.17-1.64,17.05-4.47l102.71-59.3
					c5.43-3.14,8.05-7.19,7.75-10.97v-20.03h-51.66L317.73,308.05z"/>
				<path class="st1" d="M288.21,413.78l-107.28-61.94c-8.15-4.71-7.13-12.92,2.29-18.37l102.71-59.3
					c9.41-5.43,23.65-6.03,31.81-1.32l107.28,61.94c8.15,4.71,7.13,12.92-2.29,18.37l-102.71,59.3
					C310.6,417.89,296.36,418.48,288.21,413.78z"/>
				
					<linearGradient id="SVGID_3_" gradientUnits="userSpaceOnUse" x1="175.4225" y1="108.6807" x2="430.5146" y2="108.6807" gradientTransform="matrix(1 0 0 -1 0 452)">
					<stop  offset="0" style="stop-color:#42E8E0"/>
					<stop  offset="0.1022" style="stop-color:#3CCACE"/>
					<stop  offset="0.3445" style="stop-color:#2F87A5"/>
					<stop  offset="0.564" style="stop-color:#255385"/>
					<stop  offset="0.7534" style="stop-color:#1E2D6E"/>
					<stop  offset="0.905" style="stop-color:#1A1660"/>
					<stop  offset="1" style="stop-color:#180D5B"/>
				</linearGradient>
				<path class="st4" d="M288.21,413.78l-107.28-61.94c-8.15-4.71-7.13-12.92,2.29-18.37l102.71-59.3
					c9.41-5.43,23.65-6.03,31.81-1.32l107.28,61.94c8.15,4.71,7.13,12.92-2.29,18.37l-102.71,59.3
					C310.6,417.89,296.36,418.48,288.21,413.78z"/>
				<path class="st5" d="M291.07,400.09l-86.44-49.91c-6.57-3.8-5.75-10.41,1.84-14.8l82.75-47.78c7.58-4.37,19.05-4.85,25.62-1.07
					l86.44,49.91c6.57,3.8,5.75,10.41-1.84,14.8l-82.75,47.78C309.11,403.41,297.65,403.88,291.07,400.09z"/>
				<path class="st6" d="M206.48,341.87l82.75-47.78c7.58-4.37,19.06-4.85,25.62-1.07l86.44,49.91c1.62,0.94,2.79,2.04,3.52,3.25
					c1.91-3.51,0.8-7.23-3.52-9.73l-86.44-49.91c-6.57-3.8-18.04-3.32-25.62,1.07l-82.75,47.78c-5.71,3.3-7.58,7.86-5.36,11.54
					C202.1,345.12,203.88,343.36,206.48,341.87z"/>
				
					<linearGradient id="SVGID_4_" gradientUnits="userSpaceOnUse" x1="175.4135" y1="108.6756" x2="305.6077" y2="108.6756" gradientTransform="matrix(1 0 0 -1 0 452)">
					<stop  offset="0" style="stop-color:#42E8E0"/>
					<stop  offset="0.1022" style="stop-color:#3CCACE"/>
					<stop  offset="0.3445" style="stop-color:#2F87A5"/>
					<stop  offset="0.564" style="stop-color:#255385"/>
					<stop  offset="0.7534" style="stop-color:#1E2D6E"/>
					<stop  offset="0.905" style="stop-color:#1A1660"/>
					<stop  offset="1" style="stop-color:#180D5B"/>
				</linearGradient>
				<path class="st7" d="M291.81,413.78l-107.28-61.94c-8.15-4.71-10.1-11.62,2.29-18.37l102.71-59.3
					c4.63-2.68,10.42-4.17,16.09-4.45c-6.74-0.31-14.07,1.2-19.69,4.45l-102.71,59.3c-9.42,5.43-10.44,13.66-2.29,18.37
					l107.28,61.94c4.14,2.4,9.86,3.41,15.72,3.13C299.37,416.7,295.1,415.67,291.81,413.78z"/>
				
					<linearGradient id="SVGID_5_" gradientUnits="userSpaceOnUse" x1="210.1131" y1="34.4571" x2="423.6254" y2="174.0139" gradientTransform="matrix(1 0 0 -1 0 452)">
					<stop  offset="0" style="stop-color:#42E8E0"/>
					<stop  offset="0.1022" style="stop-color:#3CCACE"/>
					<stop  offset="0.3445" style="stop-color:#2F87A5"/>
					<stop  offset="0.564" style="stop-color:#255385"/>
					<stop  offset="0.7534" style="stop-color:#1E2D6E"/>
					<stop  offset="0.905" style="stop-color:#1A1660"/>
					<stop  offset="1" style="stop-color:#180D5B"/>
				</linearGradient>
				<path class="st8" d="M422.72,362.1l-102.71,59.3c-9.42,5.43-23.65,6.03-31.81,1.32l-107.28-61.94
					c-3.91-2.26-5.69-5.33-5.46-8.52h-0.05v4.38h0.05c-0.23,3.18,1.55,6.26,5.46,8.52l107.28,61.94c8.15,4.71,22.39,4.11,31.81-1.32
					l102.71-59.3c5.43-3.14,8.05-7.19,7.75-10.97v-4.38C430.78,354.91,428.16,358.97,422.72,362.1z"/>
			</g>
			<g>
				<path class="st9" d="M404.1,356.26c1.17,0.68,1.17,1.77,0,2.45s-3.07,0.68-4.24,0c-1.17-0.68-1.17-1.77,0-2.45
					C401.03,355.59,402.93,355.59,404.1,356.26z"/>
				<path class="st9" d="M410.7,352.45c1.17,0.68,1.17,1.77,0,2.45c-1.17,0.68-3.07,0.68-4.24,0c-1.17-0.68-1.17-1.77,0-2.45
					C407.63,351.77,409.53,351.77,410.7,352.45z"/>
				<path class="st9" d="M417.3,348.64c1.17,0.68,1.17,1.77,0,2.45c-1.17,0.68-3.07,0.68-4.24,0c-1.17-0.68-1.17-1.77,0-2.45
					C414.24,347.96,416.14,347.97,417.3,348.64z"/>
			</g>
		</g>
	</g>
</g>
<g>
	<g>
		<g>
			<path class="st1" d="M431.04,277.09v-20.05h-51.76l-61.22-35.35c-8.18-4.73-22.44-4.13-31.86,1.34l-58.93,34.03h-51.81v21.22
				h0.05c-0.25,3.21,1.54,6.29,5.47,8.53l107.53,62.09c8.18,4.73,22.44,4.1,31.86-1.34l102.93-59.42
				C428.73,284.98,431.32,280.87,431.04,277.09z"/>
			
				<linearGradient id="SVGID_6_" gradientUnits="userSpaceOnUse" x1="118.9324" y1="-173.2965" x2="374.5331" y2="-173.2965" gradientTransform="matrix(1 0 0 -1 0 112)">
				<stop  offset="0" style="stop-color:#42E8E0"/>
				<stop  offset="0.1022" style="stop-color:#3CCACE"/>
				<stop  offset="0.3445" style="stop-color:#2F87A5"/>
				<stop  offset="0.564" style="stop-color:#255385"/>
				<stop  offset="0.7534" style="stop-color:#1E2D6E"/>
				<stop  offset="0.905" style="stop-color:#1A1660"/>
				<stop  offset="1" style="stop-color:#180D5B"/>
			</linearGradient>
			<path class="st10" d="M431.04,277.09v-20.05h-51.76l-61.22-35.35c-8.18-4.73-22.44-4.13-31.86,1.34l-58.93,34.03h-51.81v21.22
				h0.05c-0.25,3.21,1.54,6.29,5.47,8.53l107.53,62.09c8.18,4.73,22.44,4.1,31.86-1.34l102.93-59.42
				C428.73,284.98,431.32,280.87,431.04,277.09z"/>
			
				<linearGradient id="SVGID_7_" gradientUnits="userSpaceOnUse" x1="303.2413" y1="-173.2686" x2="431.0423" y2="-173.2686" gradientTransform="matrix(1 0 0 -1 0 112)">
				<stop  offset="0" style="stop-color:#2B237C"/>
				<stop  offset="1" style="stop-color:#180D5B"/>
			</linearGradient>
			<path class="st11" d="M318.04,221.67c-3.93-2.26-9.28-3.28-14.8-3.13v133.47c5.99-0.17,12.19-1.64,17.09-4.48l102.93-59.42
				c5.45-3.13,8.06-7.21,7.76-10.99v-20.05h-51.76L318.04,221.67z"/>
			<path class="st1" d="M288.44,327.64l-107.53-62.09c-8.18-4.73-7.14-12.93,2.29-18.38l102.93-59.42
				c9.43-5.45,23.7-6.04,31.86-1.34l107.53,62.09c8.18,4.73,7.14,12.93-2.29,18.38L320.3,326.29
				C310.9,331.77,296.62,332.36,288.44,327.64z"/>
			
				<linearGradient id="SVGID_8_" gradientUnits="userSpaceOnUse" x1="175.3918" y1="-145.0281" x2="431.0411" y2="-145.0281" gradientTransform="matrix(1 0 0 -1 0 112)">
				<stop  offset="0" style="stop-color:#42E8E0"/>
				<stop  offset="0.1022" style="stop-color:#3CCACE"/>
				<stop  offset="0.3445" style="stop-color:#2F87A5"/>
				<stop  offset="0.564" style="stop-color:#255385"/>
				<stop  offset="0.7534" style="stop-color:#1E2D6E"/>
				<stop  offset="0.905" style="stop-color:#1A1660"/>
				<stop  offset="1" style="stop-color:#180D5B"/>
			</linearGradient>
			<path class="st12" d="M288.44,327.64l-107.53-62.09c-8.18-4.73-7.14-12.93,2.29-18.38l102.93-59.42
				c9.43-5.45,23.7-6.04,31.86-1.34l107.53,62.09c8.18,4.73,7.14,12.93-2.29,18.38L320.3,326.29
				C310.9,331.77,296.62,332.36,288.44,327.64z"/>
			<path class="st5" d="M291.35,313.91l-86.64-50c-6.59-3.81-5.77-10.45,1.84-14.82l82.93-47.88c7.61-4.38,19.1-4.88,25.69-1.07
				l86.64,50.02c6.59,3.81,5.77,10.45-1.84,14.82l-82.93,47.88C309.41,317.26,297.89,317.71,291.35,313.91z"/>
			<path class="st6" d="M206.56,255.58l82.93-47.88c7.61-4.38,19.1-4.88,25.69-1.07l86.64,50.02c1.62,0.95,2.79,2.04,3.51,3.26
				c1.92-3.51,0.82-7.24-3.51-9.73l-86.64-50.02c-6.59-3.81-18.08-3.33-25.69,1.07l-82.93,47.88c-5.75,3.31-7.61,7.89-5.37,11.57
				C202.18,258.83,203.97,257.07,206.56,255.58z"/>
			
				<linearGradient id="SVGID_9_" gradientUnits="userSpaceOnUse" x1="175.4018" y1="-145.0343" x2="305.8779" y2="-145.0343" gradientTransform="matrix(1 0 0 -1 0 112)">
				<stop  offset="0" style="stop-color:#42E8E0"/>
				<stop  offset="0.1022" style="stop-color:#3CCACE"/>
				<stop  offset="0.3445" style="stop-color:#2F87A5"/>
				<stop  offset="0.564" style="stop-color:#255385"/>
				<stop  offset="0.7534" style="stop-color:#1E2D6E"/>
				<stop  offset="0.905" style="stop-color:#1A1660"/>
				<stop  offset="1" style="stop-color:#180D5B"/>
			</linearGradient>
			<path class="st13" d="M292.07,327.64l-107.53-62.09c-8.18-4.73-10.15-11.64,2.29-18.38l102.93-59.42
				c4.65-2.69,10.45-4.18,16.12-4.45c-6.74-0.3-14.1,1.19-19.75,4.45L183.2,247.17c-9.43,5.45-10.45,13.66-2.29,18.38l107.53,62.09
				c4.13,2.39,9.88,3.41,15.75,3.13C299.63,330.57,295.36,329.55,292.07,327.64z"/>
			
				<linearGradient id="SVGID_10_" gradientUnits="userSpaceOnUse" x1="210.1989" y1="-219.4117" x2="424.1669" y2="-79.5569" gradientTransform="matrix(1 0 0 -1 0 112)">
				<stop  offset="0" style="stop-color:#42E8E0"/>
				<stop  offset="0.1022" style="stop-color:#3CCACE"/>
				<stop  offset="0.3445" style="stop-color:#2F87A5"/>
				<stop  offset="0.564" style="stop-color:#255385"/>
				<stop  offset="0.7534" style="stop-color:#1E2D6E"/>
				<stop  offset="0.905" style="stop-color:#1A1660"/>
				<stop  offset="1" style="stop-color:#180D5B"/>
			</linearGradient>
			<path class="st14" d="M423.26,275.85l-102.93,59.42c-9.43,5.45-23.7,6.04-31.86,1.34l-107.53-62.09
				c-3.93-2.26-5.7-5.32-5.47-8.53h-0.05v4.4h0.05c-0.25,3.21,1.54,6.29,5.47,8.53l107.53,62.09c8.18,4.73,22.44,4.13,31.86-1.34
				l102.93-59.42c5.45-3.13,8.06-7.21,7.76-10.99v-4.4C431.32,268.66,428.73,272.71,423.26,275.85z"/>
			<g>
				<path class="st9" d="M404.58,270.03c1.17,0.67,1.17,1.77,0,2.46c-1.17,0.7-3.08,0.67-4.23,0c-1.17-0.67-1.17-1.77,0-2.46
					C401.52,269.33,403.41,269.33,404.58,270.03z"/>
				<path class="st9" d="M411.22,266.2c1.17,0.67,1.17,1.77,0,2.46c-1.17,0.7-3.08,0.67-4.23,0c-1.17-0.67-1.17-1.77,0-2.46
					C408.16,265.5,410.05,265.5,411.22,266.2z"/>
				<ellipse class="st9" cx="415.72" cy="263.59" rx="3.01" ry="1.74"/>
			</g>
		</g>
		<g>
			<path class="st1" d="M431.04,192.72v-20.05h-51.76l-61.22-35.35c-8.18-4.73-22.44-4.13-31.86,1.34l-58.93,34.03h-51.81v21.22
				h0.05c-0.25,3.21,1.54,6.29,5.47,8.53l107.53,62.09c8.18,4.73,22.44,4.13,31.86-1.34l102.93-59.42
				C428.73,200.58,431.32,196.5,431.04,192.72z"/>
			
				<linearGradient id="SVGID_11_" gradientUnits="userSpaceOnUse" x1="118.9324" y1="-88.9278" x2="374.5331" y2="-88.9278" gradientTransform="matrix(1 0 0 -1 0 112)">
				<stop  offset="0" style="stop-color:#42E8E0"/>
				<stop  offset="0.1022" style="stop-color:#3CCACE"/>
				<stop  offset="0.3445" style="stop-color:#2F87A5"/>
				<stop  offset="0.564" style="stop-color:#255385"/>
				<stop  offset="0.7534" style="stop-color:#1E2D6E"/>
				<stop  offset="0.905" style="stop-color:#1A1660"/>
				<stop  offset="1" style="stop-color:#180D5B"/>
			</linearGradient>
			<path class="st15" d="M431.04,192.72v-20.05h-51.76l-61.22-35.35c-8.18-4.73-22.44-4.13-31.86,1.34l-58.93,34.03h-51.81v21.22
				h0.05c-0.25,3.21,1.54,6.29,5.47,8.53l107.53,62.09c8.18,4.73,22.44,4.13,31.86-1.34l102.93-59.42
				C428.73,200.58,431.32,196.5,431.04,192.72z"/>
			
				<linearGradient id="SVGID_12_" gradientUnits="userSpaceOnUse" x1="303.2413" y1="-88.8958" x2="431.0423" y2="-88.8958" gradientTransform="matrix(1 0 0 -1 0 112)">
				<stop  offset="0" style="stop-color:#2B237C"/>
				<stop  offset="1" style="stop-color:#180D5B"/>
			</linearGradient>
			<path class="st16" d="M318.04,137.3c-3.93-2.26-9.28-3.28-14.8-3.13v133.47c5.99-0.17,12.19-1.64,17.09-4.48l102.93-59.42
				c5.45-3.13,8.06-7.21,7.76-10.99V172.7h-51.76L318.04,137.3z"/>
			<path class="st1" d="M288.44,243.26l-107.53-62.09c-8.18-4.73-7.14-12.93,2.29-18.38l102.93-59.42
				c9.43-5.45,23.7-6.04,31.86-1.34l107.53,62.09c8.18,4.73,7.14,12.93-2.29,18.38L320.3,241.92
				C310.9,247.37,296.62,247.99,288.44,243.26z"/>
			
				<linearGradient id="SVGID_13_" gradientUnits="userSpaceOnUse" x1="175.3918" y1="-60.6511" x2="431.0411" y2="-60.6511" gradientTransform="matrix(1 0 0 -1 0 112)">
				<stop  offset="0" style="stop-color:#42E8E0"/>
				<stop  offset="0.1022" style="stop-color:#3CCACE"/>
				<stop  offset="0.3445" style="stop-color:#2F87A5"/>
				<stop  offset="0.564" style="stop-color:#255385"/>
				<stop  offset="0.7534" style="stop-color:#1E2D6E"/>
				<stop  offset="0.905" style="stop-color:#1A1660"/>
				<stop  offset="1" style="stop-color:#180D5B"/>
			</linearGradient>
			<path class="st17" d="M288.44,243.26l-107.53-62.09c-8.18-4.73-7.14-12.93,2.29-18.38l102.93-59.42
				c9.43-5.45,23.7-6.04,31.86-1.34l107.53,62.09c8.18,4.73,7.14,12.93-2.29,18.38L320.3,241.92
				C310.9,247.37,296.62,247.99,288.44,243.26z"/>
			<path class="st5" d="M291.35,229.53l-86.64-50.02c-6.59-3.81-5.77-10.45,1.84-14.82l82.93-47.88c7.61-4.38,19.1-4.88,25.69-1.07
				l86.64,50.02c6.59,3.81,5.77,10.45-1.84,14.82l-82.93,47.93C309.41,232.87,297.89,233.34,291.35,229.53z"/>
			<path class="st6" d="M206.56,171.2l82.93-47.88c7.61-4.38,19.1-4.88,25.69-1.07l86.64,50.02c1.62,0.95,2.79,2.04,3.51,3.26
				c1.92-3.51,0.82-7.24-3.51-9.73l-86.64-50.02c-6.59-3.81-18.08-3.33-25.69,1.07l-82.93,47.88c-5.75,3.31-7.61,7.89-5.37,11.57
				C202.18,174.46,203.97,172.7,206.56,171.2z"/>
			
				<linearGradient id="SVGID_14_" gradientUnits="userSpaceOnUse" x1="175.4018" y1="-60.6615" x2="305.8779" y2="-60.6615" gradientTransform="matrix(1 0 0 -1 0 112)">
				<stop  offset="0" style="stop-color:#42E8E0"/>
				<stop  offset="0.1022" style="stop-color:#3CCACE"/>
				<stop  offset="0.3445" style="stop-color:#2F87A5"/>
				<stop  offset="0.564" style="stop-color:#255385"/>
				<stop  offset="0.7534" style="stop-color:#1E2D6E"/>
				<stop  offset="0.905" style="stop-color:#1A1660"/>
				<stop  offset="1" style="stop-color:#180D5B"/>
			</linearGradient>
			<path class="st18" d="M292.07,243.26l-107.53-62.09c-8.18-4.73-10.15-11.64,2.29-18.38l102.93-59.42
				c4.65-2.69,10.45-4.18,16.12-4.45c-6.74-0.3-14.1,1.19-19.75,4.45L183.2,162.8c-9.43,5.45-10.45,13.66-2.29,18.38l107.53,62.09
				c4.13,2.39,9.88,3.41,15.75,3.13C299.63,246.17,295.36,245.15,292.07,243.26z"/>
			
				<linearGradient id="SVGID_15_" gradientUnits="userSpaceOnUse" x1="210.2028" y1="-135.0321" x2="424.1707" y2="4.8226" gradientTransform="matrix(1 0 0 -1 0 112)">
				<stop  offset="0" style="stop-color:#42E8E0"/>
				<stop  offset="0.1022" style="stop-color:#3CCACE"/>
				<stop  offset="0.3445" style="stop-color:#2F87A5"/>
				<stop  offset="0.564" style="stop-color:#255385"/>
				<stop  offset="0.7534" style="stop-color:#1E2D6E"/>
				<stop  offset="0.905" style="stop-color:#1A1660"/>
				<stop  offset="1" style="stop-color:#180D5B"/>
			</linearGradient>
			<path class="st19" d="M423.26,191.48L320.33,250.9c-9.43,5.45-23.7,6.04-31.86,1.34l-107.53-62.09c-3.93-2.26-5.7-5.32-5.47-8.53
				h-0.05v4.4h0.05c-0.25,3.21,1.54,6.29,5.47,8.53l107.53,62.09c8.18,4.73,22.44,4.13,31.86-1.34l102.95-59.45
				c5.45-3.13,8.06-7.21,7.76-10.99v-4.4C431.32,184.29,428.73,188.34,423.26,191.48z"/>
			<g>
				<path class="st9" d="M404.58,185.63c1.17,0.67,1.17,1.77,0,2.46c-1.17,0.67-3.08,0.67-4.23,0c-1.17-0.67-1.17-1.77,0-2.46
					C401.52,184.96,403.41,184.96,404.58,185.63z"/>
				<path class="st9" d="M411.22,181.8c1.17,0.67,1.17,1.77,0,2.46c-1.17,0.67-3.08,0.67-4.23,0c-1.17-0.67-1.17-1.77,0-2.46
					C408.14,181.13,410.05,181.13,411.22,181.8z"/>
				<ellipse class="st9" cx="415.72" cy="179.19" rx="3.01" ry="1.74"/>
			</g>
		</g>
		<g>
			<path class="st1" d="M431.04,108.35V88.3h-51.76l-61.22-35.35c-8.18-4.73-22.44-4.13-31.86,1.34l-58.93,34.03h-51.81v21.22h0.05
				c-0.25,3.21,1.54,6.29,5.47,8.53l107.53,62.09c8.18,4.73,22.44,4.1,31.86-1.34l102.93-59.42
				C428.73,116.21,431.32,112.1,431.04,108.35z"/>
			
				<linearGradient id="SVGID_16_" gradientUnits="userSpaceOnUse" x1="118.9324" y1="-4.5508" x2="374.5331" y2="-4.5508" gradientTransform="matrix(1 0 0 -1 0 112)">
				<stop  offset="0" style="stop-color:#42E8E0"/>
				<stop  offset="0.1022" style="stop-color:#3CCACE"/>
				<stop  offset="0.3445" style="stop-color:#2F87A5"/>
				<stop  offset="0.564" style="stop-color:#255385"/>
				<stop  offset="0.7534" style="stop-color:#1E2D6E"/>
				<stop  offset="0.905" style="stop-color:#1A1660"/>
				<stop  offset="1" style="stop-color:#180D5B"/>
			</linearGradient>
			<path class="st20" d="M431.04,108.35V88.3h-51.76l-61.22-35.35c-8.18-4.73-22.44-4.13-31.86,1.34l-58.93,34.03h-51.81v21.22h0.05
				c-0.25,3.21,1.54,6.29,5.47,8.53l107.53,62.09c8.18,4.73,22.44,4.1,31.86-1.34l102.93-59.42
				C428.73,116.21,431.32,112.1,431.04,108.35z"/>
			
				<linearGradient id="SVGID_17_" gradientUnits="userSpaceOnUse" x1="303.2413" y1="-4.523" x2="431.0423" y2="-4.523" gradientTransform="matrix(1 0 0 -1 0 112)">
				<stop  offset="0" style="stop-color:#2B237C"/>
				<stop  offset="1" style="stop-color:#180D5B"/>
			</linearGradient>
			<path class="st21" d="M318.04,52.93c-3.93-2.26-9.28-3.28-14.8-3.13v133.47c5.99-0.17,12.19-1.64,17.09-4.48l102.93-59.42
				c5.45-3.13,8.06-7.21,7.76-10.99V88.32h-51.76L318.04,52.93z"/>
			<path class="st1" d="M288.44,158.87L180.91,96.78c-8.18-4.73-7.14-12.93,2.29-18.38l102.93-59.42c9.43-5.45,23.7-6.04,31.86-1.34
				l107.53,62.09c8.18,4.73,7.14,12.93-2.29,18.38L320.3,157.52C310.9,162.99,296.62,163.59,288.44,158.87z"/>
			
				<linearGradient id="SVGID_18_" gradientUnits="userSpaceOnUse" x1="175.3918" y1="23.7424" x2="431.0411" y2="23.7424" gradientTransform="matrix(1 0 0 -1 0 112)">
				<stop  offset="0" style="stop-color:#42E8E0"/>
				<stop  offset="0.1022" style="stop-color:#3CCACE"/>
				<stop  offset="0.3445" style="stop-color:#2F87A5"/>
				<stop  offset="0.564" style="stop-color:#255385"/>
				<stop  offset="0.7534" style="stop-color:#1E2D6E"/>
				<stop  offset="0.905" style="stop-color:#1A1660"/>
				<stop  offset="1" style="stop-color:#180D5B"/>
			</linearGradient>
			<path class="st22" d="M288.44,158.87L180.91,96.78c-8.18-4.73-7.14-12.93,2.29-18.38l102.93-59.42
				c9.43-5.45,23.7-6.04,31.86-1.34l107.53,62.09c8.18,4.73,7.14,12.93-2.29,18.38L320.3,157.52
				C310.9,162.99,296.62,163.59,288.44,158.87z"/>
			<path class="st5" d="M291.35,145.14l-86.64-50.02c-6.59-3.81-5.77-10.45,1.84-14.82l82.93-47.88c7.61-4.38,19.1-4.88,25.69-1.07
				l86.64,50.02c6.59,3.81,5.77,10.45-1.84,14.82l-82.93,47.88C309.41,148.47,297.89,148.97,291.35,145.14z"/>
			<path class="st6" d="M206.56,86.83l82.93-47.88c7.61-4.38,19.1-4.88,25.69-1.07l86.64,50.02c1.62,0.95,2.79,2.04,3.51,3.26
				c1.92-3.51,0.82-7.24-3.51-9.73l-86.64-50.05c-6.59-3.81-18.08-3.33-25.69,1.07l-82.93,47.88c-5.75,3.31-7.61,7.89-5.37,11.57
				C202.18,90.06,203.97,88.3,206.56,86.83z"/>
			
				<linearGradient id="SVGID_19_" gradientUnits="userSpaceOnUse" x1="175.4018" y1="23.7362" x2="305.8779" y2="23.7362" gradientTransform="matrix(1 0 0 -1 0 112)">
				<stop  offset="0" style="stop-color:#42E8E0"/>
				<stop  offset="0.1022" style="stop-color:#3CCACE"/>
				<stop  offset="0.3445" style="stop-color:#2F87A5"/>
				<stop  offset="0.564" style="stop-color:#255385"/>
				<stop  offset="0.7534" style="stop-color:#1E2D6E"/>
				<stop  offset="0.905" style="stop-color:#1A1660"/>
				<stop  offset="1" style="stop-color:#180D5B"/>
			</linearGradient>
			<path class="st23" d="M292.07,158.87L184.54,96.78c-8.18-4.73-10.15-11.64,2.29-18.38l102.93-59.42
				c4.65-2.69,10.45-4.18,16.12-4.45c-6.74-0.3-14.1,1.19-19.75,4.45L183.2,78.4c-9.43,5.45-10.45,13.66-2.29,18.38l107.53,62.09
				c4.13,2.39,9.88,3.41,15.75,3.13C299.63,161.8,295.36,160.78,292.07,158.87z"/>
			
				<linearGradient id="SVGID_20_" gradientUnits="userSpaceOnUse" x1="210.2101" y1="-50.6588" x2="424.178" y2="89.1961" gradientTransform="matrix(1 0 0 -1 0 112)">
				<stop  offset="0" style="stop-color:#42E8E0"/>
				<stop  offset="0.1022" style="stop-color:#3CCACE"/>
				<stop  offset="0.3445" style="stop-color:#2F87A5"/>
				<stop  offset="0.564" style="stop-color:#255385"/>
				<stop  offset="0.7534" style="stop-color:#1E2D6E"/>
				<stop  offset="0.905" style="stop-color:#1A1660"/>
				<stop  offset="1" style="stop-color:#180D5B"/>
			</linearGradient>
			<path class="st24" d="M423.26,107.08L320.33,166.5c-9.43,5.45-23.7,6.04-31.86,1.34l-107.53-62.06c-3.93-2.26-5.7-5.32-5.47-8.53
				h-0.05v4.4h0.05c-0.25,3.21,1.54,6.29,5.47,8.53l107.53,62.09c8.18,4.73,22.44,4.1,31.86-1.34l102.93-59.42
				c5.45-3.13,8.06-7.21,7.76-10.99v-4.4C431.32,99.89,428.73,103.97,423.26,107.08z"/>
			<g>
				<path class="st9" d="M404.58,101.23c1.17,0.67,1.17,1.77,0,2.46c-1.17,0.67-3.08,0.67-4.23,0c-1.17-0.67-1.17-1.77,0-2.46
					C401.52,100.56,403.41,100.56,404.58,101.23z"/>
				<path class="st9" d="M411.22,97.4c1.17,0.67,1.17,1.77,0,2.46c-1.17,0.67-3.08,0.67-4.23,0c-1.17-0.67-1.17-1.77,0-2.46
					C408.14,96.73,410.05,96.73,411.22,97.4z"/>
				<ellipse class="st9" cx="415.72" cy="94.82" rx="3.01" ry="1.74"/>
			</g>
		</g>
		<g>
			<path class="st9" d="M206.53,326.94c-1.64,0-3.26-0.45-4.78-1.29c-2.96-1.72-4.78-4.78-4.78-8.23V178.34
				c0-10.52,5.65-20.32,14.78-25.6l23.98-13.83c0.82-0.47,1.82-0.17,2.29,0.62c0.47,0.82,0.17,1.82-0.62,2.29l-23.98,13.83
				c-8.06,4.68-13.08,13.33-13.08,22.66v139.07c0,2.21,1.14,4.23,3.08,5.32c1.92,1.12,4.23,1.12,6.14,0l26.17-15.1
				c0.82-0.47,1.82-0.17,2.29,0.62c0.47,0.82,0.17,1.82-0.62,2.29l-26.17,15.1C209.81,326.52,208.17,326.94,206.53,326.94z"/>
			<path class="st9" d="M198.7,248.09c-0.55,0-1.07-0.27-1.37-0.8c-0.45-0.75-0.17-1.69,0.57-2.14l37.91-21.89
				c0.75-0.42,1.69-0.17,2.14,0.57c0.45,0.75,0.17,1.69-0.57,2.14l-37.91,21.89C199.22,248.01,198.97,248.09,198.7,248.09z"/>
		</g>
		<g>
			<path class="st9" d="M400.2,326.94c-1.64,0-3.26-0.45-4.78-1.29l-26.17-15.1c-0.82-0.47-1.09-1.49-0.62-2.29
				c0.47-0.8,1.49-1.09,2.29-0.62l26.17,15.1c1.92,1.12,4.23,1.12,6.14,0c1.92-1.12,3.08-3.11,3.08-5.32V178.34
				c0-9.33-5-18.01-13.08-22.66l-23.98-13.83c-0.82-0.47-1.09-1.49-0.62-2.29c0.47-0.82,1.49-1.09,2.29-0.62l23.98,13.83
				c9.13,5.27,14.78,15.07,14.78,25.6v139.07c0,3.46-1.77,6.52-4.78,8.23C403.48,326.52,401.84,326.94,400.2,326.94z"/>
			<path class="st9" d="M408.04,248.09c-0.27,0-0.55-0.07-0.8-0.2L369.33,226c-0.75-0.45-1.02-1.37-0.57-2.14
				c0.45-0.77,1.37-0.99,2.14-0.57l37.91,21.89c0.75,0.45,1.02,1.37,0.57,2.14C409.08,247.79,408.58,248.09,408.04,248.09z"/>
		</g>
	</g>
</g>
</svg>
