<svg id="Layer_1" data-name="Layer 1" xmlns="http://www.w3.org/2000/svg" viewBox="0 0 400 287.33"><defs><style>.cls-1{fill:#afafaf;}.cls-2{fill:#15cbb9;}.cls-3{fill:#bec0c2;}.cls-4{fill:#727272;}</style></defs><title>specialized infrastructure</title><path class="cls-1" d="M23.67,49.94V36.36h2l4.46,12h0l4.38-12h1.94V49.94H35.16V37.84h0l-4.45,12.1H29.46L25,37.84h0v12.1Z"/><path class="cls-1" d="M39.85,38V36.36H41.1V38Zm.06,11.9V40.17H41v9.77Z"/><path class="cls-1" d="M45.53,49.94H44.4V40.17h1.13v1.36a4.13,4.13,0,0,1,3.15-1.62,3.41,3.41,0,0,1,3,1.4,3.71,3.71,0,0,1,.49,2.24v6.39H51V43.57c0-1.75-.72-2.64-2.53-2.64a2.85,2.85,0,0,0-2.72,1.9,5.21,5.21,0,0,0-.24,1.85Z"/><path class="cls-1" d="M56.05,45.32c0,2.12,1.11,3.87,3.28,3.87a2.86,2.86,0,0,0,3-2.24h1.27a4.1,4.1,0,0,1-4.23,3.26c-3.13,0-4.49-2.23-4.49-5.11s1.7-5.19,4.49-5.19,4.32,1.91,4.3,5.41Zm6.38-.94c0-1.9-1.06-3.45-3.1-3.45s-3,1.6-3.28,3.45Z"/><path class="cls-1" d="M67.5,49.94H66.37V40.17H67.5V42h0a2.94,2.94,0,0,1,3.18-2.09v1.23c-2.54-.06-3.22,1.83-3.22,4Z"/><path class="cls-1" d="M13.83,124c.21,2.43,1.83,3.32,3.9,3.32,2.44,0,3.46-1.32,3.46-2.81,0-4.21-8.28-1.42-8.28-6.75,0-1.89,1.56-3.65,4.6-3.65s4.58,1.85,4.56,4.06H20.85c0-2.07-1.61-3-3.34-3-2.61,0-3.55,1.6-3.32,3,.58,3.51,8.28,1,8.28,6.24,0,2.49-1.83,4-5,4-2.83,0-4.92-1.47-4.92-4.41Z"/><path class="cls-1" d="M25.13,128.08V114.5h1.13v5.17a4.13,4.13,0,0,1,3.15-1.62,3.43,3.43,0,0,1,3,1.39,3.75,3.75,0,0,1,.49,2.25v6.39H31.75v-6.37c0-1.76-.72-2.64-2.53-2.64A2.85,2.85,0,0,0,26.5,121a5.21,5.21,0,0,0-.24,1.85v5.26Z"/><path class="cls-1" d="M40.57,122.39a5.74,5.74,0,0,0,1.49-.32c.38-.17.42-.68.42-1,0-1.15-.68-2-2.44-2-1.56,0-2.64.51-2.85,2.2H36c.17-2.3,1.89-3.22,4-3.22,2,0,3.55.77,3.55,3v5.32c0,.88.22,1.09,1.19.75v.89a3.46,3.46,0,0,1-.89.18,2.1,2.1,0,0,1-.51,0c-.75-.12-.89-.78-.9-1.45a4.84,4.84,0,0,1-3.65,1.62c-1.71,0-3.26-.93-3.26-2.81,0-1.64,1.13-2.64,3.42-3Zm1.91.56a9.42,9.42,0,0,1-2.93.55c-1.71.13-2.75.75-2.75,2.07a1.87,1.87,0,0,0,2.11,1.76c1.79,0,3.57-.87,3.57-2.85Z"/><path class="cls-1" d="M48.23,128.08H47.09v-9.77h1.14v1.83h0a3,3,0,0,1,3.19-2.09v1.23c-2.54-.06-3.22,1.83-3.22,4Z"/><path class="cls-1" d="M61.33,114.5h1.14v13.58H61.33v-1.71h0a3.94,3.94,0,0,1-3.4,2c-3.15,0-4.41-2.25-4.41-5.13s1.37-5.17,4.35-5.17a4,4,0,0,1,3.49,1.83ZM58,119.07c-2.34,0-3.43,2-3.34,4.43s1.44,3.83,3.34,3.83c2.13,0,3.3-1.81,3.3-4.17C61.33,121,60.09,119.07,58,119.07Z"/><path class="cls-1" d="M66.48,123.46c0,2.11,1.11,3.87,3.28,3.87a2.86,2.86,0,0,0,3-2.25H74a4.1,4.1,0,0,1-4.23,3.27c-3.13,0-4.49-2.23-4.49-5.11s1.7-5.19,4.49-5.19,4.32,1.9,4.3,5.41Zm6.38-.94c0-1.91-1.06-3.45-3.1-3.45s-3.05,1.6-3.28,3.45Z"/><path class="cls-1" d="M77.93,128.08H76.79v-9.77h1.14v1.83h0a3,3,0,0,1,3.19-2.09v1.23c-2.54-.06-3.22,1.83-3.22,4Z"/><path class="cls-1" d="M13.3,207V193.45h4.91c3.18,0,4.45,1.38,4.45,3.42a2.66,2.66,0,0,1-2.17,2.92v0a3.11,3.11,0,0,1,2.79,3.38c0,2.83-1.85,3.83-4.43,3.83Zm1.28-7.59h3.25c2.68,0,3.55-.94,3.55-2.58s-1-2.32-3.83-2.32h-3Zm0,6.49h3.27c2.83,0,4.15-.38,4.15-2.73s-1.59-2.66-4-2.66H14.58Z"/><path class="cls-1" d="M26.35,207V193.45h1.13V207Z"/><path class="cls-1" d="M30.2,202.15c0-2.85,1.51-5.15,4.52-5.15s4.53,2.28,4.53,5.15c0,3.09-1.79,5.15-4.53,5.15C32.23,207.26,30.2,205.56,30.2,202.15ZM34.72,198c-2.37,0-3.32,2-3.32,4.13,0,2.43,1.16,4.13,3.32,4.13,2.38,0,3.32-2,3.32-4.13C38,199.85,37.12,198,34.72,198Z"/><path class="cls-1" d="M43.06,207H41.93V193.45h1.13v5.38A4.06,4.06,0,0,1,46.55,197c3,0,4.36,2.43,4.36,5.17s-1.27,5.13-4.42,5.13a3.94,3.94,0,0,1-3.39-2h0Zm3.3-.76c1.9,0,3.32-1.38,3.34-3.83s-1-4.43-3.34-4.43c-2.06,0-3.3,1.89-3.3,4.09C43.06,204.47,44.23,206.28,46.36,206.28Z"/><path class="cls-1" d="M55.05,207H53.92V193.45h1.13v5.38A4.06,4.06,0,0,1,58.54,197c3,0,4.36,2.43,4.36,5.17s-1.27,5.13-4.42,5.13a3.94,3.94,0,0,1-3.39-2h0Zm3.3-.76c1.91,0,3.32-1.38,3.34-3.83s-1-4.43-3.34-4.43c-2.05,0-3.3,1.89-3.3,4.09C55.05,204.47,56.22,206.28,58.35,206.28Z"/><path class="cls-1" d="M66.48,202.41c0,2.12,1.11,3.87,3.28,3.87a2.86,2.86,0,0,0,3-2.24H74a4.1,4.1,0,0,1-4.23,3.26c-3.13,0-4.49-2.23-4.49-5.11S67,197,69.76,197s4.32,1.91,4.3,5.41Zm6.37-.94c0-1.9-1-3.45-3.09-3.45s-3.05,1.6-3.28,3.45Z"/><path class="cls-1" d="M77.93,207H76.79v-9.78h1.14v1.83h0A3,3,0,0,1,81.15,197v1.23c-2.54-.06-3.22,1.83-3.22,4Z"/><path class="cls-1" d="M215.34,40.31c-.53-2.32-2-3.21-4.28-3.21-3.28,0-4.7,2.81-4.7,6,0,3,1.12,6.09,4.82,6.09,2.33,0,3.79-1.59,4.3-3.74h1.33c-.6,2.63-2.24,4.83-5.88,4.83-4.19,0-5.85-3.3-5.85-7.15,0-5.18,2.72-7.14,6.32-7.14,2.79,0,4.83,1.49,5.26,4.3Z"/><path class="cls-1" d="M219,45.06c0-2.85,1.51-5.15,4.53-5.15S228,42.19,228,45.06c0,3.09-1.79,5.15-4.52,5.15C221,50.17,219,48.47,219,45.06Zm4.53-4.13c-2.38,0-3.32,2-3.32,4.13,0,2.43,1.15,4.13,3.32,4.13,2.37,0,3.32-2,3.32-4.13C226.81,42.76,225.9,40.93,223.51,40.93Z"/><path class="cls-1" d="M231.71,49.94h-1.13V40.17h1.13v1.36a4.13,4.13,0,0,1,3.15-1.62,3.41,3.41,0,0,1,3,1.4,3.71,3.71,0,0,1,.49,2.24v6.39H237.2V43.57c0-1.75-.72-2.64-2.53-2.64a2.85,2.85,0,0,0-2.72,1.9,5.21,5.21,0,0,0-.24,1.85Z"/><path class="cls-1" d="M242.19,46.89a2.56,2.56,0,0,0,2.93,2.3c1.64,0,2.41-.87,2.41-1.81,0-2.83-6.26-.83-6.26-4.68,0-1.62,1.26-2.79,3.43-2.79s3.49.87,3.77,3.07h-1.15c-.2-1.5-1.22-2-2.64-2s-2.2.68-2.2,1.68c0,2.66,6.26,1,6.26,4.75,0,1.87-1.68,2.85-4,2.85A3.44,3.44,0,0,1,241,46.89Z"/><path class="cls-1" d="M252.13,45.32c0,2.12,1.11,3.87,3.28,3.87a2.85,2.85,0,0,0,3-2.24h1.27a4.1,4.1,0,0,1-4.23,3.26c-3.13,0-4.49-2.23-4.49-5.11s1.7-5.19,4.49-5.19,4.32,1.91,4.3,5.41Zm6.38-.94c0-1.9-1.06-3.45-3.1-3.45s-3,1.6-3.28,3.45Z"/><path class="cls-1" d="M263.52,49.94h-1.13V40.17h1.13v1.36a4.15,4.15,0,0,1,3.15-1.62,3.41,3.41,0,0,1,3,1.4,3.71,3.71,0,0,1,.49,2.24v6.39H269V43.57c0-1.75-.72-2.64-2.53-2.64a2.85,2.85,0,0,0-2.71,1.9,5,5,0,0,0-.25,1.85Z"/><path class="cls-1" d="M274,46.89a2.55,2.55,0,0,0,2.92,2.3c1.64,0,2.41-.87,2.41-1.81,0-2.83-6.26-.83-6.26-4.68,0-1.62,1.27-2.79,3.44-2.79s3.48.87,3.77,3.07h-1.15c-.21-1.5-1.23-2-2.64-2s-2.21.68-2.21,1.68c0,2.66,6.26,1,6.26,4.75,0,1.87-1.68,2.85-4,2.85a3.42,3.42,0,0,1-3.71-3.32Z"/><path class="cls-1" d="M289.87,40.17H291v9.77h-1.13V48.59a3.92,3.92,0,0,1-3.15,1.62c-2.61,0-3.47-1.57-3.47-3.6V40.17h1.13v6.42c0,1.68.73,2.6,2.51,2.6s3-1.55,3-3.7Z"/><path class="cls-1" d="M294.86,46.89a2.56,2.56,0,0,0,2.93,2.3c1.64,0,2.41-.87,2.41-1.81,0-2.83-6.26-.83-6.26-4.68,0-1.62,1.26-2.79,3.43-2.79s3.49.87,3.77,3.07H300c-.2-1.5-1.22-2-2.64-2s-2.2.68-2.2,1.68c0,2.66,6.26,1,6.26,4.75,0,1.87-1.68,2.85-4,2.85a3.44,3.44,0,0,1-3.72-3.32Z"/><path class="cls-1" d="M206.23,122.14c.21,2.44,1.83,3.32,3.91,3.32,2.43,0,3.45-1.32,3.45-2.81,0-4.2-8.28-1.41-8.28-6.75,0-1.89,1.56-3.64,4.6-3.64s4.58,1.85,4.57,4h-1.23c0-2.07-1.6-3-3.34-3-2.6,0-3.55,1.61-3.32,3,.59,3.51,8.28,1,8.28,6.25,0,2.49-1.83,4-5,4-2.83,0-4.92-1.47-4.92-4.42Z"/><path class="cls-1" d="M221,126.24a5.8,5.8,0,0,1-1.3.22c-1.11,0-1.74-.49-1.74-1.94v-7.15h-1.37v-.94h1.37v-2.72h1.14v2.72h1.83v.94h-1.83v6.7c0,1,0,1.37,1,1.37a3.65,3.65,0,0,0,.92-.13Z"/><path class="cls-1" d="M222.6,121.31c0-2.85,1.51-5.15,4.53-5.15s4.52,2.29,4.52,5.15c0,3.1-1.79,5.15-4.52,5.15C224.64,126.42,222.6,124.73,222.6,121.31Zm4.53-4.13c-2.38,0-3.32,2-3.32,4.13,0,2.44,1.15,4.13,3.32,4.13,2.37,0,3.32-2,3.32-4.13C230.43,119,229.52,117.18,227.13,117.18Z"/><path class="cls-1" d="M235.39,126.2h-1.14v-9.77h1.14v1.83h0a3,3,0,0,1,3.19-2.1v1.23c-2.54-.06-3.22,1.83-3.22,4Z"/><path class="cls-1" d="M241.65,121.58c0,2.11,1.11,3.86,3.28,3.86a2.86,2.86,0,0,0,3-2.24h1.26a4.07,4.07,0,0,1-4.22,3.26c-3.13,0-4.49-2.22-4.49-5.11s1.7-5.19,4.49-5.19,4.32,1.91,4.3,5.42Zm6.37-1c0-1.9-1.05-3.45-3.09-3.45s-3.06,1.61-3.28,3.45Z"/><path class="cls-1" d="M258.88,126.2h-1.13V112.62h1.13V118a4.1,4.1,0,0,1,3.49-1.83c3,0,4.36,2.44,4.36,5.17,0,2.89-1.27,5.13-4.42,5.13a3.94,3.94,0,0,1-3.39-2h0Zm3.3-.76c1.91,0,3.32-1.37,3.34-3.83s-1-4.43-3.34-4.43c-2.05,0-3.3,1.89-3.3,4.09C258.88,123.63,260.05,125.44,262.18,125.44Z"/><path class="cls-1" d="M269.78,126.2V112.62h1.13V126.2Z"/><path class="cls-1" d="M273.63,121.31c0-2.85,1.51-5.15,4.53-5.15s4.52,2.29,4.52,5.15c0,3.1-1.79,5.15-4.52,5.15C275.67,126.42,273.63,124.73,273.63,121.31Zm4.53-4.13c-2.38,0-3.32,2-3.32,4.13,0,2.44,1.15,4.13,3.32,4.13,2.37,0,3.32-2,3.32-4.13C281.46,119,280.55,117.18,278.16,117.18Z"/><path class="cls-1" d="M292.15,119.5a2.87,2.87,0,0,0-2.91-2.32c-2.32,0-3.28,2.11-3.28,4.15s1,4.11,3.28,4.11a2.86,2.86,0,0,0,3-2.62h1.21a4,4,0,0,1-4.21,3.64c-3.11,0-4.48-2.24-4.48-5.13,0-2.71,1.56-5.17,4.48-5.17,2.25,0,3.72,1.08,4.06,3.34Z"/><path class="cls-1" d="M296.11,126.2V112.62h1.13v8.45l4.79-4.64h1.55L299.92,120,304,126.2h-1.26l-3.66-5.45-1.85,1.75v3.7Z"/><path class="cls-1" d="M306.74,123.14a2.56,2.56,0,0,0,2.93,2.3c1.64,0,2.41-.86,2.41-1.81,0-2.83-6.26-.83-6.26-4.67,0-1.63,1.26-2.8,3.43-2.8s3.49.87,3.77,3.08h-1.15c-.2-1.51-1.22-2.06-2.64-2.06s-2.2.68-2.2,1.68c0,2.66,6.26,1,6.26,4.75,0,1.87-1.68,2.85-4,2.85a3.44,3.44,0,0,1-3.72-3.32Z"/><path class="cls-1" d="M206.27,138.55v4.62h-1V133h4c2.23,0,3.46.79,3.46,2.67a2.39,2.39,0,0,1-1.65,2.49c1.2.41,1.27,1.68,1.3,2.76,0,1.54.17,2,.42,2.16v.1h-1.06c-.39-.69-.3-2.6-.45-3.38-.23-1.1-1.06-1.24-2-1.24Zm3-.83c1.43,0,2.53-.59,2.53-2s-1.19-1.89-2.47-1.89h-3.06v3.91Z"/><path class="cls-1" d="M215.51,139.7c0,1.59.83,2.9,2.46,2.9a2.14,2.14,0,0,0,2.22-1.68h.94a3.06,3.06,0,0,1-3.16,2.45c-2.35,0-3.37-1.67-3.37-3.84s1.27-3.88,3.37-3.88,3.24,1.42,3.22,4Zm4.78-.7a2.32,2.32,0,0,0-2.32-2.59c-1.5,0-2.3,1.2-2.46,2.59Z"/><path class="cls-1" d="M223.69,140.88a1.91,1.91,0,0,0,2.2,1.72c1.23,0,1.81-.65,1.81-1.35,0-2.13-4.7-.63-4.7-3.51,0-1.22.95-2.09,2.58-2.09s2.61.65,2.82,2.3h-.86c-.15-1.13-.92-1.54-2-1.54s-1.65.51-1.65,1.26c0,2,4.69.75,4.69,3.56,0,1.4-1.26,2.14-3,2.14a2.58,2.58,0,0,1-2.79-2.49Z"/><path class="cls-1" d="M231.57,146.05h-.85V135.84h.85v1.29h0a3,3,0,0,1,2.55-1.48c2.36,0,3.3,1.68,3.3,3.84s-1,3.88-3.26,3.88a3.06,3.06,0,0,1-2.62-1.37Zm2.48-3.45c1.75,0,2.57-1.48,2.5-3.32s-1.07-2.87-2.5-2.87c-1.6,0-2.48,1.36-2.48,3.12S232.51,142.6,234.05,142.6Z"/><path class="cls-1" d="M239.14,139.51c0-2.14,1.13-3.86,3.39-3.86s3.4,1.71,3.4,3.86c0,2.32-1.35,3.86-3.4,3.86C240.67,143.34,239.14,142.07,239.14,139.51Zm3.39-3.1c-1.78,0-2.49,1.51-2.49,3.1,0,1.82.87,3.09,2.49,3.09,1.78,0,2.49-1.52,2.49-3.09C245,137.78,244.33,136.41,242.53,136.41Z"/><path class="cls-1" d="M248.68,143.17h-.84v-7.33h.84v1a3.11,3.11,0,0,1,2.37-1.21,2.55,2.55,0,0,1,2.23,1,2.85,2.85,0,0,1,.37,1.69v4.79h-.85v-4.78c0-1.32-.54-2-1.89-2a2.14,2.14,0,0,0-2,1.43,3.72,3.72,0,0,0-.19,1.38Z"/><path class="cls-1" d="M261.71,133h.85v10.18h-.85v-1.29h0a3,3,0,0,1-2.54,1.49c-2.37,0-3.31-1.69-3.31-3.85s1-3.87,3.26-3.87a3,3,0,0,1,2.62,1.37Zm-2.47,3.42c-1.76,0-2.58,1.48-2.51,3.32s1.08,2.87,2.51,2.87c1.59,0,2.47-1.35,2.47-3.12S260.78,136.41,259.24,136.41Z"/><path class="cls-1" d="M271.91,143.2a4.29,4.29,0,0,1-1,.17c-.83,0-1.3-.37-1.3-1.46v-5.36h-1v-.71h1v-2h.85v2h1.37v.71h-1.37v5c0,.72,0,1,.74,1a2.81,2.81,0,0,0,.69-.1Z"/><path class="cls-1" d="M273.14,139.51c0-2.14,1.13-3.86,3.39-3.86s3.4,1.71,3.4,3.86c0,2.32-1.35,3.86-3.4,3.86C274.67,143.34,273.14,142.07,273.14,139.51Zm3.39-3.1c-1.78,0-2.49,1.51-2.49,3.1,0,1.82.87,3.09,2.49,3.09,1.78,0,2.49-1.52,2.49-3.09C279,137.78,278.33,136.41,276.53,136.41Z"/><path class="cls-1" d="M288.7,143.2a4.29,4.29,0,0,1-1,.17c-.83,0-1.3-.37-1.3-1.46v-5.36h-1v-.71h1v-2h.85v2h1.37v.71h-1.37v5c0,.72,0,1,.73,1a2.82,2.82,0,0,0,.7-.1Z"/><path class="cls-1" d="M291.3,143.17h-.85v-7.33h.85v1.38h0a2.2,2.2,0,0,1,2.39-1.57v.91c-1.91,0-2.42,1.38-2.42,3Z"/><path class="cls-1" d="M298.84,138.9a4.15,4.15,0,0,0,1.11-.24c.29-.13.31-.51.31-.77,0-.86-.5-1.48-1.82-1.48s-2,.38-2.14,1.65h-.86c.13-1.72,1.42-2.41,3-2.41s2.66.58,2.66,2.27v4c0,.67.17.82.89.57v.66a2.35,2.35,0,0,1-.66.14,1.58,1.58,0,0,1-.38,0c-.57-.08-.67-.58-.68-1.09a3.61,3.61,0,0,1-2.73,1.22,2.18,2.18,0,0,1-2.45-2.11c0-1.23.85-2,2.56-2.21Zm1.42.42a6.68,6.68,0,0,1-2.19.41c-1.28.1-2.06.57-2.06,1.56s.78,1.31,1.58,1.31c1.35,0,2.67-.65,2.67-2.13Z"/><path class="cls-1" d="M304.54,143.17h-.85v-7.33h.85v1a3.1,3.1,0,0,1,2.36-1.21,2.55,2.55,0,0,1,2.23,1,2.77,2.77,0,0,1,.37,1.69v4.79h-.85v-4.78c0-1.32-.54-2-1.89-2a2.14,2.14,0,0,0-2,1.43,3.72,3.72,0,0,0-.18,1.38Z"/><path class="cls-1" d="M312.4,140.88a1.91,1.91,0,0,0,2.19,1.72c1.23,0,1.81-.65,1.81-1.35,0-2.13-4.69-.63-4.69-3.51,0-1.22.94-2.09,2.57-2.09s2.62.65,2.83,2.3h-.86a1.72,1.72,0,0,0-2-1.54c-1.08,0-1.66.51-1.66,1.26,0,2,4.7.75,4.7,3.56,0,1.4-1.26,2.14-3,2.14a2.57,2.57,0,0,1-2.78-2.49Z"/><path class="cls-1" d="M322.7,138.9a4.15,4.15,0,0,0,1.11-.24c.29-.13.31-.51.31-.77,0-.86-.5-1.48-1.82-1.48s-2,.38-2.14,1.65h-.86c.13-1.72,1.42-2.41,3-2.41s2.66.58,2.66,2.27v4c0,.67.17.82.89.57v.66a2.35,2.35,0,0,1-.66.14,1.58,1.58,0,0,1-.38,0c-.57-.08-.67-.58-.68-1.09a3.61,3.61,0,0,1-2.73,1.22,2.18,2.18,0,0,1-2.45-2.11c0-1.23.85-2,2.56-2.21Zm1.42.42a6.68,6.68,0,0,1-2.19.41c-1.28.1-2.06.57-2.06,1.56s.78,1.31,1.58,1.31c1.35,0,2.67-.65,2.67-2.13Z"/><path class="cls-1" d="M332.74,138.15a2.15,2.15,0,0,0-2.18-1.74c-1.74,0-2.46,1.58-2.46,3.11s.71,3.08,2.46,3.08a2.15,2.15,0,0,0,2.25-2h.9a3,3,0,0,1-3.15,2.73c-2.33,0-3.37-1.69-3.37-3.85s1.18-3.87,3.37-3.87a2.74,2.74,0,0,1,3,2.5Z"/><path class="cls-1" d="M338.34,143.2a4.29,4.29,0,0,1-1,.17c-.83,0-1.3-.37-1.3-1.46v-5.36h-1v-.71h1v-2h.85v2h1.37v.71h-1.37v5c0,.72,0,1,.74,1a2.81,2.81,0,0,0,.69-.1Z"/><path class="cls-1" d="M340.13,134.25V133h.94v1.26Zm.05,8.92v-7.33H341v7.33Z"/><path class="cls-1" d="M343.06,139.51c0-2.14,1.13-3.86,3.4-3.86s3.39,1.71,3.39,3.86c0,2.32-1.34,3.86-3.39,3.86C344.59,143.34,343.06,142.07,343.06,139.51Zm3.4-3.1c-1.79,0-2.49,1.51-2.49,3.1,0,1.82.86,3.09,2.49,3.09,1.78,0,2.49-1.52,2.49-3.09C348.93,137.78,348.25,136.41,346.46,136.41Z"/><path class="cls-1" d="M352.61,143.17h-.85v-7.33h.85v1a3.1,3.1,0,0,1,2.36-1.21,2.55,2.55,0,0,1,2.23,1,2.77,2.77,0,0,1,.37,1.69v4.79h-.85v-4.78c0-1.32-.53-2-1.89-2a2.14,2.14,0,0,0-2,1.43,3.72,3.72,0,0,0-.18,1.38Z"/><path class="cls-1" d="M210.39,155.12a2.15,2.15,0,0,0-2.18-1.74c-1.74,0-2.46,1.59-2.46,3.11s.7,3.09,2.46,3.09a2.15,2.15,0,0,0,2.25-2h.9a3,3,0,0,1-3.15,2.73c-2.34,0-3.37-1.68-3.37-3.85s1.18-3.87,3.37-3.87a2.75,2.75,0,0,1,3,2.5Z"/><path class="cls-1" d="M212.93,156.48c0-2.14,1.13-3.86,3.4-3.86s3.39,1.71,3.39,3.86c0,2.32-1.34,3.86-3.39,3.86C214.46,160.31,212.93,159,212.93,156.48Zm3.4-3.1c-1.79,0-2.49,1.51-2.49,3.1,0,1.82.86,3.1,2.49,3.1s2.48-1.53,2.48-3.1C218.8,154.75,218.12,153.38,216.33,153.38Z"/><path class="cls-1" d="M222.48,160.14h-.85v-7.32h.85v1a3.1,3.1,0,0,1,2.36-1.21,2.55,2.55,0,0,1,2.23,1,2.77,2.77,0,0,1,.37,1.69v4.79h-.85v-4.78c0-1.31-.53-2-1.89-2a2.14,2.14,0,0,0-2,1.43,3.8,3.8,0,0,0-.18,1.39Z"/><path class="cls-1" d="M229,153.52v-.7h1.12v-1.16c0-1.16.42-1.9,1.56-1.9a3.15,3.15,0,0,1,.7.06v.78a1.86,1.86,0,0,0-.51-.08c-.87,0-.9.73-.9,1.39v.91h1.38v.7H231v6.62h-.85v-6.62Zm6-2.3h-.93V150H235Zm-.89,8.92v-7.32h.85v7.32Z"/><path class="cls-1" d="M238.16,160.14h-.85v-7.32h.85v1.37h0a2.21,2.21,0,0,1,2.39-1.57v.92c-1.91,0-2.42,1.37-2.42,3Z"/><path class="cls-1" d="M243.07,160.14h-.85v-7.32h.85v1.1h0a2.49,2.49,0,0,1,2.26-1.3,2,2,0,0,1,2.15,1.41,2.53,2.53,0,0,1,2.39-1.41c2,0,2.28,1.43,2.28,2.9v4.62h-.85v-5.06c0-1.05-.37-1.7-1.57-1.7a2,2,0,0,0-1.65.84,3.62,3.62,0,0,0-.49,2v3.94h-.84v-5.06c0-1.05-.37-1.7-1.57-1.7a2,2,0,0,0-1.66.84,3.62,3.62,0,0,0-.48,2Z"/><path class="cls-1" d="M257.84,155.87a4.15,4.15,0,0,0,1.11-.24c.29-.13.31-.51.31-.76,0-.87-.5-1.49-1.82-1.49s-2,.38-2.14,1.66h-.86c.13-1.73,1.42-2.42,3-2.42s2.66.58,2.66,2.27v4c0,.67.17.82.89.57v.66a2,2,0,0,1-.66.15,1.52,1.52,0,0,1-.38,0c-.57-.08-.67-.58-.68-1.09a3.58,3.58,0,0,1-2.73,1.22,2.18,2.18,0,0,1-2.45-2.11c0-1.23.85-2,2.56-2.2Zm1.42.42a6.68,6.68,0,0,1-2.19.41c-1.29.1-2.06.57-2.06,1.56s.77,1.32,1.58,1.32c1.34,0,2.67-.65,2.67-2.14Z"/><path class="cls-1" d="M265.26,160.17a4.19,4.19,0,0,1-1,.17c-.83,0-1.3-.37-1.3-1.46v-5.36h-1v-.7h1v-2h.85v2h1.37v.7h-1.37v5c0,.72,0,1,.74,1a3.38,3.38,0,0,0,.69-.1Z"/><path class="cls-1" d="M267.06,151.22V150H268v1.26Zm0,8.92v-7.32H268v7.32Z"/><path class="cls-1" d="M270,156.48c0-2.14,1.13-3.86,3.39-3.86s3.39,1.71,3.39,3.86c0,2.32-1.34,3.86-3.39,3.86C271.51,160.31,270,159,270,156.48Zm3.39-3.1c-1.78,0-2.49,1.51-2.49,3.1,0,1.82.86,3.1,2.49,3.1,1.78,0,2.49-1.53,2.49-3.1C275.85,154.75,275.18,153.38,273.38,153.38Z"/><path class="cls-1" d="M279.53,160.14h-.85v-7.32h.85v1a3.11,3.11,0,0,1,2.36-1.21,2.58,2.58,0,0,1,2.24,1,2.85,2.85,0,0,1,.37,1.69v4.79h-.85v-4.78c0-1.31-.54-2-1.9-2a2.14,2.14,0,0,0-2,1.43,4,4,0,0,0-.18,1.39Z"/><path class="cls-1" d="M296.84,152.82h.85V163h-.85V159a3,3,0,0,1-2.61,1.37c-2.24,0-3.27-1.83-3.27-3.88s1-3.84,3.31-3.84a2.94,2.94,0,0,1,2.54,1.48h0Zm-2.47.56c-1.76,0-2.58,1.49-2.51,3.32s1.08,2.88,2.51,2.88c1.59,0,2.47-1.36,2.47-3.13S295.91,153.38,294.37,153.38Z"/><path class="cls-1" d="M305.14,152.82H306v7.32h-.85v-1a2.91,2.91,0,0,1-2.36,1.22c-1.95,0-2.6-1.17-2.6-2.7v-4.82H301v4.8c0,1.26.55,2,1.88,2s2.23-1.16,2.23-2.78Z"/><path class="cls-1" d="M308.92,156.68c0,1.58.83,2.9,2.46,2.9a2.15,2.15,0,0,0,2.22-1.69h.95a3.07,3.07,0,0,1-3.17,2.45c-2.35,0-3.36-1.67-3.36-3.83s1.27-3.89,3.36-3.89,3.24,1.43,3.23,4.06Zm4.78-.71a2.32,2.32,0,0,0-2.32-2.59c-1.5,0-2.29,1.2-2.46,2.59Z"/><path class="cls-1" d="M317.51,160.14h-.85v-7.32h.85v1.37h0a2.21,2.21,0,0,1,2.39-1.57v.92c-1.91,0-2.41,1.37-2.41,3Z"/><path class="cls-1" d="M321.76,151.22V150h.94v1.26Zm0,8.92v-7.32h.85v7.32Z"/><path class="cls-1" d="M325.69,156.68c0,1.58.84,2.9,2.47,2.9a2.15,2.15,0,0,0,2.22-1.69h.94a3.06,3.06,0,0,1-3.16,2.45c-2.35,0-3.37-1.67-3.37-3.83s1.27-3.89,3.37-3.89,3.23,1.43,3.22,4.06Zm4.78-.71a2.32,2.32,0,0,0-2.31-2.59c-1.5,0-2.3,1.2-2.47,2.59Z"/><path class="cls-1" d="M333.88,157.85a1.92,1.92,0,0,0,2.19,1.73c1.23,0,1.82-.65,1.82-1.36,0-2.12-4.7-.62-4.7-3.51,0-1.22.95-2.09,2.57-2.09s2.62.65,2.83,2.3h-.86a1.72,1.72,0,0,0-2-1.54c-1.07,0-1.65.51-1.65,1.26,0,2,4.69.75,4.69,3.56,0,1.4-1.26,2.14-3,2.14a2.57,2.57,0,0,1-2.79-2.49Z"/><path class="cls-1" d="M206.23,205.81c.21,2.43,1.83,3.32,3.91,3.32,2.43,0,3.45-1.32,3.45-2.81,0-4.21-8.28-1.42-8.28-6.76,0-1.88,1.56-3.63,4.6-3.63s4.58,1.84,4.57,4h-1.23c0-2.07-1.6-3-3.34-3-2.6,0-3.55,1.6-3.32,3,.59,3.51,8.28,1,8.28,6.24,0,2.49-1.83,4-5,4-2.83,0-4.92-1.47-4.92-4.41Z"/><path class="cls-1" d="M221,209.9a5.19,5.19,0,0,1-1.3.23c-1.11,0-1.74-.49-1.74-1.94V201h-1.37v-.95h1.37v-2.71h1.14v2.71h1.83V201h-1.83v6.69c0,1,0,1.38,1,1.38A4.16,4.16,0,0,0,221,209Z"/><path class="cls-1" d="M222.6,205c0-2.85,1.51-5.15,4.53-5.15s4.52,2.28,4.52,5.15c0,3.09-1.79,5.15-4.52,5.15C224.64,210.09,222.6,208.39,222.6,205Zm4.53-4.13c-2.38,0-3.32,2-3.32,4.13,0,2.43,1.15,4.13,3.32,4.13,2.37,0,3.32-2,3.32-4.13C230.43,202.68,229.52,200.85,227.13,200.85Z"/><path class="cls-1" d="M235.39,209.86h-1.14v-9.77h1.14v1.83h0a3,3,0,0,1,3.19-2.09v1.23c-2.54-.06-3.22,1.83-3.22,4Z"/><path class="cls-1" d="M241.65,205.24c0,2.11,1.11,3.87,3.28,3.87a2.86,2.86,0,0,0,3-2.25h1.26a4.08,4.08,0,0,1-4.22,3.27c-3.13,0-4.49-2.23-4.49-5.11s1.7-5.19,4.49-5.19,4.32,1.9,4.3,5.41Zm6.37-.94c0-1.91-1.05-3.45-3.09-3.45s-3.06,1.6-3.28,3.45Z"/><path class="cls-1" d="M212.16,222.72h1.13v9.77h-1.13v-1.36a3.92,3.92,0,0,1-3.15,1.63c-2.61,0-3.47-1.57-3.47-3.61v-6.43h1.13v6.42c0,1.67.73,2.6,2.51,2.6s3-1.55,3-3.7Z"/><path class="cls-1" d="M217.62,232.49h-1.13v-9.77h1.13v1.36a4.16,4.16,0,0,1,3.15-1.62,3.42,3.42,0,0,1,3,1.39,3.75,3.75,0,0,1,.49,2.25v6.39h-1.13v-6.37c0-1.76-.72-2.64-2.53-2.64a2.85,2.85,0,0,0-2.71,1.9,5,5,0,0,0-.25,1.85Z"/><path class="cls-1" d="M228.11,229.44a2.55,2.55,0,0,0,2.92,2.3c1.64,0,2.42-.87,2.42-1.81,0-2.83-6.27-.83-6.27-4.68,0-1.62,1.27-2.79,3.44-2.79s3.49.87,3.77,3.07h-1.15c-.21-1.51-1.23-2.05-2.64-2.05s-2.21.68-2.21,1.68c0,2.66,6.26,1,6.26,4.75,0,1.87-1.68,2.85-4,2.85a3.42,3.42,0,0,1-3.71-3.32Z"/><path class="cls-1" d="M240.78,232.53a5.19,5.19,0,0,1-1.3.23c-1.11,0-1.74-.49-1.74-1.95v-7.14h-1.37v-.95h1.37V220h1.14v2.71h1.83v.95h-1.83v6.69c0,1,0,1.38,1,1.38a4.16,4.16,0,0,0,.92-.13Z"/><path class="cls-1" d="M244.25,232.49h-1.13v-9.77h1.13v1.83h0a2.94,2.94,0,0,1,3.18-2.09v1.22c-2.54-.05-3.22,1.83-3.22,4Z"/><path class="cls-1" d="M256.43,222.72h1.13v9.77h-1.13v-1.36a3.89,3.89,0,0,1-3.15,1.63c-2.6,0-3.47-1.57-3.47-3.61v-6.43h1.13v6.42c0,1.67.74,2.6,2.51,2.6s3-1.55,3-3.7Z"/><path class="cls-1" d="M267.69,225.8a2.85,2.85,0,0,0-2.9-2.32c-2.32,0-3.29,2.11-3.29,4.15s.95,4.11,3.29,4.11a2.87,2.87,0,0,0,3-2.62H269a4,4,0,0,1-4.2,3.64c-3.12,0-4.49-2.25-4.49-5.13,0-2.72,1.56-5.17,4.49-5.17,2.24,0,3.71,1.07,4,3.34Z"/><path class="cls-1" d="M275.16,232.53a5.38,5.38,0,0,1-1.3.23c-1.12,0-1.74-.49-1.74-1.95v-7.14h-1.38v-.95h1.38V220h1.13v2.71h1.83v.95h-1.83v6.69c0,1,0,1.38,1,1.38a4.17,4.17,0,0,0,.93-.13Z"/><path class="cls-1" d="M284.06,222.72h1.13v9.77h-1.13v-1.36a3.89,3.89,0,0,1-3.15,1.63c-2.6,0-3.47-1.57-3.47-3.61v-6.43h1.13v6.42c0,1.67.74,2.6,2.51,2.6s3-1.55,3-3.7Z"/><path class="cls-1" d="M289.58,232.49h-1.13v-9.77h1.13v1.83h0a3,3,0,0,1,3.19-2.09v1.22c-2.55-.05-3.23,1.83-3.23,4Z"/><path class="cls-1" d="M295.84,227.87c0,2.11,1.12,3.87,3.29,3.87a2.86,2.86,0,0,0,3-2.25h1.26a4.09,4.09,0,0,1-4.22,3.27c-3.13,0-4.49-2.23-4.49-5.12s1.69-5.18,4.49-5.18,4.32,1.9,4.3,5.41Zm6.38-.94c0-1.91-1.06-3.45-3.09-3.45s-3.06,1.6-3.29,3.45Z"/><path class="cls-1" d="M313.65,218.91h1.13v13.58h-1.13v-1.71h0a3.94,3.94,0,0,1-3.4,2c-3.15,0-4.41-2.25-4.41-5.13s1.38-5.17,4.36-5.17a4.07,4.07,0,0,1,3.49,1.83Zm-3.3,4.57c-2.34,0-3.44,2-3.34,4.43s1.43,3.83,3.34,3.83c2.13,0,3.3-1.81,3.3-4.17C313.65,225.36,312.4,223.48,310.35,223.48Z"/><path class="cls-1" d="M213.08,241.54h1.13v13.58h-1.13v-1.71h0a3.94,3.94,0,0,1-3.39,2c-3.15,0-4.42-2.25-4.42-5.13s1.38-5.17,4.36-5.17a4.06,4.06,0,0,1,3.49,1.83Zm-3.3,4.57c-2.34,0-3.43,2-3.34,4.43s1.43,3.83,3.34,3.83c2.13,0,3.3-1.81,3.3-4.17C213.08,248,211.84,246.11,209.78,246.11Z"/><path class="cls-1" d="M222,249.43a5.84,5.84,0,0,0,1.49-.33c.37-.16.41-.67.41-1,0-1.15-.68-2-2.43-2-1.57,0-2.64.5-2.85,2.2h-1.15c.17-2.3,1.89-3.22,4-3.22s3.54.77,3.54,3v5.32c0,.89.23,1.1,1.19.76v.88a3,3,0,0,1-.88.19,2.76,2.76,0,0,1-.51-.05c-.76-.12-.89-.78-.91-1.46a4.77,4.77,0,0,1-3.64,1.63c-1.72,0-3.26-.93-3.26-2.81,0-1.65,1.13-2.64,3.41-3Zm1.9.56a9.31,9.31,0,0,1-2.92.55c-1.72.13-2.76.75-2.76,2.07s1,1.76,2.12,1.76c1.79,0,3.56-.87,3.56-2.85Z"/><path class="cls-1" d="M231.92,255.16a5.38,5.38,0,0,1-1.3.23c-1.12,0-1.74-.49-1.74-1.95v-7.15H227.5v-.94h1.38v-2.71H230v2.71h1.83v.94H230V253c0,1,0,1.38,1,1.38a4.25,4.25,0,0,0,.93-.13Z"/><path class="cls-1" d="M238.69,249.43a5.84,5.84,0,0,0,1.49-.33c.37-.16.41-.67.41-1,0-1.15-.68-2-2.43-2-1.57,0-2.64.5-2.85,2.2h-1.15c.17-2.3,1.89-3.22,4-3.22,2,0,3.54.77,3.54,3v5.32c0,.89.23,1.1,1.19.76v.88a3,3,0,0,1-.88.19,2.76,2.76,0,0,1-.51-.05c-.76-.12-.89-.78-.91-1.46a4.79,4.79,0,0,1-3.64,1.63c-1.72,0-3.26-.93-3.26-2.81,0-1.65,1.13-2.64,3.41-3Zm1.9.56a9.31,9.31,0,0,1-2.92.55c-1.72.13-2.76.75-2.76,2.07s1,1.76,2.12,1.76c1.79,0,3.56-.87,3.56-2.85Z"/><path class="cls-1" d="M208.1,261.64a11,11,0,0,0,0,13.15h-.73a10.17,10.17,0,0,1,0-13.15Z"/><path class="cls-1" d="M209.48,264.77h.92l2.38,6.28,2.37-6.28h.92l-2.84,7.32h-.95Z"/><path class="cls-1" d="M217.77,263.17v-1.26h.93v1.26Zm0,8.92v-7.32h.85v7.32Z"/><path class="cls-1" d="M226.83,261.91h.85v10.18h-.85v-1.28h0a3,3,0,0,1-2.55,1.48c-2.36,0-3.31-1.68-3.31-3.85s1-3.87,3.27-3.87a3,3,0,0,1,2.61,1.37Zm-2.47,3.42c-1.76,0-2.58,1.49-2.5,3.33s1.07,2.87,2.5,2.87c1.6,0,2.47-1.36,2.47-3.13S225.9,265.33,224.36,265.33Z"/><path class="cls-1" d="M230.69,268.63c0,1.58.84,2.9,2.47,2.9a2.15,2.15,0,0,0,2.22-1.68h.94a3.06,3.06,0,0,1-3.16,2.44c-2.35,0-3.37-1.67-3.37-3.83s1.27-3.89,3.37-3.89,3.23,1.43,3.22,4.06Zm4.79-.71a2.32,2.32,0,0,0-2.32-2.59c-1.5,0-2.3,1.21-2.47,2.59Z"/><path class="cls-1" d="M237.91,268.43c0-2.14,1.13-3.86,3.39-3.86s3.4,1.71,3.4,3.86c0,2.32-1.35,3.86-3.4,3.86C239.43,272.26,237.91,271,237.91,268.43Zm3.39-3.1c-1.78,0-2.49,1.52-2.49,3.1,0,1.82.87,3.1,2.49,3.1,1.78,0,2.49-1.53,2.49-3.1C243.78,266.71,243.1,265.33,241.3,265.33Z"/><path class="cls-1" d="M248.06,272.52a1.47,1.47,0,0,1-1,1.51v-.52a1,1,0,0,0,.48-.94v-.48H247v-1.24h1Z"/><path class="cls-1" d="M258.54,267.82a4.22,4.22,0,0,0,1.12-.24c.28-.13.31-.51.31-.76,0-.86-.51-1.49-1.82-1.49s-2,.39-2.14,1.66h-.86c.13-1.73,1.41-2.42,3-2.42s2.66.58,2.66,2.28v4c0,.67.17.83.89.57v.67a2.43,2.43,0,0,1-.66.14,1.6,1.6,0,0,1-.39,0c-.56-.08-.66-.58-.67-1.08a3.6,3.6,0,0,1-2.73,1.21,2.18,2.18,0,0,1-2.45-2.11c0-1.23.85-2,2.56-2.2Zm1.43.43a7.3,7.3,0,0,1-2.19.41c-1.29.1-2.07.56-2.07,1.55s.78,1.32,1.59,1.32c1.34,0,2.67-.65,2.67-2.14Z"/><path class="cls-1" d="M268.36,264.77h.85v7.32h-.85v-1a3,3,0,0,1-2.36,1.21c-2,0-2.61-1.17-2.61-2.7v-4.82h.85v4.81c0,1.25.55,1.95,1.88,1.95s2.24-1.16,2.24-2.77Z"/><path class="cls-1" d="M277.27,261.91h.85v10.18h-.85v-1.28h0a3,3,0,0,1-2.55,1.48c-2.36,0-3.31-1.68-3.31-3.85s1-3.87,3.27-3.87a3.06,3.06,0,0,1,2.62,1.37Zm-2.48,3.42c-1.75,0-2.57,1.49-2.5,3.33s1.07,2.87,2.5,2.87c1.6,0,2.48-1.36,2.48-3.13S276.33,265.33,274.79,265.33Z"/><path class="cls-1" d="M280.69,263.17v-1.26h.93v1.26Zm0,8.92v-7.32h.85v7.32Z"/><path class="cls-1" d="M283.62,268.43c0-2.14,1.13-3.86,3.39-3.86s3.4,1.71,3.4,3.86c0,2.32-1.35,3.86-3.4,3.86C285.15,272.26,283.62,271,283.62,268.43Zm3.39-3.1c-1.78,0-2.49,1.52-2.49,3.1,0,1.82.87,3.1,2.49,3.1,1.78,0,2.49-1.53,2.49-3.1C289.49,266.71,288.81,265.33,287,265.33Z"/><path class="cls-1" d="M293.77,272.52a1.45,1.45,0,0,1-1,1.51v-.52a1,1,0,0,0,.48-.94v-.48h-.48v-1.24h1Z"/><path class="cls-1" d="M301,263.17v-1.26h.94v1.26Zm0,8.92v-7.32h.85v7.32Z"/><path class="cls-1" d="M305.12,272.09h-.85v-7.32h.85v1.1h0a2.52,2.52,0,0,1,2.27-1.3,2,2,0,0,1,2.15,1.41,2.54,2.54,0,0,1,2.39-1.41c2,0,2.27,1.43,2.27,2.9v4.62h-.85V267c0-1-.36-1.7-1.56-1.7a2,2,0,0,0-1.66.84,3.62,3.62,0,0,0-.48,2v3.94h-.85V267c0-1-.37-1.7-1.57-1.7a2,2,0,0,0-1.65.84,3.62,3.62,0,0,0-.48,2Z"/><path class="cls-1" d="M319.88,267.82a4.22,4.22,0,0,0,1.12-.24c.28-.13.31-.51.31-.76,0-.86-.51-1.49-1.83-1.49s-2,.39-2.13,1.66h-.86c.12-1.73,1.41-2.42,3-2.42s2.66.58,2.66,2.28v4c0,.67.17.83.89.57v.67a2.51,2.51,0,0,1-.67.14,1.58,1.58,0,0,1-.38,0c-.56-.08-.66-.58-.68-1.08a3.59,3.59,0,0,1-2.73,1.21,2.17,2.17,0,0,1-2.44-2.11c0-1.23.85-2,2.56-2.2Zm1.43.43a7.3,7.3,0,0,1-2.19.41c-1.29.1-2.07.56-2.07,1.55s.78,1.32,1.59,1.32c1.34,0,2.67-.65,2.67-2.14Z"/><path class="cls-1" d="M330.39,264.77h.85v6.62c0,2-.65,3.7-3.44,3.7-2.15,0-3-1.23-3.1-2.11h.91c.25,1.11,1.19,1.35,2.19,1.35,2.32,0,2.63-1.73,2.59-3.41a3,3,0,0,1-2.62,1.37c-2.23,0-3.26-1.82-3.26-3.87s.94-3.85,3.31-3.85a2.94,2.94,0,0,1,2.54,1.48h0Zm-2.48.56c-1.42,0-2.48,1-2.5,2.87s.75,3.33,2.5,3.33c1.55,0,2.48-1.42,2.48-3.07S329.51,265.33,327.91,265.33Z"/><path class="cls-1" d="M334.25,268.63c0,1.58.83,2.9,2.46,2.9a2.15,2.15,0,0,0,2.22-1.68h.95a3.07,3.07,0,0,1-3.17,2.44c-2.35,0-3.37-1.67-3.37-3.83s1.28-3.89,3.37-3.89,3.24,1.43,3.23,4.06Zm4.78-.71a2.32,2.32,0,0,0-2.32-2.59c-1.5,0-2.29,1.21-2.46,2.59Z"/><path class="cls-1" d="M342.44,269.8a1.92,1.92,0,0,0,2.19,1.73c1.23,0,1.81-.65,1.81-1.36,0-2.12-4.69-.62-4.69-3.51,0-1.21.94-2.09,2.57-2.09s2.62.65,2.83,2.3h-.86a1.72,1.72,0,0,0-2-1.54c-1.08,0-1.66.51-1.66,1.26,0,2,4.7.75,4.7,3.57,0,1.4-1.26,2.13-3,2.13a2.57,2.57,0,0,1-2.78-2.49Z"/><path class="cls-1" d="M350.83,272.52a1.46,1.46,0,0,1-1,1.51v-.52a1,1,0,0,0,.48-.94v-.48h-.48v-1.24h1Z"/><path class="cls-1" d="M357.11,265.48v-.71h1.11v-1.16c0-1.16.43-1.9,1.56-1.9a4.08,4.08,0,0,1,.71.06v.78a1.89,1.89,0,0,0-.51-.07c-.88,0-.91.72-.91,1.38v.91h1.39v.71h-1.39v6.61h-.85v-6.61Zm6-2.31h-.93v-1.26h.93Zm-.89,8.92v-7.32H363v7.32Z"/><path class="cls-1" d="M365.49,272.09V261.91h.85v10.18Z"/><path class="cls-1" d="M369.38,268.63c0,1.58.84,2.9,2.46,2.9a2.14,2.14,0,0,0,2.22-1.68H375a3.06,3.06,0,0,1-3.17,2.44c-2.35,0-3.36-1.67-3.36-3.83s1.27-3.89,3.36-3.89,3.24,1.43,3.23,4.06Zm4.78-.71a2.32,2.32,0,0,0-2.32-2.59c-1.5,0-2.29,1.21-2.46,2.59Z"/><path class="cls-1" d="M377.57,269.8a1.92,1.92,0,0,0,2.19,1.73c1.23,0,1.81-.65,1.81-1.36,0-2.12-4.69-.62-4.69-3.51,0-1.21.95-2.09,2.57-2.09s2.62.65,2.83,2.3h-.86a1.72,1.72,0,0,0-2-1.54c-1.08,0-1.66.51-1.66,1.26,0,2,4.7.75,4.7,3.57,0,1.4-1.26,2.13-3,2.13a2.57,2.57,0,0,1-2.78-2.49Z"/><path class="cls-1" d="M384.27,274.79a11,11,0,0,0,0-13.15H385a10.17,10.17,0,0,1,0,13.15Z"/><circle class="cls-2" cx="107.84" cy="41.8" r="1.26"/><circle class="cls-2" cx="107.84" cy="53.15" r="1.26"/><circle class="cls-2" cx="107.84" cy="64.49" r="1.26"/><path class="cls-3" d="M152.91,23.66a71.76,71.76,0,0,0-29.43-7.22.9.9,0,0,0,0-.16V12.69a.45.45,0,0,0-.45-.45h-5.6a.45.45,0,0,0-.45.45v3.59a.44.44,0,0,0,.07.22A79.39,79.39,0,0,0,87.6,23.67a.44.44,0,0,0,.27.83c6.41-1.05,23.63-3.26,26.35-.95a.9.9,0,0,1,.25.32v7.45a.44.44,0,0,0,.44.44H117V37h-13.7a.44.44,0,0,0-.44.44v8.76a.45.45,0,0,0,.44.45H117v1.69h-13.7a.45.45,0,0,0-.44.45v8.76a.44.44,0,0,0,.44.44H117v1.7h-13.7a.44.44,0,0,0-.44.44v8.76a.45.45,0,0,0,.44.45H117V76.2a3.25,3.25,0,0,0,6.5,0V69.32h13.7a.45.45,0,0,0,.44-.45V60.11a.44.44,0,0,0-.44-.44h-13.7V58h13.7a.44.44,0,0,0,.44-.44V48.77a.45.45,0,0,0-.44-.45h-13.7V46.63h13.7a.45.45,0,0,0,.44-.45V37.42a.44.44,0,0,0-.44-.44h-13.7V31.76h2.1a.45.45,0,0,0,.45-.44V24.24a.48.48,0,0,0,0-.18.61.61,0,0,1,.26-.47c2.65-2.26,19.88-.11,26.3.91h.07a.43.43,0,0,0,.42-.31A.45.45,0,0,0,152.91,23.66Zm-35-7.38V13.13h4.71v3.15a.51.51,0,0,0,0,.13c-1.63,0-3.22,0-4.78.05A.41.41,0,0,0,117.91,16.28ZM103.76,45.74V37.87H117v7.87Zm0,11.34V49.21H117v7.87Zm0,11.35V60.56H117v7.87Zm33-7.87v7.87H123.51V60.56Zm0-11.35v7.87H123.51V49.21Zm0-11.34v7.87H123.51V37.87Zm-14.14-.45V76.2a2.36,2.36,0,0,1-4.71,0V31.76h4.71Zm3.44-14.71V20.62a.45.45,0,0,0-.45-.45.44.44,0,0,0-.44.45V30.87h-9.81V24.24a.48.48,0,0,0,0-.18,1.63,1.63,0,0,0,0-.31V20.62a.45.45,0,1,0-.89,0v2c-3.49-2.07-17-.44-23.47.49,8.29-3.39,32.7-11.29,58.71,0C143.29,22.27,129.45,20.63,126.06,22.71Z"/><path class="cls-3" d="M120.26,132c-.79,0-19.24,0-19.24-2.94V119a.46.46,0,0,1,.46-.46.47.47,0,0,1,.46.46V129c.41.8,7.18,2,18.32,2s17.91-1.22,18.33-2.06V119a.47.47,0,0,1,.46-.46.46.46,0,0,1,.46.46V129C139.5,131.92,121.05,132,120.26,132Z"/><path class="cls-3" d="M120.26,121.89c-.79,0-19.24,0-19.24-2.94S119.47,116,120.26,116s19.24,0,19.24,2.94S121.05,121.89,120.26,121.89Zm0-5c-11.14,0-17.91,1.22-18.33,2.06.42.77,7.19,2,18.33,2,11,0,17.69-1.18,18.31-2C138,118.11,131.22,116.93,120.26,116.93ZM138.59,119h0Z"/><circle class="cls-2" cx="105.42" cy="125.22" r="1.21"/><circle class="cls-2" cx="105.42" cy="214.23" r="1.21"/><circle class="cls-2" cx="105.42" cy="204.17" r="1.21"/><path class="cls-3" d="M120.26,184.9c-.79,0-19.24,0-19.24,2.94V218c0,2.91,18.45,2.94,19.24,2.94s19.24,0,19.24-2.94V187.84C139.5,184.94,121.05,184.9,120.26,184.9Zm18.33,23c-.42.85-7.19,2.06-18.33,2.06s-17.91-1.21-18.32-2v-9c3.73,1.89,17.64,1.91,18.32,1.91s14.6,0,18.32-1.92Zm0-10.06c-.42.85-7.19,2.06-18.33,2.06s-17.91-1.21-18.32-2v-9c3.73,1.89,17.64,1.92,18.32,1.92s14.6,0,18.32-1.92Zm-18.33-12c11,0,17.69,1.18,18.31,2-.62.84-7.35,2-18.31,2s-17.86-1.21-18.32-2h0C102.4,187,109.16,185.82,120.26,185.82Zm0,34.22c-11.13,0-17.91-1.21-18.32-2v-9c3.73,1.9,17.64,1.92,18.32,1.92s14.6,0,18.32-1.92v9C138.17,218.83,131.4,220,120.26,220Z"/><circle class="cls-2" cx="105.42" cy="194.11" r="1.21"/><path class="cls-4" d="M181.31,41.35l-.48,1.33,6.76,2.46H157a.7.7,0,0,0-.7.7.7.7,0,0,0,.7.71h30.56L180.83,49l.48,1.33,12.36-4.5Z"/><path class="cls-4" d="M181.31,119.49l-.48,1.32,6.76,2.47H157a.7.7,0,0,0-.7.7.7.7,0,0,0,.7.71h30.56l-6.76,2.46.48,1.33,12.36-4.5Z"/><path class="cls-4" d="M181.31,198.44l-.48,1.33,6.76,2.46H157a.7.7,0,0,0-.7.7.7.7,0,0,0,.7.71h30.56l-6.76,2.46.48,1.33,12.36-4.5Z"/></svg>